<svg width="100" height="91" viewBox="0 0 100 91" fill="none" xmlns="http://www.w3.org/2000/svg">
<path fill-rule="evenodd" clip-rule="evenodd" d="M14.9942 81.4009C15.5327 82.2191 16.592 82.0933 17.0468 81.4595C22.2255 82.6661 27.5345 82.1906 32.7852 81.8948C47.5812 81.2928 62.4606 83.1799 77.1967 81.2057C78.76 80.8931 80.5794 81.0425 81.8585 79.9583C83.9043 77.561 83.4637 73.9212 83.1378 71.0013C80.5256 54.5415 76.8118 37.9307 74.9593 21.3651C74.8558 19.7872 75.5061 17.8266 76.089 16.3432C76.233 16.0673 77.1431 15.7968 77.6154 15.4785C79.0647 14.4382 78.8297 12.5739 77.5733 11.48C73.5053 8.61255 67.8424 9.61453 63.5271 10.6724C62.7001 7.56636 61.7705 5.52349 60.1959 5.32118C57.1989 4.93612 49.9289 3.75943 47.6895 5.32118C46.6182 6.06832 45.9306 8.70096 45.1595 9.98345C39.5354 9.88357 28.121 2.35919 25.7743 10.8323C23.8677 10.9639 21.9793 12.6284 22.3441 14.6259C19.8714 16.8109 21.8217 20.0871 21.7874 22.8068C21.4624 28.5771 18.34 33.7375 17.041 39.3116C14.0718 50.1227 10.7111 69.7878 14.3938 80.3405C14.3145 80.2991 14.1414 80.3614 14.2536 80.4492C14.6706 80.5668 14.7248 81.0921 14.9942 81.4009Z" fill="white"/>
<path fill-rule="evenodd" clip-rule="evenodd" d="M79.6532 78.6518C78.9625 73.1067 78.4822 66.4127 78.4767 60.8214C78.4762 60.2948 79.2932 60.2957 79.2937 60.8214C79.2993 66.4127 79.7796 73.1067 80.4703 78.6518C80.5352 79.173 79.7174 79.1666 79.6532 78.6518M74.5362 44.2698C73.4689 44.9225 72.0674 44.4697 71.0111 44.0375C70.5302 43.8407 70.742 43.0506 71.2283 43.2497C72.0321 43.5787 73.2071 44.063 74.0555 43.6042C74.9022 43.1462 74.9404 41.8866 74.9467 41.0553C74.9507 40.5289 75.7677 40.5293 75.7638 41.0553C75.7552 42.1862 75.604 43.6165 74.5362 44.2698M72.5607 69.645C71.4839 69.0931 70.5652 68.3385 69.8257 67.3807C69.5043 66.9644 70.2145 66.558 70.5313 66.9683C71.182 67.8113 72.0299 68.4561 72.9731 68.9396C73.4417 69.1798 73.0277 69.8845 72.5607 69.645M67.3853 41.13C65.5377 48.5336 64.2979 56.0697 63.6902 63.6764C63.5666 65.2206 63.4798 66.7628 63.4308 68.306C63.3818 68.7084 63.3348 69.1118 63.2909 69.5152C63.1244 71.0409 62.9967 72.5914 63.008 74.1274C63.0131 74.8168 63.0345 75.5031 63.0815 76.1904C62.9998 75.9606 62.9242 75.7298 62.8507 75.5001C62.7006 75.0292 62.6015 74.541 62.4483 74.0733C62.3217 73.6862 62.1582 73.3155 62.0061 72.9407V72.9396C62.052 71.4046 61.9479 69.8553 61.8947 68.3274C61.8263 66.3481 61.7416 64.3709 61.6976 62.3906C61.6098 58.4299 61.6537 54.4662 61.7967 50.5077C62.0837 42.5312 62.8088 34.5927 63.5401 26.6489C63.7433 24.4398 63.9619 22.2317 64.113 20.0185C64.2652 17.7819 64.3265 15.5411 64.3438 13.2985C64.3449 13.137 64.0997 13.0942 64.0548 13.2504C64.015 12.7183 63.9445 12.1872 63.8271 11.6735C65.5888 12.7969 67.4466 13.7682 69.2676 14.7895C70.2266 15.3277 71.1815 15.8751 72.1701 16.3572C72.7135 16.6226 73.2619 16.8668 73.8216 17.0976C74.4017 17.3366 74.9562 17.6655 75.5946 17.4989C75.6497 17.4847 75.7018 17.4643 75.7518 17.4377C75.6793 17.5755 75.6068 17.7124 75.5374 17.8514C75.2963 18.3303 75.0665 18.8114 74.8439 19.2965C74.7847 19.3404 74.7326 19.4008 74.6917 19.4793C74.5835 19.6907 74.4783 19.9042 74.3761 20.1206C74.3557 20.1013 74.3353 20.0819 74.3149 20.0625C74.2291 19.9818 74.1106 20.1032 74.1862 20.1912C74.2209 20.2309 74.2546 20.2698 74.2883 20.3096C73.6224 21.7425 73.0811 23.249 72.5235 24.7197C71.8382 26.5273 71.1886 28.3483 70.5769 30.1816C69.3707 33.7878 68.3065 37.441 67.3853 41.13M40.9711 67.998C37.566 69.8216 34.384 72.0009 31.3235 74.3514C30.9063 74.6718 30.4999 73.9617 30.9111 73.6459C33.9716 71.2954 37.1537 69.1161 40.5588 67.2924C41.0227 67.0441 41.4349 67.7497 40.9711 67.998M29.4704 46.6406C29.2935 46.6274 29.1215 46.5248 29.0765 46.3408C28.8007 45.2114 28.5847 43.9811 28.8412 42.8292C28.9556 42.3154 29.7431 42.534 29.6291 43.0463C29.4267 43.9547 29.5875 44.9366 29.7976 45.8424C32.7674 45.9724 35.6975 44.9066 38.5388 44.191C39.0498 44.0623 39.2656 44.8506 38.7561 44.9788C35.742 45.7379 32.6243 46.8741 29.4704 46.6406M88.5938 76.7656C88.5968 76.7584 88.5999 76.7502 88.602 76.7431C88.7766 76.2141 88.7807 75.5992 88.8001 75.0448C88.8338 74.0581 88.798 73.0695 88.7092 72.0859C88.5213 70.0157 88.1168 67.9793 87.6338 65.96C86.6768 61.9607 85.3246 58.0695 84.5903 54.0159C83.1492 46.0589 83.4913 37.7741 80.6633 30.0991C79.4878 26.9084 77.8088 23.8414 75.5272 21.3065C75.6936 20.8 75.856 20.2924 76.0143 19.7827C76.2911 18.8963 76.574 17.9812 76.7446 17.0681C76.7487 17.0436 76.7538 17.0181 76.7568 16.9925C77.7281 16.5738 78.6115 15.7843 78.7627 14.7344C78.828 14.281 78.7525 13.7785 78.5564 13.3403C78.9567 12.9706 79.2141 12.4906 79.1528 11.8472C79.0384 10.6359 77.6239 10.3243 76.6394 10.0875C75.52 9.81888 74.3588 9.74432 73.2139 9.87096C72.6359 9.93428 72.0639 10.0405 71.5053 10.1998C71.0201 10.3377 70.4921 10.4797 70.103 10.8126C70.0571 10.8514 70.0948 10.927 70.15 10.927C70.9374 10.924 71.7218 10.6349 72.5174 10.597C73.3508 10.5583 74.1821 10.6267 74.9992 10.7983C75.7978 10.9658 76.5944 11.2109 77.3206 11.5898C77.5249 11.6971 77.8241 11.7696 77.5841 11.9861C77.4084 12.1444 77.0632 12.1578 76.8375 12.1812C76.3381 12.2332 75.9071 12.5253 75.8438 13.0585C75.7876 13.5293 76.0685 14.0624 76.5689 14.1686C76.5965 14.1749 76.622 14.1819 76.6445 14.1911C76.6578 14.2166 76.6782 14.2381 76.6761 14.2033C76.6761 14.2033 76.6772 14.2023 76.6772 14.2033C76.6894 14.2779 76.6935 14.3074 76.6935 14.3126C76.6904 14.3065 76.6853 14.281 76.6813 14.2605C76.6843 14.2789 76.6904 14.3085 76.6986 14.3525C76.6874 14.3045 76.6966 14.422 76.6874 14.4403C76.4218 14.9305 75.6365 15.0685 75.1789 15.2798C75.0901 15.3206 75.0135 15.3687 74.9481 15.4227C74.8398 15.385 74.7295 15.3472 74.6182 15.3053C74.0698 15.1001 73.5223 14.9009 72.9668 14.7159C71.8944 14.3576 70.8087 14.0379 69.7364 13.6784C67.706 12.9982 65.7431 12.1393 63.7505 11.361C63.6872 11.1261 63.6136 10.8964 63.5268 10.6727C63.5095 10.6258 63.4257 10.6104 63.4165 10.6727C63.3859 10.8708 63.3614 11.07 63.3409 11.2702C63.3328 11.2885 63.3307 11.309 63.3348 11.3284C63.2194 12.4927 63.25 13.6845 63.1908 14.8478C63.1173 16.298 62.912 17.7381 62.8538 19.1894V19.2159C62.6393 20.4548 62.4452 21.6977 62.2696 22.9447C62.0725 22.8834 61.8468 22.8957 61.6159 23.0193C59.9839 23.8904 58.1496 24.3756 56.3041 24.4838C55.3747 24.5379 54.4545 24.5074 53.5303 24.4001C52.9226 24.3306 52.3241 24.204 51.7246 24.0835C52.0402 22.7609 52.3792 21.4444 52.7622 20.1413C53.0778 19.0699 53.4291 18.0036 53.8632 16.9731C54.3013 15.9324 54.8467 14.9387 55.3543 13.9296C55.5882 13.4629 55.3124 12.749 54.7048 12.798C54.525 12.8123 54.3453 12.8236 54.1645 12.8317C52.4058 12.9156 50.5766 12.7195 48.8404 12.5447C46.8642 12.3446 44.8614 12.1371 42.9025 11.8114C42.7575 11.788 42.6983 11.9851 42.8413 12.0331C43.7706 12.3456 44.6888 12.6989 45.6417 12.9328C46.6221 13.1749 47.6087 13.3955 48.6035 13.5681C49.5564 13.7326 50.5133 13.8704 51.4733 13.9868C52.0994 14.0634 52.7326 14.1022 53.3628 14.1533C52.5141 15.5096 51.9288 17.0394 51.4192 18.5458C50.7646 20.4803 50.2835 22.4708 49.8127 24.4573C48.8057 28.7151 47.9754 33.0158 47.3258 37.3431C46.8601 40.4458 46.4832 43.5608 46.2003 46.684C46.1166 45.7352 46.0145 44.7895 45.899 43.8447C45.513 40.7082 44.9492 37.5923 44.1955 34.5233C44.2629 34.4048 44.2946 34.2628 44.2721 34.125C44.1363 33.2814 43.7788 32.547 43.4653 31.7647C43.1538 30.6719 42.8178 29.5863 42.4562 28.5088C42.0457 27.0412 41.585 25.596 40.9958 24.1846C40.5454 23.1091 40.0316 22.0612 39.4597 21.0451C38.7765 19.6244 38.0258 18.2345 37.2016 16.9057C37.1587 16.7821 37.0893 16.6667 36.9902 16.5697C36.8401 16.3328 36.6879 16.0989 36.5326 15.8671C36.4315 15.7159 36.1415 15.8078 36.2181 15.9998C36.2538 16.0898 36.2896 16.1796 36.3263 16.2685C32.9693 15.4289 29.6776 16.7127 26.4799 17.6605C25.6731 17.9005 24.8581 18.117 24.0308 18.2733C23.3802 18.3958 22.6224 18.5449 21.9739 18.41C21.5398 18.3202 21.3478 18.1231 21.5593 17.6595C21.7778 17.1795 22.3743 16.8639 22.8921 16.6515C23.0871 16.6095 23.2791 16.535 23.464 16.4226C23.895 16.1612 24.0839 15.6158 23.8807 15.1511C23.6958 14.7314 23.1566 14.3698 22.6796 14.5618C22.6112 14.5894 22.5438 14.616 22.4764 14.6425C22.4692 14.6323 22.4611 14.618 22.4539 14.5976C22.3855 14.4107 22.3559 14.6344 22.3855 14.3668C22.4345 13.9296 22.8972 13.5323 23.2138 13.2821C24.0012 12.6581 25.1389 12.1965 26.1551 12.4324C26.2317 12.4498 26.3083 12.4712 26.3839 12.4978C27.4307 12.8603 27.9404 11.3529 27.1039 10.7912C27.0529 10.7575 26.9885 10.7146 26.9181 10.6645C26.5698 10.4225 26.0602 10.015 26.1991 9.6474C26.3706 9.19077 27.3827 8.9283 27.7657 8.77306C29.1506 8.21134 30.6468 7.89269 32.14 7.82733C33.6423 7.76196 35.1641 7.92741 36.6133 8.33277C37.3242 8.53101 38.0544 8.83229 38.7264 9.13674C39.33 9.40933 40.6434 9.76985 40.7272 10.5338C40.7455 10.7024 40.9855 10.7595 41.0376 10.5757C41.4492 9.10907 39.8519 8.16231 38.7979 7.55668C38.1065 7.15827 37.3221 6.91019 36.5633 6.6661C35.8361 6.4312 35.0936 6.2586 34.3358 6.15432C32.7089 5.93178 31.0625 5.96038 29.4489 6.2729C27.9792 6.55794 26.3441 7.04398 25.1563 7.98971C24.4271 8.56982 24.0972 9.49308 24.3903 10.3939C24.4005 10.4235 24.4107 10.4541 24.421 10.4837C23.1086 10.7186 21.8667 11.4703 21.0363 12.5182C20.3541 13.3792 19.9967 14.5771 20.6074 15.5791C20.5819 15.5974 20.5563 15.6168 20.5318 15.6373C19.9497 16.103 19.5166 16.7792 19.388 17.5185C19.1357 18.9769 20.0171 19.9972 21.2498 20.3874C20.9444 20.6857 20.6513 21.0022 20.3643 21.3188C19.7219 22.0286 19.1081 22.8016 18.5668 23.5902C17.4699 25.1875 16.5324 26.9268 15.7123 28.6794C14.0261 32.2784 12.9629 36.1523 12.3991 40.0802C12.1152 42.0595 11.9253 44.049 11.8527 46.0467C11.769 48.3242 11.8538 50.6027 11.8099 52.8813C11.767 55.071 11.5249 57.2075 11.0357 59.3422C10.5669 61.3837 9.94188 63.3844 9.37608 65.3994C8.73776 67.6688 8.0351 69.9279 7.69807 72.2677C7.52751 73.4585 7.40496 74.6525 7.49994 75.8566C7.59594 77.0832 8.04123 78.1321 8.4518 79.2729C8.55597 79.5641 8.8736 79.6814 9.1279 79.6191C9.18509 80.1655 9.3914 80.6986 9.69881 81.1603C10.3514 82.1387 11.3564 82.7627 12.5074 82.9894C13.8045 83.2437 15.1414 83.1835 16.4548 83.1365C17.8795 83.0854 19.3052 83.0395 20.73 82.9802C22.2216 82.9186 23.7131 82.8553 25.2047 82.7917C25.1554 81.2629 25.0966 79.7346 25.0301 78.2065C24.6705 69.9458 24.1041 61.6801 24.0891 53.4086C24.0602 53.3916 24.0318 53.3715 24.0047 53.3452C23.3332 52.6961 22.5088 52.2698 21.7342 51.7618C21.2959 51.4743 21.7056 50.7672 22.1466 51.0564C22.7996 51.4846 23.4801 51.8652 24.0921 52.3451C24.0957 51.484 24.1032 50.6231 24.1203 49.7619C24.1307 49.236 24.9477 49.236 24.9373 49.7619C24.8861 52.3571 24.9032 54.953 24.9619 57.5479C25.152 65.9572 25.7495 74.3508 26.0215 82.7568C30.0251 82.5857 34.0288 82.4134 38.0329 82.2672C41.2899 82.1489 44.5468 82.0304 47.8038 81.9119C48.487 81.8875 48.8711 81.3991 48.9548 80.7608C49.108 79.5863 48.82 78.3721 48.1684 77.3845C48.101 77.2823 48.0213 77.1915 47.9325 77.1138C47.9478 76.4102 47.9764 75.7053 47.9366 75.0018C47.8773 73.9274 47.7885 72.8529 47.7109 71.7795C47.5536 69.6297 47.432 67.4758 47.384 65.3208C47.286 61.0109 47.3575 56.6969 47.6016 52.3931C48.0908 43.7947 49.2295 35.2515 51.0934 26.841C51.2293 26.2282 51.3661 25.6154 51.5081 25.0037C52.9573 25.7564 54.7201 26.0269 56.3041 26.0372C58.2895 26.0495 60.2311 25.5929 62.0245 24.7627C62.0122 24.8556 62 24.9475 61.9887 25.0404C61.4883 29.0235 61.0665 33.0147 60.6988 37.0112C59.9655 44.9784 59.5161 52.9783 59.5784 60.9812C59.5958 63.1985 59.6806 65.4086 59.7858 67.6228C59.893 69.8748 60.0574 72.2545 60.6845 74.4268C60.754 74.6667 60.9082 74.8047 61.0859 74.8547C61.0951 75.1713 61.1155 75.4889 61.138 75.8014C61.2105 76.8177 61.4178 78.9287 61.8611 79.8498C62.2931 80.7487 63.0131 81.4615 63.9313 81.8538C65.0976 82.3511 66.3589 82.2081 67.5906 82.1284C72.9463 81.7792 78.298 81.3114 83.6507 80.9008C84.3962 80.8436 85.1418 80.7875 85.8863 80.7293C86.5491 80.6782 87.2344 80.6332 87.8227 80.2891C88.4917 79.8979 89.0135 77.9768 88.7827 77.1823C88.7408 77.0372 88.6775 76.8942 88.5938 76.7656" fill="black"/>
</svg>
