<svg width="234" height="299" viewBox="0 0 234 299" fill="none" xmlns="http://www.w3.org/2000/svg">
<g clip-path="url(#clip0)">
<path fill-rule="evenodd" clip-rule="evenodd" d="M179.053 283.228C178.464 277.759 178.102 272.252 177.893 266.755C177.685 261.265 177.957 255.707 178.077 250.215C178.32 239.043 178.716 227.844 177.826 216.688C176.986 206.145 175.057 195.676 172.013 185.546C170.53 180.612 168.968 175.48 166.53 170.922C164.078 166.339 160.194 163.287 155.928 160.488C151.386 157.508 146.881 154.471 142.357 151.464C138.559 148.939 131.725 146.001 128.609 142.626C125.33 139.074 124.714 130.271 122.53 126.064C120.404 121.966 114.385 119.293 109.75 119.293C102.079 119.293 96.2661 118.901 89.9581 126C86.8109 129.542 89.315 133.123 86.0161 136.523C82.9832 139.649 75.2268 142.861 71.3178 144.674C66.6359 146.847 61.8359 148.764 56.9662 150.473C51.9988 152.215 46.9062 153.514 41.9108 155.159C37.1227 156.736 30.8704 163.234 27.1533 166.672C23.6975 169.869 22.8398 169.511 20.2126 173.394C14.4466 181.916 8.67438 190.537 4.08278 199.764C1.79571 204.36 -0.418804 209.195 -1.24861 214.3C-2.13374 219.744 -1.25613 225.006 0.179287 230.277C1.64043 235.642 6.28031 240.749 7.79191 246.1C8.48852 248.566 6.09736 251.257 7.19722 253.581C7.74654 254.741 8.43829 255.775 9.22588 256.786C9.83271 257.565 12.1992 257.392 12.5054 258.346C12.8148 259.309 11.1027 261.308 11.0772 262.305C11.041 263.731 10.9842 265.158 10.9374 266.584L10.6608 275.018C10.4791 280.56 10.2974 286.102 10.1156 291.644C10.0562 293.453 9.96955 295.221 10.4031 296.937C10.2466 296.792 10.0979 296.634 9.96203 296.457C9.56436 295.937 8.72096 296.378 9.05847 296.985C9.62186 297.999 10.432 298.713 11.3839 299.225C12.49 300.857 180.01 304.5 180.834 299.731C181.297 297.055 180.455 294.19 180.119 291.531C179.768 288.762 179.352 286.004 179.053 283.228Z" fill="white"/>
<path fill-rule="evenodd" clip-rule="evenodd" d="M8.88437 214.309C9.29418 213.135 11.1688 213.643 10.756 214.825C8.63446 220.905 10.1395 227.52 12.4331 233.324C12.8934 234.488 11.0154 234.988 10.5615 233.84C8.1487 227.735 6.65602 220.694 8.88437 214.309ZM23.1105 249.034C29.0939 249.876 35.0821 250.396 41.1067 250.815C41.376 250.835 41.6089 250.794 41.8103 250.706C41.6308 253.466 41.4852 256.228 41.3712 258.991C39.7285 258.945 38.0519 259.054 36.4239 259.01C34.296 258.952 32.1705 258.845 30.0474 258.683C25.9372 258.372 21.8343 257.876 17.7702 257.192C16.2513 256.937 14.3223 256.782 12.5924 256.277C10.957 255.799 9.50122 255.007 8.73692 253.517C8.08666 252.255 7.96777 250.709 7.96777 249.313C7.96777 248.352 8.13276 247.376 8.23224 246.408C8.35599 246.32 8.4676 246.216 8.55737 246.1C10.3626 246.67 12.2357 247.07 14.07 247.459C17.0568 248.095 20.0873 248.609 23.1105 249.034ZM19.736 226.591C19.769 228.446 20.2822 230.132 21.2807 231.694C21.9561 232.751 20.2754 233.723 19.6045 232.674C18.4292 230.835 17.8338 228.77 17.795 226.591C17.7727 225.339 19.7137 225.343 19.736 226.591ZM173.111 246.83C173.921 246.875 174.736 246.903 175.549 246.946C176.265 247.559 177.258 247.874 178.164 247.679C178.195 247.757 178.224 247.845 178.25 247.946C178.41 248.57 178.49 249.24 178.582 249.876C178.674 250.502 178.745 251.134 178.793 251.765C178.817 252.083 178.97 252.801 178.776 253.078C178.602 253.328 178.216 253.306 177.949 253.337C177.231 253.415 176.503 253.452 175.78 253.512C174.414 253.631 173.048 253.75 171.684 253.869C170.347 253.986 168.879 253.949 167.571 254.301C167.348 251.677 167.144 249.054 166.955 246.427C168.981 246.726 171.099 246.718 173.111 246.83ZM3.23813 242.478C4.05338 244.054 4.80554 245.602 6.36568 246.549C6.56949 246.67 6.79756 246.736 7.03049 246.753C6.8558 247.503 6.74661 248.27 6.64956 248.978C6.43604 250.539 6.38994 252.153 6.78058 253.692C7.16151 255.19 7.79236 256.528 9.02979 257.486C9.60484 257.933 10.2333 258.273 10.8932 258.542C10.7816 258.855 10.7161 259.166 10.7501 259.508C10.5924 260.302 10.488 261.11 10.374 261.884C10.1241 263.603 9.87416 265.324 9.67762 267.052C9.28456 270.489 8.97641 273.926 8.7168 277.375C8.45718 280.815 8.27035 284.259 8.11506 287.706C8.035 289.468 7.96463 291.23 7.89912 292.995C7.83361 294.808 7.54002 296.663 8.34071 298.345C8.98612 299.704 11.1674 299.626 11.8371 298.345C12.6863 296.716 12.4364 294.781 12.4582 292.995C12.48 291.313 12.5092 289.628 12.5456 287.946C12.6183 284.502 12.7251 281.06 12.81 277.616C12.8925 274.254 12.9944 270.894 13.0624 267.533C13.0963 265.773 13.0988 264.013 13.1085 262.253C13.1133 261.278 13.1546 260.236 13.0818 259.219C13.6884 259.362 14.2998 259.484 14.904 259.608C19.5164 260.554 24.1774 261.244 28.8675 261.671C31.2235 261.884 33.5867 262.035 35.95 262.12C37.6873 262.183 39.4876 262.304 41.2515 262.239C41.1132 266.453 41.0502 270.669 41.0574 274.885C41.0623 277.926 41.1035 280.968 41.1787 284.009C41.22 285.609 41.254 287.208 41.3025 288.808C41.3243 289.527 41.3243 290.252 41.3729 290.968C41.3874 291.191 41.419 291.408 41.4602 291.621C41.3001 292.075 41.1666 292.524 41.0574 292.944C40.5236 294.983 40.5236 296.942 40.7614 299.019C40.9652 300.782 42.4477 302.415 44.4058 301.796C44.7236 301.697 45.0415 301.592 45.3569 301.486C48.2394 301.813 51.1389 301.889 54.0626 301.944C58.3354 302.027 62.6106 302.054 66.8858 302.075C75.2712 302.119 83.6591 302.141 92.0469 302.165C108.903 302.214 125.758 302.26 142.614 302.308C147.292 302.323 151.97 302.335 156.648 302.35C159.07 302.357 161.486 302.359 163.905 302.452C165.034 302.496 166.164 302.556 167.292 302.573C168.6 302.595 169.758 302.219 171.007 301.877C171.713 301.68 171.992 300.971 171.842 300.372C172.972 300.641 174.343 300.068 174.729 298.794C175.011 297.869 174.906 296.866 174.487 296.01V296.007C173.676 290.888 172.647 285.793 171.839 280.672C170.954 275.062 170.102 269.441 169.352 263.809C168.789 259.557 168.326 262.571 167.926 258.299C169.67 258.435 171.643 257.904 173.37 257.678C174.61 257.518 175.86 257.389 177.102 257.219C177.01 258.472 177.037 259.748 177.003 260.95C176.937 263.336 176.966 265.712 177.027 268.098C177.143 272.703 177.403 270.023 177.818 274.608C178.238 279.227 178.752 283.829 179.376 288.427C179.696 290.794 180.038 293.158 180.4 295.519C180.567 296.621 180.739 297.721 180.916 298.823C181.127 300.121 181.195 301.352 182.168 302.328C182.908 303.068 184.42 303.005 184.91 301.973C185.531 300.67 185.25 299.553 185.019 298.185C184.832 297.085 184.653 295.985 184.476 294.886C184.097 292.529 183.738 290.17 183.401 287.808C182.751 283.257 182.137 278.698 181.588 274.135C181.035 269.535 180.463 272.222 179.919 267.623C179.645 265.302 179.371 262.986 179.05 260.673C178.888 259.484 178.786 258.217 178.572 256.991C178.64 256.981 178.708 256.969 178.776 256.957C180.251 256.688 181.511 255.855 181.882 254.335C182.236 252.882 181.814 251.209 181.516 249.782C181.261 248.567 181.031 247.015 180.248 245.973C183.005 242.461 184.797 238.041 185.941 233.792C187.187 229.163 187.708 224.331 187.819 219.548C187.947 214.006 187.529 208.496 186.58 203.077C186.557 201.929 186.504 200.781 186.419 199.634C185.585 188.382 182.081 175.063 170.973 169.805C170.93 169.784 170.883 169.764 170.837 169.745C169.966 168.703 168.879 167.766 168.001 166.89C166.446 165.337 164.82 163.851 163.097 162.482C159.686 159.771 155.944 157.606 152.055 155.657C148.122 153.683 144.131 151.831 140.287 149.678C136.939 147.8 133.925 145.537 131.065 142.984C127.85 140.112 125.562 136.241 124.664 132.015C124.618 131.794 124.29 131.855 124.286 132.066C124.05 139.811 129.277 146.656 135.291 150.987C142.483 156.159 151.167 158.608 158.461 163.623C160.273 164.868 161.969 166.274 163.583 167.766C161.11 167.514 158.594 167.674 156.277 168.359C155.365 168.303 154.447 168.286 153.533 168.242C151.441 168.138 149.347 168.041 147.253 167.948C142.985 167.759 138.715 167.587 134.445 167.436C126.067 167.14 117.686 166.917 109.305 166.769C92.4642 166.47 75.6012 166.412 58.7624 166.9C54.196 167.031 30.185 166.121 27.9625 166.378C31.2308 163.548 34.8169 161.237 38.7597 159.336C43.6924 156.965 48.7902 155.382 54.0577 153.936C64.9059 150.957 76.1714 148.086 84.8528 140.52C87.0098 138.639 88.9266 136.476 90.4965 134.081C91.9959 131.794 93.6628 128.867 93.7041 126.078C93.7332 124.097 90.9769 123.376 89.9966 125.073C89.3876 126.124 89.0868 127.277 88.5894 128.379C88.0944 129.471 87.5072 130.525 86.8545 131.532C85.571 133.513 83.9793 135.28 82.2469 136.874C78.554 140.277 74.0799 142.77 69.4504 144.656C58.9395 148.935 47.4436 150.741 37.4834 156.383C33.1257 158.851 28.9549 162.257 26.3369 166.601C25.9147 166.667 25.4949 166.744 25.0752 166.832C25.3882 166.436 25.7036 166.041 26.0214 165.647C26.2301 165.39 25.9074 165.05 25.6526 165.278C20.7005 169.686 16.139 174.446 12.0045 179.636C8.04955 184.602 4.36152 189.806 1.75078 195.622C-2.94175 206.069 -3.97537 218.018 -1.55146 229.189C-0.891496 232.233 0.0402172 235.213 1.2267 238.095C1.83813 239.582 2.50052 241.049 3.23813 242.478Z" fill="black"/>
<path fill-rule="evenodd" clip-rule="evenodd" d="M110.148 24.5979C123.925 24.5979 141.18 40.3197 146.23 47.0099C150.476 52.6347 149.875 81.6119 149.875 98.8012C149.875 102.396 148.251 109.2 147.661 112.639C145.5 125.24 136.085 135.808 117.451 135.808C102.279 135.808 90.6027 131.001 79.3117 118.704C76.7357 115.899 64.1555 125.942 61.5827 122.325C54.8626 122.325 49.2435 59.5125 62.4375 40.6723C75.6316 21.8322 96.371 24.5979 110.148 24.5979Z" fill="white"/>
<path fill-rule="evenodd" clip-rule="evenodd" d="M68.7407 29.0218C76.7015 21.7763 87.307 18.2908 98.0071 18.5481C103.549 18.6816 109.071 19.7374 114.305 21.5458C116.923 22.4536 119.458 23.6381 121.882 24.9779C122.756 25.4597 123.561 26.0241 124.336 26.6236L124.529 26.7741H124.532C126.611 27.5217 128.467 28.864 130.151 30.4345C133.526 30.165 136.928 30.4685 140.191 31.5098C144.734 32.9613 148.938 35.6192 151.891 39.3936C155.331 43.7878 156.474 49.1178 156.066 54.6201L155.991 55.5548C155.587 60.4154 154.865 66.6672 150.877 69.8609C150.574 70.1036 150.239 70.2881 149.892 70.3997C152.461 74.8028 154.57 79.6914 155.832 84.6285C160.648 103.486 156.945 123.152 151.154 141.327C150.678 142.825 148.414 143.82 147.262 142.357C145.204 139.74 142.215 137.745 138.852 137.371C136.778 137.14 134.713 137.558 132.752 136.616C131.983 136.245 131.241 135.638 130.707 134.9C127.397 136.155 123.833 136.747 120.298 136.602C114.497 136.364 108.295 134.354 104.303 129.946C103.663 129.238 103.501 128.444 103.648 127.728C104.149 127.549 104.663 127.416 105.192 127.333C110.253 130.317 115.832 132.311 121.828 132.436C125.293 132.509 128.672 132.024 131.482 129.86C132.089 129.391 132.648 128.873 133.165 128.315C139.039 124.535 143.18 118.116 145.148 111.239C146.983 104.826 146.757 98.1485 146.126 91.5705L145.793 88.0994C145.308 83.0047 144.858 77.8948 144.732 72.7785L144.77 72.7765C146.01 72.6964 146.019 70.7539 144.77 70.8347C141.539 71.0439 138.331 70.5136 135.11 70.7447C135.083 69.221 134.973 67.7042 134.525 66.2348C134.27 65.3952 132.809 65.2296 132.654 66.2348C132.447 67.5795 132.371 68.9167 132.348 70.2675C127.527 70.2034 122.71 69.7975 117.888 69.9643C116.999 69.0152 116.715 67.3324 116.299 66.1617C116.239 65.9894 116.178 65.8194 116.115 65.6471C115.749 67.32 115.231 68.9562 114.549 70.558L113.367 70.562C106.657 70.5935 99.81 70.7941 93.2578 72.1882C92.8024 71.8384 92.5314 71.2282 92.4581 70.674C91.9828 67.0681 91.3045 63.558 90.1023 60.1217L89.9304 59.6369C89.9163 59.5967 89.9015 59.5539 89.8859 59.509C89.0001 60.9394 87.9432 62.2727 86.7904 63.5143C86.1111 64.2461 85.3987 64.9459 84.6676 65.6258C83.9574 66.4146 83.2235 67.1916 82.5121 67.9829C82.54 68.1268 82.5642 68.2729 82.5839 68.4217C82.8015 70.0638 82.8241 71.7292 82.6647 73.3775C82.3764 76.3575 81.5355 79.229 80.1845 81.8854L80.1417 82.1514C79.9366 83.3963 79.6447 84.6828 78.9631 85.6203C79.8137 86.5737 80.4691 87.7126 80.8491 88.9779C81.1873 90.1044 79.6293 91.0807 78.8214 90.1588C78.1796 89.4265 77.4665 88.8204 76.6833 88.3369C76.6338 88.4041 76.5445 88.4371 76.4443 88.3811C74.263 87.1699 70.558 87.5364 68.3791 88.6772C65.6689 90.0947 64.611 93.0051 64.9119 95.9542C65.2006 98.7723 66.4332 102.066 68.8232 103.51C69.9199 104.173 70.7739 104.229 71.9386 103.911C72.311 103.81 72.7726 103.499 72.9708 103.345L73.1658 103.189C73.9293 102.585 74.6404 102.172 75.5417 102.156C76.4635 101.868 77.39 102.267 77.7425 103.234L77.7642 103.297C77.9292 103.789 78.2301 104.408 78.1646 105.161C78.0966 105.967 77.7278 106.7 77.177 107.29C77.0824 107.392 76.9805 107.494 76.8762 107.588C86.3631 117.863 87.5812 133.873 82.7164 146.709C82.5053 147.272 82.2796 147.828 82.0443 148.379C81.2314 150.267 78.1015 149.682 77.7036 147.811C77.5847 147.25 77.4536 146.692 77.3105 146.138C77.0474 145.116 76.7459 144.103 76.4061 143.104L76.2769 142.73C75.9881 141.905 75.7188 141.073 75.4277 140.247L75.3985 140.153C75.3876 140.116 75.3755 140.073 75.3621 140.024L74.8696 141.099L73.3725 144.345C72.672 145.859 70.4462 145.036 70.3634 143.577L70.3615 143.527C70.3542 143.257 70.3445 142.99 70.3275 142.726C70.2207 140.742 69.8786 138.815 69.3351 136.929L69.139 137.173C66.2192 140.784 62.7924 144.169 58.0915 145.002C56.9123 145.211 55.5778 143.978 56.3882 142.786C56.723 142.294 57.0457 141.789 57.3514 141.276C57.087 141.153 56.8371 141.024 56.6066 140.893C54.8232 139.891 53.3383 138.463 52.1106 136.844C49.5071 133.412 48.5754 129.092 48.3473 124.863C48.1047 120.395 48.4977 115.683 49.7182 111.372C50.2471 109.508 50.9629 107.719 51.7903 105.984C51.7321 105.828 51.6762 105.673 51.6204 105.518C50.7276 103.027 49.9948 100.481 49.3858 97.9057C48.1581 92.7065 47.4981 87.3422 47.418 81.9997C47.2725 72.429 48.9224 62.7052 52.3993 53.7801C55.9903 44.5758 61.3913 35.709 68.7407 29.0218ZM64.2689 112.7C63.6095 111.661 61.9596 112.597 62.5719 113.643L62.5947 113.681C63.6404 115.329 64.1306 117.203 64.7323 119.04C65.1181 120.222 66.9936 119.717 66.603 118.523L66.4737 118.124C65.8749 116.261 65.3287 114.367 64.2689 112.7ZM70.0118 92.8735L70.4499 92.6614C71.8318 92.0017 73.0425 91.5524 74.6752 92.1283C76.8614 92.8978 79.2028 95.3469 77.7251 97.7232C77.1816 98.5994 76.216 98.949 75.2212 98.7427C73.5441 98.3947 73.1113 96.8839 72.2602 95.6437L72.1138 95.4337C71.5949 94.6832 70.9388 93.6458 70.0749 93.3517C69.8784 93.2837 69.7959 92.9779 70.0118 92.8735ZM71.2448 42.4205L71.3859 42.294C72.3249 41.4639 70.9467 40.0949 70.0126 40.9202C65.7374 44.6995 64.2525 50.6147 62.0348 55.6562C61.5374 56.7898 63.2092 57.7801 63.7114 56.6369C65.8268 51.8261 67.231 46.0713 71.2448 42.4205ZM122.62 40.7672C121.503 40.2636 120.526 41.8899 121.6 42.4253L121.64 42.4444C125.415 44.1508 127.022 48.0151 128.56 51.6026C129.05 52.7483 130.722 51.7604 130.237 50.6244L129.959 49.9807C128.354 46.2836 126.482 42.5152 122.62 40.7672ZM128.538 38.432C127.354 38.0217 126.847 39.8956 128.021 40.3058C131.221 41.4199 133.417 43.823 135.268 46.5706C135.962 47.5998 137.644 46.6289 136.943 45.59C134.793 42.4006 132.24 39.7233 128.538 38.432Z" fill="black"/>
<path fill-rule="evenodd" clip-rule="evenodd" d="M122.038 118.765C120.407 118.1 118.952 116.989 117.888 115.571C117.518 115.078 117.422 114.557 117.5 114.081C117.587 113.545 117.904 113.06 118.336 112.735C118.769 112.408 119.311 112.247 119.835 112.329C120.29 112.4 120.743 112.65 121.102 113.167L121.177 113.27C121.809 114.126 122.634 114.829 123.573 115.282C124.478 115.718 125.49 115.922 126.538 115.803C128.533 115.578 129.909 114.498 131.371 113.032C131.552 112.847 131.733 112.656 131.915 112.462C132.03 112.286 132.19 112.173 132.367 112.114C132.564 112.048 132.787 112.052 132.991 112.123C133.187 112.192 133.363 112.322 133.481 112.495C133.593 112.66 133.657 112.863 133.636 113.097C133.502 114.616 132.708 115.972 131.581 117.037C130.328 118.219 128.668 119.037 127.104 119.324C125.382 119.64 123.627 119.414 122.038 118.765ZM127.917 95.3273C129.749 96.4414 132.541 99.0394 130.57 101.801C128.25 104.237 124.909 101.445 123.263 100.182C121.737 99.2029 120.022 101.72 121.438 102.863C133.333 111.673 138.16 95.6186 128.844 94.0174C127.818 93.8409 127.437 94.9826 127.917 95.3273ZM106.602 85.0793C106.804 82.5655 110.631 81.9947 111.012 84.4822C111.353 86.7104 110.951 88.7574 109.948 90.7635C108.989 92.6801 106.58 91.7859 106.398 90.0407C106.153 87.7013 106.476 86.643 106.602 85.0793ZM135.734 83.9661C136.267 83.2671 137.037 82.7899 137.96 83.0596C140.844 83.9025 139.994 87.9981 138.981 89.9916C138.431 91.0742 136.652 91.3487 135.849 90.3955C134.538 88.8411 133.911 85.7368 135.577 84.2057C135.622 84.1266 135.672 84.0467 135.734 83.9661ZM109.907 74.08L110.363 74.0003C111.772 73.7565 113.524 73.5222 114.521 74.6556C115.05 75.2566 115.232 76.3736 114.521 76.9489C113.271 77.961 111.889 77.5688 110.391 77.6545C109.156 77.7253 107.97 77.9297 106.781 78.2698C104.172 79.0157 102.046 80.3774 99.8182 81.8726C99.5259 82.0687 99.2274 81.6947 99.3669 81.4211C100.653 78.9009 103.146 76.8306 105.642 75.5687C106.975 74.8951 108.433 74.3364 109.907 74.08ZM133.105 72.9506L133.453 73.022C137.247 73.8153 142.177 75.4002 143.974 79.1284C144.042 79.6555 143.97 79.7685 143.911 79.8424L143.891 79.8669C143.843 79.93 143.804 80.0168 143.576 80.0886C143.512 80.0735 143.448 80.0575 143.384 80.0405C142.56 79.8246 141.908 79.5272 141.278 79.2185L140.594 78.8814C139.8 78.4922 139 78.1171 138.151 77.8402C136.341 77.2494 134.478 76.8332 132.587 76.611C132.177 76.5629 131.782 76.4245 131.471 76.1873C131.175 75.9622 130.95 75.6505 130.847 75.2361C130.713 74.6999 130.752 74.294 131.039 73.8103C131.255 73.447 131.565 73.1952 131.92 73.0506C132.282 72.9032 132.695 72.8684 133.105 72.9506Z" fill="black"/>
<path fill-rule="evenodd" clip-rule="evenodd" d="M148.378 97.499C146.744 99.6945 143.715 100.394 140.922 100.152C134.897 99.5721 133.001 92.7269 132.803 87.4066C136.843 88.5435 132.462 80.4912 146.272 79.6058C151.141 79.1999 149.798 82.1413 151.949 84.2904C151.905 88.8008 151.155 93.7017 148.378 97.499ZM119.681 92.3163C116.124 108.98 96.6462 105.017 94.6 89.9951C96.4894 88.6611 95.9918 85.367 98.339 84.1735C102.059 81.7957 106.709 81.8974 110.934 81.9533C116.334 82.3244 117.872 84.5621 120.646 87.0035C120.513 88.6341 120.128 90.5667 119.681 92.3163ZM156.093 76.8459C155.894 76.8127 155.694 76.7813 155.494 76.752C155.338 76.6634 155.154 76.5952 154.941 76.5541C154.455 76.4306 153.972 76.3473 153.49 76.3024C146.567 74.7439 130.551 76.9568 129.89 82.8668C127.686 83.603 125.778 82.9437 123.223 83.0093C121.278 74.8766 87.653 76.0245 86.0359 80.9276C86.0298 80.9259 86.0237 80.9245 86.0174 80.9225C84.4636 80.4414 82.1729 80.5575 80.3944 80.4813C76.5969 80.4016 72.7951 80.7402 69.0797 81.5415C62.1221 82.6476 52.6267 83.9426 57.4655 92.6342C57.4665 92.6357 57.4672 92.6374 57.4684 92.6388L57.4691 92.6381C58.3031 93.4932 59.7184 92.8046 59.771 91.647C58.1442 87.5294 61.8186 87.0349 64.6458 85.8516C71.6804 83.3234 78.8425 82.9729 86.1181 83.7549C86.6655 84.3996 87.496 84.9618 88.3739 85.256C93.2385 86.0638 90.6748 89.6736 93.7497 90.1987C93.1848 102.782 108.456 109.651 117.305 101.379C120.838 97.9235 121.68 92.8046 122.499 88.1906C122.932 88.0932 123.208 87.8563 123.369 87.5427C124.41 86.5024 125.065 85.5417 127.124 85.256C129.184 84.9705 130.77 85.5436 130.984 85.7191C131.038 85.8281 131.096 85.9373 131.164 86.0465C131.258 86.2094 131.386 86.3393 131.532 86.4415C129.498 98.9721 139.222 106.897 149.038 100.398C153.304 96.3836 154.205 90.2382 154.383 84.753C154.962 84.404 155.328 83.7275 155.128 82.877C154.852 81.7046 155.499 80.6895 156.529 80.1798C157.867 79.5179 157.631 77.1005 156.093 76.8459Z" fill="black"/>
</g>
<defs>
<clipPath id="clip0">
<path d="M-42.3662 0.157227H233.266V298.758H-42.3662V0.157227Z" fill="white"/>
</clipPath>
</defs>
</svg>
