<svg width="159" height="179" viewBox="0 0 159 179" fill="none" xmlns="http://www.w3.org/2000/svg">
<g clip-path="url(#clip0)">
<path fill-rule="evenodd" clip-rule="evenodd" d="M162.794 236.021C156.557 236.04 150.497 236.254 144.243 236.274C118.821 236.359 93.1649 236.236 67.6504 235.205C60.439 234.913 58.6389 234.921 51.4587 234.469C47.2192 234.453 34.4844 234.103 35.122 228.326C35.4034 217.568 38.0662 206.855 38.9049 196.126C40.5145 175.956 41.8852 155.155 49.9678 136.29C51.8387 131.784 55.8567 128.838 59.8342 126.189C63.8231 123.331 64.802 120.158 68.4835 116.929C69.2619 116.246 73.6823 115.968 76.0607 114.237C79.5224 111.716 81.2392 107.589 82.5307 106.887C83.4811 106.37 83.4637 102.804 85.3686 101.542C87.9248 99.8482 96.0705 98.5888 99.0341 98.3532C101.879 98.1272 106.826 98.602 109.495 99.644C113.945 101.381 115.721 104.696 117.681 108.966C143.575 116.972 167.244 130.528 174.594 157.872C180.933 180.806 181.165 205.392 178.717 228.912C178.227 230.632 178.57 233.329 177.084 234.469C182.248 234.765 163.494 235.83 162.794 236.021Z" fill="white"/>
<path fill-rule="evenodd" clip-rule="evenodd" d="M45.0144 213.376C45.5044 213.131 46.0152 212.851 46.5748 212.832C47.5359 212.798 47.5372 211.303 46.5748 211.336C45.7354 211.366 44.9983 211.716 44.2597 212.084C43.3978 212.515 44.1559 213.804 45.0144 213.376M46.575 171.275C45.9191 171.276 45.2581 171.358 44.7544 171.817C44.455 172.09 44.4787 172.599 44.7544 172.875C45.0495 173.17 45.5134 173.147 45.8119 172.875C45.7145 172.963 45.8109 172.876 45.8463 172.856C45.8547 172.852 45.8593 172.848 45.8616 172.846C45.8691 172.844 45.8765 172.843 45.8887 172.84C45.9668 172.82 46.044 172.801 46.1231 172.787C46.1244 172.79 46.29 172.776 46.3288 172.774C46.4111 172.771 46.4929 172.771 46.575 172.771C46.9806 172.771 47.3226 172.429 47.3226 172.023C47.3226 171.619 46.9791 171.275 46.575 171.275M53.6053 188.052C53.8195 188.992 55.2607 188.592 55.0471 187.655C54.7364 186.292 54.7931 184.897 55.0471 183.529C55.222 182.587 53.7808 182.187 53.6053 183.132C53.3006 184.772 53.2324 186.418 53.6053 188.052M55.4936 134.298C56.6071 134.034 57.7085 134.002 58.8475 134.002C59.8112 134.002 59.8097 132.506 58.8475 132.506C57.5772 132.507 56.3371 132.561 55.096 132.856C54.1589 133.079 54.5581 134.521 55.4936 134.298M59.2252 170.73C59.8709 170.407 60.5171 170.084 61.1628 169.761C62.0248 169.33 61.2665 168.04 60.4083 168.469L58.4705 169.439C57.6089 169.87 58.3669 171.159 59.2252 170.73M59.4936 200.185C60.3128 201.366 61.4647 202.1 62.847 202.467C63.7797 202.714 64.174 201.271 63.2446 201.025C62.256 200.762 61.3778 200.285 60.7847 199.43C60.2395 198.643 58.9439 199.392 59.4936 200.185M64.6606 147.524C64.8822 147.109 65.2159 146.934 65.63 146.925C66.5922 146.903 66.5924 145.407 65.63 145.429C64.6862 145.451 63.8206 145.925 63.3696 146.769C62.9156 147.618 64.207 148.373 64.6606 147.524M74.144 157.69C74.412 157.982 74.9317 157.975 75.2013 157.69C75.3663 157.516 75.505 157.322 75.6141 157.108C75.6556 157.027 75.6947 156.945 75.7403 156.866C75.7607 156.831 75.7833 156.796 75.8064 156.763C75.8143 156.756 75.8306 156.739 75.8474 156.721C76.1346 156.417 76.1274 155.969 75.8474 155.664C75.5792 155.372 75.0594 155.379 74.7899 155.664C74.625 155.838 74.4862 156.032 74.3772 156.246C74.3357 156.327 74.2966 156.409 74.2509 156.488C74.2305 156.523 74.2079 156.558 74.1847 156.591C74.1768 156.598 74.1608 156.615 74.144 156.633C73.8565 156.937 73.8638 157.385 74.144 157.69M74.9417 179.776C75.9155 180.222 76.9834 180.222 77.9572 179.776C78.326 179.607 78.4134 179.075 78.2252 178.753C78.0073 178.38 77.5694 178.317 77.2025 178.485C76.7608 178.687 76.1373 178.687 75.6962 178.485C75.3277 178.316 74.894 178.376 74.6735 178.753C74.4842 179.077 74.5744 179.608 74.9417 179.776M77.5979 195.409C77.7652 195.805 78.1265 196.016 78.5489 196.032C78.9674 196.048 79.279 195.677 79.2965 195.284C79.3077 195.031 79.1707 194.814 78.9739 194.68C78.9737 194.666 78.9734 194.652 78.9734 194.638C78.9732 194.219 78.631 193.908 78.2258 193.89C77.8222 193.872 77.478 194.247 77.4781 194.638C77.4783 194.902 77.4946 195.164 77.5979 195.409M81.4556 220.263C82.6488 220.282 83.8147 220.566 85.0081 220.586C85.9723 220.601 85.9693 219.105 85.0081 219.09C83.8149 219.07 82.649 218.786 81.4556 218.767C80.4914 218.751 80.4944 220.247 81.4556 220.263M86.417 124.414C87.1155 125.08 87.9782 125.407 88.829 125.823C89.691 126.244 90.4482 124.954 89.5837 124.532C88.863 124.179 88.0651 123.919 87.4741 123.356C86.777 122.692 85.7185 123.749 86.417 124.414M88.292 141.654C88.7821 141.409 89.2929 141.129 89.8523 141.11C90.8135 141.076 90.8148 139.58 89.8523 139.614C89.0131 139.643 88.2759 139.993 87.5373 140.362C86.6751 140.793 87.4334 142.082 88.292 141.654M97.2803 210.846C97.5016 210.432 97.8352 210.257 98.2494 210.247C99.2117 210.225 99.2121 208.73 98.2494 208.752C97.3055 208.773 96.44 209.247 95.989 210.091C95.5352 210.941 96.8263 211.695 97.2803 210.846M100.393 178.367C100.691 178.094 100.67 177.586 100.393 177.31C100.07 176.986 99.7474 176.663 99.4242 176.34C99.1289 176.045 98.6656 176.066 98.3671 176.34C98.0696 176.613 98.0903 177.121 98.3671 177.398C98.6903 177.721 99.0131 178.044 99.336 178.367C99.6317 178.663 100.095 178.641 100.393 178.367M104.063 228.985C105.142 228.96 106.153 228.651 107.169 228.313C108.079 228.01 107.686 226.566 106.771 226.87C105.888 227.164 105.002 227.468 104.063 227.49C103.101 227.512 103.101 229.008 104.063 228.985M108.908 197.001C109.882 196.974 110.691 196.478 111.374 195.813C112.066 195.141 111.007 194.084 110.317 194.755C109.926 195.136 109.474 195.49 108.908 195.505C107.946 195.532 107.945 197.028 108.908 197.001M105.899 155.869C105.887 156.267 105.719 156.694 105.472 156.956C104.811 157.656 105.867 158.715 106.529 158.014C107.076 157.435 107.371 156.661 107.394 155.869C107.422 154.905 105.927 154.909 105.899 155.869M117.304 123.293C117.617 122.681 118.027 121.962 118.651 121.623C119.498 121.164 118.742 119.873 117.896 120.332C117.048 120.792 116.441 121.699 116.013 122.538C115.576 123.395 116.866 124.151 117.304 123.293M119.242 138.848C119.589 138.838 119.933 138.779 120.268 138.688C120.411 138.649 120.552 138.605 120.695 138.566C120.757 138.549 121.017 138.517 120.857 138.525C121.262 138.503 121.605 138.2 121.605 137.777C121.605 137.389 121.261 137.008 120.857 137.029C120.302 137.059 119.798 137.337 119.242 137.352C118.281 137.38 118.28 138.875 119.242 138.848M124.087 162.755H125.702C126.666 162.755 126.664 161.26 125.702 161.26H124.087C123.123 161.26 123.125 162.755 124.087 162.755M125.971 228.883C126.46 229.128 127.038 229.361 127.434 229.736C128.134 230.397 129.192 229.341 128.492 228.678C127.986 228.2 127.34 227.9 126.725 227.592C126.363 227.411 125.917 227.492 125.702 227.86C125.508 228.193 125.61 228.703 125.971 228.883M129.578 209.985C129.641 209.968 129.707 209.955 129.771 209.947C130.025 209.912 130.291 209.924 130.546 209.924C131.51 209.924 131.508 208.428 130.546 208.429C129.788 208.429 128.999 208.44 128.402 208.971C128.1 209.24 128.129 209.755 128.402 210.028C128.7 210.325 129.158 210.297 129.46 210.028C129.428 210.057 129.537 209.997 129.578 209.985M130.546 184.568C130.329 184.12 130.326 183.828 130.325 183.331C130.325 182.367 128.829 182.368 128.83 183.331C128.83 184.053 128.938 184.669 129.255 185.323C129.432 185.688 129.95 185.784 130.278 185.592C130.645 185.377 130.722 184.932 130.546 184.568M134.869 149.483C135.737 149.778 136.511 150.196 137.274 150.7C138.08 151.232 138.829 149.936 138.029 149.408C137.158 148.833 136.256 148.377 135.267 148.04C134.352 147.729 133.963 149.175 134.869 149.483M139.912 124.31C140.557 124.328 141.222 124.575 141.796 124.854C142.659 125.273 143.416 123.983 142.55 123.562C141.73 123.164 140.833 122.84 139.912 122.814C138.948 122.787 138.952 124.283 139.912 124.31M142.173 191.509C142.427 191.52 142.643 191.383 142.778 191.186C142.792 191.186 142.805 191.186 142.819 191.186C143.238 191.186 143.548 190.843 143.567 190.438C143.585 190.034 143.21 189.69 142.819 189.69C142.555 189.69 142.293 189.706 142.048 189.81C141.652 189.977 141.442 190.339 141.426 190.761C141.41 191.18 141.781 191.491 142.173 191.509M145.85 139.791C146.768 140.091 147.158 138.646 146.247 138.348C145.179 137.999 144.086 137.729 143.018 137.379C142.099 137.079 141.709 138.524 142.62 138.822C143.689 139.171 144.781 139.441 145.85 139.791M149.203 168.022C149.488 168.94 150.931 168.546 150.645 167.624C150.369 166.735 150.349 165.839 150.349 164.915C150.348 163.951 148.853 163.953 148.854 164.915C148.854 165.967 148.889 167.009 149.203 168.022M159.2 201.835C159.254 202.208 159.55 202.476 159.936 202.494C160.33 202.511 160.698 202.137 160.684 201.746C160.656 200.993 160.043 200.379 159.29 200.352C158.872 200.336 158.56 200.707 158.543 201.1C158.526 201.481 158.844 201.78 159.2 201.835M164.259 158.852C165.049 159.116 165.894 159.367 166.513 159.952C167.213 160.613 168.272 159.557 167.57 158.894C166.754 158.123 165.703 157.759 164.657 157.41C163.741 157.104 163.351 158.549 164.259 158.852M167.688 187.908C167.905 188.279 168.345 188.346 168.711 188.176C169.201 187.948 169.742 187.956 170.271 187.955C171.235 187.954 171.233 186.459 170.271 186.459C169.456 186.46 168.703 186.537 167.956 186.885C167.588 187.056 167.499 187.584 167.688 187.908M169.625 223.17C170.044 223.185 170.355 222.815 170.373 222.422C170.39 222.04 170.071 221.742 169.715 221.686C169.661 221.314 169.366 221.045 168.979 221.028C168.586 221.011 168.217 221.385 168.232 221.776C168.259 222.529 168.872 223.142 169.625 223.17M33.4059 228.826C33.6599 227.911 34.2412 227.173 34.6804 226.35C34.8277 226.073 34.8789 225.9 34.9587 225.697C35.0671 225.914 35.2776 226.078 35.594 226.078C36.201 226.078 36.9111 226.039 37.4776 226.299C37.846 226.468 38.28 226.408 38.5003 226.031C38.6897 225.707 38.5992 225.176 38.2321 225.007C37.3972 224.625 36.4997 224.583 35.594 224.582C35.3703 224.582 35.2009 224.664 35.0813 224.788C34.7352 220.047 34.7438 215.302 35.0712 210.557C35.4205 205.487 36.2244 200.517 37.0655 195.512C37.4727 193.086 38.0017 190.634 37.8989 188.163C37.7961 185.708 36.7438 183.419 37.4896 180.957C37.7886 179.97 38.3007 179.065 38.6334 178.089C38.9904 177.038 38.9586 176.001 38.796 174.913C38.4615 172.697 37.9065 170.508 38.7943 168.345C39.1866 167.385 39.8223 166.529 40.1286 165.538C40.5099 164.306 40.4576 162.943 40.5211 161.666C40.6501 159.09 40.6837 156.497 40.897 153.926C40.9921 152.774 41.1996 151.682 41.6724 150.626C42.1268 149.609 42.8013 148.683 43.1022 147.605C43.4013 146.543 43.4274 145.423 43.5882 144.337C43.7564 143.189 44.0199 142.057 44.375 140.954C45.7469 136.684 48.2608 132.848 51.2306 129.522C54.3874 125.986 58.161 123.324 62.1663 120.843C64.2725 119.538 66.3785 118.233 68.4832 116.929C68.5281 117.174 68.6842 117.398 68.9838 117.499C69.7742 117.763 70.618 118.014 71.2376 118.599C71.9374 119.259 72.9962 118.203 72.2949 117.541C71.5634 116.85 70.644 116.486 69.7084 116.167C70.6674 115.562 71.6367 114.936 72.7188 114.587C73.6666 114.28 75.0645 114.548 75.8328 113.852C76.4363 113.304 76.6271 112.289 76.8587 111.545C77.1484 110.621 77.3989 109.647 77.7671 108.75C78.0175 108.137 78.382 107.548 78.8418 107.073C79.0436 106.295 79.4139 105.585 80.068 105.153C81.7799 104.02 83.8825 105.145 84.6357 106.761C85.2581 106.759 85.9142 106.895 86.5197 106.933C87.7645 107.011 89.0111 107.047 90.2578 107.043C92.6969 107.035 95.1378 106.877 97.5563 106.553C101.881 105.973 106.077 104.805 110.329 103.894C110.354 103.838 110.382 103.782 110.415 103.726C111.331 102.189 113.613 102.449 115.051 103.031C115.667 103.279 116.295 103.593 116.648 104.177C117.022 104.429 117.346 104.736 117.561 105.059C118.005 105.727 118.349 107.073 119.252 107.185C119.846 107.258 120.45 107.144 121.054 107.23C121.809 107.335 122.485 107.6 123.183 107.903C128.491 110.208 133.978 112.771 139.739 113.665C141.09 113.875 142.465 114.091 143.639 114.849C144.592 115.464 145.329 116.309 146.115 117.111C146.882 117.892 147.514 118.238 148.607 118.379C149.934 118.549 151.083 118.915 152.053 119.88C152.859 120.682 153.384 121.706 154.016 122.638C154.659 123.587 155.603 124.122 156.582 124.674C158.898 125.979 161.055 127.555 162.933 129.445C166.89 133.431 169.286 138.554 171.701 143.546C174.312 148.945 176.753 154.41 178.446 160.176C180.106 165.837 181.092 171.661 181.548 177.539C182.029 183.707 182.096 189.9 182.496 196.071C182.696 199.154 182.847 202.241 183.001 205.326C183.15 208.374 183.369 211.427 183.334 214.478C183.266 220.377 182.087 226.294 180.025 231.817C179.511 233.191 178.941 234.547 178.334 235.882C177.801 237.054 175.979 236.923 175.407 235.882C175.276 235.642 175.173 235.395 175.087 235.145C173.592 235.158 172.082 235.042 170.596 235.18C167.972 235.425 165.342 235.562 162.711 235.724C157.503 236.048 152.287 236.263 147.078 236.56C146.573 236.589 146.067 236.618 145.562 236.648C149.274 225.155 148.793 212.729 149.38 200.776C149.427 199.813 147.932 199.818 147.885 200.776C147.295 212.781 147.797 225.238 143.954 236.75C142.463 236.851 140.974 236.974 139.49 237.155C138.29 237.299 137.084 237.469 135.873 237.409C134.499 237.344 133.158 237.029 131.817 236.757C129.382 236.261 127.036 236.485 124.592 236.79C121.977 237.117 119.353 237.299 116.721 237.413C106.184 237.875 95.5752 238.295 85.0413 237.59C82.492 237.42 79.9482 237.181 77.4157 236.856C74.8065 236.521 72.2254 235.958 69.6183 235.638C67.0484 235.324 64.6858 236.186 62.1458 236.345C59.5555 236.508 56.8957 235.968 54.3295 235.657C53.4923 235.556 52.6543 235.457 51.816 235.359C52.8952 227.96 53.5088 220.505 54.1048 213.053C54.1816 212.092 52.6859 212.1 52.6096 213.053C52.0184 220.447 51.4185 227.846 50.341 235.187C45.8974 234.67 41.4495 234.146 37.0522 233.341C35.8 233.113 34.5552 232.741 33.8057 231.622C33.2508 230.794 33.1385 229.779 33.4059 228.826" fill="black"/>
<path fill-rule="evenodd" clip-rule="evenodd" d="M66.9852 71.914C67.3875 68.3776 66.8668 60.9857 66.8319 60.5367C66.6114 57.6976 67.9412 46.4867 70.455 47.5197C74.672 44.1803 80.2885 43.443 85.5405 43.0907C96.4495 42.3589 108.055 44.0388 116.479 51.3827C120.644 55.1966 124.7 60.7436 124.374 66.5193C128.159 71.994 133.495 79.5038 128.779 85.9041C127.176 87.9489 124.628 88.7104 122.615 90.259C118.564 93.5272 116.023 98.2173 111.934 101.466C101.101 111.204 82.7065 113.238 72.0632 102.162C63.8329 94.1406 65.1637 82.1401 66.6114 71.914C67.5847 65.0388 66.2003 78.8132 66.9852 71.914Z" fill="white"/>
<path fill-rule="evenodd" clip-rule="evenodd" d="M100.114 28.0938C97.1962 27.5048 94.2004 27.1384 91.221 27.2487L90.9913 27.2576C88.7495 27.3472 85.9105 27.5455 83.9549 28.8495C83.8424 28.7365 83.6615 28.6786 83.4974 28.7569C81.1735 29.8665 78.6174 30.6688 76.1705 31.466C73.7347 32.2593 71.2078 32.783 68.6549 32.9941C67.6944 33.0735 66.8724 34.111 67.4806 35.0415C67.6253 35.2633 67.7662 35.4872 67.9066 35.7118C67.6718 35.6873 67.4371 35.662 67.2023 35.6383C66.4298 35.5605 65.6581 36.3852 65.7039 37.1376C65.7325 37.6108 65.7835 38.0784 65.859 38.5404C65.5649 38.5342 65.2724 38.5783 64.9898 38.6978C63.5588 39.3022 63.6584 41.0072 63.7655 42.3043C63.9139 44.1044 64.587 46.0111 65.8366 47.3583C64.9036 48.3277 64.2431 49.4854 63.8491 50.8603C63.5633 51.8643 63.4043 52.9338 63.4828 53.9789L63.5078 54.2918C63.6049 55.426 63.7979 56.6816 64.6135 57.4975C65.0322 57.9182 65.548 58.0715 66.0398 58.0229C65.7424 60.6367 65.5518 63.2654 65.3723 65.8847L65.2882 67.1367C64.888 73.1905 64.5872 79.2838 64.6659 85.3477C64.7389 91.0145 65.8583 96.515 69.3328 101.116C72.4973 105.306 77.0407 108.395 82.1805 109.569C84.9504 110.203 87.7782 110.247 90.5818 109.844C91.9407 109.647 93.3087 109.346 94.5985 108.871C96.0262 108.344 97.0523 107.568 98.013 106.405C98.4674 105.854 98.2487 104.68 97.3439 104.79C95.9755 104.956 94.7263 105.156 93.4145 105.561L93.2266 105.62C91.92 106.039 90.5668 106.351 89.2007 106.484C86.4026 106.755 83.5619 106.482 80.8815 105.633C76.5173 104.25 72.7587 101.167 70.3496 97.2928C67.49 92.7009 67.1666 87.4884 67.2079 82.2085C67.2522 76.4148 67.4405 70.6178 67.748 64.8301L67.8004 63.8655C67.963 60.8872 68.12 57.907 68.2581 54.9268C68.3011 53.992 68.3665 53.0497 68.4845 52.1167C69.5627 51.4848 70.529 50.6135 71.1588 49.5385C72.4242 50.062 73.7549 50.4397 74.9793 50.7407C77.8154 51.4384 80.7598 51.6078 83.6466 51.1709C84.4252 51.4926 85.2193 51.7755 86.0256 52.0189C86.2436 52.1156 86.4615 52.2106 86.6792 52.3037C88.6232 53.1357 90.595 53.8405 92.647 54.3566L93.1511 54.4823C94.231 54.7486 95.404 55.0108 96.5533 55.0932C96.7421 55.1661 96.9458 55.2278 97.1684 55.282C98.2149 55.5363 99.301 55.6167 100.374 55.5269C101.419 55.4391 102.174 54.3827 101.598 53.3937C101.177 52.672 100.753 51.9522 100.325 51.2343C101.815 51.855 103.353 52.371 104.904 52.8085C106.47 53.2497 108.059 53.6218 109.65 53.9639C110.5 54.1453 111.354 54.3061 112.203 54.4874C112.81 54.6164 113.743 54.6837 114.238 55.0838C114.786 55.5232 114.941 56.5478 115.148 57.1797C115.421 58.0005 115.677 58.825 115.911 59.6588C116.376 61.3228 116.757 63.0111 117.053 64.7162C117.348 66.4232 117.546 68.147 117.657 69.8764C117.767 71.604 117.718 73.3427 117.896 75.0628C117.991 75.9752 118.97 76.4444 119.694 75.8069C119.779 75.7321 119.864 75.6565 119.949 75.5801L120.075 75.4648C120.694 74.9039 121.294 74.3093 121.789 73.64C121.879 73.5166 121.965 73.3876 122.045 73.2567C122.058 73.2567 122.069 73.253 122.082 73.2436L122.22 73.1403C123.731 72.0148 126.257 70.5475 127.731 72.4173C128.2 73.0129 128.441 73.7714 128.64 74.5031L128.99 75.8127C129.217 76.6676 129.43 77.5272 129.555 78.402C129.837 80.3613 129.695 82.6199 128.347 84.1904C127.809 84.8186 127.067 85.2673 126.239 85.3851C125.777 85.4486 125.321 85.3701 124.863 85.3121C124.398 85.2542 123.95 85.3477 123.484 85.3028C122.744 85.2299 122.421 86.1161 122.697 86.6732C122.847 86.9724 123.023 87.2304 123.222 87.4491C123.062 87.5875 122.908 87.7371 122.761 87.8941C122.323 88.0343 121.931 88.3353 121.638 88.7336C121.4 89.0552 121.277 89.4048 121.256 89.7731C121.23 89.8647 121.208 89.9582 121.187 90.0535L120.786 90.7045C120.698 90.8473 120.61 90.9884 120.522 91.1267C119.501 92.7346 118.369 94.0957 116.961 95.3783C115.606 96.6122 114.135 97.7172 112.862 99.0409L112.712 99.1981C111.526 100.449 110.275 101.963 110.739 103.782C110.859 104.25 111.511 104.586 111.937 104.27C113.307 103.253 113.997 101.642 115.159 100.408C116.356 99.1362 117.681 97.9939 118.881 96.7263C120.015 95.5297 120.911 94.1742 121.585 92.6823C121.854 92.9795 122.247 93.1908 122.791 93.2731C123.725 93.4133 124.596 92.8655 125.004 92.0559C125.265 92.1718 125.533 92.2765 125.802 92.3588C127.219 92.7926 128.11 91.2165 127.575 90.0517C127.29 89.4272 126.933 88.885 126.489 88.4288C127.875 88.2381 129.284 87.5221 130.194 86.6284C132.478 84.3829 132.792 81.0082 132.278 78.0075C132.005 76.4164 131.534 74.8066 130.923 73.3128C130.816 73.0529 130.702 72.7912 130.577 72.5332C130.646 72.5313 130.717 72.5014 130.762 72.4434C131.175 71.8788 131.678 71.417 131.985 70.7851C132.267 70.2055 132.581 69.6184 132.803 69.0145C133.261 67.7787 133.485 66.3839 133.635 65.0771C133.943 62.4016 133.824 59.743 133.414 57.0844C132.717 52.5561 131.034 48.2226 128.553 44.4202C128.688 44.3492 128.818 44.2635 128.938 44.1622L128.998 44.1102L129.095 44.0227C129.803 43.382 129.741 42.1811 129.095 41.5321L128.89 41.3274C128.632 41.0703 128.409 40.8667 127.991 40.5869C127.929 40.5455 127.866 40.5067 127.803 40.4704C128.021 40.0662 128.097 39.5935 127.945 39.0721C127.414 37.2555 124.801 37.3199 123.145 38.112C121.313 36.4763 119.281 35.0563 117.079 33.9065C111.834 31.1693 105.904 29.2604 100.114 28.0938ZM127.224 75.9378C126.244 75.6181 124.944 76.2893 124.063 76.6931C122.947 77.2054 121.998 77.9626 121.078 78.7628C120.621 79.1629 120.538 79.8173 120.652 80.3763C120.664 80.4324 120.675 80.4903 120.688 80.5483C120.809 81.1447 121.475 81.614 122.064 81.5972C123.295 81.5635 123.882 80.4997 124.579 79.5985C124.661 79.7443 124.764 79.879 124.891 79.9799L124.977 80.0472C125.267 80.2676 125.586 80.4438 125.968 80.4268C126.239 80.4137 126.499 80.3445 126.738 80.2192C127.336 79.9033 127.599 79.1292 127.437 78.4992C127.336 78.1028 127.104 77.7924 126.802 77.5774L126.914 77.5002C127.156 77.3321 127.376 77.1549 127.548 76.8933L127.587 76.8314H127.572C127.759 76.5099 127.637 76.0724 127.224 75.9378Z" fill="black"/>
<path fill-rule="evenodd" clip-rule="evenodd" d="M81.094 94.7531C82.4709 95.152 83.9487 95.1876 85.3522 94.7757C86.6251 94.402 87.9322 93.5796 88.8691 92.4914C89.7013 91.5247 90.2403 90.3499 90.2192 89.0959C90.2168 88.9527 90.1656 88.8332 90.0868 88.7404C90.002 88.6405 89.8836 88.5719 89.7568 88.5421C89.6263 88.5115 89.4884 88.5224 89.371 88.5757C89.2647 88.624 89.1736 88.7061 89.1166 88.826C88.9727 89.0152 88.8292 89.2016 88.6853 89.3828C87.5276 90.8128 86.4065 91.8814 84.6657 92.2647C83.7212 92.4727 82.7779 92.3805 81.9123 92.0631C80.9858 91.7234 80.1483 91.1261 79.492 90.3618C79.1954 90.0163 78.8452 89.8753 78.5028 89.873C78.1148 89.8703 77.7313 90.0506 77.4424 90.3389C77.1584 90.6223 76.9682 91.0073 76.951 91.4101C76.9358 91.7636 77.0511 92.1329 77.3578 92.4624C78.3681 93.5476 79.6774 94.3426 81.094 94.7531ZM81.1361 76.8435C79.7248 77.7016 77.5743 79.7027 79.0926 81.8302C80.8798 83.7061 83.4529 81.5553 84.7209 80.5825C85.8967 79.8287 87.2177 81.7676 86.1269 82.6479C76.9642 89.4338 73.2458 77.0679 80.4223 75.8345C81.2124 75.6985 81.5059 76.578 81.1361 76.8435ZM94.3388 73.0673C94.7924 72.7771 95.326 72.6775 95.9174 72.9467C96.3795 73.1569 97.1901 73.8577 97.7542 74.779C98.1401 75.4093 98.4138 76.1487 98.3568 76.9189C98.3436 77.0978 98.4096 77.2297 98.5138 77.3272C98.5962 77.4042 98.715 77.4608 98.8547 77.4785C98.9732 77.4935 99.1059 77.48 99.2138 77.4463C99.4191 77.3822 99.5277 77.249 99.5687 77.1403C99.9636 76.091 99.7935 74.9201 99.3508 73.8638C98.7534 72.4381 97.6686 71.244 96.9578 70.859C95.7415 70.1999 94.3066 70.1696 93.0886 70.841C92.0517 71.4125 91.4034 72.335 90.7586 73.2755C90.6215 73.4754 90.4855 73.6738 90.3449 73.8688C90.0631 74.2594 90.0351 74.6469 90.1442 74.9791C90.2651 75.3472 90.5733 75.6578 90.9588 75.8203C91.315 75.9706 91.7285 75.9917 92.0944 75.8374C92.4035 75.707 92.6871 75.4527 92.8666 75.0214C93.1689 74.295 93.6726 73.4935 94.3388 73.0673V73.0673ZM71.3006 74.6836C71.6113 74.8455 71.8544 74.8943 72.199 74.791C72.3896 74.7338 72.5779 74.624 72.7254 74.4765C72.8715 74.3303 72.977 74.1485 73.018 73.9468C73.1188 73.449 73.391 72.9831 73.779 72.6794C74.1106 72.4198 74.5292 72.2821 74.9934 72.3598C75.4944 72.4434 75.9717 72.7648 76.3005 73.1438C76.4103 73.2706 76.4965 73.4146 76.5831 73.5576C76.745 73.8251 76.9025 74.0737 77.1258 74.2702C77.2105 74.3449 77.3381 74.3967 77.4617 74.3967C77.5119 74.3967 77.5629 74.3885 77.6115 74.3734C78.1101 73.8727 78.206 73.4929 78.1899 73.1163C78.1731 72.7212 78.0174 72.3213 77.7658 71.9481C77.1756 71.0728 76.0551 70.355 75.2989 70.1925C74.2634 69.9699 73.235 70.2371 72.4105 70.8157C71.5621 71.411 70.9334 72.3352 70.7374 73.3768C70.6903 73.6277 70.7103 73.8985 70.8058 74.1332C70.8991 74.3626 71.0618 74.5591 71.3006 74.6836ZM92.0552 63.7346C92.6766 64.3402 93.4122 64.4341 94.1563 64.5175C94.5697 64.5643 94.8998 64.602 95.2246 64.6753C96.1173 64.8769 96.9997 65.1805 97.8048 65.6178C98.6463 66.0748 99.5634 66.6261 100.223 67.3323C100.38 67.5003 100.528 67.6766 100.676 67.8534C100.811 68.0145 100.941 68.1696 101.078 68.3192C101.236 68.491 101.385 68.6711 101.534 68.8507C101.626 69.0022 101.644 69.0395 101.663 69.0783C101.691 69.1366 101.723 69.2019 101.76 69.2718C101.811 69.3677 101.87 69.4727 101.932 69.5678C102.036 69.7417 102.091 69.7896 102.139 69.811C102.219 69.8465 102.294 69.864 102.368 69.8545C102.436 69.8456 102.501 69.8126 102.565 69.7586C102.884 69.489 102.978 69.0464 102.969 68.5767C102.954 67.8638 102.691 67.0746 102.449 66.5894C101.885 65.4621 101.104 64.2901 100.165 63.4487C99.0925 62.4883 97.9196 61.7612 96.5724 61.2602C95.7352 60.9487 94.7658 60.6629 93.8538 60.699C93.1972 60.725 92.5705 60.9202 92.0529 61.4077C91.735 61.707 91.5825 62.1327 91.5825 62.558C91.5825 62.9919 91.7409 63.4283 92.0552 63.7346ZM70.0365 69.2809C70.0761 69.3457 70.1308 69.3903 70.1916 69.4171C70.2554 69.4452 70.3267 69.4533 70.395 69.4418C70.4631 69.4303 70.5278 69.3995 70.5791 69.3523C70.6282 69.3071 70.6657 69.2472 70.6824 69.1737C71.095 67.361 71.8962 66.0123 73.6061 65.1426C74.4473 64.7148 75.4145 64.4429 76.3302 64.2262C76.5962 64.1632 76.8774 64.1224 77.1605 64.0811C78.0479 63.9514 78.9417 63.803 79.5202 63.0855C79.8688 62.6533 80.0151 62.1005 79.9324 61.595C79.8545 61.119 79.5765 60.6826 79.071 60.4211C77.8127 59.7703 76.249 60.4089 74.9783 60.9529C74.884 60.9932 74.7915 61.0329 74.701 61.0711C73.4583 61.5958 72.325 62.2884 71.3933 63.2789C70.6541 64.0647 69.9692 65.2263 69.6934 66.4213C69.4639 67.4155 69.5179 68.4305 70.0365 69.2809Z" fill="black"/>
<path fill-rule="evenodd" clip-rule="evenodd" d="M77.1783 97.7724C78.9189 96.2212 80.87 93.1026 83.3706 95.5702C83.989 96.2674 84.2395 97.8304 85.1852 98.137C86.4412 98.5446 87.686 97.2153 88.114 96.1944C89.8653 90.5225 82.6258 88.9668 78.5016 89.8831C76.4868 90.7108 75.0028 94.0425 74.913 95.7813C74.8551 96.9498 75.8438 98.668 77.1783 97.7724M64.0466 89.0301C64.0636 88.9547 64.0873 88.8867 64.1159 88.8248C64.8857 88.5337 65.4949 88.8306 65.8713 89.3851C65.859 89.5229 65.8178 89.6626 65.7919 89.7993C66.0823 90.4114 66.3443 91.1688 66.738 91.6977C66.8157 91.7037 66.8963 91.6954 66.9736 91.673C73.499 92.3547 70.3132 85.5251 76.9316 83.8288C82.0477 82.9844 91.2945 83.9516 93.708 89.2784C95.6114 97.7867 105.29 91.8581 108.468 87.4332C111.858 83.4062 114.05 78.4853 116.164 73.7103C116.611 72.6997 118.005 73.4224 117.854 74.392C119.807 78.3128 119.742 83.0224 120.226 87.3177C121.049 95.8872 121.851 107.905 113.892 113.137C103.521 124.863 77.6243 129.001 65.6629 118.227C61.5223 109.322 62.0327 98.4581 64.0466 89.0301" fill="black"/>
<path fill-rule="evenodd" clip-rule="evenodd" d="M70.8582 62.9393C66.4712 62.9393 63.9677 63.8831 63.0503 63.9566L63.0227 63.9585C62.6412 63.983 62.2988 64.0149 61.9397 64.1538C60.6191 64.6626 60.404 66.048 61.1747 66.9212C61.2287 68.728 60.9912 70.839 61.3988 72.6516C61.9016 80.293 65.494 81.5826 67.536 82.0532C68.5613 82.2896 69.7763 82.3836 70.8653 82.1341C72.7231 82.0648 74.5597 81.4831 76.1311 80.47C78.3196 79.0581 79.9451 76.8879 80.4726 74.3123C80.7226 73.0846 80.8394 71.8068 80.7033 70.5589L80.6832 70.387C81.3945 70.0466 82.2188 69.9822 83.0686 69.9522C83.4745 69.9377 83.8746 69.9248 84.2633 69.942C84.6432 69.9845 85.0186 70.041 85.3951 70.1179C85.8063 70.242 86.1946 70.4469 86.5532 70.7713L86.5778 71.2447C86.6452 72.4275 86.8004 73.6138 87.0399 74.7742C87.3934 76.4863 87.962 78.1215 89.1722 79.3359C89.5819 79.9479 90.0888 80.4943 90.7041 80.9673C92.9396 82.6891 95.9767 83.3212 98.7641 83.0831C104.423 82.6001 107.694 78.1065 108.448 76.1857L108.493 76.0694C109.037 74.6414 109.471 72.7887 111.192 72.4819L111.558 72.4161C112.343 72.2687 113.068 72.0634 113.528 71.2971C113.73 70.9626 113.834 70.5884 113.859 70.2069C114.128 70.2276 114.396 70.2473 114.663 70.2664C116.795 70.7175 129.585 71.1 130.605 71.1C130.605 71.1 132.568 71.9262 133.396 71.286C133.971 70.8409 134.159 70.2477 133.843 69.5756C133.366 68.5644 131.166 67.9561 130.189 67.7635C130.189 67.7635 114.421 67.8945 113.286 67.6793C112.584 66.955 111.328 67.0541 110.278 66.9396C109.409 66.3199 108.194 65.9048 107.234 65.6269C107.038 65.5528 106.844 65.4811 106.656 65.4135C104.896 64.7865 103.066 64.4544 101.209 64.276C99.2935 64.0939 97.3725 64.1763 95.4683 64.4373C94.6659 64.5462 93.8709 64.687 93.0815 64.8711C91.6682 65.0575 90.263 65.3645 88.8491 65.7287L88.5662 65.8023C87.0773 66.1928 85.5472 66.5305 84.0059 66.2658C82.7511 66.0517 81.5444 65.5686 80.3875 65.0463L80.2369 64.9779C77.693 63.8161 73.7203 62.9393 70.8582 62.9393ZM93.2346 67.1877C94.1732 66.9811 94.5741 68.4288 93.6325 68.6358C92.9657 68.7825 92.4006 69.1188 92.0188 69.6887L91.9786 69.7506C91.4662 70.5661 90.1707 69.8133 90.6866 68.9925C91.267 68.0689 92.169 67.4219 93.2346 67.1877ZM65.7437 66.29C66.0746 66.0568 66.5753 66.2299 66.7674 66.5594C66.9788 66.9222 66.8403 67.3262 66.5304 67.5635L66.4988 67.5867C66.2146 67.7871 65.9377 68.1463 65.9029 68.5144L65.8999 68.5605C65.8627 69.5237 64.3661 69.5286 64.4035 68.5605C64.44 67.6133 64.9882 66.822 65.7437 66.29Z" fill="black"/>
</g>
<defs>
<clipPath id="clip0">
<path d="M212.308 0H-6.10352e-05V230H212.308V0Z" fill="white"/>
</clipPath>
</defs>
</svg>
