<svg width="375" height="331" viewBox="0 0 375 331" fill="none" xmlns="http://www.w3.org/2000/svg">
<g clip-path="url(#clip0)">
<path fill-rule="evenodd" clip-rule="evenodd" d="M179.053 315.228C178.464 309.759 178.102 304.252 177.893 298.755C177.685 293.265 177.957 287.707 178.077 282.215C178.32 271.043 178.716 259.844 177.826 248.688C176.986 238.145 175.057 227.676 172.013 217.546C170.53 212.612 168.968 207.48 166.53 202.922C164.078 198.339 160.194 195.287 155.928 192.488C151.386 189.508 146.881 186.471 142.357 183.464C138.559 180.939 131.725 178.001 128.609 174.626C125.33 171.074 124.714 162.271 122.53 158.064C120.404 153.966 114.385 151.293 109.75 151.293C102.079 151.293 96.2661 150.901 89.9581 158C86.8109 161.542 89.315 165.123 86.0161 168.523C82.9832 171.649 75.2268 174.861 71.3178 176.674C66.6359 178.847 61.8359 180.764 56.9662 182.473C51.9988 184.215 46.9062 185.514 41.9108 187.159C37.1227 188.736 30.8704 195.234 27.1533 198.672C23.6975 201.869 22.8398 201.511 20.2126 205.394C14.4466 213.916 8.67438 222.537 4.08278 231.764C1.79571 236.36 -0.418804 241.195 -1.24861 246.3C-2.13374 251.744 -1.25613 257.006 0.179287 262.277C1.64043 267.642 6.28031 272.749 7.79191 278.1C8.48852 280.566 6.09736 283.257 7.19722 285.581C7.74654 286.741 8.43829 287.775 9.22588 288.786C9.83271 289.565 12.1992 289.392 12.5054 290.346C12.8148 291.309 11.1027 293.308 11.0772 294.305C11.041 295.731 10.9842 297.158 10.9374 298.584L10.6608 307.018C10.4791 312.56 10.2974 318.102 10.1156 323.644C10.0562 325.453 9.96955 327.221 10.4031 328.937C10.2466 328.792 10.0979 328.634 9.96203 328.457C9.56436 327.937 8.72096 328.378 9.05847 328.985C9.62186 329.999 10.432 330.713 11.3839 331.225C12.49 332.857 180.01 336.5 180.834 331.731C181.297 329.055 180.455 326.19 180.119 323.531C179.768 320.762 179.352 318.004 179.053 315.228Z" fill="white"/>
<path fill-rule="evenodd" clip-rule="evenodd" d="M8.88437 246.309C9.29418 245.135 11.1688 245.643 10.756 246.825C8.63446 252.905 10.1395 259.52 12.4331 265.324C12.8934 266.488 11.0154 266.988 10.5615 265.84C8.1487 259.735 6.65602 252.694 8.88437 246.309ZM23.1105 281.034C29.0939 281.876 35.0821 282.396 41.1067 282.815C41.376 282.835 41.6089 282.794 41.8103 282.706C41.6308 285.466 41.4852 288.228 41.3712 290.991C39.7285 290.945 38.0519 291.054 36.4239 291.01C34.296 290.952 32.1705 290.845 30.0474 290.683C25.9372 290.372 21.8343 289.876 17.7702 289.192C16.2513 288.937 14.3223 288.782 12.5924 288.277C10.957 287.799 9.50122 287.007 8.73692 285.517C8.08666 284.255 7.96777 282.709 7.96777 281.313C7.96777 280.352 8.13276 279.376 8.23224 278.408C8.35599 278.32 8.4676 278.216 8.55737 278.1C10.3626 278.67 12.2357 279.07 14.07 279.459C17.0568 280.095 20.0873 280.609 23.1105 281.034ZM19.736 258.591C19.769 260.446 20.2822 262.132 21.2807 263.694C21.9561 264.751 20.2754 265.723 19.6045 264.674C18.4292 262.835 17.8338 260.77 17.795 258.591C17.7727 257.339 19.7137 257.343 19.736 258.591ZM173.111 278.83C173.921 278.875 174.736 278.903 175.549 278.946C176.265 279.559 177.258 279.874 178.164 279.679C178.195 279.757 178.224 279.845 178.25 279.946C178.41 280.57 178.49 281.24 178.582 281.876C178.674 282.502 178.745 283.134 178.793 283.765C178.817 284.083 178.97 284.801 178.776 285.078C178.602 285.328 178.216 285.306 177.949 285.337C177.231 285.415 176.503 285.452 175.78 285.512C174.414 285.631 173.048 285.75 171.684 285.869C170.347 285.986 168.879 285.949 167.571 286.301C167.348 283.677 167.144 281.054 166.955 278.427C168.981 278.726 171.099 278.718 173.111 278.83ZM3.23813 274.478C4.05338 276.054 4.80554 277.602 6.36568 278.549C6.56949 278.67 6.79756 278.736 7.03049 278.753C6.8558 279.503 6.74661 280.27 6.64956 280.978C6.43604 282.539 6.38994 284.153 6.78058 285.692C7.16151 287.19 7.79236 288.528 9.02979 289.486C9.60484 289.933 10.2333 290.273 10.8932 290.542C10.7816 290.855 10.7161 291.166 10.7501 291.508C10.5924 292.302 10.488 293.11 10.374 293.884C10.1241 295.603 9.87416 297.324 9.67762 299.052C9.28456 302.489 8.97641 305.926 8.7168 309.375C8.45718 312.815 8.27035 316.259 8.11506 319.706C8.035 321.468 7.96463 323.23 7.89912 324.995C7.83361 326.808 7.54002 328.663 8.34071 330.345C8.98612 331.704 11.1674 331.626 11.8371 330.345C12.6863 328.716 12.4364 326.781 12.4582 324.995C12.48 323.313 12.5092 321.628 12.5456 319.946C12.6183 316.502 12.7251 313.06 12.81 309.616C12.8925 306.254 12.9944 302.894 13.0624 299.533C13.0963 297.773 13.0988 296.013 13.1085 294.253C13.1133 293.278 13.1546 292.236 13.0818 291.219C13.6884 291.362 14.2998 291.484 14.904 291.608C19.5164 292.554 24.1774 293.244 28.8675 293.671C31.2235 293.884 33.5867 294.035 35.95 294.12C37.6873 294.183 39.4876 294.304 41.2515 294.239C41.1132 298.453 41.0502 302.669 41.0574 306.885C41.0623 309.926 41.1035 312.968 41.1787 316.009C41.22 317.609 41.254 319.208 41.3025 320.808C41.3243 321.527 41.3243 322.252 41.3729 322.968C41.3874 323.191 41.419 323.408 41.4602 323.621C41.3001 324.075 41.1666 324.524 41.0574 324.944C40.5236 326.983 40.5236 328.942 40.7614 331.019C40.9652 332.782 42.4477 334.415 44.4058 333.796C44.7236 333.697 45.0415 333.592 45.3569 333.486C48.2394 333.813 51.1389 333.889 54.0626 333.944C58.3354 334.027 62.6106 334.054 66.8858 334.075C75.2712 334.119 83.6591 334.141 92.0469 334.165C108.903 334.214 125.758 334.26 142.614 334.308C147.292 334.323 151.97 334.335 156.648 334.35C159.07 334.357 161.486 334.359 163.905 334.452C165.034 334.496 166.164 334.556 167.292 334.573C168.6 334.595 169.758 334.219 171.007 333.877C171.713 333.68 171.992 332.971 171.842 332.372C172.972 332.641 174.343 332.068 174.729 330.794C175.011 329.869 174.906 328.866 174.487 328.01V328.007C173.676 322.888 172.647 317.793 171.839 312.672C170.954 307.062 170.102 301.441 169.352 295.809C168.789 291.557 168.326 294.571 167.926 290.299C169.67 290.435 171.643 289.904 173.37 289.678C174.61 289.518 175.86 289.389 177.102 289.219C177.01 290.472 177.037 291.748 177.003 292.95C176.937 295.336 176.966 297.712 177.027 300.098C177.143 304.703 177.403 302.023 177.818 306.608C178.238 311.227 178.752 315.829 179.376 320.427C179.696 322.794 180.038 325.158 180.4 327.519C180.567 328.621 180.739 329.721 180.916 330.823C181.127 332.121 181.195 333.352 182.168 334.328C182.908 335.068 184.42 335.005 184.91 333.973C185.531 332.67 185.25 331.553 185.019 330.185C184.832 329.085 184.653 327.985 184.476 326.886C184.097 324.529 183.738 322.17 183.401 319.808C182.751 315.257 182.137 310.698 181.588 306.135C181.035 301.535 180.463 304.222 179.919 299.623C179.645 297.302 179.371 294.986 179.05 292.673C178.888 291.484 178.786 290.217 178.572 288.991C178.64 288.981 178.708 288.969 178.776 288.957C180.251 288.688 181.511 287.855 181.882 286.335C182.236 284.882 181.814 283.209 181.516 281.782C181.261 280.567 181.031 279.015 180.248 277.973C183.005 274.461 184.797 270.041 185.941 265.792C187.187 261.163 187.708 256.331 187.819 251.548C187.947 246.006 187.529 240.496 186.58 235.077C186.557 233.929 186.504 232.781 186.419 231.634C185.585 220.382 182.081 207.063 170.973 201.805C170.93 201.784 170.883 201.764 170.837 201.745C169.966 200.703 168.879 199.766 168.001 198.89C166.446 197.337 164.82 195.851 163.097 194.482C159.686 191.771 155.944 189.606 152.055 187.657C148.122 185.683 144.131 183.831 140.287 181.678C136.939 179.8 133.925 177.537 131.065 174.984C127.85 172.112 125.562 168.241 124.664 164.015C124.618 163.794 124.29 163.855 124.286 164.066C124.05 171.811 129.277 178.656 135.291 182.987C142.483 188.159 151.167 190.608 158.461 195.623C160.273 196.868 161.969 198.274 163.583 199.766C161.11 199.514 158.594 199.674 156.277 200.359C155.365 200.303 154.447 200.286 153.533 200.242C151.441 200.138 149.347 200.041 147.253 199.948C142.985 199.759 138.715 199.587 134.445 199.436C126.067 199.14 117.686 198.917 109.305 198.769C92.4642 198.47 75.6012 198.412 58.7624 198.9C54.196 199.031 30.185 198.121 27.9625 198.378C31.2308 195.548 34.8169 193.237 38.7597 191.336C43.6924 188.965 48.7902 187.382 54.0577 185.936C64.9059 182.957 76.1714 180.086 84.8528 172.52C87.0098 170.639 88.9266 168.476 90.4965 166.081C91.9959 163.794 93.6628 160.867 93.7041 158.078C93.7332 156.097 90.9769 155.376 89.9966 157.073C89.3876 158.124 89.0868 159.277 88.5894 160.379C88.0944 161.471 87.5072 162.525 86.8545 163.532C85.571 165.513 83.9793 167.28 82.2469 168.874C78.554 172.277 74.0799 174.77 69.4504 176.656C58.9395 180.935 47.4436 182.741 37.4834 188.383C33.1257 190.851 28.9549 194.257 26.3369 198.601C25.9147 198.667 25.4949 198.744 25.0752 198.832C25.3882 198.436 25.7036 198.041 26.0214 197.647C26.2301 197.39 25.9074 197.05 25.6526 197.278C20.7005 201.686 16.139 206.446 12.0045 211.636C8.04955 216.602 4.36152 221.806 1.75078 227.622C-2.94175 238.069 -3.97537 250.018 -1.55146 261.189C-0.891496 264.233 0.0402172 267.213 1.2267 270.095C1.83813 271.582 2.50052 273.049 3.23813 274.478Z" fill="black"/>
<path fill-rule="evenodd" clip-rule="evenodd" d="M110.148 56.5979C123.925 56.5979 141.18 72.3197 146.23 79.0099C150.476 84.6347 149.875 113.612 149.875 130.801C149.875 134.396 148.251 141.2 147.661 144.639C145.5 157.24 136.085 167.808 117.451 167.808C102.279 167.808 90.6027 163.001 79.3117 150.704C76.7357 147.899 64.1555 157.942 61.5827 154.325C54.8626 154.325 49.2435 91.5125 62.4375 72.6723C75.6316 53.8322 96.371 56.5979 110.148 56.5979Z" fill="white"/>
<path fill-rule="evenodd" clip-rule="evenodd" d="M68.7407 61.0218C76.7015 53.7763 87.307 50.2908 98.0071 50.5481C103.549 50.6816 109.071 51.7374 114.305 53.5458C116.923 54.4536 119.458 55.6381 121.882 56.9779C122.756 57.4597 123.561 58.0241 124.336 58.6236L124.529 58.7741H124.532C126.611 59.5217 128.467 60.864 130.151 62.4345C133.526 62.165 136.928 62.4685 140.191 63.5098C144.734 64.9613 148.938 67.6192 151.891 71.3936C155.331 75.7878 156.474 81.1178 156.066 86.6201L155.991 87.5548C155.587 92.4154 154.865 98.6672 150.877 101.861C150.574 102.104 150.239 102.288 149.892 102.4C152.461 106.803 154.57 111.691 155.832 116.628C160.648 135.486 156.945 155.152 151.154 173.327C150.678 174.825 148.414 175.82 147.262 174.357C145.204 171.74 142.215 169.745 138.852 169.371C136.778 169.14 134.713 169.558 132.752 168.616C131.983 168.245 131.241 167.638 130.707 166.9C127.397 168.155 123.833 168.747 120.298 168.602C114.497 168.364 108.295 166.354 104.303 161.946C103.663 161.238 103.501 160.444 103.648 159.728C104.149 159.549 104.663 159.416 105.192 159.333C110.253 162.317 115.832 164.311 121.828 164.436C125.293 164.509 128.672 164.024 131.482 161.86C132.089 161.391 132.648 160.873 133.165 160.315C139.039 156.535 143.18 150.116 145.148 143.239C146.983 136.826 146.757 130.148 146.126 123.571L145.793 120.099C145.308 115.005 144.858 109.895 144.732 104.778L144.77 104.777C146.01 104.696 146.019 102.754 144.77 102.835C141.539 103.044 138.331 102.514 135.11 102.745C135.083 101.221 134.973 99.7042 134.525 98.2348C134.27 97.3952 132.809 97.2296 132.654 98.2348C132.447 99.5795 132.371 100.917 132.348 102.267C127.527 102.203 122.71 101.798 117.888 101.964C116.999 101.015 116.715 99.3324 116.299 98.1617C116.239 97.9894 116.178 97.8194 116.115 97.6471C115.749 99.32 115.231 100.956 114.549 102.558L113.367 102.562C106.657 102.593 99.81 102.794 93.2578 104.188C92.8024 103.838 92.5314 103.228 92.4581 102.674C91.9828 99.0681 91.3045 95.558 90.1023 92.1217L89.9304 91.6369C89.9163 91.5967 89.9015 91.5539 89.8859 91.509C89.0001 92.9394 87.9432 94.2727 86.7904 95.5143C86.1111 96.2461 85.3987 96.9459 84.6676 97.6258C83.9574 98.4146 83.2235 99.1916 82.5121 99.9829C82.54 100.127 82.5642 100.273 82.5839 100.422C82.8015 102.064 82.8241 103.729 82.6647 105.378C82.3764 108.358 81.5355 111.229 80.1845 113.885L80.1417 114.151C79.9366 115.396 79.6447 116.683 78.9631 117.62C79.8137 118.574 80.4691 119.713 80.8491 120.978C81.1873 122.104 79.6293 123.081 78.8214 122.159C78.1796 121.426 77.4665 120.82 76.6833 120.337C76.6338 120.404 76.5445 120.437 76.4443 120.381C74.263 119.17 70.558 119.536 68.3791 120.677C65.6689 122.095 64.611 125.005 64.9119 127.954C65.2006 130.772 66.4332 134.066 68.8232 135.51C69.9199 136.173 70.7739 136.229 71.9386 135.911C72.311 135.81 72.7726 135.499 72.9708 135.345L73.1658 135.189C73.9293 134.585 74.6404 134.172 75.5417 134.156C76.4635 133.868 77.39 134.267 77.7425 135.234L77.7642 135.297C77.9292 135.789 78.2301 136.408 78.1646 137.161C78.0966 137.967 77.7278 138.7 77.177 139.29C77.0824 139.392 76.9805 139.494 76.8762 139.588C86.3631 149.863 87.5812 165.873 82.7164 178.709C82.5053 179.272 82.2796 179.828 82.0443 180.379C81.2314 182.267 78.1015 181.682 77.7036 179.811C77.5847 179.25 77.4536 178.692 77.3105 178.138C77.0474 177.116 76.7459 176.103 76.4061 175.104L76.2769 174.73C75.9881 173.905 75.7188 173.073 75.4277 172.247L75.3985 172.153C75.3876 172.116 75.3755 172.073 75.3621 172.024L74.8696 173.099L73.3725 176.345C72.672 177.859 70.4462 177.036 70.3634 175.577L70.3615 175.527C70.3542 175.257 70.3445 174.99 70.3275 174.726C70.2207 172.742 69.8786 170.815 69.3351 168.929L69.139 169.173C66.2192 172.784 62.7924 176.169 58.0915 177.002C56.9123 177.211 55.5778 175.978 56.3882 174.786C56.723 174.294 57.0457 173.789 57.3514 173.276C57.087 173.153 56.8371 173.024 56.6066 172.893C54.8232 171.891 53.3383 170.463 52.1106 168.844C49.5071 165.412 48.5754 161.092 48.3473 156.863C48.1047 152.395 48.4977 147.683 49.7182 143.372C50.2471 141.508 50.9629 139.719 51.7903 137.984C51.7321 137.828 51.6762 137.673 51.6204 137.518C50.7276 135.027 49.9948 132.481 49.3858 129.906C48.1581 124.706 47.4981 119.342 47.418 114C47.2725 104.429 48.9224 94.7052 52.3993 85.7801C55.9903 76.5758 61.3913 67.709 68.7407 61.0218ZM64.2689 144.7C63.6095 143.661 61.9596 144.597 62.5719 145.643L62.5947 145.681C63.6404 147.329 64.1306 149.203 64.7323 151.04C65.1181 152.222 66.9936 151.717 66.603 150.523L66.4737 150.124C65.8749 148.261 65.3287 146.367 64.2689 144.7ZM70.0118 124.873L70.4499 124.661C71.8318 124.002 73.0425 123.552 74.6752 124.128C76.8614 124.898 79.2028 127.347 77.7251 129.723C77.1816 130.599 76.216 130.949 75.2212 130.743C73.5441 130.395 73.1113 128.884 72.2602 127.644L72.1138 127.434C71.5949 126.683 70.9388 125.646 70.0749 125.352C69.8784 125.284 69.7959 124.978 70.0118 124.873ZM71.2448 74.4205L71.3859 74.294C72.3249 73.4639 70.9467 72.0949 70.0126 72.9202C65.7374 76.6995 64.2525 82.6147 62.0348 87.6562C61.5374 88.7898 63.2092 89.7801 63.7114 88.6369C65.8268 83.8261 67.231 78.0713 71.2448 74.4205ZM122.62 72.7672C121.503 72.2636 120.526 73.8899 121.6 74.4253L121.64 74.4444C125.415 76.1508 127.022 80.0151 128.56 83.6026C129.05 84.7483 130.722 83.7604 130.237 82.6244L129.959 81.9807C128.354 78.2836 126.482 74.5152 122.62 72.7672ZM128.538 70.432C127.354 70.0217 126.847 71.8956 128.021 72.3058C131.221 73.4199 133.417 75.823 135.268 78.5706C135.962 79.5998 137.644 78.6289 136.943 77.59C134.793 74.4006 132.24 71.7233 128.538 70.432Z" fill="black"/>
<path fill-rule="evenodd" clip-rule="evenodd" d="M122.038 150.765C120.407 150.1 118.952 148.989 117.888 147.571C117.518 147.078 117.422 146.557 117.5 146.081C117.587 145.545 117.904 145.06 118.336 144.735C118.769 144.408 119.311 144.247 119.835 144.329C120.29 144.4 120.743 144.65 121.102 145.167L121.177 145.27C121.809 146.126 122.634 146.829 123.573 147.282C124.478 147.718 125.49 147.922 126.538 147.803C128.533 147.578 129.909 146.498 131.371 145.032C131.552 144.847 131.733 144.656 131.915 144.462C132.03 144.286 132.19 144.173 132.367 144.114C132.564 144.048 132.787 144.052 132.991 144.123C133.187 144.192 133.363 144.322 133.481 144.495C133.593 144.66 133.657 144.863 133.636 145.097C133.502 146.616 132.708 147.972 131.581 149.037C130.328 150.219 128.668 151.037 127.104 151.324C125.382 151.64 123.627 151.414 122.038 150.765ZM127.917 127.327C129.749 128.441 132.541 131.039 130.57 133.801C128.25 136.237 124.909 133.445 123.263 132.182C121.737 131.203 120.022 133.72 121.438 134.863C133.333 143.673 138.16 127.619 128.844 126.017C127.818 125.841 127.437 126.983 127.917 127.327ZM106.602 117.079C106.804 114.566 110.631 113.995 111.012 116.482C111.353 118.71 110.951 120.757 109.948 122.764C108.989 124.68 106.58 123.786 106.398 122.041C106.153 119.701 106.476 118.643 106.602 117.079ZM135.734 115.966C136.267 115.267 137.037 114.79 137.96 115.06C140.844 115.903 139.994 119.998 138.981 121.992C138.431 123.074 136.652 123.349 135.849 122.396C134.538 120.841 133.911 117.737 135.577 116.206C135.622 116.127 135.672 116.047 135.734 115.966ZM109.907 106.08L110.363 106C111.772 105.756 113.524 105.522 114.521 106.656C115.05 107.257 115.232 108.374 114.521 108.949C113.271 109.961 111.889 109.569 110.391 109.654C109.156 109.725 107.97 109.93 106.781 110.27C104.172 111.016 102.046 112.377 99.8182 113.873C99.5259 114.069 99.2274 113.695 99.3669 113.421C100.653 110.901 103.146 108.831 105.642 107.569C106.975 106.895 108.433 106.336 109.907 106.08ZM133.105 104.951L133.453 105.022C137.247 105.815 142.177 107.4 143.974 111.128C144.042 111.656 143.97 111.769 143.911 111.842L143.891 111.867C143.843 111.93 143.804 112.017 143.576 112.089C143.512 112.073 143.448 112.057 143.384 112.041C142.56 111.825 141.908 111.527 141.278 111.219L140.594 110.881C139.8 110.492 139 110.117 138.151 109.84C136.341 109.249 134.478 108.833 132.587 108.611C132.177 108.563 131.782 108.424 131.471 108.187C131.175 107.962 130.95 107.65 130.847 107.236C130.713 106.7 130.752 106.294 131.039 105.81C131.255 105.447 131.565 105.195 131.92 105.051C132.282 104.903 132.695 104.868 133.105 104.951Z" fill="black"/>
<path fill-rule="evenodd" clip-rule="evenodd" d="M148.378 129.499C146.744 131.694 143.715 132.394 140.922 132.152C134.897 131.572 133.001 124.727 132.803 119.407C136.843 120.544 132.462 112.491 146.272 111.606C151.141 111.2 149.798 114.141 151.949 116.29C151.905 120.801 151.155 125.702 148.378 129.499ZM119.681 124.316C116.124 140.98 96.6462 137.017 94.6 121.995C96.4894 120.661 95.9918 117.367 98.339 116.174C102.059 113.796 106.709 113.897 110.934 113.953C116.334 114.324 117.872 116.562 120.646 119.003C120.513 120.634 120.128 122.567 119.681 124.316ZM156.093 108.846C155.894 108.813 155.694 108.781 155.494 108.752C155.338 108.663 155.154 108.595 154.941 108.554C154.455 108.431 153.972 108.347 153.49 108.302C146.567 106.744 130.551 108.957 129.89 114.867C127.686 115.603 125.778 114.944 123.223 115.009C121.278 106.877 87.653 108.025 86.0359 112.928C86.0298 112.926 86.0237 112.924 86.0174 112.923C84.4636 112.441 82.1729 112.557 80.3944 112.481C76.5969 112.402 72.7951 112.74 69.0797 113.541C62.1221 114.648 52.6267 115.943 57.4655 124.634C57.4665 124.636 57.4672 124.637 57.4684 124.639L57.4691 124.638C58.3031 125.493 59.7184 124.805 59.771 123.647C58.1442 119.529 61.8186 119.035 64.6458 117.852C71.6804 115.323 78.8425 114.973 86.1181 115.755C86.6655 116.4 87.496 116.962 88.3739 117.256C93.2385 118.064 90.6748 121.674 93.7497 122.199C93.1848 134.782 108.456 141.651 117.305 133.379C120.838 129.923 121.68 124.805 122.499 120.191C122.932 120.093 123.208 119.856 123.369 119.543C124.41 118.502 125.065 117.542 127.124 117.256C129.184 116.971 130.77 117.544 130.984 117.719C131.038 117.828 131.096 117.937 131.164 118.047C131.258 118.209 131.386 118.339 131.532 118.441C129.498 130.972 139.222 138.897 149.038 132.398C153.304 128.384 154.205 122.238 154.383 116.753C154.962 116.404 155.328 115.728 155.128 114.877C154.852 113.705 155.499 112.69 156.529 112.18C157.867 111.518 157.631 109.101 156.093 108.846Z" fill="black"/>
</g>
<g clip-path="url(#clip1)">
<path fill-rule="evenodd" clip-rule="evenodd" d="M377.794 339.416C368.826 339.444 360.111 339.751 351.118 339.781C314.558 339.903 277.663 339.725 240.971 338.243C230.6 337.824 228.011 337.834 217.686 337.184C211.589 337.162 193.275 336.658 194.192 328.351C194.597 312.88 198.426 297.474 199.632 282.044C201.947 253.038 203.918 223.125 215.542 195.995C218.232 189.516 224.01 185.279 229.73 181.469C235.467 177.359 236.874 172.796 242.169 168.153C243.288 167.171 249.645 166.771 253.065 164.281C258.044 160.656 260.512 154.722 262.37 153.711C263.736 152.968 263.711 147.84 266.451 146.025C270.127 143.589 281.841 141.778 286.103 141.439C290.193 141.114 297.308 141.797 301.146 143.296C307.547 145.794 310.099 150.561 312.918 156.701C350.157 168.214 384.194 187.709 394.764 227.032C403.88 260.012 404.214 295.369 400.693 329.194C399.988 331.667 400.482 335.544 398.345 337.184C405.771 337.61 378.802 339.142 377.794 339.416Z" fill="white"/>
<path fill-rule="evenodd" clip-rule="evenodd" d="M208.418 306.852C209.122 306.5 209.857 306.097 210.662 306.069C212.044 306.021 212.046 303.87 210.662 303.919C209.455 303.961 208.394 304.464 207.332 304.995C206.093 305.613 207.183 307.468 208.418 306.852ZM210.662 246.307C209.719 246.308 208.768 246.427 208.044 247.087C207.614 247.479 207.648 248.211 208.044 248.608C208.469 249.032 209.136 248.999 209.565 248.608C209.425 248.735 209.564 248.609 209.614 248.581C209.626 248.574 209.633 248.57 209.636 248.567C209.647 248.564 209.658 248.562 209.675 248.557C209.788 248.529 209.899 248.501 210.012 248.481C210.014 248.486 210.252 248.465 210.308 248.463C210.427 248.459 210.544 248.458 210.662 248.458C211.246 248.458 211.737 247.966 211.737 247.383C211.737 246.802 211.243 246.307 210.662 246.307ZM220.772 270.434C221.08 271.785 223.152 271.21 222.845 269.862C222.398 267.903 222.48 265.896 222.845 263.929C223.097 262.574 221.024 261.999 220.772 263.358C220.334 265.716 220.236 268.083 220.772 270.434ZM223.488 193.132C225.09 192.752 226.673 192.707 228.311 192.706C229.697 192.705 229.695 190.555 228.311 190.555C226.484 190.556 224.701 190.634 222.916 191.058C221.569 191.378 222.143 193.452 223.488 193.132ZM228.855 245.524C229.783 245.06 230.713 244.595 231.641 244.13C232.881 243.511 231.79 241.656 230.556 242.273L227.769 243.667C226.53 244.287 227.62 246.142 228.855 245.524ZM229.241 287.882C230.419 289.581 232.076 290.636 234.063 291.164C235.405 291.519 235.972 289.444 234.635 289.09C233.214 288.713 231.951 288.026 231.098 286.796C230.314 285.665 228.45 286.742 229.241 287.882ZM236.67 212.151C236.989 211.555 237.469 211.304 238.064 211.29C239.448 211.259 239.448 209.108 238.064 209.139C236.707 209.17 235.462 209.852 234.814 211.066C234.161 212.287 236.018 213.373 236.67 212.151ZM250.309 226.772C250.695 227.192 251.442 227.182 251.83 226.772C252.067 226.522 252.266 226.242 252.423 225.935C252.483 225.819 252.539 225.7 252.605 225.587C252.634 225.537 252.667 225.487 252.7 225.438C252.711 225.428 252.735 225.404 252.759 225.378C253.172 224.942 253.162 224.297 252.759 223.857C252.373 223.437 251.626 223.448 251.238 223.857C251.001 224.108 250.801 224.388 250.645 224.695C250.585 224.811 250.529 224.93 250.463 225.043C250.434 225.093 250.401 225.143 250.368 225.192C250.357 225.202 250.333 225.226 250.309 225.251C249.896 225.688 249.906 226.333 250.309 226.772ZM251.456 258.533C252.856 259.174 254.392 259.174 255.792 258.533C256.323 258.291 256.448 257.525 256.178 257.062C255.864 256.526 255.235 256.435 254.707 256.676C254.072 256.967 253.175 256.966 252.541 256.676C252.011 256.434 251.387 256.52 251.07 257.062C250.798 257.528 250.928 258.292 251.456 258.533ZM255.276 281.014C255.517 281.584 256.036 281.887 256.644 281.91C257.246 281.933 257.694 281.399 257.719 280.834C257.735 280.47 257.538 280.158 257.255 279.965C257.255 279.945 257.254 279.925 257.254 279.905C257.254 279.302 256.762 278.856 256.179 278.83C255.599 278.804 255.104 279.343 255.104 279.905C255.104 280.285 255.128 280.662 255.276 281.014ZM260.823 316.755C262.539 316.783 264.216 317.192 265.932 317.22C267.318 317.242 267.314 315.091 265.932 315.069C264.216 315.041 262.539 314.632 260.823 314.604C259.436 314.582 259.441 316.733 260.823 316.755ZM267.959 178.917C268.963 179.875 270.204 180.346 271.427 180.944C272.667 181.55 273.756 179.694 272.513 179.087C271.476 178.58 270.329 178.206 269.479 177.397C268.476 176.441 266.954 177.961 267.959 178.917ZM270.655 203.71C271.359 203.358 272.094 202.955 272.899 202.927C274.281 202.879 274.283 200.728 272.899 200.777C271.692 200.818 270.632 201.322 269.569 201.853C268.33 202.471 269.42 204.326 270.655 203.71ZM283.581 303.213C283.899 302.617 284.379 302.365 284.975 302.352C286.358 302.321 286.359 300.17 284.975 300.201C283.617 300.232 282.372 300.914 281.724 302.127C281.071 303.349 282.928 304.434 283.581 303.213ZM288.057 256.506C288.485 256.113 288.455 255.383 288.057 254.985C287.593 254.521 287.128 254.056 286.663 253.591C286.239 253.166 285.572 253.197 285.143 253.591C284.715 253.984 284.745 254.714 285.143 255.112C285.608 255.577 286.072 256.041 286.537 256.506C286.962 256.931 287.628 256.9 288.057 256.506ZM293.335 329.3C294.886 329.263 296.34 328.818 297.801 328.332C299.11 327.897 298.545 325.82 297.229 326.258C295.96 326.68 294.685 327.117 293.335 327.149C291.951 327.181 291.951 329.332 293.335 329.3ZM300.301 283.304C301.703 283.265 302.865 282.551 303.848 281.595C304.842 280.628 303.32 279.109 302.328 280.075C301.765 280.622 301.116 281.131 300.301 281.153C298.918 281.192 298.917 283.343 300.301 283.304ZM295.976 224.153C295.959 224.726 295.717 225.339 295.362 225.716C294.412 226.722 295.93 228.245 296.882 227.237C297.668 226.405 298.093 225.292 298.126 224.153C298.166 222.766 296.015 222.772 295.976 224.153ZM312.376 177.307C312.826 176.425 313.416 175.392 314.313 174.905C315.531 174.244 314.444 172.387 313.227 173.048C312.008 173.71 311.136 175.014 310.519 176.221C309.891 177.453 311.747 178.54 312.376 177.307ZM315.163 199.675C315.662 199.661 316.157 199.576 316.638 199.445C316.844 199.389 317.047 199.325 317.253 199.269C317.341 199.245 317.715 199.198 317.485 199.211C318.068 199.18 318.56 198.744 318.56 198.135C318.56 197.576 318.066 197.029 317.485 197.06C316.687 197.103 315.962 197.502 315.163 197.525C313.78 197.564 313.779 199.714 315.163 199.675ZM322.131 234.056H324.453C325.839 234.056 325.836 231.905 324.453 231.905H322.131C320.745 231.905 320.747 234.056 322.131 234.056ZM324.84 329.152C325.544 329.505 326.374 329.839 326.945 330.378C327.951 331.329 329.473 329.81 328.465 328.857C327.739 328.17 326.81 327.738 325.925 327.295C325.404 327.034 324.763 327.152 324.454 327.681C324.175 328.159 324.321 328.893 324.84 329.152ZM330.027 301.976C330.117 301.951 330.212 301.933 330.303 301.921C330.669 301.871 331.051 301.888 331.419 301.888C332.804 301.887 332.802 299.736 331.419 299.737C330.328 299.738 329.193 299.753 328.336 300.517C327.901 300.905 327.943 301.645 328.336 302.038C328.763 302.465 329.423 302.424 329.856 302.038C329.811 302.079 329.967 301.992 330.027 301.976ZM331.419 265.424C331.107 264.78 331.102 264.36 331.102 263.644C331.1 262.258 328.95 262.26 328.951 263.644C328.952 264.684 329.106 265.569 329.563 266.51C329.817 267.035 330.562 267.172 331.033 266.896C331.562 266.587 331.672 265.947 331.419 265.424ZM337.637 214.968C338.884 215.393 339.998 215.993 341.096 216.718C342.255 217.484 343.331 215.62 342.181 214.861C340.928 214.034 339.631 213.378 338.209 212.894C336.893 212.447 336.334 214.525 337.637 214.968ZM344.889 178.768C345.815 178.793 346.772 179.149 347.597 179.55C348.838 180.153 349.927 178.297 348.683 177.693C347.503 177.119 346.213 176.654 344.889 176.617C343.502 176.578 343.508 178.729 344.889 178.768ZM348.141 275.405C348.505 275.422 348.817 275.225 349.01 274.941C349.03 274.941 349.05 274.941 349.069 274.941C349.672 274.941 350.118 274.448 350.145 273.865C350.171 273.285 349.632 272.79 349.069 272.79C348.69 272.79 348.313 272.813 347.961 272.962C347.391 273.203 347.089 273.722 347.065 274.33C347.043 274.932 347.576 275.38 348.141 275.405ZM353.427 201.03C354.747 201.462 355.308 199.384 353.999 198.956C352.461 198.454 350.891 198.065 349.354 197.562C348.033 197.13 347.473 199.208 348.782 199.636C350.319 200.139 351.89 200.528 353.427 201.03ZM358.249 241.629C358.659 242.949 360.733 242.382 360.323 241.057C359.926 239.778 359.897 238.49 359.897 237.161C359.896 235.775 357.746 235.777 357.746 237.161C357.747 238.674 357.798 240.173 358.249 241.629ZM372.627 290.256C372.705 290.791 373.13 291.177 373.685 291.202C374.251 291.228 374.781 290.69 374.76 290.127C374.721 289.044 373.839 288.162 372.756 288.122C372.154 288.1 371.707 288.632 371.681 289.198C371.657 289.747 372.115 290.176 372.627 290.256ZM379.901 228.442C381.038 228.821 382.252 229.182 383.142 230.024C384.149 230.974 385.671 229.455 384.663 228.503C383.488 227.394 381.977 226.87 380.473 226.368C379.155 225.928 378.595 228.006 379.901 228.442ZM384.832 270.226C385.145 270.76 385.777 270.857 386.303 270.612C387.008 270.284 387.787 270.295 388.547 270.295C389.933 270.293 389.931 268.143 388.547 268.144C387.374 268.145 386.292 268.255 385.218 268.755C384.689 269.001 384.56 269.761 384.832 270.226ZM387.618 320.936C388.22 320.958 388.668 320.426 388.693 319.861C388.718 319.312 388.259 318.883 387.747 318.803C387.669 318.267 387.244 317.881 386.689 317.856C386.123 317.831 385.593 318.369 385.614 318.932C385.653 320.015 386.535 320.897 387.618 320.936ZM191.725 329.069C192.09 327.755 192.926 326.693 193.557 325.51C193.769 325.111 193.843 324.863 193.958 324.571C194.113 324.883 194.416 325.118 194.871 325.118C195.744 325.118 196.765 325.062 197.58 325.436C198.11 325.679 198.734 325.592 199.051 325.05C199.323 324.584 199.193 323.821 198.665 323.579C197.464 323.028 196.174 322.968 194.871 322.967C194.549 322.967 194.306 323.085 194.134 323.263C193.636 316.445 193.648 309.622 194.119 302.798C194.622 295.507 195.778 288.36 196.987 281.162C197.573 277.672 198.334 274.148 198.186 270.593C198.038 267.063 196.525 263.772 197.597 260.231C198.027 258.811 198.764 257.51 199.242 256.107C199.755 254.595 199.71 253.103 199.476 251.538C198.995 248.352 198.197 245.204 199.473 242.093C200.038 240.714 200.952 239.482 201.392 238.057C201.941 236.286 201.865 234.325 201.957 232.489C202.142 228.784 202.191 225.055 202.497 221.358C202.634 219.702 202.932 218.131 203.612 216.612C204.266 215.15 205.236 213.819 205.669 212.267C206.099 210.74 206.136 209.13 206.367 207.568C206.609 205.917 206.988 204.29 207.499 202.704C209.472 196.563 213.087 191.046 217.358 186.262C221.898 181.178 227.324 177.349 233.084 173.782C236.113 171.905 239.142 170.029 242.169 168.153C242.233 168.505 242.457 168.829 242.888 168.973C244.025 169.352 245.239 169.713 246.13 170.554C247.136 171.505 248.658 169.986 247.65 169.034C246.598 168.04 245.276 167.517 243.93 167.057C245.309 166.188 246.703 165.288 248.26 164.785C249.623 164.344 251.633 164.729 252.738 163.729C253.606 162.941 253.88 161.481 254.213 160.411C254.63 159.083 254.99 157.682 255.519 156.391C255.88 155.509 256.404 154.662 257.065 153.979C257.355 152.861 257.888 151.839 258.828 151.218C261.29 149.589 264.314 151.207 265.397 153.53C266.292 153.528 267.236 153.724 268.106 153.778C269.896 153.891 271.689 153.942 273.482 153.936C276.99 153.926 280.5 153.697 283.978 153.232C290.197 152.398 296.232 150.718 302.346 149.409C302.381 149.328 302.422 149.247 302.47 149.167C303.787 146.957 307.069 147.33 309.136 148.166C310.023 148.524 310.926 148.976 311.434 149.815C311.971 150.178 312.436 150.619 312.746 151.084C313.385 152.044 313.88 153.979 315.178 154.141C316.033 154.246 316.901 154.082 317.769 154.205C318.855 154.356 319.828 154.738 320.83 155.173C328.464 158.488 336.355 162.175 344.639 163.46C346.582 163.761 348.561 164.073 350.248 165.162C351.619 166.046 352.679 167.262 353.81 168.415C354.912 169.539 355.82 170.036 357.393 170.238C359.301 170.483 360.954 171.01 362.349 172.397C363.507 173.55 364.263 175.024 365.171 176.363C366.096 177.729 367.453 178.498 368.862 179.291C372.192 181.167 375.293 183.434 377.995 186.152C383.685 191.885 387.131 199.252 390.603 206.43C394.358 214.195 397.868 222.054 400.304 230.346C402.69 238.488 404.109 246.863 404.765 255.316C405.456 264.186 405.553 273.091 406.128 281.966C406.416 286.4 406.633 290.839 406.854 295.275C407.069 299.658 407.383 304.048 407.332 308.436C407.235 316.919 405.54 325.429 402.575 333.371C401.836 335.347 401.016 337.297 400.143 339.217C399.376 340.902 396.756 340.714 395.933 339.217C395.745 338.872 395.597 338.517 395.474 338.157C393.323 338.176 391.152 338.009 389.015 338.208C385.241 338.56 381.46 338.757 377.675 338.991C370.187 339.456 362.685 339.765 355.194 340.193C354.467 340.234 353.74 340.276 353.014 340.319C358.352 323.791 357.66 305.922 358.505 288.733C358.573 287.347 356.422 287.355 356.354 288.733C355.506 305.996 356.228 323.91 350.701 340.465C348.557 340.61 346.416 340.788 344.282 341.048C342.556 341.255 340.822 341.499 339.081 341.413C337.105 341.319 335.175 340.867 333.248 340.475C329.746 339.762 326.373 340.085 322.857 340.523C319.097 340.994 315.323 341.255 311.539 341.419C296.385 342.083 281.129 342.688 265.98 341.674C262.314 341.429 258.656 341.085 255.014 340.617C251.262 340.136 247.55 339.327 243.801 338.867C240.105 338.415 236.707 339.655 233.055 339.883C229.33 340.117 225.505 339.34 221.814 338.894C220.61 338.748 219.405 338.606 218.2 338.465C219.752 327.825 220.634 317.104 221.491 306.388C221.602 305.005 219.451 305.017 219.341 306.388C218.491 317.02 217.628 327.661 216.078 338.218C209.688 337.474 203.292 336.721 196.968 335.563C195.167 335.235 193.377 334.7 192.299 333.092C191.501 331.901 191.34 330.441 191.725 329.069Z" fill="black"/>
<path fill-rule="evenodd" clip-rule="evenodd" d="M240.015 103.417C240.594 98.3318 239.845 87.7018 239.795 87.056C239.477 82.9732 241.39 66.851 245.005 68.3365C251.069 63.5343 259.146 62.4739 266.699 61.9673C282.387 60.915 299.076 63.3307 311.19 73.8919C317.181 79.3766 323.013 87.3536 322.545 95.6595C327.988 103.533 335.661 114.332 328.879 123.536C326.574 126.477 322.91 127.572 320.014 129.799C314.189 134.499 310.535 141.244 304.655 145.916C289.076 159.919 262.624 162.844 247.318 146.917C235.482 135.381 237.396 118.123 239.477 103.417C240.877 93.5305 238.886 113.339 240.015 103.417Z" fill="white"/>
<path fill-rule="evenodd" clip-rule="evenodd" d="M287.656 40.4012C283.46 39.5543 279.152 39.0273 274.867 39.186L274.537 39.1988C271.313 39.3277 267.231 39.6128 264.418 41.488C264.257 41.3256 263.996 41.2423 263.76 41.3549C260.418 42.9507 256.742 44.1044 253.224 45.2508C249.721 46.3916 246.087 47.1447 242.416 47.4483C241.034 47.5626 239.852 49.0545 240.727 50.3927C240.935 50.7115 241.138 51.0337 241.339 51.3566C241.002 51.3213 240.664 51.285 240.327 51.2509C239.216 51.139 238.106 52.325 238.172 53.407C238.213 54.0875 238.286 54.7599 238.395 55.4243C237.972 55.4154 237.551 55.4789 237.145 55.6507C235.087 56.5199 235.23 58.9717 235.384 60.8371C235.598 63.4258 236.566 66.1677 238.363 68.1052C237.021 69.4993 236.071 71.1641 235.504 73.1414C235.094 74.5852 234.865 76.1231 234.978 77.6261L235.014 78.0761C235.153 79.7071 235.431 81.5129 236.604 82.6862C237.206 83.2912 237.948 83.5116 238.655 83.4417C238.227 87.2005 237.953 90.9808 237.695 94.7477L237.574 96.548C236.998 105.254 236.566 114.017 236.679 122.737C236.784 130.886 238.394 138.796 243.391 145.413C247.941 151.439 254.475 155.88 261.867 157.569C265.85 158.48 269.916 158.545 273.948 157.964C275.903 157.682 277.87 157.249 279.725 156.566C281.778 155.808 283.253 154.692 284.635 153.02C285.288 152.226 284.974 150.538 283.673 150.697C281.705 150.935 279.908 151.223 278.022 151.805L277.752 151.89C275.873 152.493 273.927 152.942 271.962 153.132C267.938 153.522 263.853 153.13 259.998 151.909C253.722 149.919 248.317 145.486 244.853 139.915C240.74 133.311 240.275 125.815 240.335 118.223C240.398 109.891 240.669 101.554 241.112 93.2309L241.187 91.8439C241.421 87.5608 241.646 83.275 241.845 78.9893C241.907 77.6449 242.001 76.2898 242.171 74.9482C243.721 74.0394 245.111 72.7865 246.017 71.2405C247.836 71.9933 249.75 72.5364 251.511 72.9693C255.589 73.9727 259.824 74.2163 263.975 73.588C265.095 74.0507 266.237 74.4575 267.396 74.8076C267.71 74.9466 268.023 75.0831 268.336 75.217C271.132 76.4135 273.967 77.4271 276.918 78.1692L277.643 78.3501C279.196 78.733 280.883 79.1101 282.536 79.2286C282.807 79.3334 283.1 79.4221 283.42 79.5001C284.925 79.8658 286.487 79.9814 288.03 79.8523C289.532 79.726 290.618 78.2069 289.79 76.7845C289.186 75.7467 288.575 74.7116 287.96 73.6791C290.102 74.5718 292.314 75.3138 294.545 75.943C296.797 76.5775 299.082 77.1126 301.369 77.6046C302.592 77.8654 303.821 78.0966 305.041 78.3574C305.914 78.5429 307.256 78.6397 307.968 79.2151C308.755 79.847 308.978 81.3204 309.277 82.2291C309.669 83.4095 310.038 84.5952 310.374 85.7943C311.043 88.1873 311.591 90.6151 312.016 93.0672C312.44 95.522 312.725 98.001 312.884 100.488C313.042 102.972 312.973 105.473 313.228 107.946C313.365 109.258 314.773 109.933 315.814 109.017C315.936 108.909 316.059 108.8 316.18 108.69L316.362 108.524C317.252 107.718 318.115 106.863 318.827 105.9C318.956 105.723 319.079 105.537 319.195 105.349C319.214 105.349 319.23 105.344 319.249 105.33L319.446 105.182C321.62 103.563 325.251 101.453 327.371 104.142C328.047 104.999 328.392 106.089 328.679 107.142L329.183 109.025C329.509 110.254 329.815 111.49 329.995 112.748C330.401 115.566 330.196 118.814 328.258 121.073C327.484 121.976 326.417 122.621 325.226 122.791C324.562 122.882 323.906 122.769 323.248 122.686C322.579 122.602 321.934 122.737 321.264 122.672C320.2 122.567 319.735 123.842 320.133 124.643C320.348 125.073 320.601 125.444 320.888 125.759C320.657 125.958 320.437 126.173 320.224 126.399C319.595 126.601 319.031 127.033 318.609 127.606C318.267 128.069 318.09 128.571 318.061 129.101C318.023 129.233 317.991 129.367 317.961 129.504L317.384 130.44C317.258 130.646 317.131 130.849 317.004 131.048C315.537 133.36 313.908 135.317 311.884 137.162C309.935 138.936 307.82 140.525 305.99 142.429L305.774 142.655C304.067 144.454 302.268 146.632 302.936 149.247C303.108 149.919 304.047 150.403 304.659 149.949C306.629 148.486 307.621 146.169 309.293 144.394C311.013 142.566 312.919 140.923 314.644 139.1C316.276 137.379 317.564 135.43 318.534 133.285C318.921 133.712 319.485 134.016 320.267 134.134C321.611 134.336 322.864 133.548 323.45 132.384C323.826 132.551 324.21 132.701 324.598 132.819C326.635 133.443 327.917 131.177 327.148 129.502C326.737 128.604 326.224 127.824 325.586 127.168C327.578 126.894 329.605 125.864 330.914 124.579C334.198 121.35 334.65 116.496 333.911 112.181C333.518 109.893 332.841 107.578 331.962 105.43C331.809 105.056 331.645 104.68 331.465 104.309C331.564 104.306 331.666 104.263 331.731 104.18C332.325 103.368 333.048 102.703 333.489 101.795C333.895 100.961 334.346 100.117 334.666 99.2485C335.324 97.4713 335.647 95.4655 335.862 93.5861C336.305 89.7386 336.134 85.9153 335.545 82.092C334.542 75.58 332.121 69.3482 328.554 63.8799C328.748 63.7778 328.935 63.6546 329.108 63.5089L329.194 63.4341L329.333 63.3083C330.351 62.3869 330.263 60.66 329.333 59.7267L329.039 59.4322C328.667 59.0626 328.347 58.7698 327.746 58.3673C327.657 58.3079 327.566 58.252 327.475 58.1998C327.789 57.6185 327.898 56.9388 327.679 56.1889C326.916 53.5766 323.158 53.6691 320.777 54.8083C318.142 52.456 315.22 50.4139 312.054 48.7604C304.511 44.8241 295.983 42.079 287.656 40.4012ZM326.642 109.205C325.233 108.746 323.363 109.711 322.097 110.292C320.492 111.028 319.127 112.117 317.804 113.268C317.146 113.843 317.028 114.784 317.191 115.588C317.208 115.669 317.224 115.752 317.243 115.836C317.417 116.693 318.374 117.368 319.221 117.344C320.992 117.296 321.836 115.766 322.839 114.47C322.957 114.679 323.105 114.873 323.288 115.018L323.411 115.115C323.827 115.432 324.286 115.685 324.836 115.661C325.226 115.642 325.599 115.543 325.943 115.362C326.803 114.908 327.182 113.795 326.948 112.889C326.803 112.319 326.47 111.872 326.035 111.563L326.197 111.452C326.544 111.21 326.861 110.956 327.108 110.58L327.163 110.491H327.142C327.411 110.028 327.236 109.399 326.642 109.205Z" fill="black"/>
<path fill-rule="evenodd" clip-rule="evenodd" d="M260.306 136.262C262.286 136.836 264.411 136.887 266.429 136.295C268.26 135.757 270.14 134.575 271.487 133.01C272.684 131.62 273.459 129.93 273.428 128.127C273.425 127.921 273.351 127.749 273.238 127.615C273.116 127.472 272.946 127.373 272.764 127.33C272.576 127.286 272.378 127.302 272.209 127.379C272.056 127.448 271.925 127.566 271.843 127.739C271.636 128.011 271.43 128.279 271.223 128.539C269.558 130.596 267.946 132.133 265.442 132.684C264.084 132.983 262.727 132.85 261.483 132.394C260.15 131.905 258.946 131.046 258.002 129.947C257.575 129.45 257.072 129.248 256.579 129.244C256.021 129.24 255.47 129.5 255.054 129.914C254.646 130.322 254.373 130.876 254.348 131.455C254.326 131.963 254.492 132.494 254.933 132.968C256.386 134.529 258.269 135.672 260.306 136.262ZM260.366 110.507C258.337 111.741 255.244 114.618 257.428 117.678C259.998 120.376 263.698 117.283 265.522 115.884C267.212 114.799 269.112 117.588 267.543 118.854C254.367 128.612 249.019 110.829 259.34 109.056C260.476 108.86 260.898 110.125 260.366 110.507ZM279.352 105.076C280.005 104.659 280.772 104.516 281.622 104.903C282.287 105.205 283.453 106.213 284.264 107.538C284.819 108.444 285.212 109.508 285.13 110.615C285.111 110.872 285.206 111.062 285.356 111.202C285.475 111.313 285.646 111.395 285.846 111.42C286.017 111.442 286.208 111.422 286.363 111.374C286.658 111.281 286.814 111.09 286.873 110.934C287.441 109.425 287.197 107.741 286.56 106.222C285.701 104.172 284.141 102.454 283.119 101.901C281.369 100.953 279.306 100.909 277.554 101.875C276.063 102.697 275.131 104.023 274.204 105.376C274.007 105.663 273.811 105.949 273.609 106.229C273.203 106.791 273.163 107.348 273.32 107.826C273.494 108.355 273.937 108.802 274.491 109.035C275.004 109.251 275.598 109.282 276.125 109.06C276.569 108.872 276.977 108.507 277.235 107.886C277.67 106.842 278.394 105.689 279.352 105.076ZM246.221 107.4C246.668 107.633 247.018 107.703 247.513 107.555C247.787 107.473 248.058 107.315 248.27 107.103C248.481 106.892 248.632 106.631 248.691 106.341C248.836 105.625 249.228 104.955 249.786 104.518C250.262 104.145 250.864 103.947 251.532 104.059C252.252 104.179 252.939 104.641 253.412 105.186C253.57 105.368 253.693 105.575 253.818 105.781C254.051 106.166 254.277 106.523 254.599 106.806C254.72 106.913 254.904 106.988 255.082 106.988C255.154 106.988 255.227 106.976 255.297 106.954C256.014 106.234 256.152 105.688 256.129 105.146C256.105 104.578 255.881 104.003 255.519 103.467C254.67 102.208 253.059 101.176 251.971 100.942C250.482 100.622 249.003 101.006 247.817 101.838C246.597 102.694 245.693 104.023 245.412 105.521C245.344 105.882 245.373 106.271 245.51 106.609C245.644 106.939 245.878 107.221 246.221 107.4ZM276.068 91.6543C276.962 92.5253 278.02 92.6602 279.09 92.7802C279.685 92.8475 280.159 92.9017 280.626 93.0072C281.91 93.2971 283.179 93.7337 284.337 94.3624C285.547 95.0198 286.866 95.8125 287.815 96.828C288.04 97.0697 288.253 97.3233 288.466 97.5774C288.66 97.8091 288.847 98.0322 289.044 98.2473C289.271 98.4944 289.486 98.7534 289.7 99.0116C289.832 99.2296 289.858 99.2832 289.885 99.339C289.925 99.4228 289.971 99.5167 290.025 99.6173C290.098 99.7552 290.183 99.9061 290.273 100.043C290.421 100.293 290.501 100.362 290.57 100.393C290.685 100.444 290.793 100.469 290.899 100.455C290.997 100.442 291.091 100.395 291.182 100.317C291.641 99.9295 291.777 99.2931 291.763 98.6176C291.742 97.5925 291.364 96.4575 291.015 95.7597C290.205 94.1385 289.081 92.4532 287.73 91.2432C286.189 89.8621 284.502 88.8164 282.564 88.0959C281.361 87.648 279.967 87.2369 278.655 87.2888C277.711 87.3262 276.809 87.607 276.065 88.308C275.608 88.7384 275.389 89.3506 275.389 89.9623C275.389 90.5863 275.616 91.2139 276.068 91.6543ZM244.403 99.6307C244.46 99.7239 244.539 99.7881 244.626 99.8267C244.718 99.8671 244.82 99.8788 244.919 99.8622C245.017 99.8457 245.11 99.8013 245.183 99.7335C245.254 99.6685 245.308 99.5823 245.332 99.4767C245.925 96.8698 247.078 94.9303 249.537 93.6796C250.746 93.0644 252.137 92.6734 253.454 92.3618C253.837 92.2712 254.241 92.2125 254.648 92.153C255.924 91.9666 257.21 91.7532 258.042 90.7213C258.543 90.0998 258.753 89.3049 258.634 88.5779C258.522 87.8934 258.122 87.2658 257.396 86.8897C255.586 85.9538 253.337 86.8721 251.51 87.6545C251.374 87.7125 251.241 87.7695 251.111 87.8244C249.324 88.579 247.694 89.575 246.354 90.9994C245.291 92.1294 244.306 93.8 243.91 95.5185C243.58 96.9482 243.657 98.4078 244.403 99.6307Z" fill="black"/>
<path fill-rule="evenodd" clip-rule="evenodd" d="M254.674 140.605C257.177 138.374 259.983 133.89 263.579 137.438C264.468 138.441 264.828 140.689 266.188 141.129C267.994 141.716 269.785 139.804 270.4 138.336C272.919 130.179 262.508 127.942 256.577 129.26C253.679 130.45 251.545 135.241 251.416 137.742C251.333 139.422 252.755 141.893 254.674 140.605ZM235.788 128.033C235.813 127.925 235.847 127.827 235.888 127.738C236.995 127.319 237.871 127.746 238.413 128.544C238.395 128.742 238.336 128.943 238.298 129.139C238.716 130.02 239.093 131.109 239.659 131.87C239.771 131.878 239.887 131.866 239.998 131.834C249.382 132.814 244.8 122.993 254.318 120.553C261.676 119.339 274.973 120.73 278.444 128.39C281.181 140.626 295.099 132.1 299.669 125.737C304.545 119.946 307.698 112.869 310.738 106.002C311.38 104.549 313.385 105.588 313.167 106.983C315.977 112.621 315.883 119.394 316.579 125.571C317.763 137.894 318.916 155.177 307.47 162.702C292.556 179.564 255.314 185.515 238.113 170.021C232.158 157.215 232.892 141.592 235.788 128.033Z" fill="black"/>
<path fill-rule="evenodd" clip-rule="evenodd" d="M245.584 90.5114C239.275 90.5114 235.675 91.8685 234.356 91.9742L234.316 91.9771C233.768 92.0122 233.275 92.0581 232.759 92.2578C230.86 92.9895 230.55 94.9819 231.659 96.2376C231.736 98.8359 231.395 101.872 231.981 104.478C232.704 115.467 237.87 117.322 240.807 117.999C242.281 118.339 244.028 118.474 245.595 118.115C248.266 118.015 250.907 117.179 253.167 115.722C256.314 113.691 258.652 110.57 259.41 106.867C259.77 105.101 259.938 103.263 259.742 101.469L259.713 101.222C260.736 100.732 261.922 100.64 263.144 100.596C263.728 100.576 264.303 100.557 264.862 100.582C265.408 100.643 265.948 100.724 266.49 100.835C267.081 101.013 267.639 101.308 268.155 101.774L268.19 102.455C268.287 104.156 268.51 105.862 268.855 107.531C269.363 109.993 270.181 112.344 271.921 114.091C272.51 114.971 273.239 115.757 274.124 116.437C277.339 118.913 281.707 119.822 285.715 119.48C293.853 118.785 298.557 112.323 299.641 109.561L299.706 109.393C300.489 107.34 301.113 104.676 303.587 104.234L304.114 104.14C305.243 103.928 306.285 103.633 306.947 102.531C307.237 102.049 307.386 101.511 307.423 100.963C307.809 100.992 308.195 101.021 308.579 101.048C311.646 101.697 330.038 102.247 331.506 102.247C331.506 102.247 334.328 103.435 335.519 102.515C336.345 101.874 336.616 101.021 336.162 100.055C335.476 98.6006 332.311 97.7259 330.906 97.4489C330.906 97.4489 308.231 97.6373 306.599 97.3278C305.589 96.2862 303.783 96.4287 302.273 96.264C301.024 95.3728 299.276 94.7759 297.895 94.3764C297.614 94.2697 297.335 94.1666 297.064 94.0694C294.533 93.1677 291.902 92.6901 289.231 92.4336C286.476 92.1717 283.714 92.2902 280.976 92.6655C279.822 92.8221 278.678 93.0246 277.543 93.2894C275.511 93.5575 273.49 93.999 271.457 94.5227L271.05 94.6285C268.909 95.1901 266.708 95.6758 264.492 95.2951C262.687 94.9872 260.952 94.2925 259.288 93.5413L259.072 93.443C255.413 91.7721 249.7 90.5114 245.584 90.5114ZM277.763 96.6198C279.113 96.3228 279.69 98.4046 278.335 98.7024C277.377 98.9133 276.564 99.397 276.015 100.216L275.957 100.306C275.22 101.478 273.357 100.396 274.099 99.2153C274.934 97.887 276.231 96.9567 277.763 96.6198ZM238.228 95.3288C238.704 94.9935 239.424 95.2424 239.701 95.7162C240.005 96.238 239.805 96.8189 239.36 97.1602L239.314 97.1935C238.906 97.4818 238.507 97.9984 238.457 98.5277L238.453 98.5939C238.399 99.9792 236.247 99.9862 236.301 98.5939C236.354 97.2319 237.142 96.0939 238.228 95.3288Z" fill="black"/>
</g>
<defs>
<clipPath id="clip0">
<path d="M-42.3662 32.1572H233.266V330.758H-42.3662V32.1572Z" fill="white"/>
</clipPath>
<clipPath id="clip1">
<path d="M449 0H143.685V330.758H449V0Z" fill="white"/>
</clipPath>
</defs>
</svg>
