<svg width="100" height="120" viewBox="0 0 100 120" fill="none" xmlns="http://www.w3.org/2000/svg">
<rect x="1" y="1" width="98" height="118" rx="15" fill="#F95A2C" stroke="#18191F" stroke-width="2"/>
<path fill-rule="evenodd" clip-rule="evenodd" d="M48.1503 24.8209C49.5228 24.441 51.1007 24.4852 52.5088 24.5824C53.9389 24.6811 55.4734 24.8505 56.8153 25.3844C57.9818 25.8486 58.9655 26.6292 59.5649 27.7477C60.0577 28.6672 60.2888 29.6756 60.4337 30.6999C60.4929 31.1191 60.5425 31.5392 60.5897 31.9598L60.6866 32.8348C60.7246 33.1693 60.7578 33.4202 60.8243 33.7934C61.0085 34.8259 61.2649 35.6885 61.8375 36.4396C63.224 38.2582 65.488 38.8669 67.5469 39.6431C68.8644 40.1397 69.9076 41.0332 70.1971 42.4688C70.4763 43.8538 81.0941 55.4734 82.1365 56.4529L82.1651 56.4793C82.9737 57.2073 82.8785 58.5758 82.9917 59.5749C83.1129 60.6462 83.2283 61.7182 83.3379 62.7906C83.5604 64.9694 83.7586 67.1505 83.9325 69.3334C84.6125 77.8709 84.9211 86.4381 84.8555 95.0023L84.8514 95.487C84.8413 96.5739 84.8493 97.6656 84.8006 98.7514C84.7538 99.795 84.438 100.84 83.471 101.385C82.5751 101.89 81.4423 101.845 80.4411 101.896L80.3812 101.899C79.3069 101.958 78.2322 102.006 77.157 102.046C72.7872 102.207 68.4134 102.225 64.0411 102.205C55.3672 102.165 46.6845 101.974 38.0187 102.46C35.8097 102.583 28.7674 101.831 26.5654 102.046C24.4607 102.25 26.2665 103.283 24.9663 103.215C20.6903 102.991 16.6343 102.037 12.5374 100.888C12.0256 100.744 11.6343 100.247 11.6407 99.7105C11.7168 93.8136 11.8833 87.9183 12.1434 82.0268C12.3751 76.7787 12.6805 71.5339 13.0593 66.2944C13.224 64.0169 13.4025 61.7404 13.5949 59.4651L13.6782 58.4901C13.7869 57.2326 13.8494 55.9521 14.0966 54.7122C14.3412 53.4858 14.8961 52.4223 15.7007 51.4721C16.4227 50.6196 24.5967 43.9459 26.5654 42.6825C28.4497 41.4731 30.4284 40.4528 32.3628 39.3319C33.1676 38.8656 33.9405 39.0334 34.6281 38.4609C34.9906 38.1592 40.25 36.126 41.6689 35.4551L41.7108 35.4352C42.7968 34.9141 43.7963 34.3491 44.5467 33.4481C44.7983 33.1461 45.2917 31.2433 45.2926 30.6354C45.2943 29.5493 45.212 28.4052 45.5396 27.3532C45.9314 26.0951 46.8757 25.1737 48.1503 24.8209ZM50.4778 52.8243L42.0737 69.1908H47.5385L43.6213 78.2843H52.2237L49.1722 91.0214L66.6231 69.1908H60.0746L66.6231 60.5956H62.0812L66.6231 53.3166L50.4778 52.8243Z" fill="white"/>
<path fill-rule="evenodd" clip-rule="evenodd" d="M78.7079 62.0277C78.6885 62.047 78.6681 62.0665 78.6487 62.0869C78.6712 62.0553 78.6906 62.0225 78.7079 61.9899V62.0277ZM62.3746 57.2601C61.6199 58.2243 60.8212 60.1862 60.0879 61.1677C59.9827 61.3086 59.8796 61.4496 59.7774 61.5915C59.4731 62.0173 59.8796 62.6689 60.38 62.6415C61.3799 62.5883 62.3787 62.5138 63.3775 62.4382C61.3257 64.7248 59.6222 67.5652 57.7379 69.9876C57.6102 70.15 57.4846 70.3135 57.359 70.4768C56.882 71.0988 57.36 71.3808 58.0116 71.2132C58.1464 71.1786 58.2812 71.1439 58.416 71.1102C59.3638 70.8671 60.3106 70.624 61.2583 70.382C61.7823 70.247 62.3093 70.0807 62.8403 69.9775C63.0589 69.9357 63.2683 69.9704 63.4746 69.9816C63.3755 70.1327 63.2366 70.4054 63.209 70.4472C62.8996 70.9293 62.5881 71.4093 62.2745 71.8873C61.6638 72.8168 61.05 73.745 60.4137 74.6571C57.9319 78.2132 55.2551 81.6082 52.6017 85.0347C51.9338 85.8965 51.2567 86.7494 50.5683 87.5941C50.5714 87.5889 50.5734 87.5837 50.5765 87.5787C51.1964 86.3715 51.8163 85.1654 52.4363 83.9581C53.6149 81.6643 54.7822 79.3644 55.9731 77.0766C56.0343 76.9571 56.0966 76.8387 56.1589 76.7192C56.4061 76.2452 56.0006 75.753 55.493 75.853C53.0168 76.3409 50.5645 76.9404 48.1427 77.6503C48.0337 77.7664 47.8735 77.8004 47.7304 77.7723C47.6331 77.8015 47.5353 77.8294 47.438 77.859C47.4675 77.7978 47.498 77.7372 47.5278 77.6762C47.4288 77.5903 47.3796 77.4572 47.4439 77.291C48.8375 73.6952 50.7482 70.2239 53.012 67.0447C52.9209 67.0465 52.83 67.0478 52.7386 67.0505C50.2537 67.1179 47.8159 67.4743 45.4209 68.1513C45.4097 67.9297 45.5435 67.5866 45.616 67.4232C45.906 66.7705 46.239 66.1332 46.5505 65.4908C47.1878 64.1713 47.8251 62.8529 48.4624 61.5332C49.0854 60.2444 49.7033 58.9515 50.2895 57.6442C50.5969 56.9588 50.9043 56.2725 51.2107 55.5863C51.4609 55.0275 51.658 54.4648 51.8654 53.8929C52.4741 54.0717 60.2901 54.1104 62.1898 54.2422C62.6555 54.2749 63.1222 54.3045 63.589 54.3301C63.9607 54.3515 64.4846 54.4332 64.741 54.0972L64.838 54.1788C63.9944 55.1879 63.1855 56.2246 62.3746 57.2601V57.2601ZM31.8596 38.5131C31.8984 38.4957 31.9362 38.4783 31.974 38.461C31.9934 38.4886 32.0169 38.5141 32.0414 38.5396C32.1026 38.6019 32.1629 38.6692 32.2262 38.7306C32.1037 38.659 31.9811 38.5865 31.8596 38.5131V38.5131ZM86.4832 95.9095C86.4127 94.4214 86.3341 92.9333 86.2503 91.4453C86.0849 88.5367 85.9143 85.628 85.6866 82.7234C85.2239 76.8376 84.7929 70.9537 84.0994 65.0894C83.8084 62.6311 83.4019 60.1913 82.9944 57.7503C83.0465 57.7033 83.0996 57.6563 83.1517 57.6105C83.0955 58.2783 84.0024 58.7012 84.4518 58.0352C84.4855 57.9853 84.5182 57.9352 84.5509 57.8832C84.94 57.254 85.8367 54.1675 85.7744 53.9061C85.662 53.4353 85.3495 53.0166 85.1054 52.602C84.892 52.2393 84.6765 51.8767 84.4579 51.5173C84.0218 50.7972 83.5724 50.0844 83.1016 49.3868C82.1263 47.9428 81.06 46.5558 79.8038 45.3435C78.5037 44.0873 77.0116 43.0547 75.4704 42.1183C74.73 41.6688 73.966 41.2614 73.1878 40.8813C72.4198 40.5075 71.5792 40.0939 70.752 39.8815C70.705 39.8692 70.657 39.9347 70.6999 39.9694C70.9195 40.143 71.1493 40.3064 71.3831 40.4636C70.7499 40.2442 70.0973 40.0857 69.4396 40.0296C68.166 39.5822 66.8771 39.1728 65.6097 38.706C64.3637 38.2464 63.1361 37.7297 62.3078 36.641C61.6 35.7105 61.1527 34.5718 60.8085 33.4627C60.4306 32.2402 60.2805 30.9696 59.9312 29.745C59.9036 29.6459 59.7413 29.6347 59.7198 29.745C59.4706 31.0298 59.4818 32.474 59.6238 33.771C59.7729 35.1314 60.1559 36.4663 60.9893 37.5724C61.9575 38.8582 63.2709 39.5741 64.7487 40.145C65.9406 40.6067 67.1478 41.0764 68.3682 41.489C68.2089 41.5933 68.0476 41.6974 67.8811 41.7964C67.2193 42.1897 66.5309 42.539 65.8272 42.8526C64.5424 43.4254 63.1892 43.8545 61.8278 44.2027C59.2939 44.8481 56.6957 45.176 54.0832 45.2189C48.8562 45.3058 43.5709 44.2109 38.7902 42.0968C37.4441 41.5014 36.1297 40.8466 34.8285 40.1594C34.422 39.9448 34.0135 39.7283 33.607 39.5056C33.6407 39.5037 33.6755 39.5006 33.7092 39.4975C34.6171 39.4118 35.5138 39.2371 36.3921 38.99C38.1906 38.4824 39.9146 37.6909 41.6079 36.9115C43.0439 36.2507 44.5228 35.498 45.4001 34.1214C45.8688 33.3851 46.0843 32.521 46.259 31.6754C46.454 30.7337 46.6838 29.7879 46.8258 28.8372C46.8758 28.5042 46.8013 28.0538 46.4438 27.8965C46.3009 27.8341 46.1834 27.7831 46.0231 27.7831C45.6687 27.7831 45.3051 28.0406 45.2203 28.3939C45.0109 29.2753 44.8843 30.1812 44.7199 31.0717C44.5779 31.8418 44.4482 32.6456 44.0325 33.3227C43.3064 34.5085 41.8827 35.115 40.6796 35.6922C39.1548 36.4234 37.6289 37.1362 36.0449 37.7297C35.3473 37.991 34.6375 38.2281 33.9175 38.422C33.9461 38.2455 33.9216 38.0595 33.8174 37.9196C33.6438 37.6887 33.4467 37.5355 33.223 37.359C32.9799 37.1669 32.6531 37.0669 32.3661 37.1516C32.3661 37.1526 32.3651 37.1516 32.3651 37.1516C32.2487 37.1261 32.12 37.1362 31.9872 37.1965C31.5767 37.3845 31.1671 37.5744 30.7576 37.7675C24.8657 40.5393 19.1412 43.7951 14.8058 48.7536C14.1807 49.4685 13.5955 50.2203 13.0471 50.9954C12.514 51.7482 11.8542 52.5652 11.7071 53.4986C11.6949 53.5763 11.8082 53.612 11.8276 53.5323C11.8624 53.3883 11.9093 53.2473 11.9676 53.1105C11.846 53.5354 11.8532 53.9869 12.0248 54.431C12.228 54.9539 12.6008 55.3003 13.0716 55.438C12.5987 57.5104 12.2811 59.6102 12.0258 61.7334C11.6591 64.7922 11.3987 67.8583 11.2026 70.9323C10.8104 77.0674 10.6358 83.233 10.7624 89.3793C10.7982 91.1164 10.8574 92.8537 10.9473 94.59C10.9922 95.4581 11.0412 96.3251 11.0974 97.1932C11.1526 98.0471 11.1076 98.9877 11.8522 99.4381C11.8613 99.4718 11.8716 99.5044 11.8807 99.5381C12.0615 100.168 12.8673 99.9661 12.9429 99.3941C12.9439 99.3881 12.945 99.3808 12.946 99.3748C13.5547 98.9101 13.4628 98.1359 13.4178 97.3933C13.3698 96.5917 13.3188 95.791 13.2759 94.9903C13.1942 93.4542 13.1247 91.9182 13.0624 90.381C12.9409 87.3416 12.8724 84.2982 12.85 81.2567C12.805 75.1728 13.1564 69.098 13.5731 63.0316C13.7477 60.4935 13.952 57.9668 14.0143 55.4299C14.3401 55.2603 14.4401 54.7784 14.2767 54.4536C18.1352 57.0864 21.7159 60.2341 24.5909 63.8925C25.0709 64.5032 25.5295 65.1323 25.9687 65.7728C26.1116 65.981 26.2475 66.1976 26.3843 66.414C26.2516 67.0176 26.1484 67.6314 26.0136 68.2105C25.7358 69.4066 25.6184 70.6474 25.459 71.8628C25.1353 74.3313 24.9075 76.8222 24.7145 79.3039C24.3346 84.2052 24.0527 89.1055 23.9638 94.0211C23.9148 96.801 23.8495 99.5983 23.972 102.377C23.8811 102.921 24.3703 103.452 24.882 103.52C25.3303 103.58 25.7491 103.348 25.9452 102.973C27.3423 103.146 28.7762 103.226 30.1642 103.236C32.0342 103.25 33.9042 103.248 35.7742 103.208C39.5153 103.126 43.2553 103.03 46.9953 102.919C54.4754 102.698 61.9554 102.476 69.4365 102.255C71.5108 102.193 73.5851 102.132 75.6594 102.071C76.5949 102.043 77.7612 102.313 78.4986 101.591C78.6252 101.466 78.7233 101.32 78.7927 101.164C79.0133 101.219 79.284 101.165 79.429 100.994C79.6996 100.675 79.8988 100.379 79.8886 99.9355C79.8794 99.5207 79.765 99.0837 79.7058 98.6731C79.5934 97.9021 79.4852 97.1309 79.382 96.3588C79.1788 94.8329 78.9888 93.3052 78.8142 91.7762C78.4567 88.65 78.1319 85.5166 77.8787 82.3801C77.3762 76.1778 77.2342 69.9428 77.2516 63.7209C77.2536 63.1643 77.2567 62.6077 77.2597 62.051C77.2832 62.0807 77.3088 62.1082 77.3363 62.1318C77.3588 62.1511 77.3813 62.1705 77.4037 62.191C77.6652 62.4208 78.1003 62.5393 78.4138 62.3218C78.7989 62.0725 79.0644 61.6987 79.3647 61.3607C79.6802 61.0063 80.005 60.661 80.3329 60.318C80.9681 59.6541 81.6248 59.0177 82.2948 58.3886C82.3489 58.3387 82.403 58.2876 82.4572 58.2385C82.4613 60.2188 82.4592 62.1982 82.5123 64.1775C82.592 67.1178 82.7513 70.0551 82.8974 72.9914C83.1874 78.8056 83.4877 84.6178 83.7767 90.4311C83.8574 92.0541 83.934 93.6778 84.0147 95.3007C84.0555 96.1126 84.0954 96.9246 84.1342 97.7366C84.1546 98.1757 84.175 98.616 84.1954 99.0551C84.2179 99.527 84.1883 100.031 84.3476 100.48C84.7102 101.505 86.2769 101.65 86.5782 100.48C86.7671 99.7455 86.6221 98.8957 86.5884 98.142C86.5536 97.3986 86.5189 96.6539 86.4832 95.9095V95.9095Z" fill="black"/>
</svg>
