<svg width="100" height="120" viewBox="0 0 100 120" fill="none" xmlns="http://www.w3.org/2000/svg">
<rect x="1" y="1" width="98" height="118" rx="15" fill="#FF89BB" stroke="#18191F" stroke-width="2"/>
<path fill-rule="evenodd" clip-rule="evenodd" d="M11.1795 86.3742C10.8737 89.1773 10.1811 92.2651 11.5014 94.9098C10.6699 94.9471 11.3445 95.1876 11.7932 95.2703C12.0495 95.4687 12.3938 95.5472 12.7177 95.5196C14.3992 95.875 16.135 96.0038 17.8423 96.2049C39.1588 97.9755 60.6182 97.5052 81.9746 96.7423C82.6692 96.7122 83.1352 96.2077 83.1884 95.5281C83.9712 85.5273 84.3607 75.4955 84.3408 65.4641C83.993 61.9388 86.6575 63.3144 85.2361 58.6691C84.0935 53.7694 82.4023 49.0002 80.2457 44.4558C78.755 41.4986 77.3504 38.387 75.0783 35.9347C74.3603 35.8355 73.7491 35.1224 73.1423 34.7241C72.5278 34.6044 72.0723 34.0826 71.4495 33.9221C70.2627 33.6134 67.6066 32.9568 66.5959 33.7465C66.5559 33.7355 66.5155 33.7262 66.4755 33.7149C66.2777 33.9343 66.006 33.7697 65.8584 33.5726C65.3533 33.1806 63.1458 33.1402 62.8953 32.5385C61.5893 31.3538 61.2398 28.8604 61.2398 27.4017C60.7514 26.853 60.7176 26.9549 60.0547 26.6648C59.4047 25.845 58.6195 25.1309 57.7432 24.568C52.8112 21.3296 45.6542 24.742 44.4996 30.3707C42.6744 31.8159 40.7957 33.2839 38.5602 34.0369C37.4692 33.4757 36.2264 33.2966 35.0685 33.2954C34.2054 33.2641 33.0127 32.765 32.4518 33.6733C23.0152 36.7625 17.32 45.747 13.2703 54.2599C12.7027 55.472 12.0236 56.7411 12.1973 58.122C12.3167 59.7758 14.1116 60.7601 13.7724 62.5128C13.2794 67.334 12.7186 72.1503 12.2054 76.97C11.8634 80.1047 11.5214 83.2395 11.1795 86.3742Z" fill="white"/>
<path fill-rule="evenodd" clip-rule="evenodd" d="M80.2137 63.375C79.6036 63.5959 78.7484 63.8112 78.3121 64.3103C78.2618 63.8452 78.2109 63.3802 78.1599 62.9151C79.4384 62.8848 80.7196 62.8737 81.9988 62.838C81.395 62.9857 80.7982 63.1635 80.2137 63.375M77.4053 92.6302C76.9653 92.6343 76.5239 92.6649 76.0842 92.6821C75.2373 92.7149 74.3905 92.7472 73.5435 92.779C71.8157 92.8438 70.088 92.9062 68.36 92.9663C64.9383 93.0853 61.5161 93.1951 58.0936 93.2959C51.2486 93.4972 44.4003 93.6191 37.5563 93.8493C35.6576 93.9132 33.759 93.9628 31.862 94.0662C30.879 94.1197 29.8914 94.1657 28.9131 94.2796C28.0877 94.3756 27.2742 94.5376 26.4534 94.6583C26.5085 93.5889 26.5601 92.5193 26.6137 91.45C26.6645 90.4383 26.7118 89.4265 26.7589 88.4145C29.9627 88.5821 33.1702 88.6499 36.3782 88.6784C39.7716 88.7088 43.164 88.7929 46.5576 88.7995C53.2758 88.8129 59.9947 88.7283 66.7128 88.6609C68.6128 88.6417 70.5131 88.6227 72.4132 88.6036C73.3632 88.5941 74.3133 88.5845 75.2634 88.5749C75.7377 88.5702 76.2147 88.5803 76.6885 88.5607C77.1942 88.5397 77.5014 88.3959 77.8684 88.0556C78.0642 87.8741 78.0724 87.5045 77.8684 87.3244C77.5739 87.0643 77.3005 86.8647 76.8921 86.8355C76.4912 86.8068 76.0728 86.8462 75.6706 86.8515C74.7884 86.8631 73.9062 86.8748 73.0239 86.8864C71.3273 86.9087 69.6309 86.931 67.9343 86.9533C64.5411 86.9979 61.1479 87.0435 57.7549 87.0952C54.4295 87.146 51.1038 87.1838 47.7791 87.2673C44.3843 87.3528 40.9936 87.5071 37.5997 87.6162C33.9871 87.7322 30.3764 87.8708 26.772 88.1419C26.8586 86.2662 26.9384 84.3902 27.0134 82.5139C34.1702 82.9035 41.332 83.1808 48.5007 83.1929C55.9693 83.2057 63.4375 83.078 70.9034 82.8831C71.9555 82.8556 73.0075 82.8278 74.0593 82.7948C74.6023 82.7777 75.1452 82.762 75.6881 82.7424C76.0873 82.7279 76.4974 82.7108 76.8582 82.52C77.5703 82.1433 77.6932 81.0435 76.8483 80.7426C76.3865 80.5782 75.8966 80.7389 75.7842 81.1553C75.7497 81.1587 75.7168 81.1614 75.6881 81.1625C75.2809 81.1779 74.8736 81.1892 74.4665 81.2021C73.5842 81.2301 72.702 81.2588 71.8197 81.2864C70.1908 81.3374 68.5619 81.3845 66.9328 81.4276C63.6068 81.5157 60.2804 81.5875 56.9537 81.643C50.3673 81.7527 43.7814 81.8541 37.1958 82.0046C33.8044 82.0822 30.4141 82.1828 27.0231 82.2688C27.1041 80.2294 27.1806 78.1899 27.2496 76.1503C27.2576 75.9113 27.2664 75.6721 27.2751 75.433C27.761 75.5398 28.2586 75.599 28.7536 75.669C29.6127 75.7906 30.4743 75.8805 31.337 75.9715C32.9625 76.143 34.5934 76.2482 36.2249 76.3383C39.5512 76.5217 42.8784 76.6511 46.2082 76.7525C52.7949 76.9531 59.3898 76.9968 65.9792 76.9743C69.5573 76.9621 73.1572 77.0092 76.7336 76.8532C76.954 76.9135 77.1812 76.9073 77.4009 76.8355C77.5812 80.024 77.7717 83.2118 77.9589 86.3999C78.0852 88.5509 78.1967 90.7091 78.3518 92.8608C78.0488 92.7116 77.7699 92.627 77.4053 92.6302M15.3982 60.2366C14.7707 59.9296 14.0787 59.6494 13.5247 59.2146C12.9192 58.739 12.7705 58.1808 12.9565 57.4346C12.9704 57.3789 12.9868 57.3234 13.0013 57.2678C17.4635 57.2788 21.9143 57.0824 26.3746 56.9765C30.9061 56.8689 35.436 56.7785 39.9688 56.753C49.0085 56.7021 58.0471 56.906 67.0825 57.1598C70.3365 57.2511 73.5903 57.3412 76.8444 57.43C76.7702 58.2234 76.7988 59.0362 76.7819 59.824C76.7671 60.5159 76.771 61.2089 76.7813 61.9017C75.079 61.8975 73.3771 61.8608 71.6746 61.8416C67.4597 61.7941 63.2472 61.9151 59.0333 62.0115C50.606 62.2043 42.1765 62.356 33.7508 62.6098C31.4623 62.6786 29.1592 62.7149 26.8602 62.8128C26.7812 62.439 26.6934 62.0671 26.5945 61.6976C26.4372 61.1105 26.2597 60.5071 25.7894 60.0993C25.7668 60.0796 25.7356 60.0882 25.7254 60.1162C25.5468 60.6112 25.592 61.1152 25.6443 61.6339C25.6856 62.0437 25.7136 62.4545 25.7343 62.8659C24.3048 62.9411 22.8782 63.0468 21.4591 63.2052C21.0534 63.0047 20.6474 62.8047 20.2408 62.6056C18.6268 61.8154 17.0124 61.0263 15.3982 60.2366M67.203 74.9769C63.8736 75.0038 60.5441 75.0066 57.2148 74.9853C50.6246 74.943 44.0366 74.7809 37.4478 74.65C35.6141 74.6137 33.7828 74.5777 31.9487 74.5776C30.9992 74.5776 30.0465 74.5839 29.098 74.6251C28.5011 74.651 27.8958 74.6548 27.3017 74.7265C27.3733 72.8069 27.448 70.8854 27.4457 68.965C33.7314 69.9169 40.0846 70.1784 46.4325 70.3657C52.8635 70.5555 59.2961 70.6538 65.73 70.6632C67.5584 70.666 69.3869 70.6619 71.2152 70.6511C72.0955 70.6459 72.9758 70.6392 73.8561 70.6309C74.3293 70.6264 74.8053 70.636 75.2781 70.6161C75.778 70.5951 76.08 70.4766 76.4292 70.121C76.6079 69.9391 76.617 69.6252 76.4292 69.444C75.8059 68.8427 75.0726 68.9732 74.2624 68.9833C73.4498 68.9934 72.6373 69.0021 71.8246 69.0094C70.1995 69.0242 68.5742 69.0336 66.9489 69.0378C63.7662 69.0459 60.5834 69.0336 57.4008 69.0011C50.9686 68.9354 44.5378 68.7924 38.1072 68.6417C34.552 68.5585 30.9976 68.5814 27.4452 68.7538C27.4439 68.4349 27.441 68.116 27.4347 67.7971C27.4113 66.5895 27.2937 65.3819 27.1096 64.1877C28.8506 64.1817 30.5914 64.1445 32.3244 64.1222C36.5387 64.0682 40.752 63.9833 44.9657 63.8988C49.1455 63.815 53.3253 63.7312 57.5051 63.6473C61.6822 63.5636 65.8722 63.5576 70.0444 63.3321C72.296 63.2103 74.5484 63.0449 76.8017 62.958C76.8061 63.1648 76.8104 63.3717 76.8148 63.5784C76.8691 66.1158 76.9682 68.6508 77.0962 71.1856C77.1577 72.4035 77.2225 73.6214 77.2892 74.8391C77.257 74.836 77.224 74.834 77.1901 74.8337C73.8634 74.8117 70.5303 74.9499 67.203 74.9769M14.5193 52.9399C14.9005 51.9592 15.3145 50.9852 15.762 50.0243C17.6621 50.5606 19.6889 50.8373 21.6498 51.0214C23.7373 51.2176 25.829 51.3278 27.9251 51.3706C32.0575 51.455 36.1899 51.259 40.318 51.0884C48.8087 50.7378 57.2986 50.4818 65.7973 50.4653C68.1707 50.4606 70.5441 50.4717 72.9173 50.4984C74.1038 50.5118 75.2904 50.5278 76.4768 50.5482C77.0871 50.5587 77.6972 50.5702 78.3074 50.5828C78.5776 50.5883 78.851 50.6083 79.1209 50.6001C79.4819 50.5892 79.7456 50.4807 80.0807 50.35C80.4654 50.2002 80.6924 49.557 80.2123 49.3438C79.7327 49.1308 79.3478 49.006 78.8158 48.9944C78.2396 48.9821 77.6633 48.9706 77.0871 48.96C76.0361 48.9408 74.9852 48.9247 73.9343 48.9116C71.7985 48.885 69.6625 48.8737 67.5265 48.874C63.3223 48.8745 59.1181 48.9243 54.9151 49.0231C46.477 49.2216 38.0579 49.8098 29.6229 50.0621C27.298 50.1318 24.9687 50.1454 22.6437 50.0756C20.3917 50.0081 18.1446 49.8185 15.8953 49.7388C16.6722 48.101 17.5513 46.506 18.5432 44.9895C22.2927 45.1212 26.0342 45.0238 29.7845 44.9096C31.7525 44.8497 33.7204 44.7889 35.6882 44.7214C36.6721 44.6877 37.656 44.654 38.6399 44.6203C39.115 44.6039 39.59 44.5877 40.065 44.5715C40.5767 44.5539 41.1152 44.587 41.6122 44.4525C41.7021 44.4281 41.7736 44.376 41.8274 44.3096C43.1502 44.9901 44.5493 45.5269 45.988 45.9247C49.111 46.7882 52.4699 47.1122 55.6998 46.8464C58.2918 46.6332 60.875 45.9916 63.154 44.7354C68.3007 45.2092 73.5194 44.9865 78.677 44.9528C79.1698 44.9497 79.3748 44.4982 79.2924 44.1259C80.9476 47.693 82.0441 51.5602 83.0704 55.3217C83.7081 57.6593 84.2753 60.0116 84.8153 62.3724C84.7928 62.3743 84.7705 62.3763 84.7481 62.3785C84.8107 62.1199 84.67 61.815 84.3159 61.8069C82.2285 61.759 80.1344 61.8789 78.0463 61.8982C77.9875 61.3759 77.9288 60.8535 77.8669 60.3314C77.7824 59.6201 77.6817 58.9106 77.5956 58.1995C77.5644 57.9416 77.5354 57.6926 77.5 57.4477C79.1533 57.4926 80.8065 57.5381 82.4597 57.5817C83.5327 57.6101 83.5308 55.9484 82.4597 55.9157C73.3746 55.6375 64.2891 55.3565 55.2009 55.2023C46.1071 55.0478 36.9821 54.9527 27.8953 55.4189C22.9435 55.6728 18.0039 56.0124 13.1137 56.85C13.4935 55.5246 14.0234 54.2159 14.5193 52.9399M22.2527 40.3139C22.4172 40.4372 22.4699 40.5151 22.7159 40.5583C22.9825 40.6049 23.2568 40.6199 23.526 40.6462C24.102 40.7026 24.6794 40.7236 25.2574 40.751C26.4115 40.8058 27.5654 40.8638 28.7203 40.899C31.0129 40.9685 33.3545 41.0671 35.646 40.9652C36.2066 40.9402 36.4616 40.478 36.4107 40.0568C36.8405 40.589 37.3104 41.0886 37.8108 41.5441C38.6154 42.2763 39.4839 42.9253 40.3995 43.4981C39.8055 43.5199 39.2007 43.5943 38.6401 43.6184C37.6901 43.6591 36.7401 43.6998 35.79 43.7407C33.7881 43.8267 31.7863 43.919 29.7846 44.0125C26.0801 44.1856 22.3881 44.4011 18.6976 44.7545C19.7516 43.1706 20.9323 41.6765 22.2527 40.3139M82.5478 48.0078C80.9826 43.7114 78.9646 39.2484 75.333 36.2974C73.4664 34.7806 71.3868 33.7313 69.0317 33.2342C68.9593 33.2189 68.9305 33.3218 69.0011 33.345C73.0739 34.6812 76.0879 38.2168 78.1267 41.8401C78.4961 42.4967 78.8384 43.1691 79.1622 43.8515C79.0568 43.723 78.8955 43.6375 78.6774 43.6412C73.8613 43.7221 68.9885 43.6405 64.1833 44.111C64.306 44.0293 64.4286 43.9477 64.5489 43.8618C65.8616 42.9263 67.0428 41.7816 68.0191 40.4852C68.6072 40.6343 69.2263 40.6707 69.8263 40.7277C70.6271 40.8038 71.4335 40.8387 72.2368 40.8819C73.039 40.9249 73.8441 40.9289 74.6472 40.9483C75.1991 40.9617 76.2779 41.0533 76.2785 40.2091C76.2792 39.364 75.1992 39.4535 74.6472 39.4645C73.844 39.4803 73.0393 39.4827 72.2368 39.5204C71.4676 39.5563 70.6937 39.5854 69.9267 39.6542C69.4589 39.6962 68.9775 39.7238 68.5071 39.7981C69.2726 38.656 69.882 37.412 70.2888 36.0998C70.3297 35.9677 70.3432 35.8444 70.3365 35.7301C70.5091 35.548 70.6192 35.2985 70.6192 35.0699C70.6192 34.5264 70.1956 34.2079 69.7006 34.1512C67.7413 33.9273 65.5827 33.6081 64.0038 32.3199C63.2912 31.7386 62.718 31.0514 62.1786 30.3118C61.5724 29.4806 61.3452 28.4333 61.3428 27.4158C61.3427 27.3587 61.2481 27.3415 61.2394 27.4018C60.9427 29.4648 61.3706 31.8197 62.8512 33.3653C64.3049 34.8829 66.2796 35.4514 68.2835 35.7834C67.4573 38.1433 66.0936 40.2163 64.1789 41.8464C62.0454 43.6628 59.3447 44.6342 56.5912 45.0009C53.6206 45.3964 50.5072 45.2041 47.5859 44.5585C44.7718 43.9363 42.019 42.8237 39.7286 41.0481C38.5731 40.1522 37.5101 39.0962 36.5839 37.966C35.8195 37.0333 35.2333 35.9931 34.5771 34.9938C37.0253 35.665 39.9853 34.7481 42.0359 33.4529C43.2438 32.6902 44.302 31.7379 45.1714 30.6051C45.6001 30.0463 45.9816 29.4565 46.2961 28.8258C46.4597 28.4978 46.6068 28.1603 46.7421 27.8197C46.8258 27.6094 46.9078 27.3932 46.9078 27.1619C46.9073 26.9916 46.8644 26.8329 46.779 26.6858C46.6035 26.4996 46.5686 26.4457 46.6742 26.5237C46.5019 26.1709 46.0038 26.0814 45.6852 26.2644C45.5664 26.3327 45.2871 26.465 45.1497 26.6858C45.0569 26.8351 45.0069 27.0136 44.9475 27.1774C44.8536 27.436 44.7591 27.6917 44.6412 27.9407C44.3675 28.5191 44.0392 29.0713 43.6648 29.5902C42.9804 30.5388 42.1008 31.3966 41.1426 32.066C40.1367 32.7688 39.0526 33.3433 37.8768 33.7021C36.6349 34.0809 35.4056 34.194 34.1243 34.3328C34.1106 34.3138 34.0973 34.2947 34.0836 34.2758C34.0589 34.2417 34.0055 34.2528 34.0034 34.2976C34.0023 34.319 34.0028 34.3404 34.0022 34.3618C33.8195 34.4475 33.8044 34.705 34.008 34.8039C34.0834 35.9891 34.5949 37.1563 35.1522 38.182C35.3844 38.6092 35.6466 39.0232 35.9308 39.423C35.8467 39.391 35.7522 39.3706 35.6462 39.3665C33.3539 39.2787 31.0129 39.3919 28.7205 39.4757C27.5995 39.5168 26.4796 39.5796 25.3594 39.6396C24.7821 39.6705 24.2033 39.6902 23.628 39.7499C23.3403 39.7799 23.0509 39.8034 22.7647 39.8465C22.744 39.8496 22.7247 39.8529 22.7065 39.8562C23.4144 39.1589 24.1607 38.4984 24.9486 37.8822C27.5331 35.8604 30.5014 34.2131 33.6685 33.3172C33.6985 33.3088 33.6941 33.2574 33.6609 33.2609C27.3617 33.905 22.1145 37.8745 18.4439 42.8586C16.4073 45.6242 14.8625 48.6858 13.5333 51.8427C12.8633 53.434 12.2294 55.0536 11.6985 56.6972C11.4287 57.5324 11.3071 58.4184 11.6935 59.2379C11.9899 59.8666 12.5368 60.3339 13.1101 60.705C13.1482 60.7298 13.1874 60.7527 13.2259 60.7769C12.6399 62.8185 12.2473 64.9134 11.8706 67.002C11.4615 69.2709 11.1045 71.5493 10.7979 73.8342C10.1851 78.4016 9.71575 82.9785 9.51078 87.5836C9.45409 88.8573 9.4162 90.1319 9.39966 91.4068C9.39139 92.0445 9.39506 92.6821 9.40374 93.3198C9.41365 94.0334 9.31703 94.8386 9.68031 95.4755C10.1657 96.3265 11.1085 96.0336 11.5232 95.4516C11.5292 95.4595 11.5354 95.4676 11.5415 95.4755C11.5791 95.4016 11.6106 95.3278 11.6374 95.254C11.6821 95.1559 11.7112 95.0533 11.7218 94.9487C11.7999 94.5535 11.7705 94.1521 11.7674 93.7227C11.7628 93.1185 11.7662 92.5143 11.768 91.91C11.7713 90.7694 11.7843 89.6291 11.8168 88.4886C11.8818 86.2084 12.0089 83.9302 12.1826 81.6556C12.5278 77.1374 13.037 72.6398 13.4728 68.1304C13.6947 65.8344 13.9622 63.5325 14.0084 61.2243C14.5463 61.5075 15.1014 61.7641 15.6383 62.0374C16.6345 62.5445 17.6306 63.0516 18.6267 63.5587C19.5927 64.0504 20.5602 64.5391 21.5281 65.0275C22.5041 65.5198 23.4735 66.1708 24.5715 66.2919C25.1584 66.3565 25.3709 65.5658 25.025 65.1967C24.5734 64.7145 23.9737 64.4148 23.3708 64.1342C24.1718 64.1635 24.9739 64.1792 25.7763 64.1853C25.7874 65.195 25.7517 66.2068 25.7011 67.2142C25.5765 69.6852 25.4032 72.1517 25.2392 74.6203C24.8983 79.7517 24.5683 84.8858 24.3108 90.022C24.2478 91.2801 24.1847 92.538 24.1216 93.7959C24.091 94.4075 24.0484 95.0198 24.031 95.6319C24.0116 96.3186 24.0285 97.1794 24.664 97.6034C25.113 97.9028 25.5962 97.7617 25.9332 97.3499C26.3839 96.7994 26.3832 96.0016 26.4194 95.3259C26.4278 95.1698 26.4353 95.0136 26.4433 94.8574C27.1317 94.9466 27.8151 95.0699 28.5064 95.1373C29.3508 95.2196 30.2005 95.2681 31.0486 95.2899C32.778 95.3344 34.5046 95.3503 36.2345 95.3503C39.6579 95.3504 43.081 95.2919 46.504 95.2367C53.35 95.1261 60.1952 94.9344 67.0389 94.722C68.9362 94.6631 70.8333 94.6013 72.7305 94.5369C73.7129 94.5034 74.6953 94.4692 75.6778 94.4343C76.6077 94.4012 77.6236 94.5215 78.4421 94.0388C78.4658 94.3326 78.4899 94.6265 78.5157 94.9201C78.5648 95.4764 78.9559 95.9542 79.5498 95.9542C80.1078 95.9542 80.5874 95.481 80.5839 94.9201C80.3754 89.8459 79.9243 84.7713 79.5669 79.7057C79.2388 75.0529 78.9312 70.3936 78.4619 65.7518C78.5951 65.8379 78.7578 65.8912 78.9497 65.892C79.5628 65.8946 80.1747 65.5144 80.7483 65.3122C81.3271 65.1084 81.9153 64.9319 82.5116 64.7872C82.8645 64.7015 83.2189 64.6297 83.5745 64.5685C83.5315 65.2948 83.5425 66.0275 83.529 66.7511C83.5083 67.8634 83.4738 68.9753 83.4467 70.0874C83.3935 72.2786 83.3746 74.4699 83.3327 76.6612C83.2483 81.0788 83.1095 85.494 82.8733 89.9061C82.8085 91.1185 82.7355 92.3305 82.6546 93.5419C82.6119 94.1812 82.5669 94.8206 82.5196 95.4595C82.4734 96.0876 82.3651 96.755 82.6016 97.3571C82.6091 97.3527 82.6166 97.3485 82.624 97.3441C82.789 97.8625 83.514 98.1112 83.8565 97.5212C84.3904 96.6014 84.2673 95.2832 84.3286 94.2484C84.3945 93.1382 84.4535 92.0274 84.5058 90.9163C84.6104 88.6939 84.6829 86.4708 84.725 84.2462C84.8091 79.7962 84.7948 75.3398 84.5227 70.8964C84.4483 69.6815 84.3441 68.4688 84.2372 67.2565C84.157 66.3477 84.1128 65.4142 83.971 64.5049C84.6643 64.4027 85.363 64.3433 86.0684 64.3259C86.7511 64.3088 87.1914 63.6931 87.0467 63.0414C85.9133 57.9366 84.3367 52.9183 82.5478 48.0078" fill="black"/>
</svg>
