<svg width="100" height="120" viewBox="0 0 100 120" fill="none" xmlns="http://www.w3.org/2000/svg">
<rect x="1" y="1" width="98" height="118" rx="15" fill="#00C6AE" stroke="#18191F" stroke-width="2"/>
<path fill-rule="evenodd" clip-rule="evenodd" d="M87.3392 92.6182C87.1763 89.5917 86.9762 86.5675 86.7366 83.5459C86.2591 77.5274 85.634 71.5041 84.5937 65.5547C83.5673 59.6846 82.131 53.9766 80.0616 48.383C79.1016 45.7879 78.0619 43.574 76.5536 41.2411C75.1275 39.0354 73.3076 37.5408 71.0403 36.2094C68.9975 35.0097 66.6243 32.9283 64.665 31.5849C63.847 31.0241 62.1641 31.0615 61.6032 30.2319C60.8687 29.1455 61.3449 27.4827 60.6045 26.3999C59.7581 25.1619 58.5724 24.2001 57.2353 23.5014C55.7759 22.5132 54.0571 22.0659 52.3336 22.1275C49.7922 21.9734 47.2326 22.7824 45.601 24.851C44.7868 25.8833 44.3114 27.0744 44.2456 28.3932C44.2284 28.7363 44.3386 29.0067 44.52 29.202C44.4125 29.3458 44.3054 29.4897 44.1991 29.6344C43.8653 29.1401 43.0853 28.8774 42.5654 29.2505C40.8647 30.4713 39.0267 31.4419 37.0867 32.1534C36.6329 31.9387 36.0834 32.0381 35.6946 32.3888C35.5368 32.5309 35.3694 32.6526 35.1944 32.7558C34.4751 32.9508 33.7447 33.1137 33.0034 33.2396C32.7714 33.2789 32.5748 33.4107 32.4257 33.5883C32.2048 33.3818 31.9011 33.2826 31.5621 33.4119C27.6469 34.9043 23.9495 37.2228 21.1392 40.3639C18.0257 43.8438 16.3903 48.1726 15.1454 52.6076C13.7976 57.4084 12.9364 62.3288 12.213 67.2574C11.48 72.2513 10.758 77.2647 10.2537 82.2875C9.96989 85.114 9.86163 87.9663 9.99011 90.8053C10.0541 92.2241 10.1838 93.6384 10.3902 95.0437C10.4383 95.3725 10.4886 95.7512 10.5697 96.1292C10.3233 96.0813 10.0297 96.2896 10.0797 96.6231C10.4275 98.9456 13.2355 99.6221 15.1721 99.8895C18.3399 100.327 21.5241 100.569 24.7224 100.588C27.8652 100.606 31.0076 100.405 34.1439 100.224C37.3594 100.039 40.5748 99.8528 43.7902 99.6643C56.6729 98.9091 69.5562 98.162 82.439 97.4064C83.616 97.3374 84.9599 97.2439 85.968 96.5613C87.35 95.6253 87.421 94.1381 87.3392 92.6182V92.6182Z" fill="white"/>
<path fill-rule="evenodd" clip-rule="evenodd" d="M24.5366 66.6408C24.4919 66.557 24.5957 66.4818 24.6645 66.5421C26.2284 67.9145 27.0472 70.1186 27.2189 72.1559C27.4008 74.3163 27.1429 76.5531 27.0444 78.7125C26.9347 81.1179 26.8361 83.5242 26.7022 85.9285C26.5663 88.3678 26.4198 90.8062 26.2943 93.246L26.0119 98.7343V98.7343C25.9819 99.3192 26.0469 100.039 25.8225 100.584C25.4746 101.431 24.4413 101.3 24.2242 100.592L24.2174 100.569L24.1976 100.584C24.006 99.947 24.1494 99.19 24.1818 98.531L24.4777 92.5346V92.5346C24.6867 88.2962 24.8732 84.0577 25.0977 79.8201L25.174 78.4076C25.279 76.5061 25.3595 74.6094 25.4241 72.7084L25.4451 72.0746C25.5065 70.166 25.4578 68.3641 24.5366 66.6408ZM62.4486 31.4553C63.3199 31.3725 63.9778 31.6615 64.7688 31.9658C65.1134 32.0983 65.4397 32.2514 65.7703 32.4099C66.1842 32.6083 66.4504 32.9592 66.7052 33.3302L66.8415 33.5301C67.9027 35.0849 68.6166 36.8787 69.4221 38.5715C70.3644 40.5518 71.316 42.5277 72.2382 44.5173L72.6933 45.4975C72.9208 45.9877 73.1476 46.4781 73.371 46.9701L73.7571 47.8264C74.145 48.6948 74.4927 49.6134 73.9399 50.5093C73.4259 51.3425 72.5146 51.9871 71.793 52.6312C71.191 53.1686 70.589 53.7059 69.9867 54.2431C71.2316 55.4897 72.0673 57.0594 72.5586 58.7427C73.2565 58.4519 74.1084 58.3961 74.8301 58.2703C75.8402 58.0942 75.964 59.6235 75.0106 59.6049C74.3065 59.5911 73.4805 59.663 72.7582 59.5147C72.8838 60.0678 72.9749 60.6293 73.0328 61.1924C73.3363 64.1435 72.6731 67.1117 71.9813 69.967L71.9244 70.2014C71.1733 73.2919 70.461 76.3905 69.8238 79.5066C69.1852 82.6293 68.6107 85.7652 68.1008 88.9116C67.5817 92.1141 67.2145 95.3343 66.8197 98.5537C66.76 99.041 66.4534 99.4586 65.915 99.4586C65.4664 99.4586 64.9537 99.04 65.0101 98.5537C65.4174 95.0478 65.995 91.5602 66.5689 88.0783C67.5574 82.0819 68.8014 76.1377 70.2326 70.2325L70.4826 69.2041C71.1266 66.537 71.7107 63.7889 71.3877 61.0378C71.1247 58.7976 70.188 56.409 68.3368 55.0176L68.2804 54.9758C67.848 54.6587 67.6816 54.0522 68.1075 53.6346C68.3785 53.3688 68.6499 53.1034 68.9214 52.8381L70.551 51.2471L70.8795 50.9258C71.1535 50.6583 71.4287 50.3924 71.7122 50.1348C71.8838 49.9789 72.349 49.6817 72.383 49.4254C72.4051 49.258 72.207 48.9642 72.1267 48.8101L71.7589 48.0677V48.0677C71.55 47.6443 71.3476 47.2179 71.1437 46.7921C70.721 45.9101 70.2923 45.0308 69.8789 44.1444L67.3949 38.8222V38.8222C66.6942 37.3206 66.07 35.7355 65.1539 34.3473L64.9732 34.0768C64.8225 33.8489 64.6893 33.6296 64.594 33.3509C64.5024 33.0828 64.3874 32.7885 64.2181 32.5597C63.8213 32.0228 63.0629 31.7183 62.4283 31.6058C62.3366 31.5895 62.3699 31.4628 62.4486 31.4553ZM43.3447 30.0575C43.3998 30.0575 43.4082 30.1362 43.3574 30.1516C42.5918 30.3818 41.8602 30.7532 41.2634 31.2894C40.9778 31.5459 40.6903 31.8371 40.514 32.1825C40.4466 32.3147 40.4092 32.4543 40.3819 32.5991L40.3731 32.6475C40.3276 32.9091 40.2625 33.0546 40.1296 33.264L40.1068 33.2995C39.3483 34.4709 38.8167 35.7719 38.3307 37.0746L37.2722 39.915V39.915L36.2144 42.7557C35.8736 43.671 35.5326 44.5864 35.1917 45.5017C35.0034 46.007 34.8097 46.5102 34.6162 47.0135C34.5324 47.2316 34.4424 47.448 34.3658 47.6687C34.3553 47.6988 34.3218 47.8805 34.2966 47.9247L34.3052 47.9397V47.9397C34.5186 48.2986 35.0875 48.5984 35.4101 48.8591L36.5206 49.757V49.757C37.3124 50.3972 38.1246 51.0195 38.8926 51.6884C39.3751 52.1083 39.0749 52.8604 38.5369 53.0358C37.6353 53.3295 36.752 53.681 35.8638 54.0134C35.5051 54.1476 35.1315 54.2644 34.7769 54.4124L34.5611 54.5057C34.4768 54.5436 34.5173 54.5432 34.5207 54.6988C34.5241 54.862 34.5703 55.032 34.5969 55.1924C34.896 57.0011 35.2131 58.8068 35.5478 60.6093C36.7317 66.9834 38.1461 73.3109 39.7593 79.5898C40.5741 82.7606 41.4479 85.9159 42.2806 89.082C43.1112 92.2397 44.2041 95.3521 45.2477 98.4447C45.5421 99.3169 44.1592 99.6924 43.872 98.824C42.6693 95.1867 41.5691 91.5176 40.4328 87.8597C38.4141 81.3601 36.8233 74.7194 35.4164 68.0626C34.719 64.7634 34.0812 61.4515 33.5036 58.1291C33.3942 57.5002 33.2869 56.8709 33.1819 56.2411L33.0288 55.3149C32.9238 54.6547 32.8641 53.967 33.3772 53.4445C33.8783 52.9345 34.7386 52.7538 35.3979 52.5147L35.4458 52.497C35.8654 52.3405 36.288 52.1896 36.709 52.0341C36.0888 51.5459 35.4763 51.0469 34.8577 50.559C34.3587 50.1654 33.8518 49.7798 33.36 49.3772C32.9544 49.045 32.6237 48.6186 32.5814 48.0786C32.5383 47.5266 32.7749 47.0144 32.9656 46.5081L32.9839 46.4592C33.1712 45.9537 33.3591 45.4486 33.5517 44.9451L34.7436 41.8282V41.8282C35.501 39.8475 36.2264 37.8509 37.023 35.8857C37.3382 35.108 37.6816 34.3425 38.0875 33.6074C38.2832 33.2529 38.4931 32.9059 38.7211 32.5713C38.9767 32.1961 39.2086 32.0132 39.6046 31.8062C40.2377 31.4752 40.7345 30.9202 41.3703 30.579C41.9943 30.244 42.6363 30.0653 43.3447 30.0575ZM45.4004 26.5238C45.4246 26.4822 45.4887 26.5008 45.4895 26.548C45.5061 27.5324 45.2722 28.5382 45.1283 29.5115C44.9838 30.4883 44.9374 31.5193 44.7284 32.4857C44.724 32.5307 44.7153 32.5751 44.703 32.6186L44.693 32.6518V32.6518C44.6048 32.9225 44.3753 33.152 44.0937 33.2237C44.1823 33.7143 44.2657 34.2058 44.3359 34.6999C44.4564 35.5492 44.5664 36.3997 44.6745 37.2505L44.804 38.2716C44.9263 39.2339 45.0452 40.1966 45.1627 41.1594C45.4617 41.2844 45.7667 41.3875 46.0791 41.4769C46.7986 41.6828 47.5356 41.7665 48.2781 41.8393C49.7902 41.9877 51.3139 42.0564 52.8313 42.1406L53.1564 42.1589C54.8624 42.2567 56.5777 42.274 58.2794 42.099C59.1232 42.0121 59.9603 41.8665 60.7832 41.6601C61.2013 41.5552 61.6077 41.3985 62.025 41.296C62.1634 41.262 62.2871 41.1836 62.4258 41.0998C62.4873 41.022 62.5738 40.9631 62.6863 40.9403L62.7168 40.935V40.935L62.747 40.9306L62.7574 40.9259L62.7566 40.9292C62.8419 40.9176 62.923 40.9177 62.9995 40.9281C63.03 40.1775 63.063 39.4268 63.1043 38.6764C63.2153 36.6607 63.5218 34.558 63.1127 32.5599C63.099 32.4927 63.1904 32.4691 63.2142 32.532C64.0171 34.6472 63.9269 36.9601 63.9673 39.1864C64.0068 41.3635 63.983 43.5422 63.9721 45.7198C64.1281 45.7862 64.2672 45.8762 64.3774 46.0024C64.5975 46.2547 64.6608 46.6932 64.3774 46.9367C64.2518 47.0446 64.1128 47.1196 63.9653 47.1716C63.9574 49.0634 63.944 50.9553 63.925 52.8472C64.2848 53.1251 64.3184 53.785 63.9115 54.0592C63.8437 60.1858 63.7324 66.3126 63.6401 72.4383L63.4467 85.2903V85.2903C63.4209 87.0026 63.3782 88.7148 63.3629 90.4269L63.3751 90.4317V90.4317L63.4179 90.4516C63.49 90.4854 63.5972 90.5401 63.6195 90.5962C63.6253 90.6109 63.6268 90.6209 63.6261 90.6284C63.7442 90.645 63.8611 90.7007 63.9623 90.7967C64.2121 91.0341 64.1614 91.3919 63.9623 91.6336L63.9091 91.6982V91.6982C63.785 91.8489 63.5494 91.9069 63.357 91.8763C63.3589 92.9449 63.3658 94.0137 63.3624 95.0822C63.3613 95.4086 63.3564 95.735 63.3507 96.0614L63.3373 96.8441C63.3283 97.2907 63.2888 97.8582 62.8313 98.0588C62.3153 98.2853 61.8525 98.0998 61.6435 97.5757C61.587 97.4337 61.5991 97.3014 61.6197 97.1611C61.6133 96.9502 61.5803 96.7058 61.5844 96.5101L61.6015 95.6942V95.6942C61.6041 95.5684 61.6092 95.4427 61.6128 95.3168L61.5979 95.3184V95.3184C59.7642 95.4074 57.9176 95.3639 56.0809 95.3629L55.2641 95.3641C54.5825 95.3646 53.8995 95.361 53.2189 95.3349L52.9638 95.3241C52.4542 95.3002 51.9184 95.2925 51.3901 95.247C51.4574 95.7892 51.5204 96.3318 51.5764 96.8749C51.6295 97.39 51.0979 97.8276 50.6237 97.8276C50.0606 97.8276 49.7385 97.385 49.6711 96.8749C49.3528 94.4692 49.2226 92.0409 48.9186 89.6336C48.6462 87.4774 48.4101 85.3163 48.1701 83.156L48.0899 82.4359C47.2115 74.5743 46.3588 66.7097 45.5431 58.8413L45.1633 55.163C44.7797 51.4557 44.3939 47.7481 44.0685 44.0354C43.8824 41.9127 43.7109 39.7896 43.5496 37.6649C43.4312 36.1039 43.3568 34.5516 43.3084 32.9937C43.1175 32.7973 43.0219 32.5105 43.1064 32.2143C43.1558 32.0415 43.2133 31.8696 43.274 31.6981C43.2702 31.5294 43.2662 31.3609 43.263 31.1921C43.2599 31.0324 43.4221 30.9502 43.5519 30.9766C43.7878 30.4054 44.0477 29.8391 44.2645 29.2734C44.6154 28.3577 44.9046 27.371 45.4004 26.5238ZM25.8016 36.4206C29.4701 34.1216 33.8368 32.4673 38.2103 32.6454C38.3098 32.6495 38.3378 32.8011 38.2345 32.8241C35.9016 33.3449 33.5431 33.9794 31.3346 34.9027C29.1195 35.8289 27.0134 37.0759 25.1376 38.5744C21.6766 41.3393 18.9864 44.9357 17.2151 48.9895C16.1775 51.3643 15.4503 53.8714 14.8152 56.3794C14.1432 59.0337 13.5893 61.7166 13.1288 64.4156C12.2193 69.7469 11.6897 75.1369 11.4079 80.5363C11.1213 86.0287 11.2394 91.525 11.035 97.0182C10.9996 97.9699 9.63924 97.9513 9.57009 97.0182C9.10683 90.7728 9.36348 84.4277 9.79192 78.1867C10.1772 72.5762 10.8499 66.9775 11.9332 61.4573L12.0276 60.9789C13.0403 55.8717 14.2618 50.6408 16.7101 46.0156C18.8003 42.0669 22.0272 38.7862 25.8016 36.4206ZM76.7431 60.8295C76.7622 60.7747 76.8345 60.7754 76.8538 60.8295C77.272 62.0001 77.287 63.321 77.3982 64.555L77.4069 64.6498C77.5135 65.7753 77.5938 66.9022 77.6684 68.03L77.6961 68.453C77.9957 73.054 78.3701 77.6499 78.9344 82.2267C79.4966 86.7862 80.2568 91.3139 81.0788 95.8327C81.1704 96.3358 80.9476 96.8483 80.42 96.9932C79.9549 97.121 79.3578 96.8345 79.2595 96.3344C78.7491 93.7407 78.3364 91.1435 77.9682 88.5273C77.3201 83.9205 76.8364 79.2924 76.5254 74.6506C76.3694 72.3193 76.2733 69.9888 76.2351 67.6525C76.2174 66.5685 76.2456 65.4819 76.3033 64.399L76.3172 64.1492C76.3809 63.0424 76.3744 61.885 76.7431 60.8295ZM37.104 90.1351C37.153 90.1085 37.2137 90.163 37.1826 90.2137C36.4723 91.3681 35.5114 92.3634 34.5826 93.3445C33.6116 94.37 32.6647 95.4264 31.6741 96.4318C30.9584 97.1581 29.807 95.9865 30.5624 95.3201C31.6245 94.3834 32.7345 93.4932 33.8155 92.5773L34.2882 92.1766C35.1745 91.4279 36.0871 90.6858 37.104 90.1351ZM70.8417 89.5569C70.7887 89.4559 70.9098 89.374 70.9921 89.4409C71.5651 89.9068 72.0786 90.4626 72.6318 90.9543C73.1797 91.4413 73.7481 91.8956 74.332 92.3386C74.9183 92.7835 75.5174 93.2106 76.1326 93.6148C76.643 93.95 77.169 94.2185 77.7034 94.4968C77.9509 94.5286 78.1801 94.6501 78.3635 94.8804C78.6535 95.2446 78.6844 95.9313 78.2821 96.2475L78.2099 96.3042V96.3042C77.7404 96.6732 77.1831 96.7181 76.7209 96.3042C76.2049 95.8421 75.7171 95.3336 75.2216 94.8452L75.0726 94.6994C74.5401 94.1818 74.0206 93.6474 73.5308 93.0891L73.0873 92.5847C72.2647 91.6466 71.4085 90.6356 70.8417 89.5569ZM68.2026 35.4753C68.1074 35.4122 68.1661 35.2423 68.2837 35.2828L68.4995 35.3574C69.4011 35.6707 70.3291 36.0181 71.1477 36.5005C72.0273 37.0188 72.8396 37.6363 73.6156 38.2987C75.2218 39.6698 76.5883 41.3559 77.7496 43.1133C80.0798 46.6397 81.5209 50.6784 82.6844 54.7194C83.925 59.0281 84.8801 63.4295 85.66 67.8434C86.4524 72.3291 87.0637 76.8552 87.4655 81.3928C87.6635 83.628 87.7963 85.8646 87.8631 88.1076C87.8975 89.2614 87.8964 90.4145 87.8868 91.5688C87.8844 91.8656 87.8863 92.1623 87.8897 92.459L87.901 93.3492C87.907 93.9121 87.9744 94.5035 87.8407 95.0534C87.6254 95.9386 86.1618 95.7734 86.2099 94.8687C86.1658 94.5678 86.1641 94.2567 86.1755 93.945C86.1686 93.9047 86.161 93.8639 86.1526 93.8221C86.1286 93.7025 86.1491 93.5918 86.196 93.4966C86.2036 93.3471 86.2104 93.1985 86.2129 93.0524C86.2225 92.4581 86.2219 91.8662 86.2054 91.2721C86.1708 90.0194 86.121 88.7666 86.0706 87.5145C85.97 85.0123 85.8301 82.509 85.6273 80.0129C84.9216 71.3246 83.4314 62.5868 80.9282 54.2282C79.7657 50.3466 78.1629 46.5362 75.8645 43.182C74.8442 41.6929 73.6931 40.3175 72.417 39.041C71.1328 37.7565 69.7177 36.4787 68.2026 35.4753ZM50.8821 91.4838L51.0555 92.7385C51.1422 93.3659 51.2281 93.9935 51.3096 94.6216C51.8633 94.5458 52.4297 94.514 52.9632 94.4667C53.8972 94.384 54.8376 94.344 55.7744 94.3053C57.7115 94.2254 59.6583 94.0868 61.5973 94.0965C61.6173 94.0966 61.636 94.098 61.6548 94.0995L61.751 91.6239V91.6239L60.3886 91.6218V91.6218C59.2343 91.62 58.0803 91.6101 56.926 91.6002C55.8864 91.5913 54.8464 91.5899 53.807 91.5682L53.3616 91.5577C52.5734 91.5364 51.703 91.5802 50.8821 91.4838ZM61.8654 87.8904C61.8098 87.8969 61.7533 87.9024 61.6931 87.905C61.4233 87.9163 61.1513 87.9085 60.8813 87.9107C60.3063 87.9157 59.7314 87.9196 59.1563 87.9195C58.0063 87.9194 56.8564 87.9263 55.7066 87.9402C54.5229 87.9545 53.34 87.9751 52.1562 87.9774C51.5827 87.9784 51.0109 87.9632 50.4376 87.9472C50.5303 88.762 50.6272 89.5762 50.7343 90.3884C51.6246 90.2681 52.5823 90.3288 53.4524 90.3205L53.5654 90.319C54.7531 90.2986 55.9418 90.3137 57.1298 90.3151C58.3519 90.3165 59.5739 90.3205 60.7961 90.3305L61.8001 90.3388V90.3388L61.8021 90.2882V90.2882C61.8315 89.4898 61.8505 88.6903 61.8654 87.8904ZM49.9964 83.9926C50.1077 84.9544 50.2122 85.9178 50.3187 86.8809C50.3895 86.8699 50.4612 86.8606 50.5342 86.8529C51.1086 86.7928 51.6817 86.7414 52.2582 86.7056C53.4072 86.6344 54.5562 86.5968 55.7071 86.566C56.8906 86.5342 58.0743 86.5099 59.2582 86.4932C59.8334 86.4851 60.4081 86.4859 60.9833 86.4899C61.2531 86.4918 61.5257 86.4833 61.795 86.5014C61.8271 86.5035 61.8578 86.5069 61.8883 86.5103L61.9085 85.0644C61.912 84.8234 61.9156 84.5825 61.9195 84.3416C61.0305 84.3964 60.1267 84.3755 59.2384 84.3757L59.0337 84.3762C57.9175 84.3813 56.8009 84.366 55.6849 84.3428C54.5336 84.3188 53.3847 84.2812 52.2354 84.2075C51.7697 84.1777 51.3075 84.1381 50.8444 84.087L50.6128 84.0605C50.4113 84.0367 50.2038 84.0175 49.9964 83.9926ZM62.0112 79.9121C59.8702 80.082 57.7407 80.153 55.594 80.1741L55.2719 80.1769C53.3749 80.1913 51.4623 80.2695 49.5608 80.2193C49.6745 81.2049 49.7879 82.1906 49.9021 83.1761C50.1744 83.1634 50.448 83.1633 50.7142 83.1537C51.2556 83.1342 51.7951 83.1293 52.3368 83.1281C53.4528 83.1255 54.5688 83.1352 55.6849 83.133C56.8351 83.1305 57.9851 83.1111 59.1351 83.0894C60.0674 83.072 61.0097 83.0018 61.9446 83.0044L62.0112 79.9121V79.9121ZM62.1014 75.7068C61.8533 75.7892 61.5604 75.7945 61.2392 75.8092L60.4104 75.8505C60.0263 75.8694 59.6421 75.8871 59.2577 75.9011C57.9769 75.948 56.6961 75.9918 55.4151 76.0325C54.1024 76.0742 52.7834 76.0984 51.4705 76.0571C50.8273 76.0367 50.1896 76.003 49.5485 75.9494C49.39 75.9361 49.2284 75.9274 49.0665 75.916C49.2157 77.222 49.3656 78.5277 49.5159 79.8334C51.4083 79.6012 53.3153 79.4566 55.2053 79.2164L56.9143 78.9981C58.6225 78.7802 60.3292 78.5663 62.0437 78.3859L62.1014 75.7068V75.7068ZM62.1924 71.4554C61.8284 71.5452 61.4135 71.5407 61.064 71.5628L60.9992 71.5673C60.3369 71.6175 59.6728 71.6427 59.009 71.659C57.7078 71.6911 56.4059 71.7071 55.1043 71.7151L54.3217 71.7199C53.2783 71.726 52.2355 71.7287 51.1918 71.7043C50.5223 71.6888 49.8544 71.656 49.1854 71.6225C48.9851 71.6124 48.7802 71.6058 48.5747 71.5955C48.7145 72.8319 48.8558 74.068 48.9967 75.3042C49.2165 75.2692 49.4373 75.2427 49.6478 75.2071C50.1869 75.116 50.7251 75.0433 51.2681 74.9783C52.4442 74.8373 53.6265 74.7359 54.8082 74.6503C56.0213 74.5624 57.2354 74.488 58.4487 74.403L59.308 74.3424C59.5944 74.3225 59.8809 74.3033 60.1675 74.2857C60.6569 74.2557 61.2257 74.2896 61.7112 74.1831C61.8426 74.1283 61.9886 74.1158 62.1347 74.147L62.1924 71.4554V71.4554ZM62.303 66.4787C62.1771 66.6387 61.989 66.7225 61.7647 66.7515C60.5964 66.9031 59.3981 66.9274 58.2199 66.9988L58.0122 67.012C56.7957 67.0921 55.5785 67.1551 54.3611 67.2197C53.1105 67.2861 51.8602 67.3402 50.6086 67.3838C50.0772 67.4023 49.5432 67.4045 49.011 67.3977L48.7831 67.3942C48.5645 67.3906 48.3356 67.3911 48.1062 67.3836C48.2332 68.5397 48.3614 69.6958 48.4914 70.8515C48.7253 70.8261 48.959 70.8067 49.1859 70.7826C49.8544 70.712 50.5221 70.6421 51.1922 70.5893C52.4619 70.4892 53.7325 70.4291 55.0046 70.3662C56.306 70.3017 57.6082 70.2588 58.9098 70.1981C59.5409 70.1685 60.1718 70.1319 60.801 70.0739C61.242 70.0333 61.7658 69.8832 62.2259 69.9383C62.251 68.7851 62.2772 67.6319 62.303 66.4787ZM62.4055 62.0208C62.3856 62.0516 62.3623 62.0814 62.334 62.1092C61.8197 62.6174 61.1857 62.5782 60.5042 62.6315L60.4624 62.6349C59.7943 62.6911 59.126 62.7445 58.4572 62.7927C57.1204 62.8892 55.781 62.9567 54.4423 63.0169C53.0722 63.0784 51.6933 63.1208 50.3219 63.0928C49.4437 63.0749 48.5239 63.078 47.6281 62.9924C47.7657 64.2657 47.9041 65.5389 48.0435 66.8119C48.2953 66.7644 48.5488 66.7281 48.7889 66.6903C49.394 66.5951 49.9998 66.4994 50.6084 66.4294C51.8246 66.2893 53.041 66.1584 54.2596 66.0402C55.3016 65.9392 56.3434 65.8366 57.3862 65.7443L58.012 65.6902C59.2563 65.5855 60.5163 65.4129 61.7645 65.3874C61.9702 65.3832 62.2029 65.4952 62.3207 65.6718C62.3483 64.4548 62.3769 63.2378 62.4055 62.0208ZM62.4919 58.4118C62.1742 58.4504 61.8319 58.4284 61.5387 58.438C60.7973 58.4622 60.0558 58.4847 59.3144 58.5066L54.8654 58.6379V58.6379C53.3507 58.6825 51.8307 58.716 50.3154 58.6946C49.6488 58.6852 48.9793 58.6841 48.313 58.6479L48.091 58.6344C47.8168 58.6161 47.4803 58.6136 47.1516 58.5802L47.5396 62.1739V62.1739C48.431 62.0451 49.3497 61.9969 50.2336 61.9214L50.4224 61.9048C51.726 61.786 53.0359 61.7074 54.3418 61.619C55.6815 61.5283 57.0192 61.4182 58.357 61.3056C59.0256 61.2494 59.6942 61.1933 60.3623 61.1318L60.4449 61.1237C61.076 61.0578 61.6695 60.9176 62.2284 61.2897C62.3103 61.3441 62.3743 61.4168 62.4181 61.4982C62.4425 60.4694 62.4664 59.4405 62.4919 58.4118ZM62.5958 54.2177C59.8864 54.3267 57.1766 54.4095 54.4651 54.4458C52.9388 54.4662 51.4145 54.4518 49.8885 54.42C49.2268 54.4061 48.5596 54.3744 47.8984 54.3238L47.6507 54.3039C47.3364 54.2774 47.0061 54.2582 46.6772 54.2265C46.8132 55.4621 46.948 56.6979 47.0818 57.9339C47.4052 57.8738 47.7433 57.846 48.0268 57.8098L48.0912 57.8012C48.7956 57.7043 49.5066 57.6478 50.2145 57.5855C51.5929 57.4641 52.9781 57.3859 54.3601 57.3194C55.7753 57.2512 57.1913 57.1935 58.6067 57.1306L60.0223 57.0673C60.2582 57.0568 60.4941 57.0465 60.73 57.0366C61.0671 57.0224 61.4042 57.0088 61.7412 56.9948C61.9075 56.9879 62.0803 56.9654 62.2467 56.974L62.2941 56.9676C62.316 56.9648 62.3352 56.9626 62.353 56.9607C62.3982 56.9262 62.447 56.8976 62.4986 56.8759L62.5299 56.8638L62.5958 54.2177ZM46.2331 50.2432C46.3589 51.3555 46.4833 52.4681 46.6061 53.5808C46.9925 53.5367 47.3836 53.5123 47.7526 53.4791C48.4966 53.4124 49.2441 53.354 49.9904 53.3197L51.4819 53.2504C52.4761 53.2045 53.4703 53.16 54.4652 53.1237C57.1883 53.0243 59.9112 52.9105 62.6325 52.7715C62.6517 52.0168 62.6715 51.2622 62.6918 50.5075C62.5611 50.6474 62.3724 50.7395 62.1244 50.7388C59.2674 50.7312 56.4082 50.7477 53.5515 50.7007C52.1215 50.6772 50.6933 50.6425 49.265 50.5692C48.5661 50.5334 47.8633 50.4602 47.1697 50.3641C46.874 50.3232 46.5503 50.294 46.2331 50.2432ZM45.7758 46.2796C45.9101 47.419 46.0418 48.5588 46.1714 49.6988C46.5262 49.6354 46.8928 49.6017 47.2238 49.5567C47.935 49.46 48.6507 49.383 49.367 49.3425C50.7609 49.2637 52.1556 49.2239 53.5514 49.1943C56.4079 49.1337 59.2673 49.1341 62.1244 49.1115C62.3928 49.1094 62.592 49.2156 62.7228 49.3741C62.7427 48.6625 62.7636 47.951 62.7851 47.2393C62.5092 47.2102 62.2356 47.169 61.9824 47.1513C61.2043 47.097 60.4258 47.0473 59.6471 47.0027C58.022 46.9095 56.3953 46.8299 54.7691 46.7591C53.1425 46.6883 51.5153 46.6192 49.8882 46.5589L49.1766 46.533C48.045 46.4909 46.8943 46.4377 45.7758 46.2796ZM45.2636 41.9885C45.4034 43.1425 45.5411 44.2967 45.6785 45.451L45.7202 45.8083V45.8083C47.0811 45.5438 48.5154 45.4663 49.8877 45.4079C51.5151 45.3387 53.1397 45.3031 54.7686 45.3081C56.3959 45.313 58.0207 45.3515 59.6466 45.4187C60.459 45.4522 61.2714 45.491 62.0833 45.5351C62.3066 45.5472 62.5683 45.5407 62.8378 45.5446C62.8436 45.3632 62.8486 45.1818 62.8548 45.0005C62.8795 44.2658 62.9037 43.5311 62.929 42.7965C62.3798 43.0785 61.6657 43.1923 61.1138 43.3125L61.0509 43.3264C60.1396 43.5311 59.2091 43.6638 58.2788 43.7448C56.4521 43.9042 54.6064 43.8446 52.7815 43.6903L52.4618 43.663C50.8592 43.524 49.1978 43.3479 47.6442 42.9513C46.9041 42.7625 46.1391 42.4981 45.4759 42.115C45.407 42.0752 45.3358 42.033 45.2636 41.9885ZM60.6944 28.2748C60.7102 28.2124 60.8036 28.1982 60.8344 28.2565C61.0502 28.6664 61.1305 29.1585 61.2803 29.5978C61.4415 30.07 61.592 30.5457 61.7699 31.0123C62.1415 31.987 62.58 32.9237 63.1027 33.8266C63.6204 34.7206 62.1709 35.3589 61.7899 34.38C61.3966 33.37 61.0734 32.3256 60.8778 31.2582C60.7823 30.7374 60.6972 30.2095 60.6696 29.6804C60.6458 29.2259 60.5819 28.7181 60.6944 28.2748Z" fill="black"/>
</svg>
