<svg width="100" height="120" viewBox="0 0 100 120" fill="none" xmlns="http://www.w3.org/2000/svg">
<rect x="1" y="1" width="98" height="118" rx="15" fill="#FFBD12" stroke="#18191F" stroke-width="2"/>
<path fill-rule="evenodd" clip-rule="evenodd" d="M14.9942 99.4009C15.5327 100.219 16.592 100.093 17.0468 99.4595C22.2255 100.666 27.5345 100.191 32.7852 99.8948C47.5812 99.2928 62.4606 101.18 77.1967 99.2057C78.76 98.8931 80.5794 99.0425 81.8585 97.9583C83.9043 95.561 83.4637 91.9212 83.1378 89.0013C80.5256 72.5415 76.8118 55.9307 74.9593 39.3651C74.8558 37.7872 75.5061 35.8266 76.089 34.3432C76.233 34.0673 77.1431 33.7968 77.6154 33.4785C79.0647 32.4382 78.8297 30.5739 77.5733 29.48C73.5053 26.6126 67.8424 27.6145 63.5271 28.6724C62.7001 25.5664 61.7705 23.5235 60.1959 23.3212C57.1989 22.9361 49.9289 21.7594 47.6895 23.3212C46.6182 24.0683 45.9306 26.701 45.1595 27.9835C39.5354 27.8836 28.121 20.3592 25.7743 28.8323C23.8677 28.9639 21.9793 30.6284 22.3441 32.6259C19.8714 34.8109 21.8217 38.0871 21.7874 40.8068C21.4624 46.5771 18.34 51.7375 17.041 57.3116C14.0718 68.1227 10.7111 87.7878 14.3938 98.3405C14.3145 98.2991 14.1414 98.3614 14.2536 98.4492C14.6706 98.5668 14.7248 99.0921 14.9942 99.4009Z" fill="white"/>
<path fill-rule="evenodd" clip-rule="evenodd" d="M79.6532 96.6518C78.9625 91.1067 78.4822 84.4127 78.4767 78.8214C78.4762 78.2948 79.2932 78.2957 79.2937 78.8214C79.2993 84.4127 79.7796 91.1067 80.4703 96.6518C80.5352 97.173 79.7174 97.1666 79.6532 96.6518M74.5362 62.2698C73.4689 62.9225 72.0674 62.4697 71.0111 62.0375C70.5302 61.8407 70.742 61.0506 71.2283 61.2497C72.0321 61.5787 73.2071 62.063 74.0555 61.6042C74.9022 61.1462 74.9404 59.8866 74.9467 59.0553C74.9507 58.5289 75.7677 58.5293 75.7638 59.0553C75.7552 60.1862 75.604 61.6165 74.5362 62.2698M72.5607 87.645C71.4839 87.0931 70.5652 86.3385 69.8257 85.3807C69.5043 84.9644 70.2145 84.558 70.5313 84.9683C71.182 85.8113 72.0299 86.4561 72.9731 86.9396C73.4417 87.1798 73.0277 87.8845 72.5607 87.645M67.3853 59.13C65.5377 66.5336 64.2979 74.0697 63.6902 81.6764C63.5666 83.2206 63.4798 84.7628 63.4308 86.306C63.3818 86.7084 63.3348 87.1118 63.2909 87.5152C63.1244 89.0409 62.9967 90.5914 63.008 92.1274C63.0131 92.8168 63.0345 93.5031 63.0815 94.1904C62.9998 93.9606 62.9242 93.7298 62.8507 93.5001C62.7006 93.0292 62.6015 92.541 62.4483 92.0733C62.3217 91.6862 62.1582 91.3155 62.0061 90.9407V90.9396C62.052 89.4046 61.9479 87.8553 61.8947 86.3274C61.8263 84.3481 61.7416 82.3709 61.6976 80.3906C61.6098 76.4299 61.6537 72.4662 61.7967 68.5077C62.0837 60.5312 62.8088 52.5927 63.5401 44.6489C63.7433 42.4398 63.9619 40.2317 64.113 38.0185C64.2652 35.7819 64.3265 33.5411 64.3438 31.2985C64.3449 31.137 64.0997 31.0942 64.0548 31.2504C64.015 30.7183 63.9445 30.1872 63.8271 29.6735C65.5888 30.7969 67.4466 31.7682 69.2676 32.7895C70.2266 33.3277 71.1815 33.8751 72.1701 34.3572C72.7135 34.6226 73.2619 34.8668 73.8216 35.0976C74.4017 35.3366 74.9562 35.6655 75.5946 35.4989C75.6497 35.4847 75.7018 35.4643 75.7518 35.4377C75.6793 35.5755 75.6068 35.7124 75.5374 35.8514C75.2963 36.3303 75.0665 36.8114 74.8439 37.2965C74.7847 37.3404 74.7326 37.4008 74.6917 37.4793C74.5835 37.6907 74.4783 37.9042 74.3761 38.1206C74.3557 38.1013 74.3353 38.0819 74.3149 38.0625C74.2291 37.9818 74.1106 38.1032 74.1862 38.1912C74.2209 38.2309 74.2546 38.2698 74.2883 38.3096C73.6224 39.7425 73.0811 41.249 72.5235 42.7197C71.8382 44.5273 71.1886 46.3483 70.5769 48.1816C69.3707 51.7878 68.3065 55.441 67.3853 59.13M40.9711 85.998C37.566 87.8216 34.384 90.0009 31.3235 92.3514C30.9063 92.6718 30.4999 91.9617 30.9111 91.6459C33.9716 89.2954 37.1537 87.1161 40.5588 85.2924C41.0227 85.0441 41.4349 85.7497 40.9711 85.998M29.4704 64.6406C29.2935 64.6274 29.1215 64.5248 29.0765 64.3408C28.8007 63.2114 28.5847 61.9811 28.8412 60.8292C28.9556 60.3154 29.7431 60.534 29.6291 61.0463C29.4267 61.9547 29.5875 62.9366 29.7976 63.8424C32.7674 63.9724 35.6975 62.9066 38.5388 62.191C39.0498 62.0623 39.2656 62.8506 38.7561 62.9788C35.742 63.7379 32.6243 64.8741 29.4704 64.6406M88.5938 94.7656C88.5968 94.7584 88.5999 94.7502 88.602 94.7431C88.7766 94.2141 88.7807 93.5992 88.8001 93.0448C88.8338 92.0581 88.798 91.0695 88.7092 90.0859C88.5213 88.0157 88.1168 85.9793 87.6338 83.96C86.6768 79.9607 85.3246 76.0695 84.5903 72.0159C83.1492 64.0589 83.4913 55.7741 80.6633 48.0991C79.4878 44.9084 77.8088 41.8414 75.5272 39.3065C75.6936 38.8 75.856 38.2924 76.0143 37.7827C76.2911 36.8963 76.574 35.9812 76.7446 35.0681C76.7487 35.0436 76.7538 35.0181 76.7568 34.9925C77.7281 34.5738 78.6115 33.7843 78.7627 32.7344C78.828 32.281 78.7525 31.7785 78.5564 31.3403C78.9567 30.9706 79.2141 30.4906 79.1528 29.8472C79.0384 28.6359 77.6239 28.3243 76.6394 28.0875C75.52 27.8189 74.3588 27.7443 73.2139 27.871C72.6359 27.9343 72.0639 28.0405 71.5053 28.1998C71.0201 28.3377 70.4921 28.4797 70.103 28.8126C70.0571 28.8514 70.0948 28.927 70.15 28.927C70.9374 28.924 71.7218 28.6349 72.5174 28.597C73.3508 28.5583 74.1821 28.6267 74.9992 28.7983C75.7978 28.9658 76.5944 29.2109 77.3206 29.5898C77.5249 29.6971 77.8241 29.7696 77.5841 29.9861C77.4084 30.1444 77.0632 30.1578 76.8375 30.1812C76.3381 30.2332 75.9071 30.5253 75.8438 31.0585C75.7876 31.5293 76.0685 32.0624 76.5689 32.1686C76.5965 32.1749 76.622 32.1819 76.6445 32.1911C76.6578 32.2166 76.6782 32.2381 76.6761 32.2033C76.6761 32.2033 76.6772 32.2023 76.6772 32.2033C76.6894 32.2779 76.6935 32.3074 76.6935 32.3126C76.6904 32.3065 76.6853 32.281 76.6813 32.2605C76.6843 32.2789 76.6904 32.3085 76.6986 32.3525C76.6874 32.3045 76.6966 32.422 76.6874 32.4403C76.4218 32.9305 75.6365 33.0685 75.1789 33.2798C75.0901 33.3206 75.0135 33.3687 74.9481 33.4227C74.8398 33.385 74.7295 33.3472 74.6182 33.3053C74.0698 33.1001 73.5223 32.9009 72.9668 32.7159C71.8944 32.3576 70.8087 32.0379 69.7364 31.6784C67.706 30.9982 65.7431 30.1393 63.7505 29.361C63.6872 29.1261 63.6136 28.8964 63.5268 28.6727C63.5095 28.6258 63.4257 28.6104 63.4165 28.6727C63.3859 28.8708 63.3614 29.07 63.3409 29.2702C63.3328 29.2885 63.3307 29.309 63.3348 29.3284C63.2194 30.4927 63.25 31.6845 63.1908 32.8478C63.1173 34.298 62.912 35.7381 62.8538 37.1894V37.2159C62.6393 38.4548 62.4452 39.6977 62.2696 40.9447C62.0725 40.8834 61.8468 40.8957 61.6159 41.0193C59.9839 41.8904 58.1496 42.3756 56.3041 42.4838C55.3747 42.5379 54.4545 42.5074 53.5303 42.4001C52.9226 42.3306 52.3241 42.204 51.7246 42.0835C52.0402 40.7609 52.3792 39.4444 52.7622 38.1413C53.0778 37.0699 53.4291 36.0036 53.8632 34.9731C54.3013 33.9324 54.8467 32.9387 55.3543 31.9296C55.5882 31.4629 55.3124 30.749 54.7048 30.798C54.525 30.8123 54.3453 30.8236 54.1645 30.8317C52.4058 30.9156 50.5766 30.7195 48.8404 30.5447C46.8642 30.3446 44.8614 30.1371 42.9025 29.8114C42.7575 29.788 42.6983 29.9851 42.8413 30.0331C43.7706 30.3456 44.6888 30.6989 45.6417 30.9328C46.6221 31.1749 47.6087 31.3955 48.6035 31.5681C49.5564 31.7326 50.5133 31.8704 51.4733 31.9868C52.0994 32.0634 52.7326 32.1022 53.3628 32.1533C52.5141 33.5096 51.9288 35.0394 51.4192 36.5458C50.7646 38.4803 50.2835 40.4708 49.8127 42.4573C48.8057 46.7151 47.9754 51.0158 47.3258 55.3431C46.8601 58.4458 46.4832 61.5608 46.2003 64.684C46.1166 63.7352 46.0145 62.7895 45.899 61.8447C45.513 58.7082 44.9492 55.5923 44.1955 52.5233C44.2629 52.4048 44.2946 52.2628 44.2721 52.125C44.1363 51.2814 43.7788 50.547 43.4653 49.7647C43.1538 48.6719 42.8178 47.5863 42.4562 46.5088C42.0457 45.0412 41.585 43.596 40.9958 42.1846C40.5454 41.1091 40.0316 40.0612 39.4597 39.0451C38.7765 37.6244 38.0258 36.2345 37.2016 34.9057C37.1587 34.7821 37.0893 34.6667 36.9902 34.5697C36.8401 34.3328 36.6879 34.0989 36.5326 33.8671C36.4315 33.7159 36.1415 33.8078 36.2181 33.9998C36.2538 34.0898 36.2896 34.1796 36.3263 34.2685C32.9693 33.4289 29.6776 34.7127 26.4799 35.6605C25.6731 35.9005 24.8581 36.117 24.0308 36.2733C23.3802 36.3958 22.6224 36.5449 21.9739 36.41C21.5398 36.3202 21.3478 36.1231 21.5593 35.6595C21.7778 35.1795 22.3743 34.8639 22.8921 34.6515C23.0871 34.6095 23.2791 34.535 23.464 34.4226C23.895 34.1612 24.0839 33.6158 23.8807 33.1511C23.6958 32.7314 23.1566 32.3698 22.6796 32.5618C22.6112 32.5894 22.5438 32.616 22.4764 32.6425C22.4692 32.6323 22.4611 32.618 22.4539 32.5976C22.3855 32.4107 22.3559 32.6344 22.3855 32.3668C22.4345 31.9296 22.8972 31.5323 23.2138 31.2821C24.0012 30.6581 25.1389 30.1965 26.1551 30.4324C26.2317 30.4498 26.3083 30.4712 26.3839 30.4978C27.4307 30.8603 27.9404 29.3529 27.1039 28.7912C27.0529 28.7575 26.9885 28.7146 26.9181 28.6645C26.5698 28.4225 26.0602 28.015 26.1991 27.6474C26.3706 27.1908 27.3827 26.9283 27.7657 26.7731C29.1506 26.2113 30.6468 25.8927 32.14 25.8273C33.6423 25.762 35.1641 25.9274 36.6133 26.3328C37.3242 26.531 38.0544 26.8323 38.7264 27.1367C39.33 27.4093 40.6434 27.7699 40.7272 28.5338C40.7455 28.7024 40.9855 28.7595 41.0376 28.5757C41.4492 27.1091 39.8519 26.1623 38.7979 25.5567C38.1065 25.1583 37.3221 24.9102 36.5633 24.6661C35.8361 24.4312 35.0936 24.2586 34.3358 24.1543C32.7089 23.9318 31.0625 23.9604 29.4489 24.2729C27.9792 24.5579 26.3441 25.044 25.1563 25.9897C24.4271 26.5698 24.0972 27.4931 24.3903 28.3939C24.4005 28.4235 24.4107 28.4541 24.421 28.4837C23.1086 28.7186 21.8667 29.4703 21.0363 30.5182C20.3541 31.3792 19.9967 32.5771 20.6074 33.5791C20.5819 33.5974 20.5563 33.6168 20.5318 33.6373C19.9497 34.103 19.5166 34.7792 19.388 35.5185C19.1357 36.9769 20.0171 37.9972 21.2498 38.3874C20.9444 38.6857 20.6513 39.0022 20.3643 39.3188C19.7219 40.0286 19.1081 40.8016 18.5668 41.5902C17.4699 43.1875 16.5324 44.9268 15.7123 46.6794C14.0261 50.2784 12.9629 54.1523 12.3991 58.0802C12.1152 60.0595 11.9253 62.049 11.8527 64.0467C11.769 66.3242 11.8538 68.6027 11.8099 70.8813C11.767 73.071 11.5249 75.2075 11.0357 77.3422C10.5669 79.3837 9.94188 81.3844 9.37608 83.3994C8.73776 85.6688 8.0351 87.9279 7.69807 90.2677C7.52751 91.4585 7.40496 92.6525 7.49994 93.8566C7.59594 95.0832 8.04123 96.1321 8.4518 97.2729C8.55597 97.5641 8.8736 97.6814 9.1279 97.6191C9.18509 98.1655 9.3914 98.6986 9.69881 99.1603C10.3514 100.139 11.3564 100.763 12.5074 100.989C13.8045 101.244 15.1414 101.183 16.4548 101.136C17.8795 101.085 19.3052 101.039 20.73 100.98C22.2216 100.919 23.7131 100.855 25.2047 100.792C25.1554 99.2629 25.0966 97.7346 25.0301 96.2065C24.6705 87.9458 24.1041 79.6801 24.0891 71.4086C24.0602 71.3916 24.0318 71.3715 24.0047 71.3452C23.3332 70.6961 22.5088 70.2698 21.7342 69.7618C21.2959 69.4743 21.7056 68.7672 22.1466 69.0564C22.7996 69.4846 23.4801 69.8652 24.0921 70.3451C24.0957 69.484 24.1032 68.6231 24.1203 67.7619C24.1307 67.236 24.9477 67.236 24.9373 67.7619C24.8861 70.3571 24.9032 72.953 24.9619 75.5479C25.152 83.9572 25.7495 92.3508 26.0215 100.757C30.0251 100.586 34.0288 100.413 38.0329 100.267C41.2899 100.149 44.5468 100.03 47.8038 99.9119C48.487 99.8875 48.8711 99.3991 48.9548 98.7608C49.108 97.5863 48.82 96.3721 48.1684 95.3845C48.101 95.2823 48.0213 95.1915 47.9325 95.1138C47.9478 94.4102 47.9764 93.7053 47.9366 93.0018C47.8773 91.9274 47.7885 90.8529 47.7109 89.7795C47.5536 87.6297 47.432 85.4758 47.384 83.3208C47.286 79.0109 47.3575 74.6969 47.6016 70.3931C48.0908 61.7947 49.2295 53.2515 51.0934 44.841C51.2293 44.2282 51.3661 43.6154 51.5081 43.0037C52.9573 43.7564 54.7201 44.0269 56.3041 44.0372C58.2895 44.0495 60.2311 43.5929 62.0245 42.7627C62.0122 42.8556 62 42.9475 61.9887 43.0404C61.4883 47.0235 61.0665 51.0147 60.6988 55.0112C59.9655 62.9784 59.5161 70.9783 59.5784 78.9812C59.5958 81.1985 59.6806 83.4086 59.7858 85.6228C59.893 87.8748 60.0574 90.2545 60.6845 92.4268C60.754 92.6667 60.9082 92.8047 61.0859 92.8547C61.0951 93.1713 61.1155 93.4889 61.138 93.8014C61.2105 94.8177 61.4178 96.9287 61.8611 97.8498C62.2931 98.7487 63.0131 99.4615 63.9313 99.8538C65.0976 100.351 66.3589 100.208 67.5906 100.128C72.9463 99.7792 78.298 99.3114 83.6507 98.9008C84.3962 98.8436 85.1418 98.7875 85.8863 98.7293C86.5491 98.6782 87.2344 98.6332 87.8227 98.2891C88.4917 97.8979 89.0135 95.9768 88.7827 95.1823C88.7408 95.0372 88.6775 94.8942 88.5938 94.7656" fill="black"/>
</svg>
