<svg width="100" height="91" viewBox="0 0 100 91" fill="none" xmlns="http://www.w3.org/2000/svg">
<path fill-rule="evenodd" clip-rule="evenodd" d="M87.3392 74.6182C87.1763 71.5917 86.9762 68.5675 86.7366 65.5459C86.2591 59.5274 85.634 53.5041 84.5937 47.5547C83.5673 41.6846 82.131 35.9766 80.0616 30.383C79.1016 27.7879 78.0619 25.574 76.5536 23.2411C75.1275 21.0354 73.3076 19.5408 71.0403 18.2094C68.9975 17.0097 66.6243 14.9283 64.665 13.5849C63.847 13.0241 62.1641 13.0615 61.6032 12.2319C60.8687 11.1455 61.3449 9.4827 60.6045 8.39991C59.7581 7.16188 58.5724 6.20012 57.2353 5.50144C55.7759 4.51322 54.0571 4.06589 52.3336 4.12748C49.7922 3.97336 47.2326 4.78244 45.601 6.851C44.7868 7.88333 44.3114 9.07438 44.2456 10.3932C44.2284 10.7363 44.3386 11.0067 44.52 11.202C44.4125 11.3458 44.3054 11.4897 44.1991 11.6344C43.8653 11.1401 43.0853 10.8774 42.5654 11.2505C40.8647 12.4713 39.0267 13.4419 37.0867 14.1534C36.6329 13.9387 36.0834 14.0381 35.6946 14.3888C35.5368 14.5309 35.3694 14.6526 35.1944 14.7558C34.4751 14.9508 33.7447 15.1137 33.0034 15.2396C32.7714 15.2789 32.5748 15.4107 32.4257 15.5883C32.2048 15.3818 31.9011 15.2826 31.5621 15.4119C27.6469 16.9043 23.9495 19.2228 21.1392 22.3639C18.0257 25.8438 16.3903 30.1726 15.1454 34.6076C13.7976 39.4084 12.9364 44.3288 12.213 49.2574C11.48 54.2513 10.758 59.2647 10.2537 64.2875C9.96989 67.114 9.86163 69.9663 9.99011 72.8053C10.0541 74.2241 10.1838 75.6384 10.3902 77.0437C10.4383 77.3725 10.4886 77.7512 10.5697 78.1292C10.3233 78.0813 10.0297 78.2896 10.0797 78.6231C10.4275 80.9456 13.2355 81.6221 15.1721 81.8895C18.3399 82.3269 21.5241 82.5695 24.7224 82.5882C27.8652 82.6065 31.0076 82.4048 34.1439 82.2241C37.3594 82.0389 40.5748 81.8528 43.7902 81.6643C56.6729 80.9091 69.5562 80.162 82.439 79.4064C83.616 79.3374 84.9599 79.2439 85.968 78.5613C87.35 77.6253 87.421 76.1381 87.3392 74.6182V74.6182Z" fill="white"/>
<path fill-rule="evenodd" clip-rule="evenodd" d="M24.5366 48.6408C24.4919 48.557 24.5957 48.4818 24.6645 48.5421C26.2284 49.9145 27.0472 52.1186 27.2189 54.1559C27.4008 56.3163 27.1429 58.5531 27.0444 60.7125C26.9347 63.1179 26.8361 65.5242 26.7022 67.9285C26.5663 70.3678 26.4198 72.8062 26.2943 75.246L26.0119 80.7343V80.7343C25.9819 81.3192 26.0469 82.0386 25.8225 82.5844C25.4746 83.4307 24.4413 83.2997 24.2242 82.5924L24.2174 82.5691L24.1976 82.5844C24.006 81.947 24.1494 81.19 24.1818 80.531L24.4777 74.5346V74.5346C24.6867 70.2962 24.8732 66.0577 25.0977 61.8201L25.174 60.4076C25.279 58.5061 25.3595 56.6094 25.4241 54.7084L25.4451 54.0746C25.5065 52.166 25.4578 50.3641 24.5366 48.6408ZM62.4486 13.4553C63.3199 13.3725 63.9778 13.6615 64.7688 13.9658C65.1134 14.0983 65.4397 14.2514 65.7703 14.4099C66.1842 14.6083 66.4504 14.9592 66.7052 15.3302L66.8415 15.5301C67.9027 17.0849 68.6166 18.8787 69.4221 20.5715C70.3644 22.5518 71.316 24.5277 72.2382 26.5173L72.6933 27.4975C72.9208 27.9877 73.1476 28.4781 73.371 28.9701L73.7571 29.8264C74.145 30.6948 74.4927 31.6134 73.9399 32.5093C73.4259 33.3425 72.5146 33.9871 71.793 34.6312C71.191 35.1686 70.589 35.7059 69.9867 36.2431C71.2316 37.4897 72.0673 39.0594 72.5586 40.7427C73.2565 40.4519 74.1084 40.3961 74.8301 40.2703C75.8402 40.0942 75.964 41.6235 75.0106 41.6049C74.3065 41.5911 73.4805 41.663 72.7582 41.5147C72.8838 42.0678 72.9749 42.6293 73.0328 43.1924C73.3363 46.1435 72.6731 49.1117 71.9813 51.967L71.9244 52.2014C71.1733 55.2919 70.461 58.3905 69.8238 61.5066C69.1852 64.6293 68.6107 67.7652 68.1008 70.9116C67.5817 74.1141 67.2145 77.3343 66.8197 80.5537C66.76 81.041 66.4534 81.4586 65.915 81.4586C65.4664 81.4586 64.9537 81.04 65.0101 80.5537C65.4174 77.0478 65.995 73.5602 66.5689 70.0783C67.5574 64.0819 68.8014 58.1377 70.2326 52.2325L70.4826 51.2041C71.1266 48.537 71.7107 45.7889 71.3877 43.0378C71.1247 40.7976 70.188 38.409 68.3368 37.0176L68.2804 36.9758C67.848 36.6587 67.6816 36.0522 68.1075 35.6346C68.3785 35.3688 68.6499 35.1034 68.9214 34.8381L70.551 33.2471L70.8795 32.9258C71.1535 32.6583 71.4287 32.3924 71.7122 32.1348C71.8838 31.9789 72.349 31.6817 72.383 31.4254C72.4051 31.258 72.207 30.9642 72.1267 30.8101L71.7589 30.0677V30.0677C71.55 29.6443 71.3476 29.2179 71.1437 28.7921C70.721 27.9101 70.2923 27.0308 69.8789 26.1444L67.3949 20.8222V20.8222C66.6942 19.3206 66.07 17.7355 65.1539 16.3473L64.9732 16.0768C64.8225 15.8489 64.6893 15.6296 64.594 15.3509C64.5024 15.0828 64.3874 14.7885 64.2181 14.5597C63.8213 14.0228 63.0629 13.7183 62.4283 13.6058C62.3366 13.5895 62.3699 13.4628 62.4486 13.4553ZM43.3447 12.0575C43.3998 12.0575 43.4082 12.1362 43.3574 12.1516C42.5918 12.3818 41.8602 12.7532 41.2634 13.2894C40.9778 13.5459 40.6903 13.8371 40.514 14.1825C40.4466 14.3147 40.4092 14.4543 40.3819 14.5991L40.3731 14.6475C40.3276 14.9091 40.2625 15.0546 40.1296 15.264L40.1068 15.2995C39.3483 16.4709 38.8167 17.7719 38.3307 19.0746L37.2722 21.915V21.915L36.2144 24.7557C35.8736 25.671 35.5326 26.5864 35.1917 27.5017C35.0034 28.007 34.8097 28.5102 34.6162 29.0135C34.5324 29.2316 34.4424 29.448 34.3658 29.6687C34.3553 29.6988 34.3218 29.8805 34.2966 29.9247L34.3052 29.9397V29.9397C34.5186 30.2986 35.0875 30.5984 35.4101 30.8591L36.5206 31.757V31.757C37.3124 32.3972 38.1246 33.0195 38.8926 33.6884C39.3751 34.1083 39.0749 34.8604 38.5369 35.0358C37.6353 35.3295 36.752 35.681 35.8638 36.0134C35.5051 36.1476 35.1315 36.2644 34.7769 36.4124L34.5611 36.5057C34.4768 36.5436 34.5173 36.5432 34.5207 36.6988C34.5241 36.862 34.5703 37.032 34.5969 37.1924C34.896 39.0011 35.2131 40.8068 35.5478 42.6093C36.7317 48.9834 38.1461 55.3109 39.7593 61.5898C40.5741 64.7606 41.4479 67.9159 42.2806 71.082C43.1112 74.2397 44.2041 77.3521 45.2477 80.4447C45.5421 81.3169 44.1592 81.6924 43.872 80.824C42.6693 77.1867 41.5691 73.5176 40.4328 69.8597C38.4141 63.3601 36.8233 56.7194 35.4164 50.0626C34.719 46.7634 34.0812 43.4515 33.5036 40.1291C33.3942 39.5002 33.2869 38.8709 33.1819 38.2411L33.0288 37.3149C32.9238 36.6547 32.8641 35.967 33.3772 35.4445C33.8783 34.9345 34.7386 34.7538 35.3979 34.5147L35.4458 34.497C35.8654 34.3405 36.288 34.1896 36.709 34.0341C36.0888 33.5459 35.4763 33.0469 34.8577 32.559C34.3587 32.1654 33.8518 31.7798 33.36 31.3772C32.9544 31.045 32.6237 30.6186 32.5814 30.0786C32.5383 29.5266 32.7749 29.0144 32.9656 28.5081L32.9839 28.4592C33.1712 27.9537 33.3591 27.4486 33.5517 26.9451L34.7436 23.8282V23.8282C35.501 21.8475 36.2264 19.8509 37.023 17.8857C37.3382 17.108 37.6816 16.3425 38.0875 15.6074C38.2832 15.2529 38.4931 14.9059 38.7211 14.5713C38.9767 14.1961 39.2086 14.0132 39.6046 13.8062C40.2377 13.4752 40.7345 12.9202 41.3703 12.579C41.9943 12.244 42.6363 12.0653 43.3447 12.0575ZM45.4004 8.52382C45.4246 8.48225 45.4887 8.50075 45.4895 8.54802C45.5061 9.53236 45.2722 10.5382 45.1283 11.5115C44.9838 12.4883 44.9374 13.5193 44.7284 14.4857C44.724 14.5307 44.7153 14.5751 44.703 14.6186L44.693 14.6518V14.6518C44.6048 14.9225 44.3753 15.152 44.0937 15.2237C44.1823 15.7143 44.2657 16.2058 44.3359 16.6999C44.4564 17.5492 44.5664 18.3997 44.6745 19.2505L44.804 20.2716C44.9263 21.2339 45.0452 22.1966 45.1627 23.1594C45.4617 23.2844 45.7667 23.3875 46.0791 23.4769C46.7986 23.6828 47.5356 23.7665 48.2781 23.8393C49.7902 23.9877 51.3139 24.0564 52.8313 24.1406L53.1564 24.1589C54.8624 24.2567 56.5777 24.274 58.2794 24.099C59.1232 24.0121 59.9603 23.8665 60.7832 23.6601C61.2013 23.5552 61.6077 23.3985 62.025 23.296C62.1634 23.262 62.2871 23.1836 62.4258 23.0998C62.4873 23.022 62.5738 22.9631 62.6863 22.9403L62.7168 22.935V22.935L62.747 22.9306L62.7574 22.9259L62.7566 22.9292C62.8419 22.9176 62.923 22.9177 62.9995 22.9281C63.03 22.1775 63.063 21.4268 63.1043 20.6764C63.2153 18.6607 63.5218 16.558 63.1127 14.5599C63.099 14.4927 63.1904 14.4691 63.2142 14.532C64.0171 16.6472 63.9269 18.9601 63.9673 21.1864C64.0068 23.3635 63.983 25.5422 63.9721 27.7198C64.1281 27.7862 64.2672 27.8762 64.3774 28.0024C64.5975 28.2547 64.6608 28.6932 64.3774 28.9367C64.2518 29.0446 64.1128 29.1196 63.9653 29.1716C63.9574 31.0634 63.944 32.9553 63.925 34.8472C64.2848 35.1251 64.3184 35.785 63.9115 36.0592C63.8437 42.1858 63.7324 48.3126 63.6401 54.4383L63.4467 67.2903V67.2903C63.4209 69.0026 63.3782 70.7148 63.3629 72.4269L63.3751 72.4317V72.4317L63.4179 72.4516C63.49 72.4854 63.5972 72.5401 63.6195 72.5962C63.6253 72.6109 63.6268 72.6209 63.6261 72.6284C63.7442 72.645 63.8611 72.7007 63.9623 72.7967C64.2121 73.0341 64.1614 73.3919 63.9623 73.6336L63.9091 73.6982V73.6982C63.785 73.8489 63.5494 73.9069 63.357 73.8763C63.3589 74.9449 63.3658 76.0137 63.3624 77.0822C63.3613 77.4086 63.3564 77.735 63.3507 78.0614L63.3373 78.8441C63.3283 79.2907 63.2888 79.8582 62.8313 80.0588C62.3153 80.2853 61.8525 80.0998 61.6435 79.5757C61.587 79.4337 61.5991 79.3014 61.6197 79.1611C61.6133 78.9502 61.5803 78.7058 61.5844 78.5101L61.6015 77.6942V77.6942C61.6041 77.5684 61.6092 77.4427 61.6128 77.3168L61.5979 77.3184V77.3184C59.7642 77.4074 57.9176 77.3639 56.0809 77.3629L55.2641 77.3641C54.5825 77.3646 53.8995 77.361 53.2189 77.3349L52.9638 77.3241C52.4542 77.3002 51.9184 77.2925 51.3901 77.247C51.4574 77.7892 51.5204 78.3318 51.5764 78.8749C51.6295 79.39 51.0979 79.8276 50.6237 79.8276C50.0606 79.8276 49.7385 79.385 49.6711 78.8749C49.3528 76.4692 49.2226 74.0409 48.9186 71.6336C48.6462 69.4774 48.4101 67.3163 48.1701 65.156L48.0899 64.4359C47.2115 56.5743 46.3588 48.7097 45.5431 40.8413L45.1633 37.163C44.7797 33.4557 44.3939 29.7481 44.0685 26.0354C43.8824 23.9127 43.7109 21.7896 43.5496 19.6649C43.4312 18.1039 43.3568 16.5516 43.3084 14.9937C43.1175 14.7973 43.0219 14.5105 43.1064 14.2143C43.1558 14.0415 43.2133 13.8696 43.274 13.6981C43.2702 13.5294 43.2662 13.3609 43.263 13.1921C43.2599 13.0324 43.4221 12.9502 43.5519 12.9766C43.7878 12.4054 44.0477 11.8391 44.2645 11.2734C44.6154 10.3577 44.9046 9.37099 45.4004 8.52382ZM25.8016 18.4206C29.4701 16.1216 33.8368 14.4673 38.2103 14.6454C38.3098 14.6495 38.3378 14.8011 38.2345 14.8241C35.9016 15.3449 33.5431 15.9794 31.3346 16.9027C29.1195 17.8289 27.0134 19.0759 25.1376 20.5744C21.6766 23.3393 18.9864 26.9357 17.2151 30.9895C16.1775 33.3643 15.4503 35.8714 14.8152 38.3794C14.1432 41.0337 13.5893 43.7166 13.1288 46.4156C12.2193 51.7469 11.6897 57.1369 11.4079 62.5363C11.1213 68.0287 11.2394 73.525 11.035 79.0182C10.9996 79.9699 9.63924 79.9513 9.57009 79.0182C9.10683 72.7728 9.36348 66.4277 9.79192 60.1867C10.1772 54.5762 10.8499 48.9775 11.9332 43.4573L12.0276 42.9789C13.0403 37.8717 14.2618 32.6408 16.7101 28.0156C18.8003 24.0669 22.0272 20.7862 25.8016 18.4206ZM76.7431 42.8295C76.7622 42.7747 76.8345 42.7754 76.8538 42.8295C77.272 44.0001 77.287 45.321 77.3982 46.555L77.4069 46.6498C77.5135 47.7753 77.5938 48.9022 77.6684 50.03L77.6961 50.453C77.9957 55.054 78.3701 59.6499 78.9344 64.2267C79.4966 68.7862 80.2568 73.3139 81.0788 77.8327C81.1704 78.3358 80.9476 78.8483 80.42 78.9932C79.9549 79.121 79.3578 78.8345 79.2595 78.3344C78.7491 75.7407 78.3364 73.1435 77.9682 70.5273C77.3201 65.9205 76.8364 61.2924 76.5254 56.6506C76.3694 54.3193 76.2733 51.9888 76.2351 49.6525C76.2174 48.5685 76.2456 47.4819 76.3033 46.399L76.3172 46.1492C76.3809 45.0424 76.3744 43.885 76.7431 42.8295ZM37.104 72.1351C37.153 72.1085 37.2137 72.163 37.1826 72.2137C36.4723 73.3681 35.5114 74.3634 34.5826 75.3445C33.6116 76.37 32.6647 77.4264 31.6741 78.4318C30.9584 79.1581 29.807 77.9865 30.5624 77.3201C31.6245 76.3834 32.7345 75.4932 33.8155 74.5773L34.2882 74.1766C35.1745 73.4279 36.0871 72.6858 37.104 72.1351ZM70.8417 71.5569C70.7887 71.4559 70.9098 71.374 70.9921 71.4409C71.5651 71.9068 72.0786 72.4626 72.6318 72.9543C73.1797 73.4413 73.7481 73.8956 74.332 74.3386C74.9183 74.7835 75.5174 75.2106 76.1326 75.6148C76.643 75.95 77.169 76.2185 77.7034 76.4968C77.9509 76.5286 78.1801 76.6501 78.3635 76.8804C78.6535 77.2446 78.6844 77.9313 78.2821 78.2475L78.2099 78.3042V78.3042C77.7404 78.6732 77.1831 78.7181 76.7209 78.3042C76.2049 77.8421 75.7171 77.3336 75.2216 76.8452L75.0726 76.6994C74.5401 76.1818 74.0206 75.6474 73.5308 75.0891L73.0873 74.5847C72.2647 73.6466 71.4085 72.6356 70.8417 71.5569ZM68.2026 17.4753C68.1074 17.4122 68.1661 17.2423 68.2837 17.2828L68.4995 17.3574C69.4011 17.6707 70.3291 18.0181 71.1477 18.5005C72.0273 19.0188 72.8396 19.6363 73.6156 20.2987C75.2218 21.6698 76.5883 23.3559 77.7496 25.1133C80.0798 28.6397 81.5209 32.6784 82.6844 36.7194C83.925 41.0281 84.8801 45.4295 85.66 49.8434C86.4524 54.3291 87.0637 58.8552 87.4655 63.3928C87.6635 65.628 87.7963 67.8646 87.8631 70.1076C87.8975 71.2614 87.8964 72.4145 87.8868 73.5688C87.8844 73.8656 87.8863 74.1623 87.8897 74.459L87.901 75.3492C87.907 75.9121 87.9744 76.5035 87.8407 77.0534C87.6254 77.9386 86.1618 77.7734 86.2099 76.8687C86.1658 76.5678 86.1641 76.2567 86.1755 75.945C86.1686 75.9047 86.161 75.8639 86.1526 75.8221C86.1286 75.7025 86.1491 75.5918 86.196 75.4966C86.2036 75.3471 86.2104 75.1985 86.2129 75.0524C86.2225 74.4581 86.2219 73.8662 86.2054 73.2721C86.1708 72.0194 86.121 70.7666 86.0706 69.5145C85.97 67.0123 85.8301 64.509 85.6273 62.0129C84.9216 53.3246 83.4314 44.5868 80.9282 36.2282C79.7657 32.3466 78.1629 28.5362 75.8645 25.182C74.8442 23.6929 73.6931 22.3175 72.417 21.041C71.1328 19.7565 69.7177 18.4787 68.2026 17.4753ZM50.8821 73.4838L51.0555 74.7385C51.1422 75.3659 51.2281 75.9935 51.3096 76.6216C51.8633 76.5458 52.4297 76.514 52.9632 76.4667C53.8972 76.384 54.8376 76.344 55.7744 76.3053C57.7115 76.2254 59.6583 76.0868 61.5973 76.0965C61.6173 76.0966 61.636 76.098 61.6548 76.0995L61.751 73.6239V73.6239L60.3886 73.6218V73.6218C59.2343 73.62 58.0803 73.6101 56.926 73.6002C55.8864 73.5913 54.8464 73.5899 53.807 73.5682L53.3616 73.5577C52.5734 73.5364 51.703 73.5802 50.8821 73.4838ZM61.8654 69.8904C61.8098 69.8969 61.7533 69.9024 61.6931 69.905C61.4233 69.9163 61.1513 69.9085 60.8813 69.9107C60.3063 69.9157 59.7314 69.9196 59.1563 69.9195C58.0063 69.9194 56.8564 69.9263 55.7066 69.9402C54.5229 69.9545 53.34 69.9751 52.1562 69.9774C51.5827 69.9784 51.0109 69.9632 50.4376 69.9472C50.5303 70.762 50.6272 71.5762 50.7343 72.3884C51.6246 72.2681 52.5823 72.3288 53.4524 72.3205L53.5654 72.319C54.7531 72.2986 55.9418 72.3137 57.1298 72.3151C58.3519 72.3165 59.5739 72.3205 60.7961 72.3305L61.8001 72.3388V72.3388L61.8021 72.2882V72.2882C61.8315 71.4898 61.8505 70.6903 61.8654 69.8904ZM49.9964 65.9926C50.1077 66.9544 50.2122 67.9178 50.3187 68.8809C50.3895 68.8699 50.4612 68.8606 50.5342 68.8529C51.1086 68.7928 51.6817 68.7414 52.2582 68.7056C53.4072 68.6344 54.5562 68.5968 55.7071 68.566C56.8906 68.5342 58.0743 68.5099 59.2582 68.4932C59.8334 68.4851 60.4081 68.4859 60.9833 68.4899C61.2531 68.4918 61.5257 68.4833 61.795 68.5014C61.8271 68.5035 61.8578 68.5069 61.8883 68.5103L61.9085 67.0644C61.912 66.8234 61.9156 66.5825 61.9195 66.3416C61.0305 66.3964 60.1267 66.3755 59.2384 66.3757L59.0337 66.3762C57.9175 66.3813 56.8009 66.366 55.6849 66.3428C54.5336 66.3188 53.3847 66.2812 52.2354 66.2075C51.7697 66.1777 51.3075 66.1381 50.8444 66.087L50.6128 66.0605C50.4113 66.0367 50.2038 66.0175 49.9964 65.9926ZM62.0112 61.9121C59.8702 62.082 57.7407 62.153 55.594 62.1741L55.2719 62.1769C53.3749 62.1913 51.4623 62.2695 49.5608 62.2193C49.6745 63.2049 49.7879 64.1906 49.9021 65.1761C50.1744 65.1634 50.448 65.1633 50.7142 65.1537C51.2556 65.1342 51.7951 65.1293 52.3368 65.1281C53.4528 65.1255 54.5688 65.1352 55.6849 65.133C56.8351 65.1305 57.9851 65.1111 59.1351 65.0894C60.0674 65.072 61.0097 65.0018 61.9446 65.0044L62.0112 61.9121V61.9121ZM62.1014 57.7068C61.8533 57.7892 61.5604 57.7945 61.2392 57.8092L60.4104 57.8505C60.0263 57.8694 59.6421 57.8871 59.2577 57.9011C57.9769 57.948 56.6961 57.9918 55.4151 58.0325C54.1024 58.0742 52.7834 58.0984 51.4705 58.0571C50.8273 58.0367 50.1896 58.003 49.5485 57.9494C49.39 57.9361 49.2284 57.9274 49.0665 57.916C49.2157 59.222 49.3656 60.5277 49.5159 61.8334C51.4083 61.6012 53.3153 61.4566 55.2053 61.2164L56.9143 60.9981C58.6225 60.7802 60.3292 60.5663 62.0437 60.3859L62.1014 57.7068V57.7068ZM62.1924 53.4554C61.8284 53.5452 61.4135 53.5407 61.064 53.5628L60.9992 53.5673C60.3369 53.6175 59.6728 53.6427 59.009 53.659C57.7078 53.6911 56.4059 53.7071 55.1043 53.7151L54.3217 53.7199C53.2783 53.726 52.2355 53.7287 51.1918 53.7043C50.5223 53.6888 49.8544 53.656 49.1854 53.6225C48.9851 53.6124 48.7802 53.6058 48.5747 53.5955C48.7145 54.8319 48.8558 56.068 48.9967 57.3042C49.2165 57.2692 49.4373 57.2427 49.6478 57.2071C50.1869 57.116 50.7251 57.0433 51.2681 56.9783C52.4442 56.8373 53.6265 56.7359 54.8082 56.6503C56.0213 56.5624 57.2354 56.488 58.4487 56.403L59.308 56.3424C59.5944 56.3225 59.8809 56.3033 60.1675 56.2857C60.6569 56.2557 61.2257 56.2896 61.7112 56.1831C61.8426 56.1283 61.9886 56.1158 62.1347 56.147L62.1924 53.4554V53.4554ZM62.303 48.4787C62.1771 48.6387 61.989 48.7225 61.7647 48.7515C60.5964 48.9031 59.3981 48.9274 58.2199 48.9988L58.0122 49.012C56.7957 49.0921 55.5785 49.1551 54.3611 49.2197C53.1105 49.2861 51.8602 49.3402 50.6086 49.3838C50.0772 49.4023 49.5432 49.4045 49.011 49.3977L48.7831 49.3942C48.5645 49.3906 48.3356 49.3911 48.1062 49.3836C48.2332 50.5397 48.3614 51.6958 48.4914 52.8515C48.7253 52.8261 48.959 52.8067 49.1859 52.7826C49.8544 52.712 50.5221 52.6421 51.1922 52.5893C52.4619 52.4892 53.7325 52.4291 55.0046 52.3662C56.306 52.3017 57.6082 52.2588 58.9098 52.1981C59.5409 52.1685 60.1718 52.1319 60.801 52.0739C61.242 52.0333 61.7658 51.8832 62.2259 51.9383C62.251 50.7851 62.2772 49.6319 62.303 48.4787ZM62.4055 44.0208C62.3856 44.0516 62.3623 44.0814 62.334 44.1092C61.8197 44.6174 61.1857 44.5782 60.5042 44.6315L60.4624 44.6349C59.7943 44.6911 59.126 44.7445 58.4572 44.7927C57.1204 44.8892 55.781 44.9567 54.4423 45.0169C53.0722 45.0784 51.6933 45.1208 50.3219 45.0928C49.4437 45.0749 48.5239 45.078 47.6281 44.9924C47.7657 46.2657 47.9041 47.5389 48.0435 48.8119C48.2953 48.7644 48.5488 48.7281 48.7889 48.6903C49.394 48.5951 49.9998 48.4994 50.6084 48.4294C51.8246 48.2893 53.041 48.1584 54.2596 48.0402C55.3016 47.9392 56.3434 47.8366 57.3862 47.7443L58.012 47.6902C59.2563 47.5855 60.5163 47.4129 61.7645 47.3874C61.9702 47.3832 62.2029 47.4952 62.3207 47.6718C62.3483 46.4548 62.3769 45.2378 62.4055 44.0208ZM62.4919 40.4118C62.1742 40.4504 61.8319 40.4284 61.5387 40.438C60.7973 40.4622 60.0558 40.4847 59.3144 40.5066L54.8654 40.6379V40.6379C53.3507 40.6825 51.8307 40.716 50.3154 40.6946C49.6488 40.6852 48.9793 40.6841 48.313 40.6479L48.091 40.6344C47.8168 40.6161 47.4803 40.6136 47.1516 40.5802L47.5396 44.1739V44.1739C48.431 44.0451 49.3497 43.9969 50.2336 43.9214L50.4224 43.9048C51.726 43.786 53.0359 43.7074 54.3418 43.619C55.6815 43.5283 57.0192 43.4182 58.357 43.3056C59.0256 43.2494 59.6942 43.1933 60.3623 43.1318L60.4449 43.1237C61.076 43.0578 61.6695 42.9176 62.2284 43.2897C62.3103 43.3441 62.3743 43.4168 62.4181 43.4982C62.4425 42.4694 62.4664 41.4405 62.4919 40.4118ZM62.5958 36.2177C59.8864 36.3267 57.1766 36.4095 54.4651 36.4458C52.9388 36.4662 51.4145 36.4518 49.8885 36.42C49.2268 36.4061 48.5596 36.3744 47.8984 36.3238L47.6507 36.3039C47.3364 36.2774 47.0061 36.2582 46.6772 36.2265C46.8132 37.4621 46.948 38.6979 47.0818 39.9339C47.4052 39.8738 47.7433 39.846 48.0268 39.8098L48.0912 39.8012C48.7956 39.7043 49.5066 39.6478 50.2145 39.5855C51.5929 39.4641 52.9781 39.3859 54.3601 39.3194C55.7753 39.2512 57.1913 39.1935 58.6067 39.1306L60.0223 39.0673C60.2582 39.0568 60.4941 39.0465 60.73 39.0366C61.0671 39.0224 61.4042 39.0088 61.7412 38.9948C61.9075 38.9879 62.0803 38.9654 62.2467 38.974L62.2941 38.9676C62.316 38.9648 62.3352 38.9626 62.353 38.9607C62.3982 38.9262 62.447 38.8976 62.4986 38.8759L62.5299 38.8638L62.5958 36.2177ZM46.2331 32.2432C46.3589 33.3555 46.4833 34.4681 46.6061 35.5808C46.9925 35.5367 47.3836 35.5123 47.7526 35.4791C48.4966 35.4124 49.2441 35.354 49.9904 35.3197L51.4819 35.2504C52.4761 35.2045 53.4703 35.16 54.4652 35.1237C57.1883 35.0243 59.9112 34.9105 62.6325 34.7715C62.6517 34.0168 62.6715 33.2622 62.6918 32.5075C62.5611 32.6474 62.3724 32.7395 62.1244 32.7388C59.2674 32.7312 56.4082 32.7477 53.5515 32.7007C52.1215 32.6772 50.6933 32.6425 49.265 32.5692C48.5661 32.5334 47.8633 32.4602 47.1697 32.3641C46.874 32.3232 46.5503 32.294 46.2331 32.2432ZM45.7758 28.2796C45.9101 29.419 46.0418 30.5588 46.1714 31.6988C46.5262 31.6354 46.8928 31.6017 47.2238 31.5567C47.935 31.46 48.6507 31.383 49.367 31.3425C50.7609 31.2637 52.1556 31.2239 53.5514 31.1943C56.4079 31.1337 59.2673 31.1341 62.1244 31.1115C62.3928 31.1094 62.592 31.2156 62.7228 31.3741C62.7427 30.6625 62.7636 29.951 62.7851 29.2393C62.5092 29.2102 62.2356 29.169 61.9824 29.1513C61.2043 29.097 60.4258 29.0473 59.6471 29.0027C58.022 28.9095 56.3953 28.8299 54.7691 28.7591C53.1425 28.6883 51.5153 28.6192 49.8882 28.5589L49.1766 28.533C48.045 28.4909 46.8943 28.4377 45.7758 28.2796ZM45.2636 23.9885C45.4034 25.1425 45.5411 26.2967 45.6785 27.451L45.7202 27.8083V27.8083C47.0811 27.5438 48.5154 27.4663 49.8877 27.4079C51.5151 27.3387 53.1397 27.3031 54.7686 27.3081C56.3959 27.313 58.0207 27.3515 59.6466 27.4187C60.459 27.4522 61.2714 27.491 62.0833 27.5351C62.3066 27.5472 62.5683 27.5407 62.8378 27.5446C62.8436 27.3632 62.8486 27.1818 62.8548 27.0005C62.8795 26.2658 62.9037 25.5311 62.929 24.7965C62.3798 25.0785 61.6657 25.1923 61.1138 25.3125L61.0509 25.3264C60.1396 25.5311 59.2091 25.6638 58.2788 25.7448C56.4521 25.9042 54.6064 25.8446 52.7815 25.6903L52.4618 25.663C50.8592 25.524 49.1978 25.3479 47.6442 24.9513C46.9041 24.7625 46.1391 24.4981 45.4759 24.115C45.407 24.0752 45.3358 24.033 45.2636 23.9885ZM60.6944 10.2748C60.7102 10.2124 60.8036 10.1982 60.8344 10.2565C61.0502 10.6664 61.1305 11.1585 61.2803 11.5978C61.4415 12.07 61.592 12.5457 61.7699 13.0123C62.1415 13.987 62.58 14.9237 63.1027 15.8266C63.6204 16.7206 62.1709 17.3589 61.7899 16.38C61.3966 15.37 61.0734 14.3256 60.8778 13.2582C60.7823 12.7374 60.6972 12.2095 60.6696 11.6804C60.6458 11.2259 60.5819 10.7181 60.6944 10.2748Z" fill="black"/>
</svg>
