<svg width="235" height="212" viewBox="0 0 235 212" fill="none" xmlns="http://www.w3.org/2000/svg">
<path fill-rule="evenodd" clip-rule="evenodd" d="M26.2717 159.875C25.5531 166.429 23.9254 173.649 27.0282 179.833C25.074 179.92 26.6593 180.483 27.7139 180.676C28.3161 181.14 29.1254 181.323 29.8864 181.259C33.8379 182.09 37.9171 182.391 41.9293 182.861C92.0231 187.001 142.453 185.902 192.64 184.118C194.272 184.047 195.368 182.868 195.493 181.279C197.332 157.894 198.247 134.438 198.201 110.982C197.383 102.739 203.645 105.956 200.305 95.0938C197.62 83.6371 193.645 72.4855 188.577 61.8597C185.074 54.945 181.773 47.6693 176.434 41.9354C174.747 41.7035 173.31 40.0359 171.884 39.1046C170.44 38.8247 169.37 37.6046 167.906 37.2295C165.117 36.5076 158.875 34.9723 156.5 36.8187C156.406 36.7932 156.311 36.7714 156.217 36.7449C155.752 37.2579 155.114 36.8732 154.767 36.4123C153.58 35.4955 148.393 35.4012 147.804 33.9942C144.735 31.224 143.913 25.394 143.913 21.9832C142.766 20.7001 142.686 20.9384 141.128 20.2602C139.601 18.3433 137.756 16.6736 135.696 15.3573C124.106 7.7852 107.287 15.7642 104.574 28.9255C100.285 32.3046 95.8697 35.7372 90.6162 37.4979C88.0524 36.1856 85.1318 35.7668 82.4108 35.7642C80.3825 35.6908 77.5797 34.5238 76.2616 36.6477C54.0856 43.8709 40.7019 64.8789 31.1851 84.784C29.8511 87.6182 28.2553 90.5856 28.6636 93.8145C28.9442 97.6815 33.162 99.9831 32.365 104.081C31.2065 115.354 29.8886 126.616 28.6826 137.886C27.8788 145.215 27.0752 152.545 26.2717 159.875Z" fill="white"/>
<path fill-rule="evenodd" clip-rule="evenodd" d="M188.503 106.097C187.07 106.614 185.06 107.117 184.034 108.284C183.916 107.197 183.797 106.11 183.677 105.022C186.681 104.951 189.692 104.925 192.698 104.842C191.279 105.187 189.877 105.603 188.503 106.097ZM181.903 174.503C180.869 174.512 179.831 174.584 178.798 174.624C176.808 174.7 174.818 174.776 172.828 174.85C168.767 175.002 164.707 175.148 160.646 175.288C152.605 175.567 144.563 175.823 136.52 176.059C120.435 176.53 104.341 176.815 88.2577 177.353C83.7957 177.502 79.334 177.618 74.8761 177.86C72.566 177.985 70.2451 178.093 67.9461 178.359C66.0066 178.584 64.0947 178.962 62.166 179.245C62.2954 176.744 62.4166 174.243 62.5426 171.743C62.6619 169.377 62.7732 167.011 62.8839 164.645C70.4127 165.037 77.9503 165.196 85.4892 165.262C93.4637 165.333 101.436 165.53 109.411 165.545C125.199 165.577 140.988 165.379 156.775 165.221C161.241 165.176 165.706 165.132 170.171 165.087C172.404 165.065 174.637 165.043 176.869 165.02C177.984 165.009 179.105 165.033 180.218 164.987C181.407 164.938 182.129 164.602 182.991 163.806C183.451 163.382 183.47 162.517 182.991 162.096C182.299 161.488 181.656 161.021 180.697 160.953C179.755 160.886 178.771 160.978 177.826 160.991C175.753 161.018 173.68 161.045 171.607 161.072C167.62 161.124 163.633 161.176 159.646 161.228C151.672 161.333 143.698 161.44 135.724 161.56C127.91 161.679 120.094 161.767 112.281 161.963C104.304 162.163 96.3354 162.524 88.3597 162.779C79.8701 163.05 71.3849 163.374 62.9146 164.008C63.1181 159.622 63.3056 155.235 63.482 150.848C80.3005 151.759 97.1305 152.407 113.977 152.436C131.528 152.466 149.079 152.167 166.623 151.712C169.096 151.647 171.568 151.582 174.04 151.505C175.316 151.465 176.592 151.428 177.867 151.383C178.805 151.349 179.769 151.309 180.617 150.862C182.291 149.982 182.579 147.41 180.594 146.706C179.509 146.322 178.357 146.698 178.093 147.671C178.012 147.679 177.935 147.686 177.867 147.688C176.911 147.724 175.953 147.751 174.997 147.781C172.923 147.846 170.85 147.913 168.777 147.978C164.949 148.097 161.121 148.207 157.292 148.308C149.476 148.514 141.659 148.682 133.842 148.812C118.363 149.068 102.887 149.305 87.4104 149.657C79.4408 149.839 71.4735 150.074 63.5048 150.275C63.6951 145.506 63.8749 140.738 64.0369 135.969C64.0558 135.41 64.0765 134.85 64.0969 134.291C65.2388 134.541 66.4081 134.679 67.5714 134.843C69.5902 135.127 71.6151 135.338 73.6424 135.551C77.4624 135.952 81.2948 136.198 85.1289 136.408C92.9457 136.837 100.765 137.14 108.59 137.377C124.068 137.846 139.566 137.948 155.051 137.895C163.46 137.867 171.92 137.977 180.324 137.612C180.842 137.753 181.376 137.739 181.892 137.571C182.316 145.026 182.764 152.48 183.204 159.935C183.501 164.964 183.763 170.011 184.127 175.042C183.415 174.693 182.76 174.495 181.903 174.503ZM36.1858 98.7591C34.7112 98.0413 33.0849 97.3863 31.7831 96.3694C30.3601 95.2575 30.0107 93.9522 30.448 92.2075C30.4806 92.0771 30.519 91.9475 30.5531 91.8175C41.0393 91.8431 51.4988 91.3839 61.9804 91.1362C72.6295 90.8848 83.2748 90.6734 93.9268 90.6137C115.17 90.4948 136.411 90.9715 157.644 91.5649C165.291 91.7784 172.937 91.989 180.585 92.1968C180.41 94.0518 180.477 95.9525 180.438 97.7944C180.403 99.4123 180.412 101.033 180.436 102.653C176.436 102.643 172.436 102.557 168.435 102.512C158.53 102.401 148.631 102.684 138.728 102.909C118.924 103.36 99.1148 103.715 79.3144 104.308C73.9366 104.469 68.5242 104.554 63.1216 104.783C62.9358 103.909 62.7297 103.039 62.4971 102.175C62.1275 100.803 61.7104 99.3917 60.6051 98.4382C60.5521 98.3921 60.4786 98.4122 60.4549 98.4776C60.0351 99.6351 60.1412 100.814 60.2641 102.026C60.3613 102.985 60.427 103.945 60.4758 104.907C57.1164 105.083 53.764 105.33 50.4291 105.701C49.4755 105.232 48.5215 104.764 47.566 104.298C43.7732 102.451 39.9792 100.606 36.1858 98.7591ZM157.926 133.225C150.102 133.288 142.277 133.294 134.454 133.245C118.967 133.146 103.485 132.767 88.0011 132.461C83.6918 132.376 79.3882 132.291 75.0781 132.291C72.8468 132.291 70.608 132.306 68.3791 132.402C66.9762 132.463 65.5539 132.472 64.1576 132.639C64.3261 128.151 64.5015 123.658 64.496 119.168C79.2675 121.394 94.1976 122.005 109.115 122.443C124.228 122.887 139.345 123.117 154.464 123.139C158.761 123.145 163.058 123.135 167.354 123.11C169.423 123.098 171.492 123.082 173.561 123.063C174.673 123.053 175.791 123.075 176.902 123.028C178.077 122.979 178.787 122.702 179.607 121.871C180.027 121.445 180.049 120.711 179.607 120.288C178.143 118.882 176.419 119.187 174.515 119.21C172.606 119.234 170.696 119.254 168.787 119.272C164.968 119.306 161.148 119.328 157.329 119.338C149.849 119.357 142.37 119.328 134.891 119.252C119.775 119.098 104.663 118.764 89.5506 118.412C81.1959 118.217 72.843 118.271 64.495 118.674C64.4919 117.928 64.4849 117.182 64.4703 116.437C64.4153 113.613 64.1388 110.79 63.7064 107.997C67.7975 107.983 71.8884 107.896 75.9611 107.844C85.8645 107.718 95.7658 107.519 105.668 107.322C115.491 107.126 125.313 106.93 135.136 106.734C144.952 106.538 154.798 106.524 164.603 105.997C169.894 105.712 175.187 105.325 180.483 105.122C180.493 105.605 180.503 106.089 180.514 106.573C180.641 112.506 180.874 118.433 181.175 124.36C181.319 127.208 181.472 130.056 181.628 132.903C181.553 132.895 181.475 132.891 181.395 132.89C173.578 132.839 165.745 133.162 157.926 133.225ZM34.1204 81.6978C35.0161 79.4048 35.9891 77.1273 37.0408 74.8806C41.5059 76.1346 46.2689 76.7815 50.877 77.2121C55.7828 77.6708 60.6981 77.9285 65.624 78.0286C75.3352 78.2258 85.0464 77.7675 94.7472 77.3687C114.7 76.5489 134.652 75.9502 154.624 75.9118C160.201 75.9008 165.779 75.9266 171.356 75.9892C174.144 76.0204 176.932 76.0579 179.721 76.1055C181.155 76.1301 182.588 76.157 184.022 76.1864C184.657 76.1993 185.3 76.2461 185.934 76.227C186.783 76.2015 187.402 75.9476 188.19 75.6422C189.094 75.2918 189.627 73.7878 188.499 73.2895C187.372 72.7913 186.467 72.4995 185.217 72.4725C183.863 72.4436 182.509 72.4169 181.155 72.392C178.685 72.3471 176.215 72.3094 173.746 72.2788C168.727 72.2165 163.707 72.1902 158.687 72.1909C148.807 72.1921 138.928 72.3084 129.051 72.5396C109.221 73.0036 89.4361 74.3789 69.6139 74.969C64.1504 75.1318 58.6765 75.1636 53.2128 75.0005C47.9206 74.8426 42.6397 74.3994 37.354 74.2129C39.1798 70.3834 41.2455 66.654 43.5765 63.108C52.3879 63.416 61.1803 63.1882 69.9936 62.9212C74.6183 62.7811 79.243 62.639 83.8672 62.4811C86.1794 62.4023 88.4917 62.3235 90.8039 62.2447C91.9202 62.2065 93.0365 62.1685 94.1527 62.1305C95.3552 62.0895 96.6207 62.1668 97.7886 61.8523C98 61.7953 98.1681 61.6735 98.2945 61.5182C101.403 63.1094 104.691 64.3646 108.072 65.2947C115.411 67.3138 123.304 68.0713 130.894 67.4499C136.986 66.9513 143.056 65.4511 148.412 62.5138C160.507 63.6216 172.771 63.1011 184.891 63.0222C186.049 63.0148 186.531 61.9593 186.337 61.0886C190.227 69.4294 192.804 78.4718 195.215 87.267C196.714 92.733 198.047 98.2332 199.316 103.753C199.263 103.758 199.211 103.762 199.158 103.768C199.305 103.163 198.974 102.45 198.142 102.431C193.237 102.319 188.316 102.599 183.409 102.644C183.271 101.423 183.133 100.202 182.987 98.9809C182.789 97.3178 182.552 95.6589 182.35 93.9961C182.276 93.3931 182.208 92.8109 182.125 92.2382C186.01 92.3433 189.895 92.4496 193.78 92.5515C196.302 92.6179 196.297 88.7325 193.78 88.6561C172.43 88.0056 151.079 87.3484 129.722 86.9878C108.352 86.6268 86.9079 86.4042 65.5539 87.4943C53.9172 88.088 42.3092 88.882 30.8172 90.8407C31.7098 87.7415 32.955 84.6814 34.1204 81.6978ZM52.2942 52.1751C52.6808 52.4636 52.8047 52.6456 53.3826 52.7466C54.0092 52.8557 54.6537 52.8906 55.2863 52.9522C56.64 53.084 57.997 53.1332 59.3552 53.1972C62.0673 53.3254 64.7791 53.4611 67.4931 53.5432C72.8805 53.7059 78.3834 53.9363 83.7685 53.698C85.0859 53.6397 85.6852 52.5589 85.5654 51.574C86.5754 52.8185 87.6796 53.9867 88.8557 55.0518C90.7464 56.7638 92.7875 58.2814 94.9391 59.6206C93.5433 59.6715 92.1219 59.8456 90.8045 59.9019C88.572 59.997 86.3394 60.0922 84.1069 60.1878C79.4023 60.3888 74.6981 60.6047 69.9942 60.8235C61.2884 61.2282 52.6124 61.7321 43.9397 62.5584C46.4166 58.8548 49.1911 55.3613 52.2942 52.1751ZM193.987 70.1653C190.308 60.1192 185.566 49.6836 177.032 42.7836C172.645 39.2368 167.758 36.7833 162.224 35.6211C162.054 35.5852 161.986 35.8259 162.152 35.8802C171.723 39.0045 178.806 47.2714 183.597 55.7438C184.465 57.2791 185.27 58.8511 186.031 60.4468C185.783 60.1464 185.404 59.9465 184.891 59.9551C173.573 60.1442 162.122 59.9534 150.83 61.0536C151.118 60.8626 151.407 60.6718 151.689 60.4709C154.774 58.2835 157.55 55.6069 159.844 52.5755C161.226 52.9242 162.681 53.0092 164.091 53.1427C165.973 53.3206 167.868 53.402 169.756 53.5031C171.641 53.6036 173.533 53.6132 175.42 53.6585C176.717 53.6898 179.252 53.904 179.254 51.93C179.255 49.9539 176.718 50.1631 175.42 50.1889C173.533 50.2259 171.642 50.2314 169.756 50.3195C167.948 50.4036 166.13 50.4717 164.327 50.6326C163.228 50.7308 162.097 50.7952 160.991 50.9691C162.79 48.2985 164.222 45.3896 165.178 42.3215C165.274 42.0127 165.306 41.7242 165.29 41.457C165.696 41.0312 165.954 40.4478 165.954 39.9133C165.954 38.6424 164.959 37.8978 163.796 37.7653C159.191 37.2416 154.119 36.4953 150.408 33.4833C148.734 32.124 147.387 30.5171 146.119 28.7879C144.695 26.8442 144.161 24.3955 144.155 22.0163C144.155 21.8828 143.932 21.8424 143.912 21.9836C143.215 26.8072 144.22 32.3136 147.7 35.9277C151.116 39.4761 155.756 40.8053 160.466 41.5816C158.524 47.0997 155.319 51.9468 150.82 55.7583C145.806 60.0055 139.459 62.277 132.989 63.1343C126.008 64.0592 118.691 63.6096 111.826 62.0998C105.213 60.645 98.744 58.0435 93.3616 53.8918C90.6461 51.797 88.1481 49.3278 85.9715 46.6852C84.1751 44.5041 82.7976 42.0719 81.2556 39.7354C87.0088 41.3049 93.9647 39.1609 98.7838 36.1323C101.622 34.3489 104.109 32.1223 106.152 29.4735C107.16 28.167 108.056 26.7879 108.795 25.3132C109.18 24.5462 109.525 23.7572 109.843 22.9608C110.04 22.4688 110.233 21.9635 110.233 21.4226C110.231 21.0243 110.131 20.6532 109.93 20.3093C109.518 19.874 109.436 19.7479 109.684 19.9303C109.279 19.1055 108.108 18.8961 107.36 19.324C107.08 19.4838 106.424 19.793 106.101 20.3093C105.883 20.6584 105.766 21.0759 105.626 21.4589C105.405 22.0636 105.183 22.6613 104.906 23.2435C104.263 24.5961 103.492 25.8871 102.612 27.1005C101.003 29.3185 98.9362 31.3242 96.6845 32.8896C94.3206 34.5328 91.773 35.8761 89.0098 36.715C86.0913 37.6008 83.2025 37.8654 80.1914 38.1899C80.1592 38.1455 80.128 38.1008 80.0959 38.0566C80.0378 37.9769 79.9123 38.0027 79.9072 38.1075C79.9048 38.1576 79.906 38.2076 79.9046 38.2577C79.4752 38.4581 79.4397 39.0601 79.918 39.2913C80.0954 42.0626 81.2974 44.7919 82.6071 47.1902C83.1526 48.1892 83.769 49.157 84.4367 50.092C84.2391 50.017 84.0171 49.9695 83.768 49.9599C78.381 49.7545 72.8796 50.0191 67.4926 50.2152C64.8581 50.3112 62.2264 50.4581 59.594 50.5985C58.2372 50.6706 56.8771 50.7167 55.5251 50.8564C54.849 50.9263 54.1689 50.9813 53.4964 51.082C53.4476 51.0895 53.4023 51.0971 53.3596 51.1047C55.0233 49.4744 56.777 47.9301 58.6284 46.4891C64.7021 41.7617 71.6776 37.91 79.1203 35.8152C79.1908 35.7954 79.1805 35.6753 79.1025 35.6834C64.2993 37.1895 51.9685 46.4712 43.3426 58.1251C38.5564 64.5918 34.9263 71.7504 31.8026 79.1322C30.2281 82.853 28.7384 86.64 27.4909 90.4831C26.8568 92.436 26.5709 94.5077 27.4791 96.4239C28.1756 97.8939 29.4608 98.9865 30.808 99.8543C30.8975 99.9123 30.9897 99.9658 31.0802 100.022C29.703 104.796 28.7804 109.695 27.8953 114.578C26.9338 119.883 26.095 125.211 25.3745 130.553C23.9344 141.233 22.8314 151.935 22.3497 162.703C22.2165 165.681 22.1274 168.661 22.0885 171.642C22.0691 173.133 22.0777 174.624 22.0981 176.115C22.1214 177.784 21.8944 179.667 22.7481 181.156C23.8888 183.146 26.1043 182.461 27.0788 181.1C27.0929 181.118 27.1076 181.137 27.122 181.156C27.2103 180.983 27.2842 180.81 27.3473 180.638C27.4522 180.408 27.5206 180.169 27.5456 179.924C27.7292 179 27.6601 178.061 27.6526 177.057C27.6418 175.645 27.65 174.232 27.6541 172.819C27.662 170.152 27.6925 167.486 27.7688 164.819C27.9217 159.487 28.2202 154.16 28.6285 148.842C29.4397 138.277 30.6364 127.761 31.6605 117.217C32.1818 111.848 32.8106 106.466 32.9191 101.068C34.1832 101.731 35.4877 102.331 36.7494 102.97C39.0904 104.155 41.4312 105.341 43.772 106.527C46.0422 107.677 48.3158 108.819 50.5904 109.961C52.8839 111.112 55.162 112.634 57.7423 112.918C59.1217 113.069 59.6209 111.22 58.8082 110.357C57.7469 109.229 56.3376 108.529 54.9208 107.872C56.8032 107.941 58.688 107.978 60.5737 107.992C60.5996 110.353 60.5159 112.719 60.3968 115.074C60.104 120.852 59.6969 126.619 59.3115 132.392C58.5104 144.39 57.7349 156.395 57.1298 168.404C56.9818 171.346 56.8334 174.287 56.6851 177.229C56.6131 178.659 56.513 180.09 56.4722 181.522C56.4266 183.127 56.4662 185.14 57.9598 186.131C59.0149 186.831 60.1503 186.502 60.9423 185.539C62.0015 184.251 61.9998 182.386 62.085 180.806C62.1047 180.441 62.1222 180.076 62.1412 179.711C63.7588 179.919 65.3647 180.207 66.9893 180.365C68.9737 180.557 70.9706 180.671 72.9636 180.722C77.0276 180.826 81.0852 180.863 85.1504 180.863C93.1955 180.863 101.24 180.727 109.284 180.597C125.372 180.339 141.458 179.891 157.541 179.394C161.999 179.256 166.458 179.112 170.916 178.961C173.225 178.883 175.533 178.803 177.842 178.721C180.027 178.644 182.415 178.925 184.338 177.796C184.394 178.483 184.451 179.171 184.511 179.857C184.627 181.158 185.546 182.275 186.941 182.275C188.253 182.275 189.38 181.169 189.371 179.857C188.882 167.992 187.821 156.127 186.982 144.282C186.211 133.403 185.488 122.508 184.385 111.655C184.698 111.856 185.08 111.981 185.531 111.983C186.972 111.989 188.41 111.1 189.758 110.627C191.118 110.15 192.5 109.738 193.902 109.399C194.731 109.199 195.564 109.031 196.399 108.888C196.298 110.586 196.324 112.299 196.293 113.991C196.244 116.592 196.163 119.192 196.099 121.792C195.974 126.916 195.93 132.04 195.831 137.164C195.633 147.493 195.307 157.817 194.752 168.133C194.599 170.968 194.428 173.802 194.238 176.635C194.137 178.13 194.032 179.624 193.921 181.118C193.812 182.587 193.557 184.148 194.113 185.555C194.131 185.545 194.148 185.535 194.166 185.525C194.553 186.737 196.257 187.319 197.062 185.939C198.317 183.789 198.028 180.706 198.172 178.287C198.326 175.691 198.465 173.093 198.588 170.495C198.834 165.299 199.004 160.101 199.103 154.899C199.301 144.494 199.267 134.074 198.628 123.684C198.453 120.843 198.208 118.008 197.957 115.173C197.768 113.048 197.664 110.865 197.331 108.739C198.96 108.5 200.602 108.362 202.26 108.321C203.865 108.281 204.899 106.841 204.559 105.317C201.896 93.381 198.19 81.647 193.987 70.1653Z" fill="black"/>
</svg>
