<svg width="100" height="91" viewBox="0 0 100 91" fill="none" xmlns="http://www.w3.org/2000/svg">
<path fill-rule="evenodd" clip-rule="evenodd" d="M48.1503 6.82095C49.5228 6.44102 51.1007 6.48524 52.5088 6.58237C53.9389 6.68113 55.4734 6.85046 56.8153 7.3844C57.9818 7.84859 58.9655 8.62917 59.5649 9.74771C60.0577 10.6672 60.2888 11.6756 60.4337 12.6999C60.4929 13.1191 60.5425 13.5392 60.5897 13.9598L60.6866 14.8348C60.7246 15.1693 60.7578 15.4202 60.8243 15.7934C61.0085 16.8259 61.2649 17.6885 61.8375 18.4396C63.224 20.2582 65.488 20.8669 67.5469 21.6431C68.8644 22.1397 69.9076 23.0332 70.1971 24.4688C70.4763 25.8538 81.0941 37.4734 82.1365 38.4529L82.1651 38.4793C82.9737 39.2073 82.8785 40.5758 82.9917 41.5749C83.1129 42.6462 83.2283 43.7182 83.3379 44.7906C83.5604 46.9694 83.7586 49.1505 83.9325 51.3334C84.6125 59.8709 84.9211 68.4381 84.8555 77.0023L84.8514 77.487C84.8413 78.5739 84.8493 79.6656 84.8006 80.7514C84.7538 81.795 84.438 82.8395 83.471 83.3846C82.5751 83.8896 81.4423 83.8451 80.4411 83.8956L80.3812 83.8987C79.3069 83.9575 78.2322 84.0057 77.157 84.0456C72.7872 84.2072 68.4134 84.2247 64.0411 84.2046C55.3672 84.1647 46.6845 83.974 38.0187 84.4596C35.8097 84.5834 28.7674 83.8312 26.5654 84.0456C24.4607 84.2503 26.2665 85.2826 24.9663 85.2146C20.6903 84.9909 16.6343 84.0368 12.5374 82.8875C12.0256 82.744 11.6343 82.2474 11.6407 81.7105C11.7168 75.8136 11.8833 69.9183 12.1434 64.0268C12.3751 58.7787 12.6805 53.5339 13.0593 48.2944C13.224 46.0169 13.4025 43.7404 13.5949 41.4651L13.6782 40.4901C13.7869 39.2326 13.8494 37.9521 14.0966 36.7122C14.3412 35.4858 14.8961 34.4223 15.7007 33.4721C16.4227 32.6196 24.5967 25.9459 26.5654 24.6825C28.4497 23.4731 30.4284 22.4528 32.3628 21.3319C33.1676 20.8656 33.9405 21.0334 34.6281 20.4609C34.9906 20.1592 40.25 18.126 41.6689 17.4551L41.7108 17.4352C42.7968 16.9141 43.7963 16.3491 44.5467 15.4481C44.7983 15.1461 45.2917 13.2433 45.2926 12.6354C45.2943 11.5493 45.212 10.4052 45.5396 9.35318C45.9314 8.09513 46.8757 7.17371 48.1503 6.82095ZM50.4778 34.8243L42.0737 51.1908H47.5385L43.6213 60.2843H52.2237L49.1722 73.0214L66.6231 51.1908H60.0746L66.6231 42.5956H62.0812L66.6231 35.3166L50.4778 34.8243Z" fill="white"/>
<path fill-rule="evenodd" clip-rule="evenodd" d="M78.7079 44.0277C78.6885 44.047 78.6681 44.0665 78.6487 44.0869C78.6712 44.0553 78.6906 44.0225 78.7079 43.9899V44.0277ZM62.3746 39.2601C61.6199 40.2243 60.8212 42.1862 60.0879 43.1677C59.9827 43.3086 59.8796 43.4496 59.7774 43.5915C59.4731 44.0173 59.8796 44.6689 60.38 44.6415C61.3799 44.5883 62.3787 44.5138 63.3775 44.4382C61.3257 46.7248 59.6222 49.5652 57.7379 51.9876C57.6102 52.15 57.4846 52.3135 57.359 52.4768C56.882 53.0988 57.36 53.3808 58.0116 53.2132C58.1464 53.1786 58.2812 53.1439 58.416 53.1102C59.3638 52.8671 60.3106 52.624 61.2583 52.382C61.7823 52.247 62.3093 52.0807 62.8403 51.9775C63.0589 51.9357 63.2683 51.9704 63.4746 51.9816C63.3755 52.1327 63.2366 52.4054 63.209 52.4472C62.8996 52.9293 62.5881 53.4093 62.2745 53.8873C61.6638 54.8168 61.05 55.745 60.4137 56.6571C57.9319 60.2132 55.2551 63.6082 52.6017 67.0347C51.9338 67.8965 51.2567 68.7494 50.5683 69.5941C50.5714 69.5889 50.5734 69.5837 50.5765 69.5787C51.1964 68.3715 51.8163 67.1654 52.4363 65.9581C53.6149 63.6643 54.7822 61.3644 55.9731 59.0766C56.0343 58.9571 56.0966 58.8387 56.1589 58.7192C56.4061 58.2452 56.0006 57.753 55.493 57.853C53.0168 58.3409 50.5645 58.9404 48.1427 59.6503C48.0337 59.7664 47.8735 59.8004 47.7304 59.7723C47.6331 59.8015 47.5353 59.8294 47.438 59.859C47.4675 59.7978 47.498 59.7372 47.5278 59.6762C47.4288 59.5903 47.3796 59.4572 47.4439 59.291C48.8375 55.6952 50.7482 52.2239 53.012 49.0447C52.9209 49.0465 52.83 49.0478 52.7386 49.0505C50.2537 49.1179 47.8159 49.4743 45.4209 50.1513C45.4097 49.9297 45.5435 49.5866 45.616 49.4232C45.906 48.7705 46.239 48.1332 46.5505 47.4908C47.1878 46.1713 47.8251 44.8529 48.4624 43.5332C49.0854 42.2444 49.7033 40.9515 50.2895 39.6442C50.5969 38.9588 50.9043 38.2725 51.2107 37.5863C51.4609 37.0275 51.658 36.4648 51.8654 35.8929C52.4741 36.0717 60.2901 36.1104 62.1898 36.2422C62.6555 36.2749 63.1222 36.3045 63.589 36.3301C63.9607 36.3515 64.4846 36.4332 64.741 36.0972L64.838 36.1788C63.9944 37.1879 63.1855 38.2246 62.3746 39.2601V39.2601ZM31.8596 20.5131C31.8984 20.4957 31.9362 20.4783 31.974 20.461C31.9934 20.4886 32.0169 20.5141 32.0414 20.5396C32.1026 20.6019 32.1629 20.6692 32.2262 20.7306C32.1037 20.659 31.9811 20.5865 31.8596 20.5131V20.5131ZM86.4832 77.9095C86.4127 76.4214 86.3341 74.9333 86.2503 73.4453C86.0849 70.5367 85.9143 67.628 85.6866 64.7234C85.2239 58.8376 84.7929 52.9537 84.0994 47.0894C83.8084 44.6311 83.4019 42.1913 82.9944 39.7503C83.0465 39.7033 83.0996 39.6563 83.1517 39.6105C83.0955 40.2783 84.0024 40.7012 84.4518 40.0352C84.4855 39.9853 84.5182 39.9352 84.5509 39.8832C84.94 39.254 85.8367 36.1675 85.7744 35.9061C85.662 35.4353 85.3495 35.0166 85.1054 34.602C84.892 34.2393 84.6765 33.8767 84.4579 33.5173C84.0218 32.7972 83.5724 32.0844 83.1016 31.3868C82.1263 29.9428 81.06 28.5558 79.8038 27.3435C78.5037 26.0873 77.0116 25.0547 75.4704 24.1183C74.73 23.6688 73.966 23.2614 73.1878 22.8813C72.4198 22.5075 71.5792 22.0939 70.752 21.8815C70.705 21.8692 70.657 21.9347 70.6999 21.9694C70.9195 22.143 71.1493 22.3064 71.3831 22.4636C70.7499 22.2442 70.0973 22.0857 69.4396 22.0296C68.166 21.5822 66.8771 21.1728 65.6097 20.706C64.3637 20.2464 63.1361 19.7297 62.3078 18.641C61.6 17.7105 61.1527 16.5718 60.8085 15.4627C60.4306 14.2402 60.2805 12.9696 59.9312 11.745C59.9036 11.6459 59.7413 11.6347 59.7198 11.745C59.4706 13.0298 59.4818 14.474 59.6238 15.771C59.7729 17.1314 60.1559 18.4663 60.9893 19.5724C61.9575 20.8582 63.2709 21.5741 64.7487 22.145C65.9406 22.6067 67.1478 23.0764 68.3682 23.489C68.2089 23.5933 68.0476 23.6974 67.8811 23.7964C67.2193 24.1897 66.5309 24.539 65.8272 24.8526C64.5424 25.4254 63.1892 25.8545 61.8278 26.2027C59.2939 26.8481 56.6957 27.176 54.0832 27.2189C48.8562 27.3058 43.5709 26.2109 38.7902 24.0968C37.4441 23.5014 36.1297 22.8466 34.8285 22.1594C34.422 21.9448 34.0135 21.7283 33.607 21.5056C33.6407 21.5037 33.6755 21.5006 33.7092 21.4975C34.6171 21.4118 35.5138 21.2371 36.3921 20.99C38.1906 20.4824 39.9146 19.6909 41.6079 18.9115C43.0439 18.2507 44.5228 17.498 45.4001 16.1214C45.8688 15.3851 46.0843 14.521 46.259 13.6754C46.454 12.7337 46.6838 11.7879 46.8258 10.8372C46.8758 10.5042 46.8013 10.0538 46.4438 9.89655C46.3009 9.83415 46.1834 9.78308 46.0231 9.78308C45.6687 9.78308 45.3051 10.0406 45.2203 10.3939C45.0109 11.2753 44.8843 12.1812 44.7199 13.0717C44.5779 13.8418 44.4482 14.6456 44.0325 15.3227C43.3064 16.5085 41.8827 17.115 40.6796 17.6922C39.1548 18.4234 37.6289 19.1362 36.0449 19.7297C35.3473 19.991 34.6375 20.2281 33.9175 20.422C33.9461 20.2455 33.9216 20.0595 33.8174 19.9196C33.6438 19.6887 33.4467 19.5355 33.223 19.359C32.9799 19.1669 32.6531 19.0669 32.3661 19.1516C32.3661 19.1526 32.3651 19.1516 32.3651 19.1516C32.2487 19.1261 32.12 19.1362 31.9872 19.1965C31.5767 19.3845 31.1671 19.5744 30.7576 19.7675C24.8657 22.5393 19.1412 25.7951 14.8058 30.7536C14.1807 31.4685 13.5955 32.2203 13.0471 32.9954C12.514 33.7482 11.8542 34.5652 11.7071 35.4986C11.6949 35.5763 11.8082 35.612 11.8276 35.5323C11.8624 35.3883 11.9093 35.2473 11.9676 35.1105C11.846 35.5354 11.8532 35.9869 12.0248 36.431C12.228 36.9539 12.6008 37.3003 13.0716 37.438C12.5987 39.5104 12.2811 41.6102 12.0258 43.7334C11.6591 46.7922 11.3987 49.8583 11.2026 52.9323C10.8104 59.0674 10.6358 65.233 10.7624 71.3793C10.7982 73.1164 10.8574 74.8537 10.9473 76.59C10.9922 77.4581 11.0412 78.3251 11.0974 79.1932C11.1526 80.0471 11.1076 80.9877 11.8522 81.4381C11.8613 81.4718 11.8716 81.5044 11.8807 81.5381C12.0615 82.1682 12.8673 81.9661 12.9429 81.3941C12.9439 81.3881 12.945 81.3808 12.946 81.3748C13.5547 80.9101 13.4628 80.1359 13.4178 79.3933C13.3698 78.5917 13.3188 77.791 13.2759 76.9903C13.1942 75.4542 13.1247 73.9182 13.0624 72.381C12.9409 69.3416 12.8724 66.2982 12.85 63.2567C12.805 57.1728 13.1564 51.098 13.5731 45.0316C13.7477 42.4935 13.952 39.9668 14.0143 37.4299C14.3401 37.2603 14.4401 36.7784 14.2767 36.4536C18.1352 39.0864 21.7159 42.2341 24.5909 45.8925C25.0709 46.5032 25.5295 47.1323 25.9687 47.7728C26.1116 47.981 26.2475 48.1976 26.3843 48.414C26.2516 49.0176 26.1484 49.6314 26.0136 50.2105C25.7358 51.4066 25.6184 52.6474 25.459 53.8628C25.1353 56.3313 24.9075 58.8222 24.7145 61.3039C24.3346 66.2052 24.0527 71.1055 23.9638 76.0211C23.9148 78.801 23.8495 81.5983 23.972 84.3774C23.8811 84.9207 24.3703 85.4518 24.882 85.5203C25.3303 85.5804 25.7491 85.3477 25.9452 84.9728C27.3423 85.1464 28.7762 85.2261 30.1642 85.2362C32.0342 85.2495 33.9042 85.2476 35.7742 85.2076C39.5153 85.1259 43.2553 85.03 46.9953 84.9187C54.4754 84.6981 61.9554 84.4765 69.4365 84.2549C71.5108 84.1935 73.5851 84.1323 75.6594 84.071C76.5949 84.0435 77.7612 84.313 78.4986 83.591C78.6252 83.4663 78.7233 83.3203 78.7927 83.164C79.0133 83.2192 79.284 83.165 79.429 82.9945C79.6996 82.6748 79.8988 82.3787 79.8886 81.9355C79.8794 81.5207 79.765 81.0837 79.7058 80.6731C79.5934 79.9021 79.4852 79.1309 79.382 78.3588C79.1788 76.8329 78.9888 75.3052 78.8142 73.7762C78.4567 70.65 78.1319 67.5166 77.8787 64.3801C77.3762 58.1778 77.2342 51.9428 77.2516 45.7209C77.2536 45.1643 77.2567 44.6077 77.2597 44.051C77.2832 44.0807 77.3088 44.1082 77.3363 44.1318C77.3588 44.1511 77.3813 44.1705 77.4037 44.191C77.6652 44.4208 78.1003 44.5393 78.4138 44.3218C78.7989 44.0725 79.0644 43.6987 79.3647 43.3607C79.6802 43.0063 80.005 42.661 80.3329 42.318C80.9681 41.6541 81.6248 41.0177 82.2948 40.3886C82.3489 40.3387 82.403 40.2876 82.4572 40.2385C82.4613 42.2188 82.4592 44.1982 82.5123 46.1775C82.592 49.1178 82.7513 52.0551 82.8974 54.9914C83.1874 60.8056 83.4877 66.6178 83.7767 72.4311C83.8574 74.0541 83.934 75.6778 84.0147 77.3007C84.0555 78.1126 84.0954 78.9246 84.1342 79.7366C84.1546 80.1757 84.175 80.616 84.1954 81.0551C84.2179 81.527 84.1883 82.0314 84.3476 82.4798C84.7102 83.5051 86.2769 83.6502 86.5782 82.4798C86.7671 81.7455 86.6221 80.8957 86.5884 80.142C86.5536 79.3986 86.5189 78.6539 86.4832 77.9095V77.9095Z" fill="black"/>
</svg>
