<svg width="317" height="341" viewBox="0 0 317 341" fill="none" xmlns="http://www.w3.org/2000/svg">
<circle cx="160.5" cy="154.5" r="154.5" fill="#FFE8E8"/>
<g clip-path="url(#clip0)">
<path fill-rule="evenodd" clip-rule="evenodd" d="M254.343 338.16C253.667 331.877 253.25 325.551 253.011 319.237C252.772 312.931 253.084 306.547 253.222 300.238C253.501 287.405 253.955 274.54 252.934 261.726C251.969 249.616 249.753 237.59 246.256 225.953C244.553 220.286 242.758 214.391 239.957 209.155C237.141 203.89 232.68 200.384 227.78 197.169C222.562 193.746 217.387 190.258 212.19 186.804C207.828 183.904 199.977 180.528 196.398 176.651C192.632 172.572 191.924 162.46 189.416 157.627C186.973 152.92 180.059 149.85 174.735 149.85C165.923 149.85 159.246 149.399 152 157.554C148.385 161.623 151.262 165.736 147.472 169.641C143.988 173.232 135.079 176.921 130.589 179.005C125.211 181.5 119.697 183.703 114.103 185.665C108.397 187.667 102.547 189.159 96.8091 191.048C91.309 192.859 84.1271 200.324 79.8572 204.273C75.8876 207.945 74.9024 207.534 71.8845 211.995C65.2612 221.784 58.6307 231.686 53.3564 242.286C50.7293 247.565 48.1855 253.119 47.2323 258.983C46.2155 265.237 47.2236 271.28 48.8725 277.336C50.5509 283.498 55.8807 289.365 57.617 295.511C58.4172 298.344 55.6705 301.435 56.9339 304.105C57.5649 305.438 58.3595 306.624 59.2642 307.786C59.9613 308.681 62.6796 308.483 63.0314 309.578C63.3867 310.685 61.42 312.98 61.3908 314.126C61.3492 315.764 61.284 317.403 61.2302 319.041L60.9125 328.729C60.7038 335.095 60.495 341.461 60.2862 347.827C60.218 349.905 60.1185 351.936 60.6165 353.908C60.4367 353.741 60.2659 353.559 60.1098 353.356C59.653 352.759 58.6842 353.265 59.0719 353.963C59.7191 355.127 60.6497 355.947 61.7431 356.536C63.0137 358.41 255.442 362.595 256.389 357.117C256.92 354.043 255.953 350.752 255.567 347.697C255.164 344.516 254.686 341.349 254.343 338.16Z" fill="white"/>
<path fill-rule="evenodd" clip-rule="evenodd" d="M58.8719 258.994C59.3426 257.645 61.4959 258.229 61.0218 259.586C58.5848 266.57 60.3136 274.169 62.9483 280.835C63.477 282.173 61.3198 282.747 60.7983 281.428C58.0268 274.416 56.3122 266.327 58.8719 258.994ZM75.2125 298.882C82.0855 299.849 88.9641 300.446 95.8845 300.928C96.1939 300.951 96.4614 300.904 96.6928 300.803C96.4865 303.973 96.3193 307.146 96.1883 310.319C94.3014 310.266 92.3755 310.392 90.5054 310.341C88.0611 310.274 85.6196 310.152 83.1809 309.965C78.4595 309.608 73.7465 309.039 69.0781 308.253C67.3334 307.96 65.1176 307.782 63.1304 307.202C61.2519 306.653 59.5796 305.744 58.7017 304.032C57.9548 302.582 57.8182 300.806 57.8182 299.203C57.8182 298.098 58.0077 296.978 58.122 295.865C58.2641 295.765 58.3923 295.645 58.4955 295.511C60.5691 296.166 62.7207 296.626 64.8278 297.072C68.2587 297.803 71.7398 298.394 75.2125 298.882ZM71.336 273.102C71.3739 275.233 71.9633 277.169 73.1102 278.963C73.8862 280.177 71.9555 281.294 71.1849 280.089C69.8348 277.976 69.1509 275.605 69.1063 273.102C69.0806 271.663 71.3103 271.668 71.336 273.102ZM247.517 296.35C248.447 296.402 249.384 296.434 250.317 296.484C251.141 297.188 252.281 297.549 253.322 297.325C253.357 297.415 253.39 297.516 253.42 297.633C253.604 298.349 253.696 299.119 253.802 299.849C253.908 300.569 253.988 301.294 254.044 302.019C254.072 302.384 254.248 303.209 254.025 303.527C253.824 303.814 253.381 303.789 253.074 303.825C252.249 303.915 251.413 303.957 250.583 304.026C249.014 304.163 247.444 304.299 245.878 304.436C244.342 304.57 242.656 304.528 241.154 304.933C240.897 301.918 240.663 298.905 240.446 295.887C242.773 296.231 245.206 296.222 247.517 296.35ZM52.386 291.351C53.3225 293.161 54.1865 294.939 55.9786 296.027C56.2127 296.166 56.4747 296.242 56.7423 296.261C56.5416 297.123 56.4162 298.004 56.3047 298.818C56.0594 300.611 56.0065 302.465 56.4552 304.233C56.8928 305.953 57.6174 307.489 59.0388 308.591C59.6994 309.104 60.4212 309.494 61.1793 309.803C61.0511 310.163 60.9759 310.52 61.0149 310.913C60.8337 311.825 60.7139 312.754 60.5829 313.643C60.2958 315.617 60.0088 317.594 59.783 319.579C59.3315 323.527 58.9775 327.475 58.6793 331.437C58.3811 335.388 58.1665 339.345 57.9881 343.304C57.8961 345.328 57.8153 347.352 57.7401 349.379C57.6648 351.462 57.3276 353.592 58.2473 355.525C58.9887 357.086 61.4943 356.996 62.2635 355.525C63.239 353.653 62.9519 351.431 62.977 349.379C63.0021 347.447 63.0356 345.512 63.0774 343.58C63.161 339.623 63.2836 335.669 63.3812 331.713C63.4759 327.852 63.593 323.992 63.671 320.131C63.71 318.109 63.7128 316.088 63.724 314.066C63.7295 312.946 63.7769 311.75 63.6933 310.581C64.3901 310.746 65.0924 310.885 65.7864 311.027C71.0847 312.115 76.4388 312.907 81.8262 313.397C84.5325 313.643 87.2472 313.816 89.9618 313.913C91.9574 313.986 94.0254 314.125 96.0516 314.05C95.8928 318.89 95.8203 323.733 95.8287 328.577C95.8342 332.07 95.8816 335.564 95.968 339.057C96.0154 340.895 96.0544 342.732 96.1102 344.569C96.1352 345.395 96.1352 346.228 96.191 347.051C96.2077 347.307 96.2439 347.556 96.2913 347.801C96.1074 348.323 95.9541 348.838 95.8287 349.321C95.2155 351.663 95.2155 353.913 95.4886 356.299C95.7228 358.324 97.4257 360.2 99.6749 359.489C100.04 359.375 100.405 359.255 100.767 359.132C104.078 359.509 107.409 359.595 110.768 359.659C115.676 359.754 120.587 359.785 125.497 359.81C135.13 359.86 144.765 359.885 154.4 359.913C173.762 359.969 193.124 360.022 212.486 360.077C217.859 360.094 223.233 360.108 228.606 360.125C231.388 360.133 234.164 360.136 236.943 360.242C238.239 360.292 239.537 360.362 240.833 360.382C242.336 360.407 243.665 359.974 245.101 359.581C245.912 359.355 246.232 358.541 246.059 357.853C247.358 358.162 248.933 357.504 249.376 356.04C249.699 354.978 249.579 353.826 249.097 352.842V352.839C248.166 346.959 246.985 341.106 246.057 335.223C245.039 328.78 244.061 322.323 243.2 315.854C242.553 310.969 242.021 314.432 241.561 309.525C243.565 309.681 245.831 309.07 247.815 308.811C249.239 308.627 250.675 308.479 252.102 308.284C251.996 309.722 252.027 311.189 251.988 312.569C251.912 315.31 251.946 318.04 252.015 320.781C252.149 326.07 252.447 322.992 252.924 328.258C253.406 333.564 253.997 338.851 254.713 344.132C255.081 346.85 255.474 349.566 255.889 352.279C256.082 353.545 256.28 354.808 256.483 356.074C256.726 357.565 256.804 358.979 257.921 360.1C258.771 360.95 260.508 360.878 261.071 359.693C261.784 358.195 261.461 356.913 261.196 355.34C260.982 354.077 260.775 352.814 260.572 351.551C260.137 348.844 259.725 346.134 259.337 343.421C258.59 338.193 257.885 332.957 257.255 327.715C256.62 322.431 255.962 325.518 255.338 320.234C255.023 317.568 254.708 314.909 254.34 312.252C254.153 310.885 254.036 309.43 253.791 308.022C253.869 308.011 253.947 307.997 254.025 307.983C255.719 307.673 257.166 306.717 257.592 304.971C257.999 303.301 257.514 301.38 257.172 299.741C256.879 298.345 256.614 296.562 255.716 295.366C258.882 291.331 260.941 286.255 262.255 281.374C263.686 276.056 264.285 270.506 264.412 265.011C264.559 258.645 264.079 252.316 262.989 246.091C262.963 244.772 262.902 243.454 262.804 242.137C261.846 229.211 257.821 213.912 245.062 207.872C245.011 207.848 244.958 207.825 244.905 207.803C243.905 206.607 242.656 205.53 241.647 204.524C239.861 202.739 237.993 201.033 236.015 199.46C232.096 196.346 227.798 193.859 223.33 191.62C218.813 189.353 214.228 187.226 209.813 184.753C205.967 182.595 202.505 179.996 199.219 177.063C195.526 173.764 192.898 169.317 191.867 164.463C191.814 164.21 191.438 164.279 191.432 164.522C191.162 173.419 197.165 181.281 204.074 186.256C212.335 192.197 222.31 195.01 230.688 200.771C232.77 202.202 234.719 203.816 236.572 205.53C233.732 205.24 230.842 205.424 228.18 206.211C227.132 206.147 226.079 206.127 225.028 206.077C222.625 205.957 220.22 205.846 217.815 205.739C212.912 205.522 208.007 205.324 203.102 205.151C193.478 204.811 183.851 204.554 174.224 204.385C154.879 204.041 135.509 203.975 116.166 204.535C110.921 204.686 83.3396 203.64 80.7866 203.935C84.5409 200.684 88.6602 198.03 93.1893 195.847C98.8555 193.123 104.711 191.305 110.762 189.643C123.223 186.222 136.164 182.924 146.136 174.233C148.614 172.072 150.816 169.588 152.619 166.836C154.341 164.21 156.256 160.847 156.303 157.643C156.337 155.368 153.171 154.54 152.045 156.489C151.345 157.696 150.999 159.02 150.428 160.286C149.86 161.541 149.185 162.751 148.435 163.908C146.961 166.184 145.133 168.213 143.143 170.045C138.901 173.954 133.761 176.817 128.443 178.984C116.37 183.899 103.164 185.974 91.7233 192.454C86.7176 195.289 81.9266 199.201 78.9193 204.192C78.4343 204.268 77.9522 204.357 77.47 204.457C77.8295 204.002 78.1918 203.548 78.557 203.096C78.7966 202.801 78.426 202.411 78.1333 202.672C72.4448 207.736 67.2051 213.203 62.4558 219.165C57.9129 224.869 53.6764 230.847 50.6775 237.528C45.2873 249.528 44.0999 263.254 46.8843 276.086C47.6424 279.582 48.7126 283.006 50.0755 286.316C50.7779 288.025 51.5387 289.709 52.386 291.351Z" fill="black"/>
<path fill-rule="evenodd" clip-rule="evenodd" d="M175.191 41.0743C191.016 41.0743 210.837 59.1337 216.638 66.8187C221.515 73.2799 220.825 106.566 220.825 126.311C220.825 130.44 218.959 138.256 218.282 142.206C215.8 156.681 204.985 168.821 183.58 168.821C166.152 168.821 152.74 163.298 139.77 149.173C136.811 145.951 122.36 157.487 119.405 153.333C111.685 153.333 105.231 81.1803 120.387 59.5388C135.543 37.8973 159.366 41.0743 175.191 41.0743Z" fill="white"/>
<path fill-rule="evenodd" clip-rule="evenodd" d="M127.627 46.1567C136.771 37.8339 148.954 33.83 161.245 34.1256C167.611 34.2789 173.954 35.4918 179.966 37.569C182.973 38.6118 185.886 39.9724 188.67 41.5115C189.673 42.0649 190.598 42.7133 191.489 43.4018L191.711 43.5748H191.714C194.102 44.4336 196.234 45.9754 198.168 47.7794C202.045 47.4699 205.953 47.8184 209.702 49.0146C214.919 50.6819 219.749 53.735 223.141 58.0706C227.092 63.1182 228.405 69.2408 227.937 75.5612L227.85 76.6349C227.387 82.2181 226.557 89.3995 221.976 93.0681C221.628 93.3469 221.243 93.5588 220.844 93.6871C223.796 98.7449 226.218 104.36 227.667 110.031C233.2 131.693 228.946 154.283 222.294 175.161C221.747 176.881 219.147 178.024 217.823 176.343C215.46 173.338 212.026 171.046 208.163 170.616C205.78 170.351 203.408 170.831 201.156 169.749C200.273 169.323 199.42 168.625 198.807 167.778C195.005 169.219 190.911 169.9 186.85 169.732C180.186 169.459 173.062 167.151 168.477 162.087C167.742 161.274 167.555 160.362 167.725 159.539C168.3 159.334 168.89 159.181 169.498 159.086C175.312 162.513 181.721 164.804 188.608 164.948C192.588 165.031 196.47 164.474 199.697 161.988C200.395 161.45 201.037 160.854 201.631 160.214C208.377 155.872 213.134 148.498 215.396 140.599C217.503 133.232 217.243 125.562 216.519 118.006L216.136 114.018C215.579 108.166 215.062 102.297 214.917 96.4195L214.961 96.4173C216.386 96.3253 216.396 94.0939 214.961 94.1867C211.249 94.4271 207.565 93.8178 203.864 94.0833C203.833 92.3331 203.707 90.5908 203.193 88.9028C202.9 87.9384 201.221 87.7482 201.043 88.9028C200.805 90.4475 200.718 91.9835 200.692 93.5351C195.154 93.4615 189.621 92.9953 184.082 93.1869C183.06 92.0967 182.735 90.1636 182.257 88.8189C182.187 88.6209 182.118 88.4257 182.045 88.2278C181.625 90.1494 181.03 92.0289 180.247 93.8689L178.888 93.8735C171.18 93.9096 163.316 94.1401 155.789 95.7414C155.266 95.3396 154.955 94.6387 154.871 94.0021C154.325 89.8601 153.546 85.8281 152.165 81.8808L151.967 81.3239C151.951 81.2777 151.934 81.2286 151.916 81.177C150.899 82.8201 149.685 84.3516 148.36 85.7778C147.58 86.6184 146.762 87.4223 145.922 88.2032C145.106 89.1094 144.263 90.0019 143.446 90.9109C143.478 91.0762 143.506 91.2441 143.528 91.415C143.778 93.3012 143.804 95.2142 143.621 97.1076C143.29 100.531 142.324 103.829 140.772 106.881L140.723 107.186C140.487 108.616 140.152 110.094 139.369 111.171C140.346 112.266 141.099 113.574 141.536 115.028C141.924 116.322 140.134 117.443 139.206 116.384C138.469 115.543 137.65 114.847 136.75 114.291C136.694 114.369 136.591 114.406 136.476 114.342C133.97 112.951 129.714 113.372 127.212 114.682C124.098 116.311 122.883 119.654 123.229 123.041C123.56 126.278 124.976 130.062 127.722 131.721C128.981 132.482 129.962 132.546 131.3 132.181C131.728 132.065 132.258 131.708 132.486 131.531L132.71 131.352C133.587 130.658 134.404 130.183 135.439 130.165C136.498 129.835 137.562 130.293 137.967 131.404L137.992 131.476C138.182 132.042 138.527 132.753 138.452 133.617C138.374 134.543 137.95 135.385 137.318 136.062C137.209 136.179 137.092 136.296 136.972 136.405C147.87 148.207 149.269 166.598 143.681 181.342C143.438 181.989 143.179 182.628 142.909 183.261C141.975 185.43 138.379 184.758 137.922 182.608C137.786 181.964 137.635 181.323 137.471 180.687C137.169 179.512 136.822 178.349 136.432 177.202L136.284 176.773C135.952 175.825 135.643 174.868 135.308 173.92L135.275 173.812C135.262 173.769 135.248 173.72 135.233 173.664L134.667 174.899L132.947 178.627C132.143 180.366 129.586 179.421 129.491 177.745L129.489 177.687C129.48 177.378 129.469 177.071 129.45 176.767C129.327 174.489 128.934 172.275 128.31 170.109L128.084 170.389C124.73 174.537 120.794 178.425 115.394 179.382C114.04 179.622 112.507 178.206 113.438 176.837C113.822 176.271 114.193 175.691 114.544 175.102C114.24 174.96 113.953 174.812 113.688 174.662C111.64 173.51 109.934 171.871 108.524 170.011C105.533 166.069 104.463 161.106 104.201 156.249C103.922 151.116 104.374 145.704 105.776 140.752C106.383 138.611 107.206 136.556 108.156 134.562C108.089 134.384 108.025 134.205 107.961 134.027C106.935 131.166 106.094 128.241 105.394 125.283C103.984 119.311 103.226 113.149 103.134 107.012C102.966 96.018 104.862 84.8485 108.856 74.5963C112.981 64.0234 119.185 53.8381 127.627 46.1567ZM122.491 142.277C121.733 141.084 119.838 142.159 120.541 143.36L120.567 143.403C121.769 145.296 122.332 147.449 123.023 149.56C123.466 150.918 125.621 150.338 125.172 148.966L125.023 148.508C124.335 146.367 123.708 144.192 122.491 142.277ZM129.087 119.503L129.59 119.259C131.178 118.502 132.568 117.985 134.444 118.647C136.955 119.531 139.645 122.344 137.947 125.074C137.323 126.08 136.214 126.482 135.071 126.245C133.144 125.845 132.647 124.11 131.67 122.685L131.501 122.444C130.905 121.582 130.152 120.39 129.159 120.052C128.934 119.974 128.839 119.623 129.087 119.503ZM130.503 61.5478L130.665 61.4025C131.744 60.4489 130.161 58.8764 129.088 59.8244C124.177 64.1656 122.471 70.9605 119.924 76.7515C119.352 78.0536 121.273 79.1912 121.85 77.878C124.28 72.3519 125.893 65.7415 130.503 61.5478ZM189.517 59.6487C188.234 59.0702 187.112 60.9383 188.345 61.5534L188.391 61.5753C192.728 63.5354 194.573 67.9742 196.34 72.0952C196.903 73.4112 198.824 72.2764 198.266 70.9715L197.947 70.2321C196.104 65.9853 193.953 61.6565 189.517 59.6487ZM196.315 56.9665C194.954 56.4953 194.372 58.6478 195.721 59.119C199.397 60.3988 201.919 63.1591 204.046 66.3153C204.843 67.4975 206.775 66.3823 205.969 65.1889C203.5 61.5252 200.568 58.4498 196.315 56.9665Z" fill="black"/>
<path fill-rule="evenodd" clip-rule="evenodd" d="M188.85 149.243C186.976 148.478 185.305 147.203 184.083 145.574C183.658 145.007 183.547 144.409 183.637 143.862C183.737 143.247 184.101 142.689 184.597 142.315C185.094 141.94 185.717 141.755 186.319 141.85C186.842 141.932 187.362 142.218 187.774 142.812L187.86 142.931C188.587 143.914 189.534 144.721 190.612 145.241C191.652 145.742 192.815 145.976 194.019 145.84C196.311 145.581 197.891 144.341 199.57 142.657C199.778 142.445 199.986 142.225 200.195 142.003C200.328 141.801 200.511 141.671 200.715 141.603C200.941 141.527 201.197 141.531 201.431 141.613C201.657 141.692 201.859 141.842 201.994 142.04C202.123 142.23 202.196 142.463 202.172 142.732C202.019 144.477 201.106 146.034 199.811 147.257C198.372 148.616 196.465 149.555 194.669 149.885C192.691 150.248 190.675 149.988 188.85 149.243ZM195.603 122.32C197.707 123.6 200.914 126.584 198.65 129.757C195.985 132.555 192.148 129.347 190.257 127.896C188.504 126.772 186.534 129.664 188.16 130.976C201.824 141.096 207.369 122.655 196.667 120.816C195.489 120.613 195.051 121.924 195.603 122.32ZM171.117 110.548C171.35 107.661 175.746 107.005 176.183 109.862C176.575 112.422 176.114 114.773 174.961 117.078C173.86 119.279 171.093 118.252 170.883 116.247C170.603 113.56 170.973 112.344 171.117 110.548ZM204.58 109.27C205.193 108.467 206.078 107.919 207.138 108.228C210.451 109.197 209.475 113.901 208.311 116.191C207.679 117.435 205.636 117.75 204.713 116.655C203.208 114.87 202.487 111.304 204.4 109.545C204.452 109.454 204.51 109.362 204.58 109.27ZM174.915 97.9131L175.438 97.8215C177.057 97.5414 179.069 97.2723 180.214 98.5742C180.822 99.2645 181.031 100.548 180.214 101.208C178.779 102.371 177.191 101.921 175.47 102.019C174.052 102.1 172.689 102.335 171.323 102.726C168.327 103.583 165.885 105.147 163.325 106.864C162.99 107.09 162.647 106.66 162.807 106.346C164.284 103.451 167.148 101.073 170.016 99.6231C171.546 98.8494 173.221 98.2075 174.915 97.9131ZM201.561 96.6163L201.961 96.6983C206.32 97.6097 211.982 99.4302 214.046 103.713C214.124 104.318 214.041 104.448 213.974 104.533L213.951 104.561C213.896 104.633 213.851 104.733 213.589 104.816C213.516 104.798 213.442 104.78 213.368 104.76C212.422 104.512 211.674 104.171 210.949 103.816L210.163 103.429C209.252 102.982 208.332 102.551 207.358 102.233C205.278 101.554 203.139 101.076 200.966 100.821C200.495 100.766 200.042 100.607 199.684 100.334C199.345 100.076 199.085 99.7177 198.967 99.2417C198.814 98.6258 198.858 98.1595 199.188 97.6038C199.437 97.1866 199.792 96.8973 200.2 96.7312C200.616 96.5619 201.09 96.522 201.561 96.6163Z" fill="black"/>
<path fill-rule="evenodd" clip-rule="evenodd" d="M219.104 124.816C217.228 127.337 213.749 128.141 210.54 127.863C203.62 127.197 201.441 119.334 201.215 113.222C205.855 114.528 200.822 105.279 216.686 104.262C222.278 103.796 220.737 107.174 223.207 109.643C223.157 114.824 222.295 120.454 219.104 124.816ZM186.141 118.862C182.055 138.004 159.681 133.451 157.331 116.196C159.501 114.663 158.929 110.88 161.625 109.509C165.899 106.777 171.24 106.894 176.093 106.958C182.296 107.385 184.063 109.955 187.25 112.759C187.096 114.633 186.654 116.853 186.141 118.862ZM227.968 101.092C227.738 101.053 227.509 101.017 227.279 100.984C227.1 100.882 226.889 100.804 226.645 100.756C226.086 100.614 225.531 100.519 224.977 100.467C217.025 98.677 198.628 101.219 197.869 108.008C195.336 108.853 193.145 108.096 190.21 108.171C187.976 98.8295 149.351 100.148 147.494 105.78C147.487 105.778 147.48 105.777 147.472 105.774C145.688 105.222 143.056 105.355 141.013 105.267C136.651 105.176 132.284 105.565 128.016 106.485C120.024 107.756 109.117 109.243 114.675 119.227C114.676 119.229 114.677 119.231 114.679 119.233L114.679 119.232C115.637 120.214 117.263 119.423 117.323 118.093C115.455 113.364 119.676 112.796 122.923 111.436C131.004 108.532 139.231 108.13 147.588 109.028C148.217 109.768 149.171 110.414 150.179 110.752C155.767 111.68 152.822 115.827 156.354 116.43C155.706 130.884 173.248 138.774 183.412 129.272C187.471 125.303 188.438 119.423 189.379 114.123C189.876 114.011 190.193 113.739 190.377 113.379C191.574 112.184 192.326 111.08 194.692 110.752C197.058 110.424 198.879 111.082 199.125 111.284C199.188 111.409 199.254 111.535 199.332 111.66C199.44 111.847 199.587 111.996 199.754 112.114C197.418 126.508 208.588 135.611 219.864 128.145C224.764 123.534 225.799 116.475 226.004 110.174C226.668 109.773 227.088 108.996 226.859 108.019C226.542 106.673 227.285 105.507 228.468 104.921C230.006 104.161 229.734 101.384 227.968 101.092Z" fill="black"/>
</g>
<defs>
<clipPath id="clip0">
<rect width="316.615" height="343" fill="white" transform="translate(0 13)"/>
</clipPath>
</defs>
</svg>
