<svg width="309" height="309" viewBox="0 0 309 309" fill="none" xmlns="http://www.w3.org/2000/svg">
<circle cx="154.5" cy="154.5" r="154.5" fill="#FFBD12"/>
<g clip-path="url(#clip0)">
<path fill-rule="evenodd" clip-rule="evenodd" d="M226.796 295.477C226.284 290.715 225.968 285.919 225.787 281.133C225.606 276.353 225.842 271.514 225.946 266.732C226.158 257.003 226.503 247.252 225.728 237.539C224.997 228.359 223.317 219.243 220.666 210.422C219.375 206.127 218.015 201.658 215.892 197.689C213.757 193.698 210.375 191.041 206.661 188.603C202.706 186.009 198.783 183.365 194.844 180.746C191.537 178.548 185.586 175.989 182.873 173.05C180.018 169.958 179.482 162.293 177.581 158.63C175.729 155.062 170.488 152.735 166.452 152.735C159.773 152.735 154.712 152.393 149.219 158.574C146.479 161.659 148.659 164.777 145.787 167.737C143.146 170.458 136.392 173.255 132.988 174.834C128.912 176.726 124.732 178.396 120.492 179.883C116.167 181.401 111.733 182.532 107.383 183.964C103.214 185.336 97.7698 190.994 94.5332 193.988C91.5241 196.772 90.7773 196.46 88.4897 199.841C83.4691 207.262 78.4431 214.768 74.445 222.802C72.4536 226.805 70.5254 231.014 69.8029 235.459C69.0322 240.2 69.7963 244.781 71.0462 249.371C72.3184 254.042 76.3585 258.489 77.6747 263.148C78.2812 265.296 76.1992 267.639 77.1569 269.662C77.6352 270.673 78.2375 271.572 78.9233 272.453C79.4517 273.131 81.5122 272.981 81.7788 273.811C82.0482 274.65 80.5574 276.39 80.5353 277.258C80.5038 278.5 80.4543 279.743 80.4136 280.985L80.1727 288.328C80.0145 293.154 79.8562 297.979 79.698 302.805C79.6462 304.38 79.5708 305.919 79.9484 307.414C79.8121 307.287 79.6826 307.15 79.5643 306.995C79.218 306.543 78.4836 306.926 78.7775 307.455C79.2681 308.338 79.9735 308.96 80.8023 309.406C81.7655 310.826 227.63 313.999 228.347 309.846C228.75 307.516 228.017 305.022 227.724 302.706C227.419 300.295 227.057 297.894 226.796 295.477Z" fill="white"/>
<path fill-rule="evenodd" clip-rule="evenodd" d="M78.6258 235.467C78.9826 234.445 80.6149 234.888 80.2555 235.917C78.4082 241.21 79.7187 246.971 81.7158 252.024C82.1166 253.038 80.4814 253.473 80.0861 252.473C77.9852 247.158 76.6855 241.027 78.6258 235.467ZM91.0124 265.704C96.2223 266.437 101.436 266.889 106.682 267.255C106.917 267.272 107.119 267.236 107.295 267.16C107.138 269.563 107.012 271.968 106.912 274.373C105.482 274.333 104.022 274.428 102.605 274.39C100.752 274.339 98.9011 274.246 97.0525 274.105C93.4737 273.834 89.9011 273.403 86.3624 272.807C85.0399 272.585 83.3603 272.45 81.854 272.01C80.43 271.594 79.1624 270.905 78.4969 269.607C77.9307 268.508 77.8272 267.162 77.8272 265.947C77.8272 265.11 77.9709 264.26 78.0575 263.417C78.1652 263.341 78.2624 263.25 78.3406 263.148C79.9124 263.645 81.5434 263.994 83.1406 264.332C85.7413 264.886 88.38 265.334 91.0124 265.704ZM88.0739 246.162C88.1026 247.777 88.5495 249.244 89.4188 250.604C90.007 251.525 88.5436 252.372 87.9594 251.458C86.936 249.856 86.4176 248.059 86.3838 246.162C86.3643 245.071 88.0545 245.075 88.0739 246.162ZM221.622 263.784C222.327 263.824 223.037 263.848 223.745 263.886C224.369 264.42 225.233 264.693 226.022 264.523C226.049 264.592 226.074 264.668 226.097 264.757C226.236 265.3 226.306 265.883 226.386 266.437C226.466 266.982 226.528 267.532 226.57 268.081C226.591 268.358 226.724 268.984 226.555 269.225C226.403 269.442 226.067 269.423 225.835 269.451C225.209 269.518 224.576 269.55 223.946 269.603C222.757 269.706 221.567 269.81 220.38 269.914C219.216 270.015 217.938 269.984 216.799 270.29C216.604 268.005 216.427 265.721 216.262 263.434C218.026 263.694 219.871 263.687 221.622 263.784ZM73.7095 259.995C74.4193 261.367 75.0743 262.715 76.4327 263.539C76.6102 263.645 76.8088 263.702 77.0116 263.717C76.8595 264.37 76.7644 265.038 76.6799 265.655C76.494 267.014 76.4538 268.419 76.794 269.759C77.1257 271.063 77.675 272.228 78.7524 273.063C79.2531 273.452 79.8003 273.747 80.375 273.982C80.2778 274.255 80.2207 274.525 80.2503 274.823C80.113 275.514 80.0221 276.218 79.9228 276.892C79.7052 278.389 79.4876 279.887 79.3165 281.392C78.9743 284.385 78.7059 287.377 78.4799 290.381C78.2538 293.376 78.0912 296.375 77.9559 299.376C77.8862 300.91 77.825 302.445 77.7679 303.981C77.7109 305.56 77.4552 307.175 78.1524 308.639C78.7144 309.823 80.6137 309.755 81.1968 308.639C81.9362 307.221 81.7186 305.537 81.7376 303.981C81.7566 302.516 81.782 301.05 81.8137 299.585C81.8771 296.586 81.97 293.589 82.044 290.59C82.1158 287.663 82.2045 284.738 82.2637 281.81C82.2933 280.278 82.2954 278.746 82.3038 277.214C82.3081 276.364 82.344 275.457 82.2806 274.572C82.8088 274.696 83.3412 274.802 83.8672 274.91C87.8834 275.734 91.9419 276.334 96.0257 276.706C98.0771 276.892 100.135 277.023 102.193 277.098C103.705 277.152 105.273 277.258 106.809 277.201C106.688 280.87 106.633 284.541 106.64 288.212C106.644 290.86 106.68 293.509 106.745 296.157C106.781 297.55 106.811 298.943 106.853 300.335C106.872 300.961 106.872 301.593 106.914 302.216C106.927 302.411 106.955 302.599 106.99 302.785C106.851 303.18 106.735 303.571 106.64 303.937C106.175 305.712 106.175 307.418 106.382 309.227C106.559 310.761 107.85 312.184 109.555 311.645C109.832 311.558 110.109 311.467 110.383 311.374C112.893 311.659 115.418 311.725 117.964 311.774C121.684 311.846 125.407 311.869 129.129 311.888C136.431 311.926 143.734 311.945 151.038 311.966C165.714 312.008 180.391 312.048 195.068 312.091C199.141 312.104 203.214 312.114 207.288 312.127C209.396 312.133 211.5 312.135 213.607 312.216C214.589 312.254 215.574 312.306 216.556 312.321C217.695 312.34 218.702 312.012 219.79 311.715C220.405 311.543 220.648 310.926 220.517 310.404C221.502 310.639 222.695 310.14 223.031 309.03C223.276 308.225 223.186 307.352 222.82 306.606V306.604C222.114 302.147 221.219 297.71 220.515 293.251C219.744 288.367 219.002 283.472 218.35 278.569C217.859 274.865 217.456 277.49 217.107 273.771C218.626 273.889 220.344 273.426 221.848 273.23C222.928 273.09 224.016 272.978 225.097 272.83C225.017 273.921 225.04 275.032 225.011 276.079C224.954 278.156 224.979 280.225 225.032 282.303C225.133 286.312 225.359 283.979 225.721 287.971C226.086 291.993 226.534 296.001 227.077 300.004C227.356 302.064 227.654 304.123 227.969 306.179C228.114 307.139 228.264 308.096 228.419 309.056C228.602 310.186 228.662 311.258 229.509 312.108C230.153 312.752 231.469 312.697 231.896 311.799C232.437 310.664 232.192 309.692 231.991 308.5C231.828 307.542 231.672 306.585 231.518 305.628C231.188 303.575 230.876 301.521 230.582 299.465C230.016 295.502 229.481 291.533 229.004 287.559C228.522 283.554 228.024 285.894 227.55 281.889C227.312 279.868 227.073 277.852 226.794 275.838C226.652 274.802 226.564 273.699 226.378 272.632C226.437 272.623 226.496 272.612 226.555 272.602C227.84 272.367 228.936 271.642 229.259 270.319C229.568 269.053 229.2 267.597 228.94 266.355C228.719 265.296 228.518 263.945 227.837 263.038C230.237 259.98 231.798 256.132 232.794 252.432C233.878 248.401 234.332 244.194 234.429 240.029C234.54 235.203 234.177 230.405 233.35 225.687C233.33 224.687 233.284 223.688 233.21 222.689C232.483 212.891 229.433 201.295 219.761 196.717C219.723 196.698 219.683 196.681 219.643 196.664C218.884 195.757 217.938 194.941 217.173 194.179C215.819 192.826 214.403 191.532 212.903 190.34C209.933 187.98 206.675 186.094 203.288 184.397C199.864 182.679 196.388 181.066 193.042 179.191C190.126 177.556 187.502 175.586 185.012 173.362C182.212 170.862 180.22 167.491 179.438 163.812C179.398 163.619 179.113 163.672 179.109 163.856C178.904 170.6 183.455 176.56 188.692 180.331C194.954 184.835 202.515 186.967 208.866 191.334C210.444 192.418 211.921 193.642 213.326 194.941C211.173 194.721 208.982 194.861 206.964 195.457C206.17 195.408 205.371 195.394 204.575 195.356C202.754 195.265 200.931 195.18 199.107 195.1C195.391 194.935 191.673 194.785 187.955 194.654C180.659 194.396 173.362 194.202 166.065 194.073C151.401 193.813 136.718 193.762 122.056 194.187C118.08 194.301 97.1728 193.509 95.2376 193.732C98.0834 191.268 101.206 189.256 104.639 187.601C108.934 185.536 113.373 184.158 117.959 182.899C127.405 180.305 137.214 177.805 144.774 171.217C146.652 169.579 148.321 167.696 149.688 165.61C150.993 163.619 152.445 161.07 152.481 158.642C152.506 156.917 150.106 156.29 149.252 157.767C148.722 158.682 148.46 159.686 148.027 160.645C147.596 161.597 147.085 162.514 146.517 163.391C145.399 165.116 144.013 166.654 142.505 168.043C139.289 171.006 135.393 173.176 131.362 174.819C122.21 178.545 112.2 180.117 103.528 185.029C99.7334 187.178 96.1017 190.144 93.8221 193.927C93.4545 193.984 93.089 194.051 92.7235 194.128C92.9961 193.783 93.2707 193.439 93.5475 193.096C93.7292 192.872 93.4482 192.576 93.2264 192.775C88.9144 196.613 84.9426 200.758 81.3426 205.276C77.8989 209.601 74.6876 214.132 72.4144 219.196C68.3285 228.293 67.4285 238.697 69.539 248.424C70.1137 251.074 70.925 253.669 71.9581 256.178C72.4904 257.473 73.0672 258.75 73.7095 259.995Z" fill="black"/>
<path fill-rule="evenodd" clip-rule="evenodd" d="M166.798 70.2809C178.794 70.2809 193.818 83.9702 198.215 89.7956C201.912 94.6933 201.389 119.924 201.389 134.892C201.389 138.022 199.975 143.946 199.462 146.941C197.58 157.913 189.382 167.115 173.157 167.115C159.946 167.115 149.779 162.929 139.948 152.222C137.705 149.779 126.751 158.524 124.511 155.375C118.66 155.375 113.767 100.682 125.255 84.2773C136.744 67.8727 154.802 70.2809 166.798 70.2809Z" fill="white"/>
<path fill-rule="evenodd" clip-rule="evenodd" d="M130.743 74.1333C137.675 67.8244 146.91 64.7895 156.226 65.0135C161.052 65.1297 165.86 66.0491 170.417 67.6237C172.697 68.4141 174.905 69.4455 177.015 70.6122C177.776 71.0316 178.477 71.5231 179.152 72.045L179.32 72.1761H179.322C181.133 72.8271 182.749 73.9959 184.215 75.3633C187.154 75.1287 190.116 75.3929 192.957 76.2996C196.912 77.5635 200.574 79.8778 203.145 83.1642C206.14 86.9904 207.135 91.6314 206.78 96.4224L206.715 97.2363C206.363 101.468 205.734 106.912 202.262 109.693C201.998 109.904 201.706 110.065 201.404 110.162C203.641 113.996 205.477 118.253 206.576 122.551C210.769 138.971 207.545 156.095 202.503 171.921C202.088 173.225 200.117 174.091 199.114 172.817C197.322 170.539 194.719 168.801 191.791 168.476C189.985 168.275 188.187 168.639 186.48 167.818C185.81 167.495 185.164 166.967 184.699 166.324C181.817 167.417 178.714 167.933 175.636 167.806C170.584 167.599 165.184 165.849 161.709 162.011C161.151 161.395 161.01 160.703 161.138 160.079C161.574 159.924 162.022 159.808 162.483 159.735C166.89 162.334 171.747 164.07 176.968 164.179C179.985 164.242 182.928 163.82 185.374 161.936C185.903 161.528 186.39 161.076 186.84 160.591C191.954 157.3 195.559 151.71 197.274 145.722C198.871 140.138 198.674 134.324 198.125 128.596L197.835 125.574C197.413 121.138 197.021 116.688 196.911 112.233L196.944 112.232C198.024 112.162 198.032 110.47 196.944 110.541C194.13 110.723 191.338 110.261 188.533 110.462C188.509 109.136 188.414 107.815 188.024 106.536C187.801 105.805 186.529 105.66 186.394 106.536C186.214 107.706 186.148 108.871 186.128 110.047C181.93 109.991 177.736 109.638 173.537 109.783C172.763 108.957 172.516 107.491 172.154 106.472C172.101 106.322 172.048 106.174 171.993 106.024C171.675 107.481 171.224 108.905 170.63 110.3L169.6 110.303C163.758 110.331 157.796 110.506 152.091 111.719C151.695 111.415 151.459 110.883 151.395 110.401C150.981 107.261 150.39 104.205 149.344 101.213L149.194 100.791C149.182 100.756 149.169 100.718 149.155 100.679C148.384 101.925 147.464 103.086 146.46 104.167C145.868 104.804 145.248 105.413 144.611 106.005C143.993 106.692 143.354 107.369 142.735 108.058C142.759 108.183 142.78 108.31 142.797 108.44C142.987 109.87 143.006 111.32 142.867 112.755C142.616 115.35 141.884 117.85 140.708 120.163L140.671 120.395C140.492 121.479 140.238 122.599 139.644 123.415C140.385 124.245 140.956 125.237 141.286 126.339C141.581 127.32 140.224 128.17 139.521 127.367C138.962 126.729 138.341 126.202 137.659 125.78C137.616 125.839 137.538 125.868 137.451 125.819C135.552 124.764 132.326 125.083 130.429 126.077C128.069 127.311 127.148 129.845 127.41 132.413C127.661 134.867 128.734 137.735 130.815 138.992C131.77 139.569 132.514 139.618 133.528 139.341C133.852 139.253 134.254 138.983 134.427 138.849L134.596 138.712C135.261 138.187 135.88 137.827 136.665 137.813C137.468 137.563 138.275 137.91 138.582 138.752L138.6 138.806C138.744 139.235 139.006 139.774 138.949 140.43C138.89 141.131 138.569 141.77 138.089 142.283C138.007 142.372 137.918 142.461 137.827 142.543C146.088 151.49 147.148 165.43 142.912 176.606C142.729 177.097 142.532 177.581 142.327 178.061C141.619 179.705 138.894 179.195 138.548 177.566C138.444 177.078 138.33 176.592 138.205 176.11C137.976 175.219 137.714 174.337 137.418 173.468L137.305 173.142C137.054 172.424 136.819 171.699 136.566 170.98L136.541 170.898C136.531 170.866 136.521 170.828 136.509 170.786L136.08 171.722L134.776 174.548C134.167 175.867 132.228 175.15 132.156 173.879L132.155 173.836C132.148 173.601 132.14 173.369 132.125 173.138C132.032 171.411 131.734 169.733 131.261 168.091L131.09 168.303C128.548 171.448 125.564 174.395 121.471 175.121C120.444 175.302 119.282 174.229 119.988 173.191C120.279 172.762 120.56 172.322 120.826 171.876C120.596 171.769 120.379 171.657 120.178 171.542C118.625 170.67 117.332 169.427 116.263 168.017C113.996 165.029 113.185 161.267 112.986 157.585C112.775 153.694 113.117 149.592 114.18 145.838C114.641 144.215 115.264 142.657 115.984 141.146C115.934 141.011 115.885 140.876 115.836 140.74C115.059 138.572 114.421 136.355 113.891 134.112C112.822 129.585 112.247 124.914 112.177 120.263C112.05 111.929 113.487 103.462 116.515 95.691C119.641 87.6766 124.344 79.956 130.743 74.1333ZM126.85 146.994C126.276 146.09 124.839 146.905 125.372 147.815L125.392 147.848C126.303 149.283 126.73 150.915 127.254 152.515C127.589 153.544 129.223 153.104 128.882 152.064L128.77 151.717C128.248 150.095 127.773 148.446 126.85 146.994ZM131.85 129.731L132.232 129.546C133.435 128.972 134.489 128.581 135.911 129.082C137.814 129.752 139.853 131.885 138.566 133.954C138.093 134.717 137.252 135.021 136.386 134.841C134.926 134.538 134.549 133.223 133.808 132.143L133.68 131.96C133.229 131.307 132.657 130.403 131.905 130.147C131.734 130.088 131.662 129.822 131.85 129.731ZM132.924 85.8001L133.047 85.6899C133.864 84.9671 132.664 83.7751 131.851 84.4937C128.128 87.7844 126.835 92.935 124.904 97.3247C124.471 98.3118 125.927 99.1741 126.364 98.1786C128.206 93.9897 129.429 88.9789 132.924 85.8001ZM177.658 84.3605C176.685 83.922 175.834 85.3381 176.769 85.8043L176.804 85.821C180.091 87.3067 181.49 90.6714 182.829 93.7952C183.256 94.7928 184.712 93.9326 184.289 92.9435L184.048 92.383C182.65 89.1638 181.02 85.8825 177.658 84.3605ZM182.81 82.3273C181.779 81.9701 181.337 83.6018 182.36 83.9589C185.146 84.929 187.058 87.0214 188.67 89.4139C189.275 90.31 190.739 89.4646 190.128 88.56C188.256 85.7829 186.034 83.4517 182.81 82.3273Z" fill="black"/>
<path fill-rule="evenodd" clip-rule="evenodd" d="M177.152 152.274C175.731 151.695 174.464 150.728 173.538 149.493C173.216 149.064 173.132 148.61 173.2 148.196C173.276 147.729 173.552 147.307 173.928 147.023C174.305 146.739 174.777 146.599 175.233 146.67C175.629 146.732 176.024 146.949 176.336 147.4L176.401 147.49C176.952 148.235 177.67 148.847 178.488 149.241C179.276 149.621 180.157 149.798 181.07 149.695C182.807 149.499 184.005 148.559 185.277 147.282C185.435 147.121 185.593 146.955 185.752 146.786C185.852 146.633 185.991 146.535 186.145 146.483C186.317 146.426 186.511 146.429 186.688 146.491C186.859 146.551 187.013 146.664 187.115 146.815C187.213 146.958 187.268 147.135 187.25 147.339C187.134 148.662 186.442 149.842 185.46 150.769C184.37 151.799 182.924 152.511 181.563 152.761C180.063 153.036 178.535 152.839 177.152 152.274ZM182.27 131.867C183.866 132.837 186.296 135.099 184.58 137.504C182.56 139.624 179.651 137.193 178.218 136.093C176.889 135.241 175.396 137.433 176.629 138.428C186.986 146.099 191.189 132.12 183.077 130.726C182.184 130.572 181.852 131.566 182.27 131.867ZM163.71 122.943C163.886 120.754 167.219 120.257 167.55 122.423C167.847 124.363 167.498 126.146 166.624 127.893C165.789 129.561 163.691 128.783 163.533 127.263C163.32 125.226 163.6 124.305 163.71 122.943ZM189.076 121.974C189.54 121.365 190.211 120.95 191.015 121.185C193.526 121.919 192.786 125.485 191.904 127.221C191.425 128.163 189.876 128.402 189.176 127.572C188.035 126.219 187.489 123.516 188.939 122.183C188.978 122.114 189.022 122.044 189.076 121.974ZM166.589 113.366L166.985 113.296C168.212 113.084 169.738 112.88 170.606 113.867C171.066 114.39 171.225 115.363 170.606 115.864C169.517 116.745 168.314 116.403 167.01 116.478C165.935 116.54 164.902 116.718 163.866 117.014C161.595 117.663 159.744 118.849 157.804 120.151C157.549 120.322 157.289 119.996 157.411 119.758C158.531 117.563 160.701 115.761 162.875 114.662C164.035 114.075 165.305 113.589 166.589 113.366ZM186.787 112.383L187.09 112.445C190.394 113.136 194.686 114.516 196.251 117.762C196.31 118.221 196.247 118.319 196.196 118.383L196.179 118.405C196.137 118.46 196.103 118.535 195.904 118.598C195.849 118.585 195.793 118.571 195.737 118.556C195.02 118.368 194.452 118.109 193.903 117.84L193.308 117.547C192.617 117.208 191.92 116.881 191.181 116.64C189.604 116.126 187.983 115.763 186.336 115.57C185.979 115.528 185.636 115.407 185.364 115.201C185.107 115.005 184.91 114.733 184.821 114.373C184.705 113.906 184.738 113.552 184.988 113.131C185.177 112.815 185.446 112.596 185.755 112.47C186.071 112.341 186.43 112.311 186.787 112.383Z" fill="black"/>
<path fill-rule="evenodd" clip-rule="evenodd" d="M200.085 133.758C198.663 135.67 196.025 136.279 193.593 136.068C188.347 135.563 186.696 129.603 186.524 124.97C190.042 125.96 186.227 118.949 198.252 118.178C202.491 117.825 201.322 120.386 203.195 122.257C203.157 126.184 202.503 130.452 200.085 133.758ZM175.098 129.245C172.001 143.755 155.041 140.304 153.259 127.224C154.904 126.063 154.471 123.194 156.515 122.155C159.754 120.085 163.803 120.173 167.482 120.222C172.183 120.545 173.523 122.494 175.938 124.619C175.822 126.039 175.487 127.722 175.098 129.245ZM206.803 115.775C206.63 115.746 206.456 115.719 206.281 115.693C206.146 115.616 205.986 115.557 205.801 115.521C205.377 115.413 204.956 115.341 204.536 115.302C198.508 113.945 184.563 115.872 183.988 121.017C182.068 121.659 180.407 121.084 178.182 121.142C176.489 114.06 147.211 115.06 145.803 119.329C145.797 119.328 145.792 119.326 145.787 119.325C144.434 118.906 142.439 119.007 140.891 118.94C137.584 118.871 134.274 119.166 131.038 119.864C124.98 120.827 116.712 121.954 120.926 129.522C120.927 129.524 120.927 129.525 120.928 129.526L120.929 129.526C121.655 130.27 122.887 129.671 122.933 128.663C121.517 125.077 124.716 124.647 127.178 123.616C133.303 121.415 139.539 121.11 145.874 121.791C146.351 122.352 147.074 122.842 147.838 123.098C152.074 123.801 149.842 126.944 152.519 127.402C152.027 138.358 165.325 144.339 173.03 137.137C176.106 134.128 176.839 129.671 177.552 125.653C177.93 125.568 178.169 125.362 178.309 125.089C179.216 124.183 179.786 123.347 181.58 123.098C183.373 122.849 184.754 123.348 184.94 123.501C184.988 123.596 185.038 123.691 185.097 123.786C185.179 123.928 185.29 124.041 185.417 124.13C183.646 135.041 192.113 141.941 200.661 136.282C204.375 132.787 205.16 127.436 205.315 122.66C205.818 122.356 206.137 121.767 205.963 121.026C205.722 120.006 206.286 119.122 207.183 118.678C208.348 118.101 208.142 115.997 206.803 115.775Z" fill="black"/>
</g>
<defs>
<clipPath id="clip0">
<path d="M34 49H274V309H34V49Z" fill="white"/>
</clipPath>
</defs>
</svg>
