<svg width="190" height="205" viewBox="0 0 190 205" fill="none" xmlns="http://www.w3.org/2000/svg">
<g clip-path="url(#clip0)">
<path fill-rule="evenodd" clip-rule="evenodd" d="M148.975 138.847C148.45 137.404 149.217 135.964 149.643 134.568C151.155 129.726 152.806 124.883 155.142 120.367C156.027 118.856 154.571 117.003 152.884 117.429C149.997 117.834 147.019 117.512 144.126 117.333C143.068 114.595 140.245 113.459 138.023 111.883C135.501 110.308 133.048 108.5 130.426 107.119C130.28 105.815 128.699 105.492 127.732 106.425C125.077 104.773 121.893 105.079 119.047 103.997C116.884 100.5 116.722 96.8226 116.149 93.4489C115.9 91.9783 116.165 90.5594 115.161 89.2482C111.786 84.5005 98.4534 82.442 93.5376 85.2555C90.8915 83.6045 90.8278 86.5945 90.4075 88.4399C89.9403 89.3632 89.6876 90.4087 89.7657 91.5104C86.9234 97.4493 80.4208 100.134 74.5972 102.309C73.8666 101.606 72.8224 101.695 72.1273 102.277C67.0796 103.375 62.1806 105.304 57.9514 108.317C53.1466 109.723 49.7627 113.633 47.3158 117.824C47.0462 118.266 46.9826 118.717 47.0614 119.131C39.5368 130.165 35.9456 143.375 35.4411 156.716C30.6023 159.621 37.741 185.719 39.4029 191.138C39.4045 191.137 39.4062 191.136 39.4079 191.135C40.486 193.045 41.7101 198.493 44.4082 198.072C46.2591 200.165 49.2086 199.754 51.7202 199.915C51.3111 201.484 51.5122 203.281 51.9991 204.832C52.5749 206.678 55.4008 206.741 55.8016 204.728C80.8133 209.589 106.477 205.71 131.769 206.44C139.082 206.492 146.395 206.718 153.69 207.239C154.717 207.313 155.759 206.263 155.689 205.239C154.121 188.546 152.648 166.585 150.894 150.055C150.478 146.285 150.149 142.474 148.975 138.847Z" fill="white"/>
<path fill-rule="evenodd" clip-rule="evenodd" d="M90.8205 86.2855C90.8923 86.0897 91.1846 86.1156 91.1902 86.3355C91.3054 91.0293 90.1373 96.7652 86.3828 99.9357C84.4555 101.563 81.9074 102.308 79.5674 103.164L79.3035 103.261L75.1693 104.802C74.0728 105.211 72.8899 105.839 71.9214 105.262C72.7051 107.206 73.3631 109.204 74.3176 111.078C75.5058 113.41 76.9423 115.545 78.7005 117.486C85.6659 125.175 96.6896 127.521 106.582 125.268C111.676 124.108 116.633 121.909 120.108 117.898C122.75 114.849 124.267 110.758 124.625 106.722C124.52 106.739 124.411 106.738 124.298 106.713C123.047 106.44 121.783 105.769 120.682 105.111L120.575 105.047C119.516 104.409 118.411 103.678 117.651 102.686C116.895 101.701 116.103 98.4894 116.103 98.4894C115.887 97.2822 115.684 94.8773 115.719 93.657C115.722 93.5419 116.233 93.474 116.287 93.5936C116.759 94.6295 116.912 96.9057 117.276 97.9838L117.349 98.1991C117.738 99.325 118.072 100.696 118.878 101.606C120.392 103.315 122.676 104.039 124.714 104.896C124.861 102.964 127.945 103.009 127.906 105.024C127.904 105.133 127.899 105.242 127.895 105.351C128.138 105.485 128.372 105.638 128.591 105.785L128.804 105.93C129.612 106.48 130.425 107.002 131.285 107.468C132.95 108.371 134.712 109.086 136.418 109.906C138.143 110.735 139.757 111.722 141.264 112.904C141.972 113.459 142.65 114.051 143.294 114.679L143.469 114.851C144.081 115.462 144.878 116.144 145.227 116.946C145.304 117.123 145.69 117.534 145.899 117.548C149.14 117.761 152.373 118.061 155.594 118.511C156.428 118.627 156.757 119.057 156.449 119.752C155.39 122.141 151.244 131.682 150.141 134.242C150.27 136.123 150.096 138.338 150.212 140.219C150.382 142.965 150.604 145.71 150.871 148.448C151.824 158.242 153.269 167.989 154.575 177.74C155.229 182.621 155.825 187.508 156.413 192.397C156.71 194.867 156.962 197.34 157.156 199.821C157.237 200.855 157.31 201.89 157.375 202.924L157.431 203.842C157.508 204.998 157.684 206.101 156.97 207.092C156.646 207.542 155.906 207.796 155.48 207.285C154.944 206.642 154.745 206.162 154.694 205.319C154.655 204.673 154.645 204.024 154.616 203.377C154.552 201.976 154.473 200.575 154.379 199.175C154.192 196.377 153.979 193.578 153.732 190.785C152.866 180.988 151.22 171.264 150.125 161.491C149.573 156.564 149.181 151.628 148.974 146.674C148.87 144.2 148.832 141.726 148.857 139.25C148.866 138.325 148.91 137.405 148.973 136.486C147.333 140.214 145.608 143.906 143.805 147.549L143.378 148.412C142.235 150.715 141.062 153.026 139.689 155.197L139.453 155.567C138.896 156.449 138.136 157.839 137.122 158.117C136.415 158.311 135.551 158.174 134.827 158.161C134.108 158.147 133.388 158.144 132.67 158.115C131.864 158.082 131.095 157.976 130.316 157.766C130.186 157.731 130.064 157.694 129.952 157.645C129.167 158.93 127.834 159.908 126.471 160.479C125.379 160.935 124.234 161.248 123.088 161.538L122.683 161.639C121.454 161.946 120.048 162.091 119.355 163.279L119.194 163.554C118.679 164.43 118.185 165.199 117.332 165.827C116.414 166.503 115.326 166.928 114.243 167.259C113.133 167.598 111.998 167.857 110.871 168.135L110.564 168.211C109.821 168.397 109.071 168.568 108.331 168.771C108.016 168.857 107.695 168.946 107.386 169.052C107.023 169.177 106.76 169.371 106.474 169.583C106.217 170.481 105.119 170.968 104.217 170.906C103.742 170.873 103.317 170.712 102.93 170.476C102.254 171.051 101.511 171.567 100.822 172.1C99.8579 172.846 98.8898 173.587 97.9164 174.321C95.9094 175.834 93.8871 177.328 91.8438 178.792C88.2169 181.39 84.5116 183.87 80.7428 186.257C79.1715 187.253 77.5896 188.247 75.9922 189.217L76.1627 189.28L76.5008 189.408C77.3001 189.706 78.1907 190.189 78.3456 191.122C78.4684 191.861 78.0552 192.371 77.325 192.462C76.4571 192.569 75.7818 191.956 75.2414 191.37C75.0029 191.112 74.7359 190.872 74.5075 190.606C74.4143 190.497 74.3427 190.372 74.2797 190.241C72.7032 191.17 71.1099 192.068 69.4914 192.908L69.0863 193.117C65.0727 195.17 61.1661 197.42 57.1184 199.414C56.0626 199.935 54.7752 200.498 53.4334 200.882C53.7894 202.262 53.7839 203.778 53.7929 205.18C53.8015 206.545 51.632 206.539 51.6779 205.18L51.6999 204.523C51.7394 203.42 51.804 202.274 52.0657 201.2C48.1121 201.856 44.1625 200.43 43.4271 200.002C42.6154 199.53 41.8786 198.775 41.2655 198.074C39.9534 196.573 39.0429 194.775 38.235 192.966C36.5046 189.091 35.2787 184.95 34.3823 180.808C31.0779 165.537 32.4992 149.193 37.8656 134.555C39.2063 130.898 40.7892 127.321 42.603 123.874L42.8282 123.448C44.6383 120.039 46.65 116.643 49.2054 113.742C51.867 110.72 55.1504 108.37 58.7253 106.546C60.4699 105.656 62.265 104.884 64.0998 104.2C64.3945 104.091 64.6912 103.992 64.9886 103.898C66.9006 102.679 69.2211 101.512 71.5424 101.558C71.7001 101.561 71.8279 101.621 71.9232 101.711C72.0351 101.731 72.147 101.754 72.2591 101.787C72.5064 101.859 72.7677 102.13 72.7322 102.408L72.7202 102.501C72.7137 102.546 72.7054 102.59 72.6913 102.633C72.7742 102.645 72.8557 102.665 72.9354 102.692C75.1564 102.065 77.3416 101.105 79.5088 100.331L80.0024 100.157C81.8176 99.5205 83.6799 98.8968 85.1689 97.6374C86.6502 96.3845 87.7641 94.7617 88.5695 93.0073C89.5616 90.8459 90.0058 88.5044 90.8205 86.2855ZM135.286 200.284C135.726 199.956 136.246 200.336 136.41 200.741C136.951 202.071 136.684 204.136 135.922 205.312C135.133 206.53 133.244 206.049 133.199 204.574C133.151 203.036 134.045 201.208 135.286 200.284ZM139.828 163.576C139.868 163.403 140.136 163.405 140.176 163.576C140.542 165.136 140.534 166.816 140.641 168.415L140.654 168.592C140.782 170.356 140.891 172.125 140.968 173.891C141.12 177.367 141.301 180.844 141.504 184.317C141.605 186.039 141.713 187.762 141.828 189.483C142.189 189.282 142.561 189.105 142.947 188.949C143.524 188.716 144.086 188.689 144.706 188.696C145.462 188.703 146.031 189.368 145.931 190.108C145.822 190.915 145.112 191.26 144.375 191.145C143.559 191.017 142.739 190.819 141.915 190.737C142.007 192.068 142.102 193.399 142.202 194.729C142.336 196.49 142.509 198.249 142.631 200.011C142.643 200.179 142.656 200.347 142.669 200.516C143.16 200.26 143.682 200.13 144.273 199.968L144.427 199.925C145.286 199.679 146.204 199.338 146.999 199.915C147.533 200.303 147.64 200.943 147.198 201.455C146.527 202.232 145.534 202.081 144.607 202.042L144.108 202.023C143.638 202.005 143.205 201.975 142.77 201.856C142.85 203.004 142.892 204.156 142.751 205.287C142.675 205.898 141.871 206.058 141.658 205.435C141.102 203.805 140.987 202.048 140.783 200.341C140.593 198.747 140.478 197.141 140.353 195.54L140.316 195.06C140.036 191.537 139.812 188.012 139.648 184.482C139.484 180.953 139.386 177.424 139.347 173.891C139.329 172.287 139.356 170.677 139.419 169.073L139.438 168.592C139.511 166.943 139.46 165.192 139.828 163.576ZM66.3335 200.544C66.3549 200.318 66.5353 200.038 66.8038 200.073C67.0511 200.105 67.306 200.09 67.5507 200.131C67.8737 200.184 68.1336 200.375 68.434 200.495C68.9222 200.691 69.4544 200.792 69.9553 200.951C70.8951 201.251 71.4073 202.241 71.0181 203.165C70.6088 204.137 69.5804 204.357 68.6917 203.95C67.9913 203.628 67.4692 203.115 66.9982 202.52L66.8648 202.351C66.6618 202.095 66.4315 201.81 66.3463 201.501C66.2635 201.199 66.3044 200.85 66.3335 200.544ZM111.993 195.975C113.164 195.81 114.164 196.211 115.247 196.588L115.335 196.619C116.437 196.999 118.046 197.263 118.611 198.392C118.952 199.072 118.687 199.976 117.885 200.178C116.614 200.496 115.475 199.567 114.425 198.942L114.37 198.909C113.356 198.315 112.309 197.816 111.662 196.791C111.489 196.518 111.639 196.025 111.993 195.975ZM71.1299 102.847C70.6609 102.952 70.1919 103.045 69.7235 103.134C67.9414 104.09 66.2116 105.081 64.3717 105.933C62.4195 106.836 60.4745 107.769 58.6202 108.862C54.8739 111.069 51.7855 113.94 49.2336 117.459C44.8254 123.536 41.5464 130.546 39.1997 137.657C38.5967 139.485 38.0572 141.332 37.5798 143.196C38.4238 142.415 39.423 141.935 40.5434 141.524C41.0182 141.349 41.6093 141.644 41.85 142.055C41.9582 142.24 42.0193 142.423 42.008 142.64C41.9831 143.118 41.672 143.661 41.1586 143.756C39.9615 143.976 38.7976 144.406 37.6434 144.784C37.4685 144.842 37.3181 144.82 37.198 144.752C36.0522 149.608 35.3353 154.563 35.0814 159.548C34.8667 163.769 34.9991 168.022 35.4664 172.237C35.8255 172.075 36.1768 171.924 36.5705 171.832C37.0811 171.714 37.5834 171.569 38.0814 171.406C39.5188 170.934 40.1744 173.308 38.7053 173.67C38.1585 173.804 37.6084 173.916 37.0513 173.998C36.5658 174.069 36.1363 174.038 35.6785 173.963C36.0282 176.593 36.5059 179.203 37.1144 181.776L37.2486 182.339C38.039 185.626 38.9602 188.943 40.2924 192.049C40.9458 193.572 41.811 195.019 42.8793 196.29C43.4041 196.914 43.9867 197.45 44.6219 197.957C45.1507 198.38 46.9484 199.296 49.0775 199.296C51.2066 199.296 51.783 199.094 52.8571 198.724C54.9814 197.993 56.9983 196.825 58.9905 195.785L59.1965 195.678C60.0775 195.222 60.955 194.759 61.8303 194.293C61.7197 193.4 61.9132 192.65 62.3782 191.826C62.8808 190.934 64.1261 191.378 64.2187 192.29L64.2217 192.325C64.2357 192.531 64.2702 192.74 64.313 192.949C70.1653 189.742 75.8938 186.311 81.5311 182.735C85.1623 180.431 88.7549 178.059 92.295 175.617C94.0647 174.397 95.819 173.154 97.556 171.887C98.4658 171.223 99.3715 170.554 100.273 169.88C100.648 169.598 101.017 169.303 101.393 169.021C101.302 168.906 101.212 168.792 101.126 168.679C99.7209 166.838 98.8092 164.645 98.3549 162.381C98.0806 161.016 97.9482 159.598 97.9079 158.205L97.8901 157.6C97.8624 156.58 97.8551 155.512 98.043 154.524C97.7873 154.665 97.526 154.802 97.2656 154.95C96.3312 155.48 95.3959 156.008 94.4591 156.534C92.5832 157.586 90.7017 158.627 88.7964 159.626C85.3931 161.409 81.9564 163.106 78.4268 164.627L76.7094 165.367C73.7288 166.65 70.7238 167.909 67.6248 168.862C65.8768 169.4 64.1156 169.86 62.3426 170.27L63.0596 171.11C63.5458 171.68 63.5543 172.497 62.933 172.977C62.3222 173.449 61.5026 173.252 61.0957 172.626L60.3539 171.485C60.1954 171.241 60.1054 171.012 60.0544 170.771C59.2376 170.942 58.4188 171.106 57.5977 171.265L56.0454 171.562C53.8289 171.989 51.6799 172.837 49.6987 173.921C49.01 174.298 48.8181 173.566 49.5478 173.056C51.6816 171.563 54.1705 170.719 56.7385 170.01L56.8647 169.976C57.8068 169.717 58.7473 169.448 59.6857 169.17C59.5826 168.796 59.523 168.409 59.5349 167.981C59.5613 167.029 59.6454 166.074 59.6959 165.123C59.802 163.127 59.9373 161.136 60.0959 159.144C60.1567 158.376 60.225 157.606 60.3031 156.837C59.7998 156.567 59.3658 156.209 58.8047 156.033L58.71 156.005C58.1099 155.843 58.3124 155.07 58.8455 155.003C59.3283 154.944 59.8088 154.971 60.2848 155.073C60.3586 155.089 60.4284 155.107 60.4949 155.128C60.5824 154.415 60.6794 153.705 60.7896 152.998C61.0811 151.131 61.2874 149.164 61.8942 147.37C61.9391 147.237 62.1363 147.19 62.2094 147.329C63.0922 149.009 63.1229 151.07 63.2224 152.941L63.2347 153.164C63.3519 155.205 63.3586 157.266 63.3208 159.31C63.282 161.416 63.2099 163.517 63.1154 165.621C63.0775 166.468 63.079 167.348 62.9346 168.158C68.1877 166.45 73.348 164.405 78.2942 161.983C81.7833 160.276 85.2422 158.499 88.6617 156.656C90.3751 155.733 92.0965 154.825 93.808 153.898C94.4076 153.573 95.0068 153.247 95.6058 152.921L96.5041 152.431C97.3447 151.972 98.0463 151.515 99.0254 151.483C99.3173 151.473 99.5791 151.61 99.7649 151.817C100.291 151.444 100.899 151.215 101.537 151.22C102.498 149.893 103.474 148.576 104.488 147.288L105.237 146.334C106.534 144.689 107.908 143.019 109.561 141.767C110.3 141.208 111.111 140.789 111.958 140.442C111.759 140.394 111.564 140.296 111.39 140.135C110.581 139.385 110.47 137.991 110.306 136.945C110.135 135.859 110.201 134.888 110.369 133.806C110.435 133.385 111.131 133.298 111.301 133.684C111.659 134.498 112.038 135.279 112.364 136.102L112.46 136.35C112.81 137.277 113.555 138.252 113.506 139.258C113.492 139.534 113.4 139.774 113.257 139.967C113.968 139.731 114.689 139.52 115.399 139.301C117.633 138.61 119.875 137.939 122.152 137.403C122.758 137.261 123.368 137.128 123.979 137.007C124.3 135.485 124.767 133.991 125.317 132.524C124.796 132.257 124.458 131.809 124.009 131.411C123.589 131.038 123.301 130.583 122.942 130.155C122.616 129.765 122.799 129.061 123.386 129.084L123.552 129.091C124.159 129.119 124.748 129.182 125.298 129.466L125.495 129.567C125.764 129.707 126.059 129.867 126.321 130.056C126.664 129.267 127.021 128.485 127.381 127.71L127.849 126.709C129.062 124.104 130.272 121.399 131.794 118.973C132.471 117.895 133.372 117.221 134.666 117.117C135.997 117.01 137.382 117.148 138.715 117.196C140.261 117.251 141.807 117.317 143.351 117.398C142.955 116.983 142.594 116.521 142.196 116.123C141.536 115.463 140.839 114.838 140.106 114.259C138.656 113.114 137.061 112.171 135.404 111.359C133.747 110.547 132.041 109.839 130.486 108.835C129.502 108.2 128.622 107.401 127.819 106.536C127.314 111.989 124.682 117.055 120.728 120.861C116.621 124.814 110.945 126.986 105.393 127.91C99.7298 128.852 93.8192 128.506 88.4017 126.537C85.6084 125.522 82.9293 124.071 80.5401 122.251C80.5138 122.41 80.4822 122.566 80.4202 122.713C80.3369 122.911 80.2351 123.079 80.1182 123.253L79.91 123.557C79.7786 123.749 79.6447 123.939 79.4956 124.117C79.1345 124.547 78.6229 124.735 78.0718 124.733C77.0166 124.73 76.2174 123.695 76.5014 122.671C76.6799 122.028 77.0617 121.64 77.6578 121.389C77.8462 121.309 78.0382 121.242 78.2313 121.177L78.3763 121.127C78.5715 121.061 78.7652 120.997 78.9661 120.96C77.8348 119.961 76.7851 118.875 75.8451 117.703C72.8969 114.026 69.9891 108.878 70.9747 103.996C70.9917 103.912 71.0672 103.859 71.1485 103.846C71.2057 103.503 71.388 103.172 71.6377 102.949C71.4696 102.904 71.3002 102.87 71.1299 102.847ZM101.744 187.258C102.328 186.934 102.931 187.706 102.456 188.182L101.748 188.891C101.09 189.552 100.45 190.22 99.8876 190.974L99.7514 191.158C98.9917 192.192 98.1816 193.39 96.9368 193.776C95.4312 194.243 93.9843 192.409 94.8562 191.068C95.6178 189.897 97.0845 189.455 98.3489 188.971C99.5451 188.513 100.626 187.88 101.744 187.258ZM53.1726 181.854C53.5156 181.405 54.4101 181.641 54.1758 182.277C53.4146 184.341 53.1043 187.156 51.1819 188.528C50.5618 188.97 49.5875 188.767 49.0769 188.256C48.4967 187.676 48.4734 186.858 48.8053 186.15C49.21 185.286 50.2054 184.66 50.9031 184.002L50.9657 183.942C51.7163 183.213 52.5282 182.698 53.1726 181.854ZM133.52 184.23C134.132 183.966 135.728 183.452 136.201 184.06C136.223 184.082 136.242 184.106 136.257 184.133C136.373 184.335 136.39 184.619 136.257 184.819C135.706 185.648 135.132 186.266 134.349 186.856L134.261 186.921C133.408 187.549 132.606 188.285 131.567 188.568C130.127 188.961 129.12 187.156 130.132 186.103C130.947 185.254 132.191 184.813 133.271 184.34L133.52 184.23ZM75.669 172.434C75.428 171.998 75.9204 171.464 76.3663 171.736C77.6383 172.514 79.12 173.097 80.5486 173.516C81.1268 173.686 81.6485 174.272 81.6055 174.905L81.5988 175.001C81.5817 175.224 81.5509 175.446 81.409 175.632C80.9114 176.283 80.1996 176.534 79.4394 176.148C77.7453 175.29 76.5857 174.091 75.669 172.434ZM112.846 171.114C112.815 170.931 112.949 170.79 113.135 170.825C114.21 171.029 115.203 171.548 116.126 172.145C116.621 172.465 117.098 172.817 117.592 173.141C118.202 173.54 118.431 173.87 118.521 174.602C118.58 175.086 118.129 175.528 117.715 175.661C116.587 176.025 115.294 174.831 114.53 174.055L114.495 174.02C113.695 173.204 113.035 172.239 112.846 171.114ZM145.131 169.847C144.886 169.185 145.73 168.636 146.283 168.961C146.803 169.267 147.367 169.521 147.857 169.872C148.308 170.194 148.719 170.576 149.151 170.926L149.365 171.095C150.158 171.732 151.466 173.309 150.333 174.224C149.254 175.094 147.824 173.982 147.099 173.17L147.049 173.112C146.632 172.631 146.119 172.108 145.816 171.545C145.532 171.016 145.339 170.409 145.131 169.847ZM134.492 118.606C133.14 118.869 132.59 120.537 132.021 121.625C130.678 124.192 129.443 126.805 128.202 129.422C127.821 130.227 127.449 131.038 127.074 131.848C127.051 131.911 127.021 131.974 126.987 132.036C126.218 133.691 125.427 135.335 124.502 136.907C125.348 136.748 126.199 136.613 127.053 136.506C127.01 135.702 127.561 134.625 127.833 133.948L127.856 133.891C128.196 133.023 128.552 131.655 129.426 131.205C129.718 131.055 130.029 131.243 130.052 131.564C130.118 132.519 129.184 133.613 128.727 134.423C128.451 134.914 128.182 135.407 127.92 135.905C127.821 136.091 127.739 136.274 127.638 136.439C128.079 136.391 128.52 136.349 128.962 136.318L129.25 136.298C130.89 136.19 132.631 136.159 134.112 136.968C135.487 137.718 136.189 139.319 135.434 140.777C134.493 142.594 132.422 142.835 130.601 142.982C128.326 143.166 126.046 143.497 123.787 143.82C121.45 144.155 119.25 145.016 116.948 145.459C116.734 145.5 116.601 145.22 116.797 145.101C118.613 143.995 120.82 143.387 122.85 142.767L123.014 142.717C124.115 142.378 125.191 141.992 126.33 141.8C127.436 141.614 128.548 141.463 129.664 141.348L129.772 141.338C131 141.235 134.133 141.27 134 139.451C133.912 138.248 131.957 138.04 131.064 138.025C126.97 137.96 122.848 139.047 118.957 140.211L118.089 140.472C116.496 140.951 114.901 141.445 113.338 142.007C111.567 142.643 110.171 143.637 108.881 144.996C107.451 146.503 106.066 148.044 104.582 149.5C103.646 150.418 102.699 151.32 101.744 152.214C101.528 152.493 101.355 152.797 101.236 153.192C101.034 153.858 101.08 154.477 101.156 155.162C101.349 156.89 101.391 158.636 101.632 160.359C101.856 161.955 102.168 163.61 102.831 165.09C103.093 165.677 103.434 166.252 103.823 166.767L104.137 167.176C104.274 167.353 104.427 167.547 104.587 167.729C104.823 167.441 105.164 167.254 105.561 167.301C106.404 167.4 107.066 167.377 107.893 167.183C108.533 167.033 109.168 166.858 109.805 166.695C111.056 166.376 112.318 166.085 113.557 165.719L113.769 165.655C114.692 165.371 115.615 165.017 116.383 164.421C117.275 163.728 117.55 162.729 118.211 161.865C119.622 160.021 122.672 160.059 124.737 159.554C126.492 159.125 128.18 158.447 129.395 157.174L129.466 157.098C129.412 156.87 129.499 156.614 129.71 156.496L129.756 156.471C129.839 156.425 129.927 156.405 130.014 156.407C130.127 156.242 130.236 156.071 130.334 155.889C130.416 155.739 130.619 155.849 130.592 155.997C130.576 156.086 130.554 156.172 130.533 156.259C131.71 155.956 133.002 156.014 134.196 156.014L135.746 156.009C136.014 156.006 136.414 155.992 136.45 155.976L136.486 155.96C136.583 155.918 136.446 155.987 136.513 155.898C136.588 155.799 136.66 155.699 136.732 155.598C136.989 155.238 137.232 154.868 137.47 154.494C134.875 155.155 132.186 155.567 129.536 155.91C126.692 156.279 123.812 156.534 120.943 156.537C120.152 156.538 120.159 155.344 120.943 155.314C123.981 155.198 127.002 155.037 130.02 154.647C131.58 154.446 133.134 154.193 134.679 153.897C135.275 153.783 135.87 153.662 136.464 153.534L136.909 153.437C137.188 153.375 137.977 153.286 138.362 153.028C138.437 152.898 138.513 152.769 138.588 152.639C138.551 152.183 137.392 152.244 137.121 152.243C136.35 152.242 135.58 152.248 134.81 152.25C133.269 152.254 131.729 152.241 130.188 152.229C127.11 152.204 124.02 152.096 120.944 152.228C120.198 152.259 119.805 151.062 120.543 150.747C123.801 149.355 127.418 149.053 130.896 148.625C132.725 148.4 134.556 148.141 136.344 147.685L136.786 147.573C137.909 147.285 139.15 146.934 140.096 146.247C138.674 145.672 136.907 145.738 135.433 145.656L135.32 145.65C133.256 145.523 131.189 145.458 129.121 145.455C124.891 145.449 120.659 145.599 116.433 145.799C116.327 145.804 116.305 145.637 116.408 145.615C120.752 144.667 125.166 144.21 129.611 144.139C131.681 144.107 133.752 144.136 135.82 144.227L136.579 144.263C138.343 144.339 140.3 144.359 141.775 145.424C142 145.587 142.119 145.794 142.137 146.013C144.116 142.068 145.944 138.039 147.778 134.038C149.205 130.926 150.578 127.789 152.057 124.701L152.535 123.703C153.176 122.37 153.833 121.037 154.562 119.753C151.836 119.388 149.094 119.135 146.351 118.941C143.851 118.764 135.695 118.373 134.492 118.606ZM133.285 161.372C133.596 161.199 134.072 161.34 134.149 161.723C134.206 162.009 134.303 162.326 134.303 162.618C134.303 162.968 134.178 163.349 134.111 163.691C133.958 164.478 133.769 165.118 133.369 165.82C133.118 166.258 132.613 166.556 132.105 166.545C131.702 166.535 131.346 166.427 131.07 166.116C130.739 165.743 130.512 165.194 130.693 164.691C131.168 163.374 132.042 162.062 133.285 161.372ZM67.3368 160.058C68.0644 158.783 69.7889 157.644 71.2939 157.757C73.5536 157.926 74.0147 160.97 71.8269 161.696C70.5191 162.13 68.72 161.684 67.576 160.97C67.2676 160.778 67.1545 160.377 67.3368 160.058ZM44.1126 155.703C43.9474 155.463 44.2205 155.188 44.4667 155.242C45.0128 155.362 45.6015 155.414 46.1364 155.577C46.6841 155.744 47.2143 156.021 47.7569 156.211C48.8935 156.609 50.1076 156.809 51.2077 157.29C51.6474 157.482 51.9933 158.119 51.9526 158.589L51.9422 158.699C51.9179 158.932 51.8775 159.135 51.7472 159.348C51.3972 159.92 50.7036 160.215 50.0489 160.039C48.8345 159.713 47.6478 158.875 46.6124 158.178L46.421 158.051C45.9686 157.753 45.4822 157.441 45.1176 157.057C44.7371 156.656 44.4244 156.157 44.1126 155.703ZM85.8582 151.067C85.7184 150.563 86.3447 150.23 86.7098 150.571C87.4394 151.251 88.2022 151.881 88.9167 152.578L88.9647 152.626C89.4764 153.14 90.2208 154.132 89.5553 154.797C88.7027 155.65 87.5153 154.385 87.0579 153.725C86.4777 152.888 86.1296 152.045 85.8582 151.067ZM141.688 146.903C140.606 148.05 138.939 148.577 137.47 149.014C135.73 149.532 133.936 149.841 132.141 150.095C130.406 150.341 128.684 150.56 126.977 150.842C128.268 150.858 129.56 150.868 130.848 150.891C132.334 150.918 133.819 150.95 135.305 150.993C136.387 151.025 137.656 150.876 138.685 151.279C138.87 151.351 139.043 151.451 139.194 151.573C140.059 150.036 140.887 148.477 141.688 146.903ZM74.9307 136.178C76.0603 135.819 77.1226 135.343 78.3201 135.467C78.6384 135.499 78.8663 135.809 78.6926 136.116C78.125 137.115 77.2022 137.679 76.2938 138.347L76.2137 138.406C75.2194 139.146 74.1518 139.82 73.0705 140.427C71.2088 141.473 69.5404 138.481 71.4205 137.604C72.5518 137.075 73.7402 136.557 74.9307 136.178ZM95.2685 133.582C96.9967 133.696 98.724 133.773 100.454 133.843C102.459 133.924 101.785 137.01 100.111 136.385C98.4564 135.768 96.8021 135.159 95.133 134.583C94.6249 134.408 94.6659 133.573 95.2363 133.581L95.2685 133.582ZM50.942 128.093C51.3899 128.061 51.8417 128.159 52.2903 128.203L52.7676 128.249C53.7515 128.347 54.6741 128.468 55.6124 128.868C57.3438 129.608 56.4139 132.392 54.6758 132.328C53.3911 132.281 52.2926 131.729 51.2078 131.086C50.2595 130.525 49.6781 129.822 49.0377 128.94C48.8256 128.648 49.1211 128.32 49.41 128.291C49.9188 128.239 50.4331 128.128 50.942 128.093ZM137.733 122.407C137.447 124.195 136.736 125.871 135.664 127.331C135.125 128.064 134.18 128.092 133.646 127.331C132.891 126.254 133.357 125.02 133.926 123.986L134.094 123.683C134.349 123.229 134.74 122.567 135.187 122.11L135.194 122.063C135.434 120.19 138.028 120.564 137.733 122.407ZM67.8325 110.929C68.2633 110.541 69.0568 110.657 69.1966 111.289C69.3923 112.174 69.5114 113.171 69.3832 114.069C69.3138 114.556 69.2877 115.102 69.0964 115.556C68.8907 116.044 68.495 116.419 68.1222 116.786C67.3779 117.518 65.8089 117.276 65.6095 116.122L65.5842 115.98C65.4839 115.435 65.3556 114.851 65.5041 114.31C65.6162 113.902 65.8667 113.485 66.0739 113.107L66.1176 113.026C66.5327 112.253 67.1798 111.517 67.8325 110.929ZM128.393 112.811L128.549 112.813C129.751 112.836 131.95 113.129 131.962 114.616C131.965 114.966 131.705 115.329 131.357 115.41C130.639 115.577 130.174 115.152 129.662 114.722C129.243 114.371 128.754 114.091 128.247 113.889C127.699 113.671 127.735 112.81 128.393 112.811Z" fill="black"/>
<path fill-rule="evenodd" clip-rule="evenodd" d="M130.47 54.8761C129.849 49.9199 127.899 44.6578 125.848 40.0373C121.236 30.2682 110.678 28.9232 101.213 26.909C91.873 25.5487 81.9825 24.3205 72.7832 27.0345C67.6116 28.302 65.5916 34.4637 66.4078 39.3261C66.8736 42.3561 68.2523 45.2238 69.4279 48.0319C71.7646 53.7987 73.2472 59.9726 73.2497 66.2163C73.0893 70.2965 72.5136 74.9537 77.2007 76.6819C81.6609 78.9007 82.0377 84.9155 87.6224 88.3282C89.8807 92.9042 96.0321 93.3069 100.459 94.3684C103.258 94.9041 106.088 95.2985 108.925 95.5532C117.142 96.6064 123.715 94.2247 128.016 86.9024C130.894 82.4462 133.038 77.3008 132.508 71.9001C131.981 66.2129 131.102 60.5556 130.47 54.8761Z" fill="white"/>
<path fill-rule="evenodd" clip-rule="evenodd" d="M101.284 15.0362C101.753 14.5045 102.475 14.6869 102.914 15.1073C103.199 15.1915 103.476 15.3166 103.737 15.4823C104.327 15.4065 104.946 15.4065 105.526 15.4277C105.666 15.3489 105.817 15.2788 105.98 15.2186C107.151 14.7904 108.188 15.0079 109.043 15.5812C109.455 15.1913 109.975 14.9467 110.639 14.9837C111.232 15.0168 111.655 15.2959 112.017 15.6635C112.378 15.1426 112.961 14.771 113.689 14.7193C114.705 14.647 115.682 15.0548 116.492 15.6861C116.964 15.1446 117.607 14.8334 118.324 14.8304C118.796 14.7447 119.293 14.7785 119.743 14.9144C120.396 15.1117 120.969 15.4813 121.426 15.961C122.148 15.269 123.033 14.771 124.052 14.8436C125.372 14.939 126.466 15.9096 126.974 17.1043C127.867 17.4622 128.692 17.9727 129.381 18.7005C129.418 18.7388 129.453 18.779 129.49 18.8193C129.861 18.9563 130.21 19.1506 130.518 19.4064C131.493 20.2181 131.711 21.3927 131.388 22.5436C131.433 22.7279 131.472 22.9153 131.507 23.1025C132.42 23.2414 133.249 23.7686 133.721 24.6269C134.367 25.8049 134.24 27.3574 133.54 28.482C133.24 28.9657 132.858 29.3733 132.43 29.7297C132.914 30.8306 132.682 32.1444 131.901 33.0349C131.71 33.3419 131.477 33.619 131.214 33.8698C131.504 35.0081 130.988 36.1825 129.958 36.7907L129.869 37.0113C129.855 37.048 129.84 37.0845 129.824 37.1206C129.813 37.1675 129.799 37.2128 129.785 37.2585C129.76 37.6624 129.627 38.0588 129.363 38.4323C128.823 39.1976 128.153 39.6967 127.798 40.5902L127.763 40.684C127.61 41.1069 127.117 41.4052 126.697 41.2747C129.029 46.0669 130.252 51.3991 131.092 56.6249C131.511 59.2319 131.834 61.8479 132.096 64.474L132.353 67.0891C132.579 69.4136 132.78 71.7457 132.781 74.0779C132.784 79.3536 131.276 84.4282 128.038 88.6264C124.975 92.5951 120.642 95.4713 115.746 96.604C110.692 97.7719 104.763 97.3118 100.23 94.6381C98.8939 93.8518 100.065 91.961 101.424 92.5936C103.998 93.7916 106.614 94.6817 109.468 94.8808C112.249 95.0764 115.037 94.7284 117.675 93.8182C122.038 92.3108 125.751 89.1535 128.138 85.2215C129.314 83.2838 130.165 81.1808 130.619 78.9586C131.183 76.189 131.098 73.3263 130.89 70.5213L130.876 70.3301C130.466 64.9255 129.926 59.4877 129.053 54.137C128.281 49.4054 127.095 44.7696 125.554 40.2365C124.951 39.7051 124.276 39.2653 123.553 38.9314C118.264 38.7103 112.964 38.7749 107.681 39.14C103.176 39.4534 98.6923 39.9836 94.2425 40.7564L93.7659 40.8401C92.7808 41.0157 91.687 41.1161 90.7587 41.5128C89.9626 41.8541 89.6398 42.51 89.4391 43.3163C88.934 45.3559 88.857 47.5881 88.7717 49.6796C88.6881 51.7241 88.8771 53.7856 88.7132 55.8234C88.5744 57.5284 88.1378 59.2735 86.8751 60.5068C86.2144 61.1525 85.4016 61.5056 84.6389 61.9958C84.1455 62.3122 83.9364 62.6383 84 63.2239C84.1371 64.5056 85.1691 66.1202 84.01 67.2178C83.806 67.4102 83.4531 67.4353 83.2524 67.2178C82.774 66.6976 82.1134 66.3009 81.5464 65.8809C81.3089 65.7071 81.5062 65.3691 81.7755 65.4894C82.1301 65.6485 82.4914 65.8359 82.861 65.9999C82.0448 65.3273 80.8841 64.9975 79.9173 64.8017C79.4306 64.7047 78.9188 64.6762 78.4121 64.7216C78.0374 64.9004 77.6544 65.0663 77.2714 65.2284C76.7847 65.4327 76.2929 65.6182 75.7979 65.7941C74.0802 67.1944 73.2606 69.4718 73.6186 71.6988C73.8143 72.9284 74.3812 74.2655 75.45 74.9833C76.7161 75.8332 78.4121 75.4683 79.7802 76.0993C81.0613 76.6897 81.8407 77.8829 82.4245 79.1177L82.6678 79.6318C83.2096 80.7701 83.7665 81.8781 84.5068 82.914C85.3631 84.1137 86.4118 85.1912 87.5558 86.1167C88.1108 86.5645 88.7023 86.9674 89.3137 87.3343L89.4809 87.4335C90.0997 87.7965 90.5429 88.1427 90.5848 88.9107C90.5981 89.1784 90.4292 89.4227 90.2118 89.5616C89.2752 90.1556 88.3436 89.4127 87.5642 88.894C86.7229 88.3351 85.9184 87.7062 85.1741 87.0202C83.7591 85.7184 82.5348 84.1724 81.5932 82.494C80.8757 81.2159 80.4676 79.4172 79.3336 78.4267C78.6412 77.8225 77.6628 77.8176 76.7981 77.707C75.9936 77.6035 75.2326 77.4362 74.5167 77.0396C71.6048 75.4216 70.7819 71.5047 71.4727 68.4779C71.5898 67.9674 71.7537 67.4705 71.9561 66.9919C70.8723 67.1726 69.6547 66.0518 70.0945 64.9205C70.128 64.8352 70.1665 64.7551 70.2032 64.6729C69.4891 64.2027 68.9254 63.4901 68.6578 62.558C68.5207 62.0761 68.5006 61.5892 68.5725 61.119C68.2263 60.8866 67.9403 60.5669 67.7563 60.1737C67.181 59.9076 66.6709 59.5096 66.3665 58.9407C65.945 58.1558 65.9985 57.433 66.3196 56.7821C66.2745 56.7003 66.231 56.6167 66.1892 56.5312C65.01 55.7834 64.1871 54.4949 64.2808 53.066C64.3109 52.5925 64.428 52.1658 64.6086 51.7811C64.5936 51.7326 64.5785 51.6823 64.5651 51.6337C63.5783 51.1318 62.7621 50.3071 62.4711 49.2061C62.1801 48.0983 62.523 46.994 63.2087 46.144C62.2052 45.4096 61.6014 44.384 61.9677 42.8327C62.1165 42.2021 62.4159 41.6281 62.8207 41.1445C62.819 41.1296 62.8157 41.1145 62.8123 41.0993L62.7184 41.0265C61.4796 40.0485 60.7674 38.8022 61.5278 37.2694C61.869 36.5802 62.3557 36.0998 62.9277 35.7836L62.9562 35.6932C62.5464 34.8148 62.4076 33.8394 62.6902 32.8137C62.921 31.9689 63.468 31.2961 64.1671 30.8495C64.1202 30.4712 64.1269 30.0682 64.2022 29.6313C64.3276 28.8936 64.6939 28.2494 65.2291 27.7926C65.2492 27.6954 65.2743 27.6002 65.3027 27.5047C65.4834 26.9209 65.8212 26.2867 66.2126 25.8164C66.5354 25.4266 66.8966 25.2843 67.3382 25.2693C67.3114 24.9097 67.3298 24.5448 67.4034 24.175C67.6292 23.0341 68.3551 21.9614 69.4305 21.4745C69.8721 21.2754 70.3371 21.217 70.7853 21.2653C71.1666 20.4622 71.9109 19.8801 72.8258 19.7546C73.182 19.7044 73.5132 19.7076 73.8176 19.7529C73.9899 19.6725 74.1688 19.6007 74.3562 19.5353C74.4799 19.4918 74.6054 19.4516 74.7308 19.4116C75.154 18.8862 75.7109 18.4661 76.3615 18.2136C77.1125 17.9208 77.8768 17.9507 78.5542 18.1967L78.77 18.1515C79.1078 17.5659 79.6464 17.1125 80.4743 16.9067C81.4142 16.6741 82.3793 16.9987 83.1186 17.5895C83.1219 17.5895 83.1253 17.5895 83.1303 17.5877C83.5166 16.7226 84.1773 16.1203 85.2862 16.1621C85.9769 16.1889 86.6008 16.532 87.0825 17.0206C87.3501 16.987 87.6177 16.9569 87.887 16.9269C88.1713 16.5938 88.4874 16.2827 88.837 16.0033C89.409 15.5447 90.1532 15.5817 90.5747 16.2274C90.6667 16.3679 90.752 16.5101 90.8373 16.6523L91.2237 16.6256C91.6786 16.0115 92.2991 15.5966 93.1488 15.5633C93.9282 15.5313 94.4834 15.913 94.9066 16.4465C95.2511 16.4382 95.5973 16.4317 95.9436 16.4265C96.3466 15.9596 96.8216 15.548 97.3635 15.2067C97.7783 14.9457 98.3905 15.0345 98.7267 15.3826C98.9538 15.6192 99.1652 15.8661 99.3617 16.1218C99.8683 15.5536 100.553 15.1793 101.284 15.0362ZM76.6674 68.1683C77.4484 67.7232 78.4988 68.2051 79.2548 68.5832C80.1763 69.0433 81.0912 69.7377 81.6548 70.6078C82.4225 71.7924 80.6179 72.7494 79.81 71.687C79.3133 71.0328 78.9169 70.3735 78.3148 69.8013C77.7645 69.2759 76.9667 68.9245 76.6506 68.2318C76.6389 68.2084 76.6423 68.1817 76.6674 68.1683ZM77.2167 39.4137L77.2313 39.3719C77.4534 38.7641 76.484 38.5021 76.2637 39.1049C75.9299 40.0186 76.3147 41.012 77.2169 41.4065C77.4669 41.516 77.7526 41.478 77.9033 41.2265C78.0299 41.0149 77.9712 40.6481 77.7233 40.5398C77.2157 40.3178 77.0457 39.9258 77.2167 39.4137ZM68.8643 37.7145C69.3495 37.2862 68.6375 36.5783 68.1547 37.0048C67.7041 37.4027 67.3699 37.9431 67.4567 38.5647C67.5452 39.1982 68.0227 39.6454 68.5454 39.9615C69.0993 40.2966 69.6043 39.4289 69.0518 39.0946L68.9898 39.0566C68.7579 38.9125 68.4864 38.7144 68.4472 38.431C68.4055 38.1298 68.6603 37.8947 68.8643 37.7145ZM71.6201 30.156L71.6545 30.1308C72.1757 29.7586 71.6751 28.8876 71.1479 29.2639C70.6645 29.6091 70.2768 30.0575 70.236 30.6759C70.1964 31.2769 70.5021 31.7979 70.9019 32.2207C71.3466 32.6911 72.0554 31.9803 71.6115 31.511C71.179 31.0535 71.0945 30.5544 71.6201 30.156Z" fill="black"/>
<path fill-rule="evenodd" clip-rule="evenodd" d="M119.206 79.429C119.323 79.3976 119.425 79.5535 119.329 79.6388C118.935 79.9884 118.685 80.6396 118.397 81.0835C118.124 81.5058 117.861 81.9237 117.62 82.3658C117.351 82.8612 117.091 83.3548 116.881 83.879L116.84 83.9848C116.902 84.1343 116.951 84.2819 116.988 84.3786L116.998 84.4061C117.356 85.3213 116.604 86.3384 115.756 86.5943C114.305 87.0318 113.061 85.84 113.026 84.4226C112.999 83.3076 113.754 82.3141 114.522 81.5771C115.194 80.9324 115.946 80.3836 116.787 79.9815C117.158 79.8043 117.543 79.6561 117.946 79.5701C118.358 79.4822 118.803 79.5381 119.206 79.429ZM116.473 83.4692C116.579 83.5194 116.67 83.6421 116.746 83.7853C116.708 83.6638 116.629 83.543 116.473 83.4692ZM117.38 67.9766C118.643 68.7446 120.568 70.5355 119.209 72.4394C117.61 74.1182 115.307 72.1934 114.172 71.3229C113.12 70.6482 111.938 72.3834 112.914 73.1712C121.114 79.2441 124.441 68.1775 118.019 67.0737C117.312 66.952 117.049 67.7391 117.38 67.9766ZM106.998 60.6026L107.221 60.5839C108.189 60.4986 109.169 60.3685 110.124 60.5876C111.406 60.8821 111.312 62.7483 110.124 63.0915C109.076 63.3939 107.916 63.263 106.835 63.2734C106.665 63.2751 106.495 63.2794 106.325 63.2823C106.291 63.6867 106.159 64.0354 105.956 64.3837C105.81 64.6337 105.625 64.8711 105.442 65.0932C105.008 65.6209 103.984 65.609 103.546 65.0932C103.221 64.7113 102.963 64.2721 102.959 63.7553C102.958 63.6229 102.974 63.4824 103.006 63.3442L102.416 63.3545C100.971 63.3765 99.5162 63.3667 98.0981 63.1372C97.5936 63.2416 97.1809 62.3311 97.8771 62.0585C99.7699 61.3179 101.885 61.0999 103.893 60.8776C104.925 60.7631 105.963 60.6843 106.998 60.6026ZM123.123 59.8374L123.175 59.8322C124.427 59.7039 125.808 59.4817 127.063 59.6095C128.937 59.8001 128.934 62.3343 127.063 62.5239C126.376 62.5935 125.653 62.5597 124.931 62.4931C125.3 63.2758 124.863 64.2106 123.974 64.3301C123.148 64.4411 122.292 63.6383 122.563 62.7772L122.576 62.7392C122.629 62.5898 122.676 62.4228 122.733 62.258L122.434 62.2328C121.541 62.1538 120.301 61.9925 119.972 61.2869C119.873 61.0742 119.896 60.8768 120.048 60.6951C120.675 59.9495 122.218 59.9249 123.123 59.8374ZM109.804 54.0345C110.71 53.7051 111.653 54.4761 111.77 55.345C111.906 56.3462 111.184 57.0055 110.269 57.1251L110.223 57.1306C108.203 57.3531 106.198 57.76 104.176 57.9901C103.257 58.0945 102.332 58.1631 101.407 58.1878L100.747 58.2027C99.9368 58.2232 99.0682 58.2416 98.3206 57.9627L98.3235 57.9576C98.1249 57.9001 98.0336 57.6136 98.2546 57.457C99.0505 56.894 100.123 56.6812 101.05 56.4136C101.982 56.1444 102.92 55.8963 103.861 55.6632C105.837 55.1743 107.89 54.7302 109.804 54.0345ZM118.164 54.2689C118.405 53.0021 120.198 52.8662 120.857 53.788C121.283 53.9342 121.907 54.0868 122.294 54.2016C122.968 54.4015 123.643 54.6003 124.319 54.7929C125.719 55.1918 127.085 55.6974 128.461 56.1688C128.603 56.2175 128.564 56.3975 128.428 56.4154C126.507 56.6655 124.618 56.7819 122.685 56.7017L122.289 56.6838C120.586 56.6175 117.695 56.7441 118.164 54.2689Z" fill="black"/>
<path fill-rule="evenodd" clip-rule="evenodd" d="M120.923 86.7079C119.365 85.3197 117.619 82.5288 115.381 84.7371C114.828 85.361 114.604 86.7598 113.758 87.0342C112.634 87.3989 111.52 86.2093 111.137 85.2957C109.57 80.2198 116.048 78.8275 119.739 79.6476C121.542 80.3883 122.87 83.3699 122.95 84.926C123.002 85.9717 122.117 87.5094 120.923 86.7079ZM132.674 78.8842C132.659 78.8168 132.637 78.7559 132.612 78.7005C131.923 78.44 131.378 78.7057 131.041 79.202C131.052 79.3253 131.089 79.4503 131.112 79.5726C130.852 80.1204 130.618 80.7982 130.265 81.2716C130.196 81.2769 130.124 81.2695 130.054 81.2495C124.215 81.8595 127.066 75.7475 121.143 74.2294C116.565 73.4738 108.29 74.3394 106.131 79.1064C104.427 86.7208 95.7664 81.4151 92.9228 77.4552C89.8887 73.8513 87.9268 69.4475 86.0351 65.1741C85.6354 64.2698 84.3879 64.9165 84.5235 65.7842C82.775 69.293 82.8332 73.5078 82.4002 77.3518C81.6636 85.0208 80.9459 95.7758 88.0688 100.459C97.3492 110.952 120.523 114.655 131.227 105.013C134.933 97.044 134.476 87.3216 132.674 78.8842Z" fill="black"/>
</g>
<defs>
<clipPath id="clip0">
<rect width="190" height="205.833" fill="white"/>
</clipPath>
</defs>
</svg>
