<svg width="234" height="299" viewBox="0 0 234 299" fill="none" xmlns="http://www.w3.org/2000/svg">
<g clip-path="url(#clip0)">
<path fill-rule="evenodd" clip-rule="evenodd" d="M179.053 283.228C178.464 277.759 178.102 272.252 177.893 266.755C177.685 261.265 177.957 255.707 178.077 250.215C178.32 239.043 178.716 227.844 177.826 216.688C176.986 206.145 175.057 195.676 172.013 185.546C170.53 180.612 168.968 175.48 166.53 170.922C164.078 166.339 160.194 163.287 155.928 160.488C151.386 157.508 146.881 154.471 142.357 151.464C138.559 148.939 131.725 146.001 128.609 142.626C125.33 139.074 124.714 130.271 122.53 126.064C120.404 121.966 114.385 119.293 109.75 119.293C102.079 119.293 96.2661 118.901 89.9581 126C86.8109 129.542 89.315 133.123 86.0161 136.523C82.9832 139.649 75.2268 142.861 71.3178 144.674C66.6359 146.847 61.8359 148.764 56.9662 150.473C51.9988 152.215 46.9062 153.514 41.9108 155.159C37.1227 156.736 30.8704 163.234 27.1533 166.672C23.6975 169.869 22.8398 169.511 20.2126 173.394C14.4466 181.916 8.67438 190.537 4.08278 199.764C1.79571 204.36 -0.418804 209.195 -1.24861 214.3C-2.13374 219.744 -1.25613 225.006 0.179287 230.277C1.64043 235.642 6.28031 240.749 7.79191 246.1C8.48852 248.566 6.09736 251.257 7.19722 253.581C7.74654 254.741 8.43829 255.775 9.22588 256.786C9.83271 257.565 12.1992 257.392 12.5054 258.346C12.8148 259.309 11.1027 261.308 11.0772 262.305C11.041 263.731 10.9842 265.158 10.9374 266.584L10.6608 275.018C10.4791 280.56 10.2974 286.102 10.1156 291.644C10.0562 293.453 9.96955 295.221 10.4031 296.937C10.2466 296.792 10.0979 296.634 9.96203 296.457C9.56436 295.937 8.72096 296.378 9.05847 296.985C9.62186 297.999 10.432 298.713 11.3839 299.225C12.49 300.857 180.01 304.5 180.834 299.731C181.297 297.055 180.455 294.19 180.119 291.531C179.768 288.762 179.352 286.004 179.053 283.228Z" fill="white"/>
<path fill-rule="evenodd" clip-rule="evenodd" d="M8.88425 214.309C9.29406 213.135 11.1686 213.643 10.7559 214.825C8.63433 220.905 10.1394 227.52 12.433 233.324C12.8933 234.488 11.0153 234.988 10.5613 233.84C8.14858 227.735 6.6559 220.694 8.88425 214.309ZM23.1104 249.034C29.0938 249.876 35.082 250.396 41.1066 250.816C41.3759 250.835 41.6088 250.794 41.8102 250.706C41.6306 253.466 41.4851 256.228 41.371 258.991C39.7284 258.945 38.0518 259.054 36.4237 259.01C34.2958 258.952 32.1704 258.845 30.0473 258.683C25.9371 258.372 21.8342 257.877 17.7701 257.192C16.2512 256.937 14.3222 256.782 12.5922 256.277C10.9569 255.799 9.5011 255.008 8.7368 253.517C8.08654 252.255 7.96765 250.709 7.96765 249.313C7.96765 248.352 8.13264 247.376 8.23212 246.408C8.35587 246.321 8.46748 246.216 8.55725 246.1C10.3624 246.67 12.2356 247.071 14.0699 247.459C17.0567 248.095 20.0872 248.609 23.1104 249.034ZM19.7359 226.591C19.7689 228.447 20.2821 230.132 21.2805 231.694C21.956 232.751 20.2753 233.724 19.6044 232.674C18.4291 230.835 17.8337 228.77 17.7949 226.591C17.7725 225.339 19.7136 225.343 19.7359 226.591ZM173.111 246.83C173.921 246.875 174.736 246.903 175.549 246.946C176.265 247.559 177.258 247.874 178.164 247.679C178.195 247.757 178.224 247.845 178.25 247.947C178.41 248.57 178.49 249.24 178.582 249.876C178.674 250.503 178.745 251.134 178.793 251.765C178.817 252.083 178.97 252.801 178.776 253.078C178.601 253.328 178.216 253.306 177.949 253.338C177.231 253.415 176.503 253.452 175.78 253.513C174.414 253.631 173.048 253.75 171.684 253.869C170.347 253.986 168.879 253.95 167.571 254.301C167.348 251.677 167.144 249.054 166.955 246.427C168.981 246.726 171.099 246.718 173.111 246.83ZM3.23801 242.479C4.05326 244.054 4.80542 245.602 6.36555 246.549C6.56937 246.67 6.79744 246.736 7.03037 246.753C6.85567 247.503 6.74649 248.27 6.64944 248.979C6.43592 250.54 6.38982 252.154 6.78046 253.692C7.16139 255.19 7.79224 256.528 9.02967 257.486C9.60471 257.933 10.2331 258.273 10.8931 258.542C10.7815 258.855 10.716 259.166 10.7499 259.508C10.5922 260.302 10.4879 261.11 10.3739 261.884C10.1239 263.603 9.87404 265.324 9.6775 267.052C9.28444 270.489 8.97629 273.926 8.71667 277.375C8.45706 280.815 8.27023 284.259 8.11494 287.706C8.03487 289.468 7.96451 291.23 7.899 292.995C7.83349 294.808 7.5399 296.663 8.34059 298.345C8.986 299.704 11.1673 299.626 11.8369 298.345C12.6862 296.716 12.4362 294.781 12.4581 292.995C12.4799 291.313 12.509 289.629 12.5454 287.946C12.6182 284.502 12.725 281.06 12.8099 277.616C12.8924 274.254 12.9943 270.895 13.0622 267.533C13.0962 265.773 13.0986 264.013 13.1083 262.253C13.1132 261.278 13.1544 260.237 13.0817 259.219C13.6882 259.363 14.2997 259.484 14.9038 259.608C19.5163 260.554 24.1773 261.244 28.8674 261.671C31.2234 261.884 33.5866 262.035 35.9499 262.12C37.6871 262.183 39.4875 262.304 41.2514 262.239C41.1131 266.453 41.05 270.669 41.0573 274.885C41.0622 277.926 41.1034 280.968 41.1786 284.009C41.2199 285.609 41.2538 287.208 41.3024 288.808C41.3242 289.527 41.3242 290.252 41.3727 290.968C41.3873 291.192 41.4188 291.408 41.4601 291.621C41.2999 292.075 41.1665 292.524 41.0573 292.944C40.5235 294.983 40.5235 296.942 40.7613 299.02C40.9651 300.782 42.4476 302.415 44.4057 301.797C44.7235 301.697 45.0414 301.592 45.3568 301.486C48.2393 301.813 51.1387 301.889 54.0625 301.944C58.3353 302.027 62.6105 302.054 66.8857 302.075C75.2711 302.119 83.6589 302.141 92.0468 302.165C108.903 302.214 125.758 302.26 142.614 302.309C147.292 302.323 151.97 302.335 156.648 302.35C159.069 302.357 161.486 302.359 163.905 302.452C165.033 302.496 166.164 302.556 167.292 302.573C168.6 302.595 169.757 302.219 171.007 301.877C171.713 301.68 171.992 300.971 171.842 300.372C172.972 300.641 174.343 300.068 174.729 298.794C175.01 297.869 174.906 296.867 174.486 296.01V296.007C173.676 290.888 172.647 285.793 171.839 280.672C170.954 275.062 170.102 269.441 169.352 263.81C168.789 259.557 168.326 262.571 167.926 258.299C169.67 258.435 171.643 257.904 173.37 257.678C174.61 257.518 175.86 257.389 177.102 257.219C177.01 258.472 177.036 259.748 177.003 260.95C176.937 263.336 176.966 265.712 177.027 268.099C177.143 272.703 177.403 270.023 177.818 274.608C178.238 279.227 178.752 283.83 179.375 288.427C179.696 290.794 180.038 293.158 180.399 295.519C180.567 296.621 180.739 297.721 180.916 298.823C181.127 300.122 181.195 301.352 182.168 302.328C182.908 303.068 184.42 303.005 184.91 301.974C185.531 300.67 185.25 299.554 185.019 298.185C184.832 297.085 184.653 295.985 184.476 294.886C184.097 292.529 183.738 290.17 183.401 287.808C182.751 283.257 182.137 278.698 181.588 274.135C181.035 269.535 180.462 272.222 179.919 267.623C179.645 265.302 179.371 262.986 179.05 260.674C178.888 259.484 178.786 258.217 178.572 256.991C178.64 256.982 178.708 256.969 178.776 256.957C180.251 256.688 181.511 255.855 181.882 254.336C182.236 252.882 181.814 251.209 181.516 249.782C181.261 248.567 181.03 247.015 180.248 245.973C183.005 242.461 184.797 238.041 185.941 233.793C187.187 229.163 187.708 224.331 187.818 219.548C187.947 214.006 187.529 208.496 186.58 203.077C186.557 201.929 186.504 200.781 186.419 199.634C185.584 188.382 182.081 175.063 170.973 169.805C170.929 169.784 170.883 169.764 170.837 169.745C169.966 168.703 168.879 167.766 168.001 166.89C166.446 165.337 164.82 163.851 163.097 162.482C159.686 159.771 155.944 157.606 152.055 155.657C148.122 153.683 144.131 151.832 140.287 149.678C136.939 147.8 133.925 145.537 131.065 142.984C127.85 140.112 125.562 136.241 124.664 132.015C124.618 131.794 124.29 131.855 124.285 132.066C124.05 139.811 129.276 146.656 135.291 150.987C142.483 156.159 151.167 158.608 158.46 163.623C160.273 164.869 161.969 166.274 163.582 167.766C161.11 167.514 158.594 167.674 156.277 168.359C155.364 168.303 154.447 168.286 153.533 168.242C151.441 168.138 149.347 168.041 147.253 167.949C142.985 167.759 138.715 167.587 134.445 167.437C126.066 167.14 117.686 166.917 109.305 166.769C92.4641 166.47 75.6011 166.412 58.7623 166.9C54.1959 167.031 30.1849 166.121 27.9624 166.378C31.2307 163.548 34.8168 161.237 38.7596 159.337C43.6923 156.965 48.79 155.382 54.0576 153.936C64.9058 150.958 76.1712 148.086 84.8527 140.52C87.0097 138.639 88.9265 136.477 90.4963 134.081C91.9958 131.794 93.6627 128.867 93.704 126.078C93.7331 124.097 90.9768 123.376 89.9965 125.073C89.3875 126.124 89.0866 127.277 88.5892 128.379C88.0943 129.471 87.5071 130.525 86.8544 131.532C85.5709 133.513 83.9792 135.28 82.2468 136.874C78.5539 140.277 74.0798 142.77 69.4503 144.656C58.9394 148.936 47.4434 150.742 37.4833 156.383C33.1256 158.851 28.9547 162.257 26.3367 166.601C25.9145 166.667 25.4948 166.745 25.075 166.832C25.388 166.436 25.7035 166.041 26.0213 165.647C26.23 165.39 25.9073 165.051 25.6525 165.279C20.7003 169.686 16.1388 174.446 12.0044 179.636C8.04943 184.602 4.3614 189.806 1.75066 195.622C-2.94187 206.069 -3.97549 218.019 -1.55158 229.189C-0.891618 232.233 0.0400951 235.213 1.22657 238.095C1.83801 239.583 2.5004 241.049 3.23801 242.479Z" fill="black"/>
<path fill-rule="evenodd" clip-rule="evenodd" d="M110.148 24.598C123.925 24.598 141.18 40.3198 146.23 47.01C150.476 52.6348 149.875 81.612 149.875 98.8013C149.875 102.396 148.251 109.2 147.661 112.639C145.5 125.24 136.086 135.809 117.452 135.809C102.279 135.809 90.6031 131.001 79.312 118.705C76.7361 115.899 64.1559 125.942 61.5831 122.325C54.863 122.325 49.2438 59.5126 62.4379 40.6725C75.632 21.8323 96.3713 24.598 110.148 24.598Z" fill="white"/>
<path fill-rule="evenodd" clip-rule="evenodd" d="M68.741 29.0219C76.7018 21.7765 87.3074 18.2909 98.0075 18.5482C103.549 18.6817 109.072 19.7375 114.305 21.5459C116.923 22.4537 119.459 23.6382 121.883 24.9781C122.756 25.4598 123.561 26.0242 124.337 26.6237L124.53 26.7742H124.532C126.612 27.5219 128.468 28.8641 130.152 30.4346C133.527 30.1652 136.928 30.4686 140.192 31.5099C144.734 32.9614 148.939 35.6193 151.892 39.3937C155.331 43.7879 156.475 49.1179 156.067 54.6202L155.991 55.5549C155.588 60.4155 154.865 66.6673 150.877 69.861C150.574 70.1037 150.239 70.2882 149.892 70.3999C152.462 74.803 154.57 79.6915 155.832 84.6286C160.648 103.486 156.946 123.152 151.154 141.328C150.678 142.825 148.415 143.82 147.262 142.357C145.205 139.74 142.215 137.745 138.852 137.371C136.778 137.141 134.713 137.558 132.753 136.616C131.983 136.245 131.241 135.638 130.707 134.9C127.398 136.155 123.833 136.747 120.298 136.602C114.497 136.364 108.295 134.354 104.304 129.946C103.663 129.238 103.501 128.444 103.648 127.728C104.149 127.549 104.663 127.416 105.192 127.333C110.254 130.317 115.833 132.311 121.829 132.436C125.293 132.509 128.673 132.024 131.482 129.86C132.09 129.391 132.649 128.873 133.166 128.315C139.039 124.536 143.18 118.116 145.149 111.239C146.983 104.826 146.757 98.1486 146.127 91.5706L145.794 88.0995C145.309 83.0048 144.859 77.8949 144.732 72.7786L144.771 72.7767C146.011 72.6966 146.02 70.754 144.771 70.8348C141.539 71.0441 138.332 70.5137 135.11 70.7448C135.083 69.2212 134.973 67.7044 134.526 66.2349C134.27 65.3953 132.809 65.2297 132.654 66.2349C132.447 67.5796 132.371 68.9168 132.349 70.2676C127.527 70.2035 122.711 69.7976 117.888 69.9644C116.999 69.0153 116.716 67.3325 116.3 66.1618C116.239 65.9895 116.178 65.8196 116.115 65.6472C115.75 67.3201 115.231 68.9564 114.55 70.5581L113.367 70.5621C106.657 70.5936 99.8104 70.7943 93.2582 72.1883C92.8028 71.8385 92.5317 71.2283 92.4585 70.6741C91.9832 67.0682 91.3049 63.5582 90.1027 60.1218L89.9307 59.637C89.9167 59.5968 89.9018 59.5541 89.8863 59.5091C89.0005 60.9395 87.9435 62.2728 86.7908 63.5144C86.1114 64.2462 85.399 64.946 84.668 65.6259C83.9578 66.4147 83.2238 67.1917 82.5124 67.983C82.5403 68.1269 82.5646 68.2731 82.5843 68.4219C82.8019 70.0639 82.8245 71.7293 82.6651 73.3777C82.3768 76.3576 81.5358 79.2291 80.1849 81.8855L80.1421 82.1515C79.937 83.3964 79.6451 84.6829 78.9634 85.6204C79.8141 86.5738 80.4695 87.7127 80.8494 88.9781C81.1877 90.1046 79.6297 91.0808 78.8217 90.1589C78.18 89.4266 77.4669 88.8205 76.6836 88.337C76.6342 88.4043 76.5449 88.4373 76.4447 88.3812C74.2634 87.17 70.5584 87.5365 68.3795 88.6773C65.6693 90.0949 64.6114 93.0052 64.9123 95.9543C65.201 98.7724 66.4336 102.066 68.8235 103.51C69.9202 104.173 70.7743 104.229 71.9389 103.911C72.3113 103.81 72.773 103.499 72.9712 103.345L73.1662 103.189C73.9297 102.585 74.6408 102.172 75.5421 102.156C76.4639 101.868 77.3903 102.267 77.7429 103.234L77.7646 103.297C77.9296 103.79 78.2304 104.409 78.1649 105.161C78.097 105.967 77.7282 106.7 77.1774 107.29C77.0828 107.392 76.9809 107.494 76.8765 107.588C86.3635 117.863 87.5815 133.873 82.7167 146.709C82.5056 147.272 82.28 147.828 82.0446 148.379C81.2318 150.267 78.1018 149.682 77.7039 147.811C77.585 147.25 77.454 146.692 77.3109 146.138C77.0477 145.116 76.7463 144.103 76.4065 143.104L76.2772 142.731C75.9885 141.905 75.7192 141.073 75.428 140.247L75.3989 140.153C75.388 140.116 75.3759 140.073 75.3625 140.024L74.87 141.099L73.3729 144.345C72.6724 145.859 70.4466 145.036 70.3638 143.577L70.3618 143.527C70.3546 143.257 70.3448 142.99 70.3279 142.726C70.2211 140.743 69.879 138.815 69.3355 136.929L69.1394 137.173C66.2196 140.784 62.7928 144.169 58.0918 145.002C56.9126 145.211 55.5782 143.978 56.3886 142.786C56.7234 142.294 57.0461 141.789 57.3518 141.277C57.0873 141.153 56.8374 141.024 56.6069 140.893C54.8236 139.891 53.3387 138.463 52.1109 136.844C49.5075 133.412 48.5758 129.092 48.3477 124.863C48.105 120.395 48.4981 115.683 49.7186 111.372C50.2475 109.508 50.9633 107.719 51.7907 105.984C51.7324 105.829 51.6766 105.673 51.6208 105.518C50.7279 103.027 49.9952 100.481 49.3862 97.9059C48.1584 92.7066 47.4985 87.3423 47.4184 81.9999C47.2728 72.4291 48.9227 62.7054 52.3997 53.7802C55.9906 44.576 61.3917 35.7091 68.741 29.0219ZM64.2692 112.7C63.6098 111.662 61.96 112.597 62.5722 113.643L62.5951 113.681C63.6408 115.329 64.1309 117.203 64.7327 119.04C65.1184 120.222 66.994 119.717 66.6034 118.523L66.474 118.125C65.8753 116.261 65.329 114.368 64.2692 112.7ZM70.0122 92.8736L70.4503 92.6615C71.8321 92.0018 73.0429 91.5525 74.6756 92.1284C76.8617 92.8979 79.2031 95.347 77.7255 97.7233C77.182 98.5996 76.2163 98.9491 75.2215 98.7428C73.5444 98.3948 73.1117 96.884 72.2606 95.6438L72.1141 95.4338C71.5953 94.6833 70.9391 93.6459 70.0753 93.3518C69.8787 93.2838 69.7962 92.978 70.0122 92.8736ZM71.2452 42.4206L71.3863 42.2941C72.3253 41.464 70.9471 40.095 70.013 40.9203C65.7378 44.6996 64.2529 50.6149 62.0352 55.6563C61.5378 56.7899 63.2095 57.7802 63.7118 56.637C65.8272 51.8262 67.2314 46.0714 71.2452 42.4206ZM122.621 40.7673C121.504 40.2637 120.526 41.89 121.6 42.4255L121.64 42.4446C125.416 44.1509 127.022 48.0152 128.56 51.6027C129.05 52.7484 130.722 51.7605 130.237 50.6245L129.959 49.9808C128.354 46.2837 126.482 42.5153 122.621 40.7673ZM128.538 38.4321C127.354 38.0219 126.847 39.8957 128.021 40.3059C131.222 41.4201 133.417 43.8231 135.269 46.5708C135.963 47.5999 137.644 46.629 136.943 45.5901C134.793 42.4007 132.241 39.7234 128.538 38.4321Z" fill="black"/>
<path fill-rule="evenodd" clip-rule="evenodd" d="M122.039 118.765C120.407 118.1 118.952 116.989 117.888 115.571C117.518 115.078 117.422 114.557 117.5 114.081C117.587 113.546 117.904 113.06 118.336 112.735C118.769 112.408 119.311 112.247 119.835 112.329C120.29 112.4 120.743 112.65 121.102 113.167L121.177 113.27C121.809 114.127 122.634 114.829 123.573 115.282C124.478 115.718 125.491 115.922 126.538 115.803C128.534 115.578 129.909 114.498 131.371 113.032C131.552 112.847 131.733 112.656 131.915 112.462C132.03 112.286 132.19 112.173 132.367 112.114C132.564 112.048 132.787 112.052 132.991 112.123C133.188 112.192 133.363 112.322 133.481 112.495C133.593 112.66 133.657 112.863 133.636 113.097C133.503 114.616 132.709 115.972 131.581 117.037C130.328 118.219 128.668 119.037 127.105 119.324C125.382 119.64 123.628 119.414 122.039 118.765ZM127.917 95.3274C129.749 96.4416 132.541 99.0395 130.57 101.802C128.25 104.237 124.91 101.445 123.263 100.182C121.737 99.203 120.022 101.72 121.438 102.863C133.333 111.673 138.16 95.6188 128.844 94.0175C127.818 93.841 127.437 94.9828 127.917 95.3274ZM106.602 85.0794C106.804 82.5656 110.631 81.9948 111.012 84.4823C111.353 86.7105 110.951 88.7575 109.948 90.7636C108.99 92.6802 106.58 91.786 106.398 90.0408C106.154 87.7014 106.476 86.6431 106.602 85.0794ZM135.734 83.9663C136.267 83.2672 137.038 82.79 137.961 83.0597C140.844 83.9027 139.994 87.9982 138.982 89.9918C138.431 91.0743 136.652 91.3489 135.849 90.3957C134.538 88.8412 133.911 85.737 135.577 84.2058C135.622 84.1267 135.672 84.0469 135.734 83.9663ZM109.908 74.0802L110.363 74.0004C111.772 73.7566 113.524 73.5223 114.521 74.6557C115.05 75.2567 115.232 76.3737 114.521 76.949C113.271 77.9612 111.889 77.5689 110.391 77.6546C109.157 77.7255 107.97 77.9298 106.781 78.2699C104.172 79.0158 102.046 80.3775 99.8184 81.8727C99.526 82.0689 99.2275 81.6948 99.3671 81.4213C100.653 78.901 103.146 76.8308 105.643 75.5688C106.975 74.8953 108.433 74.3365 109.908 74.0802ZM133.105 72.9507L133.453 73.0221C137.248 73.8155 142.177 75.4003 143.974 79.1285C144.042 79.6557 143.97 79.7687 143.911 79.8425L143.891 79.867C143.843 79.9301 143.804 80.017 143.576 80.0887C143.512 80.0736 143.448 80.0576 143.384 80.0406C142.56 79.8247 141.909 79.5273 141.278 79.2186L140.594 78.8815C139.8 78.4923 139 78.1172 138.151 77.8403C136.341 77.2495 134.478 76.8334 132.587 76.6111C132.177 76.563 131.783 76.4246 131.471 76.1874C131.176 75.9623 130.95 75.6506 130.847 75.2363C130.713 74.7001 130.752 74.2941 131.039 73.8104C131.256 73.4471 131.565 73.1953 131.92 73.0507C132.283 72.9033 132.695 72.8686 133.105 72.9507Z" fill="black"/>
<path fill-rule="evenodd" clip-rule="evenodd" d="M148.377 97.4989C146.744 99.6943 143.715 100.394 140.922 100.152C134.897 99.572 133.001 92.7268 132.803 87.4064C136.843 88.5434 132.461 80.4911 146.272 79.6056C151.14 79.1998 149.798 82.1412 151.949 84.2903C151.905 88.8007 151.154 93.7016 148.377 97.4989ZM119.681 92.3162C116.124 108.98 96.6459 105.016 94.5998 89.995C96.4892 88.6609 95.9916 85.3669 98.3388 84.1734C102.059 81.7956 106.709 81.8973 110.934 81.9531C116.333 82.3243 117.872 84.562 120.646 87.0034C120.513 88.634 120.128 90.5666 119.681 92.3162ZM156.093 76.8458C155.893 76.8125 155.693 76.7812 155.493 76.7518C155.337 76.6633 155.154 76.595 154.941 76.554C154.455 76.4305 153.972 76.3472 153.489 76.3023C146.566 74.7438 130.551 76.9567 129.89 82.8667C127.685 83.6029 125.778 82.9436 123.223 83.0092C121.278 74.8765 87.6528 76.0244 86.0356 80.9275C86.0296 80.9258 86.0235 80.9244 86.0172 80.9224C84.4634 80.4413 82.1727 80.5573 80.3941 80.4811C76.5967 80.4015 72.7949 80.7401 69.0794 81.5414C62.1219 82.6475 52.6264 83.9424 57.4653 92.6341C57.4662 92.6355 57.467 92.6372 57.4682 92.6387L57.4689 92.638C58.3028 93.4931 59.7181 92.8045 59.7708 91.6469C58.1439 87.5292 61.8184 87.0348 64.6455 85.8515C71.6802 83.3232 78.8423 82.9727 86.1179 83.7548C86.6653 84.3995 87.4958 84.9617 88.3736 85.2558C93.2382 86.0636 90.6745 89.6735 93.7494 90.1985C93.1846 102.782 108.456 109.651 117.305 101.379C120.838 97.9234 121.68 92.8045 122.499 88.1904C122.932 88.0931 123.208 87.8562 123.368 87.5426C124.41 86.5023 125.064 85.5415 127.124 85.2558C129.184 84.9704 130.77 85.5435 130.984 85.719C131.038 85.828 131.096 85.9372 131.164 86.0464C131.258 86.2093 131.386 86.3391 131.531 86.4413C129.497 98.972 139.221 106.897 149.038 100.398C153.304 96.3835 154.205 90.2381 154.383 84.7529C154.961 84.4039 155.327 83.7274 155.127 82.8769C154.851 81.7045 155.498 80.6894 156.528 80.1797C157.867 79.5177 157.63 77.1004 156.093 76.8458Z" fill="black"/>
</g>
<defs>
<clipPath id="clip0">
<rect width="275.632" height="298.601" fill="white" transform="translate(-42.3662 0.157227)"/>
</clipPath>
</defs>
</svg>
