<svg width="375" height="812" viewBox="0 0 375 812" fill="none" xmlns="http://www.w3.org/2000/svg">
<path fill-rule="evenodd" clip-rule="evenodd" d="M90.6132 300.962C99.0579 319.72 109.498 336.305 121.862 352.868C120.995 313.732 120.248 274.385 118.97 234.889C111.141 250.151 102.798 263.962 91.6616 279.113C82.9308 288.435 87.0017 292.305 90.6132 300.962ZM62.9291 758.834C61.9506 757.45 62.5298 755.691 63.8832 754.794C61.0013 748.586 69.6855 743.793 73.9599 739.12C83.6754 728.589 98.9808 713.494 100.343 700.197C104.977 670.03 107.625 639.756 115.044 609.943C119.452 591.006 131.69 575.812 137.159 557.211C146.668 508.051 134.383 458.751 136.507 409.101C109.706 406.475 113.177 409.814 116.048 387.541C114.254 386.297 112.507 384.979 110.874 383.652C106.595 385.933 101.544 391.525 96.8322 391.229C95.3409 390.881 94.2659 389.013 93.2428 387.409C85.6767 375.488 78.6433 363.836 71.7575 351.822C33.6791 291.833 42.2919 278.249 77.8106 220.744C92.7689 198.535 111.142 166.217 139.639 163.974C143.079 163.977 146.706 163.794 149.669 161.632C149.69 158.19 151.451 157.079 155.917 156.45C158.432 156.192 160.405 154.727 162.86 155.325C164.612 149.482 164.26 144.783 166.161 139.002C172.672 129.136 193.793 134.058 201.527 137.152C211.138 140.491 201.995 155.436 208.268 162.26C209.636 163.023 211.059 163.389 212.881 163.388C220.652 161.66 224.439 170.982 228.113 177.132C238.628 178.427 246.508 179.987 251.345 183.774C255.781 187.12 259.043 192.502 263.378 203.633C272.458 223.484 278.412 243.199 281.041 262.217C283.33 275.105 289.688 286.258 294.792 297.964C307.322 328.442 312.731 348.629 309.732 375.454C306.551 374.885 303.343 373.729 299.995 373.298L298.641 376.498C298.555 376.434 298.52 376.362 298.514 376.342C294.585 403.192 305.364 457.867 270.197 450.673C267.095 480.221 257.198 506.489 245.29 531.197C240.475 540.492 235.632 550.316 235.712 561.232L237.525 561.272C237.833 561.279 237.932 561.342 237.933 561.342C238.278 561.426 237.878 564.116 237.491 565.637C231.802 585.718 226.882 605.797 222.465 626.12C221.533 628.859 221.13 636.231 218.972 637.481C219.066 638.488 216.091 640.461 215.861 640.397C216.379 644.275 214.501 646.01 214.564 649.947C214.554 649.854 217.203 649.991 217.087 649.912C218.669 649.912 220.461 653.267 220.483 655.541C220.627 658.28 218.311 660.854 217.501 663.542C216.245 669.439 216.441 675.417 215.882 681.351C221.155 682.546 219.972 688.147 215.348 688.423C215.348 688.423 214.506 696.247 214.672 700.148C217.844 700.528 219.253 703.353 220.301 705.544C224.203 705.587 227.854 707.362 231.477 709.21C239.923 713.345 248.216 717.676 255.739 722.063C262.376 726.471 276.843 731.319 269.332 740.592C269.446 740.831 267.72 745.135 265.392 744.743C253.906 745.857 210.23 736.38 200.126 734.279C196.696 733.464 181.689 731.511 187.921 726.45C185.599 719.969 185.497 707.672 192.502 706.171C193.183 700.081 198.313 697.943 203.43 700.197C203.397 695.817 203.671 692.025 203.716 687.642C201.254 687.318 198.527 686.405 197.815 684.539C197.14 683.508 197.402 680.001 199.937 679.975C200.012 679.97 201.844 680.058 201.918 680.057C201.624 672.967 202.243 666.95 201.181 659.847C200.611 657.489 198.747 657.105 197.527 655.892C196.382 652.364 199.903 649.515 202.916 648.921C203.684 645.334 202.064 641.536 202.916 638.016C200.952 637.951 199.418 637.85 198.142 636.658C197.588 636.116 196.681 636.28 195.976 636.232C195.293 628.828 190.669 622.503 189.644 615.381C188.199 606.949 190.922 598.151 191.897 589.557C192.687 582.411 191.428 575.098 190.799 568.078C164.908 609.364 129.945 649.15 123.686 699.406C123.019 703.275 122.615 707.602 126.186 711.391L126.339 711.434C127.247 713.255 127.817 716.727 128.468 718.605C131.84 721.266 128.745 726.377 126.309 728.681C125.571 729.522 124.941 730.497 124.266 731.379C111.543 746.562 110.103 763.717 85.6792 762.559C79.6748 762.184 65.6245 762.375 62.9291 758.834Z" fill="white"/>
<path fill-rule="evenodd" clip-rule="evenodd" d="M165.156 141.692C167.217 140.285 164.283 152.418 164.277 153.576L164.225 153.831C163.711 156.301 162.807 159.173 160.724 160.753C161.685 168.608 162.88 176.44 164.351 184.212C177.474 185.922 190.684 188.392 204.031 187.146C210.996 187.206 215.624 182.487 218.472 176.607L218.558 176.429L217.971 174.326C209.045 168.852 202.279 157.757 206.304 147.288C206.565 146.607 207.653 146.881 207.415 147.592C205.726 152.318 206.435 157.646 208.834 161.986C210.333 162.784 211.929 162.728 213.535 162.68C221.282 161.547 225.731 170.335 229.065 175.815L231.984 176.247C243.15 177.905 253.921 179.867 259.434 191.301L259.938 192.372C267.74 208.968 275.029 226.04 279.278 243.922C281.394 253.335 282.16 263.034 285.264 272.217C291.708 289.263 300.79 305.281 305.715 322.928C308.77 329.164 317.354 377.433 308.886 377.593C305.836 376.68 302.728 375.943 299.588 375.416C300.072 375.784 300.249 376.411 300.157 377.053C299.061 384.736 298.978 392.519 298.984 400.265C299.432 418.866 299.371 458.173 271.653 453.173C269.38 475.917 261.621 497.919 252.996 518.973C247.872 532.544 237.933 544.924 237.434 559.832C240.868 559.883 239.536 564.248 239.114 566.353C237.959 571.506 236.456 576.58 234.936 581.633C229.578 599.762 226.378 618.498 221.79 636.835C221.542 637.718 221.125 638.319 220.592 638.723C220.501 640.631 217.617 641.726 215.986 641.092C216.215 643.4 216.152 645.737 216.184 648.053L216.191 648.486L216.69 648.481C218.865 647.922 221.064 651.441 221.677 653.248C223.742 658.303 218.955 662.01 218.598 666.826C218.274 671.397 217.843 675.929 217.646 680.513C223.615 682.842 220.975 690.642 215.125 690.561C215.399 693.407 215.436 696.27 215.556 699.121C218.099 699.787 220.006 701.93 221.258 704.167C226.398 704.518 231.091 707.555 235.671 709.706C242.754 713.201 249.721 716.931 256.555 720.892C263.21 725.319 278.018 730.345 271.545 740.584C273.174 741.988 272.036 744.738 270.551 745.885L270.5 745.924C269.024 747.078 267.073 747.078 265.259 746.891C244.192 747.418 221.994 740.878 201.045 736.608L199.463 736.326C194.877 735.506 190.183 734.587 186.109 732.351C184.385 730.948 183.963 727.526 185.727 726.144C183.919 719.606 185.55 708.126 192.705 705.597C193.554 700.748 197.478 697.271 202.469 698.751C202.494 695.645 202.746 692.577 202.802 689.471C200.328 689.005 198.045 688.046 196.852 685.697C195.54 683.356 196.961 679.433 199.943 679.559C200.044 674.723 199.771 669.968 199.731 665.14L199.727 664.849C199.711 663.285 199.774 661.56 199.111 660.122C198.429 658.641 196.616 658.495 195.811 657.091C194.048 653.309 197.578 648.867 201.219 647.849C201.676 645.317 201.439 642.636 201.898 640.079C199.959 639.966 198.307 639.516 196.903 638.416C195.933 638.266 194.216 638.698 194.106 637.306C193.711 631.616 190.84 626.55 189.032 621.243C185.297 610.921 188.686 600.142 189.984 589.702C190.596 584.378 189.951 579.031 189.406 573.694C164.764 612.267 133.155 649.565 125.852 696.1C125.447 701.338 123.307 705.647 127.067 710.166C128.328 710.531 129.405 716.453 129.892 717.944C133.742 721.506 130.387 727.862 127.036 730.616C125.432 733.385 123.286 735.81 121.278 738.29L120.631 739.374C116.377 746.483 111.838 753.612 106.07 759.569C96.3758 766.756 80.1082 764.711 68.6899 763.417L67.6749 763.252C65.2966 762.855 62.6638 762.275 61.2951 760.159C60.1063 758.325 60.2654 755.945 61.7434 754.569C60.2767 750.345 63.6186 746.197 66.7611 743.603C78.9435 732.81 89.4444 720.115 97.6219 706.045C100.756 683.293 103.975 660.543 107.461 637.843C110.274 619.058 114.559 600.252 123.606 583.398L125.824 579.184C129.575 572.045 133.17 564.923 135.307 557.054C140.289 538.513 139.096 519.097 138.406 500.117C137.518 470.486 135.405 440.849 135.681 411.196C130.1 410.611 114.971 410.971 112.588 405.24C111.808 399.778 113.638 394.221 114.051 388.766C112.873 387.94 111.723 387.075 110.604 386.182C108.529 387.73 106.387 389.191 104.187 390.549C98.9242 394.336 94.8545 394.941 91.5973 388.717C82.1733 373.827 73.081 358.723 64.5016 343.33C56.5443 328.565 46.6815 313.824 44.6618 296.826C41.7258 266.228 77.64 217.257 95.6214 192.396C106.671 179.034 120.966 164.803 139.224 163.756L139.779 163.729C142.228 163.606 145.786 163.874 147.827 162.219C148.213 156.695 153.883 156.723 158.099 155.81C158.972 155.144 160.297 154.987 161.413 155.04C162.926 150.697 163.27 145.895 165.156 141.692ZM113.096 709.985C108.471 707.58 102.953 707.385 98.0879 709.291C92.055 720.466 84.328 730.666 75.5539 739.829C72.3482 744.3 60.3151 750.195 66.3174 756.229L67.1301 756.378C76.3442 758.055 85.6992 759.375 95.0881 758.619C101.223 756.922 106.174 752.377 110.076 747.469C114.919 741.191 118.921 734.284 123.352 727.71C127.33 720.971 129.427 720.88 126.308 712.876C126.302 713.032 126.264 713.19 126.185 713.352C125.083 715.573 121.702 715.368 119.794 714.531C117.306 713.438 115.498 711.251 113.096 709.985ZM69.3996 758.302L69.5393 758.366L69.6811 758.43L69.8885 758.433L69.3996 758.302ZM244.762 718.069C237.901 715.002 225.331 706.063 218.322 707.421C213.147 709.004 208.375 711.835 202.858 712.245L202.621 712.253C198.683 712.421 191.684 713.735 190.205 709.105C188.246 712.846 187.601 717.479 187.631 721.713C187.549 725.321 189.202 728.175 193.038 728.468L196.59 729.361C219.096 735.008 241.812 740.4 265.005 742.071C271.093 738.27 271.243 733.274 264.788 729.803C258.269 725.638 251.56 721.757 244.762 718.069ZM112.207 630.909C108.176 656.121 105.47 681.476 101.567 706.7C115.191 703.296 119.192 715.507 124.264 712.101C120.716 707.433 121.141 703.917 122.192 698.485C124.274 680.189 131.09 662.784 139.541 646.539C140.504 644.684 141.492 642.84 142.494 641C131.627 641.991 119.93 638.893 112.207 630.909ZM196.137 702.803C195.204 704.251 194.834 705.996 194.536 707.669C194.383 708.534 194.467 709.808 194.16 710.778C200.006 710.955 205.885 709.593 211.153 707.086L210.896 707.069C206.602 706.805 197.73 707.408 196.137 702.803ZM192.502 706.534C191.934 706.938 191.442 707.406 191.017 707.925C190.873 708.731 191.29 709.609 191.967 710.11C192.102 708.93 192.267 707.706 192.502 706.534ZM203.922 689.653C203.94 693.303 204.162 696.899 204.122 700.544C204.116 701.808 204.491 703.405 203.717 704.479L204.947 704.609C208.031 704.93 211.176 705.195 214.258 704.845C214.357 700.099 214.36 695.33 214.672 690.589C210.872 690.564 207.663 689.925 203.922 689.653ZM215.696 704.185C215.691 704.33 215.688 704.484 215.694 704.627C216.137 704.545 216.577 704.446 217.013 704.33C216.655 704.294 216.29 704.355 215.937 704.233C215.856 704.221 215.773 704.211 215.696 704.185ZM202.423 703.617C202.034 704.058 201.275 704.137 200.795 703.845C200.697 703.862 200.6 703.875 200.497 703.88C200.469 703.883 200.438 703.88 200.41 703.88L200.744 703.964C201.44 704.136 201.979 704.247 202.693 704.349C202.567 704.121 202.483 703.875 202.423 703.617ZM218.417 703.599C218.327 703.765 218.204 703.903 218.053 704.018L218.397 703.903C218.455 703.883 218.512 703.863 218.568 703.842C218.522 703.757 218.471 703.678 218.417 703.599ZM198.266 702.596C198.33 702.746 198.475 702.977 198.64 703.1C198.494 702.949 198.365 702.78 198.266 702.596ZM215.599 700.247C215.602 700.334 215.604 700.421 215.61 700.511C215.657 700.461 215.712 700.416 215.779 700.385C215.717 700.34 215.656 700.293 215.599 700.247ZM199.926 680.36C197.06 681.289 198.064 684.884 200.233 686.062C202.592 687.618 206.155 687.375 208.863 687.608C211.635 687.667 214.843 688.793 217.339 687.175C218.64 686.299 218.652 684.307 217.275 683.54C217.249 683.602 217.221 683.66 217.193 683.719C217.211 683.86 217.198 684.019 217.136 684.205C215.564 687.032 205.699 685.399 203.197 683.998L203.004 683.914C201.309 683.194 199.721 682.86 199.926 680.36ZM203.43 638.772C204.05 641.552 203.847 644.446 204.239 647.235C204.485 648.044 204.17 648.581 203.665 648.857C206.921 649.83 210.202 650.313 213.593 649.556C213.226 646.296 214.153 642.663 214.623 639.386L203.43 638.772ZM215.86 639.455C215.915 639.871 215.908 640.325 215.955 640.757C215.962 640.747 215.969 640.738 215.977 640.729L215.991 640.716C216.401 640.361 216.772 639.905 217.164 639.511C216.734 639.502 216.294 639.478 215.86 639.455ZM198.886 555.089C196.811 560.032 194.47 564.839 191.844 569.521L191.951 570.627C192.646 577.876 193.168 585.133 191.991 592.368L191.881 592.988C190.066 603.127 187.805 613.683 192.206 623.495L192.406 624.009C193.978 628.038 195.633 632.035 196.058 636.362C203.21 636.873 210.385 637.587 217.546 637.838C219.398 638.153 220.299 637.095 220.464 635.356C226.051 611.95 230.952 588.382 237.006 565.092L237.069 564.973C237.726 563.718 238.218 562.274 236.998 561.835C234.698 561.434 232.442 563.893 230.257 564.521C218.53 569.144 209.648 556.865 198.886 555.089ZM198.609 564.622C205.73 575.157 201.855 591.16 201.037 603.672C200.432 608.279 201.143 612.999 200.66 617.582C200.594 617.94 200.028 618.007 199.871 617.684C198.193 613.463 198.882 608.608 199.029 604.166C200.076 591.028 203.043 577.465 198.609 564.622ZM219.427 420.34C219.4 420.168 219.159 420.23 219.144 420.378C219.067 451.978 217.082 483.485 213.941 514.927C213.897 515.608 215.013 515.769 215.144 515.089C217.403 503.412 218.315 491.513 219.08 479.654L219.166 478.312C220.161 462.383 220.476 446.412 220.049 430.457C219.956 427.105 219.942 423.659 219.427 420.34ZM284.004 374.316C283.728 374.643 283.426 374.84 283.118 374.94C283.12 382.324 281.63 389.59 277.545 395.986C275.751 398.357 274.787 401.095 273.927 403.912C274.174 404.677 273.864 405.556 273.287 405.997C269.511 417.471 269.122 429.759 270.515 441.678C274.762 435.451 276.446 428.016 277.634 420.688C277.698 420.32 278.307 420.325 278.374 420.688C279.783 428.526 277.395 436.35 274.312 443.51C272.601 444.957 272.969 448.235 272.769 450.285C304.07 454.84 293.184 394.745 297.194 376.237C297.268 375.725 297.701 375.357 298.192 375.199C293.497 374.485 288.741 374.431 284.004 374.316ZM157.364 157.13L156.822 157.267C151.11 158.693 149.597 158.726 149.233 165.44C147.812 174.913 142.564 183.186 140.205 192.348C139.261 195.584 140.257 201.547 144.733 200.676C146.183 200.231 147.313 202.183 146.216 203.221C142.976 206.284 139.831 209.444 136.667 212.586C149.37 255.466 165.873 297.233 185.973 337.192C186.77 338.776 184.38 340.172 183.589 338.584C163.603 298.496 146.984 256.742 134.085 213.852L133.695 212.552C133.126 210.974 140.409 205.315 141.736 203.467C128.454 197.071 146.951 174.671 147.492 163.905C143.645 165.409 139.381 164.894 135.366 165.55C127.65 166.899 120.879 171.363 114.86 176.17C90.4127 197.762 74.7866 227.655 59.1576 255.829C48.5131 274.218 43.3829 296.687 54.0636 316.243C66.4561 341.314 80.8368 365.482 96.0339 388.943C97.7058 391.111 100.271 388.619 102.03 387.704C112.14 381.63 120.906 373.364 127.648 363.698C109.97 341.535 93.5247 317.318 84.3607 290.351C83.6286 283.79 92.8241 276.191 96.1802 270.489C103.59 260.266 110.512 249.696 117.123 238.946C116.915 237.883 117.354 236.718 118.48 236.748L119.135 235.657C124.183 227.265 124.745 226.94 119.733 237.206C122.276 275.076 121.853 313.677 122.953 351.788C125.927 355.723 128.988 359.594 132.12 363.404C142.283 356.402 154.237 351.833 166.514 350.419L167.144 350.356C172.34 349.825 181.128 348.717 181.819 355.56C180.892 363.936 163.788 359.181 158.258 363.933C167.278 367.566 177.617 368.594 185.899 374.075C188.555 375.621 193.763 380.566 188.675 382.454C186.455 382.646 184.163 381.778 181.944 381.592C184.44 382.431 186.737 383.859 188.199 386.093C189.252 387.625 190.02 390.802 187.505 391.46C181.77 391.616 176.06 389.757 170.412 388.82L170.914 389.024C175.033 390.713 181.43 393.736 175.886 398.205C170.334 401.076 163.613 396.189 158.084 394.882C143.183 391.423 132.175 400.915 116.902 390.634C116.474 395.162 115.103 399.821 115.524 404.355C119.198 407.789 130.63 407.675 135.745 408.129L135.739 407.954C135.665 405.171 136.406 405.455 136.546 408.162C149.494 408.559 162.471 408.318 175.392 407.389C180.937 406.98 186.472 406.428 191.986 405.711L193.02 405.575C195.853 405.197 198.814 404.946 201.596 404.27C204.442 403.889 204.445 400.851 204.144 398.621C200.237 316.161 166.742 238.625 157.364 157.13ZM210.01 163.941C210.668 164.918 211.398 165.852 212.187 166.735C213.401 164.856 216.357 163.792 217.198 166.597C218.145 169.479 219.498 172.44 219.538 175.495C238.898 238.648 239.39 305.802 239.013 371.309C239.592 381.701 236.372 391.87 236.67 402.206C247.274 403.731 258.033 403.861 268.681 402.733C268.996 401.906 269.352 401.09 269.755 400.292C285.693 380.85 277.244 356.48 269.567 335.419C264.926 335.611 260.257 335.322 255.612 335.375C257.046 339.821 257.418 344.523 258.181 349.119C258.701 352.395 259.365 355.645 260.128 358.872L260.332 359.732C260.62 360.922 261.001 362.206 260.584 363.386C260.174 364.55 258.76 365.021 257.822 364.115C256.133 362.187 256.314 359.314 255.768 356.92L255.667 356.168C254.737 349.307 253.512 342.178 255.212 335.375C253.542 335.012 248.981 336.334 248.741 334.088C248.812 330.382 246.124 322.345 249.116 319.902C250.896 318.543 253.957 318.973 256.045 318.889C258.458 318.791 260.868 318.702 263.278 318.717C243.907 271.878 249.295 257.455 251.26 210.838L251.319 209.416C251.314 209.111 251.808 209.034 251.862 209.344C254.824 228.438 250.876 247.773 252.746 266.925C256.068 303.323 279.114 334.569 282.969 370.79C291.28 369.828 299.685 371.007 307.741 373.098C307.91 371.627 308.04 370.15 308.133 368.671C309.661 341.639 300.182 315.378 289.119 291.134C282.49 278.257 278.392 264.525 276.678 250.16C273.347 231.453 265.875 213.828 258.426 196.453C253.719 183.455 243.539 180.392 230.916 178.882C235.174 185.944 239.405 193.021 243.629 200.103C244.573 202.243 241.684 203.776 240.422 205.092C255.928 213.558 246.874 239.681 247.195 254.327C246.044 267.777 245.61 281.314 243.581 294.672C243.432 295.596 242.013 295.327 242 294.457C242.187 274.439 244.573 254.498 245.619 234.514L245.747 233.057C246.563 223.595 247.36 209.944 235.991 207.346C234.457 207.098 234.339 204.815 235.571 204.13C237.21 203.216 238.647 202.098 239.933 200.773C233.446 190.346 227.788 179.369 220.962 169.173L220.677 168.81C216.121 163.038 216.438 165.125 210.01 163.941ZM178.676 355.052C177.415 351.356 165.251 353.766 161.998 354.165C150.015 356.432 137.955 361.738 128.829 369.91C128.265 370.414 127.6 370.406 127.074 370.132C122.983 375.357 118.267 380.092 113.088 384.255C114.036 385 115.01 385.726 116.011 386.417C116.49 386.468 116.923 386.717 117.118 387.164C131.362 397.488 141.843 389.434 156.639 391.297C162.164 392.409 167.252 395.926 172.945 396.073C177.123 395.123 173.444 393.375 171.493 392.698C165.896 390.025 160.161 387.653 154.444 385.251C152.669 384.506 153.279 381.822 155.261 382.29C158.732 383.109 162.213 383.889 165.696 384.652C172.395 386.023 179.254 387.777 186.025 388.439C184.521 384.256 168.55 379.731 163.911 378.072C162.156 377.238 157.156 377.402 157.728 374.679C158.189 372.152 163.513 375.046 165.284 375.255C172.527 377.089 179.918 378.209 187.297 379.325C179.37 371.371 167.085 370.68 156.962 366.957L156.627 366.88C154.853 366.459 152.483 365.68 153.836 363.699L153.881 363.634C159.087 355.957 179.543 359.849 178.676 355.052ZM163.698 312.331C167.387 309.291 169.369 315.528 169.133 318.42C169.308 320.82 169.495 323.223 169.651 325.625C169.422 327.506 171.423 334.352 168.747 334.413C157.05 333.824 145.373 333.965 133.672 333.267C133.657 335.626 133.541 337.985 133.662 340.352C133.599 343.306 134.625 346.263 134.026 349.181C133.66 350.527 131.833 350.706 131.12 349.56C128.982 344.529 130.453 338.04 131.966 332.95C123.128 330.703 127.387 323.582 127.389 317.361C127.376 317.197 127.54 317.113 127.673 317.144C129.864 320.205 127.011 324.291 128.262 327.621C129.556 331.26 135.046 330.926 138.149 330.986L138.242 330.988C147.903 331.155 157.557 331.553 167.218 331.74C166.805 328.485 166.693 325.152 166.444 321.897C166.131 319.562 166.583 316.789 165.394 314.695C160.022 316.439 154.429 317.137 148.782 317.026C142.051 317.208 134.972 317.816 128.393 317.01C137.828 315.554 148.251 315.765 157.865 313.917C159.776 313.422 161.726 312.42 163.698 312.331ZM117.259 242.075C111.438 253.184 104.748 263.761 97.6198 274.056C96.0931 276.256 94.5255 278.426 92.9325 280.58L92.6377 280.957C89.4548 285.002 86.1489 288.358 89.1566 293.726C97.0394 312.876 107.588 330.862 119.812 347.554L119.603 337.964C118.91 305.998 118.254 274.031 117.259 242.075ZM263.494 319.28C248.884 322.348 248.605 316.604 251.045 332.848C256.907 332.887 262.765 332.755 268.628 332.85C266.952 328.314 265.216 323.798 263.494 319.28ZM219.626 180.369C216.33 186.036 210.856 189.675 204.263 189.728C192.695 190.392 180.973 189.63 169.7 186.888C168.043 186.471 166.063 186.113 164.536 185.207C173.228 232.342 187.299 278.262 197.196 325.126L197.521 326.671L197.79 326.618C204.527 325.422 211.856 325.919 218.784 325.494C224.341 325.414 229.955 326.009 235.474 325.182L235.302 319.357C233.91 272.732 231.968 225.549 219.626 180.369ZM214.793 166.896C214.181 166.887 213.245 167.252 212.621 167.208C213.892 168.567 215.298 169.792 216.778 170.859C216.101 169.59 215.572 168.068 214.793 166.896Z" fill="black"/>
<path fill-rule="evenodd" clip-rule="evenodd" d="M234.704 103.507C234.602 97.7758 234.489 91.9296 233.636 86.2539C232.802 80.705 230.508 75.6894 226.565 71.66C218.191 63.1011 206.052 61.0105 194.753 59.0947L175.434 55.8191C169.54 54.82 163.253 53.223 157.298 54.6399C154.364 55.3381 151.872 56.9602 149.594 58.8793C147.399 60.7291 145.039 62.7155 143.552 65.2041C142.062 67.6964 141.549 70.6097 141.065 73.4284C140.518 76.6063 140.094 79.809 139.792 83.0194C139.188 89.4515 139.106 95.9319 139.544 102.377C139.756 105.503 140.094 108.621 140.525 111.724C140.739 113.263 140.981 114.798 141.254 116.328C141.335 116.779 141.396 117.278 141.478 117.783C140.869 119.514 140.523 121.307 140.551 123.092C140.633 128.35 145.076 131.66 149.556 133.438C152.153 134.468 154.869 135.169 157.421 136.32C160.105 137.531 161.933 139.494 163.768 141.734C167.269 146.005 171.22 149.843 175.731 153.046C185.295 159.837 197.409 163.048 209.013 160.611C211.797 160.026 214.606 159.117 217.109 157.749C219.752 156.304 221.739 154.211 223.407 151.735C226.505 147.14 228.727 141.965 230.408 136.7C232.122 131.328 233.339 125.947 234.003 120.347C234.664 114.764 234.804 109.125 234.704 103.507Z" fill="white"/>
<path fill-rule="evenodd" clip-rule="evenodd" d="M173.056 35.8536C181.05 34.7552 192.084 38.3251 196.066 45.5231C215.074 41.0473 239.047 40.9007 254.714 55.8006C271.061 73.4752 250.528 96.7792 236.913 102.033C237.904 106.845 236.359 137.671 225.422 151.421C216.743 163.072 196.531 168.448 187.178 154.533L187.105 154.418C186.103 152.811 186.966 152.863 187.995 154.058C197.153 162.102 209.605 162.24 219.201 153.75C237.185 138.233 235.33 100.186 226.773 78.1746C202.405 75.5015 176.316 82.8784 159.485 101.2L160.623 108.043C160.817 109.209 161.038 110.374 161.206 111.544C161.313 112.293 161.325 113.039 160.805 113.646C159.088 115.649 156.195 112.639 153.814 111.441C153.111 111.343 152.407 111.305 151.716 111.353C140.277 112.825 142.531 134.989 155.103 131.104C156.16 130.447 157.067 130.647 157.477 131.601C160.474 134.343 162.45 139.233 167.428 143.942C169.185 145.709 170.784 147.187 172.76 148.604C173.92 149.776 177.422 150.972 176.312 152.978C174.213 157.543 161.833 143.204 159.644 139.238C152.786 141.943 145.186 141.024 138.079 140.363C100.587 138.416 105.592 98.9411 136.324 74.0186C142.108 69.7649 148.491 66.2948 155.125 63.6245C156.031 63.2599 155.635 61.7744 154.717 62.1441C150.327 63.9113 146.048 66.0146 141.968 68.449L141.962 66.9936C141.956 64.5422 141.994 61.9901 142.421 59.7504C142.634 58.1984 142.992 56.5408 143.544 55.2938C144.226 51.4706 154.911 38.3476 173.056 35.8536ZM151.216 116.442C151.794 115.892 152.875 116.547 153.39 116.531C154.708 116.711 155.96 117.267 156.937 117.953C157.582 118.314 158.033 118.653 158.411 118.964L158.421 118.962C158.418 118.962 158.415 118.964 158.412 118.965L158.447 118.989C158.997 119.379 161.01 121.577 159.738 120.986C159.643 120.863 159.546 120.745 159.448 120.629C159.438 120.644 159.423 120.66 159.406 120.675L159.477 120.781C160.558 122.405 158.692 120.694 158.405 120.24C158.392 120.251 158.376 120.258 158.361 120.266L158.735 120.721C158.787 120.785 158.828 120.837 158.862 120.88L158.941 120.956C160.191 122.183 160.23 123.287 158.778 121.473C158.835 121.559 158.881 121.649 158.887 121.73L158.973 121.839C160.113 123.306 159.186 122.785 158.62 122.159L158.572 122.105L158.582 122.119C159.109 122.93 158.064 122.361 157.879 121.927L157.871 121.908C157.67 121.744 157.546 121.56 157.503 121.513L157.496 121.505C156.515 120.503 155.095 119.654 153.888 119.268C153.713 119.235 153.536 119.208 153.357 119.189C152.632 119.028 151.898 118.917 151.157 118.857C151.066 118.846 150.974 118.78 150.906 118.694C149.785 118.656 150.131 118.197 150.596 118.112L150.604 118.111L150.512 118.103C149.792 118.033 149.301 117.775 150.028 117.617L150.12 117.598C150.109 117.581 150.099 117.563 150.089 117.545C149.467 117.477 149.873 116.872 150.219 117.019C150.073 116.543 150.738 116.781 150.821 116.71C150.885 116.64 150.963 116.578 151.009 116.575C151.209 116.433 151.112 116.446 151.216 116.442ZM155.028 108.749L154.882 108.835C154.764 108.903 154.642 108.949 154.52 108.976C154.692 109.049 154.862 109.128 155.031 109.213C155.028 109.11 155.026 109.006 155.026 108.904L155.028 108.749Z" fill="black"/>
<path fill-rule="evenodd" clip-rule="evenodd" d="M214.894 136.454L215.071 136.413C216.486 136.08 217.848 135.626 219.166 136.502C220.422 137.337 220.596 138.88 219.618 140.006C218.612 141.163 217.276 141.098 215.866 141.114L215.778 141.115C214.607 141.131 213.417 141.114 212.25 141.01C211.163 140.914 210.069 140.759 208.994 140.556L208.358 140.432C207.709 140.301 207.069 140.13 206.735 139.502C206.151 138.408 210.488 137.549 211.015 137.399C212.294 137.034 213.597 136.747 214.894 136.454ZM217.3 123.26C216.608 123.976 215.695 124.465 214.67 124.769C212.093 125.535 208.806 125.127 206.702 124.347C206.265 124.185 205.857 123.856 205.623 123.444C205.409 123.067 205.336 122.624 205.499 122.172C205.546 122.044 205.602 121.918 205.659 121.794C205.813 121.457 206.128 121.194 206.497 121.044C206.881 120.888 207.317 120.856 207.667 120.966C207.714 120.981 207.763 120.996 207.812 121.012C209.145 121.431 211.332 122.127 213.144 121.992C214.231 121.911 215.187 121.527 215.682 120.534C215.942 120.01 215.87 119.492 215.639 119.017C215.29 118.302 214.592 117.679 214.004 117.25C213.175 116.646 212.291 116.404 211.376 116.149C211.031 116.053 210.682 115.956 210.33 115.839C210.214 115.801 210.112 115.726 210.036 115.628C209.961 115.532 209.911 115.414 209.896 115.295C209.88 115.173 209.899 115.051 209.956 114.945C210.009 114.848 210.093 114.762 210.219 114.705C212.009 113.905 214.323 114.434 216.07 115.694C216.943 116.323 217.672 117.132 218.12 118.036C218.537 118.875 218.714 119.795 218.551 120.733C218.368 121.784 217.923 122.614 217.3 123.26ZM187.971 105.391C188.474 105.17 188.887 106.206 188.99 106.488L189.204 107.074C189.554 108.019 189.954 108.98 190.688 109.681C191.303 110.268 192.288 110.766 193 110.079C193.677 109.427 193.347 108.693 193.447 107.894C193.627 106.448 195.601 105.002 196.788 106.511C199.469 109.921 195.32 114.662 191.499 113.83C189.556 113.407 187.991 111.851 187.349 110L187.316 109.902C186.931 108.73 186.542 106.021 187.971 105.391ZM222.572 107.766L222.554 107.722C221.277 104.821 225.832 103.574 226.219 106.179L226.243 106.355C226.619 109.247 225.827 113.136 222.281 113.425C218.3 113.749 216.642 109.312 216.997 106.056C217.061 105.473 217.769 105.393 217.988 105.922L218.034 106.038C218.677 107.674 219.288 110.821 221.552 110.818C223.066 110.815 222.993 108.775 222.572 107.766ZM225.461 99.366C227.749 99.2849 227.746 102.862 225.461 102.916C217.827 103.095 210.187 103.334 202.551 103.375L201.163 103.383C193.991 103.431 186.793 103.529 179.642 102.928C179.031 102.877 179.145 102.02 179.655 102.055C187.153 100.989 194.742 100.677 202.297 100.272C210.011 99.8588 217.74 99.6397 225.461 99.366Z" fill="black"/>
</svg>
