<svg width="164" height="194" viewBox="0 0 164 194" fill="none" xmlns="http://www.w3.org/2000/svg">
<g clip-path="url(#clip0)">
<path fill-rule="evenodd" clip-rule="evenodd" d="M34.0218 175.6C34.6605 172.004 35.246 168.399 35.778 164.785C36.0306 163.07 36.277 161.353 36.4985 159.633C36.6536 158.427 36.8899 157.049 36.0675 156.157C34.9104 154.901 33.8592 153.826 33.7176 152.026C33.5843 150.333 34.1585 148.488 34.5176 146.844C35.2705 143.398 36.2079 139.994 37.2437 136.623C38.296 133.197 39.4498 129.804 40.6203 126.418C41.7146 123.251 42.7665 120.056 44.1918 117.018C46.8967 111.253 51.4727 106.984 57.1282 104.133C58.5347 103.424 61.4036 100.893 62.873 100.326C64.224 99.805 64.2192 101.326 65.5487 100.753C66.6116 100.295 67.6013 99.6843 68.1964 98.6611C68.8426 97.5502 70.463 95.9963 70.7097 94.7031C71.2325 91.9621 70.6662 89.6291 72.6285 87.566C74.3705 85.734 76.7119 84.479 79.1346 83.8053C84.4643 82.3232 91.572 83.3593 94.7876 88.2968C96.3235 90.6548 96.8602 93.5048 98.9325 95.4292C100.742 97.1094 100.337 98.2582 102.681 99.1241C102.814 99.1733 106.412 98.4039 106.545 98.4531C109.109 97.9061 111.559 99.4373 113.912 100.326C117.419 101.651 120.758 103.375 123.894 105.424C130.22 109.555 135.637 114.921 140.103 120.992C144.606 127.113 148.1 133.975 150.588 141.146C151.192 142.887 151.735 144.65 152.214 146.431C152.482 147.427 152.768 148.46 152.442 149.48C152.175 150.315 151.581 150.936 150.884 151.437C149.94 152.116 148.044 152.557 148.081 153.922C148.109 154.96 148.463 156.052 148.635 157.078C148.84 158.299 149.009 159.528 149.177 160.755C149.944 166.339 150.541 171.955 150.805 177.587C151.065 183.132 151.281 188.791 150.895 194.334C150.869 194.7 150.76 195.035 150.584 195.319C150.748 195.382 150.761 195.688 150.556 195.731C150.413 195.761 150.269 195.791 150.126 195.822C149.828 196.047 149.456 196.185 149.028 196.198C148.738 196.207 148.448 196.22 148.158 196.235C145.1 196.873 142.042 197.475 138.944 197.93C135.178 198.485 131.4 198.936 127.611 199.304C119.826 200.058 112.102 199.808 104.306 199.401C96.5224 198.995 88.7432 198.9 80.9514 199.102C73.1528 199.305 65.357 199.643 57.5566 199.781C48.842 199.936 40.1407 199.698 31.4512 199.008C30.2598 198.913 29.5227 197.968 29.7577 196.788C31.1656 189.72 32.761 182.699 34.0218 175.6Z" fill="white"/>
<path fill-rule="evenodd" clip-rule="evenodd" d="M108.976 98.2792C108.17 98.2443 107.348 98.3743 106.545 98.4532C106.474 98.4599 106.448 98.5677 106.527 98.5841C107.966 98.8838 109.389 99.2938 110.802 99.7101L111.407 99.8887C113 100.359 114.547 100.843 116.09 101.47C119.164 102.72 122.085 104.406 124.772 106.343C135.121 113.803 142.611 125.097 147.337 136.79C148.621 139.966 149.709 143.22 150.59 146.53C150.804 147.335 151.005 148.143 151.196 148.954C151.252 149.192 151.497 149.801 151.363 150.044C151.244 150.259 150.784 150.392 150.57 150.504L149.847 150.877C148.437 151.602 146.089 152.792 145.853 152.908L145.486 153.089C139.479 156.024 133.061 158.514 126.301 158.686L126.248 158.111C125.947 154.929 125.551 151.731 124.688 148.647C124.642 148.481 124.43 148.537 124.411 148.684C123.93 152.335 124.084 156.014 124.251 159.682C124.548 166.178 124.943 172.671 125.294 179.165C125.469 182.413 125.696 185.659 125.901 188.906C126.106 192.159 126.173 195.49 126.641 198.717C126.746 199.436 127.59 199.827 128.23 199.751C128.938 199.667 129.483 199.045 129.486 198.333C129.495 196.453 129.258 194.551 129.126 192.677C129.001 190.895 128.867 189.115 128.729 187.335C128.227 180.837 127.649 174.347 127.114 167.852C126.924 165.549 126.72 163.247 126.509 160.946C133.67 160.716 140.36 158.071 146.742 154.982C146.834 157.073 147.057 159.16 147.273 161.242C147.876 167.054 148.408 172.863 148.806 178.692C149.006 181.636 149.153 184.584 149.28 187.532C149.343 188.981 149.394 190.43 149.433 191.88C149.446 192.363 149.458 192.846 149.468 193.329L149.49 194.437C149.508 195.138 149.579 195.788 150.171 196.299C150.773 196.817 151.585 196.845 152.18 196.299C152.977 195.567 152.836 194.571 152.812 193.588C152.793 192.76 152.769 191.931 152.742 191.103C152.687 189.447 152.616 187.79 152.531 186.135C152.232 180.347 151.635 174.583 150.855 168.842L150.55 166.626C149.981 162.506 149.357 158.292 148.085 154.323C148.58 154.078 149.074 153.83 149.566 153.582C150.438 153.142 151.34 152.728 152.188 152.242C152.861 151.857 153.441 151.328 153.628 150.547C153.837 149.678 153.518 148.726 153.306 147.878L153.287 147.804C153.079 146.949 152.855 146.099 152.619 145.252C151.66 141.818 150.475 138.451 149.088 135.165C146.31 128.589 142.725 122.341 138.345 116.691C134.403 111.606 129.746 106.995 124.288 103.536C121.62 101.845 118.776 100.457 115.769 99.4751C114.364 99.0163 112.834 98.6173 111.363 98.453C110.569 98.3645 109.774 98.3138 108.976 98.2792ZM94.6976 87.8576C93.74 86.8323 91.8373 87.8933 92.2971 89.2509C93.3787 92.445 95.101 95.3585 97.789 97.4573C100.316 99.4304 103.329 100.712 106.573 100.438C106.598 100.436 106.62 100.43 106.639 100.421L106.36 100.799C104.164 103.759 101.848 106.679 99.0571 109.099C93.3698 114.029 85.6263 116.689 78.149 114.797C72.2661 113.309 67.0832 108.671 65.5589 102.76C65.7774 102.858 66.0371 102.891 66.3221 102.829C67.5417 102.565 68.7491 101.287 69.5357 100.37C70.3865 99.3778 71.0511 98.3067 71.5382 97.096C72.4296 94.8803 72.7154 92.0274 71.4982 89.8811C71.348 89.6164 71.0016 89.7648 70.9722 90.0231L70.9258 90.4262C70.6912 92.4378 70.3989 94.3836 69.4476 96.2174C68.982 97.1146 68.424 97.9904 67.7447 98.7419C67.3812 99.144 66.9871 99.5282 66.5617 99.8653C66.1471 100.194 65.6454 100.431 65.2738 100.808L65.2057 100.88L65.2038 100.867C65.1098 100.071 64.5497 99.7203 64.0016 99.7422C63.4712 99.7635 62.8482 99.9962 62.6069 100.108L62.5841 100.118C58.884 101.889 55.4761 104.197 52.2691 106.758C45.637 112.054 40.6678 118.977 38.2602 127.13C37.0785 131.131 36.4004 135.254 35.6846 139.358L35.244 141.872C34.5759 145.661 33.8296 149.524 32.3214 153.048C31.9314 153.96 32.2321 154.814 33.1887 155.173C34.3831 155.621 35.5819 156.054 36.7826 156.482C36.193 159.004 35.8335 161.613 35.3918 164.147C34.4528 169.534 33.3023 174.886 32.3158 180.266C31.8114 183.016 31.3563 185.776 30.8525 188.527C30.6099 189.852 30.3567 191.175 30.1104 192.499C29.9778 193.213 29.8575 193.929 29.7309 194.644L29.7089 194.763C29.6364 195.14 29.5453 195.53 29.6493 195.908C29.768 196.338 30.105 196.642 30.4059 196.951C30.6536 197.205 31.0115 197.207 31.315 197.068L31.4148 197.022C31.9567 196.769 32.3813 196.517 32.5735 195.908C32.6952 195.522 32.7391 195.087 32.8187 194.689C32.9713 193.927 33.1159 193.164 33.2525 192.399C33.5257 190.867 33.7925 189.335 34.053 187.802L34.2963 186.366C35.1314 181.416 35.9244 176.437 36.3253 171.436C36.5032 169.217 36.6917 167 36.8819 164.783L37.0247 163.119C37.2054 161.014 37.4261 158.856 37.4573 156.723L38.1753 156.977L41.6788 158.212C42.5474 158.518 43.6534 159.145 44.5882 159.031C45.0458 158.975 45.3947 158.831 45.6641 158.57C45.3415 163.109 44.9048 167.64 44.3228 172.149C43.7933 176.251 43.2062 180.347 42.5128 184.425C42.1695 186.444 41.8166 188.461 41.4333 190.473C41.2418 191.479 41.044 192.484 40.8402 193.488C40.7387 193.989 40.6178 194.49 40.5386 194.995C40.4479 195.573 40.6076 195.929 40.9317 196.404C41.1977 196.795 41.7299 196.996 42.1614 196.726C42.7328 196.368 43.0308 196.059 43.1989 195.408C43.3517 194.816 43.4445 194.199 43.5627 193.6C43.7809 192.495 43.9918 191.388 44.1954 190.28C44.6212 187.962 45.0137 185.638 45.3642 183.308C46.5993 175.098 47.383 166.82 47.7788 158.528C47.9742 154.437 48.0345 150.342 47.9998 146.247C47.9821 144.148 47.9133 142.043 47.7644 139.949C47.6135 137.829 47.2998 135.752 47.0197 133.653C47.0098 133.579 46.9053 133.575 46.9008 133.653C46.7682 136.006 46.5603 138.357 46.4584 140.717C46.3611 142.968 46.3185 145.223 46.2412 147.476C46.1396 150.437 45.9988 153.399 45.8123 156.359C45.4746 155.991 44.9657 155.779 44.4564 155.862C43.7187 155.708 42.9245 155.322 42.2211 155.087L39.5696 154.204C38.1757 153.74 36.7818 153.279 35.383 152.832C36.6337 148.637 37.4904 144.38 38.2219 140.061L38.5482 138.118C39.194 134.295 39.8903 130.469 41.06 126.767C42.2897 122.874 44.13 119.255 46.5712 115.977C48.9776 112.747 51.9053 109.903 54.9197 107.243C57.5004 104.965 60.2611 102.909 62.8932 100.694C62.8657 100.841 62.8598 101.003 62.8841 101.18C63.4437 105.264 65.5804 109.067 68.5582 111.895C74.5405 117.578 83.3958 118.757 91.0525 116.092C98.4589 113.515 105.007 107.41 107.321 99.8564C107.36 99.7272 107.187 99.6759 107.117 99.7708C106.989 99.9462 106.86 100.122 106.731 100.297C106.739 100.227 106.703 100.151 106.617 100.118C103.917 99.079 101.267 97.6053 99.2433 95.5205C98.2571 94.5043 97.3964 93.353 96.7169 92.1113C96.3915 91.5165 96.0991 90.9006 95.8659 90.2641L95.8066 90.0995C95.5239 89.3022 95.2877 88.4892 94.6976 87.8576Z" fill="black"/>
<path fill-rule="evenodd" clip-rule="evenodd" d="M96.6525 25.1011L95.284 26.7237C96.0418 27.2561 96.7571 27.7911 97.43 28.3286L97.4306 28.327C94.3138 26.2995 90.8618 25.1011 87.1328 25.1011C79.9505 25.1011 65.3616 31.2521 62.0637 35.6888C60.427 37.8906 57.3856 44.6499 55.808 51.9984C54.5404 57.9029 52.6551 74.5839 54.5404 80.8518C56.9533 88.8738 64.8919 96.288 73.0775 96.288C81.2631 96.288 93.9714 90.3963 103.016 77.4849C103.43 76.8945 108.179 76.2101 111.567 73.9942L110.678 83.7645L110.002 89.448L110.151 89.8525C112.577 96.3952 114.5 99.8086 115.919 100.093C117.368 100.382 120.317 98.0156 124.767 92.9923L125.336 90.6127C126.78 84.5425 127.503 81.2842 127.503 80.8377L127.502 80.7564C127.48 79.7291 127.125 73.9143 127.118 72.3495L127.118 48.8961C122.332 33.0328 117.764 25.1011 113.416 25.1011H96.6525Z" fill="white"/>
<path fill-rule="evenodd" clip-rule="evenodd" d="M107.993 19.6991C106.586 19.1557 104.956 19.2584 103.62 20.0767C100.998 19.9645 98.3895 21.4937 97.0222 23.7259C96.9937 23.7575 96.9634 23.7891 96.9365 23.8206L96.6467 24.1574C96.3723 24.4789 96.0829 24.8333 95.8537 25.1993C96.9767 25.2249 97.9124 25.6813 98.5655 26.603C99.0315 27.2607 97.964 27.8857 97.4877 27.2637L97.471 27.2409C97.0788 26.6875 96.4868 26.4732 95.8278 26.462C95.6386 26.4588 95.4951 26.3866 95.3937 26.2801C95.3533 26.4269 95.3171 26.5752 95.284 26.7242C91.9657 25.4375 88.3886 25.0968 84.8258 25.402C84.982 25.6541 85.1126 25.9242 85.2131 26.2081C85.327 26.5299 85.0839 26.8994 84.7703 26.9853C84.4313 27.0782 84.1247 26.8801 84.0021 26.5739L83.9908 26.5439C83.8539 26.1572 83.6303 25.8253 83.3302 25.568C81.653 25.7947 79.9877 26.1552 78.3631 26.6199C76.4105 27.179 74.4763 27.8613 72.5847 28.6425C72.9051 28.7677 73.1819 28.9794 73.3757 29.3328C73.7626 30.0382 72.699 30.67 72.2954 29.9956L72.2811 29.9707C72.2415 29.8984 72.2065 29.8549 72.1808 29.8302L72.1716 29.8217L72.1158 29.7961L72.0119 29.7664L71.972 29.7567C71.9368 29.7488 71.9222 29.7493 71.8295 29.7442C71.7062 29.7372 71.5828 29.7378 71.4594 29.7377C71.1691 29.7375 70.9839 29.5762 70.9 29.3699C69.9666 29.79 69.0451 30.2323 68.1398 30.6956L67.9246 30.8067C65.1305 32.2622 62.4834 34.1737 60.9478 36.9861C60.8462 37.1741 60.8147 37.3795 60.8399 37.5754C60.512 37.9671 60.1951 38.3716 59.8909 38.7823C58.9624 40.0398 58.2826 41.4694 57.6393 42.8864C56.3448 45.7363 55.4733 48.6635 54.7935 51.7156C54.1358 54.657 53.6052 57.6301 53.1122 60.6031C52.5657 63.9064 52.111 67.238 52.0157 70.5886C51.8478 76.5616 53.0189 82.5693 56.3828 87.5976C59.3837 92.084 63.9027 95.6463 69.2617 96.7869C74.7124 97.9464 80.48 96.8153 84.7754 93.1946C85.468 92.6117 85.3728 91.4348 84.7754 90.8376C84.0988 90.1647 83.1007 90.2579 82.4115 90.8376C78.3662 94.2483 72.4782 94.7743 67.6041 93.0366C63.0978 91.4284 59.5677 87.7192 57.4016 83.5535C54.7587 78.4731 54.3133 72.6375 54.7191 67.0168C54.9407 63.93 55.402 60.8685 55.8773 57.8117L56.1643 55.9717C56.4773 53.9787 56.8062 51.9885 57.2351 50.0158L57.3355 49.5562C57.8598 47.1773 58.4738 44.7374 59.4233 42.501C59.921 41.3272 60.5198 40.1961 61.133 39.0793C61.2518 38.8629 61.374 38.6433 61.4992 38.4221C61.6671 38.4806 61.8589 38.49 62.0601 38.4268C63.792 37.8897 65.5714 37.5296 67.3823 37.4095C68.2073 37.3545 69.0337 37.346 69.859 37.3781C71.2719 37.2961 72.7243 37.4199 74.0702 37.8518C74.2018 37.7392 74.3353 37.6289 74.4688 37.5187C74.5048 37.5158 74.5408 37.512 74.5769 37.5049C74.9203 37.4376 75.1617 37.1943 75.3072 36.8871C75.3148 36.8708 75.3216 36.8545 75.3281 36.8383C75.5003 36.707 75.674 36.5778 75.8493 36.4503C76.2764 36.5607 76.6507 36.2064 76.7515 35.8181C76.8465 35.7541 76.9432 35.6922 77.0392 35.6295C77.1145 35.6478 77.1893 35.6629 77.2622 35.6683C77.5767 35.6909 77.8804 35.6429 78.1591 35.4933C78.512 35.3039 78.7375 34.9984 78.8883 34.6513C79.422 34.684 79.962 34.5113 80.4391 34.1992C80.8263 33.9459 81.123 33.5963 81.4178 33.2474C85.0112 31.6495 88.9173 30.7061 92.8326 30.4644C93.2183 30.5383 93.6013 30.6263 93.9795 30.7287C94.069 30.753 94.1961 30.8007 94.3423 30.8579C93.4694 30.7527 92.5853 30.7422 91.6886 30.871C87.4336 31.4844 84.1196 34.6606 81.2673 37.6588C80.5888 37.5221 79.9031 38.3981 80.531 38.9782L85.4266 43.5011C85.3065 44.0069 85.8884 44.5055 86.3981 44.384C87.2528 44.1793 88.1089 43.9802 88.9656 43.7845C89.8593 44.2156 90.9829 44.1418 91.7935 43.5169C91.8312 43.4878 91.9131 43.4414 91.9843 43.3953C92.0508 43.4501 92.1404 43.5051 92.176 43.5284C92.4642 43.7186 92.8154 43.7746 93.1521 43.7212C93.4984 43.6663 93.8111 43.4912 94.0806 43.273C94.2522 43.134 94.652 42.5542 94.8745 42.5115L94.8961 42.509C94.7477 42.5133 95.2249 42.9555 95.3531 43.0469C95.6523 43.2597 95.9829 43.3716 96.3551 43.3308C97.0038 43.2597 97.5616 42.6702 97.8788 42.126L97.9027 42.0842L97.9127 42.0583L97.9211 42.0864C97.9227 42.0913 97.9245 42.0966 97.9267 42.1026C97.9742 42.2307 98.1235 42.3763 98.2249 42.4659C98.5139 42.7207 98.8717 42.8327 99.2538 42.7662C99.5773 42.7101 99.8493 42.5152 100.068 42.2795L100.102 42.2419C100.167 42.1691 100.593 41.5983 100.526 41.4615L100.518 41.45L100.539 41.4456C100.798 41.5091 101.016 41.4454 101.175 41.3122C102.065 41.1179 102.943 40.8915 103.793 40.6037C103.859 40.7901 103.924 40.9765 103.988 41.1645C103.523 41.4505 103.094 41.858 102.7 42.1487C101.951 42.6984 101.204 43.2482 100.457 43.7995L97.5004 45.9742L97.1623 45.8837C96.7302 45.768 96.3595 46.0188 96.2009 46.4021L96.1878 46.4353C96.1249 46.6032 96.0492 46.7585 95.9601 46.9072C95.221 46.8778 94.5951 47.3302 94.3927 47.9792C94.2102 47.9751 94.0258 47.982 93.8372 48.0027C93.3208 48.0592 92.9727 48.4416 93.0663 48.9665L93.0733 49.0025L93.0858 49.061C92.7865 49.1877 92.5694 49.4324 92.5213 49.8023C92.4411 49.9226 92.3764 50.0534 92.3351 50.199C92.1191 50.9548 92.5393 51.889 92.7631 52.613L92.7803 52.6697C92.924 53.1455 93.0727 53.6191 93.2231 54.0924L93.5977 55.2675C94.6365 58.5426 95.6493 61.9957 94.8087 65.4292C94.6295 66.1559 95.5613 66.4845 95.9654 65.9158C96.9449 64.5389 98.0032 63.2414 99.1144 61.996L99.1683 61.9874C99.9464 61.8315 100.249 61.2835 100.606 60.7249C100.816 60.7867 101.042 60.8012 101.261 60.7592C101.578 60.6984 101.861 60.5181 102.085 60.2905C102.275 60.0975 102.449 59.6024 102.673 59.4796C102.953 59.3262 103.517 59.5455 103.852 59.4962C104.124 59.4562 104.379 59.363 104.625 59.246C105.079 59.8622 105.38 60.5867 105.453 61.3677C105.482 61.6647 105.571 61.9159 105.699 62.1244C105.227 62.107 104.753 62.1402 104.285 62.2271C102.555 62.5478 101.314 63.6125 100.617 65.1986C100.587 65.2681 100.678 65.3249 100.719 65.2586C101.753 63.671 104.005 63.5904 105.64 64.1496C107.377 64.7436 108.351 66.2681 108.698 68.0073C109.079 69.9141 108.591 71.9693 107.55 73.5933C107.066 74.3484 106.407 75.0371 105.531 75.3152C104.49 75.6453 103.528 75.0545 102.462 75.3594C101.736 75.5663 101.416 76.2662 101.548 76.966C101.6 77.2409 101.697 77.481 101.826 77.6895C101.443 78.4478 101.088 79.2282 100.636 79.9454C99.9393 81.0528 99.0962 81.969 98.1773 82.8931C97.2282 83.8473 96.2617 84.7825 95.246 85.6672C94.2729 86.5155 93.1575 87.1189 92.137 87.8962C91.4208 88.4412 91.0661 89.2058 91.4194 90.0809C91.7108 90.8044 92.6934 91.4205 93.4888 91.0935C95.0115 90.468 96.3441 89.4032 97.5576 88.3069C98.6826 87.2895 99.662 86.0732 100.402 84.7525C101.1 83.5074 101.614 82.0934 102.048 80.7314L102.102 80.5615C102.307 79.9138 102.522 79.1855 102.661 78.4509C103.496 78.9059 104.629 78.9723 105.523 78.849C106.967 78.6516 108.283 77.9265 109.278 76.8696C109.742 76.3779 110.152 75.8169 110.506 75.2089C110.474 75.579 110.455 75.9371 110.434 76.263C109.607 77.1663 109.275 78.4699 109.569 79.6593C108.877 80.3695 108.683 81.4357 109.044 82.3434C108.286 83.0925 108.315 84.2846 108.642 85.3672C107.747 86.3651 107.662 87.9197 108.361 89.0457L108.382 89.1266C107.676 90.3045 107.836 91.8267 108.72 92.8668C108.116 94.0352 108.209 95.6067 109.719 96.0601C110.27 96.2251 110.803 96.0842 111.202 95.7768C110.838 97.5839 110.675 99.4184 111.161 101.234C111.354 101.954 112.061 102.48 112.804 102.48C113.425 102.48 113.877 102.169 114.189 101.711C114.152 102.622 114.208 103.539 114.403 104.463C114.52 105.021 115.039 105.456 115.591 105.591C115.392 105.814 115.313 106.138 115.503 106.474C116.311 107.901 118.264 107.309 118.396 105.943C118.948 105.532 119.204 104.858 119.31 104.13C119.465 103.068 119.521 102.024 119.696 100.976L119.763 101.038L119.798 101.068L119.809 101.144C119.909 101.662 120.203 102.025 120.583 102.241C120.5 103.145 120.653 104.066 121.229 104.752C121.612 105.21 122.264 105.39 122.824 105.29C122.859 105.292 122.895 105.292 122.932 105.287C124.2 105.119 124.933 103.921 124.599 102.821C125.109 102.198 125.324 101.407 125.173 100.625C126.161 99.9734 126.14 98.5418 125.798 97.3919C126.833 96.5776 127.223 95.0552 126.703 93.8453C127.636 92.6903 127.765 91.0809 127.131 89.7658C128.158 88.9252 128.152 87.3023 127.134 86.4426C127.676 85.3699 128.003 84.0844 127.461 83.1026C127.843 82.6821 128.053 82.0827 128.009 81.5036C127.944 80.6531 127.38 80.0654 126.679 79.6738L126.631 79.4078C126.466 79.4282 126.291 79.3824 126.137 79.2345C125.984 79.088 125.826 78.97 125.664 78.8727C125.479 78.8704 125.321 78.7885 125.209 78.6626C124.904 78.5593 124.576 78.5137 124.212 78.5096C123.426 78.501 123.398 77.329 124.13 77.253C124.245 77.1369 124.404 77.0638 124.577 77.0638L124.712 77.0643C125.028 77.0673 125.347 77.0867 125.64 77.212C125.83 77.2932 125.977 77.4156 126.085 77.5653C126.105 77.7919 126.229 78.0178 126.496 78.2043C126.805 78.4198 127.228 78.4449 127.559 78.25C128.022 77.977 128.027 77.551 127.974 77.0878C127.857 76.0746 128.441 75.121 128.302 74.0844C128.24 73.6261 128.087 73.2304 127.838 72.9108C128.364 72.1255 128.457 71.1118 128.051 70.2498C128.896 69.3444 129.041 67.9489 128.503 66.8593C128.495 66.833 128.489 66.8059 128.481 66.7799C128.42 66.5947 128.336 66.4278 128.244 66.268C128.716 65.452 128.713 64.4506 128.233 63.638C128.96 62.7925 128.983 61.447 128.336 60.5361C128.333 60.4606 128.325 60.3851 128.318 60.3096C128.615 59.5411 128.544 58.6673 128.167 57.9527C128.301 57.6438 128.405 57.3113 128.471 56.9571C128.641 56.044 128.554 55.1562 128.3 54.2652C128.259 54.1246 128.213 53.9841 128.164 53.8435C128.156 53.2332 128.133 52.6256 128.102 52.0192C128.222 51.5058 128.242 50.9416 128.244 50.4179L128.245 50.0783C128.251 49.214 128.311 47.9485 127.763 47.2138C128.115 46.4201 127.971 45.4202 127.383 44.7911C127.796 44.0842 127.882 43.2161 127.468 42.4318C127.401 42.3056 127.324 42.188 127.239 42.0768C127.274 41.3585 127.122 40.6178 126.738 39.9039C126.489 39.4391 126.116 39.0368 125.673 38.7148C125.681 38.6196 125.685 38.5245 125.684 38.4308C125.676 38.0128 125.583 37.5931 125.426 37.2015C125.707 36.7234 125.838 36.1846 125.673 35.6039C125.489 34.9467 125.006 34.3812 124.402 34.062C124.354 33.4425 124.257 32.8265 124.118 32.2188C124.489 31.3953 124.194 30.3084 123.355 29.8233C123.464 29.1652 123.366 28.4828 122.885 27.9687C122.703 27.7739 122.489 27.6262 122.258 27.5283C122.369 26.8665 122.244 26.1781 121.785 25.6392C121.41 25.1993 120.854 24.932 120.289 24.8927C120.071 23.7417 118.968 22.881 117.805 22.9496C117.659 22.4428 117.312 22.001 116.773 21.7769C116.635 21.7196 116.495 21.6818 116.356 21.6608C115.41 20.7092 114.001 20.0642 112.782 19.7339C111.558 19.4039 110.318 19.3719 109.268 19.7556L109.191 19.7844L109.106 19.7734C108.735 19.7323 108.364 19.7086 107.993 19.6991ZM117.289 97.6956C117.616 97.594 117.98 97.8158 118.069 98.1368C118.162 98.4761 117.954 98.8123 117.626 98.9142C117.218 99.0412 116.788 99.0729 116.362 99.0733C116.02 99.0736 115.729 98.7826 115.729 98.4414C115.729 98.0984 116.019 97.8098 116.362 97.8095C116.709 97.8092 116.965 97.7965 117.289 97.6956ZM120.196 90.9848C120.684 90.9852 121.103 91.1015 121.466 91.4427C121.707 91.6704 121.713 92.11 121.466 92.3366C121.216 92.5652 120.853 92.5785 120.596 92.3608L120.547 92.3166C120.541 92.3112 120.536 92.3069 120.533 92.3034C120.512 92.2901 120.491 92.2765 120.469 92.2652L120.511 92.2921C120.542 92.3148 120.469 92.2778 120.428 92.2603L120.415 92.255L120.411 92.2541L120.378 92.2516C120.318 92.2484 120.257 92.2486 120.196 92.2486C119.864 92.2483 119.547 91.9582 119.562 91.6167C119.578 91.2745 119.841 90.9844 120.196 90.9848ZM110.978 86.9761C110.292 86.5567 110.905 85.4839 111.593 85.8702L111.618 85.8848C111.971 86.1006 112.405 86.0714 112.804 86.0716C113.62 86.072 113.621 87.3358 112.804 87.3353L112.669 87.3348C112.083 87.3304 111.491 87.2896 110.978 86.9761ZM116.377 82.3635C116.895 82.2663 117.476 82.1795 118.021 82.2387L118.112 82.2499H118.279C118.425 82.2499 118.566 82.3084 118.68 82.4003C118.859 82.4746 119.029 82.5741 119.184 82.7079C119.801 83.2417 118.902 84.1324 118.288 83.6017C118.253 83.5722 118.214 83.5478 118.17 83.5279L118.136 83.5137H117.458C117.396 83.5137 117.336 83.5009 117.278 83.4825C117.058 83.5126 116.853 83.5561 116.714 83.5821C115.917 83.7317 115.575 82.5139 116.377 82.3635ZM116.956 70.2341C117.949 69.7748 119.049 69.7781 119.968 70.416C120.625 70.8721 120.015 71.9479 119.352 71.5231L119.329 71.5073C119.246 71.4501 119.162 71.4022 119.076 71.3588C118.61 71.4932 118.14 71.4995 117.689 71.3342L117.63 71.3117L117.595 71.3253C116.86 71.6652 116.216 70.5763 116.956 70.2341ZM106.138 68.254C107.141 68.1418 107.149 66.5611 106.138 66.6743C104.002 66.9131 102.064 67.8598 100.644 69.4857C99.9837 70.2419 101.071 71.3481 101.744 70.6257L101.764 70.6027C102.893 69.3099 104.417 68.4464 106.138 68.254ZM117.381 60.1386C117.604 60.1143 117.827 60.1021 118.046 60.1127C118.572 60.138 119.213 60.488 118.982 61.1206C118.797 61.6273 118.19 61.6474 117.89 61.3771C117.765 61.3801 117.641 61.3883 117.517 61.401C117.186 61.4349 116.858 61.4978 116.532 61.5619C115.735 61.7182 115.394 60.5004 116.195 60.3432L116.549 60.2733C116.668 60.25 116.789 60.2272 116.91 60.2064C116.982 60.1705 117.06 60.1463 117.143 60.1401L117.185 60.1386H117.381ZM123.679 50.334L123.754 50.3239C124.824 50.1874 126.542 50.313 126.672 51.6713C126.744 52.4236 125.654 52.4708 125.438 51.8276C124.648 51.6856 123.851 51.6584 123.066 51.7446C122.767 51.4413 122.764 50.8583 123.263 50.7128C123.333 50.5242 123.48 50.3625 123.679 50.334ZM99.2123 48.0399C99.4596 47.8135 99.8653 47.7835 100.109 48.0399C100.249 48.1874 100.366 48.3514 100.459 48.5318L100.52 48.6536C100.531 48.6739 100.541 48.694 100.553 48.7138C100.573 48.7506 100.597 48.7857 100.619 48.8214L100.635 48.8363C100.641 48.8424 100.648 48.8498 100.656 48.8588C100.884 49.0991 100.913 49.5173 100.656 49.7525C100.409 49.9789 100.003 50.0089 99.7599 49.7525C99.6198 49.6049 99.5027 49.4411 99.4099 49.2606L99.3483 49.1389C99.3379 49.1187 99.3272 49.0986 99.3161 49.0787C99.2953 49.0418 99.2719 49.0067 99.2494 48.971L99.2241 48.9459C99.2205 48.9422 99.2166 48.9381 99.2123 48.9336C98.9843 48.6934 98.9554 48.2751 99.2123 48.0399ZM112.21 46.3945C113.103 45.7635 114.165 45.7341 114.986 46.4932C115.578 47.0411 114.708 47.9189 114.111 47.4056L114.09 47.3869C114.068 47.3666 114.046 47.3489 114.024 47.332C113.917 47.423 113.781 47.4807 113.625 47.4808C113.585 47.481 113.544 47.4808 113.503 47.4817L113.443 47.4839L113.41 47.4865L113.406 47.4873L113.377 47.4994C113.325 47.5229 113.253 47.559 113.352 47.4974C113.33 47.509 113.309 47.5226 113.288 47.5358L113.252 47.5688C113.013 47.7941 112.6 47.8238 112.362 47.5747C111.942 47.4331 111.719 46.7409 112.21 46.3945ZM103.479 44.3244L103.463 44.3193C102.68 44.0964 103.013 42.8767 103.8 43.1005C104.635 43.3383 105.034 44.1131 105.201 44.9068C105.271 45.2406 105.102 45.5899 104.758 45.6842C104.443 45.7703 104.049 45.5783 103.978 45.2428C103.929 45.0068 103.872 44.8067 103.781 44.6209L103.726 44.5148C103.701 44.4665 103.692 44.4585 103.605 44.3833C103.591 44.3706 103.525 44.34 103.479 44.3244ZM116.742 37.9592L116.865 37.9314C117.627 37.7648 118.64 37.6778 119.101 38.4317C119.521 39.1186 118.461 39.7438 118.025 39.0946C118.018 39.0944 118.011 39.0944 118.002 39.0951L117.988 39.0968L117.792 39.081C117.548 39.0792 117.315 39.1222 117.079 39.178C116.286 39.3652 115.947 38.1469 116.742 37.9592ZM89.3568 33.1005C88.7792 32.5247 89.6752 31.6307 90.2529 32.207C90.7098 32.6624 91.1504 33.121 91.4473 33.6997C91.6031 34.0033 91.5269 34.3853 91.22 34.5643C90.9368 34.7293 90.5093 34.6425 90.3528 34.3376C90.0954 33.836 89.7706 33.5134 89.3568 33.1005ZM96.6439 31.5893C97.2145 31.9261 97.5839 32.4809 97.8081 33.123C97.9206 33.4453 97.6799 33.8142 97.3654 33.9003C97.0273 33.9929 96.7185 33.7955 96.597 33.4889L96.5858 33.4589C96.5257 33.2872 96.4297 33.0843 96.311 32.9313C96.2096 32.8006 96.052 32.6698 95.9331 32.6264C95.6474 32.5218 95.4449 32.2637 95.4714 31.9623C95.9412 32.1242 96.3774 31.9294 96.6439 31.5893ZM113.725 28.8402C114.3 28.3076 115.073 28.2369 115.771 28.5594C116.081 28.7028 116.159 29.1494 115.998 29.4239C115.812 29.7416 115.443 29.7947 115.131 29.6506C115.211 29.6876 115.066 29.6388 115.004 29.6209C114.996 29.6246 114.891 29.6199 114.855 29.6204L114.812 29.6231C114.811 29.6234 114.822 29.6232 114.844 29.6225C114.813 29.6294 114.783 29.6375 114.754 29.647L114.716 29.66C114.735 29.656 114.649 29.7117 114.625 29.7302L114.621 29.7337C114.024 30.2865 113.125 29.3949 113.725 28.8402Z" fill="black"/>
<path fill-rule="evenodd" clip-rule="evenodd" d="M67.7339 77.5495C67.1902 76.5931 65.568 76.7486 65.32 77.864C64.8169 80.1253 67.5215 82.2134 69.5757 82.2655C71.617 82.3172 73.9074 80.585 73.6119 78.397C73.5389 77.8558 72.8138 77.9215 72.5666 78.2609L72.4706 78.391C71.7993 79.2903 70.9134 80.221 69.6674 80.0017C69.151 79.9111 68.682 79.5894 68.3699 79.1754C67.9934 78.6757 68.0348 78.079 67.7339 77.5495ZM80.7135 61.0068C80.4369 60.9308 80.1577 60.9602 79.9126 61.0642C79.3653 61.1642 78.9081 61.6191 78.7475 62.1385C78.7348 62.1835 78.7206 62.2279 78.7051 62.2719L78.6806 62.3374L78.7462 62.1709C78.7159 62.3349 78.5821 62.5072 78.5339 62.6719C78.4746 62.8742 78.4602 63.1041 78.4802 63.3268C78.3062 63.3286 78.1322 63.3344 77.9586 63.3494L77.7907 63.3644C76.8522 63.4514 75.8219 63.6109 75.2655 64.4194C74.9531 64.8737 75.2464 65.6917 75.8204 65.7792C76.7041 65.9139 77.4653 65.4264 78.346 65.3288C79.1785 65.2364 80.0496 65.2893 80.8714 65.4392C82.5679 65.7485 84.1268 66.434 85.7801 66.8642L86.0051 66.9212L86.0048 66.9201C86.2881 66.9883 86.6098 66.5956 86.3295 66.3659C85.005 65.2811 83.3093 64.402 81.6387 63.8666C81.8821 63.4807 81.9574 62.9723 81.791 62.558C81.7652 62.4721 81.7333 62.3886 81.6995 62.3054L81.6292 62.1341C81.6224 62.0534 81.6069 61.9736 81.5844 61.8954L81.5807 61.8716L81.5787 61.873C81.4543 61.47 81.1295 61.1212 80.7135 61.0068ZM63.8155 61.0685C63.4532 60.7071 62.9442 60.7605 62.5662 61.0449L62.516 61.0841C62.1597 61.2419 61.8648 61.5868 61.6712 61.9063C61.4701 62.2382 61.3365 62.5763 61.3313 62.9417C60.4544 62.9445 59.6145 63.2068 58.9707 63.9126C58.7628 64.1404 58.6208 64.4917 58.7352 64.8006L58.8034 64.9843C59.0195 65.5676 59.9914 65.9034 60.3218 65.2174L60.337 65.184C60.688 64.3695 62.0353 64.4549 62.7513 64.5382C63.2504 64.5965 63.7434 64.7202 64.2254 64.8587C64.3952 64.9075 64.5635 64.9605 64.7316 65.0146L64.8998 65.069C64.9894 65.0979 65.4566 65.3508 65.166 65.2909C65.0878 65.2748 65.0291 65.3882 65.1088 65.4263C65.4551 65.5914 65.8246 65.2626 65.8015 64.8917C65.7614 64.2479 64.7359 63.8948 64.2424 63.6728L64.2129 63.6594C64.0237 63.5722 63.8255 63.4886 63.6209 63.411C63.7359 63.2404 63.831 63.0509 63.9101 62.8474C63.9849 62.6553 64.0348 62.4686 64.0622 62.2643C64.0891 62.1645 64.0891 62.0646 64.0622 61.9646L64.0581 61.936C64.072 61.87 64.0787 61.8018 64.0777 61.7331L64.0806 61.7064H64.0777C64.0681 61.4658 63.9722 61.2247 63.8155 61.0685ZM69.6034 67.926C68.2117 68.3547 65.9158 69.5226 66.641 71.3252C67.6536 72.9808 70.3392 71.7641 71.6406 71.2292C72.8098 70.8431 73.4186 72.4767 72.288 72.9691C62.9459 76.6538 62.9803 66.9292 69.2646 67.072C69.9566 67.0876 69.9783 67.7835 69.6034 67.926ZM81.9634 55.2451L81.726 55.176C80.4925 54.8198 79.2333 54.2047 78.1381 55.1645C77.708 55.5414 77.6195 56.3247 77.9272 56.7948C78.6282 57.866 79.6678 57.7024 80.7999 57.7937C81.6619 57.8632 82.511 58.1156 83.3156 58.4311C83.9732 58.6891 84.583 59.0522 85.1589 59.4573C85.7245 59.8555 86.111 60.4781 86.6912 60.8365C86.9039 60.968 87.1495 60.8328 87.2258 60.6196C87.4965 59.8637 87.0392 58.9221 86.6523 58.278C86.1799 57.4923 85.4624 56.8496 84.691 56.3634C83.8461 55.8308 82.912 55.5234 81.9634 55.2451ZM63.9893 54.4321C61.9042 54.4315 59.8979 55.5877 58.7317 57.2826C58.3354 57.8584 58.6259 58.7115 59.1947 59.043C59.8329 59.4152 60.5152 59.1472 60.9357 58.6139L60.9607 58.5816C61.6295 57.6936 62.4916 56.9943 63.5136 56.539C64.0123 56.3167 64.5637 56.1365 65.103 56.045L65.2773 56.0153C65.5217 55.9744 65.8051 55.9355 66.026 55.9736C66.1444 55.9891 66.2531 56.0281 66.3532 56.0875C66.305 56.1924 66.4294 56.3188 66.5443 56.2559C67.0624 55.9722 66.9989 55.4661 66.5709 55.0727C65.9655 54.5162 64.7712 54.4323 63.9893 54.4321Z" fill="black"/>
</g>
<defs>
<clipPath id="clip0">
<rect width="180" height="194.336" fill="white" transform="matrix(-1 0 0 1 180 0)"/>
</clipPath>
</defs>
</svg>
