<svg width="254" height="276" viewBox="0 0 254 276" fill="none" xmlns="http://www.w3.org/2000/svg">
<g clip-path="url(#clip0)">
<path fill-rule="evenodd" clip-rule="evenodd" d="M199.157 186.179C198.455 184.243 199.48 182.313 200.05 180.441C202.071 173.948 204.278 167.454 207.401 161.399C208.584 159.374 206.638 156.889 204.383 157.46C200.522 158.002 196.542 157.57 192.675 157.331C191.261 153.66 187.486 152.137 184.516 150.022C181.144 147.911 177.865 145.486 174.359 143.635C174.164 141.886 172.051 141.453 170.759 142.704C167.209 140.489 162.953 140.9 159.148 139.448C156.257 134.759 156.04 129.829 155.274 125.305C154.94 123.333 155.295 121.43 153.952 119.672C149.441 113.306 131.617 110.546 125.046 114.318C121.508 112.105 121.423 116.114 120.861 118.588C120.237 119.826 119.899 121.228 120.003 122.705C116.204 130.669 107.511 134.269 99.7253 137.186C98.7487 136.243 97.3528 136.362 96.4236 137.142C89.6756 138.614 83.1263 141.202 77.4726 145.242C71.0493 147.127 66.5256 152.369 63.2544 157.99C62.894 158.582 62.809 159.186 62.9143 159.741C52.8552 174.537 48.0542 192.25 47.3799 210.139C40.9111 214.035 50.4545 249.029 52.6761 256.295C52.6783 256.294 52.6805 256.293 52.6828 256.292C54.1241 258.852 55.7605 266.158 59.3675 265.593C61.8418 268.4 65.7848 267.848 69.1425 268.064C68.5956 270.169 68.8643 272.577 69.5152 274.657C70.285 277.133 74.0628 277.217 74.5986 274.518C108.035 281.036 142.343 275.835 176.156 276.813C185.932 276.883 195.707 277.186 205.46 277.885C206.834 277.984 208.226 276.576 208.132 275.204C206.036 252.819 204.066 223.372 201.722 201.207C201.165 196.152 200.726 191.041 199.157 186.179Z" fill="white"/>
<path fill-rule="evenodd" clip-rule="evenodd" d="M121.413 115.7C121.509 115.437 121.9 115.472 121.907 115.767C122.061 122.061 120.499 129.752 115.48 134.003C112.904 136.186 109.497 137.184 106.369 138.332L106.016 138.463L100.49 140.528C99.0237 141.076 97.4425 141.919 96.1477 141.145C97.1954 143.752 98.075 146.431 99.3511 148.944C100.939 152.071 102.86 154.933 105.21 157.536C114.522 167.847 129.259 170.992 142.484 167.971C149.294 166.415 155.92 163.467 160.566 158.089C164.097 154.001 166.126 148.515 166.604 143.103C166.464 143.125 166.318 143.124 166.167 143.091C164.494 142.725 162.805 141.825 161.332 140.942L161.19 140.857C159.774 140.001 158.297 139.021 157.281 137.691C156.271 136.371 155.211 132.064 155.211 132.064C154.922 130.445 154.652 127.22 154.698 125.584C154.702 125.43 155.385 125.339 155.458 125.499C156.089 126.888 156.292 129.94 156.779 131.386L156.878 131.675C157.397 133.184 157.843 135.022 158.921 136.243C160.945 138.535 163.998 139.505 166.724 140.654C166.919 138.064 171.042 138.124 170.99 140.826C170.987 140.972 170.981 141.118 170.976 141.264C171.301 141.444 171.613 141.649 171.906 141.847L172.191 142.041C173.27 142.778 174.358 143.478 175.508 144.103C177.733 145.313 180.089 146.273 182.369 147.372C184.676 148.483 186.833 149.808 188.848 151.393C189.794 152.137 190.701 152.93 191.562 153.772L191.795 154.003C192.614 154.822 193.68 155.737 194.146 156.812C194.249 157.05 194.764 157.601 195.044 157.62C199.376 157.905 203.699 158.307 208.004 158.91C209.119 159.067 209.56 159.643 209.148 160.575C207.732 163.778 202.189 176.572 200.715 180.005C200.888 182.527 200.655 185.496 200.81 188.019C201.037 191.701 201.334 195.381 201.69 199.053C202.965 212.186 204.897 225.255 206.643 238.331C207.517 244.875 208.313 251.429 209.1 257.984C209.497 261.296 209.834 264.612 210.093 267.939C210.201 269.325 210.299 270.712 210.386 272.1L210.46 273.331C210.563 274.88 210.799 276.359 209.844 277.689C209.411 278.292 208.421 278.632 207.852 277.946C207.136 277.085 206.87 276.442 206.802 275.31C206.749 274.444 206.737 273.574 206.697 272.707C206.612 270.828 206.506 268.95 206.38 267.072C206.131 263.32 205.845 259.568 205.515 255.822C204.358 242.685 202.158 229.647 200.694 216.543C199.956 209.936 199.432 203.318 199.155 196.675C199.016 193.357 198.965 190.04 198.998 186.72C199.01 185.48 199.069 184.245 199.154 183.013C196.961 188.012 194.655 192.963 192.245 197.848L191.674 199.005C190.146 202.092 188.578 205.191 186.742 208.102L186.426 208.598C185.682 209.781 184.666 211.645 183.31 212.018C182.365 212.278 181.211 212.095 180.242 212.076C179.281 212.058 178.319 212.054 177.358 212.015C176.281 211.971 175.253 211.829 174.212 211.548C174.038 211.501 173.875 211.45 173.726 211.386C172.677 213.108 170.894 214.42 169.072 215.185C167.612 215.797 166.082 216.217 164.549 216.605L164.008 216.741C162.365 217.152 160.486 217.347 159.559 218.939L159.344 219.308C158.655 220.483 157.994 221.514 156.854 222.356C155.627 223.263 154.173 223.833 152.724 224.276C151.241 224.731 149.724 225.078 148.218 225.451L147.807 225.553C146.813 225.803 145.81 226.032 144.822 226.303C144.401 226.419 143.971 226.539 143.558 226.681C143.074 226.848 142.722 227.109 142.339 227.393C141.996 228.596 140.528 229.25 139.321 229.166C138.687 229.122 138.119 228.906 137.601 228.59C136.698 229.361 135.704 230.052 134.783 230.767C133.494 231.768 132.2 232.761 130.899 233.746C128.216 235.775 125.512 237.778 122.781 239.74C117.932 243.225 112.979 246.549 107.941 249.751C105.84 251.086 103.725 252.419 101.59 253.719L101.818 253.804L102.27 253.976C103.338 254.376 104.529 255.023 104.736 256.273C104.9 257.266 104.348 257.949 103.371 258.071C102.211 258.214 101.308 257.392 100.586 256.607C100.267 256.26 99.9103 255.939 99.6049 255.582C99.4803 255.437 99.3846 255.269 99.3003 255.093C97.1929 256.339 95.0629 257.543 92.8992 258.669L92.3576 258.949C86.9921 261.702 81.7696 264.718 76.3585 267.393C74.947 268.091 73.226 268.846 71.4321 269.361C71.9081 271.212 71.9007 273.245 71.9128 275.124C71.9242 276.955 69.024 276.946 69.0853 275.124L69.1148 274.244C69.1676 272.764 69.2539 271.228 69.6038 269.788C64.3184 270.667 59.0384 268.756 58.0553 268.182C56.9702 267.549 55.9853 266.535 55.1656 265.595C53.4115 263.584 52.1943 261.172 51.1143 258.746C48.8011 253.551 47.1621 247.998 45.9639 242.444C41.5464 221.968 43.4465 200.052 50.6204 180.424C52.4127 175.52 54.5288 170.724 56.9537 166.102L57.2547 165.53C59.6745 160.959 62.3638 156.405 65.7799 152.515C69.3382 148.464 73.7275 145.313 78.5065 142.867C80.8388 141.673 83.2386 140.639 85.6914 139.722C86.0854 139.574 86.482 139.442 86.8796 139.316C89.4357 137.681 92.5378 136.117 95.641 136.179C95.8519 136.182 96.0227 136.263 96.1501 136.384C96.2997 136.41 96.4493 136.442 96.5991 136.486C96.9298 136.582 97.2791 136.945 97.2317 137.319L97.2156 137.443C97.2068 137.504 97.1958 137.563 97.1769 137.62C97.2878 137.636 97.3967 137.663 97.5033 137.7C100.472 136.858 103.394 135.571 106.291 134.534L106.951 134.3C109.377 133.447 111.867 132.61 113.857 130.921C115.838 129.241 117.327 127.065 118.404 124.713C119.73 121.815 120.324 118.675 121.413 115.7ZM180.857 268.559C181.445 268.12 182.14 268.629 182.36 269.172C183.082 270.955 182.725 273.725 181.707 275.301C180.652 276.934 178.127 276.289 178.066 274.311C178.003 272.249 179.197 269.798 180.857 268.559ZM186.929 219.338C186.982 219.106 187.341 219.108 187.394 219.338C187.884 221.429 187.872 223.682 188.016 225.826L188.033 226.064C188.205 228.429 188.35 230.8 188.453 233.169C188.656 237.83 188.898 242.492 189.17 247.149C189.305 249.459 189.449 251.768 189.603 254.076C190.086 253.807 190.583 253.57 191.098 253.361C191.87 253.048 192.621 253.012 193.451 253.02C194.461 253.03 195.221 253.922 195.087 254.915C194.942 255.996 193.993 256.459 193.008 256.305C191.917 256.133 190.821 255.868 189.719 255.758C189.842 257.543 189.969 259.327 190.103 261.111C190.281 263.472 190.514 265.831 190.677 268.193C190.693 268.418 190.709 268.644 190.727 268.87C191.383 268.527 192.081 268.352 192.872 268.136L193.077 268.078C194.225 267.747 195.453 267.29 196.516 268.064C197.23 268.585 197.373 269.442 196.781 270.129C195.884 271.171 194.557 270.969 193.318 270.916L192.651 270.891C192.023 270.867 191.443 270.826 190.862 270.667C190.969 272.206 191.025 273.751 190.837 275.267C190.735 276.087 189.66 276.302 189.376 275.465C188.632 273.28 188.479 270.924 188.206 268.635C187.952 266.498 187.798 264.345 187.631 262.198L187.581 261.554C187.207 256.83 186.907 252.104 186.689 247.371C186.47 242.638 186.338 237.907 186.286 233.169C186.262 231.018 186.298 228.86 186.382 226.709L186.408 226.064C186.505 223.852 186.437 221.505 186.929 219.338ZM88.6775 268.907C88.7062 268.605 88.9474 268.229 89.3063 268.276C89.637 268.319 89.9777 268.299 90.3048 268.354C90.7366 268.425 91.0841 268.681 91.4856 268.842C92.1383 269.104 92.8498 269.239 93.5194 269.454C94.7758 269.856 95.4604 271.183 94.9401 272.422C94.393 273.725 93.0181 274.021 91.8302 273.474C90.8938 273.043 90.1959 272.355 89.5662 271.558L89.3878 271.33C89.1165 270.988 88.8086 270.606 88.6948 270.191C88.5841 269.786 88.6386 269.318 88.6775 268.907ZM149.717 262.782C151.282 262.561 152.619 263.098 154.067 263.604L154.185 263.645C155.658 264.155 157.809 264.509 158.564 266.022C159.02 266.935 158.666 268.147 157.593 268.417C155.895 268.844 154.372 267.599 152.968 266.76L152.894 266.717C151.539 265.92 150.14 265.25 149.274 263.876C149.043 263.509 149.243 262.849 149.717 262.782ZM95.09 137.907C94.4631 138.048 93.8361 138.172 93.2098 138.292C90.8275 139.574 88.5151 140.903 86.0554 142.045C83.4456 143.256 80.8454 144.507 78.3665 145.972C73.3583 148.933 69.2296 152.782 65.8181 157.5C59.9251 165.649 55.5416 175.048 52.4044 184.584C51.5983 187.034 50.877 189.512 50.2389 192.01C51.3671 190.963 52.7029 190.319 54.2007 189.768C54.8355 189.535 55.6257 189.93 55.9474 190.481C56.0921 190.729 56.1737 190.974 56.1587 191.265C56.1254 191.906 55.7095 192.634 55.0231 192.761C53.4228 193.057 51.8669 193.633 50.3239 194.14C50.09 194.217 49.889 194.188 49.7284 194.098C48.1966 200.608 47.2383 207.253 46.8989 213.937C46.6118 219.597 46.7889 225.3 47.4136 230.952C47.8936 230.735 48.3632 230.532 48.8895 230.409C49.5721 230.25 50.2436 230.056 50.9094 229.837C52.831 229.204 53.7075 232.388 51.7434 232.873C51.0125 233.053 50.2771 233.203 49.5323 233.313C48.8833 233.408 48.3091 233.366 47.6971 233.266C48.1646 236.792 48.8032 240.292 49.6166 243.743L49.7961 244.498C50.8527 248.905 52.0842 253.353 53.8651 257.517C54.7387 259.56 55.8953 261.5 57.3234 263.204C58.025 264.041 58.8038 264.759 59.653 265.439C60.36 266.006 62.7632 267.234 65.6094 267.234C68.4557 267.234 69.2262 266.964 70.6622 266.468C73.502 265.487 76.1983 263.921 78.8616 262.527L79.137 262.383C80.3146 261.772 81.4878 261.152 82.6579 260.526C82.5101 259.329 82.7688 258.323 83.3904 257.218C84.0622 256.022 85.7271 256.618 85.8508 257.841L85.8548 257.888C85.8736 258.163 85.9196 258.444 85.9769 258.725C93.8006 254.424 101.459 249.823 108.995 245.028C113.849 241.939 118.652 238.758 123.384 235.484C125.75 233.847 128.095 232.181 130.417 230.482C131.634 229.592 132.845 228.695 134.05 227.791C134.552 227.414 135.044 227.018 135.547 226.639C135.425 226.485 135.306 226.332 135.19 226.181C133.312 223.713 132.093 220.771 131.486 217.736C131.119 215.905 130.942 214.004 130.888 212.137L130.864 211.325C130.827 209.957 130.817 208.526 131.069 207.2C130.727 207.389 130.377 207.574 130.029 207.772C128.78 208.482 127.53 209.19 126.277 209.895C123.77 211.307 121.254 212.702 118.707 214.041C114.158 216.433 109.563 218.708 104.845 220.747L102.549 221.74C98.5643 223.46 94.5471 225.148 90.4042 226.427C88.0675 227.148 85.713 227.764 83.3427 228.314L84.3013 229.44C84.9513 230.205 84.9627 231.3 84.132 231.944C83.3155 232.576 82.2199 232.313 81.6759 231.473L80.6842 229.943C80.4723 229.615 80.352 229.309 80.2838 228.986C79.1919 229.215 78.0972 229.436 76.9996 229.648L74.9245 230.046C71.9614 230.62 69.0885 231.756 66.4399 233.21C65.5192 233.716 65.2627 232.734 66.2382 232.049C69.0907 230.048 72.418 228.916 75.851 227.966L76.0197 227.919C77.2792 227.573 78.5364 227.212 79.791 226.839C79.653 226.338 79.5734 225.818 79.5893 225.245C79.6246 223.969 79.7371 222.688 79.8046 221.413C79.9464 218.736 80.1273 216.067 80.3392 213.395C80.4206 212.366 80.5118 211.333 80.6163 210.302C79.9435 209.94 79.3633 209.46 78.6132 209.223L78.4866 209.186C77.6843 208.969 77.9551 207.932 78.6677 207.843C79.3132 207.763 79.9556 207.8 80.5919 207.937C80.6905 207.959 80.7837 207.983 80.8727 208.01C80.9897 207.054 81.1193 206.102 81.2667 205.154C81.6564 202.651 81.9321 200.013 82.7433 197.608C82.8034 197.43 83.067 197.366 83.1648 197.553C84.3448 199.805 84.3859 202.569 84.5189 205.077L84.5354 205.377C84.6921 208.114 84.7011 210.877 84.6505 213.618C84.5987 216.442 84.5023 219.259 84.376 222.08C84.3252 223.217 84.3272 224.395 84.1343 225.482C91.1568 223.191 98.0553 220.449 104.668 217.203C109.332 214.913 113.956 212.531 118.527 210.06C120.818 208.822 123.119 207.604 125.407 206.361C126.209 205.925 127.01 205.488 127.81 205.051L129.011 204.394C130.135 203.778 131.073 203.166 132.382 203.123C132.772 203.11 133.122 203.294 133.37 203.571C134.074 203.071 134.887 202.763 135.74 202.77C137.024 200.99 138.328 199.225 139.684 197.498L140.686 196.219C142.42 194.013 144.256 191.773 146.467 190.094C147.454 189.345 148.539 188.783 149.671 188.319C149.404 188.253 149.144 188.122 148.911 187.906C147.83 186.9 147.681 185.032 147.462 183.628C147.234 182.173 147.322 180.87 147.547 179.42C147.634 178.856 148.565 178.738 148.792 179.256C149.271 180.348 149.778 181.394 150.214 182.498L150.342 182.832C150.809 184.074 151.805 185.382 151.74 186.73C151.722 187.1 151.598 187.422 151.408 187.681C152.358 187.364 153.322 187.082 154.27 186.788C157.257 185.862 160.255 184.962 163.299 184.243C164.109 184.052 164.923 183.875 165.741 183.712C166.17 181.671 166.794 179.668 167.53 177.701C166.833 177.343 166.382 176.742 165.782 176.208C165.22 175.708 164.834 175.099 164.355 174.524C163.919 174.002 164.164 173.058 164.948 173.088L165.17 173.098C165.982 173.135 166.768 173.22 167.505 173.6L167.767 173.736C168.127 173.923 168.521 174.138 168.872 174.392C169.33 173.333 169.807 172.284 170.289 171.246L170.914 169.904C172.536 166.41 174.153 162.784 176.189 159.531C177.094 158.084 178.298 157.181 180.027 157.042C181.808 156.898 183.658 157.084 185.441 157.147C187.508 157.222 189.574 157.31 191.638 157.418C191.109 156.862 190.626 156.243 190.095 155.709C189.212 154.824 188.28 153.985 187.301 153.21C185.361 151.675 183.229 150.41 181.014 149.321C178.799 148.232 176.519 147.282 174.44 145.936C173.124 145.085 171.948 144.013 170.875 142.854C170.199 150.166 166.681 156.959 161.395 162.062C155.904 167.363 148.317 170.275 140.894 171.514C133.324 172.777 125.422 172.313 118.18 169.673C114.445 168.311 110.864 166.366 107.67 163.926C107.635 164.139 107.593 164.348 107.51 164.546C107.398 164.811 107.262 165.036 107.106 165.269L106.828 165.678C106.652 165.934 106.473 166.189 106.274 166.427C105.791 167.004 105.107 167.257 104.37 167.254C102.96 167.249 101.891 165.861 102.271 164.489C102.509 163.626 103.02 163.107 103.817 162.769C104.069 162.663 104.325 162.573 104.584 162.485L104.777 162.419C105.038 162.33 105.297 162.244 105.566 162.195C104.053 160.855 102.65 159.399 101.394 157.827C97.4523 152.897 93.5649 145.994 94.8825 139.447C94.9053 139.335 95.0062 139.264 95.1148 139.246C95.1913 138.787 95.435 138.342 95.7688 138.043C95.5441 137.984 95.3176 137.938 95.09 137.907ZM136.016 251.094C136.796 250.658 137.603 251.693 136.968 252.332L136.021 253.283C135.142 254.169 134.287 255.065 133.534 256.075L133.352 256.322C132.337 257.709 131.254 259.315 129.59 259.833C127.577 260.46 125.643 258 126.808 256.203C127.826 254.632 129.787 254.04 131.477 253.39C133.077 252.776 134.521 251.928 136.016 251.094ZM71.0844 243.846C71.543 243.244 72.7388 243.561 72.4255 244.414C71.408 247.182 70.9932 250.956 68.4233 252.796C67.5942 253.388 66.2918 253.116 65.6091 252.431C64.8335 251.653 64.8024 250.557 65.246 249.607C65.787 248.449 67.1177 247.609 68.0505 246.727L68.1342 246.647C69.1376 245.669 70.2229 244.978 71.0844 243.846ZM178.495 247.032C179.314 246.678 181.447 245.99 182.079 246.805C182.109 246.834 182.134 246.867 182.155 246.903C182.309 247.173 182.333 247.555 182.155 247.823C181.418 248.934 180.651 249.763 179.603 250.554L179.486 250.642C178.345 251.483 177.274 252.471 175.885 252.85C173.959 253.376 172.614 250.957 173.966 249.544C175.056 248.406 176.719 247.815 178.163 247.18L178.495 247.032ZM101.158 231.215C100.836 230.631 101.494 229.914 102.09 230.28C103.791 231.323 105.772 232.105 107.682 232.667C108.454 232.895 109.152 233.681 109.094 234.529L109.085 234.657C109.063 234.957 109.021 235.255 108.832 235.504C108.167 236.377 107.215 236.713 106.199 236.196C103.934 235.045 102.384 233.437 101.158 231.215ZM150.858 229.446C150.816 229.2 150.995 229.011 151.244 229.058C152.681 229.331 154.008 230.028 155.242 230.828C155.904 231.258 156.543 231.729 157.203 232.163C158.019 232.698 158.324 233.141 158.445 234.123C158.524 234.772 157.921 235.364 157.367 235.543C155.859 236.031 154.131 234.43 153.109 233.389L153.063 233.342C151.993 232.248 151.111 230.955 150.858 229.446ZM194.018 227.746C193.69 226.859 194.819 226.123 195.557 226.559C196.253 226.969 197.007 227.31 197.663 227.78C198.265 228.212 198.815 228.724 199.393 229.193L199.678 229.42C200.738 230.275 202.487 232.389 200.972 233.616C199.53 234.783 197.618 233.292 196.649 232.202L196.582 232.125C196.025 231.48 195.338 230.778 194.934 230.024C194.554 229.314 194.296 228.5 194.018 227.746ZM179.795 159.038C177.988 159.39 177.252 161.627 176.492 163.085C174.696 166.527 173.045 170.032 171.387 173.541C170.877 174.62 170.38 175.708 169.878 176.794C169.847 176.879 169.808 176.962 169.762 177.045C168.734 179.265 167.676 181.47 166.44 183.577C167.572 183.364 168.709 183.183 169.851 183.04C169.793 181.961 170.53 180.517 170.894 179.609L170.924 179.533C171.378 178.369 171.854 176.535 173.023 175.931C173.413 175.73 173.829 175.982 173.859 176.412C173.948 177.693 172.699 179.16 172.089 180.247C171.719 180.905 171.36 181.565 171.009 182.233C170.878 182.483 170.768 182.729 170.633 182.949C171.222 182.885 171.812 182.828 172.403 182.787L172.788 182.76C174.98 182.615 177.307 182.574 179.288 183.658C181.125 184.664 182.064 186.812 181.055 188.767C179.797 191.203 177.028 191.526 174.593 191.723C171.552 191.969 168.504 192.414 165.484 192.847C162.36 193.295 159.419 194.451 156.342 195.045C156.056 195.1 155.877 194.724 156.14 194.564C158.567 193.081 161.518 192.266 164.232 191.435L164.451 191.367C165.923 190.913 167.362 190.395 168.884 190.138C170.362 189.888 171.85 189.686 173.341 189.532L173.485 189.518C175.127 189.38 179.315 189.428 179.138 186.989C179.021 185.375 176.406 185.096 175.212 185.077C169.74 184.989 164.229 186.446 159.028 188.008L157.867 188.357C155.738 189 153.605 189.662 151.516 190.415C149.148 191.269 147.282 192.601 145.558 194.423C143.646 196.444 141.794 198.51 139.81 200.463C138.559 201.694 137.293 202.903 136.016 204.102C135.727 204.477 135.497 204.884 135.337 205.413C135.067 206.307 135.129 207.137 135.231 208.055C135.488 210.372 135.545 212.713 135.867 215.024C136.166 217.164 136.583 219.382 137.469 221.368C137.82 222.154 138.276 222.926 138.796 223.617L139.215 224.164C139.398 224.402 139.603 224.662 139.818 224.906C140.133 224.521 140.589 224.269 141.119 224.332C142.246 224.465 143.131 224.433 144.237 224.174C145.092 223.973 145.941 223.738 146.793 223.52C148.465 223.092 150.153 222.702 151.808 222.211L152.092 222.125C153.326 221.745 154.56 221.269 155.587 220.47C156.779 219.542 157.146 218.202 158.03 217.044C159.917 214.57 163.994 214.622 166.754 213.944C169.1 213.369 171.358 212.46 172.981 210.752L173.076 210.651C173.004 210.346 173.121 210.002 173.403 209.844L173.464 209.81C173.574 209.748 173.693 209.722 173.809 209.725C173.96 209.503 174.105 209.273 174.237 209.029C174.346 208.828 174.618 208.976 174.582 209.175C174.561 209.294 174.531 209.409 174.503 209.525C176.076 209.12 177.803 209.197 179.4 209.198L181.472 209.191C181.83 209.186 182.365 209.168 182.412 209.147L182.461 209.125C182.59 209.069 182.407 209.162 182.497 209.041C182.597 208.909 182.694 208.775 182.79 208.639C183.134 208.157 183.459 207.661 183.777 207.159C180.307 208.046 176.713 208.598 173.17 209.058C169.369 209.553 165.517 209.895 161.682 209.899C160.625 209.9 160.635 208.299 161.682 208.258C165.743 208.103 169.783 207.887 173.816 207.365C175.902 207.095 177.98 206.756 180.045 206.359C180.842 206.206 181.638 206.044 182.432 205.872L183.026 205.742C183.4 205.659 184.454 205.54 184.968 205.194C185.069 205.02 185.17 204.846 185.271 204.672C185.221 204.06 183.672 204.142 183.309 204.141C182.28 204.139 181.25 204.148 180.22 204.15C178.16 204.156 176.101 204.138 174.041 204.122C169.926 204.088 165.796 203.944 161.684 204.12C160.686 204.163 160.162 202.557 161.148 202.134C165.503 200.269 170.338 199.863 174.988 199.29C177.434 198.988 179.88 198.64 182.271 198.03L182.862 197.879C184.364 197.493 186.022 197.022 187.287 196.101C185.386 195.33 183.023 195.418 181.053 195.309L180.902 195.3C178.143 195.13 175.38 195.043 172.616 195.039C166.96 195.031 161.303 195.232 155.653 195.501C155.512 195.508 155.482 195.283 155.62 195.253C161.427 193.982 167.328 193.369 173.27 193.275C176.037 193.231 178.806 193.27 181.571 193.393L182.586 193.44C184.943 193.542 187.559 193.57 189.532 194.998C189.832 195.216 189.991 195.494 190.016 195.788C192.661 190.497 195.104 185.095 197.557 179.73C199.464 175.557 201.3 171.35 203.277 167.211L203.917 165.871C204.773 164.084 205.651 162.297 206.626 160.575C202.981 160.086 199.316 159.747 195.649 159.487C192.307 159.25 181.404 158.725 179.795 159.038ZM178.181 216.382C178.597 216.151 179.234 216.34 179.336 216.854C179.412 217.237 179.542 217.662 179.542 218.054C179.542 218.523 179.375 219.033 179.286 219.492C179.081 220.548 178.829 221.406 178.293 222.346C177.959 222.935 177.283 223.334 176.604 223.319C176.066 223.306 175.589 223.161 175.22 222.744C174.778 222.243 174.474 221.507 174.716 220.833C175.352 219.067 176.52 217.308 178.181 216.382ZM90.0195 214.621C90.9921 212.912 93.2976 211.384 95.3095 211.535C98.3304 211.762 98.9468 215.844 96.022 216.818C94.2738 217.4 91.8686 216.802 90.3393 215.844C89.927 215.586 89.7758 215.049 90.0195 214.621ZM58.9721 208.781C58.7512 208.459 59.1163 208.091 59.4454 208.163C60.1754 208.324 60.9625 208.394 61.6775 208.613C62.4098 208.836 63.1186 209.207 63.8439 209.462C65.3634 209.996 66.9865 210.264 68.457 210.909C69.0449 211.167 69.5072 212.021 69.4529 212.651L69.4391 212.798C69.4065 213.11 69.3526 213.383 69.1783 213.669C68.7104 214.436 67.7831 214.832 66.908 214.596C65.2845 214.158 63.6981 213.034 62.3139 212.1L62.0581 211.93C61.4533 211.53 60.803 211.112 60.3156 210.597C59.807 210.06 59.3888 209.39 58.9721 208.781ZM114.78 202.564C114.593 201.889 115.43 201.443 115.918 201.899C116.893 202.811 117.913 203.656 118.868 204.591L118.933 204.655C119.617 205.345 120.612 206.674 119.722 207.566C118.582 208.71 116.995 207.013 116.383 206.128C115.608 205.007 115.142 203.876 114.78 202.564ZM189.416 196.981C187.969 198.519 185.74 199.226 183.777 199.811C181.45 200.505 179.052 200.92 176.652 201.261C174.332 201.59 172.031 201.885 169.749 202.263C171.475 202.284 173.201 202.297 174.924 202.328C176.911 202.364 178.896 202.407 180.882 202.465C182.328 202.507 184.026 202.308 185.4 202.848C185.648 202.945 185.879 203.079 186.081 203.243C187.237 201.181 188.344 199.091 189.416 196.981ZM100.171 182.601C101.681 182.12 103.101 181.481 104.702 181.647C105.128 181.691 105.433 182.106 105.2 182.517C104.442 183.857 103.208 184.613 101.993 185.509L101.886 185.588C100.557 186.58 99.1299 187.484 97.6844 188.298C95.1956 189.7 92.9653 185.689 95.4787 184.512C96.991 183.804 98.5797 183.108 100.171 182.601ZM127.36 179.119C129.67 179.271 131.979 179.375 134.292 179.469C136.972 179.577 136.071 183.715 133.833 182.878C131.621 182.05 129.41 181.233 127.179 180.461C126.499 180.227 126.554 179.107 127.317 179.117L127.36 179.119ZM68.1022 171.758C68.701 171.716 69.3049 171.847 69.9046 171.906L70.5427 171.968C71.8581 172.099 73.0914 172.261 74.3458 172.798C76.6604 173.789 75.4173 177.523 73.0937 177.437C71.3763 177.374 69.9077 176.634 68.4575 175.772C67.1898 175.019 66.4126 174.077 65.5564 172.894C65.2729 172.502 65.668 172.063 66.0541 172.024C66.7343 171.954 67.4218 171.806 68.1022 171.758ZM184.128 164.134C183.745 166.532 182.794 168.78 181.362 170.736C180.642 171.72 179.378 171.757 178.664 170.736C177.655 169.293 178.277 167.639 179.038 166.252L179.263 165.846C179.603 165.237 180.126 164.349 180.724 163.736L180.734 163.673C181.054 161.162 184.523 161.663 184.128 164.134ZM90.6813 148.743C91.2573 148.223 92.318 148.379 92.5049 149.226C92.7665 150.413 92.9257 151.75 92.7544 152.954C92.6616 153.607 92.6268 154.339 92.371 154.948C92.096 155.602 91.5669 156.105 91.0686 156.597C90.0736 157.578 87.9761 157.254 87.7095 155.707L87.6757 155.517C87.5416 154.785 87.3702 154.003 87.5687 153.277C87.7185 152.73 88.0534 152.171 88.3304 151.664L88.3888 151.556C88.9438 150.519 89.8088 149.531 90.6813 148.743ZM171.642 151.267L171.85 151.27C173.458 151.302 176.397 151.694 176.413 153.688C176.416 154.157 176.07 154.644 175.605 154.752C174.644 154.976 174.023 154.406 173.338 153.83C172.778 153.36 172.125 152.984 171.447 152.713C170.714 152.421 170.762 151.266 171.642 151.267Z" fill="black"/>
<path fill-rule="evenodd" clip-rule="evenodd" d="M174.418 73.5827C173.588 66.937 170.981 59.8812 168.239 53.6856C162.074 40.5863 147.959 38.7828 135.306 36.082C122.82 34.258 109.598 32.611 97.2996 36.2502C90.3859 37.9497 87.6856 46.2119 88.7767 52.7319C89.3994 56.7948 91.2425 60.64 92.8141 64.4054C95.9379 72.1381 97.9199 80.4166 97.9232 88.7887C97.7088 94.2598 96.9392 100.505 103.205 102.822C109.168 105.797 109.671 113.862 117.137 118.438C120.156 124.574 128.38 125.114 134.298 126.538C138.039 127.256 141.822 127.785 145.616 128.126C156.6 129.539 165.387 126.345 171.137 116.527C174.985 110.551 177.85 103.652 177.142 96.4101C176.437 88.7842 175.263 81.1983 174.418 73.5827Z" fill="white"/>
<path fill-rule="evenodd" clip-rule="evenodd" d="M135.4 20.162C136.027 19.449 136.993 19.6935 137.58 20.2574C137.961 20.3702 138.331 20.538 138.68 20.7601C139.47 20.6585 140.297 20.6585 141.071 20.687C141.259 20.5813 141.46 20.4873 141.679 20.4066C143.244 19.8324 144.631 20.1241 145.774 20.8927C146.324 20.37 147.019 20.042 147.907 20.0916C148.7 20.136 149.265 20.5102 149.749 21.0031C150.231 20.3047 151.012 19.8064 151.984 19.7371C153.343 19.6402 154.649 20.1869 155.732 21.0334C156.362 20.3074 157.222 19.8901 158.181 19.886C158.811 19.7712 159.477 19.8165 160.078 19.9987C160.951 20.2632 161.717 20.7588 162.328 21.402C163.293 20.4741 164.475 19.8064 165.838 19.9038C167.603 20.0317 169.065 21.3331 169.745 22.9351C170.939 23.4149 172.041 24.0995 172.962 25.0754C173.011 25.1268 173.058 25.1806 173.107 25.2347C173.604 25.4185 174.071 25.6789 174.482 26.022C175.786 27.1103 176.077 28.6853 175.645 30.2287C175.705 30.4757 175.757 30.7269 175.804 30.978C177.025 31.1642 178.134 31.8712 178.764 33.0221C179.627 34.6016 179.457 36.6834 178.523 38.1913C178.121 38.8399 177.611 39.3864 177.038 39.8643C177.686 41.3406 177.375 43.1022 176.331 44.2963C176.076 44.7079 175.764 45.0795 175.412 45.4158C175.8 46.9421 175.11 48.5168 173.733 49.3324L173.615 49.6283C173.595 49.6774 173.575 49.7264 173.555 49.7748C173.539 49.8376 173.521 49.8984 173.502 49.9597C173.469 50.5013 173.291 51.0328 172.939 51.5335C172.216 52.5598 171.321 53.229 170.846 54.4271L170.799 54.5529C170.594 55.1199 169.935 55.5199 169.374 55.3449C172.492 61.7707 174.127 68.9207 175.249 75.9278C175.809 79.4236 176.241 82.9314 176.591 86.4526L176.935 89.9592C177.237 93.0761 177.506 96.2033 177.508 99.3304C177.512 106.405 175.495 113.209 171.167 118.838C167.073 124.16 161.279 128.017 154.735 129.536C147.978 131.102 140.052 130.485 133.992 126.899C132.206 125.845 133.771 123.31 135.589 124.158C139.03 125.764 142.527 126.958 146.341 127.225C150.06 127.487 153.787 127.021 157.313 125.8C163.146 123.779 168.11 119.545 171.301 114.273C172.873 111.675 174.011 108.855 174.617 105.875C175.371 102.161 175.257 98.3226 174.98 94.5614L174.961 94.3051C174.413 87.0581 173.691 79.7666 172.524 72.5919C171.492 66.2473 169.906 60.0313 167.846 53.9528C167.04 53.2402 166.137 52.6506 165.171 52.2028C158.1 51.9064 151.016 51.993 143.953 52.4826C137.93 52.9028 131.936 53.6138 125.988 54.65L125.35 54.7623C124.034 54.9976 122.571 55.1322 121.33 55.6642C120.266 56.1219 119.834 57.0013 119.566 58.0825C118.891 60.8174 118.788 63.8106 118.674 66.615C118.562 69.3564 118.815 72.1207 118.596 74.8531C118.41 77.1393 117.827 79.4794 116.138 81.1331C115.255 81.9989 114.169 82.4723 113.149 83.1297C112.489 83.5539 112.21 83.9912 112.295 84.7764C112.478 86.495 113.858 88.66 112.308 90.1318C112.036 90.3898 111.564 90.4235 111.295 90.1318C110.656 89.4343 109.773 88.9024 109.015 88.3392C108.697 88.1061 108.961 87.6529 109.321 87.8142C109.795 88.0276 110.278 88.2789 110.772 88.4987C109.681 87.5968 108.129 87.1546 106.837 86.8921C106.186 86.762 105.502 86.7238 104.825 86.7847C104.324 87.0245 103.812 87.2468 103.3 87.4642C102.649 87.7382 101.992 87.987 101.33 88.2228C99.0337 90.1004 97.9381 93.1541 98.4166 96.1403C98.6782 97.7891 99.4362 99.5819 100.865 100.544C102.558 101.684 104.825 101.195 106.654 102.041C108.366 102.833 109.408 104.433 110.189 106.088L110.514 106.778C111.238 108.304 111.983 109.79 112.972 111.179C114.117 112.787 115.519 114.232 117.049 115.473C117.79 116.074 118.581 116.614 119.399 117.106L119.622 117.239C120.449 117.726 121.042 118.19 121.098 119.22C121.116 119.579 120.89 119.906 120.599 120.092C119.347 120.889 118.102 119.893 117.06 119.197C115.935 118.448 114.86 117.604 113.865 116.685C111.973 114.939 110.336 112.866 109.077 110.616C108.118 108.902 107.573 106.49 106.057 105.162C105.131 104.352 103.823 104.345 102.667 104.197C101.592 104.058 100.574 103.833 99.6173 103.302C95.7246 101.132 94.6245 95.8801 95.5479 91.8215C95.7045 91.1369 95.9236 90.4706 96.1941 89.8289C94.7452 90.0712 93.1175 88.5683 93.7055 87.0514C93.7503 86.937 93.8017 86.8295 93.8509 86.7194C92.8961 86.0889 92.1426 85.1334 91.7849 83.8835C91.6015 83.2374 91.5747 82.5845 91.6709 81.954C91.208 81.6424 90.8257 81.2137 90.5797 80.6864C89.8106 80.3297 89.1286 79.7959 88.7217 79.0331C88.1582 77.9807 88.2298 77.0115 88.6591 76.1387C88.5987 76.029 88.5406 75.9168 88.4847 75.8022C86.9084 74.7995 85.8083 73.0718 85.9335 71.1558C85.9737 70.5208 86.1303 69.9487 86.3717 69.4329C86.3516 69.3679 86.3315 69.3003 86.3136 69.2353C84.9944 68.5622 83.9033 67.4563 83.5142 65.9801C83.1252 64.4946 83.5836 63.0139 84.5003 61.8741C83.1587 60.8894 82.3516 59.5141 82.8412 57.4341C83.0402 56.5885 83.4405 55.8187 83.9815 55.1704C83.9793 55.1504 83.9748 55.1302 83.9704 55.1098L83.8449 55.0121C82.1887 53.7007 81.2367 52.0296 82.2532 49.9743C82.7093 49.0501 83.36 48.406 84.1246 47.982L84.1627 47.8608C83.6149 46.683 83.4293 45.375 83.8071 43.9997C84.1157 42.8669 84.8468 41.9647 85.7815 41.3659C85.7189 40.8587 85.7278 40.3182 85.8284 39.7324C85.9961 38.7432 86.4858 37.8794 87.2013 37.2669C87.2281 37.1366 87.2616 37.0089 87.2996 36.8808C87.5411 36.098 87.9928 35.2477 88.516 34.6171C88.9475 34.0943 89.4305 33.9036 90.0208 33.8834C89.985 33.4013 90.0096 32.912 90.108 32.4161C90.4098 30.8862 91.3802 29.4479 92.8179 28.795C93.4082 28.528 94.0298 28.4497 94.629 28.5146C95.1388 27.4377 96.1337 26.6571 97.3568 26.4889C97.833 26.4215 98.2758 26.4258 98.6827 26.4866C98.913 26.3787 99.1522 26.2824 99.4027 26.1947C99.5681 26.1364 99.7358 26.0825 99.9035 26.0289C100.469 25.3244 101.214 24.7611 102.084 24.4225C103.087 24.0299 104.109 24.0701 105.015 24.3999L105.303 24.3393C105.755 23.554 106.475 22.946 107.582 22.6701C108.838 22.3582 110.128 22.7935 111.117 23.5857C111.121 23.5857 111.126 23.5857 111.132 23.5832C111.649 22.4233 112.532 21.6156 114.014 21.6717C114.938 21.7076 115.772 22.1678 116.416 22.8229C116.773 22.7778 117.131 22.7374 117.491 22.6972C117.871 22.2505 118.294 21.8335 118.761 21.4588C119.526 20.8438 120.521 20.8934 121.084 21.7592C121.207 21.9477 121.321 22.1384 121.435 22.3291L121.952 22.2932C122.56 21.4698 123.39 20.9134 124.525 20.8687C125.567 20.8259 126.31 21.3376 126.875 22.0531C127.336 22.0419 127.799 22.0331 128.262 22.0262C128.8 21.4002 129.435 20.8483 130.16 20.3906C130.714 20.0406 131.533 20.1598 131.982 20.6264C132.286 20.9437 132.568 21.2748 132.831 21.6176C133.508 20.8557 134.423 20.3538 135.4 20.162ZM102.493 91.4063C103.537 90.8095 104.941 91.4557 105.952 91.9627C107.184 92.5797 108.407 93.5108 109.16 94.6774C110.186 96.2659 107.774 97.5492 106.694 96.1245C106.03 95.2473 105.5 94.3633 104.695 93.596C103.959 92.8915 102.893 92.4204 102.47 91.4916C102.455 91.4602 102.459 91.4243 102.493 91.4063ZM103.227 52.8504L103.246 52.7944C103.543 51.9793 102.247 51.628 101.953 52.4363C101.507 53.6615 102.021 54.9936 103.227 55.5226C103.561 55.6693 103.943 55.6184 104.145 55.2812C104.314 54.9974 104.236 54.5056 103.904 54.3604C103.226 54.0627 102.998 53.5371 103.227 52.8504ZM92.0612 50.5713C92.7098 49.997 91.758 49.0477 91.1125 49.6196C90.5101 50.1531 90.0634 50.8778 90.1794 51.7113C90.2977 52.5607 90.9361 53.1604 91.6348 53.5842C92.3753 54.0336 93.0504 52.8701 92.3118 52.4218L92.2289 52.3709C91.9189 52.1777 91.556 51.9121 91.5035 51.532C91.4479 51.1282 91.7884 50.8129 92.0612 50.5713ZM95.7446 40.4367L95.7906 40.4028C96.4873 39.9038 95.8181 38.7358 95.1133 39.2404C94.4671 39.7033 93.9489 40.3045 93.8943 41.1338C93.8413 41.9396 94.25 42.6383 94.7844 43.2052C95.3789 43.8359 96.3265 42.8828 95.7331 42.2535C95.1549 41.6402 95.0419 40.9709 95.7446 40.4367Z" fill="black"/>
<path fill-rule="evenodd" clip-rule="evenodd" d="M159.361 106.506C159.516 106.464 159.653 106.673 159.524 106.788C158.998 107.256 158.663 108.13 158.279 108.725C157.914 109.291 157.562 109.851 157.241 110.444C156.88 111.109 156.532 111.77 156.252 112.473L156.197 112.615C156.281 112.816 156.346 113.013 156.395 113.143L156.409 113.18C156.887 114.407 155.882 115.771 154.748 116.114C152.809 116.701 151.145 115.103 151.099 113.202C151.062 111.707 152.072 110.375 153.098 109.387C153.996 108.522 155.001 107.786 156.126 107.247C156.622 107.01 157.137 106.811 157.676 106.695C158.227 106.578 158.821 106.653 159.361 106.506ZM155.706 111.925C155.848 111.992 155.97 112.156 156.072 112.348C156.021 112.185 155.916 112.023 155.706 111.925ZM156.92 91.1506C158.608 92.1804 161.181 94.5817 159.364 97.1347C157.226 99.3858 154.148 96.8048 152.631 95.6375C151.225 94.7329 149.644 97.0596 150.949 98.1159C161.91 106.259 166.359 91.4199 157.774 89.9398C156.828 89.7767 156.477 90.832 156.92 91.1506ZM143.04 81.2621L143.339 81.237C144.633 81.1226 145.943 80.9482 147.219 81.2419C148.933 81.6368 148.807 84.1393 147.219 84.5994C145.819 85.0049 144.267 84.8294 142.822 84.8433C142.594 84.8456 142.368 84.8514 142.14 84.8552C142.096 85.3975 141.918 85.865 141.647 86.3321C141.452 86.6673 141.204 86.9857 140.96 87.2834C140.38 87.991 139.011 87.9751 138.425 87.2834C137.991 86.7714 137.646 86.1825 137.641 85.4895C137.639 85.312 137.661 85.1235 137.703 84.9382L136.914 84.9521C134.984 84.9816 133.038 84.9685 131.142 84.6607C130.468 84.8007 129.916 83.5797 130.847 83.2143C133.377 82.2213 136.204 81.9289 138.889 81.6308C140.269 81.4773 141.657 81.3716 143.04 81.2621ZM164.597 80.236L164.666 80.2291C166.34 80.0571 168.186 79.7591 169.864 79.9305C172.369 80.1861 172.365 83.5842 169.864 83.8384C168.946 83.9317 167.979 83.8864 167.014 83.7971C167.507 84.8466 166.922 86.1001 165.734 86.2603C164.63 86.4091 163.486 85.3326 163.848 84.1781L163.865 84.1271C163.936 83.9268 163.999 83.7029 164.075 83.4819L163.675 83.4481C162.481 83.3421 160.824 83.1258 160.384 82.1797C160.252 81.8945 160.282 81.6298 160.486 81.3862C161.324 80.3864 163.387 80.3535 164.597 80.236ZM146.791 72.4557C148.003 72.014 149.262 73.0478 149.42 74.2129C149.601 75.5555 148.636 76.4395 147.412 76.5998L147.351 76.6072C144.651 76.9056 141.971 77.4513 139.267 77.7598C138.039 77.8997 136.802 77.9918 135.566 78.0249L134.683 78.0448C133.6 78.0723 132.439 78.097 131.44 77.723L131.443 77.7162C131.178 77.6391 131.056 77.255 131.351 77.045C132.415 76.29 133.85 76.0046 135.088 75.6459C136.334 75.2849 137.588 74.9522 138.846 74.6396C141.488 73.9841 144.232 73.3886 146.791 72.4557ZM157.968 72.7696C158.289 71.071 160.687 70.8888 161.568 72.1248C162.137 72.3209 162.972 72.5255 163.489 72.6794C164.39 72.9475 165.292 73.2141 166.196 73.4723C168.067 74.0072 169.893 74.6852 171.733 75.3172C171.923 75.3825 171.871 75.6239 171.689 75.6479C169.121 75.9832 166.596 76.1393 164.012 76.0318L163.482 76.0079C161.206 75.9188 157.341 76.0886 157.968 72.7696Z" fill="black"/>
<path fill-rule="evenodd" clip-rule="evenodd" d="M161.655 116.266C159.572 114.404 157.238 110.662 154.247 113.623C153.507 114.459 153.207 116.335 152.076 116.703C150.573 117.192 149.084 115.597 148.572 114.372C146.477 107.566 155.138 105.699 160.072 106.798C162.482 107.792 164.257 111.79 164.365 113.876C164.434 115.278 163.251 117.34 161.655 116.266ZM177.364 105.775C177.344 105.684 177.315 105.603 177.281 105.528C176.36 105.179 175.632 105.535 175.181 106.201C175.196 106.366 175.245 106.534 175.276 106.698C174.929 107.432 174.615 108.341 174.144 108.976C174.051 108.983 173.955 108.973 173.863 108.946C166.056 109.764 169.867 101.569 161.95 99.5331C155.829 98.5199 144.767 99.6805 141.88 106.073C139.603 116.283 128.025 109.168 124.223 103.858C120.167 99.0261 117.544 93.121 115.016 87.391C114.481 86.1783 112.814 87.0454 112.995 88.209C110.657 92.9139 110.735 98.5655 110.156 103.72C109.172 114.003 108.212 128.424 117.734 134.703C130.141 148.774 161.121 153.74 175.431 140.811C180.384 130.125 179.773 117.088 177.364 105.775Z" fill="black"/>
</g>
<defs>
<clipPath id="clip0">
<path d="M0 0H254V276H0V0Z" fill="white"/>
</clipPath>
</defs>
</svg>
