<svg width="248" height="525" viewBox="0 0 248 525" fill="none" xmlns="http://www.w3.org/2000/svg">
<path fill-rule="evenodd" clip-rule="evenodd" d="M142.388 348.538C141.885 352.958 140.262 362.099 139.465 366.589C139.234 367.895 139.072 368.809 139.025 369.109C134.517 392.688 132.671 416.647 131.816 440.602C131.564 443.719 131.689 446.828 132.231 449.908C132.258 450.066 132.287 450.225 132.317 450.382C132.469 450.351 132.622 450.323 132.778 450.298C139.119 449.267 143.39 453.899 147.517 458.267C149.131 459.975 150.722 461.656 152.392 462.998C156.4 466.576 160.738 469.76 165.284 472.618C167.142 473.713 169.251 475.007 170.674 476.723C171.643 477.891 172.289 479.259 172.273 480.902L172.267 481.466L172.824 481.38C172.991 481.354 173.13 481.364 173.242 481.417C173.362 481.474 173.444 481.578 173.51 481.7C173.807 482.244 173.805 483.107 173.822 483.762C173.826 483.929 173.83 484.085 173.837 484.223C173.887 486.187 173 487.483 171.664 488.369C169.584 489.749 166.481 490.184 163.965 490.551C163.499 490.619 163.053 490.684 162.633 490.752C147.159 492.411 131.493 488.221 117.176 482.544C117.136 482.528 117.096 482.512 117.055 482.496C117.016 482.503 116.977 482.509 116.937 482.515C115.797 482.665 114.815 482.057 114.039 481.177C112.966 479.961 112.268 478.203 112.101 476.839C111.955 476.178 112.047 475.564 112.129 474.955C112.236 474.146 112.327 473.346 112.075 472.561C110.1 468.069 109.841 463.183 110.124 458.396C110.046 452.471 111.406 450.799 112.514 449.474C113.443 448.361 114.194 447.458 113.952 444.932C113.922 444.559 113.804 442.159 113.855 440.967L114.226 440.914C113.638 432.44 111.508 424.048 109.376 415.662C105.904 402.004 102.417 388.361 105.762 374.4C106.818 370.096 108.907 366.286 111.002 362.452C112.331 360.02 113.665 357.578 114.752 355.001C114.772 354.955 114.791 354.908 114.81 354.862C114.8 354.816 114.79 354.77 114.781 354.724C114.575 353.656 114.83 352.569 115.072 351.474C115.293 350.473 115.51 349.466 115.458 348.46C115.439 346.568 115.067 344.758 114.676 342.924C114.656 342.83 114.636 342.737 114.615 342.643C114.524 342.617 114.432 342.591 114.341 342.564C112.55 342.046 110.8 341.41 109.119 340.579L108.669 340.356L108.469 340.817C108.405 340.963 108.312 341.075 108.2 341.151C108.076 341.236 107.932 341.278 107.787 341.284C107.629 341.29 107.47 341.254 107.332 341.177C107.223 341.117 107.127 341.031 107.059 340.92C106.868 340.135 107.082 339.306 107.273 338.485C107.399 337.944 107.523 337.404 107.564 336.878C107.627 336.577 107.68 336.225 107.736 335.85C107.894 334.804 108.058 333.54 108.624 332.788C108.784 332.575 108.981 332.408 109.234 332.325C109.476 332.246 109.764 332.245 110.106 332.324C110.307 332.37 110.479 332.433 110.624 332.513C110.646 332.311 110.668 332.109 110.689 331.908C111.593 323.364 111.765 314.747 111.263 306.171C111.225 305.506 111.182 304.842 111.134 304.178C110.865 304.789 110.602 305.401 110.345 306.014C108.804 309.686 107.453 313.496 106.102 317.305C104.211 322.635 102.322 327.962 99.9116 332.901C99.8724 332.981 99.8331 333.062 99.7939 333.142C99.8405 333.192 99.8787 333.253 99.9103 333.318C99.9673 333.437 99.997 333.561 99.9737 333.685C99.9513 333.805 99.8808 333.919 99.7691 334.029C98.8742 334.897 98.4081 336.059 97.9572 337.223C97.9344 337.282 97.9117 337.34 97.8888 337.399C97.5498 338.47 96.9938 339.441 96.2389 340.185C95.5685 340.846 94.7401 341.327 93.7755 341.509C93.6743 341.528 93.5733 341.544 93.4726 341.556C93.4476 341.661 93.423 341.766 93.3986 341.87C93.2785 342.381 93.1535 342.92 93.023 343.482C91.4953 350.066 89.2109 359.941 85.0932 367.209C82.4578 371.86 79.0742 375.458 74.6009 376.302C74.2752 376.363 73.9496 376.409 73.6244 376.44C73.896 376.577 74.1235 376.763 74.2812 377.021C74.7961 377.865 74.2823 379.015 73.8937 380.069C73.6643 380.691 73.4456 381.296 73.3595 381.831C72.9417 383.026 72.592 384.253 72.2422 385.482C71.6008 387.735 70.9614 389.994 69.8749 392.056C69.8341 392.134 69.7928 392.211 69.7511 392.287C69.7947 392.339 69.8285 392.394 69.8542 392.458C69.8975 392.566 69.9057 392.67 69.8936 392.799C69.8828 392.915 69.8597 393.008 69.8101 393.096C69.9152 393.138 70.0186 393.19 70.1197 393.252C70.6037 393.549 70.9 394.001 71.047 394.517C71.2253 395.142 71.1899 395.858 70.9992 396.536C70.8003 397.243 70.431 397.912 69.9354 398.398C69.5197 398.805 69.0133 399.084 68.4428 399.117C68.4044 399.12 68.3661 399.121 68.3279 399.121C68.2972 399.142 68.2663 399.161 68.2353 399.179C67.9831 399.321 67.6318 399.398 67.3031 399.404L67.19 400.345C67.2615 400.425 67.2721 400.466 67.267 400.509C66.783 406.333 65.3992 412.011 64.0229 417.668C63.7674 418.718 63.5121 419.767 63.2626 420.816C62.7773 422.488 62.4185 424.21 62.0599 425.934C61.4713 428.763 60.8857 431.597 59.711 434.206C59.6818 434.27 59.6524 434.335 59.6228 434.399C59.6517 434.461 59.6793 434.523 59.7056 434.586C60.2919 435.993 60.1721 437.619 59.8809 439.084C59.4069 439.626 58.5165 439.58 57.7766 439.603C57.4925 439.611 57.2194 439.62 56.974 439.645C56.8172 439.661 56.6508 439.687 56.4782 439.716C56.5034 439.873 56.5273 440.031 56.5497 440.189C56.9087 442.713 56.895 445.284 56.883 447.845C56.8763 449.292 56.8697 450.737 56.9281 452.169C56.9349 452.338 56.9428 452.507 56.9516 452.676C57.1059 452.653 57.266 452.636 57.4321 452.627C59.0512 452.539 60.1761 453.205 60.9947 454.249C62.2598 455.861 62.8308 458.316 63.3327 460.409C63.4694 460.979 63.6001 461.523 63.7358 462.021C64.7673 465.478 66.0874 468.808 67.4075 472.138C69.1672 476.575 70.9277 481.009 71.9792 485.718L72.1395 486.436L72.7306 485.998C72.7836 485.959 72.846 485.931 72.915 485.928C72.9835 485.926 73.0553 485.948 73.1293 485.991C75.2421 487.261 75.2651 489.878 75.354 492.083C75.3619 492.278 75.3696 492.47 75.3784 492.659C75.3576 493.124 75.3917 493.626 75.4276 494.135C75.5135 495.356 75.6921 496.69 74.6597 497.471C67.3656 502.445 57.5026 502.302 49.0718 500.996C45.7109 500.382 42.4298 499.358 39.3145 497.956C38.1369 497.557 37.2561 497.134 36.7173 496.44C36.2598 495.85 36.0706 495.067 36.1448 493.98C35.9373 492.002 36.1153 490.12 36.2903 488.235C36.442 486.602 36.5922 484.966 36.5114 483.32C36.7587 476.998 38.2046 470.748 39.626 464.593C39.6829 464.346 39.7399 464.099 39.7967 463.853C39.8798 463.592 39.9636 463.326 40.0487 463.055C41.1436 459.575 42.4355 455.311 45.58 453.361C45.6671 453.342 45.8077 453.338 45.9634 453.325C46.3784 453.29 46.8686 453.234 47.1602 453.093C47.168 453.089 47.1758 453.085 47.1834 453.081L47.0044 453.687L47.9404 453.286C48.1565 453.193 48.3826 453.124 48.6145 453.08C48.6909 453.066 48.7678 453.054 48.8452 453.045C48.883 452.97 48.9202 452.894 48.957 452.818C50.2301 450.184 50.8215 447.314 51.4078 444.444C51.7701 442.671 52.1316 440.898 52.663 439.185C52.7087 439.037 52.7557 438.89 52.8038 438.744C52.6598 438.699 52.5177 438.65 52.3781 438.596C50.8985 438.026 49.5562 436.887 49.1403 435.346C49.2405 434.911 49.4479 434.435 49.7614 434.078C49.9938 433.814 50.2881 433.614 50.6528 433.591L51.3099 433.549L51.0675 432.937C50.8272 432.33 50.7927 431.639 50.8662 430.987C52.1048 423.349 53.7549 415.777 55.5324 408.244C56.2089 405.443 56.9327 402.652 57.7498 399.888C57.8696 399.555 57.9644 399.18 58.0608 398.794C58.2606 397.995 58.4429 397.12 59.0248 396.617C59.163 396.497 59.3188 396.403 59.4867 396.328C59.3371 396.193 59.1907 396.055 59.0478 395.914C57.8056 394.689 56.7521 393.201 56.722 391.529C56.6638 390.826 56.9962 390.102 57.5096 389.652C57.6784 389.504 57.8681 389.386 58.0727 389.313L58.86 389.798C59.0485 389.914 59.2287 390.046 59.4091 390.178C59.5612 390.289 59.7132 390.4 59.8689 390.503L61.7508 391.747L60.5358 389.846C59.5801 388.35 60.0541 386.528 60.4387 384.855C60.5426 384.403 60.6443 383.96 60.7215 383.532C60.8229 383.076 60.9226 382.618 61.0224 382.16C61.6261 379.385 62.2352 376.574 63.2963 373.961C63.3395 373.855 63.3834 373.749 63.4275 373.642C63.3404 373.569 63.2534 373.495 63.1667 373.42C59.0355 369.831 57.4189 365.403 57.21 360.654C56.9089 353.809 59.5005 346.306 61.796 339.626C62.3796 337.928 62.945 336.283 63.4415 334.714C63.4755 334.606 63.5095 334.498 63.5433 334.39C63.4502 334.317 63.3574 334.247 63.2648 334.181C62.7023 333.776 62.0279 333.401 61.3321 333.015C59.6051 332.059 57.6436 331.064 57.383 329.119C57.4118 328.075 57.8209 327.066 58.2123 326.075C58.3713 325.672 58.529 325.272 58.6639 324.874C58.7683 324.406 59.0873 323.798 59.4934 323.523C59.5814 323.463 59.674 323.415 59.7731 323.426C59.8612 323.436 59.9424 323.494 60.0259 323.583L60.5878 324.177L60.8304 323.396C60.9544 322.997 61.079 322.597 61.2037 322.196C63.5818 314.563 65.9946 306.788 65.7773 298.725C65.7742 298.607 65.7704 298.489 65.7661 298.373C65.6488 298.334 65.5294 298.301 65.4078 298.272C64.58 298.079 63.7387 298.155 62.9085 298.238C61.8652 298.343 60.8281 298.487 59.892 297.787C51.3646 291.261 52.2927 274.626 53.0228 264.916C53.0323 264.79 53.0419 264.663 53.0515 264.535C52.9333 264.502 52.8152 264.466 52.6976 264.426C52.3016 264.294 51.9228 264.131 51.5783 263.927L51.2956 263.758L51.0375 263.962C50.9125 263.968 50.8392 263.893 50.7579 263.807C50.4248 263.453 50.0954 262.81 49.7676 262.021C48.6071 259.227 47.5687 254.655 47.2621 253.308C47.2544 253.275 47.2472 253.243 47.2393 253.208C41.0338 225.071 43.4079 196.059 45.7336 167.551C45.8998 165.514 46.0658 163.479 46.2285 161.448C46.7292 157.693 46.921 153.849 47.1127 149.996C47.5049 142.114 47.8886 134.195 50.9971 126.952C53.073 121.661 58.925 120.432 63.8948 119.319C64.0313 119.289 64.1671 119.258 64.3023 119.228C66.8906 118.457 69.493 117.861 72.0921 117.266C76.0752 116.354 80.05 115.443 83.844 113.947C84.0494 113.866 84.254 113.783 84.4579 113.699C84.3123 113.55 84.1782 113.391 84.0572 113.222C83.391 112.294 83.1301 111.08 83.1985 109.875C83.2696 108.624 83.6959 107.378 84.4269 106.454C84.7136 106.243 85.0506 106.221 85.3922 106.277C86.062 106.386 86.7607 106.783 87.329 107.097C87.3852 107.128 87.4402 107.158 87.4939 107.187L87.9206 107.421L88.147 106.99C89.0408 105.29 89.6611 103.416 90.2676 101.577C90.6178 100.515 90.9637 99.4648 91.3593 98.4695C92.5704 95.908 94.6482 94.6799 97.0453 94.2071C100.658 93.4945 104.979 94.4567 108.322 95.2912C108.441 95.3219 108.562 95.3525 108.683 95.3833C110.369 95.8113 112.177 96.2568 113.579 97.3098C115.913 99.1746 116.409 102.074 116.936 104.919C117.203 106.359 117.471 107.792 117.941 109.099C117.994 109.246 118.05 109.392 118.108 109.538C118.241 109.478 118.371 109.432 118.498 109.403C120.346 108.98 124.403 111.384 125.801 112.664C126.166 112.907 126.334 113.148 126.421 113.42C126.565 113.872 126.519 114.391 126.485 114.902C126.47 115.134 126.455 115.366 126.453 115.591C126.451 115.724 126.453 115.858 126.458 115.993C126.585 116.018 126.713 116.043 126.84 116.067C127.663 116.227 128.503 116.384 129.354 116.542C135.441 117.676 142.079 118.894 146.815 122.247C150.126 124.592 152.486 127.994 153.038 133.166C154.788 140.64 155.717 148.192 156.577 155.748C156.693 156.746 156.807 157.745 156.921 158.744C158.307 170.864 159.703 183.053 163.468 194.704C163.837 195.61 164.196 196.482 164.554 197.354C170.183 211.045 175.896 224.921 177.247 239.808C177.98 246.922 177.869 254.11 176.652 261.162C176.581 261.542 176.28 261.808 175.936 261.948C175.56 262.102 175.108 262.116 174.77 261.902L172.969 260.765L174.111 262.564C176.515 266.349 174.501 273.005 173.139 277.706C172.937 278.402 172.747 279.057 172.584 279.657C171.537 283.128 169.845 286.908 167.186 288.913C166.18 289.671 165.034 290.17 163.728 290.281C162.529 290.383 161.2 290.158 159.728 289.529C159.543 289.45 159.365 289.368 159.192 289.285C159.152 289.481 159.112 289.677 159.071 289.873C156.179 303.934 152.952 317.871 149.121 331.712L148.587 333.641L149.935 332.162C150.151 331.926 150.397 331.788 150.654 331.737C150.943 331.679 151.24 331.73 151.513 331.854C151.825 331.995 152.106 332.23 152.316 332.526C152.508 332.796 152.64 333.117 152.677 333.466C152.567 335.357 151.957 337.174 151.354 338.988C151.032 339.956 150.711 340.923 150.461 341.898C150.181 342.904 149.59 343.522 148.832 343.912C147.673 344.508 146.158 344.604 144.728 344.71C143.982 344.765 143.257 344.819 142.606 344.93C142.508 344.947 142.41 344.965 142.31 344.985C142.282 345.08 142.254 345.174 142.227 345.269C142.034 345.936 141.866 346.609 141.697 347.283C141.562 347.822 141.427 348.361 141.28 348.896L142.199 349.162C142.266 348.94 142.329 348.732 142.388 348.538ZM71.0256 264.793C71.0574 260.755 72.4961 256.947 73.9218 253.145C74.516 251.561 75.1094 249.978 75.6052 248.381C75.6346 248.286 75.6638 248.191 75.6926 248.096C75.6179 248.021 75.5424 247.949 75.4662 247.881C75.1025 247.558 74.6532 247.263 74.195 246.965C73.5555 246.55 72.8885 246.132 72.4917 245.568C72.2476 245.221 72.1211 244.813 72.2056 244.256C72.4359 240.094 72.7197 235.934 73.0595 231.78C73.139 230.893 73.2194 230.006 73.2998 229.119C74.7175 213.475 76.1457 197.652 73.3378 182.086C73.2141 181.377 73.0699 180.675 72.9256 179.974C72.8286 179.502 72.7316 179.03 72.6411 178.557C72.6281 178.488 72.6135 178.395 72.5965 178.288C72.5156 177.777 72.3804 176.964 72.1074 176.37C71.8607 175.834 71.4996 175.491 71.067 175.416C70.9144 175.389 70.7589 175.397 70.6033 175.437C70.5754 175.547 70.5476 175.661 70.5201 175.774C65.8176 195.149 66.9977 214.914 68.1826 234.641C68.7277 243.717 69.2726 252.784 69.2389 261.801C69.2385 261.89 69.2382 261.979 69.2377 262.067C69.2938 262.085 69.3476 262.114 69.396 262.158C69.5181 262.268 69.5517 262.423 69.5272 262.567C69.4976 262.742 69.388 262.909 69.2198 262.997C69.161 263.028 69.0985 263.048 69.0352 263.058C69.0164 263.142 68.9971 263.227 68.9773 263.311C68.8868 263.697 68.7852 264.079 68.672 264.46C68.6442 264.553 68.6157 264.646 68.5866 264.739C68.658 264.807 68.7294 264.875 68.8009 264.943C69.2813 265.4 69.7648 265.853 70.2532 266.302L71.1245 267.102L71.0542 265.921C71.0318 265.543 71.0226 265.167 71.0256 264.793Z" fill="white"/>
<path fill-rule="evenodd" clip-rule="evenodd" d="M173.649 267.117C171.863 273.124 170.224 282.018 165.677 286.441C164.077 287.734 162.197 286.945 160.361 286.787C161.545 279.838 162.361 272.832 163.021 265.816C166.762 265.098 170.369 263.793 173.709 261.965C174.577 263.42 174.035 265.632 173.649 267.117ZM158.737 284.949C157.014 294.876 154.664 304.677 152.39 314.465C151.185 320.431 148.619 326.584 148.067 332.472C136.461 337.106 123.904 335.305 111.9 333.413C112.085 333.257 112.226 333.018 112.246 332.726C112.544 332.59 112.788 332.32 112.833 331.917C113.509 323.072 114.744 313.452 112.656 304.895C114.036 303.65 115.269 302.204 116.419 300.746C117.465 299.364 115.289 297.537 114.066 298.542C115.758 294.311 117.506 290.103 119.337 285.929C119.827 284.81 118.178 283.836 117.684 284.962C110.862 300.58 105.108 316.565 99.1579 332.539C98.8267 331.881 97.4952 331.96 97.9779 332.895C85.7888 333.914 73.0659 330.803 61.8513 325.742C64.5313 317.131 67.5843 308.359 67.4052 299.247C70.0302 299.369 73.5771 297.875 74.9667 295.614C76.3555 296.693 78.0585 295.368 78.7904 294.109C80.4816 290.808 79.5456 286.778 78.5672 283.394C82.0199 283.937 86.343 280.734 83.9806 277.155C80.3305 273.951 76.1647 271.222 72.586 267.846C72.28 261.516 74.7316 255.609 76.9583 249.67C88.2094 257.603 99.2403 266.139 111.055 273.142C113.086 273.349 114.727 271.811 116.252 270.688C120.603 267.457 124.995 264.27 129.283 260.952C129.753 261.126 130.293 261.083 130.694 260.814C133.432 263.748 136.326 266.458 139.035 269.407C140.662 270.911 141.838 273.26 144.109 273.837C145.171 274.031 145.847 273.591 146.528 272.854C150.66 268.48 155.105 264.418 159.386 260.194C159.937 260.911 160.999 260.669 161.528 259.982C161.098 268.342 160.002 276.676 158.737 284.949ZM151.086 333.474C150.955 333.586 151.11 333.49 151.234 333.676C151.36 334.876 150.655 336.096 150.419 337.274C149.636 339.006 149.712 343.013 147.401 343.074C134.634 345.297 121.735 343.403 109.242 340.546C109.405 338.01 110.19 335.398 109.678 332.887C109.887 332.699 110.108 332.568 110.356 332.517C110.286 332.872 110.334 333.307 110.606 333.484C121.294 338.18 136.779 339.151 147.873 334.785C149.039 335.155 149.911 333.651 148.997 332.821C149.151 332.801 149.3 332.746 149.426 332.651C149.244 333.444 150.405 334.056 151.086 333.474ZM115.543 343.593C115.868 343.679 116.195 343.759 116.522 343.837C116.271 344.436 116.633 345.302 116.534 345.976C116.305 345.14 115.981 344.333 115.543 343.593ZM96.4681 336.715C95.9597 338.175 95.1525 339.797 93.4479 340.029C93.0493 339.868 92.5901 339.897 92.2903 340.171C81.179 340.021 67.5835 336.67 59.1229 329.351C59.0211 328.349 59.4973 327.341 59.5968 326.345C59.7365 325.95 59.8966 323.463 60.426 323.925C60.0224 324.914 59.6738 326.365 61.2137 326.219C72.1076 332.506 84.9811 334.901 97.4631 334.508C97.066 335.205 96.7662 335.961 96.4681 336.715ZM73.385 378.277C72.4292 381.704 71.4066 385.114 70.3139 388.499C69.2626 393.52 66.7318 394.194 62.9707 390.905C60.2491 389.256 61.3968 386.295 61.8086 383.744C62.3171 380.607 62.9772 377.493 63.4524 374.352C66.4502 376.575 70.2246 377.666 73.9335 377.179C73.6369 377.466 73.5078 377.837 73.385 378.277ZM68.3752 394.354C68.3418 394.344 68.3067 394.333 68.2732 394.322C68.3115 394.309 68.3481 394.295 68.3848 394.282C68.3816 394.306 68.3784 394.33 68.3752 394.354ZM66.4155 400.816C65.2296 411.371 61.8037 421.512 59.4571 431.842C59.1921 433.983 57.5574 434.765 55.5866 434.087C54.7768 433.876 53.5378 433.576 52.9446 432.94C52.2685 432.212 52.7277 430.794 52.8776 429.945C53.8089 424.697 54.8549 419.471 55.9264 414.248C57.2024 408.574 58.2395 402.788 59.6338 397.177C61.6545 398.892 64.2282 400.097 66.9274 400.148C66.6659 400.244 66.4474 400.467 66.4155 400.816ZM58.9904 438.539C58.831 438.574 58.6715 438.603 58.5104 438.629C58.7528 437.86 58.9847 436.79 58.5535 436.073C58.6524 436.038 58.748 436 58.8405 435.957C58.9824 436.823 59.0813 437.654 58.9904 438.539ZM57.6166 460.302C60.1862 461.971 61.6862 464.78 63.0014 467.46C63.8466 469.18 64.5354 471.255 65.8286 472.721C66.3644 474.165 66.9034 475.607 67.4168 477.058C68.9533 481.835 70.8707 486.903 70.6857 491.941C70.6873 491.936 70.6873 491.93 70.6905 491.921C70.6731 492.048 70.6304 492.17 70.6012 492.293C70.7176 492.212 70.8522 492.134 70.6697 492.268C70.653 492.254 70.6018 492.3 70.5996 492.297C70.5996 492.3 70.598 492.303 70.598 492.306C70.6091 492.297 70.6203 492.289 70.6347 492.279C70.6225 492.288 70.6074 492.303 70.5948 492.314C70.5948 492.317 70.5932 492.322 70.5916 492.327C70.582 492.335 70.5114 492.387 70.5262 492.368C70.3588 492.445 70.2217 492.55 70.0941 492.678C60.2481 494.813 49.3779 495.193 40.274 490.301C36.7759 483.178 40.3644 471.276 41.8 463.606C46.3833 460.992 52.3848 457.675 57.6166 460.302ZM61.5802 457.474C61.9517 459.114 62.2021 460.77 62.5449 462.409C61.5381 461.321 61.0195 459.955 60.1406 458.804C59.5992 457.668 59.0185 456.035 57.6719 455.824C57.635 454.903 57.6097 453.98 57.5969 453.058C59.8867 453.342 61.0938 455.315 61.5802 457.474ZM74.0551 493.439C74.028 492.989 73.792 492.542 73.4061 492.297C73.4946 490.709 73.2236 489.168 72.9756 487.603C74.6424 489.384 73.9327 492.238 74.2052 494.471C74.1835 495.359 74.6142 496.491 73.5816 496.95C70.3573 499.18 66.449 500.22 62.5965 500.668C54.1917 501.632 45.454 500.085 37.9445 496.176C36.9396 494.814 37.2915 491.503 37.1568 489.759C37.6319 491.315 38.4656 492.7 40.1149 493.186C50.3311 498.107 62.3547 497.515 73.1016 494.745C73.8057 494.556 74.0889 494.007 74.0551 493.439ZM47.0821 459.002C47.1411 458.93 47.1969 458.858 47.2543 458.785C47.6131 458.767 47.9719 458.735 48.3306 458.696C47.7939 458.91 47.2656 459.143 46.7504 459.404C46.862 459.271 46.9736 459.137 47.0821 459.002ZM51.4337 450.828C52.3095 447.131 52.6246 443.328 53.0697 439.559C54.3586 440.016 55.6505 440.331 57.0051 440.368C55.3455 445.399 55.4309 450.907 55.4759 456.161C53.4391 456.507 51.2457 456.7 49.2491 456.019C50.2505 454.414 50.9696 452.669 51.4337 450.828ZM65.1745 295.583C64.0567 295.471 62.9453 295.55 61.8387 295.709C55.2888 291.256 54.2562 272.993 53.228 265.283C57.9151 266.481 62.8795 266.158 67.4293 264.581C67.515 265.421 68.4739 265.854 69.0573 265.287C72.1427 270.782 76.7594 275.182 81.5221 279.115C81.4663 278.932 81.4264 279.268 81.4966 279.141C80.89 280.532 78.6625 279.81 77.609 280.779C76.9329 281.283 76.791 282.165 77.2215 282.754C76.0819 285.905 77.8936 289.751 76.1882 292.74C75.8051 293.185 75.3064 293.506 74.9764 294.005C72.7066 292.449 70.6383 295.74 68.3398 295.885C68.3557 295.885 68.3717 295.885 68.3892 295.883C68.0354 295.922 67.4675 295.903 67.1566 295.859C66.4972 295.757 65.8396 295.649 65.1745 295.583ZM69.3967 185.493C69.8782 182.352 70.4395 179.23 71.1682 176.138C72.0469 176.291 72.243 178.305 72.3546 178.898C76.116 195.926 74.4873 213.449 72.8759 230.636C72.4854 235.244 72.1633 239.861 71.9113 244.481C71.586 246.605 74.0283 247.326 75.3317 248.49C73.5186 254.33 70.3901 259.98 70.76 266.2C70.2737 265.754 69.7921 265.302 69.3138 264.848C69.4349 264.457 69.5386 264.066 69.6263 263.672C70.2217 263.362 70.4107 262.506 69.9006 262.054C70.0965 236.586 65.3195 210.9 69.3967 185.493ZM116.934 135.917C117.838 134.308 120.232 136.398 118.728 137.566C117.681 138.415 116.23 137.022 116.934 135.917ZM120.565 152.865C121.298 151.517 123.679 152.186 123.233 153.784C123.24 153.715 123.244 153.661 123.249 153.619C123.312 154.921 120.791 155.976 120.617 154.314C120.342 153.881 120.277 153.315 120.565 152.865ZM123.926 171.172C125.741 170.457 126.41 173.14 124.872 173.855C123.218 174.443 122.307 171.764 123.926 171.172ZM126.044 190.828C126.492 189.31 128.782 189.711 128.766 191.271C128.708 193.378 125.591 192.742 126.044 190.828ZM129.798 209.894C130.434 207.987 132.881 208.974 132.676 210.821C132.943 211.887 130.876 214.04 130.458 212.296C129.9 211.623 129.637 210.759 129.798 209.894ZM133.64 231.885C133.645 231.878 133.65 231.872 133.655 231.865C135.016 232.506 133.838 235.424 132.526 234.352C131.253 233.575 132.134 231.11 133.64 231.885ZM135.431 249.737C137.019 251.299 134.564 253.77 132.998 252.172C131.408 250.613 133.862 248.141 135.431 249.737ZM174.017 261.797C174.038 261.843 174.06 261.89 174.086 261.933C174.044 261.898 174.003 261.863 173.961 261.828C173.979 261.818 173.998 261.808 174.017 261.797ZM114.502 447.824C114.562 448.98 114.648 450.146 114.926 451.266C115.753 455.818 121.598 461.283 126.407 458.013C128.614 456.459 129.58 453.452 132.212 452.477C134.969 451.454 137.987 452.461 140.307 454.042C142.992 455.872 145.084 458.478 147.371 460.755C152.234 465.598 157.628 469.91 163.401 473.619C166.423 475.496 172.75 478.311 170.246 482.706C168.329 485.488 163.506 484.162 162.676 485.732C151.977 486.172 141.508 483.245 131.338 480.248C126.175 478.559 120.772 477.575 115.767 475.43C110.97 471.226 110.954 461.977 111.614 456.049C111.83 454.753 112.365 448.589 114.383 449.687C114.982 449.752 114.112 449.089 113.898 449.17C114.179 448.771 114.41 448.31 114.502 447.824ZM172.72 482.412C172.789 482.446 172.861 482.461 172.934 482.463C173.145 483.002 173.041 485.199 173.001 485.577C172.352 488.882 167.15 489.431 164.392 489.931C154.702 491.459 144.845 490.391 135.391 487.954C130.777 486.81 126.188 485.488 121.708 483.894C117.727 482.682 112.809 480.67 113.299 475.62C115.523 478.615 122.607 479.5 126.171 480.739C137.358 484.138 148.707 487.795 160.512 487.912C162.301 487.835 164.772 488.335 166.114 486.987C168.959 486.581 171.91 485.004 172.72 482.412ZM175.294 225.504C172.703 215.288 168.533 205.566 164.475 195.873C160.088 183.004 158.803 169.373 157.235 155.944C156.373 148.367 155.441 140.8 153.697 133.366C152.215 119.508 138.146 117.997 127.114 115.849C127.13 114.665 127.493 113.319 126.307 112.562C125.218 111.456 119.404 108.017 118.256 109.472C117.805 108.375 117.585 107.158 117.371 105.987C117.228 105.524 117.169 103.93 116.667 103.943C116.559 107.063 115.236 111.631 117.891 113.974C116.297 116.404 114.969 119.349 112.868 121.284C112.87 121.282 112.871 121.28 112.873 121.279C112.768 121.347 112.661 121.41 112.551 121.469C112.576 121.448 112.425 121.504 112.3 121.544C112.015 121.598 111.543 121.493 111.251 121.362H111.254C104.021 117.249 96.9447 112.845 89.943 108.333C90.9439 106.852 92.239 99.5925 90.9972 98.5862C90.1287 101.45 89.2246 104.324 87.9067 107.019C86.765 106.395 84.9175 105.274 83.9554 106.74C82.7419 108.776 82.3954 111.728 83.8517 113.752C77.5925 116.22 70.8429 117.084 64.3804 119.012C61.5644 119.735 58.5825 120.272 55.9403 121.525C48.0668 125.895 48.0604 136.663 47.1968 144.593C44.981 183.197 37.9526 223.103 48.959 260.973C49.3819 262.136 50.0069 263.252 50.4933 264.396C50.6862 264.849 51.1869 264.835 51.517 264.589C51.8901 264.811 52.2999 264.988 52.7289 265.131C52.0084 274.977 51.0316 292.964 60.5306 298.835C62.1914 299.431 63.7585 298.582 65.4823 298.989C65.7119 307.42 63.0362 315.518 60.5566 323.505C58.7328 322.091 58.0337 326.346 57.4823 327.442C55.63 331.368 60.5751 333.124 63.1685 334.82C59.3022 347.001 51.2968 363.869 63.0362 374.032C61.7907 377.1 61.1514 380.455 60.4354 383.689C60.051 385.801 59.0418 388.395 60.3158 390.354C59.9711 390.126 59.6455 389.858 59.2937 389.642C60.8248 389.619 58.5604 388.501 57.6467 389.335C55.0954 391.236 56.9853 394.72 58.8951 396.506C58.152 397.061 57.8953 398.596 57.6752 399.325C56.7727 402.317 55.9818 405.347 55.2499 408.386C53.4686 415.934 51.8155 423.523 50.5744 431.177C50.4901 431.927 50.5395 432.689 50.8058 433.364C49.8454 433.407 49.2685 434.324 48.9627 435.126C48.5293 436.921 50.8273 438.686 52.3892 439.294C50.7432 444.76 50.5953 450.842 47.108 455.586C46.7333 455.223 46.0923 455.157 45.7718 455.762C45.4218 456.764 43.2704 459.489 44.0767 460.305C44.1038 460.501 44.2043 460.694 44.3542 460.817C43.584 461.337 42.8489 461.89 42.117 462.47C43.0958 459.667 43.9082 456.395 46.0124 454.235C46.5675 453.918 47.277 454.025 47.7203 453.497C48.044 453.11 48.06 452.65 47.7363 452.271C47.5832 452.091 47.2308 452.283 47.3249 452.511C47.5928 453.155 45.944 453.042 45.5645 453.173C41.8625 455.474 40.5339 460.704 39.3342 464.669C37.8933 471.635 35.8763 478.735 36.322 485.899C35.843 488.405 35.1534 495.292 36.6058 497.186C44.2716 501.756 53.7821 503.098 62.5961 502.218C66.5251 501.648 76.8407 500.402 76.1039 494.946C75.8569 491.866 76.5685 487.751 73.5541 485.829C73.208 485.627 72.8747 485.683 72.6291 485.864C70.7864 477.613 66.7828 470.196 64.3804 462.146C63.373 458.452 62.6439 452.125 57.5891 452.401C57.4266 448.42 57.7707 444.34 57.2208 440.398C57.2208 440.399 57.2208 440.399 57.2192 440.399C57.216 440.39 57.2112 440.38 57.2064 440.372C58.2448 440.246 59.9907 440.524 60.5408 439.438C60.8224 437.909 60.9605 436.114 60.3302 434.653C62.2245 430.466 62.6219 425.609 63.9087 421.188C65.5078 414.461 67.3511 407.729 67.9251 400.816C67.9554 400.448 67.7577 400.22 67.4946 400.133C67.9047 400.126 68.3402 400.024 68.6539 399.846C71.4844 399.683 73.0997 394.653 70.553 393.095C70.5753 392.878 70.5466 392.688 70.4812 392.53C72.2035 389.239 72.7985 385.642 74.0087 382.198C74.2374 380.666 75.7436 378.401 74.8727 377.023C87.9447 373.626 91.0635 353.571 94.0474 342.23C98.3571 341.388 97.9488 337.283 100.288 334.621C100.698 334.224 100.717 333.747 100.525 333.362C104.661 324.886 107.27 315.27 110.969 306.45C111.469 315 111.3 323.591 110.397 332.108C107.665 331.475 107.654 335.25 107.273 337.062C107.075 338.188 106.877 339.313 106.68 340.439C106.389 342.096 108.52 342.57 109.091 341.259C110.797 342.103 112.573 342.749 114.391 343.275C114.775 345.081 115.148 346.861 115.163 348.726C115.277 350.861 114.096 353 114.495 355.066C111.863 361.346 107.735 366.733 105.833 373.277C99.545 396.177 112.375 418.476 113.932 441.199C113.276 438.334 113.658 445.331 113.685 445.91C113.755 450.574 109.673 448.413 109.829 458.619C109.541 463.477 109.817 468.452 111.803 472.959C112.243 474.345 111.488 475.725 111.809 477.148C112.125 479.725 114.233 483.63 117.183 483.24C134.015 489.616 153.514 495.398 171.218 489.461C172.449 488.848 173.733 488.055 174.175 486.678C174.552 485.449 175.061 480.798 172.934 481.158C172.98 476.927 168.962 474.372 165.722 472.464C161.192 469.616 156.869 466.443 152.876 462.877C146.822 458.015 141.833 448.624 132.885 450.076C131.719 443.687 132.94 437.17 132.931 430.721C133.514 402.279 139.106 374.395 143.338 346.375C143.375 346.132 143.044 346.03 142.962 346.273C133.85 372.568 131.537 400.78 129.824 428.4C129.258 435.825 129.897 443.215 131.418 450.497C127.415 451.599 126.795 457.836 122.12 457.236C119.636 456.715 117.412 454.753 116.414 452.444C117.477 450.715 116.725 448.3 116.683 446.336C116.518 444.431 116.325 442.527 116.1 440.628C114.55 418.803 102.598 397.69 107.312 375.622C109.565 364.769 120.261 355.664 116.891 343.925C126.495 346.134 136.503 346.573 146.271 345.273C149.816 345.162 150.949 343.664 151.693 340.359C152.228 338.157 153.322 335.993 153.34 333.707C153.182 331.93 151.044 330.689 149.765 332.091C153.599 318.242 156.83 304.288 159.723 290.22C169.069 294.231 172.75 282.689 174.469 275.738C175.298 271.575 177.082 266.452 174.698 262.558C181.671 265.34 177.035 229.282 175.294 225.504Z" fill="black"/>
<path fill-rule="evenodd" clip-rule="evenodd" d="M137.75 87.2212C135.056 75.0029 134.531 61.5849 127.42 50.9164C124.313 46.5663 119.32 40.8939 113.488 42.6817C113.728 40.1058 113.955 37.5288 114.165 34.9503C114.285 33.4753 114.837 31.5101 113.589 30.376C111.529 28.7118 108.119 31.2584 106.527 32.6812C103.077 35.9856 101.715 39.1951 97.1714 41.402C95.3501 40.1034 93.575 38.7409 91.7264 37.4775C89.8428 36.1901 87.1482 34.0989 85.1935 36.4755C83.5367 38.49 84.595 41.6654 85.252 43.8818C85.588 45.0154 85.9219 46.2527 86.3888 47.4185C86.4281 48.3047 86.4967 49.1892 86.5973 50.0713C83.2315 50.6704 79.7675 51.1745 76.5517 52.3504C74.798 53.3007 74.9526 55.4589 76.1967 56.7508C78.0585 58.5545 80.4145 59.9651 82.9866 60.9118C82.5195 62.5288 81.4 63.8999 79.9923 64.7965C79.5201 65.0959 79.2553 65.5351 79.1594 66.0036C78.4379 66.3624 77.6653 66.6211 76.8492 66.7891C75.8427 66.997 75.2612 68.1854 75.5206 69.13C76.2516 71.4256 78.8275 70.1135 80.5008 69.9514C80.5512 71.5545 80.5773 73.2249 81.3049 74.7099C77.4159 75.7308 74.0469 79.4537 74.9461 83.6483C75.7628 87.6581 80.0894 88.8834 83.5142 89.7947C83.7737 89.9475 83.7729 90.0976 83.8553 90.4762C84.4204 93.0756 83.9446 95.9354 83.0537 98.4033C82.8109 99.076 83.1677 99.9179 83.7072 100.321C86.4962 102.098 87.4209 96.6876 90.6003 100.131C90.3631 100.096 89.7728 99.8004 89.803 100.228C93.9279 107.47 106.107 107.915 113.569 108.093C114.465 108.529 115.496 108.282 116.52 108.003C117.497 107.95 118.473 107.877 119.447 107.778C121.225 107.457 124.352 107.837 124.464 105.332C129.055 103.52 133.003 100.39 135.695 96.2422C137.693 93.4899 138.481 90.5767 137.75 87.2212Z" fill="white"/>
<path fill-rule="evenodd" clip-rule="evenodd" d="M109.905 29.4608L110.173 29.3437C111.097 28.9434 112.106 28.5594 113.118 28.7783C114.283 29.0304 114.957 30.033 115.245 31.1261C115.579 32.3905 115.728 33.7364 115.82 35.0378C115.915 36.3857 115.878 37.7306 115.777 39.0764C115.692 40.2018 115.517 41.5061 115.098 42.597C115.116 42.581 115.137 42.5692 115.163 42.5665C116.811 42.3975 118.33 42.496 119.904 43.027C121.37 43.5217 122.791 44.2158 124.067 45.0927C126.823 46.9866 128.956 49.8469 130.442 52.8082C133.46 58.8244 134.096 65.6302 134.942 72.2094L134.968 72.4087C135.423 75.9268 136.027 79.3918 136.997 82.8044L137.165 83.3862C138.055 86.5083 138.586 89.5455 137.876 92.7778C136.504 99.028 131.666 103.746 126.069 106.469C123.211 107.86 120.12 108.885 116.997 109.477C113.794 110.084 110.327 110.185 107.407 108.528C105.959 107.706 107.234 105.607 108.697 106.319C111.717 107.79 115.139 107.306 118.274 106.497C121.392 105.693 124.449 104.567 127.212 102.895C131.953 100.025 135.942 95.0713 136.073 89.3181C136.146 86.0809 134.763 82.9897 134.097 79.8643C133.509 77.1101 133.144 74.3156 132.8 71.5214L132.545 69.4459C131.805 63.4936 130.878 57.3659 127.822 52.1052C125.125 47.4615 120.479 43.769 115.133 42.7868C115.101 42.781 115.08 42.7656 115.067 42.746C114.903 43.627 113.933 44.4486 113.312 44.9555C112.431 45.6744 111.365 46.1952 110.205 46.1719C107.969 46.1271 106.048 44.3919 104.515 42.9388C104.342 42.7751 104.53 42.5467 104.726 42.5764C106.505 42.8442 108.031 44.2903 109.854 44.2688C110.793 44.2576 111.512 43.7538 112.125 43.084C112.354 42.8335 112.555 42.5312 112.773 42.2533C112.826 41.5233 113.033 40.8076 113.126 40.0809C113.212 39.4029 113.286 38.7146 113.33 38.0315C113.419 36.6375 113.391 35.2332 113.237 33.8446C113.17 33.2485 113.087 32.6469 112.957 32.0599L112.896 31.7954C112.815 31.4317 112.762 31.1004 112.323 31.1377C111.346 31.2204 110.254 31.8165 109.4 32.2664C106.088 34.0111 103.681 36.7089 101.903 39.8782C102.015 39.934 102.122 40.0075 102.221 40.1032C102.422 40.2958 102.525 40.6349 102.433 40.9034C102.078 41.941 100.817 41.9713 99.9292 42.3776C98.9623 42.8201 98.054 43.389 97.1939 44.0121C95.5008 45.2385 93.9453 46.6794 92.4662 48.1532C90.1367 50.474 87.9735 52.944 85.8844 55.478L85.4399 56.4714C84.9961 57.4647 84.5621 58.4613 84.2029 59.4959C83.6184 61.1782 83.1287 62.8981 82.7522 64.639C82.3733 66.3912 82.1263 68.1836 82.0327 69.974C81.9492 71.5715 82.1611 73.1679 82.1522 74.7561C82.2941 75.0217 82.3454 75.3212 82.2786 75.6263C82.7254 75.7528 83.1582 75.9457 83.5646 76.2118C83.6637 76.2769 83.6008 76.4319 83.484 76.4032C82.9686 76.2762 82.4531 76.248 81.9482 76.2971C81.6803 76.6277 81.2466 76.8381 80.8258 76.8288L80.6463 76.8248C80.5147 76.822 80.3843 76.8009 80.2583 76.765C79.5481 77.0925 78.8946 77.5639 78.3415 78.1272C77.0114 79.4819 76.3691 81.2566 76.4635 83.1526C76.557 85.0227 77.5526 86.7096 79.2017 87.6078C79.9373 88.0084 80.7547 88.2193 81.5909 88.2348C82.3953 88.2493 83.4511 88.0047 84.1121 88.5291C84.1864 88.5881 84.2353 88.6666 84.2655 88.7534C84.3115 88.5586 84.3605 88.3643 84.4139 88.1708C84.4547 88.0229 84.7008 88.0057 84.7309 88.1708L84.7697 88.3861C85.3235 91.5096 85.5183 94.7253 87.7187 97.2252C88.7478 98.3945 89.9885 99.4491 91.2613 100.344L91.4719 100.491C92.0157 100.867 92.6032 101.232 93.2515 101.368C93.9719 101.519 94.5675 101.477 95.23 101.873C95.5415 102.06 95.7327 102.471 95.618 102.828C94.8831 105.117 91.9865 104.089 90.5264 103.183C89.7144 102.68 88.9243 102.072 88.1902 101.402C87.55 101.792 86.7897 102.044 86.1364 102.142C85.1288 102.293 84.059 102.083 83.2558 101.432C82.406 100.744 82.1153 99.7417 82.2596 98.6782C82.3314 98.149 82.4687 97.6327 82.6166 97.1201L82.7388 96.7015C82.9171 96.0918 83.0564 95.4624 83.4159 94.9301C83.5973 94.6616 84.028 94.687 84.1213 95.0225C84.3348 95.7902 84.2424 96.6569 84.1871 97.4567L84.1752 97.64C84.139 98.2415 83.8828 99.1642 84.4099 99.6099C85.0449 100.147 85.7398 99.9016 86.4159 99.5318C86.347 99.4477 86.2789 99.3632 86.2121 99.2785C84.0244 96.4966 83.4803 93.0336 84.0795 89.6487C83.5149 90.3897 82.0431 90.55 81.2621 90.4924C80.0359 90.4021 78.8292 90.0291 77.7848 89.3735C75.5972 88.0006 74.3668 85.5929 74.3145 83.0317C74.2635 80.5447 75.3757 78.0294 77.4267 76.5813C77.9685 76.1987 78.5712 75.9014 79.2005 75.7058C78.8946 74.4908 78.8622 73.1486 78.9286 71.8352C78.1949 71.9351 77.4007 71.8054 76.7373 71.5795L76.6344 71.5435C75.612 71.1772 74.3136 70.4409 74.1222 69.2917C73.8865 67.8783 75.63 67.066 76.6416 66.5014C77.1148 66.2375 77.5986 65.9906 78.1009 65.7868L78.2522 65.7269C78.6857 65.5601 79.1961 65.2488 79.6363 65.4967C79.6677 65.5145 79.6753 65.5481 79.6707 65.5811C79.5836 66.1945 78.5787 66.7165 78.1319 67.1033C77.7888 67.4002 77.4571 67.711 77.1388 68.0346C76.9325 68.2446 76.6222 68.775 76.3575 68.9238C76.4804 68.9881 76.6278 69.1464 76.7305 69.2072C77.0197 69.3777 77.3248 69.498 77.6512 69.5758C78.1364 69.692 78.6224 69.6422 79.1083 69.6312C79.3055 67.6968 79.6637 65.8046 80.2403 63.9463C81.2074 60.8285 82.7925 57.5441 85.054 55.0792C86.7122 51.9713 88.8538 49.1326 91.2999 46.594C92.8688 44.9661 94.526 43.3864 96.3641 42.0637C97.179 41.4773 98.036 40.949 98.9457 40.5233L99.248 40.3846C99.7529 40.1508 100.367 39.8474 100.953 39.7606C101.332 38.2566 102.007 36.8181 102.826 35.5143C103.954 33.7179 105.439 32.2027 107.177 30.9921C108.034 30.3945 108.948 29.8807 109.905 29.4608ZM79.7612 81.8448C81.2191 80.8652 83.0071 80.4818 84.7493 80.6265C85.6136 80.6982 86.4684 80.9009 87.2784 81.2108L87.6122 81.3427C88.3858 81.6528 89.2161 82.0355 89.2438 82.9715C89.2548 83.3412 88.9813 83.6355 88.6512 83.7503C87.8461 84.0303 87.1938 83.3598 86.529 83.0031C85.8579 82.6426 85.1445 82.4049 84.4095 82.2123C84.339 82.1938 84.2684 82.1771 84.1979 82.1603C84.2362 82.2371 84.2579 82.3219 84.2504 82.4133C84.2322 82.6322 84.1686 82.7949 84.1067 83.0001C84.0881 83.0623 84.0426 83.4421 83.9961 83.489C84.0112 83.6182 84.0128 83.7404 84.0168 83.8706C84.0279 84.2549 83.9806 84.5796 83.7845 84.9198C83.2959 85.7674 81.8992 85.8456 81.4315 84.9198C80.9638 83.9943 81.3293 83.0885 82.04 82.4229C82.2337 82.2417 82.4921 82.0571 82.7727 81.9298C81.7873 81.8399 80.7908 81.8824 79.8063 82.012C79.7103 82.0247 79.6957 81.889 79.7612 81.8448ZM79.8485 50.7937C81.8481 50.4536 83.9363 50.3858 85.9544 50.587C86.0645 50.5981 86.1056 50.7656 85.9823 50.7926C82.9136 51.4666 79.7324 51.6944 76.9945 53.3828L76.8684 53.4618C76.6056 53.629 75.9804 53.9447 75.8503 54.242C75.6967 54.593 76.1126 55.0441 76.306 55.2975C76.7408 55.8663 77.2811 56.3629 77.8774 56.7581C78.5075 57.1754 79.1848 57.4975 79.9134 57.7009C80.2594 57.7976 80.6184 57.8467 80.9604 57.9568C81.3498 58.0818 81.4754 58.2814 81.7704 58.5422C82.1104 58.8424 81.9962 59.4187 81.6296 59.6342L81.5267 59.694C81.045 59.9698 80.7772 60.0511 80.1653 59.9432C79.6867 59.8586 79.2295 59.6913 78.7814 59.5053C77.9582 59.1633 77.2068 58.7155 76.5135 58.158L76.41 58.0735C75.1719 57.0497 73.0743 54.8103 74.456 53.1799C75.6755 51.7413 78.072 51.0959 79.8485 50.7937ZM84.7731 35.2822C86.6909 33.022 89.3995 34.5653 91.3212 35.9166C93.3924 37.3728 95.1895 39.0904 96.6425 41.1657C96.7348 41.2976 96.5562 41.4581 96.4277 41.3805C94.8167 40.4089 93.1888 39.4787 91.5363 38.5782C90.8578 38.2084 90.1785 37.8475 89.4843 37.5096L89.1132 37.331C88.5333 37.0447 87.7008 36.5222 87.0824 36.8629C85.749 37.5981 86.572 40.0063 86.8467 41.1726L86.8717 41.2826L87.7096 45.1207L88.0914 46.8486C88.2271 46.9587 88.34 47.1059 88.4199 47.2958C88.6361 47.809 88.4596 48.5023 87.9366 48.7715C86.3929 49.5663 85.8702 48.0141 85.5795 46.8477C85.3433 45.9001 85.1046 44.9531 84.8654 44.0062L84.4698 42.4415C83.8637 40.0728 83.0034 37.3677 84.7731 35.2822Z" fill="black"/>
<path fill-rule="evenodd" clip-rule="evenodd" d="M117.149 96.8204C116.077 96.383 115.121 95.6532 114.421 94.721C114.178 94.397 114.115 94.0547 114.166 93.7417C114.224 93.3898 114.432 93.0708 114.716 92.8569C115 92.6423 115.356 92.5364 115.701 92.5904C116 92.6373 116.298 92.8011 116.533 93.141L116.583 93.209C116.998 93.7716 117.54 94.2333 118.157 94.5308C118.752 94.8176 119.418 94.9515 120.106 94.8736C121.418 94.7254 122.321 94.0159 123.282 93.0525C123.401 92.9308 123.52 92.8054 123.64 92.6779C123.716 92.5623 123.821 92.4881 123.937 92.4491C124.066 92.4058 124.213 92.4083 124.347 92.4551C124.476 92.5002 124.592 92.5857 124.669 92.6996C124.743 92.8077 124.785 92.9414 124.771 93.0951C124.683 94.0936 124.161 94.9847 123.42 95.6844C122.597 96.4616 121.506 96.9992 120.478 97.1877C119.347 97.3954 118.193 97.2466 117.149 96.8204ZM121.012 81.4168C122.216 82.1491 124.051 83.8565 122.756 85.6718C121.231 87.2724 119.036 85.4372 117.954 84.6072C116.951 83.964 115.824 85.6183 116.754 86.3694C124.572 92.1595 127.744 81.6083 121.621 80.5559C120.947 80.44 120.697 81.1903 121.012 81.4168ZM107.004 74.6815C107.137 73.0294 109.652 72.6542 109.902 74.2891C110.126 75.7535 109.862 77.0988 109.203 78.4173C108.573 79.6769 106.989 79.0892 106.87 77.9422C106.709 76.4047 106.921 75.7092 107.004 74.6815ZM126.149 73.9498C126.499 73.4904 127.006 73.1768 127.612 73.354C129.507 73.908 128.949 76.5997 128.283 77.9099C127.922 78.6214 126.753 78.8018 126.224 78.1754C125.363 77.1538 124.951 75.1136 126.046 74.1073C126.075 74.0553 126.108 74.0028 126.149 73.9498ZM109.176 67.4522L109.476 67.3998C110.402 67.2395 111.553 67.0856 112.208 67.8304C112.556 68.2254 112.675 68.9595 112.208 69.3376C111.387 70.0028 110.479 69.745 109.494 69.8014C108.683 69.8479 107.903 69.9823 107.121 70.2058C105.407 70.696 104.01 71.5909 102.546 72.5736C102.354 72.7025 102.157 72.4567 102.249 72.2769C103.094 70.6205 104.732 69.2599 106.373 68.4306C107.249 67.9879 108.207 67.6206 109.176 67.4522ZM124.421 66.7103L124.65 66.7572C127.144 67.2786 130.383 68.3202 131.564 70.7705C131.609 71.1169 131.562 71.1912 131.523 71.2397L131.51 71.2558C131.478 71.2973 131.453 71.3544 131.303 71.4015C131.261 71.3916 131.219 71.3811 131.177 71.3699C130.635 71.228 130.207 71.0326 129.792 70.8297L129.343 70.6082C128.821 70.3523 128.295 70.1058 127.738 69.9239C126.548 69.5356 125.324 69.2621 124.081 69.116C123.812 69.0844 123.552 68.9934 123.348 68.8375C123.153 68.6896 123.005 68.4847 122.937 68.2124C122.85 67.86 122.875 67.5932 123.064 67.2753C123.206 67.0365 123.409 66.871 123.643 66.776C123.881 66.6791 124.152 66.6563 124.421 66.7103Z" fill="black"/>
<path fill-rule="evenodd" clip-rule="evenodd" d="M134.45 79.0342C133.999 80.262 133.313 81.5401 132.474 82.5733C129.078 85.4499 125.779 83.8572 124.104 79.9585C123.467 77.2034 125.157 74.2355 126.948 72.2088C129.534 69.6154 133.755 70.9764 134.945 74.0594C135.017 74.4589 135.061 74.8574 135.081 75.2546C135.057 76.5453 134.901 77.6484 134.45 78.8747M101.813 76.5584C106.286 71.2355 114.654 70.9509 114.44 79.1433C113.48 89.5131 97.2992 86.9679 101.813 76.5584ZM135.857 72.1178C135.7 71.8522 135.526 71.5952 135.336 71.3494C135.266 71.3076 135.226 70.9368 134.968 70.9094C131.519 67.1033 125.461 69.2628 123.272 73.0553C122.872 73.5349 122.546 74.0962 122.306 74.6894C120.149 74.2936 117.635 74.3705 115.629 75.1855C113.639 69.9894 107.618 69.5255 103.649 71.7456C101.181 72.9601 99.5805 75.5034 97.18 76.9005C91.537 77.3069 85.4806 76.042 79.9395 77.4581C75.5694 78.3671 79.2226 80.5808 79.9554 79.1034C85.1797 77.5592 91.369 78.8642 96.7933 78.5162C97.3573 79.4707 98.4389 80.2517 99.5168 80.2184C100.681 90.543 115.731 88.831 116.25 79.653C116.839 78.7215 117.572 77.8301 118.62 77.2497C119.021 77.1666 119.409 77.0586 119.763 76.8915C120.369 76.8059 121.302 77.0628 121.859 77.5672C123.768 89.0237 134.763 87.6894 136.728 77.653C136.767 77.6131 136.876 77.4635 136.96 77.2234C137.633 76.3338 139.279 76.0031 139.016 74.5011C138.782 72.9989 136.886 73.0167 135.857 72.1178Z" fill="black"/>
</svg>
