<svg width="232" height="331" viewBox="0 0 232 331" fill="none" xmlns="http://www.w3.org/2000/svg">
<g clip-path="url(#clip0)">
<path fill-rule="evenodd" clip-rule="evenodd" d="M234.794 339.416C225.826 339.444 217.111 339.751 208.118 339.781C171.558 339.903 134.663 339.725 97.9706 338.243C87.6001 337.824 85.0114 337.834 74.6857 337.184C68.5889 337.162 50.2753 336.658 51.1921 328.351C51.5969 312.88 55.4262 297.474 56.6322 282.044C58.947 253.038 60.9182 223.125 72.5416 195.995C75.2321 189.516 81.0104 185.279 86.7303 181.469C92.4666 177.359 93.8744 172.796 99.1686 168.153C100.288 167.171 106.645 166.771 110.065 164.281C115.044 160.656 117.512 154.722 119.37 153.711C120.736 152.968 120.711 147.84 123.451 146.025C127.127 143.589 138.841 141.778 143.103 141.439C147.193 141.114 154.308 141.797 158.146 143.296C164.547 145.794 167.099 150.561 169.918 156.701C207.157 168.214 241.194 187.709 251.764 227.032C260.88 260.012 261.214 295.369 257.693 329.194C256.988 331.667 257.482 335.544 255.345 337.184C262.771 337.61 235.802 339.142 234.794 339.416Z" fill="white"/>
<path fill-rule="evenodd" clip-rule="evenodd" d="M65.4175 306.852C66.1222 306.5 66.8568 306.098 67.6615 306.07C69.0436 306.021 69.0455 303.87 67.6615 303.919C66.4544 303.961 65.3944 304.464 64.3321 304.995C63.0928 305.614 64.183 307.468 65.4175 306.852ZM67.6622 246.307C66.719 246.308 65.7684 246.427 65.044 247.087C64.6134 247.48 64.6475 248.211 65.044 248.608C65.4684 249.032 66.1355 248.999 66.5648 248.608C66.4247 248.735 66.5634 248.609 66.6142 248.581C66.6263 248.574 66.633 248.57 66.6362 248.567C66.647 248.564 66.6577 248.562 66.6752 248.557C66.7876 248.529 66.8986 248.501 67.0123 248.481C67.0141 248.486 67.2523 248.465 67.3082 248.463C67.4265 248.459 67.5442 248.458 67.6622 248.458C68.2454 248.458 68.7373 247.966 68.7373 247.383C68.7373 246.802 68.2433 246.307 67.6622 246.307ZM77.7717 270.434C78.0797 271.785 80.1523 271.21 79.8451 269.862C79.3984 267.903 79.4798 265.896 79.8451 263.93C80.0967 262.575 78.0241 261.999 77.7717 263.358C77.3336 265.717 77.2355 268.083 77.7717 270.434ZM80.488 193.132C82.0894 192.752 83.6733 192.707 85.3113 192.706C86.6971 192.706 86.6949 190.555 85.3113 190.555C83.4844 190.556 81.701 190.634 79.9163 191.058C78.5687 191.378 79.1428 193.452 80.488 193.132ZM85.8546 245.524C86.7833 245.06 87.7124 244.595 88.6411 244.131C89.8807 243.511 88.7903 241.656 87.556 242.273L84.7693 243.667C83.5302 244.287 84.6204 246.142 85.8546 245.524ZM86.2408 287.882C87.4189 289.581 89.0754 290.636 91.0633 291.164C92.4045 291.519 92.9717 289.444 91.635 289.09C90.2134 288.713 88.9504 288.026 88.0976 286.796C87.3136 285.665 85.4504 286.742 86.2408 287.882ZM93.6701 212.151C93.9889 211.556 94.4686 211.304 95.0643 211.29C96.448 211.259 96.4482 209.108 95.0643 209.14C93.7069 209.17 92.4622 209.852 91.8136 211.066C91.1608 212.287 93.0178 213.373 93.6701 212.151ZM107.309 226.772C107.695 227.192 108.442 227.182 108.83 226.772C109.067 226.522 109.266 226.242 109.423 225.935C109.483 225.819 109.539 225.7 109.605 225.587C109.634 225.537 109.667 225.487 109.7 225.438C109.711 225.428 109.735 225.404 109.759 225.379C110.172 224.942 110.161 224.297 109.759 223.858C109.373 223.438 108.626 223.448 108.238 223.858C108.001 224.108 107.801 224.388 107.645 224.695C107.585 224.811 107.529 224.93 107.463 225.043C107.434 225.094 107.401 225.143 107.368 225.192C107.356 225.202 107.333 225.226 107.309 225.251C106.896 225.688 106.906 226.333 107.309 226.772ZM108.456 258.534C109.856 259.175 111.392 259.175 112.792 258.534C113.322 258.291 113.448 257.525 113.178 257.062C112.864 256.526 112.234 256.435 111.707 256.676C111.072 256.967 110.175 256.967 109.541 256.676C109.011 256.434 108.387 256.52 108.07 257.062C107.798 257.528 107.927 258.292 108.456 258.534ZM112.276 281.014C112.517 281.584 113.036 281.887 113.644 281.91C114.245 281.933 114.694 281.399 114.719 280.835C114.735 280.47 114.538 280.158 114.255 279.965C114.255 279.945 114.254 279.926 114.254 279.905C114.254 279.303 113.762 278.856 113.179 278.83C112.599 278.804 112.104 279.343 112.104 279.905C112.104 280.285 112.127 280.662 112.276 281.014ZM117.823 316.756C119.539 316.783 121.216 317.192 122.932 317.22C124.318 317.242 124.314 315.091 122.932 315.069C121.216 315.041 119.539 314.632 117.823 314.605C116.436 314.582 116.441 316.733 117.823 316.756ZM124.958 178.918C125.963 179.875 127.204 180.346 128.427 180.944C129.667 181.55 130.756 179.695 129.512 179.087C128.476 178.58 127.329 178.206 126.479 177.397C125.476 176.442 123.954 177.961 124.958 178.918ZM127.655 203.71C128.359 203.358 129.094 202.956 129.898 202.928C131.281 202.879 131.283 200.728 129.898 200.777C128.692 200.819 127.632 201.322 126.569 201.853C125.329 202.472 126.42 204.326 127.655 203.71ZM140.581 303.213C140.899 302.617 141.379 302.366 141.974 302.352C143.358 302.321 143.359 300.17 141.974 300.201C140.617 300.232 139.372 300.914 138.724 302.128C138.071 303.349 139.928 304.435 140.581 303.213ZM145.057 256.506C145.485 256.113 145.455 255.383 145.057 254.985C144.592 254.521 144.128 254.056 143.663 253.591C143.239 253.166 142.572 253.197 142.143 253.591C141.715 253.984 141.745 254.714 142.143 255.112C142.608 255.577 143.072 256.041 143.536 256.506C143.962 256.931 144.628 256.9 145.057 256.506ZM150.335 329.3C151.886 329.264 153.34 328.818 154.801 328.332C156.109 327.897 155.545 325.82 154.229 326.258C152.96 326.681 151.685 327.117 150.335 327.149C148.951 327.181 148.95 329.332 150.335 329.3ZM157.301 283.304C158.703 283.265 159.865 282.552 160.848 281.595C161.842 280.629 160.32 279.109 159.327 280.075C158.765 280.622 158.116 281.131 157.301 281.153C155.918 281.192 155.917 283.343 157.301 283.304ZM152.976 224.153C152.959 224.726 152.717 225.34 152.362 225.716C151.411 226.723 152.93 228.245 153.882 227.237C154.667 226.405 155.093 225.292 155.126 224.153C155.166 222.766 153.015 222.772 152.976 224.153ZM169.376 177.307C169.826 176.425 170.416 175.392 171.313 174.905C172.531 174.244 171.444 172.387 170.227 173.048C169.008 173.71 168.136 175.014 167.519 176.221C166.89 177.453 168.747 178.54 169.376 177.307ZM172.163 199.676C172.662 199.661 173.157 199.576 173.638 199.445C173.844 199.39 174.047 199.325 174.253 199.269C174.341 199.245 174.715 199.199 174.485 199.211C175.067 199.18 175.56 198.744 175.56 198.136C175.56 197.577 175.066 197.029 174.485 197.06C173.687 197.103 172.962 197.502 172.163 197.525C170.78 197.564 170.779 199.715 172.163 199.676ZM179.131 234.056H181.453C182.839 234.056 182.836 231.905 181.453 231.905H179.131C177.745 231.905 177.747 234.056 179.131 234.056ZM181.84 329.152C182.544 329.505 183.374 329.839 183.945 330.378C184.95 331.329 186.473 329.81 185.465 328.857C184.739 328.17 183.81 327.738 182.925 327.295C182.404 327.035 181.763 327.152 181.454 327.681C181.175 328.159 181.321 328.893 181.84 329.152ZM187.027 301.976C187.117 301.951 187.212 301.933 187.303 301.921C187.669 301.871 188.051 301.889 188.419 301.888C189.804 301.888 189.802 299.737 188.419 299.737C187.328 299.738 186.193 299.753 185.336 300.517C184.901 300.905 184.943 301.645 185.336 302.038C185.763 302.465 186.423 302.424 186.856 302.038C186.811 302.079 186.967 301.992 187.027 301.976ZM188.419 265.424C188.107 264.78 188.102 264.36 188.101 263.644C188.1 262.258 185.95 262.26 185.951 263.644C185.952 264.684 186.106 265.569 186.562 266.51C186.817 267.035 187.562 267.172 188.033 266.896C188.562 266.587 188.672 265.947 188.419 265.424ZM194.637 214.968C195.884 215.393 196.997 215.993 198.096 216.718C199.255 217.484 200.331 215.62 199.181 214.861C197.928 214.034 196.631 213.378 195.209 212.894C193.893 212.447 193.334 214.525 194.637 214.968ZM201.889 178.768C202.815 178.793 203.772 179.149 204.597 179.55C205.838 180.153 206.927 178.297 205.682 177.693C204.503 177.12 203.213 176.654 201.889 176.617C200.502 176.578 200.508 178.729 201.889 178.768ZM205.14 275.406C205.505 275.422 205.816 275.225 206.009 274.942C206.03 274.942 206.049 274.941 206.069 274.941C206.672 274.941 207.118 274.448 207.144 273.865C207.171 273.285 206.632 272.79 206.069 272.79C205.69 272.79 205.313 272.813 204.961 272.962C204.391 273.203 204.088 273.722 204.065 274.33C204.042 274.932 204.576 275.38 205.14 275.406ZM210.427 201.03C211.747 201.462 212.308 199.384 210.998 198.956C209.461 198.454 207.891 198.065 206.354 197.562C205.033 197.131 204.472 199.208 205.782 199.636C207.319 200.139 208.89 200.528 210.427 201.03ZM215.249 241.629C215.658 242.949 217.733 242.382 217.322 241.057C216.926 239.778 216.897 238.49 216.896 237.161C216.896 235.775 214.745 235.778 214.746 237.161C214.747 238.674 214.798 240.173 215.249 241.629ZM229.627 290.256C229.705 290.792 230.129 291.177 230.685 291.202C231.251 291.228 231.781 290.69 231.76 290.127C231.721 289.044 230.838 288.162 229.756 288.122C229.154 288.1 228.706 288.633 228.681 289.198C228.656 289.747 229.115 290.176 229.627 290.256ZM236.901 228.442C238.037 228.821 239.252 229.182 240.142 230.024C241.149 230.974 242.671 229.455 241.663 228.503C240.488 227.394 238.977 226.87 237.473 226.368C236.155 225.928 235.595 228.006 236.901 228.442ZM241.832 270.227C242.145 270.761 242.777 270.857 243.303 270.612C244.008 270.284 244.787 270.295 245.547 270.295C246.933 270.294 246.931 268.143 245.547 268.144C244.374 268.145 243.292 268.255 242.218 268.755C241.689 269.001 241.56 269.761 241.832 270.227ZM244.618 320.937C245.22 320.959 245.667 320.426 245.693 319.861C245.717 319.312 245.259 318.883 244.747 318.803C244.669 318.267 244.244 317.881 243.689 317.856C243.123 317.831 242.593 318.369 242.614 318.932C242.653 320.015 243.535 320.897 244.618 320.937ZM48.7244 329.07C49.0897 327.755 49.9256 326.693 50.5572 325.51C50.769 325.111 50.8427 324.863 50.9574 324.571C51.1133 324.883 51.416 325.118 51.871 325.118C52.744 325.118 53.7651 325.062 54.5798 325.436C55.1096 325.679 55.7337 325.593 56.0506 325.05C56.3228 324.584 56.1927 323.821 55.6649 323.579C54.4642 323.028 53.1735 322.968 51.871 322.967C51.5493 322.967 51.3058 323.086 51.1338 323.264C50.636 316.445 50.6483 309.622 51.1192 302.798C51.6216 295.507 52.7776 288.36 53.9871 281.163C54.5728 277.673 55.3335 274.148 55.1856 270.593C55.0378 267.063 53.5246 263.772 54.597 260.231C55.0271 258.811 55.7635 257.51 56.2419 256.107C56.7553 254.596 56.7096 253.103 56.4758 251.539C55.9947 248.352 55.1966 245.204 56.4734 242.093C57.0375 240.714 57.9517 239.482 58.3922 238.057C58.9405 236.286 58.8652 234.326 58.9566 232.489C59.1421 228.784 59.1905 225.055 59.4971 221.358C59.634 219.702 59.9323 218.132 60.6123 216.613C61.2657 215.15 62.2357 213.819 62.6685 212.268C63.0985 210.74 63.1362 209.13 63.3673 207.568C63.6092 205.917 63.9882 204.29 64.4989 202.704C66.4717 196.563 70.0868 191.046 74.3578 186.263C78.8975 181.178 84.3242 177.35 90.0841 173.782C93.113 171.906 96.1416 170.029 99.1684 168.153C99.2329 168.505 99.4573 168.829 99.8882 168.973C101.025 169.352 102.238 169.713 103.129 170.554C104.136 171.505 105.658 169.986 104.65 169.034C103.598 168.04 102.276 167.517 100.93 167.058C102.309 166.188 103.703 165.288 105.26 164.785C106.622 164.344 108.633 164.729 109.738 163.729C110.606 162.941 110.88 161.481 111.213 160.411C111.63 159.083 111.99 157.682 112.519 156.391C112.879 155.509 113.404 154.662 114.065 153.98C114.355 152.861 114.887 151.839 115.828 151.218C118.29 149.589 121.314 151.208 122.397 153.531C123.292 153.528 124.235 153.724 125.106 153.778C126.896 153.891 128.689 153.942 130.482 153.937C133.989 153.926 137.5 153.697 140.978 153.232C147.197 152.399 153.231 150.718 159.346 149.409C159.381 149.328 159.422 149.247 159.47 149.167C160.787 146.957 164.069 147.33 166.136 148.167C167.023 148.524 167.926 148.976 168.434 149.815C168.971 150.178 169.436 150.619 169.745 151.084C170.385 152.044 170.88 153.98 172.178 154.141C173.033 154.246 173.901 154.082 174.769 154.205C175.855 154.356 176.828 154.738 177.83 155.173C185.464 158.488 193.355 162.175 201.639 163.46C203.582 163.761 205.56 164.073 207.248 165.162C208.619 166.046 209.678 167.262 210.81 168.415C211.912 169.539 212.82 170.036 214.393 170.238C216.301 170.483 217.954 171.01 219.349 172.397C220.507 173.55 221.263 175.024 222.171 176.363C223.096 177.729 224.453 178.498 225.861 179.291C229.192 181.168 232.293 183.434 234.995 186.152C240.685 191.885 244.13 199.252 247.603 206.43C251.358 214.195 254.868 222.054 257.303 230.346C259.69 238.488 261.109 246.863 261.765 255.316C262.456 264.186 262.553 273.091 263.128 281.966C263.415 286.4 263.633 290.839 263.854 295.275C264.069 299.658 264.383 304.049 264.332 308.437C264.235 316.919 262.54 325.429 259.575 333.371C258.835 335.348 258.016 337.297 257.142 339.217C256.376 340.902 253.756 340.714 252.933 339.217C252.745 338.872 252.597 338.518 252.473 338.157C250.323 338.176 248.151 338.009 246.015 338.208C242.241 338.561 238.459 338.757 234.675 338.991C227.187 339.456 219.685 339.765 212.194 340.193C211.467 340.234 210.74 340.276 210.014 340.319C215.352 323.791 214.66 305.922 215.505 288.733C215.573 287.347 213.422 287.355 213.354 288.733C212.506 305.996 213.228 323.91 207.701 340.465C205.557 340.61 203.416 340.788 201.281 341.048C199.556 341.255 197.822 341.499 196.081 341.413C194.105 341.319 192.175 340.867 190.248 340.475C186.746 339.762 183.373 340.085 179.857 340.523C176.097 340.994 172.323 341.255 168.539 341.419C153.385 342.083 138.129 342.688 122.98 341.674C119.314 341.429 115.656 341.085 112.014 340.617C108.262 340.136 104.55 339.327 100.801 338.867C97.105 338.415 93.7073 339.655 90.0546 339.883C86.3295 340.117 82.5045 339.34 78.8141 338.894C77.6103 338.748 76.4051 338.606 75.1996 338.465C76.7515 327.825 77.6339 317.104 78.4911 306.388C78.6015 305.006 76.4505 305.017 76.3408 306.388C75.4907 317.02 74.6279 327.661 73.0784 338.218C66.6881 337.474 60.2917 336.722 53.968 335.563C52.1672 335.235 50.3772 334.7 49.2993 333.092C48.5013 331.901 48.3398 330.441 48.7244 329.07Z" fill="black"/>
<path fill-rule="evenodd" clip-rule="evenodd" d="M97.0146 103.418C97.5932 98.3319 96.8444 87.7019 96.7942 87.0561C96.477 82.9733 98.3894 66.8512 102.005 68.3367C108.069 63.5344 116.146 62.474 123.699 61.9674C139.387 60.9151 156.076 63.3309 168.19 73.892C174.181 79.3767 180.013 87.3537 179.544 95.6596C184.987 103.533 192.661 114.332 185.879 123.536C183.574 126.477 179.91 127.572 177.014 129.799C171.189 134.499 167.535 141.244 161.654 145.916C146.076 159.919 119.623 162.845 104.317 146.917C92.4814 135.381 94.3952 118.124 96.477 103.418C97.8767 93.5306 95.8858 113.339 97.0146 103.418Z" fill="white"/>
<path fill-rule="evenodd" clip-rule="evenodd" d="M144.656 40.4011C140.46 39.5542 136.152 39.0272 131.867 39.1858L131.537 39.1987C128.313 39.3276 124.23 39.6127 121.418 41.4879C121.256 41.3255 120.996 41.2421 120.76 41.3548C117.418 42.9505 113.742 44.1042 110.223 45.2507C106.72 46.3915 103.086 47.1446 99.4152 47.4482C98.0339 47.5624 96.8518 49.0544 97.7264 50.3925C97.9344 50.7114 98.1371 51.0335 98.339 51.3564C98.0014 51.3212 97.6638 51.2849 97.3262 51.2508C96.2153 51.1389 95.1055 52.3249 95.1714 53.4068C95.2125 54.0873 95.2859 54.7598 95.3945 55.4242C94.9714 55.4153 94.5508 55.4787 94.1444 55.6505C92.0866 56.5198 92.2298 58.9716 92.3839 60.837C92.5973 63.4257 93.5651 66.1676 95.3622 68.1051C94.0205 69.4992 93.0706 71.164 92.504 73.1413C92.093 74.5851 91.8643 76.123 91.9772 77.626L92.0132 78.076C92.1528 79.707 92.4303 81.5127 93.6033 82.6861C94.2054 83.291 94.9472 83.5115 95.6544 83.4416C95.2267 87.2004 94.9526 90.9807 94.6946 94.7475L94.5736 96.5479C93.998 105.254 93.5654 114.016 93.6786 122.737C93.7837 130.886 95.3934 138.796 100.39 145.413C104.941 151.438 111.475 155.88 118.866 157.569C122.849 158.48 126.916 158.545 130.948 157.964C132.902 157.682 134.869 157.249 136.724 156.566C138.777 155.808 140.253 154.692 141.634 153.019C142.288 152.226 141.973 150.538 140.672 150.696C138.704 150.935 136.908 151.223 135.021 151.805L134.751 151.89C132.872 152.492 130.926 152.941 128.962 153.132C124.938 153.522 120.853 153.13 116.998 151.909C110.722 149.919 105.317 145.486 101.852 139.915C97.7399 133.311 97.2749 125.815 97.3343 118.222C97.3979 109.891 97.6688 101.554 98.111 93.2308L98.1863 91.8438C98.4201 87.5607 98.6459 83.2749 98.8445 78.9891C98.9064 77.6448 99.0004 76.2897 99.17 74.948C100.721 74.0393 102.11 72.7863 103.016 71.2403C104.836 71.9932 106.749 72.5363 108.51 72.9692C112.589 73.9726 116.823 74.2162 120.974 73.5878C122.094 74.0506 123.236 74.4574 124.396 74.8074C124.709 74.9464 125.022 75.083 125.336 75.2169C128.131 76.4134 130.967 77.427 133.918 78.1691L134.643 78.3499C136.196 78.7329 137.883 79.11 139.535 79.2284C139.807 79.3333 140.1 79.422 140.42 79.5C141.925 79.8657 143.487 79.9813 145.029 79.8522C146.532 79.7258 147.618 78.2067 146.79 76.7844C146.185 75.7466 145.575 74.7114 144.959 73.679C147.101 74.5716 149.314 75.3137 151.544 75.9429C153.797 76.5774 156.081 77.1124 158.369 77.6045C159.592 77.8653 160.82 78.0965 162.04 78.3573C162.914 78.5428 164.255 78.6396 164.968 79.215C165.755 79.8468 165.978 81.3202 166.277 82.229C166.669 83.4093 167.037 84.5951 167.373 85.7942C168.042 88.1871 168.59 90.615 169.015 93.0671C169.44 95.5219 169.725 98.0008 169.884 100.488C170.042 102.972 169.972 105.473 170.227 107.946C170.365 109.258 171.773 109.933 172.813 109.016C172.935 108.909 173.058 108.8 173.18 108.69L173.361 108.524C174.251 107.718 175.114 106.863 175.826 105.9C175.955 105.723 176.079 105.537 176.194 105.349C176.213 105.349 176.229 105.344 176.248 105.33L176.445 105.182C178.619 103.563 182.251 101.453 184.371 104.142C185.046 104.998 185.392 106.089 185.679 107.141L186.182 109.025C186.508 110.254 186.815 111.49 186.994 112.748C187.4 115.566 187.196 118.814 185.258 121.072C184.483 121.976 183.416 122.621 182.226 122.791C181.562 122.882 180.906 122.769 180.247 122.686C179.578 122.602 178.933 122.737 178.264 122.672C177.2 122.567 176.735 123.842 177.132 124.643C177.347 125.073 177.6 125.444 177.888 125.759C177.657 125.958 177.436 126.173 177.224 126.399C176.595 126.6 176.031 127.033 175.608 127.606C175.267 128.068 175.09 128.571 175.06 129.101C175.023 129.233 174.99 129.367 174.961 129.504L174.384 130.44C174.257 130.646 174.131 130.849 174.004 131.047C172.536 133.36 170.907 135.317 168.883 137.162C166.935 138.936 164.82 140.525 162.989 142.429L162.773 142.655C161.067 144.454 159.268 146.631 159.936 149.247C160.108 149.919 161.046 150.403 161.659 149.949C163.629 148.486 164.621 146.169 166.292 144.394C168.013 142.566 169.919 140.923 171.644 139.1C173.276 137.379 174.563 135.43 175.533 133.284C175.92 133.712 176.485 134.016 177.267 134.134C178.611 134.336 179.863 133.548 180.449 132.384C180.826 132.55 181.21 132.701 181.597 132.819C183.634 133.443 184.916 131.177 184.148 129.501C183.737 128.603 183.223 127.824 182.586 127.168C184.578 126.893 186.604 125.864 187.913 124.578C191.198 121.349 191.649 116.496 190.91 112.181C190.518 109.893 189.841 107.578 188.961 105.43C188.808 105.056 188.644 104.68 188.464 104.309C188.564 104.306 188.666 104.263 188.73 104.179C189.324 103.367 190.047 102.703 190.488 101.795C190.894 100.961 191.345 100.117 191.666 99.2484C192.324 97.4712 192.646 95.4654 192.861 93.586C193.305 89.7385 193.133 85.9152 192.544 82.0919C191.542 75.5799 189.121 69.3481 185.554 63.8798C185.748 63.7777 185.934 63.6545 186.108 63.5088L186.193 63.434L186.332 63.3082C187.35 62.3868 187.262 60.6598 186.332 59.7266L186.039 59.4321C185.667 59.0625 185.346 58.7696 184.745 58.3672C184.657 58.3078 184.566 58.2518 184.474 58.1997C184.789 57.6184 184.898 56.9387 184.679 56.1888C183.916 53.5765 180.158 53.669 177.776 54.8082C175.141 52.4558 172.22 50.4138 169.053 48.7602C161.511 44.824 152.983 42.0789 144.656 40.4011ZM183.641 109.205C182.233 108.745 180.362 109.711 179.096 110.291C177.492 111.028 176.126 112.117 174.804 113.268C174.145 113.843 174.027 114.784 174.191 115.588C174.207 115.669 174.223 115.752 174.242 115.836C174.417 116.693 175.374 117.368 176.221 117.344C177.992 117.295 178.835 115.766 179.838 114.47C179.956 114.679 180.104 114.873 180.287 115.018L180.411 115.115C180.827 115.432 181.286 115.685 181.835 115.661C182.225 115.642 182.598 115.542 182.943 115.362C183.803 114.908 184.182 113.795 183.948 112.889C183.803 112.319 183.47 111.872 183.034 111.563L183.196 111.452C183.544 111.21 183.86 110.955 184.107 110.579L184.163 110.49H184.141C184.41 110.028 184.235 109.399 183.641 109.205Z" fill="black"/>
<path fill-rule="evenodd" clip-rule="evenodd" d="M117.305 136.262C119.285 136.836 121.411 136.887 123.429 136.295C125.26 135.757 127.139 134.575 128.487 133.01C129.683 131.619 130.459 129.93 130.428 128.127C130.425 127.921 130.351 127.749 130.238 127.615C130.116 127.472 129.946 127.373 129.763 127.33C129.576 127.286 129.377 127.302 129.208 127.379C129.056 127.448 128.925 127.566 128.843 127.738C128.636 128.011 128.429 128.279 128.222 128.539C126.557 130.596 124.945 132.132 122.442 132.684C121.084 132.983 119.727 132.85 118.482 132.394C117.15 131.905 115.945 131.046 115.002 129.947C114.575 129.45 114.072 129.248 113.579 129.244C113.021 129.24 112.47 129.5 112.054 129.914C111.646 130.322 111.372 130.875 111.347 131.455C111.326 131.963 111.491 132.494 111.933 132.968C113.385 134.529 115.268 135.672 117.305 136.262ZM117.366 110.506C115.336 111.741 112.244 114.618 114.427 117.678C116.997 120.375 120.698 117.282 122.521 115.884C124.212 114.799 126.112 117.588 124.543 118.854C111.366 128.612 106.019 110.829 116.339 109.055C117.476 108.86 117.898 110.125 117.366 110.506ZM136.352 105.076C137.004 104.659 137.772 104.516 138.622 104.903C139.287 105.205 140.452 106.213 141.263 107.538C141.818 108.444 142.212 109.508 142.13 110.615C142.111 110.872 142.206 111.062 142.356 111.202C142.474 111.313 142.645 111.394 142.846 111.42C143.017 111.441 143.207 111.422 143.363 111.374C143.658 111.281 143.814 111.09 143.873 110.933C144.441 109.425 144.196 107.741 143.56 106.222C142.7 104.171 141.14 102.454 140.118 101.9C138.369 100.953 136.306 100.909 134.554 101.875C133.063 102.696 132.131 104.023 131.203 105.376C131.006 105.663 130.811 105.948 130.608 106.229C130.203 106.791 130.163 107.348 130.32 107.826C130.494 108.355 130.937 108.802 131.491 109.035C132.003 109.251 132.598 109.282 133.124 109.06C133.569 108.872 133.977 108.507 134.235 107.886C134.67 106.842 135.394 105.689 136.352 105.076ZM103.221 107.4C103.668 107.633 104.017 107.703 104.513 107.555C104.787 107.472 105.058 107.315 105.27 107.102C105.48 106.892 105.632 106.631 105.691 106.341C105.836 105.625 106.227 104.955 106.785 104.518C107.262 104.145 107.864 103.947 108.532 104.058C109.252 104.179 109.938 104.641 110.411 105.186C110.569 105.368 110.693 105.575 110.818 105.781C111.051 106.166 111.277 106.523 111.598 106.806C111.72 106.913 111.903 106.988 112.081 106.988C112.153 106.988 112.227 106.976 112.297 106.954C113.014 106.234 113.152 105.688 113.128 105.146C113.104 104.578 112.88 104.003 112.518 103.466C111.67 102.208 110.058 101.176 108.971 100.942C107.482 100.622 106.003 101.006 104.817 101.838C103.597 102.694 102.693 104.023 102.411 105.521C102.343 105.882 102.372 106.271 102.51 106.609C102.644 106.939 102.878 107.221 103.221 107.4ZM133.068 91.6542C133.962 92.5252 135.019 92.6601 136.09 92.7801C136.684 92.8474 137.159 92.9016 137.626 93.007C138.91 93.2969 140.179 93.7335 141.336 94.3623C142.547 95.0196 143.865 95.8124 144.814 96.8279C145.04 97.0696 145.253 97.3232 145.466 97.5773C145.66 97.809 145.847 98.0321 146.044 98.2472C146.271 98.4943 146.486 98.7532 146.699 99.0115C146.832 99.2295 146.858 99.2831 146.884 99.3389C146.924 99.4227 146.971 99.5165 147.024 99.6172C147.097 99.7551 147.183 99.906 147.272 100.043C147.421 100.293 147.501 100.362 147.57 100.393C147.684 100.444 147.793 100.469 147.898 100.455C147.997 100.442 148.09 100.395 148.182 100.317C148.641 99.9294 148.776 99.293 148.762 98.6175C148.741 97.5923 148.363 96.4573 148.015 95.7596C147.205 94.1384 146.081 92.4531 144.73 91.2431C143.188 89.8619 141.501 88.8163 139.564 88.0958C138.36 87.6479 136.966 87.2368 135.655 87.2887C134.71 87.3261 133.809 87.6068 133.065 88.3079C132.608 88.7383 132.388 89.3505 132.388 89.9622C132.388 90.5861 132.616 91.2137 133.068 91.6542ZM101.403 99.6306C101.46 99.7238 101.538 99.788 101.626 99.8266C101.718 99.867 101.82 99.8786 101.918 99.8621C102.016 99.8456 102.109 99.8012 102.183 99.7334C102.254 99.6684 102.308 99.5822 102.332 99.4765C102.925 96.8697 104.077 94.9302 106.536 93.6795C107.746 93.0642 109.137 92.6733 110.454 92.3616C110.836 92.2711 111.241 92.2124 111.648 92.1529C112.924 91.9665 114.209 91.753 115.041 90.7212C115.542 90.0996 115.753 89.3047 115.634 88.5778C115.522 87.8933 115.122 87.2657 114.395 86.8895C112.586 85.9536 110.337 86.872 108.51 87.6543C108.374 87.7124 108.241 87.7693 108.111 87.8243C106.324 88.5789 104.694 89.5749 103.354 90.9993C102.291 92.1293 101.306 93.7998 100.909 95.5184C100.579 96.9481 100.657 98.4077 101.403 99.6306Z" fill="black"/>
<path fill-rule="evenodd" clip-rule="evenodd" d="M111.674 140.605C114.177 138.374 116.983 133.89 120.579 137.438C121.468 138.441 121.828 140.689 123.188 141.129C124.995 141.716 126.785 139.804 127.4 138.336C129.919 130.179 119.508 127.942 113.577 129.26C110.679 130.45 108.545 135.241 108.416 137.742C108.333 139.422 109.755 141.893 111.674 140.605ZM92.7886 128.033C92.813 127.925 92.8471 127.827 92.8883 127.738C93.9954 127.319 94.8713 127.746 95.4127 128.544C95.3949 128.742 95.3358 128.943 95.2984 129.139C95.7161 130.02 96.0929 131.109 96.659 131.87C96.7708 131.878 96.8867 131.866 96.9979 131.834C106.382 132.814 101.801 122.993 111.318 120.553C118.676 119.339 131.973 120.73 135.444 128.39C138.181 140.626 152.1 132.1 156.669 125.737C161.545 119.946 164.698 112.869 167.738 106.002C168.38 104.549 170.385 105.588 170.167 106.983C172.977 112.621 172.884 119.394 173.579 125.571C174.763 137.894 175.917 155.177 164.47 162.702C149.556 179.564 112.314 185.515 95.113 170.021C89.1584 157.215 89.8924 141.592 92.7886 128.033Z" fill="black"/>
<path fill-rule="evenodd" clip-rule="evenodd" d="M102.584 90.5115C96.2755 90.5115 92.6752 91.8686 91.3559 91.9743L91.3163 91.9772C90.7675 92.0123 90.2753 92.0582 89.7588 92.258C87.8597 92.9896 87.5504 94.982 88.6586 96.2377C88.7364 98.836 88.3948 101.872 88.9809 104.479C89.7039 115.467 94.8702 117.322 97.8068 117.999C99.2811 118.339 101.028 118.474 102.595 118.115C105.266 118.015 107.907 117.179 110.167 115.722C113.314 113.692 115.652 110.571 116.41 106.867C116.77 105.101 116.938 103.264 116.742 101.469L116.713 101.222C117.736 100.732 118.922 100.64 120.144 100.597C120.728 100.576 121.303 100.557 121.862 100.582C122.408 100.643 122.948 100.724 123.49 100.835C124.081 101.013 124.639 101.308 125.155 101.774L125.19 102.455C125.287 104.156 125.51 105.862 125.855 107.531C126.363 109.993 127.181 112.345 128.921 114.091C129.51 114.971 130.239 115.757 131.124 116.437C134.339 118.913 138.707 119.822 142.715 119.48C150.853 118.785 155.557 112.323 156.641 109.561L156.706 109.394C157.489 107.34 158.113 104.676 160.587 104.234L161.114 104.14C162.243 103.928 163.285 103.633 163.947 102.531C164.237 102.05 164.386 101.511 164.423 100.963C164.809 100.993 165.195 101.021 165.579 101.048C168.646 101.697 187.038 102.247 188.506 102.247C188.506 102.247 191.328 103.435 192.519 102.515C193.345 101.875 193.616 101.021 193.162 100.055C192.476 98.6007 189.311 97.726 187.906 97.449C187.906 97.449 165.231 97.6374 163.599 97.3279C162.589 96.2863 160.783 96.4289 159.273 96.2642C158.024 95.373 156.276 94.776 154.895 94.3765C154.614 94.2698 154.335 94.1667 154.064 94.0695C151.533 93.1678 148.902 92.6902 146.231 92.4337C143.476 92.1718 140.714 92.2904 137.976 92.6656C136.822 92.8222 135.678 93.0247 134.543 93.2895C132.511 93.5576 130.49 93.9991 128.457 94.5228L128.05 94.6286C125.909 95.1902 123.708 95.6759 121.492 95.2952C119.687 94.9873 117.952 94.2926 116.288 93.5414L116.072 93.4432C112.413 91.7723 106.7 90.5115 102.584 90.5115ZM134.763 96.6199C136.113 96.3229 136.69 98.4047 135.335 98.7025C134.377 98.9134 133.564 99.3971 133.015 100.217L132.957 100.306C132.22 101.478 130.357 100.396 131.099 99.2155C131.934 97.8872 133.231 96.9568 134.763 96.6199ZM95.2284 95.3289C95.7043 94.9936 96.4243 95.2425 96.7006 95.7163C97.0046 96.2381 96.8054 96.819 96.3597 97.1603L96.3143 97.1937C95.9055 97.4819 95.5074 97.9985 95.4574 98.5278L95.453 98.594C95.3995 99.9793 93.2473 99.9863 93.3011 98.594C93.3535 97.232 94.142 96.094 95.2284 95.3289Z" fill="black"/>
</g>
<defs>
<clipPath id="clip0">
<rect width="305.315" height="330.758" fill="white" transform="matrix(-1 0 0 1 306 0)"/>
</clipPath>
</defs>
</svg>
