<svg width="280" height="552" viewBox="0 0 280 552" fill="none" xmlns="http://www.w3.org/2000/svg">
<path fill-rule="evenodd" clip-rule="evenodd" d="M236.475 209.016C230.323 221.424 222.717 232.395 213.711 243.352C214.342 217.463 214.886 191.434 215.817 165.307C221.521 175.403 227.598 184.539 235.711 194.562C242.071 200.729 239.106 203.289 236.475 209.016ZM256.641 511.906C257.354 510.991 256.932 509.827 255.946 509.234C258.045 505.127 251.719 501.956 248.605 498.865C241.528 491.899 230.378 481.913 229.386 473.117C226.01 453.161 224.081 433.134 218.676 413.412C215.465 400.885 206.55 390.834 202.566 378.528C195.639 346.008 204.588 313.396 203.041 280.551C222.565 278.813 220.036 281.023 217.945 266.289C219.252 265.466 220.525 264.594 221.714 263.716C224.831 265.225 228.511 268.924 231.943 268.728C233.03 268.498 233.813 267.262 234.558 266.201C240.07 258.315 245.193 250.607 250.21 242.66C277.949 202.976 271.675 193.99 245.8 155.949C234.903 141.257 221.519 119.878 200.76 118.395C198.254 118.396 195.612 118.275 193.453 116.845C193.437 114.568 192.155 113.833 188.901 113.417C187.069 113.246 185.632 112.277 183.843 112.673C182.568 108.807 182.823 105.699 181.439 101.875C176.696 95.3481 161.31 98.6044 155.676 100.651C148.674 102.86 155.334 112.746 150.765 117.261C149.769 117.765 148.732 118.007 147.404 118.007C141.743 116.863 138.985 123.031 136.309 127.098C128.649 127.955 122.908 128.987 119.384 131.492C116.153 133.706 113.777 137.266 110.618 144.63C104.004 157.761 99.6669 170.803 97.7511 183.384C96.084 191.91 91.4521 199.288 87.7341 207.031C78.6062 227.193 74.6658 240.547 76.8509 258.293C79.1683 257.916 81.5047 257.152 83.9441 256.867L84.9301 258.983C84.9926 258.941 85.0183 258.893 85.0226 258.88C87.8851 276.642 80.0328 312.81 105.651 308.051C107.911 327.598 115.12 344.975 123.795 361.32C127.303 367.469 130.831 373.968 130.772 381.188L129.452 381.215C129.227 381.22 129.155 381.261 129.155 381.262C128.903 381.317 129.195 383.096 129.477 384.103C133.621 397.387 137.205 410.669 140.423 424.113C141.102 425.925 141.395 430.802 142.967 431.629C142.898 432.295 145.066 433.6 145.234 433.558C144.856 436.123 146.225 437.271 146.179 439.876C146.186 439.814 144.256 439.905 144.34 439.852C143.188 439.852 141.882 442.072 141.866 443.576C141.761 445.388 143.449 447.091 144.039 448.869C144.954 452.77 144.811 456.724 145.218 460.65C141.377 461.441 142.239 465.146 145.607 465.328C145.607 465.328 146.221 470.504 146.1 473.084C143.789 473.336 142.762 475.204 141.999 476.654C139.157 476.683 136.497 477.856 133.857 479.079C127.705 481.814 121.663 484.679 116.183 487.581C111.348 490.498 100.81 493.705 106.281 499.839C106.198 499.997 107.456 502.844 109.152 502.585C117.518 503.322 149.336 497.053 156.696 495.663C159.195 495.124 170.127 493.832 165.587 490.484C167.279 486.196 167.353 478.062 162.25 477.068C161.754 473.04 158.017 471.626 154.29 473.117C154.313 470.219 154.114 467.711 154.081 464.812C155.875 464.597 157.861 463.993 158.38 462.759C158.872 462.077 158.681 459.757 156.834 459.74C156.779 459.736 155.445 459.795 155.391 459.793C155.605 455.103 155.154 451.123 155.928 446.425C156.343 444.865 157.701 444.611 158.59 443.808C159.424 441.474 156.858 439.589 154.663 439.197C154.105 436.824 155.285 434.311 154.663 431.983C156.095 431.94 157.212 431.873 158.142 431.085C158.545 430.726 159.206 430.835 159.719 430.803C160.217 425.904 163.585 421.721 164.332 417.009C165.385 411.431 163.401 405.611 162.69 399.927C162.115 395.199 163.032 390.361 163.491 385.718C182.352 413.029 207.821 439.348 212.381 472.594C212.867 475.153 213.161 478.015 210.56 480.522L210.448 480.551C209.787 481.755 209.372 484.052 208.897 485.294C206.441 487.055 208.695 490.436 210.47 491.959C211.008 492.516 211.467 493.161 211.958 493.744C221.227 503.788 222.276 515.137 240.068 514.371C244.442 514.122 254.677 514.249 256.641 511.906Z" fill="white"/>
<path fill-rule="evenodd" clip-rule="evenodd" d="M182.171 103.655C180.669 102.724 182.807 110.75 182.811 111.517L182.849 111.685C183.223 113.319 183.882 115.219 185.399 116.264C184.7 121.46 183.829 126.642 182.757 131.783C173.197 132.914 163.574 134.548 153.851 133.723C148.778 133.763 145.406 130.641 143.332 126.752L143.269 126.634L143.696 125.243C150.199 121.622 155.128 114.282 152.196 107.356C152.006 106.906 151.213 107.087 151.386 107.558C152.616 110.684 152.1 114.209 150.352 117.08C149.261 117.608 148.098 117.571 146.928 117.538C141.285 116.79 138.043 122.603 135.615 126.228L133.488 126.513C125.354 127.61 117.508 128.908 113.491 136.472L113.124 137.18C107.441 148.159 102.131 159.453 99.0358 171.282C97.4943 177.509 96.9366 183.925 94.6754 189.999C89.9808 201.276 83.3647 211.872 79.777 223.546C77.5516 227.671 71.2985 259.602 77.4669 259.708C79.6891 259.104 81.9527 258.617 84.2404 258.268C83.8876 258.512 83.759 258.926 83.826 259.351C84.6246 264.433 84.6845 269.582 84.6806 274.706C84.3537 287.011 84.3985 313.013 104.591 309.706C106.246 324.751 111.898 339.306 118.181 353.233C121.914 362.211 129.155 370.401 129.518 380.263C127.017 380.297 127.987 383.184 128.295 384.577C129.136 387.986 130.23 391.342 131.338 394.685C135.241 406.677 137.572 419.072 140.914 431.202C141.095 431.786 141.399 432.183 141.787 432.451C141.853 433.713 143.954 434.437 145.143 434.018C144.976 435.545 145.022 437.09 144.998 438.622L144.993 438.91L144.629 438.906C143.045 438.536 141.444 440.864 140.997 442.059C139.493 445.404 142.98 447.856 143.239 451.041C143.476 454.065 143.79 457.063 143.933 460.096C139.585 461.636 141.508 466.796 145.77 466.742C145.57 468.626 145.543 470.519 145.456 472.406C143.603 472.846 142.214 474.263 141.302 475.743C137.557 475.976 134.139 477.985 130.802 479.407C125.643 481.719 120.567 484.187 115.589 486.807C110.741 489.736 99.9535 493.061 104.669 499.834C103.482 500.762 104.311 502.582 105.393 503.341L105.43 503.367C106.505 504.13 107.927 504.13 109.248 504.006C124.595 504.354 140.766 500.029 156.027 497.204L157.179 497.017C160.52 496.475 163.939 495.867 166.907 494.388C168.163 493.46 168.47 491.195 167.185 490.282C168.503 485.957 167.315 478.363 162.102 476.689C161.484 473.482 158.625 471.181 154.989 472.16C154.971 470.106 154.787 468.076 154.747 466.021C156.549 465.713 158.212 465.079 159.081 463.525C160.037 461.976 159.002 459.381 156.829 459.465C156.756 456.265 156.955 453.12 156.984 449.926L156.987 449.733C156.999 448.699 156.953 447.558 157.436 446.607C157.932 445.627 159.253 445.53 159.839 444.601C161.124 442.1 158.552 439.162 155.9 438.488C155.567 436.813 155.739 435.039 155.405 433.348C156.818 433.273 158.021 432.975 159.044 432.248C159.751 432.149 161.001 432.434 161.082 431.513C161.369 427.749 163.461 424.398 164.778 420.888C167.499 414.059 165.03 406.929 164.084 400.023C163.638 396.501 164.108 392.963 164.506 389.433C182.457 414.95 205.483 439.623 210.803 470.407C211.098 473.872 212.657 476.722 209.918 479.712C208.999 479.953 208.214 483.871 207.86 484.857C205.055 487.213 207.5 491.418 209.941 493.24C211.109 495.072 212.672 496.676 214.135 498.316L214.606 499.033C217.706 503.736 221.012 508.452 225.214 512.393C232.276 517.147 244.126 515.794 252.444 514.938L253.184 514.829C254.916 514.567 256.834 514.183 257.831 512.783C258.697 511.57 258.581 509.996 257.505 509.085C258.573 506.291 256.139 503.547 253.849 501.831C244.975 494.691 237.325 486.293 231.368 476.985C229.085 461.935 226.74 446.885 224.201 431.869C222.151 419.442 219.03 407.002 212.439 395.852L210.823 393.064C208.091 388.342 205.472 383.631 203.915 378.425C200.286 366.16 201.155 353.316 201.658 340.76C202.305 321.158 203.844 301.553 203.643 281.937C207.708 281.55 218.729 281.788 220.465 277.997C221.034 274.384 219.701 270.708 219.4 267.099C220.258 266.552 221.096 265.98 221.911 265.39C223.423 266.414 224.983 267.38 226.585 268.279C230.419 270.784 233.384 271.184 235.757 267.067C242.622 257.217 249.245 247.225 255.495 237.042C261.292 227.275 268.477 217.524 269.948 206.279C272.087 186.038 245.924 153.642 232.825 137.196C224.776 128.357 214.363 118.943 201.062 118.251L200.658 118.232C198.874 118.151 196.282 118.329 194.795 117.234C194.514 113.58 190.383 113.598 187.312 112.994C186.676 112.554 185.711 112.449 184.897 112.485C183.795 109.612 183.545 106.435 182.171 103.655ZM220.094 479.592C223.463 478.001 227.483 477.872 231.027 479.133C235.422 486.526 241.051 493.273 247.443 499.335C249.778 502.292 258.544 506.192 254.171 510.184L253.579 510.282C246.867 511.391 240.052 512.264 233.212 511.764C228.744 510.642 225.136 507.635 222.294 504.389C218.766 500.236 215.851 495.667 212.623 491.318C209.725 486.86 208.197 486.8 210.47 481.504C210.474 481.608 210.501 481.712 210.559 481.819C211.362 483.288 213.825 483.153 215.215 482.599C217.027 481.877 218.344 480.43 220.094 479.592ZM251.927 511.555L251.825 511.597L251.722 511.639L251.571 511.641L251.927 511.555ZM124.179 484.94C129.178 482.911 138.335 476.998 143.44 477.896C147.21 478.943 150.686 480.816 154.705 481.087L154.878 481.093C157.747 481.204 162.845 482.073 163.923 479.01C165.35 481.485 165.82 484.55 165.798 487.351C165.858 489.737 164.654 491.625 161.859 491.819L159.272 492.41C142.876 496.146 126.328 499.712 109.433 500.818C104.998 498.304 104.888 494.999 109.591 492.702C114.34 489.947 119.227 487.38 124.179 484.94ZM220.743 427.282C223.679 443.961 225.65 460.733 228.494 477.419C218.569 475.168 215.655 483.246 211.96 480.992C214.544 477.904 214.234 475.578 213.469 471.985C211.952 459.882 206.987 448.368 200.831 437.622C200.129 436.395 199.409 435.175 198.679 433.958C206.595 434.613 215.117 432.564 220.743 427.282ZM159.601 474.841C160.281 475.799 160.551 476.953 160.768 478.06C160.88 478.632 160.818 479.475 161.042 480.117C156.783 480.234 152.5 479.333 148.663 477.674L148.85 477.663C151.978 477.488 158.441 477.887 159.601 474.841ZM162.25 477.309C162.664 477.576 163.022 477.886 163.332 478.229C163.437 478.763 163.133 479.343 162.64 479.675C162.541 478.894 162.421 478.085 162.25 477.309ZM153.929 466.142C153.916 468.557 153.755 470.936 153.784 473.347C153.788 474.183 153.515 475.239 154.079 475.95L153.183 476.036C150.937 476.248 148.645 476.424 146.4 476.192C146.328 473.053 146.326 469.898 146.098 466.762C148.867 466.745 151.205 466.322 153.929 466.142ZM145.354 475.755C145.357 475.851 145.359 475.953 145.355 476.048C145.033 475.994 144.712 475.928 144.394 475.851C144.655 475.827 144.921 475.867 145.178 475.787C145.237 475.779 145.297 475.772 145.354 475.755ZM155.022 475.38C155.305 475.672 155.858 475.724 156.208 475.531C156.279 475.542 156.35 475.551 156.425 475.554C156.445 475.556 156.468 475.554 156.488 475.554L156.245 475.61C155.738 475.723 155.346 475.797 154.826 475.864C154.917 475.713 154.979 475.551 155.022 475.38ZM143.371 475.367C143.437 475.477 143.526 475.569 143.636 475.645L143.385 475.569C143.344 475.556 143.302 475.542 143.261 475.528C143.295 475.472 143.332 475.42 143.371 475.367ZM158.05 474.704C158.003 474.804 157.898 474.957 157.778 475.038C157.884 474.938 157.978 474.826 158.05 474.704ZM145.424 473.151C145.422 473.208 145.42 473.266 145.416 473.325C145.382 473.292 145.341 473.262 145.293 473.242C145.338 473.212 145.383 473.181 145.424 473.151ZM156.841 459.995C158.928 460.609 158.197 462.988 156.617 463.767C154.898 464.796 152.303 464.635 150.33 464.79C148.311 464.828 145.973 465.573 144.156 464.503C143.208 463.923 143.199 462.606 144.202 462.098C144.221 462.139 144.241 462.178 144.262 462.217C144.249 462.31 144.258 462.415 144.303 462.538C145.448 464.408 152.635 463.328 154.457 462.401L154.598 462.346C155.833 461.869 156.99 461.649 156.841 459.995ZM154.289 432.483C153.838 434.322 153.985 436.237 153.7 438.082C153.521 438.617 153.75 438.972 154.118 439.155C151.746 439.798 149.356 440.118 146.885 439.617C147.153 437.461 146.477 435.057 146.135 432.889L154.289 432.483ZM145.234 432.935C145.194 433.21 145.199 433.511 145.165 433.796C145.16 433.789 145.155 433.783 145.149 433.778L145.138 433.769C144.84 433.534 144.569 433.233 144.284 432.972C144.597 432.966 144.918 432.95 145.234 432.935ZM157.599 377.125C159.111 380.395 160.816 383.575 162.729 386.672L162.651 387.404C162.145 392.199 161.764 397 162.622 401.786L162.702 402.196C164.024 408.903 165.671 415.886 162.466 422.377L162.32 422.717C161.175 425.383 159.969 428.026 159.659 430.889C154.449 431.227 149.223 431.699 144.006 431.865C142.656 432.073 142 431.373 141.88 430.223C137.81 414.74 134.24 399.149 129.829 383.742L129.784 383.664C129.306 382.833 128.947 381.878 129.835 381.588C131.511 381.322 133.155 382.949 134.746 383.365C143.289 386.423 149.759 378.3 157.599 377.125ZM157.801 383.431C152.614 390.401 155.436 400.987 156.032 409.264C156.473 412.312 155.955 415.434 156.307 418.466C156.355 418.703 156.767 418.747 156.881 418.534C158.104 415.741 157.602 412.529 157.495 409.591C156.732 400.9 154.571 391.927 157.801 383.431ZM142.635 287.986C142.654 287.872 142.83 287.913 142.841 288.011C142.897 308.915 144.344 329.758 146.631 350.557C146.663 351.008 145.851 351.114 145.755 350.665C144.11 342.94 143.445 335.068 142.888 327.224L142.825 326.336C142.1 315.799 141.871 305.233 142.182 294.679C142.25 292.461 142.26 290.182 142.635 287.986ZM95.5916 257.54C95.7932 257.757 96.0132 257.887 96.2373 257.953C96.2354 262.838 97.3212 267.645 100.297 271.876C101.604 273.444 102.306 275.255 102.932 277.119C102.753 277.625 102.979 278.207 103.399 278.498C106.149 286.089 106.433 294.217 105.418 302.102C102.325 297.982 101.098 293.064 100.232 288.217C100.186 287.973 99.7416 287.976 99.6931 288.217C98.6666 293.402 100.406 298.577 102.653 303.314C103.898 304.271 103.631 306.44 103.776 307.796C80.9744 310.809 88.9045 271.055 85.9835 258.811C85.9294 258.473 85.6142 258.229 85.2559 258.124C88.6763 257.653 92.1409 257.616 95.5916 257.54ZM187.847 113.868L188.242 113.958C192.403 114.902 193.505 114.923 193.77 119.365C194.805 125.632 198.628 131.104 200.347 137.165C201.034 139.306 200.309 143.25 197.048 142.674C195.992 142.379 195.169 143.671 195.968 144.358C198.328 146.384 200.62 148.474 202.924 150.553C193.671 178.919 181.648 206.549 167.006 232.982C166.425 234.03 168.166 234.954 168.743 233.903C183.302 207.384 195.408 179.763 204.805 151.39L205.089 150.53C205.504 149.486 200.198 145.743 199.232 144.521C208.907 140.289 195.432 125.471 195.038 118.349C197.841 119.345 200.947 119.004 203.872 119.438C209.493 120.33 214.426 123.283 218.81 126.463C236.619 140.746 248.003 160.521 259.388 179.159C267.142 191.324 270.88 206.187 263.099 219.124C254.071 235.709 243.595 251.697 232.525 267.216C231.307 268.651 229.438 267.002 228.156 266.397C220.792 262.379 214.406 256.911 209.494 250.516C222.372 235.855 234.352 219.835 241.028 201.996C241.561 197.656 234.863 192.629 232.418 188.857C227.02 182.094 221.977 175.102 217.162 167.99C217.313 167.287 216.993 166.517 216.173 166.536L215.696 165.815C212.019 160.264 211.609 160.048 215.26 166.839C213.408 191.891 213.716 217.427 212.915 242.638C210.748 245.241 208.518 247.802 206.236 250.322C198.833 245.69 190.125 242.668 181.181 241.732L180.723 241.691C176.937 241.339 170.536 240.606 170.032 245.133C170.707 250.674 183.167 247.528 187.196 250.672C180.625 253.075 173.093 253.755 167.06 257.381C165.125 258.404 161.331 261.675 165.037 262.924C166.655 263.051 168.325 262.477 169.941 262.354C168.122 262.909 166.449 263.854 165.384 265.331C164.617 266.345 164.058 268.447 165.89 268.882C170.068 268.985 174.228 267.755 178.342 267.135L177.976 267.27C174.976 268.387 170.315 270.387 174.354 273.343C178.399 275.243 183.294 272.01 187.323 271.146C198.178 268.857 206.197 275.136 217.322 268.335C217.635 271.33 218.633 274.413 218.326 277.412C215.65 279.684 207.322 279.608 203.596 279.908L203.6 279.793C203.654 277.951 203.114 278.14 203.012 279.93C193.58 280.193 184.127 280.033 174.714 279.419C170.675 279.148 166.642 278.783 162.626 278.309L161.873 278.219C159.809 277.969 157.652 277.803 155.625 277.356C153.552 277.104 153.549 275.094 153.769 273.619C156.615 219.07 181.015 167.778 187.847 113.868ZM149.496 118.373C149.016 119.019 148.484 119.637 147.909 120.221C147.025 118.978 144.872 118.274 144.259 120.13C143.569 122.037 142.583 123.995 142.554 126.016C128.451 167.793 128.093 212.217 128.367 255.551C127.945 262.425 130.291 269.152 130.074 275.99C122.349 276.999 114.512 277.085 106.755 276.339C106.526 275.792 106.266 275.252 105.972 274.724C94.3616 261.863 100.517 245.741 106.109 231.809C109.49 231.936 112.891 231.745 116.275 231.78C115.23 234.721 114.96 237.832 114.404 240.872C114.025 243.039 113.541 245.189 112.986 247.324L112.836 247.893C112.627 248.68 112.349 249.529 112.653 250.31C112.952 251.08 113.982 251.391 114.665 250.792C115.896 249.516 115.764 247.616 116.162 246.033L116.235 245.535C116.913 240.996 117.805 236.28 116.566 231.78C117.783 231.54 121.106 232.414 121.28 230.929C121.229 228.477 123.187 223.16 121.008 221.544C119.711 220.645 117.481 220.93 115.96 220.874C114.202 220.809 112.446 220.75 110.69 220.76C124.802 189.775 120.877 180.234 119.445 149.396L119.403 148.455C119.406 148.254 119.046 148.203 119.007 148.408C116.849 161.039 119.726 173.829 118.363 186.499C115.943 210.577 99.1544 231.247 96.3466 255.208C90.2919 254.572 84.1688 255.351 78.3006 256.734C78.1775 255.761 78.0823 254.785 78.0152 253.806C76.9017 235.924 83.8068 218.552 91.8658 202.513C96.6952 193.996 99.6802 184.911 100.929 175.408C103.356 163.033 108.799 151.374 114.225 139.88C117.654 131.282 125.07 129.256 134.265 128.257C131.164 132.928 128.081 137.61 125.004 142.295C124.317 143.71 126.421 144.724 127.34 145.595C116.045 151.196 122.64 168.476 122.407 178.165C123.245 187.062 123.562 196.017 125.04 204.854C125.148 205.465 126.182 205.287 126.191 204.712C126.055 191.469 124.317 178.278 123.555 165.058L123.462 164.095C122.867 157.835 122.286 148.805 130.569 147.086C131.686 146.922 131.772 145.412 130.875 144.959C129.68 144.354 128.634 143.615 127.697 142.738C132.423 135.841 136.544 128.579 141.517 121.834L141.724 121.594C145.043 117.776 144.813 119.156 149.496 118.373ZM172.321 244.797C173.24 242.352 182.101 243.947 184.471 244.21C193.2 245.71 201.985 249.22 208.633 254.626C209.044 254.959 209.529 254.954 209.912 254.773C212.892 258.229 216.328 261.362 220.1 264.116C219.409 264.608 218.7 265.089 217.971 265.546C217.622 265.58 217.306 265.744 217.164 266.04C206.788 272.87 199.153 267.542 188.374 268.774C184.349 269.509 180.643 271.836 176.495 271.933C173.452 271.305 176.132 270.148 177.553 269.701C181.631 267.932 185.808 266.363 189.973 264.774C191.266 264.281 190.822 262.506 189.378 262.816C186.85 263.357 184.314 263.874 181.776 264.378C176.896 265.285 171.9 266.445 166.968 266.883C168.063 264.116 179.697 261.123 183.077 260.025C184.355 259.474 187.998 259.582 187.581 257.78C187.245 256.109 183.367 258.024 182.076 258.161C176.801 259.375 171.416 260.116 166.04 260.854C171.815 255.592 180.765 255.135 188.139 252.673L188.383 252.622C189.675 252.343 191.402 251.827 190.416 250.517L190.384 250.474C186.591 245.396 171.689 247.971 172.321 244.797ZM183.232 216.536C180.544 214.525 179.101 218.651 179.273 220.564C179.146 222.152 179.01 223.741 178.896 225.33C179.063 226.575 177.605 231.103 179.554 231.144C188.075 230.754 196.582 230.848 205.105 230.386C205.117 231.946 205.201 233.507 205.113 235.072C205.159 237.026 204.411 238.983 204.848 240.913C205.115 241.803 206.445 241.922 206.964 241.164C208.522 237.836 207.45 233.543 206.348 230.176C212.787 228.689 209.684 223.979 209.683 219.863C209.692 219.755 209.573 219.699 209.475 219.72C207.879 221.745 209.958 224.448 209.046 226.651C208.104 229.058 204.104 228.837 201.844 228.877L201.776 228.878C194.739 228.989 187.706 229.252 180.668 229.375C180.969 227.223 181.051 225.017 181.232 222.864C181.46 221.319 181.13 219.485 181.997 218.1C185.91 219.254 189.984 219.716 194.098 219.642C199.002 219.762 204.159 220.164 208.951 219.632C202.078 218.668 194.485 218.808 187.481 217.585C186.089 217.258 184.669 216.595 183.232 216.536ZM217.062 170.06C221.302 177.409 226.176 184.406 231.369 191.216C232.481 192.672 233.623 194.107 234.783 195.532L234.998 195.782C237.317 198.458 239.725 200.677 237.534 204.228C231.792 216.897 224.107 228.795 215.202 239.837L215.355 233.493C215.859 212.347 216.337 191.2 217.062 170.06ZM110.533 221.133C121.176 223.163 121.38 219.363 119.601 230.108C115.331 230.135 111.064 230.047 106.793 230.11C108.014 227.109 109.279 224.122 110.533 221.133ZM142.489 129.24C144.89 132.989 148.878 135.397 153.681 135.432C162.108 135.871 170.648 135.367 178.859 133.553C180.067 133.277 181.509 133.04 182.621 132.441C176.289 163.621 166.039 193.999 158.829 225L158.593 226.023L158.397 225.987C153.489 225.196 148.15 225.525 143.103 225.244C139.055 225.191 134.965 225.585 130.944 225.037L131.07 221.184C132.084 190.341 133.499 159.128 142.489 129.24ZM146.011 120.328C146.456 120.322 147.139 120.563 147.593 120.534C146.668 121.433 145.643 122.244 144.565 122.95C145.058 122.11 145.443 121.103 146.011 120.328Z" fill="black"/>
<path fill-rule="evenodd" clip-rule="evenodd" d="M131.507 78.3944C131.581 74.6029 131.663 70.7355 132.284 66.9809C132.892 63.3102 134.563 59.9923 137.435 57.3268C143.536 51.6649 152.379 50.2819 160.61 49.0146L174.683 46.8477C178.977 46.1868 183.557 45.1303 187.895 46.0676C190.032 46.5295 191.848 47.6025 193.507 48.8721C195.106 50.0957 196.825 51.4098 197.909 53.0561C198.994 54.7047 199.368 56.632 199.72 58.4966C200.118 60.5989 200.428 62.7175 200.647 64.8413C201.087 69.0962 201.148 73.3831 200.828 77.6469C200.674 79.7149 200.427 81.7771 200.113 83.83C199.957 84.8481 199.781 85.8636 199.582 86.8755C199.524 87.1739 199.479 87.5043 199.419 87.838C199.863 88.9832 200.115 90.1691 200.095 91.35C200.035 94.8284 196.798 97.0183 193.535 98.1941C191.643 98.8758 189.665 99.3391 187.806 100.101C185.85 100.902 184.519 102.2 183.181 103.682C180.631 106.507 177.753 109.047 174.467 111.165C167.5 115.657 158.675 117.782 150.222 116.169C148.193 115.782 146.147 115.182 144.324 114.276C142.399 113.321 140.951 111.936 139.736 110.298C137.479 107.258 135.86 103.835 134.636 100.352C133.387 96.7986 132.5 93.239 132.017 89.5339C131.535 85.8409 131.434 82.1103 131.507 78.3944Z" fill="white"/>
<path fill-rule="evenodd" clip-rule="evenodd" d="M176.417 33.6402C170.593 32.9136 162.555 35.2751 159.655 40.0368C145.808 37.0759 128.344 36.979 116.931 46.8355C105.023 58.5276 119.98 73.9437 129.899 77.4194C129.176 80.6025 130.302 100.995 138.269 110.09C144.592 117.797 159.316 121.354 166.129 112.149L166.182 112.073C166.912 111.01 166.284 111.044 165.534 111.835C158.863 117.156 149.791 117.247 142.801 111.631C129.701 101.366 131.051 76.1971 137.285 61.6364C155.036 59.8681 174.042 64.7481 186.303 76.8678L185.474 81.3949C185.332 82.1662 185.172 82.9368 185.05 83.7108C184.971 84.2067 184.962 84.6999 185.341 85.1013C186.592 86.4265 188.7 84.4352 190.434 83.6431C190.946 83.5777 191.459 83.5525 191.962 83.5847C200.296 84.5582 198.654 99.2203 189.495 96.6502C188.726 96.2154 188.064 96.3481 187.766 96.9791C185.583 98.7928 184.143 102.027 180.516 105.143C179.237 106.312 178.072 107.289 176.633 108.227C175.787 109.002 173.236 109.793 174.045 111.12C175.574 114.14 184.593 104.654 186.187 102.031C191.183 103.82 196.719 103.213 201.897 102.775C229.209 101.487 225.563 75.3739 203.176 58.8871C198.961 56.0732 194.312 53.7776 189.479 52.0112C188.819 51.77 189.107 50.7873 189.776 51.0319C192.974 52.2009 196.092 53.5923 199.064 55.2027L199.068 54.2399C199.073 52.6183 199.044 50.93 198.734 49.4484C198.579 48.4217 198.318 47.3252 197.916 46.5003C197.419 43.9712 189.635 35.29 176.417 33.6402ZM192.328 86.9508C191.906 86.5874 191.119 87.0207 190.743 87.0099C189.783 87.129 188.871 87.4968 188.16 87.9507C187.69 88.1894 187.361 88.4135 187.086 88.6196L187.078 88.6177C187.081 88.6177 187.083 88.6196 187.085 88.6201L187.06 88.636C186.659 88.8941 185.193 90.3478 186.119 89.9568C186.188 89.8754 186.259 89.7972 186.33 89.7206C186.338 89.7311 186.349 89.7414 186.361 89.7514L186.309 89.8214C185.522 90.8955 186.881 89.7639 187.09 89.4633C187.1 89.4706 187.111 89.4755 187.122 89.4807L186.85 89.7814C186.812 89.8241 186.782 89.8581 186.757 89.8869L186.7 89.9372C185.79 90.7487 185.761 91.479 186.819 90.2793C186.777 90.3358 186.744 90.3957 186.739 90.4488L186.676 90.5213C185.846 91.4917 186.521 91.1471 186.934 90.7326L186.968 90.697L186.961 90.7067C186.577 91.243 187.339 90.8667 187.474 90.5798L187.479 90.5668C187.626 90.4583 187.716 90.3365 187.747 90.3057L187.753 90.3006C188.467 89.6371 189.502 89.0757 190.381 88.8207C190.508 88.7987 190.637 88.7811 190.767 88.7685C191.296 88.6616 191.83 88.5883 192.37 88.5487C192.436 88.5416 192.503 88.4976 192.553 88.4407C193.37 88.4157 193.118 88.1121 192.779 88.0558L192.773 88.0548L192.841 88.0497C193.365 88.0033 193.722 87.8328 193.193 87.7281L193.125 87.716C193.134 87.7043 193.141 87.6926 193.148 87.6809C193.602 87.6357 193.306 87.2356 193.054 87.3325C193.16 87.0182 192.675 87.1751 192.615 87.1283C192.569 87.082 192.512 87.041 192.478 87.0388C192.333 86.9454 192.403 86.9538 192.328 86.9508ZM189.55 81.8626L189.656 81.919C189.742 81.9645 189.831 81.9948 189.92 82.0126C189.794 82.061 189.67 82.1133 189.548 82.1691C189.55 82.1008 189.551 82.0327 189.551 81.9646L189.55 81.8626Z" fill="black"/>
<path fill-rule="evenodd" clip-rule="evenodd" d="M145.938 100.188L145.809 100.161C144.778 99.9405 143.787 99.6407 142.826 100.22C141.911 100.772 141.784 101.793 142.497 102.538C143.23 103.303 144.203 103.26 145.23 103.271L145.294 103.272C146.147 103.282 147.015 103.271 147.864 103.202C148.656 103.138 149.453 103.036 150.236 102.902L150.699 102.82C151.172 102.733 151.638 102.62 151.882 102.205C152.307 101.481 149.148 100.913 148.764 100.813C147.832 100.572 146.883 100.382 145.938 100.188ZM144.186 91.4604C144.689 91.9342 145.354 92.2577 146.101 92.4591C147.978 92.9653 150.373 92.6957 151.906 92.1799C152.224 92.0729 152.521 91.8548 152.692 91.5821C152.848 91.3329 152.901 91.04 152.782 90.7412C152.748 90.6563 152.707 90.573 152.666 90.4909C152.553 90.2677 152.324 90.094 152.055 89.9946C151.775 89.8915 151.457 89.8704 151.202 89.9432C151.168 89.9529 151.133 89.963 151.097 89.9733C150.126 90.251 148.533 90.7108 147.213 90.6217C146.421 90.5682 145.725 90.3144 145.364 89.6571C145.174 89.3105 145.227 88.9677 145.395 88.6539C145.649 88.1807 146.158 87.769 146.586 87.4852C147.19 87.0852 147.835 86.9255 148.501 86.7568C148.752 86.6933 149.006 86.6289 149.263 86.5518C149.347 86.5265 149.422 86.4767 149.477 86.4121C149.532 86.3482 149.568 86.2702 149.579 86.1919C149.591 86.1108 149.576 86.03 149.535 85.9603C149.497 85.8957 149.435 85.839 149.343 85.8017C148.04 85.2719 146.354 85.622 145.081 86.4554C144.445 86.8719 143.915 87.4069 143.588 88.0048C143.284 88.5597 143.155 89.1685 143.274 89.7893C143.407 90.4843 143.732 91.0333 144.186 91.4604ZM165.551 79.6398C165.185 79.4934 164.884 80.1787 164.809 80.3656L164.653 80.7532C164.398 81.3783 164.106 82.0137 163.572 82.4777C163.124 82.8661 162.407 83.1953 161.887 82.7408C161.395 82.3098 161.635 81.8242 161.562 81.2953C161.431 80.3387 159.993 79.3826 159.129 80.3808C157.175 82.6362 160.197 85.7728 162.981 85.2225C164.397 84.9426 165.536 83.913 166.005 82.6887L166.029 82.6241C166.309 81.8484 166.592 80.0564 165.551 79.6398ZM140.344 81.2102L140.357 81.1816C141.288 79.2622 137.969 78.4372 137.688 80.1607L137.67 80.277C137.396 82.1902 137.973 84.7631 140.556 84.9538C143.457 85.1681 144.664 82.2332 144.405 80.0795C144.359 79.6939 143.843 79.6406 143.684 79.9909L143.65 80.0674C143.181 81.1498 142.737 83.2313 141.087 83.2292C139.985 83.2277 140.037 81.878 140.344 81.2102ZM138.241 75.6544C136.574 75.6007 136.576 77.9672 138.241 78.0027C143.802 78.1214 149.367 78.2791 154.93 78.3062L155.941 78.3118C161.166 78.3436 166.409 78.4083 171.619 78.0105C172.064 77.9767 171.981 77.4104 171.61 77.4332C166.148 76.7281 160.619 76.522 155.116 76.254C149.496 75.9804 143.865 75.8355 138.241 75.6544Z" fill="black"/>
</svg>
