<svg width="162" height="194" viewBox="0 0 162 194" fill="none" xmlns="http://www.w3.org/2000/svg">
<g clip-path="url(#clip0)">
<path fill-rule="evenodd" clip-rule="evenodd" d="M126.598 184.228C126.213 180.669 125.976 177.085 125.84 173.507C125.704 169.934 125.882 166.317 125.96 162.743C126.119 155.472 126.377 148.183 125.797 140.923C125.248 134.061 123.988 127.248 122 120.655C121.032 117.444 120.012 114.104 118.419 111.137C116.818 108.154 114.282 106.168 111.496 104.346C108.53 102.407 105.588 100.431 102.633 98.4734C100.153 96.8303 95.6901 94.918 93.6553 92.7213C91.5142 90.41 91.1117 84.6808 89.6858 81.9428C88.2971 79.2759 84.3663 77.5362 81.3396 77.5362C76.3298 77.5362 72.534 77.281 68.4146 81.9012C66.3593 84.2065 67.9946 86.537 65.8403 88.7495C63.8597 90.7838 58.7944 92.8743 56.2416 94.0547C53.1841 95.4684 50.0495 96.7166 46.8694 97.8284C43.6254 98.9626 40.2997 99.8079 37.0375 100.878C33.9107 101.904 29.8277 106.134 27.4002 108.371C25.1434 110.452 24.5833 110.219 22.8676 112.746C19.1022 118.293 15.3326 123.903 12.3341 129.908C10.8406 132.9 9.39438 136.046 8.85248 139.369C8.27445 142.912 8.84757 146.336 9.78496 149.767C10.7392 153.258 13.7692 156.582 14.7564 160.065C15.2113 161.67 13.6497 163.421 14.368 164.933C14.7267 165.689 15.1785 166.361 15.6928 167.019C16.0891 167.526 17.6345 167.414 17.8345 168.035C18.0365 168.662 16.9184 169.962 16.9018 170.611C16.8782 171.54 16.8411 172.468 16.8105 173.396L16.6299 178.885C16.5112 182.492 16.3925 186.099 16.2738 189.706C16.235 190.883 16.1784 192.034 16.4616 193.151C16.3594 193.056 16.2623 192.954 16.1735 192.838C15.9138 192.5 15.3631 192.787 15.5835 193.182C15.9514 193.842 16.4805 194.306 17.1021 194.64C17.8244 195.702 127.223 198.073 127.761 194.969C128.063 193.227 127.513 191.363 127.293 189.632C127.065 187.83 126.793 186.035 126.598 184.228Z" fill="white"/>
<path fill-rule="evenodd" clip-rule="evenodd" d="M15.47 139.374C15.7376 138.61 16.9618 138.941 16.6923 139.71C15.3068 143.667 16.2897 147.972 17.7875 151.749C18.0881 152.507 16.8617 152.833 16.5652 152.085C14.9896 148.112 14.0148 143.529 15.47 139.374ZM24.7599 161.974C28.6673 162.522 32.5779 162.86 36.5122 163.133C36.6881 163.146 36.8402 163.119 36.9717 163.062C36.8545 164.859 36.7594 166.656 36.6849 168.454C35.6122 168.424 34.5173 168.495 33.4541 168.467C32.0645 168.429 30.6765 168.359 29.29 168.254C26.6059 168.051 23.9265 167.729 21.2724 167.283C20.2805 167.118 19.0208 167.016 17.8911 166.688C16.8231 166.377 15.8724 165.862 15.3733 164.892C14.9487 164.07 14.871 163.064 14.871 162.156C14.871 161.53 14.9788 160.895 15.0437 160.265C15.1245 160.208 15.1974 160.14 15.2561 160.064C16.4349 160.435 17.6582 160.696 18.8561 160.949C20.8066 161.363 22.7856 161.698 24.7599 161.974ZM22.5553 147.368C22.5769 148.575 22.912 149.672 23.564 150.689C24.0052 151.377 22.9076 152.01 22.4695 151.326C21.7019 150.13 21.3131 148.786 21.2877 147.368C21.2732 146.553 22.5408 146.556 22.5553 147.368ZM122.716 160.54C123.246 160.569 123.778 160.587 124.309 160.615C124.777 161.014 125.425 161.219 126.017 161.092C126.037 161.143 126.056 161.2 126.072 161.266C126.177 161.672 126.229 162.108 126.29 162.522C126.35 162.93 126.396 163.341 126.427 163.752C126.443 163.958 126.543 164.426 126.416 164.606C126.302 164.769 126.05 164.754 125.876 164.775C125.407 164.826 124.932 164.849 124.459 164.889C123.567 164.966 122.675 165.044 121.785 165.121C120.912 165.197 119.953 165.173 119.099 165.402C118.953 163.694 118.82 161.987 118.697 160.278C120.02 160.472 121.403 160.467 122.716 160.54ZM11.7828 157.708C12.3152 158.733 12.8064 159.741 13.8252 160.357C13.9583 160.436 14.1072 160.478 14.2594 160.489C14.1453 160.978 14.074 161.477 14.0106 161.938C13.8711 162.954 13.841 164.004 14.0961 165.006C14.3449 165.981 14.7569 166.851 15.565 167.475C15.9405 167.766 16.3509 167.987 16.7819 168.162C16.709 168.366 16.6662 168.568 16.6884 168.791C16.5854 169.307 16.5173 169.834 16.4428 170.337C16.2796 171.456 16.1164 172.576 15.9881 173.701C15.7314 175.938 15.5301 178.174 15.3606 180.419C15.191 182.658 15.069 184.9 14.9676 187.143C14.9153 188.29 14.8694 189.436 14.8266 190.585C14.7838 191.765 14.5921 192.972 15.115 194.067C15.5365 194.951 16.9609 194.901 17.3983 194.067C17.9528 193.007 17.7896 191.748 17.8039 190.585C17.8182 189.49 17.8372 188.394 17.8609 187.299C17.9085 185.058 17.9782 182.817 18.0336 180.576C18.0875 178.388 18.1541 176.201 18.1984 174.013C18.2206 172.868 18.2222 171.723 18.2285 170.578C18.2317 169.942 18.2586 169.265 18.2111 168.603C18.6072 168.696 19.0065 168.775 19.4011 168.856C22.4132 169.472 25.4571 169.92 28.5199 170.198C30.0585 170.337 31.6018 170.435 33.1451 170.491C34.2796 170.532 35.4553 170.611 36.6072 170.568C36.5169 173.31 36.4757 176.054 36.4805 178.799C36.4836 180.778 36.5106 182.757 36.5597 184.737C36.5866 185.778 36.6088 186.819 36.6405 187.86C36.6548 188.328 36.6548 188.8 36.6865 189.266C36.696 189.411 36.7166 189.552 36.7435 189.691C36.6389 189.986 36.5518 190.278 36.4805 190.552C36.1319 191.879 36.1319 193.154 36.2872 194.506C36.4203 195.653 37.3884 196.716 38.6671 196.313C38.8747 196.248 39.0822 196.18 39.2882 196.111C41.1706 196.324 43.0641 196.373 44.9734 196.409C47.7638 196.463 50.5557 196.48 53.3476 196.495C58.8236 196.523 64.3013 196.537 69.7789 196.553C80.7865 196.585 91.794 196.615 102.802 196.646C105.857 196.656 108.911 196.664 111.966 196.673C113.548 196.678 115.126 196.679 116.706 196.74C117.442 196.768 118.181 196.808 118.918 196.819C119.772 196.833 120.527 196.588 121.344 196.365C121.805 196.237 121.987 195.776 121.889 195.386C122.627 195.561 123.522 195.188 123.774 194.359C123.958 193.757 123.89 193.104 123.616 192.547V192.545C123.086 189.214 122.415 185.898 121.887 182.565C121.309 178.914 120.752 175.255 120.263 171.59C119.895 168.822 119.593 170.784 119.331 168.004C120.47 168.093 121.759 167.747 122.887 167.6C123.697 167.496 124.513 167.412 125.324 167.301C125.264 168.116 125.281 168.947 125.259 169.729C125.216 171.282 125.235 172.829 125.275 174.382C125.351 177.378 125.52 175.634 125.791 178.618C126.065 181.625 126.401 184.62 126.808 187.612C127.018 189.152 127.241 190.691 127.477 192.228C127.586 192.945 127.699 193.661 127.815 194.378C127.952 195.223 127.997 196.024 128.632 196.659C129.116 197.141 130.103 197.1 130.423 196.428C130.828 195.58 130.645 194.853 130.494 193.962C130.372 193.247 130.255 192.531 130.139 191.816C129.892 190.282 129.657 188.746 129.437 187.209C129.013 184.247 128.612 181.28 128.254 178.31C127.892 175.317 127.518 177.065 127.163 174.072C126.984 172.562 126.805 171.055 126.596 169.549C126.49 168.775 126.423 167.951 126.284 167.153C126.328 167.147 126.373 167.138 126.417 167.131C127.38 166.955 128.203 166.413 128.445 165.424C128.677 164.478 128.401 163.39 128.206 162.461C128.04 161.67 127.889 160.66 127.378 159.982C129.178 157.696 130.349 154.82 131.096 152.055C131.909 149.042 132.25 145.897 132.322 142.784C132.406 139.177 132.133 135.591 131.513 132.064C131.498 131.317 131.464 130.57 131.408 129.824C130.863 122.5 128.575 113.832 121.321 110.41C121.293 110.396 121.263 110.383 121.233 110.371C120.664 109.693 119.954 109.083 119.38 108.513C118.365 107.502 117.303 106.535 116.178 105.644C113.95 103.88 111.507 102.471 108.967 101.202C106.398 99.9177 103.792 98.7125 101.282 97.3112C99.0954 96.0884 97.1275 94.6161 95.2594 92.9543C93.1599 91.0854 91.6657 88.5658 91.0794 85.8154C91.0493 85.6718 90.8354 85.7113 90.8322 85.8486C90.6785 90.8895 94.0916 95.3444 98.0196 98.1626C102.716 101.529 108.387 103.123 113.15 106.387C114.334 107.197 115.441 108.112 116.495 109.083C114.88 108.919 113.237 109.023 111.724 109.469C111.128 109.432 110.529 109.422 109.932 109.393C108.566 109.325 107.199 109.262 105.831 109.202C103.044 109.079 100.255 108.967 97.4666 108.869C91.9953 108.676 86.5224 108.53 81.0495 108.434C70.0514 108.24 59.0391 108.202 48.0426 108.52C45.0606 108.605 29.3803 108.012 27.9289 108.18C30.0632 106.338 32.4051 104.834 34.98 103.597C38.2013 102.054 41.5303 101.024 44.9703 100.082C52.0546 98.1437 59.4115 96.2748 65.0808 91.3508C66.4895 90.1265 67.7412 88.7191 68.7664 87.16C69.7456 85.6718 70.8342 83.7665 70.8611 81.9514C70.8801 80.6625 69.0801 80.1932 68.44 81.2974C68.0423 81.9814 67.8458 82.7318 67.521 83.449C67.1977 84.1599 66.8143 84.8455 66.3881 85.5012C65.5498 86.7903 64.5104 87.9402 63.3791 88.9781C60.9675 91.1929 58.0456 92.8152 55.0224 94.0427C48.1583 96.8278 40.6509 98.0031 34.1465 101.675C31.3007 103.281 28.577 105.497 26.8673 108.325C26.5916 108.368 26.3175 108.418 26.0433 108.475C26.2477 108.218 26.4537 107.96 26.6613 107.704C26.7976 107.537 26.5868 107.316 26.4204 107.464C23.1865 110.333 20.2076 113.431 17.5076 116.808C14.9248 120.04 12.5164 123.427 10.8115 127.212C7.74703 134.012 7.07203 141.788 8.65495 149.059C9.08594 151.039 9.69439 152.979 10.4692 154.854C10.8685 155.823 11.3011 156.777 11.7828 157.708Z" fill="black"/>
<path fill-rule="evenodd" clip-rule="evenodd" d="M81.599 15.9062C90.5959 15.9062 101.864 26.1383 105.162 30.4924C107.935 34.1532 107.543 53.0122 107.543 64.1993C107.543 66.5391 106.482 70.9673 106.097 73.2053C104.686 81.4065 98.5372 88.2845 86.3684 88.2845C76.4601 88.2845 68.8351 85.1556 61.4616 77.1528C59.7794 75.3271 51.5639 81.8632 49.8838 79.5094C45.4952 79.5094 41.8257 38.6294 50.442 26.3678C59.0583 14.1062 72.6021 15.9062 81.599 15.9062Z" fill="white"/>
<path fill-rule="evenodd" clip-rule="evenodd" d="M54.5576 18.7861C59.7564 14.0706 66.6823 11.8021 73.6699 11.9696C77.289 12.0565 80.8953 12.7436 84.3131 13.9205C86.0228 14.5114 87.6786 15.2823 89.2615 16.1543C89.8319 16.4678 90.3578 16.8352 90.864 17.2253L90.9902 17.3233H90.9918C92.3497 17.8098 93.5618 18.6834 94.6615 19.7055C96.8655 19.5302 99.087 19.7276 101.218 20.4053C104.184 21.35 106.93 23.0798 108.859 25.5363C111.105 28.3961 111.852 31.8651 111.585 35.4461L111.536 36.0544C111.272 39.2178 110.8 43.2866 108.196 45.3651C107.998 45.5231 107.78 45.6431 107.553 45.7158C109.231 48.5814 110.608 51.763 111.432 54.9762C114.577 67.2491 112.159 80.0481 108.377 91.8772C108.066 92.8518 106.588 93.4995 105.835 92.547C104.492 90.844 102.54 89.5455 100.344 89.3022C98.9888 89.1521 97.6404 89.4238 96.3601 88.8109C95.8578 88.5692 95.3729 88.1743 95.0243 87.694C92.8631 88.5107 90.5354 88.8962 88.2268 88.8014C84.4382 88.6466 80.3882 87.3386 77.7817 84.4698C77.3634 84.0093 77.2574 83.4923 77.3538 83.0262C77.6806 82.91 78.0162 82.8234 78.362 82.7692C81.6673 84.7113 85.3107 86.0091 89.2263 86.0906C91.4888 86.1377 93.6957 85.8222 95.5303 84.4137C95.9272 84.1088 96.2923 83.7712 96.6298 83.4085C100.465 80.9486 103.17 76.7703 104.455 72.2948C105.653 68.1211 105.506 63.7753 105.094 59.4942L104.877 57.2351C104.56 53.9194 104.266 50.5938 104.183 47.2639L104.208 47.2627C105.018 47.2105 105.024 45.9463 104.208 45.9989C102.098 46.1351 100.003 45.7899 97.8996 45.9403C97.882 44.9487 97.8104 43.9615 97.518 43.0051C97.3512 42.4587 96.3968 42.351 96.2957 43.0051C96.1604 43.8803 96.111 44.7506 96.0963 45.6297C92.9477 45.588 89.8021 45.3239 86.6531 45.4324C86.0722 44.8147 85.8873 43.7195 85.6155 42.9576C85.5759 42.8454 85.5363 42.7349 85.4951 42.6227C85.2563 43.7114 84.9179 44.7763 84.4726 45.8188L83.7003 45.8214C79.3184 45.8419 74.8473 45.9725 70.5684 46.8798C70.271 46.6521 70.094 46.255 70.0462 45.8943C69.7358 43.5475 69.2928 41.2631 68.5078 39.0266L68.3954 38.7111C68.3863 38.6849 68.3766 38.6571 68.3664 38.6279C67.7879 39.5588 67.0977 40.4265 66.3449 41.2346C65.9013 41.7109 65.4361 42.1663 64.9586 42.6088C64.4949 43.1222 64.0155 43.6279 63.551 44.1429C63.5692 44.2365 63.585 44.3316 63.5979 44.4285C63.74 45.4972 63.7547 46.581 63.6506 47.6538C63.4624 49.5933 62.9132 51.4621 62.0309 53.1909L62.003 53.364C61.8691 54.1742 61.6784 55.0116 61.2333 55.6217C61.7888 56.2422 62.2168 56.9834 62.4649 57.8069C62.6858 58.5401 61.6684 59.1754 61.1408 58.5755C60.7217 58.0989 60.256 57.7044 59.7445 57.3897C59.7122 57.4335 59.6539 57.455 59.5884 57.4185C58.164 56.6302 55.7444 56.8687 54.3215 57.6112C52.5516 58.5337 51.8608 60.4278 52.0573 62.3472C52.2458 64.1813 53.0508 66.325 54.6115 67.2649C55.3277 67.6962 55.8854 67.7325 56.646 67.5256C56.8892 67.4597 57.1907 67.2578 57.3201 67.1574L57.4474 67.0557C57.946 66.6628 58.4104 66.3938 58.999 66.3834C59.601 66.1963 60.206 66.4559 60.4362 67.0852L60.4504 67.1259C60.5581 67.4466 60.7546 67.8494 60.7118 68.3391C60.6675 68.8636 60.4266 69.3407 60.067 69.7246C60.0052 69.7909 59.9386 69.8573 59.8705 69.9189C66.0659 76.6059 66.8613 87.0258 63.6844 95.3794C63.5465 95.7459 63.3992 96.1077 63.2455 96.4663C62.7147 97.6953 60.6706 97.3146 60.4108 96.0966C60.3331 95.7317 60.2476 95.3684 60.1541 95.0082C59.9823 94.3426 59.7854 93.6832 59.5635 93.0334L59.4791 92.7902C59.2905 92.2531 59.1147 91.7113 58.9245 91.1742L58.9055 91.1128C58.8984 91.0885 58.8905 91.0604 58.8817 91.0288L58.5601 91.7287L57.5824 93.8408C57.125 94.8264 55.6714 94.2907 55.6174 93.3409L55.6161 93.3084C55.6113 93.133 55.605 92.9593 55.5939 92.7871C55.5242 91.4964 55.3008 90.2421 54.9458 89.0147L54.8178 89.1733C52.911 91.5236 50.6731 93.7266 47.6032 94.2689C46.8332 94.4047 45.9617 93.6022 46.4909 92.8266C46.7096 92.5059 46.9203 92.1773 47.1199 91.844C46.9472 91.7634 46.784 91.6797 46.6335 91.5944C45.4689 90.9419 44.4992 90.0131 43.6974 88.9594C41.9972 86.7256 41.3888 83.9137 41.2398 81.1618C41.0814 78.2535 41.3381 75.1873 42.1351 72.3817C42.4805 71.1684 42.9479 70.0042 43.4883 68.8747C43.4502 68.7736 43.4138 68.6725 43.3773 68.5714C42.7942 66.9506 42.3157 65.2934 41.918 63.6173C41.1163 60.2335 40.6853 56.7423 40.633 53.2653C40.5379 47.0365 41.6154 40.7081 43.886 34.8994C46.231 28.909 49.7582 23.1383 54.5576 18.7861ZM51.6378 73.2457C51.2072 72.5697 50.1297 73.1789 50.5296 73.8596L50.5445 73.8839C51.2274 74.9565 51.5475 76.1761 51.9404 77.372C52.1924 78.1413 53.4172 77.8127 53.1621 77.0355L53.0776 76.776C52.6866 75.5633 52.3299 74.3309 51.6378 73.2457ZM55.3872 60.3421L55.6733 60.2041C56.5757 59.7747 57.3664 59.4823 58.4327 59.8571C59.8603 60.3579 61.3894 61.9519 60.4244 63.4984C60.0695 64.0687 59.4388 64.2962 58.7892 64.1619C57.694 63.9355 57.4113 62.9522 56.8556 62.145L56.7599 62.0083C56.4211 61.5199 55.9926 60.8448 55.4284 60.6533C55.3001 60.6091 55.2462 60.41 55.3872 60.3421ZM56.1927 27.5065L56.2848 27.4242C56.898 26.8839 55.998 25.993 55.388 26.5301C52.5961 28.9897 51.6264 32.8395 50.1781 36.1206C49.8533 36.8584 50.945 37.5029 51.273 36.7588C52.6545 33.6279 53.5715 29.8826 56.1927 27.5065ZM89.7433 26.4303C89.0138 26.1026 88.3755 27.161 89.0769 27.5095L89.1031 27.5219C91.5686 28.6325 92.6175 31.1474 93.6221 33.4822C93.9422 34.2279 95.0339 33.5849 94.717 32.8456L94.5357 32.4267C93.4875 30.0205 92.265 27.5679 89.7433 26.4303ZM93.6074 24.9105C92.8341 24.6435 92.503 25.8631 93.2699 26.13C95.3599 26.8551 96.7938 28.4191 98.0028 30.2073C98.456 30.8771 99.5541 30.2452 99.0961 29.5691C97.6923 27.4934 96.0253 25.7509 93.6074 24.9105Z" fill="black"/>
<path fill-rule="evenodd" clip-rule="evenodd" d="M89.3635 77.1922C88.2983 76.759 87.3479 76.0363 86.6531 75.1132C86.4115 74.7923 86.3489 74.4534 86.3996 74.1435C86.4566 73.795 86.6634 73.4791 86.9454 73.2672C87.2283 73.0547 87.5822 72.9499 87.9244 73.0033C88.2217 73.0497 88.5176 73.212 88.7518 73.5486L88.8008 73.6159C89.2139 74.1731 89.7521 74.6302 90.3655 74.9249C90.9566 75.2089 91.6178 75.3414 92.302 75.2643C93.605 75.1176 94.5032 74.415 95.4578 73.4609C95.5761 73.3404 95.6945 73.2162 95.8135 73.09C95.8887 72.9755 95.9929 72.902 96.1087 72.8634C96.2372 72.8206 96.3827 72.823 96.5158 72.8693C96.6443 72.914 96.7591 72.9987 96.8361 73.1114C96.9093 73.2186 96.9508 73.3509 96.9373 73.5031C96.85 74.4919 96.3315 75.3744 95.5949 76.0673C94.7769 76.8368 93.6926 77.3692 92.6718 77.5559C91.5471 77.7616 90.4011 77.6142 89.3635 77.1922ZM93.2025 61.9391C94.399 62.6642 96.2221 64.355 94.935 66.1526C93.4198 67.7376 91.2384 65.9203 90.1634 65.0984C89.1666 64.4614 88.0467 66.0996 88.9715 66.8434C96.7393 72.5771 99.8917 62.1287 93.8077 61.0865C93.1378 60.9717 92.889 61.7147 93.2025 61.9391ZM79.2822 55.2688C79.4144 53.6328 81.9136 53.2612 82.1622 54.8802C82.3848 56.3303 82.1228 57.6625 81.4676 58.9682C80.8415 60.2155 79.268 59.6336 79.149 58.4978C78.9895 56.9752 79.2 56.2865 79.2822 55.2688ZM98.3064 54.5449C98.6548 54.0899 99.1579 53.7794 99.7606 53.9549C101.644 54.5035 101.089 57.169 100.427 58.4664C100.068 59.171 98.9064 59.3497 98.3815 58.7293C97.5258 57.7176 97.1161 55.6973 98.2038 54.7008C98.2333 54.6493 98.2661 54.5974 98.3064 54.5449ZM81.4411 48.1099L81.7386 48.058C82.6588 47.8993 83.8031 47.7469 84.4541 48.4845C84.7993 48.8756 84.9182 49.6026 84.4541 49.977C83.6377 50.6358 82.7352 50.3805 81.7569 50.4362C80.9507 50.4824 80.1759 50.6154 79.3993 50.8367C77.6957 51.3222 76.3075 52.2084 74.8524 53.1815C74.6615 53.3091 74.4666 53.0657 74.5577 52.8877C75.3977 51.2474 77.0254 49.9001 78.6559 49.0788C79.5261 48.6404 80.4784 48.2767 81.4411 48.1099ZM96.5902 47.3755L96.8178 47.4219C99.2956 47.9383 102.515 48.9697 103.688 51.3961C103.733 51.7392 103.686 51.8127 103.647 51.8608L103.634 51.8768C103.603 51.9178 103.577 51.9743 103.428 52.021C103.387 52.0112 103.345 52.0008 103.303 51.9898C102.765 51.8492 102.339 51.6557 101.927 51.4548L101.481 51.2354C100.963 50.9821 100.44 50.738 99.8857 50.5577C98.7034 50.1732 97.4872 49.9024 96.2522 49.7578C95.9845 49.7264 95.7267 49.6364 95.5234 49.482C95.3303 49.3355 95.1829 49.1326 95.1157 48.863C95.0285 48.514 95.0536 48.2498 95.2414 47.935C95.3826 47.6985 95.5846 47.5347 95.8167 47.4406C96.0532 47.3446 96.3225 47.322 96.5902 47.3755Z" fill="black"/>
<path fill-rule="evenodd" clip-rule="evenodd" d="M106.563 63.3523C105.496 64.7812 103.519 65.2363 101.694 65.0791C97.7599 64.7016 96.5216 60.2466 96.3926 56.7839C99.031 57.5239 96.1695 52.2833 105.188 51.707C108.368 51.4429 107.491 53.3572 108.896 54.7559C108.867 57.6913 108.377 60.881 106.563 63.3523ZM87.8232 59.979C85.5003 70.8243 72.7802 68.2446 71.444 58.4683C72.6778 57.6001 72.3529 55.4562 73.8857 54.6795C76.3151 53.132 79.3519 53.1982 82.1107 53.2345C85.637 53.476 86.6419 54.9324 88.4534 56.5213C88.3662 57.5826 88.1149 58.8403 87.8232 59.979ZM111.602 49.9107C111.472 49.8891 111.341 49.8687 111.211 49.8496C111.109 49.7919 110.989 49.7475 110.85 49.7208C110.532 49.6404 110.217 49.5862 109.902 49.557C105.381 48.5427 94.9221 49.9829 94.4905 53.8292C93.0508 54.3084 91.8051 53.8793 90.1364 53.922C88.8663 48.6291 66.9077 49.3761 65.8516 52.5672C65.8477 52.5661 65.8437 52.5651 65.8396 52.5639C64.8249 52.2508 63.3289 52.3263 62.1675 52.2767C59.6876 52.2248 57.2048 52.4452 54.7785 52.9667C50.2349 53.6866 44.0339 54.5294 47.1939 60.1861C47.1945 60.187 47.195 60.1881 47.1958 60.1891L47.1963 60.1886C47.7409 60.7451 48.6651 60.297 48.6995 59.5436C47.6371 56.8637 50.0367 56.5419 51.8829 55.7718C56.4769 54.1264 61.1541 53.8983 65.9054 54.4072C66.2628 54.8268 66.8052 55.1927 67.3785 55.3842C70.5553 55.9099 68.8811 58.2593 70.8891 58.601C70.5202 66.7906 80.4933 71.2609 86.2718 65.8774C88.579 63.6285 89.129 60.297 89.6639 57.2941C89.9468 57.2307 90.1266 57.0765 90.2317 56.8724C90.9119 56.1953 91.3392 55.5701 92.6843 55.3842C94.0294 55.1984 95.0649 55.5714 95.205 55.6856C95.2403 55.7565 95.2782 55.8276 95.3222 55.8987C95.3837 56.0047 95.4673 56.0892 95.5624 56.1557C94.2341 64.3109 100.584 69.4684 106.995 65.2387C109.781 62.6263 110.369 58.6267 110.486 55.0568C110.863 54.8297 111.102 54.3894 110.972 53.8359C110.791 53.0728 111.214 52.4122 111.887 52.0805C112.761 51.6497 112.606 50.0764 111.602 49.9107Z" fill="black"/>
</g>
<defs>
<clipPath id="clip0">
<rect width="180" height="194.336" fill="white" transform="translate(-18)"/>
</clipPath>
</defs>
</svg>
