<svg width="275" height="557" viewBox="0 0 275 557" fill="none" xmlns="http://www.w3.org/2000/svg">
<path fill-rule="evenodd" clip-rule="evenodd" d="M81.8757 201.379L81.6315 204.288L81.4493 203.947C81.4234 209.815 80.553 215.746 79.593 221.601C77.0835 219.54 75.0206 217.723 75.6164 214.204C77.1255 209.19 79.0608 204.299 80.6254 199.312L80.8877 200.62L81.9205 200.828L81.8757 201.379ZM261.097 510.487C260.635 508.448 260.131 506.29 259.658 504.245C259.612 504.073 259.179 504.034 259.04 503.987C256.542 497.878 254.356 496.485 249.518 495.654C241.716 494.245 234.017 491.189 226.647 486.66C226.819 485.986 227.289 484.822 227.717 483.579C227.661 483.598 227.605 483.615 227.547 483.626C227.448 483.645 227.355 483.65 227.266 483.644C226.767 484.816 226.223 485.846 225.935 486.225C225.014 485.632 223.99 484.98 223.088 484.35L223.092 484.339C222.289 483.783 221.297 483.096 220.51 482.668C220.363 481.856 219.171 481.604 218.548 481.067C217.339 480.204 216.668 479.759 215.559 480.861C213.167 477.758 211.24 474.477 209.346 470.235C208.16 467.755 207.578 465.01 205.984 462.796C206.015 462.779 207.028 462.464 207.053 462.435C188.941 422.361 186.04 377.77 182.176 334.935C181.324 325.356 180.432 315.688 178.771 306.39C178.543 304.982 178.339 303.595 177.49 302.472C187.669 294.096 187.768 277.861 182.838 265.819C194.173 235.279 171.954 202.842 173.594 171.674C174.513 150.532 170.702 126.035 146.791 120.963C143.826 119.258 140.271 119.004 137.441 118.958C134.894 117.672 134.492 114.835 133.585 112.502L132.699 112.507C132.439 111.452 132.182 110.294 131.958 109.23C131.622 108.556 131.821 107.677 130.762 107.864C128.361 104.392 109.145 102.646 108.927 108.237C108.233 108.645 108.096 109.442 107.935 110.411C106.869 117.277 99.5278 122.752 92.9132 121.648L92.806 121.551C64.6453 120.509 53.5594 140.518 48.0566 167.787C43.757 188.975 41.0241 211.936 44.3911 233.159C47.6806 242.777 57.6443 247.404 65.3527 253.329C64.4641 255.566 64.3811 258.033 64.3541 260.453C64.2524 263.247 64.049 266.063 63.8016 268.819C63.2947 272.312 62.4741 278.325 67.2348 278.732C69.0791 320.48 72.9312 362.119 67.045 403.989C62.1585 427.144 64.0292 455.161 70.071 477.817C70.4196 478.936 71.3149 479.943 72.4585 479.585C73.0392 479.96 73.4928 480.195 73.973 479.841C74.256 480.365 74.566 480.868 74.9013 481.355C75.0281 487.58 75.7347 493.686 75.4131 499.951C74.9334 499.896 73.8783 499.368 73.4683 499.713L73.4097 500.191L73.0194 500.324C72.2024 502.626 71.6898 505.043 71.3106 506.992C69.6574 510.333 67.5454 516.247 68.7231 519.969C68.666 520.035 68.3489 520.404 68.299 520.459C68.0176 520.62 67.9657 520.835 67.897 521.082C67.0947 521.383 67.0124 522.299 66.9297 523.235C66.5279 525.504 67.1249 527.566 67.33 529.786L67.3421 529.771C67.3421 529.771 68.0157 530.551 68.0168 530.552C76.4825 531.066 84.8188 531.198 93.2469 531.501C93.8828 530.284 94.0744 528.64 94.5523 527.303C104.544 534.604 121.856 531.811 134.406 530.018C139.503 529.284 144.319 528.591 148.588 528.36C148.865 528.322 148.885 528.202 148.893 528.092C148.935 526.421 149.249 524.707 149.092 523.085C149.974 522.23 149.572 520.672 148.966 519.303C146.738 514.484 140.683 513.957 135.778 513.134C126.549 511.345 119.127 507.98 113.124 502.836C113.528 502.471 113.894 502.113 114.228 501.762C114.098 501.676 113.967 501.589 113.837 501.501C113.521 501.363 113.219 501.221 112.942 501.042C112.801 501.121 112.624 501.138 112.45 501.04C111.846 500.701 111.354 500.204 110.781 499.823C110.668 499.987 110.553 500.153 110.438 500.326C109.889 499.748 109.267 499.093 108.723 498.486C108.703 498.318 108.748 497.9 108.543 497.855C106.997 498.011 105.207 498.531 103.59 499.109C101.762 493.111 100.704 486.619 100.826 480.489C102.623 480.489 104.197 480.473 105.537 479.619C105.904 479.718 106.414 479.93 106.509 479.355C107.053 477.007 107.194 474.522 107.331 472.118C110.113 426.651 114.351 390.115 128.408 351.6C129.758 356.947 132.025 362.509 134.087 367.833C143.471 390.082 150.231 414.077 156.026 437.429C158.306 446.17 160.784 455.776 163.232 464.426C164.181 468.584 166.111 470.107 170.155 470.074C173.271 470.22 176.398 470.174 179.526 469.955C183.792 473.839 185.541 479.081 186.787 483.802C185.749 484.573 184.101 484.282 182.887 484.537C181.84 486.222 182.203 488.578 182.227 490.656C182.391 493.357 182.251 496.254 183.039 498.804C183.179 501.592 183.197 504.647 183.407 507.89C181.094 509.229 181.518 512.188 182.286 515.019C182.629 515.74 195.057 515.597 198.14 515.567C201.763 515.356 206.929 516.281 208.117 512.314C216.741 517.099 229.863 515.482 239.911 514.074C247.203 513.186 253.81 512.36 260.971 510.855C261.045 510.822 261.149 510.592 261.097 510.487Z" fill="white"/>
<path fill-rule="evenodd" clip-rule="evenodd" d="M108.494 106.735C109.052 106.623 109.531 106.788 109.869 107.094C109.942 107.846 109.933 108.597 109.871 109.349C109.809 109.402 109.74 109.454 109.664 109.502L109.722 109.465C109.774 109.431 109.81 109.406 109.833 109.388C109.098 114.284 105.695 118.449 101.284 120.663C101.011 121.112 100.394 121.082 99.9501 121.285L99.327 121.481C97.6111 122.018 95.8746 122.526 94.0596 122.56C98.6744 135.507 116.721 142.542 129.487 143.497C140.513 144.078 146.631 134.945 143.722 124.701C137.335 123.876 131.056 117.089 133.371 110.531L133.444 110.332C133.459 110.265 133.549 110.289 133.556 110.348C133.627 111.016 134.025 111.752 134.203 112.405L134.285 112.637C134.899 114.405 135.444 116.514 137.179 117.455L137.476 117.462C140.597 117.543 143.857 117.955 146.605 119.498C149.67 120.1 152.599 121.312 155.326 122.815C176.863 134.494 173.416 159.335 174.087 180.023C176.177 208.371 193.469 236.7 183.27 265.159C187.927 277.011 188.287 292.94 178.123 301.982C178.235 302.157 178.329 302.349 178.408 302.546C178.892 303.752 179.041 305.134 179.27 306.414L179.296 306.561C179.846 309.538 180.242 312.546 180.628 315.548C181.39 321.469 181.944 327.417 182.472 333.364L182.547 334.213C183.868 349.161 185.022 364.142 186.754 379.052L187.078 381.262C189.423 397.224 191.978 413.224 195.825 428.865C195.939 429.285 196.051 429.704 196.167 430.123C197.554 435.14 199.186 440.073 200.72 445.045C201.205 446.619 201.743 448.169 202.31 449.706L203.015 451.454C203.133 451.745 203.251 452.036 203.369 452.327C204.62 455.4 205.952 458.437 207.354 461.443C207.607 461.986 207.239 462.485 206.805 462.624C208.085 464.653 208.568 467.069 209.638 469.222C211.168 472.656 212.98 475.996 215.242 479.008C216.493 478.068 217.89 479.282 218.931 479.975C219.598 480.39 220.465 480.702 220.727 481.434C221.231 481.723 221.721 482.042 222.185 482.361L222.231 482.21C222.795 480.408 223.898 477.99 225.691 477.185C227.787 476.305 229.458 478.06 228.831 480.159C228.447 482.035 227.846 483.831 227.206 485.64C233.653 489.528 240.703 492.477 248.12 493.956L248.373 494.006C250.162 494.361 251.981 494.607 253.622 495.456C256.34 496.947 258.095 499.779 259.193 502.612C259.574 502.705 259.925 503.037 260.009 503.402L260.733 506.526C260.974 507.568 261.214 508.609 261.45 509.651C261.579 510.216 261.277 510.928 260.653 511.054C256.348 511.914 252.022 512.667 247.678 513.303C235.345 514.443 219.476 518.452 208.024 512.823C206.197 516.575 201.109 515.502 197.656 515.785C195.559 515.63 180.838 516.429 180.979 514.653L180.897 514.347C180.246 511.865 179.66 508.53 182.031 506.821C181.882 504.019 181.772 501.216 181.726 498.413C180.9 495.752 181.043 492.81 180.875 490.033C180.897 487.963 180.414 485.573 181.546 483.722C181.646 482.495 184.376 483.15 185.28 482.7L185.2 482.409C183.953 477.894 182.22 473.5 178.718 470.194C175.691 470.395 172.656 470.43 169.626 470.288C165.012 470.307 162.907 468.31 161.903 463.974C161.183 461.431 160.481 458.883 159.789 456.332C154.391 436.257 149.489 416.006 143.524 396.088C141.244 389.412 138.721 382.818 136.177 376.241C134.453 371.783 132.727 367.326 131.001 362.868C130.115 360.578 129.242 358.275 128.471 355.944C128.234 355.227 128.02 354.507 127.817 353.783C114.435 390.919 110.191 430.372 107.823 469.55C107.607 472.678 107.57 475.841 106.86 478.903C106.643 479.846 105.846 480.106 105.142 479.899C103.846 480.585 102.887 480.666 101.218 480.692L101.231 481.229C101.326 485.079 101.561 488.918 102.436 492.677C102.783 494.247 103.404 495.773 103.741 497.336C105.1 496.875 106.489 496.527 107.918 496.356C108.639 496.27 109.052 496.873 109.081 497.491C109.347 497.784 109.614 498.074 109.887 498.361L110.024 498.184C111.307 496.529 112.952 494.261 115.182 494.075C116.197 494.013 117.123 494.585 117.344 495.615C117.556 497.983 115.592 500.576 113.935 502.146C120.075 507.219 127.685 510.149 135.452 511.643L135.756 511.693C140.738 512.507 146.885 513.149 149.261 518.297L149.31 518.407C149.868 519.662 150.395 521.563 149.487 522.712C149.594 524.283 149.303 525.898 149.266 527.483C149.226 528.128 148.791 528.501 148.175 528.573C132.32 529.423 108.152 536.833 94.572 528.016C94.2925 528.992 94.0044 529.968 93.7369 530.948C93.6196 531.38 93.1831 531.734 92.7259 531.716C84.3197 531.415 75.8859 531.279 67.4901 530.767C67.2458 530.772 67.0415 530.663 66.8715 530.466C66.6745 530.707 66.1713 530.641 66.104 530.298C65.9855 529.696 65.9847 529.085 65.9305 528.475C65.8677 527.769 65.6787 527.117 65.568 526.427C65.3635 525.152 65.4555 523.784 65.5821 522.504L65.6145 522.181C65.7032 521.335 65.8609 520.374 66.6263 519.895L66.6771 519.865C66.6798 519.863 66.6826 519.862 66.6853 519.861C66.7701 519.591 66.9709 519.358 67.2249 519.174L67.2399 519.156C66.8399 518.203 66.994 516.997 67.1107 516.004C67.433 512.547 68.4018 509.128 69.9986 506.059C70.4538 503.726 71.0058 501.311 71.826 499.09C71.8036 498.988 71.9313 498.902 72.0296 498.947C72.0636 498.929 72.0971 498.916 72.1302 498.905C72.1343 498.87 72.1411 498.837 72.1519 498.804C72.2936 498.387 72.7315 498.158 73.1415 498.093C73.4888 498.038 73.7897 498.131 74.1015 498.209C74.3261 492.178 73.6125 486.156 73.5393 480.126C72.9653 480.405 72.3209 480.158 71.7915 479.839C70.2559 480.075 69.1672 478.767 68.746 477.392L68.4992 476.277C66.2854 466.243 64.2906 456.12 63.2181 445.891C61.7357 431.613 63.5265 417.322 65.702 403.212C71.6071 366.057 67.3296 328.499 66.9086 291.14C66.5566 287.061 66.411 282.938 65.9631 278.861C64.2977 278.663 63.0387 277.107 62.476 275.615C61.5944 273.252 62.231 270.524 62.4536 268.095C62.7003 265.402 62.8815 262.704 62.999 260.004L63.0128 259.216C63.0529 257.111 63.1445 254.991 63.8443 252.987C56.381 247.25 46.4839 242.743 43.3258 233.153C41.8888 231.861 42.1782 225.871 41.9437 223.674C40.9851 204.667 42.6094 185.535 46.7251 166.956C51.8762 141.637 62.4286 118.948 92.0064 120.032C91.9839 120.015 91.9598 119.996 91.9374 119.977C92.2497 119.874 92.5723 119.975 92.8018 120.182C97.8381 120.828 102.652 117.857 105.168 113.587C105.785 112.522 106.244 111.411 106.489 110.203L106.509 110.107C106.765 108.779 106.837 107.068 108.494 106.735ZM70.2823 520.218C69.5675 520.613 68.7854 520.66 68.1273 521.186C67.6649 523.712 67.7029 526.332 68.2584 528.839C76.1436 528.923 84.039 529.321 91.9207 529.592C92.2382 528.374 92.5384 527.149 92.8697 525.934L92.8775 525.909L92.8948 525.861C93.7129 525.889 94.531 525.912 95.3494 525.933C107.454 534.596 132.532 527.234 147.144 526.511L147.294 524.084C147.146 524.187 147 524.244 146.859 524.264C146.995 523.909 146.754 523.448 146.272 523.582C145.494 523.8 144.713 524 143.929 524.187C143.869 524.164 143.802 524.153 143.726 524.159C136.867 524.744 129.979 524.689 123.101 524.71C116.247 524.731 109.4 525.019 102.545 525C99.7485 524.992 96.9527 524.95 94.1578 524.867C86.108 523.374 78.1154 521.613 70.2823 520.218ZM258.179 505.417C257.84 505.662 257.397 505.683 256.926 505.747L256.858 505.756C256.427 505.819 255.996 505.878 255.562 505.911C254.491 506.602 252.357 506.508 251.324 506.705C228.648 508.968 205.815 506.283 183.117 508.101C182.033 509.644 182.297 511.555 182.874 513.28C189.212 513.518 195.556 513.646 201.898 513.373L202.405 513.354C203.188 513.323 203.991 513.267 204.715 512.971C205.362 512.708 206.157 512.054 206.056 511.27L206.049 511.226C205.894 510.327 206.839 509.274 207.759 509.913C216.432 515.659 228.217 512.77 237.988 512.205C245.03 511.46 252.033 510.401 258.983 509.059C258.714 507.845 258.446 506.63 258.179 505.417ZM99.7788 479.965C99.0515 480.048 98.3234 480.122 97.5943 480.188C94.6699 480.452 91.7353 480.584 88.8007 480.668L87.4307 480.706C84.6961 480.779 81.944 480.844 79.2145 480.696C77.8342 480.621 76.4187 480.459 75.0841 480.084C76.2582 486.234 76.8621 492.497 76.8433 498.756C77.21 499.073 77.1358 499.596 77.0383 499.997L77.1302 500.269C77.3442 500.905 77.5486 501.552 77.6301 502.204C86.1031 507.235 93.1374 502.082 100.863 498.474C99.5895 495.167 99.2022 491.541 98.9889 488.03C98.87 485.298 99.0745 482.633 99.7788 479.965ZM115.18 496.206C114.827 496.246 114.5 496.467 114.214 496.662C113.036 497.505 112.018 498.502 111.088 499.581C111.445 499.932 111.809 500.279 112.18 500.618C113.572 499.498 114.665 497.938 115.18 496.206ZM205.236 464.229L204.089 464.615C197.006 466.988 189.778 469.215 182.255 469.881C182.659 470.28 182.999 470.754 183.297 471.257C183.557 471.478 183.82 471.76 183.746 472.094C183.987 472.582 184.201 473.077 184.405 473.543C185.595 476.369 186.968 479.15 187.971 482.059C188.262 483.274 189.407 484.972 188.874 486.148C196.871 489.626 206.82 488.077 212.929 481.715L212.714 481.398C209.203 476.204 206.118 470.499 205.236 464.229ZM226.927 478.91C226.442 478.493 225.591 479.644 225.376 479.93C224.579 480.99 224.03 482.149 223.623 483.362C224.135 483.713 224.651 484.042 225.172 484.379L225.201 484.331C225.686 483.495 227.43 479.44 226.927 478.91ZM74.835 478.821L74.8435 478.863C75.2728 478.93 75.7029 478.99 76.135 479.039C77.1844 479.158 78.2476 479.211 79.3068 479.233C77.816 479.018 76.3242 478.843 74.835 478.821ZM86.2003 276.636L85.8474 276.601L85.3939 276.545C79.5738 275.823 73.7087 274.858 67.8479 275.796C68.6595 279.545 68.7137 283.474 68.976 287.315C70.2269 324.311 74.7314 361.518 69.6845 398.427L69.5286 399.546C67.689 412.672 65.5002 425.844 66.3813 439.146C67.0685 451.27 69.5393 463.188 71.9941 475.052C72.5842 475.201 73.1742 475.349 73.7661 475.494C73.7833 475.329 73.8858 475.423 73.9058 475.528C81.1762 477.466 88.764 477.633 96.2343 477.146C97.6429 477.065 99.0452 476.951 100.453 476.855C101.538 476.383 102.698 476.083 103.874 475.876C106.356 438.227 109.605 400.148 121.268 364.052C128.693 341.121 137.966 318.792 143.454 295.273C143.643 294.613 144.644 294.891 144.482 295.557L144.31 296.459C142.917 303.825 141.661 311.214 139.492 318.413C141.139 316.622 143.017 315.04 144.572 313.165C145.056 312.574 145.502 311.952 145.885 311.289C146.248 310.467 146.831 309.824 147.734 309.632C148.148 309.465 148.533 309.816 148.669 310.162C149.049 311.118 148.889 311.8 148.336 312.642L148.198 312.85C145.758 316.451 141.853 318.554 138.631 321.38C135.933 330.373 132.829 339.237 129.785 348.116C129.747 349.882 130.068 351.626 130.585 353.31C131.175 355.041 131.703 356.876 132.608 358.499C145.193 384.771 151.535 413.396 159.182 441.349C161.195 448.804 163.234 456.256 165.428 463.661L165.46 463.795C165.96 465.882 166.74 466.722 169.031 466.719C180.509 467.246 192.294 465.375 202.751 460.765C196.991 445.416 192.992 429.531 189.882 413.434C188.313 405.824 187.042 398.155 185.971 390.455C184.48 380.624 183.165 370.772 181.832 360.968C179.105 341.755 179.225 322.203 175.75 303.107C174.563 303.146 173.545 301.738 174.268 300.686C174.016 299.641 174.24 298.498 174.614 297.532L174.569 297.322C170.498 300.933 165.184 301.39 167.911 294.448L168.1 293.977C170.147 288.883 172.752 283.442 171.597 277.855C159.787 284.15 145.351 283.134 132.658 280.375C133.646 283.965 130.983 286.166 127.978 283.756C127.437 283.318 126.905 282.865 126.384 282.397C127.148 285.421 126.738 288.592 126.032 291.59L125.965 291.935C125.621 293.734 125.231 296.122 123.862 297.367C122.863 298.273 121.358 297.887 120.909 296.593C120.659 292.313 119.464 288.103 117.276 284.381C117.641 287.102 117.552 289.896 116.881 292.505C116.622 293.502 116.263 294.52 116.178 295.552L116.191 295.721C116.32 297.54 116.078 299.21 113.807 299.246C108.423 298.299 111.82 285.574 108.392 281.55C107.35 286.407 108.563 292.791 103.83 296.014C102.522 296.831 100.926 296.357 100.66 294.772L100.754 293.526C101.319 285.925 101.213 283.647 96.3327 276.521C93.023 277.313 89.5571 276.974 86.2003 276.636ZM182.113 471.984C182.117 472.013 182.119 472.041 182.12 472.07C182.177 472.128 182.233 472.186 182.289 472.245L182.372 472.334L182.276 472.096C182.222 472.062 182.167 472.022 182.113 471.984ZM177.67 302.375L177.448 302.562C177.411 302.593 177.374 302.623 177.336 302.654C177.533 303.531 177.717 304.41 177.895 305.289L177.861 304.71C177.828 304.14 177.919 303.106 177.67 302.375ZM174.076 224.46C172.41 216.72 170.751 213.454 172.86 224.602L173.088 225.806C174.002 230.633 174.964 236.105 175.868 241.996L176.057 243.23C177.001 249.338 178.484 258.279 178.593 265.443C178.718 273.57 174.586 275.982 172.953 277.035C172.648 277.929 173.035 278.675 173.293 279.533C173.64 280.911 173.73 282.236 173.631 283.652C173.288 288.484 170.703 292.849 169.528 297.434C171.034 297.021 172.713 295.666 174.028 294.593C176.363 292.737 177.993 289.988 178.697 287.072C179.032 285.696 178.788 283.995 179.727 282.867C180.003 282.534 180.6 282.567 180.881 282.867C181.647 283.682 181.575 284.681 181.451 285.723C181.033 289.27 179.472 292.746 176.956 295.299C176.838 296.609 176.446 297.777 176.187 299.022C176.287 299.301 176.387 299.58 176.482 299.861C178.186 298.391 179.61 296.613 180.714 294.655C185.64 286.015 183.92 276.065 182.645 266.642C182.389 267.273 181.806 267.524 181.239 267.462C180.913 268.277 180.061 267.758 180.027 266.704C179.816 260.139 178.943 250.805 177.336 241.244C176.378 235.547 175.218 229.771 174.076 224.46ZM111.869 254.272C109.425 261.845 99.7961 263.322 94.1713 267.941C96.9965 275.385 104.904 283.356 102.577 292.958L102.564 293.03C102.494 293.398 102.265 294.436 102.512 294.631C102.669 294.755 103.635 293.812 103.804 293.626C107.188 289.605 105.219 283.918 107.122 279.333C107.372 278.723 108.152 278.363 108.68 278.923C111.06 281.441 111.635 284.835 111.999 288.152L112.012 288.266C112.305 290.846 112.144 293.504 112.909 296.012L112.938 296.101C113.101 296.586 113.405 297.269 113.744 297.393C114.681 297.732 114.329 296.233 114.362 295.64C114.46 293.928 115.188 292.324 115.444 290.637C115.989 287.019 115.446 283.223 114.243 279.793C113.862 278.704 115.363 278.319 115.942 279.078C118.349 282.234 120.278 285.742 121.55 289.507C122.062 291.025 122.335 292.562 122.677 294.109C124.808 287.647 124.747 280.854 119.92 275.557C118.777 274.187 120.68 272.212 121.911 273.57C123.186 275.088 124.435 276.624 125.822 278.045C127.19 279.421 128.508 281.116 130.199 282.098C129.925 275.913 123.28 273.119 119.736 268.884C116.124 264.619 114.148 259.3 111.869 254.272ZM79.9351 202.041C78.6413 205.971 77.1258 209.831 75.9564 213.802C75.7135 216.489 76.542 217.604 78.5185 219.31C79.3738 214.435 79.728 209.491 80.1852 204.564C80.1157 203.721 80.1017 202.872 79.9351 202.041ZM80.5728 200.11L80.4433 200.508L80.4863 200.584L80.5279 200.661L80.5728 200.11ZM159.436 150.935L159.93 154.189C161.745 166.118 163.618 178.045 166.194 189.837C166.336 190.486 167.174 189.614 167.02 188.356C165.435 175.417 159.458 150.782 159.435 150.923L159.436 150.935ZM144.184 124.775C144.299 124.913 144.408 125.058 144.513 125.204C144.491 125.073 144.468 124.941 144.444 124.808C144.356 124.798 144.27 124.788 144.184 124.775Z" fill="black"/>
<path fill-rule="evenodd" clip-rule="evenodd" d="M156.228 78.4541C155.574 67.7374 152.091 55.5875 141.842 50.3258C119.246 41.2707 89.5373 64.074 87.9644 87.3694C87.4161 95.3436 91.85 104.057 99.9527 106.274C101.754 108.657 104.479 110.113 107.168 111.376C139.196 127.969 159.885 114.481 156.228 78.4541Z" fill="white"/>
<path fill-rule="evenodd" clip-rule="evenodd" d="M163.524 71.7875C162.392 68.6484 161.197 65.5334 159.939 62.4426C158.714 59.4344 157.607 56.3613 156.086 53.4957C147 36.3806 130.477 36.3806 121.937 38.6169C117.507 36.7114 109.212 37.2489 104.6 38.9683C97.1335 41.752 88.0322 52.7023 84.9204 57.6221C78.05 68.4847 73.7624 82.9426 78.3261 95.4949C78.9226 97.1354 79.6833 98.6548 80.5398 100.119C80.0003 100.849 79.3793 101.541 78.6914 102.22C76.6471 104.24 74.6028 106.193 72.8369 108.471C71.082 110.734 69.6271 113.142 68.5441 115.796C66.5019 120.801 66.4035 126.469 69.1035 131.245C71.4524 135.4 75.6136 138.495 80.3017 138.79C80.5424 138.823 80.7834 138.854 81.0255 138.878C81.6466 139.9 82.4041 140.841 83.2685 141.661C85.917 144.176 92.2303 145.466 95.8312 145.549C96.0158 145.697 96.2022 145.846 96.3885 145.992C98.5919 147.723 100.904 149.47 103.433 150.702C105.147 151.538 107.393 152.236 109.181 151.633C109.992 152.174 111.322 152.06 112.126 151.617C113.448 150.89 114.523 149.581 115.176 148.24C116.762 144.986 116.381 141.425 115.974 137.948C115.525 134.108 115.094 130.266 114.655 126.425C114.312 123.422 113.953 120.369 113.039 117.477C112.566 115.978 111.947 114.537 111.146 113.183C111.167 113.069 111.163 112.956 111.13 112.849C110.868 111.998 110.326 111.552 109.685 110.973C109.602 110.899 109.519 110.823 109.438 110.745C109.117 110.38 108.773 110.041 108.406 109.753C108.264 109.61 108.125 109.465 107.985 109.32C106.824 108.106 105.726 106.829 104.752 105.461C103.806 104.135 102.952 102.749 102.139 101.338C101.313 99.9032 100.766 98.3199 99.9411 96.895C99.8704 96.7727 99.6909 96.7486 99.5909 96.8502C99.3355 97.1138 99.1716 97.4067 99.2027 97.7151L99.075 97.7341C99.0267 97.2689 98.597 96.8899 98.0139 96.9915C97.1408 97.1431 96.423 97.2 95.6673 96.9105C95.8002 96.0302 95.9227 95.148 96.0434 94.2642C96.2643 92.6378 96.4696 91.0062 96.6456 89.3747C97.0718 89.4763 97.4945 89.6228 97.9086 89.8088C98.4987 90.0724 99.056 90.4273 99.5322 90.8632C100.002 91.294 100.326 91.8746 100.899 92.1743C101.558 92.5172 102.353 91.9504 102.16 91.2061C101.768 89.702 99.5512 88.8406 98.1795 88.5563C97.7085 88.4581 97.2271 88.4167 96.7457 88.4271C96.8544 87.3796 96.951 86.3321 97.0304 85.2828C97.0683 84.7866 97.1028 84.2904 97.1356 83.7925C98.2019 83.4704 99.3441 83.3739 100.454 83.5255C100.819 83.8167 101.185 84.1044 101.539 84.3955C102.662 85.3224 103.78 86.2545 104.884 87.2038C104.984 87.2883 105.083 87.3727 105.183 87.4588C105.839 88.0222 106.656 87.464 106.546 86.6663C105.645 80.1297 109.655 74.93 114.35 70.9019C119.547 66.4414 128.995 65.922 135.176 58.1957C138.022 58.7742 144.377 60.4923 147 64.6651C150.672 70.5126 150.192 75.7519 150.471 82.3849C150.751 89.0232 151.462 95.9475 149.952 102.493C148.56 108.528 144.79 113.685 138.94 116.055C138.796 116.114 138.649 116.171 138.502 116.226C135.478 117.365 132.177 117.687 128.995 117.087C125.474 116.422 122.534 114.813 119.604 112.833C119.435 112.721 119.188 112.952 119.316 113.121C123.177 118.231 130.762 119.939 136.779 118.59C137.06 118.526 137.339 118.457 137.617 118.381C136.271 122.246 136.542 126.487 138.295 130.25C139.349 132.514 140.958 134.473 142.916 136.018C145.074 137.72 147.752 139.095 149.25 141.485C150.622 143.675 150.214 146.135 147.866 147.4C147.274 147.72 147.046 148.755 147.633 149.21C147.857 149.383 148.082 149.558 148.311 149.731C149.626 150.721 153.237 152.582 153.822 152.651C159.016 153.266 162.508 149.458 164.746 144.967C167.373 139.695 166.69 133.27 163.795 128.25C161.473 124.222 156.899 120.252 158.717 115.154C159.366 113.333 160.693 111.781 161.982 110.378C163.452 108.781 165.032 107.286 166.442 105.632C167.843 103.99 169.085 102.203 169.779 100.143C170.792 97.1311 170.288 93.8748 169.527 90.8684C167.896 84.4145 165.779 78.0467 163.524 71.7875Z" fill="black"/>
<path fill-rule="evenodd" clip-rule="evenodd" d="M139.771 99.3497C140.363 98.3067 142.13 98.4762 142.4 99.6928C142.948 102.159 140.003 104.436 137.766 104.493C135.543 104.549 133.049 102.66 133.371 100.274C133.45 99.6838 134.24 99.7555 134.509 100.126L134.613 100.268C135.344 101.248 136.309 102.263 137.666 102.024C138.228 101.925 138.739 101.575 139.079 101.123C139.489 100.578 139.444 99.9273 139.771 99.3497ZM125.637 81.3077C125.939 81.2248 126.243 81.2568 126.51 81.3702C127.105 81.4793 127.603 81.9754 127.778 82.5419C127.792 82.591 127.807 82.6394 127.824 82.6873L127.851 82.7588L127.78 82.5773C127.813 82.7561 127.958 82.9441 128.011 83.1236C128.075 83.3443 128.091 83.595 128.069 83.8379C128.259 83.8398 128.448 83.8462 128.637 83.8625L128.82 83.8789C129.842 83.9737 130.964 84.1477 131.57 85.0294C131.91 85.5249 131.591 86.417 130.966 86.5125C130.003 86.6594 129.174 86.1278 128.215 86.0213C127.309 85.9205 126.36 85.9782 125.465 86.1417C123.618 86.479 121.921 87.2267 120.12 87.6958L119.875 87.7579L119.876 87.7567C119.567 87.8312 119.217 87.4029 119.522 87.1524C120.964 85.9693 122.811 85.0105 124.63 84.4266C124.365 84.0057 124.283 83.4513 124.464 82.9994C124.492 82.9057 124.527 82.8146 124.564 82.7239L124.64 82.5371C124.648 82.4491 124.665 82.3621 124.689 82.2768L124.693 82.2508L124.695 82.2523C124.831 81.8128 125.184 81.4324 125.637 81.3077ZM144.037 81.3757C144.432 80.9817 144.986 81.0399 145.398 81.35L145.452 81.3928C145.84 81.5649 146.162 81.941 146.372 82.2895C146.591 82.6515 146.737 83.0202 146.743 83.4187C147.697 83.4218 148.612 83.7078 149.313 84.4776C149.539 84.726 149.694 85.1092 149.569 85.446L149.495 85.6464C149.26 86.2825 148.201 86.6487 147.842 85.9006L147.825 85.8642C147.443 84.9758 145.976 85.069 145.196 85.1598C144.653 85.2234 144.116 85.3583 143.591 85.5094C143.406 85.5626 143.223 85.6204 143.04 85.6794L142.857 85.7387C142.759 85.7703 142.25 86.0461 142.567 85.9808C142.652 85.9632 142.716 86.0869 142.629 86.1284C142.252 86.3085 141.85 85.95 141.875 85.5454C141.918 84.8432 143.035 84.4582 143.573 84.2161L143.605 84.2014C143.811 84.1063 144.027 84.0152 144.249 83.9306C144.124 83.7445 144.021 83.5377 143.934 83.3158C143.853 83.1063 143.799 82.9027 143.769 82.6799C143.739 82.571 143.739 82.4622 143.769 82.3531L143.773 82.3219C143.758 82.2499 143.751 82.1755 143.752 82.1005L143.749 82.0714H143.752C143.762 81.809 143.867 81.5461 144.037 81.3757ZM137.734 88.8539C139.25 89.3215 141.75 90.5952 140.96 92.5612C139.858 94.3668 136.933 93.0398 135.516 92.4564C134.243 92.0354 133.58 93.817 134.811 94.354C144.984 98.3726 144.947 87.7668 138.103 87.9225C137.35 87.9396 137.326 88.6985 137.734 88.8539ZM124.276 75.0248L124.535 74.9495C125.878 74.561 127.249 73.8901 128.442 74.9369C128.91 75.348 129.006 76.2022 128.671 76.7149C127.908 77.8832 126.776 77.7047 125.543 77.8043C124.604 77.8801 123.68 78.1554 122.804 78.4995C122.088 78.7808 121.423 79.1769 120.796 79.6187C120.18 80.053 119.76 80.732 119.128 81.1229C118.896 81.2663 118.629 81.1188 118.546 80.8864C118.251 80.062 118.749 79.0349 119.17 78.3325C119.685 77.4756 120.466 76.7747 121.306 76.2444C122.226 75.6636 123.243 75.3283 124.276 75.0248ZM143.848 74.1377C146.119 74.137 148.304 75.398 149.574 77.2465C150.005 77.8745 149.689 78.8048 149.069 79.1664C148.374 79.5723 147.631 79.2801 147.174 78.6984L147.146 78.6632C146.418 77.6948 145.479 76.932 144.366 76.4355C143.823 76.1931 143.223 75.9965 142.636 75.8968L142.446 75.8643C142.18 75.8198 141.871 75.7773 141.631 75.8189C141.502 75.8358 141.383 75.8783 141.274 75.9431C141.327 76.0575 141.191 76.1953 141.066 76.1268C140.502 75.8173 140.571 75.2653 141.037 74.8363C141.697 74.2294 142.997 74.1379 143.848 74.1377Z" fill="black"/>
</svg>
