<svg width="159" height="179" viewBox="0 0 159 179" fill="none" xmlns="http://www.w3.org/2000/svg">
<g clip-path="url(#clip0)">
<path fill-rule="evenodd" clip-rule="evenodd" d="M35.158 226.54C35.4561 220.999 35.8223 215.463 36.2608 209.932C37.1345 198.914 38.2785 187.888 40.1821 176.996C42.0602 166.25 44.6886 155.801 48.4754 145.561C50.2322 140.811 52.1347 136.758 54.8947 132.487C57.5045 128.449 60.8347 125.713 64.9836 123.276C68.7218 121.08 73.0646 117.27 76.6499 114.81C78.1467 113.784 81.2263 113.852 82.2527 112.333C83.5968 110.345 82.7253 107.301 84.0803 105.318C85.6291 103.052 87.7989 101.291 90.2456 100.012C92.9161 98.2034 96.0615 97.3845 99.2153 97.4972C103.866 97.2151 108.55 98.6962 111.535 102.483C113.025 104.373 113.895 106.553 114.016 108.967C114.047 109.595 113.845 110.091 113.514 110.448C113.71 110.711 113.906 110.975 114.101 111.24C114.711 110.335 116.139 109.854 117.09 110.537C120.202 112.772 123.566 114.548 127.116 115.851C127.946 115.458 128.952 115.64 129.663 116.282C129.952 116.542 130.258 116.765 130.578 116.954C131.895 117.311 133.231 117.609 134.588 117.839C135.012 117.911 135.372 118.153 135.645 118.478C136.049 118.1 136.605 117.918 137.225 118.155C144.39 120.887 151.156 125.131 156.298 130.881C161.996 137.252 164.988 145.176 167.267 153.295C169.733 162.084 171.309 171.091 172.633 180.113C173.974 189.255 175.295 198.433 176.218 207.628C176.737 212.802 176.935 218.024 176.7 223.221C176.583 225.818 176.346 228.407 175.968 230.98C175.88 231.582 175.788 232.275 175.64 232.967C176.091 232.879 176.628 233.261 176.536 233.871C175.9 238.123 170.761 239.361 167.218 239.851C161.421 240.652 155.594 241.096 149.742 241.13C143.99 241.163 138.24 240.794 132.501 240.463C126.617 240.124 120.733 239.784 114.849 239.439C91.2748 238.056 67.6993 236.688 44.125 235.305C41.9712 235.179 39.5119 235.008 37.6671 233.758C35.1383 232.045 35.0083 229.322 35.158 226.54V226.54Z" fill="white"/>
<path fill-rule="evenodd" clip-rule="evenodd" d="M150.081 178.984C150.163 178.831 149.973 178.693 149.847 178.804C146.986 181.316 145.487 185.351 145.173 189.08C144.84 193.035 145.312 197.13 145.493 201.083C145.693 205.486 145.874 209.892 146.119 214.293C146.367 218.758 146.635 223.222 146.865 227.689L147.382 237.736V237.736C147.437 238.806 147.318 240.123 147.729 241.123C148.365 242.672 150.256 242.432 150.653 241.137L150.666 241.094L150.702 241.123C151.053 239.956 150.79 238.57 150.731 237.363L150.189 226.386V226.386C149.807 218.627 149.466 210.868 149.055 203.111L148.915 200.525C148.723 197.044 148.576 193.572 148.457 190.092L148.419 188.932C148.307 185.438 148.396 182.139 150.081 178.984ZM80.7058 114.573C79.1114 114.421 77.9075 114.95 76.46 115.507C75.8294 115.75 75.2323 116.03 74.6273 116.32C73.87 116.683 73.383 117.326 72.9165 118.005L72.6672 118.371C70.7253 121.217 69.4189 124.501 67.9449 127.6C66.2206 131.225 64.4792 134.842 62.7918 138.484L61.959 140.279C61.5427 141.176 61.1277 142.074 60.7188 142.974L60.0122 144.542C59.3025 146.132 58.6662 147.813 59.6778 149.453C60.6184 150.979 62.286 152.159 63.6064 153.338C64.7079 154.322 65.8097 155.305 66.9118 156.289C64.6337 158.571 63.1044 161.444 62.2055 164.526C60.9283 163.993 59.3694 163.891 58.0488 163.661C56.2003 163.339 55.9738 166.138 57.7184 166.104C59.0068 166.079 60.5184 166.21 61.8401 165.939C61.6104 166.952 61.4437 167.979 61.3377 169.01C60.7824 174.413 61.996 179.846 63.2618 185.073L63.3659 185.502C64.7405 191.16 66.0438 196.832 67.2098 202.537C68.3785 208.253 69.4297 213.994 70.3629 219.754C71.3127 225.616 71.9847 231.511 72.707 237.405C72.8164 238.297 73.3774 239.062 74.3627 239.062C75.1835 239.062 76.1217 238.295 76.0186 237.405C75.2732 230.987 74.2162 224.603 73.166 218.228C71.3573 207.251 69.0808 196.37 66.4617 185.559L66.0043 183.677C64.8259 178.794 63.757 173.763 64.348 168.727C64.8294 164.626 66.5434 160.254 69.931 157.707L70.0341 157.63C70.8254 157.049 71.1299 155.939 70.3505 155.175C69.8546 154.688 69.3581 154.202 68.8613 153.717L65.8792 150.804L65.278 150.216C64.7767 149.726 64.273 149.24 63.7542 148.768C63.4403 148.483 62.589 147.938 62.5267 147.469C62.4863 147.163 62.8488 146.625 62.9957 146.343L63.6688 144.984V144.984C64.051 144.209 64.4214 143.428 64.7947 142.649C65.568 141.034 66.3526 139.424 67.1091 137.802L71.6545 128.059V128.059C72.9367 125.31 74.079 122.408 75.7554 119.867L76.086 119.372C76.3619 118.954 76.6056 118.553 76.7799 118.043C76.9476 117.552 77.158 117.013 77.4679 116.594C78.194 115.612 79.5818 115.054 80.743 114.848C80.9108 114.818 80.8499 114.586 80.7058 114.573ZM115.664 112.014C115.563 112.014 115.548 112.158 115.641 112.186C117.042 112.607 118.381 113.287 119.473 114.269C119.996 114.738 120.522 115.271 120.844 115.904C120.968 116.146 121.036 116.401 121.086 116.666L121.102 116.755C121.185 117.234 121.304 117.5 121.548 117.883L121.589 117.949C122.977 120.093 123.95 122.475 124.84 124.859L126.776 130.059V130.059L128.712 135.259C129.336 136.935 129.96 138.611 130.584 140.286C130.928 141.211 131.283 142.132 131.637 143.054C131.79 143.453 131.955 143.849 132.095 144.253C132.114 144.308 132.176 144.641 132.222 144.722L132.206 144.749V144.749C131.815 145.406 130.774 145.955 130.184 146.432L128.152 148.076V148.076C126.703 149.248 125.217 150.387 123.811 151.612C122.928 152.381 123.478 153.757 124.462 154.078C126.112 154.616 127.728 155.26 129.354 155.868C130.01 156.114 130.694 156.327 131.343 156.598L131.738 156.769C131.892 156.839 131.818 156.838 131.811 157.123C131.805 157.421 131.721 157.733 131.672 158.026C131.125 161.337 130.544 164.643 129.932 167.943C127.765 179.611 125.177 191.195 122.225 202.689C120.734 208.494 119.135 214.27 117.612 220.066C116.092 225.846 114.092 231.544 112.182 237.205C111.643 238.802 114.174 239.489 114.699 237.9C116.9 231.241 118.914 224.524 120.993 217.828C124.687 205.93 127.598 193.773 130.172 181.587C131.449 175.547 132.616 169.484 133.673 163.402C133.873 162.251 134.069 161.099 134.261 159.946L134.542 158.251C134.734 157.042 134.843 155.783 133.904 154.827C132.987 153.893 131.413 153.562 130.206 153.124L130.119 153.092C129.351 152.805 128.578 152.529 127.807 152.245C128.942 151.351 130.063 150.437 131.195 149.544C132.108 148.824 133.035 148.118 133.936 147.381C134.678 146.773 135.283 145.992 135.36 145.003C135.439 143.993 135.006 143.055 134.657 142.129L134.624 142.039C134.281 141.114 133.937 140.189 133.585 139.267L131.404 133.561V133.561C130.018 129.936 128.69 126.28 127.232 122.683C126.656 121.259 126.027 119.858 125.285 118.512C124.926 117.863 124.542 117.228 124.125 116.615C123.657 115.929 123.233 115.594 122.508 115.215C121.35 114.609 120.441 113.593 119.277 112.968C118.135 112.355 116.961 112.028 115.664 112.014ZM111.903 105.545C111.859 105.469 111.742 105.503 111.74 105.589C111.71 107.391 112.138 109.233 112.401 111.014C112.666 112.803 112.751 114.69 113.133 116.459C113.141 116.541 113.157 116.623 113.179 116.702L113.198 116.763V116.763C113.359 117.259 113.779 117.679 114.294 117.81C114.132 118.708 113.98 119.608 113.851 120.512C113.631 122.067 113.43 123.624 113.232 125.182L112.995 127.051C112.771 128.812 112.553 130.575 112.338 132.337C111.791 132.566 111.233 132.755 110.661 132.918C109.345 133.295 107.996 133.449 106.637 133.582C103.87 133.854 101.082 133.979 98.3053 134.133L97.7105 134.167C94.5887 134.346 91.4498 134.378 88.3359 134.057C86.7918 133.898 85.2598 133.632 83.7541 133.254C82.9889 133.062 82.2453 132.775 81.4817 132.587C81.2284 132.525 81.0021 132.382 80.7483 132.228C80.6356 132.086 80.4775 131.978 80.2716 131.936L80.2158 131.926V131.926L80.1605 131.918L80.1415 131.91L80.143 131.916C79.9867 131.895 79.8383 131.895 79.6984 131.914C79.6427 130.54 79.5823 129.166 79.5066 127.792C79.3035 124.102 78.7426 120.253 79.4913 116.595C79.5163 116.472 79.3491 116.428 79.3055 116.544C77.8364 120.416 78.0014 124.65 77.9274 128.725C77.8551 132.711 77.8988 136.699 77.9186 140.686C77.6332 140.807 77.3787 140.972 77.177 141.203C76.7743 141.665 76.6584 142.468 77.177 142.913C77.4069 143.111 77.6612 143.248 77.9311 143.343C77.9455 146.807 77.97 150.27 78.0048 153.733C77.3463 154.242 77.2849 155.45 78.0296 155.952C78.1535 167.168 78.3572 178.384 78.5262 189.597L78.8801 213.125V213.125C78.9272 216.259 79.0054 219.394 79.0334 222.528L79.0112 222.537V222.537L78.9328 222.573C78.8009 222.635 78.6046 222.735 78.5639 222.838C78.5533 222.865 78.5505 222.883 78.5518 222.897C78.3357 222.927 78.1217 223.029 77.9365 223.205C77.4794 223.639 77.5723 224.294 77.9365 224.737L78.0339 224.855V224.855C78.261 225.131 78.6921 225.237 79.0442 225.181C79.0407 227.137 79.0282 229.094 79.0343 231.05C79.0364 231.648 79.0454 232.245 79.0557 232.843L79.0803 234.275C79.0967 235.093 79.1691 236.132 80.0062 236.499C80.9505 236.914 81.7973 236.574 82.1797 235.615C82.2832 235.355 82.261 235.113 82.2232 234.856C82.235 234.47 82.2954 234.022 82.2879 233.664L82.2567 232.17V232.17C82.2518 231.94 82.2425 231.71 82.236 231.48L82.2632 231.482V231.482C85.6188 231.645 88.9978 231.566 92.3588 231.564L93.8536 231.566C95.1008 231.567 96.3507 231.56 97.5962 231.513L98.063 231.493C98.9954 231.449 99.976 231.435 100.943 231.352C100.819 232.344 100.704 233.338 100.602 234.332C100.505 235.275 101.477 236.076 102.345 236.076C103.376 236.076 103.965 235.266 104.088 234.332C104.671 229.928 104.909 225.483 105.465 221.076C105.964 217.128 106.396 213.172 106.835 209.218L106.982 207.899C108.589 193.508 110.15 179.11 111.642 164.706L112.337 157.973C113.039 151.186 113.745 144.399 114.341 137.602C114.681 133.716 114.995 129.83 115.29 125.94C115.507 123.083 115.643 120.241 115.731 117.389C116.081 117.029 116.256 116.504 116.101 115.962C116.011 115.646 115.905 115.331 115.794 115.017C115.801 114.708 115.809 114.4 115.815 114.091C115.82 113.798 115.523 113.648 115.286 113.696C114.854 112.651 114.379 111.614 113.982 110.578C113.34 108.902 112.811 107.096 111.903 105.545ZM147.767 123.662C141.054 119.453 133.063 116.425 125.06 116.751C124.878 116.758 124.827 117.036 125.016 117.078C129.285 118.031 133.6 119.193 137.642 120.883C141.695 122.579 145.549 124.861 148.982 127.605C155.315 132.666 160.238 139.25 163.479 146.671C165.378 151.018 166.709 155.608 167.871 160.199C169.101 165.058 170.114 169.969 170.957 174.91C172.621 184.67 173.59 194.537 174.106 204.421C174.631 214.476 174.414 224.538 174.789 234.594C174.853 236.336 177.343 236.302 177.469 234.594C178.317 223.161 177.847 211.545 177.063 200.12C176.358 189.849 175.127 179.6 173.145 169.495L172.972 168.619C171.119 159.27 168.884 149.694 164.404 141.227C160.579 133.998 154.674 127.992 147.767 123.662ZM54.5478 168.346C54.5128 168.246 54.3805 168.247 54.3452 168.346C53.5799 170.489 53.5524 172.907 53.349 175.166L53.333 175.339C53.1379 177.4 52.9911 179.463 52.8545 181.527L52.8037 182.302C52.2556 190.724 51.5704 199.138 50.5378 207.516C49.509 215.863 48.118 224.152 46.6137 232.424C46.4461 233.345 46.8539 234.283 47.8193 234.548C48.6704 234.782 49.763 234.258 49.943 233.342C50.8769 228.594 51.6321 223.84 52.3058 219.05C53.4918 210.617 54.3769 202.145 54.946 193.647C55.2316 189.379 55.4075 185.113 55.4774 180.836C55.5096 178.852 55.4581 176.863 55.3524 174.88L55.3271 174.423C55.2105 172.397 55.2224 170.278 54.5478 168.346ZM127.085 221.994C126.995 221.945 126.884 222.045 126.941 222.138C128.241 224.251 129.999 226.073 131.699 227.869C133.476 229.746 135.209 231.68 137.021 233.521C138.331 234.85 140.438 232.705 139.056 231.486C137.112 229.771 135.081 228.141 133.103 226.464L132.238 225.731C130.616 224.36 128.946 223.002 127.085 221.994ZM65.3474 220.935C65.4444 220.75 65.2228 220.6 65.0721 220.723C64.0237 221.576 63.084 222.593 62.0716 223.493C61.0689 224.385 60.0289 225.216 58.9604 226.027C57.8875 226.842 56.7912 227.624 55.6654 228.364C54.7315 228.977 53.769 229.469 52.791 229.978C52.3381 230.037 51.9188 230.259 51.5831 230.68C51.0523 231.347 50.9959 232.604 51.7321 233.183L51.8642 233.287V233.287C52.7233 233.962 53.7432 234.045 54.5889 233.287C55.5332 232.441 56.4257 231.51 57.3326 230.616L57.6051 230.349C58.5796 229.402 59.5303 228.423 60.4266 227.401L61.238 226.478C62.7434 224.761 64.3102 222.91 65.3474 220.935ZM70.1771 121.932C70.3514 121.816 70.244 121.505 70.0287 121.579L69.6338 121.716C67.984 122.289 66.2858 122.925 64.7879 123.808C63.1782 124.757 61.6918 125.888 60.2719 127.1C57.3326 129.61 54.832 132.697 52.7069 135.914C48.4428 142.37 45.8058 149.763 43.6767 157.16C41.4066 165.048 39.6588 173.105 38.2317 181.186C36.7816 189.397 35.6628 197.683 34.9276 205.99C34.5654 210.081 34.3223 214.176 34.2 218.282C34.1371 220.394 34.1391 222.505 34.1567 224.618C34.1612 225.161 34.1576 225.705 34.1514 226.248L34.1307 227.877C34.1197 228.908 33.9963 229.99 34.2412 230.997C34.6351 232.617 37.3133 232.315 37.2252 230.659C37.306 230.108 37.3092 229.539 37.2882 228.968C37.3009 228.894 37.3148 228.819 37.3301 228.743C37.374 228.524 37.3366 228.321 37.2507 228.147C37.2368 227.873 37.2243 227.601 37.2198 227.334C37.2023 226.246 37.2034 225.162 37.2335 224.075C37.2968 221.782 37.388 219.488 37.4802 217.196C37.6643 212.616 37.9203 208.033 38.2915 203.463C39.5829 187.558 42.3098 171.563 46.8903 156.261C49.0177 149.155 51.9505 142.18 56.1565 136.04C58.0236 133.314 60.13 130.796 62.4652 128.459C64.8152 126.108 67.4047 123.768 70.1771 121.932ZM101.871 224.463L101.554 226.759C101.395 227.908 101.238 229.057 101.089 230.207C100.076 230.068 99.0394 230.01 98.0631 229.923C96.354 229.772 94.6331 229.698 92.919 229.628C89.3742 229.481 85.8117 229.228 82.2634 229.245C82.2269 229.246 82.1926 229.248 82.1582 229.251L81.9821 224.719V224.719L84.4752 224.715V224.715C86.5875 224.712 88.6993 224.694 90.8116 224.676C92.7139 224.659 94.617 224.657 96.519 224.617L97.3341 224.598C98.7765 224.559 100.369 224.639 101.871 224.463ZM81.7729 217.884C81.8746 217.896 81.9782 217.907 82.0882 217.911C82.582 217.932 83.0797 217.918 83.5738 217.922C84.626 217.931 85.678 217.938 86.7304 217.938C88.8348 217.938 90.939 217.95 93.043 217.976C95.2091 218.002 97.3737 218.039 99.5399 218.044C100.589 218.046 101.636 218.018 102.685 217.988C102.515 219.48 102.338 220.97 102.142 222.457C100.513 222.237 98.7603 222.348 97.168 222.333L96.9612 222.33C94.7878 222.293 92.6126 222.321 90.4387 222.323C88.2024 222.326 85.9662 222.333 83.7297 222.351L81.8924 222.367V222.367L81.8888 222.274V222.274C81.835 220.812 81.8002 219.349 81.7729 217.884ZM103.493 210.749C103.289 212.509 103.098 214.273 102.903 216.036C102.774 216.016 102.643 215.999 102.509 215.985C101.458 215.875 100.409 215.781 99.3542 215.715C97.2515 215.585 95.149 215.516 93.0429 215.46C90.8773 215.402 88.7112 215.357 86.5448 215.326C85.4922 215.312 84.4406 215.313 83.388 215.32C82.8942 215.324 82.3954 215.308 81.9026 215.341C81.8439 215.345 81.7877 215.352 81.732 215.358L81.695 212.711C81.6886 212.27 81.6819 211.829 81.6748 211.388C83.3015 211.488 84.9554 211.45 86.581 211.45L86.9556 211.451C88.9981 211.46 91.0413 211.432 93.0835 211.39C95.1903 211.346 97.2928 211.277 99.3959 211.142C100.248 211.088 101.094 211.015 101.941 210.922L102.365 210.873C102.734 210.83 103.114 210.794 103.493 210.749ZM81.5069 203.279C85.4246 203.59 89.3215 203.72 93.2497 203.758L93.8392 203.764C97.3105 203.79 100.81 203.933 104.29 203.841C104.082 205.646 103.874 207.45 103.665 209.254C103.167 209.231 102.666 209.231 102.179 209.213C101.189 209.177 100.201 209.168 99.2101 209.166C97.1679 209.161 95.1258 209.179 93.0834 209.175C90.9787 209.171 88.8743 209.135 86.7699 209.095C85.0638 209.063 83.3395 208.935 81.6287 208.94L81.5069 203.279V203.279ZM81.341 195.581C81.795 195.732 82.331 195.741 82.9186 195.768L84.4353 195.844C85.1382 195.878 85.8412 195.911 86.5446 195.936C88.8884 196.022 91.2322 196.102 93.5764 196.177C95.9785 196.253 98.3922 196.298 100.795 196.222C101.972 196.185 103.138 196.123 104.312 196.025C104.602 196.001 104.897 195.985 105.194 195.964C104.921 198.354 104.646 200.745 104.371 203.135C100.908 202.71 97.4189 202.445 93.9603 202.005L90.833 201.606C87.7071 201.207 84.5839 200.815 81.4466 200.485L81.341 195.581V195.581ZM81.1742 187.798C81.8403 187.962 82.5995 187.954 83.2392 187.994L83.3577 188.003C84.5697 188.095 85.7848 188.141 86.9996 188.171C89.3806 188.229 91.7631 188.259 94.1448 188.273L95.577 188.282C97.4863 188.293 99.3945 188.298 101.304 188.254C102.529 188.225 103.752 188.165 104.976 188.104C105.343 188.085 105.717 188.073 106.093 188.054C105.838 190.318 105.579 192.58 105.321 194.843C104.919 194.78 104.515 194.731 104.13 194.666C103.143 194.499 102.158 194.366 101.165 194.247C99.0126 193.989 96.8491 193.803 94.6868 193.647C92.4669 193.486 90.2451 193.349 88.0249 193.194L86.4524 193.083C85.9283 193.046 85.4041 193.011 84.8797 192.979C83.9841 192.924 82.9431 192.986 82.0549 192.791C81.8143 192.691 81.5473 192.668 81.2798 192.725L81.1742 187.798V187.798ZM80.9726 178.688C81.2031 178.98 81.5473 179.134 81.9577 179.187C84.0956 179.464 86.2885 179.509 88.4444 179.64L88.8245 179.664C91.0505 179.81 93.2779 179.926 95.5056 180.044C97.7941 180.165 100.082 180.265 102.373 180.344C103.345 180.378 104.322 180.382 105.296 180.37L105.713 180.363C106.113 180.357 106.532 180.358 106.952 180.344C106.719 182.46 106.485 184.577 106.247 186.692C105.819 186.646 105.391 186.61 104.976 186.566C103.753 186.437 102.531 186.309 101.304 186.212C98.981 186.029 96.6559 185.919 94.3282 185.804C91.9466 185.686 89.5638 185.607 87.1819 185.496C86.0271 185.442 84.8727 185.375 83.7212 185.269C82.9142 185.195 81.9557 184.92 81.1137 185.021C81.0677 182.91 81.0199 180.799 80.9726 178.688ZM80.7847 170.527C80.8211 170.583 80.8637 170.638 80.9155 170.689C81.8567 171.619 83.0167 171.547 84.264 171.645L84.3405 171.651C85.5629 171.754 86.7859 171.851 88.0097 171.94C90.4559 172.116 92.907 172.24 95.3567 172.35C97.8639 172.463 100.387 172.54 102.897 172.489C104.504 172.456 106.187 172.462 107.826 172.305C107.574 174.636 107.321 176.967 107.066 179.297C106.605 179.211 106.141 179.144 105.702 179.075C104.595 178.901 103.486 178.725 102.372 178.597C100.147 178.341 97.9209 178.101 95.6911 177.885C93.7842 177.7 91.8779 177.512 89.9696 177.343L88.8243 177.244C86.5475 177.052 84.2418 176.736 81.9576 176.69C81.5812 176.682 81.1555 176.887 80.9398 177.21C80.8893 174.982 80.837 172.754 80.7847 170.527ZM80.6266 163.92C81.208 163.99 81.8345 163.95 82.3711 163.968C83.7277 164.012 85.0845 164.053 86.4414 164.093L94.5825 164.334V164.334C97.3543 164.415 100.136 164.477 102.909 164.437C104.128 164.42 105.354 164.418 106.573 164.352L106.979 164.327C107.481 164.294 108.097 164.289 108.698 164.228L107.988 170.807V170.807C106.357 170.571 104.676 170.483 103.058 170.345L102.713 170.314C100.327 170.097 97.9305 169.953 95.5407 169.791C93.0892 169.625 90.6414 169.423 88.1933 169.217C86.9697 169.114 85.7463 169.012 84.5237 168.899L84.3726 168.884C83.2177 168.764 82.1317 168.507 81.1088 169.188C80.9591 169.288 80.8419 169.421 80.7618 169.57C80.7171 167.687 80.6734 165.803 80.6266 163.92ZM80.4369 156.242C85.3949 156.442 90.3537 156.593 95.3154 156.66C98.1083 156.697 100.898 156.671 103.69 156.613C104.901 156.587 106.122 156.529 107.332 156.436L107.785 156.4C108.36 156.352 108.965 156.316 109.567 156.258C109.318 158.52 109.071 160.783 108.826 163.045C108.234 162.935 107.616 162.884 107.097 162.818L106.979 162.802C105.69 162.625 104.389 162.522 103.094 162.407C100.571 162.185 98.0366 162.042 95.5076 161.92C92.9178 161.796 90.3268 161.69 87.7366 161.575L85.1463 161.459C84.7146 161.44 84.2829 161.421 83.8512 161.403C83.2343 161.377 82.6175 161.352 82.0008 161.326C81.6965 161.314 81.3803 161.272 81.0757 161.288L80.989 161.276C80.949 161.271 80.9137 161.267 80.8813 161.264C80.7985 161.201 80.7092 161.148 80.6147 161.109L80.5574 161.086L80.4369 156.242ZM110.379 148.966C110.149 151.003 109.922 153.039 109.697 155.076C108.99 154.996 108.274 154.951 107.599 154.89C106.237 154.768 104.87 154.661 103.504 154.598L100.775 154.471C98.9553 154.387 97.136 154.306 95.3153 154.239C90.3325 154.058 85.3498 153.849 80.3699 153.595C80.3347 152.213 80.2985 150.832 80.2615 149.45C80.5005 149.706 80.8459 149.875 81.2996 149.874C86.5277 149.86 91.7599 149.89 96.9874 149.804C99.6041 149.761 102.218 149.697 104.831 149.563C106.11 149.497 107.396 149.364 108.666 149.188C109.207 149.113 109.799 149.059 110.379 148.966ZM111.216 141.71C110.97 143.796 110.729 145.883 110.492 147.97C109.843 147.854 109.172 147.792 108.566 147.709C107.265 147.532 105.955 147.391 104.645 147.317C102.094 147.173 99.5417 147.1 96.9875 147.046C91.7604 146.935 86.528 146.936 81.2997 146.895C80.8086 146.891 80.4439 147.085 80.2045 147.375C80.1683 146.073 80.13 144.77 80.0905 143.467C80.5955 143.414 81.0962 143.338 81.5595 143.306C82.9834 143.207 84.4079 143.116 85.8329 143.034C88.8067 142.863 91.7833 142.718 94.7592 142.588C97.7358 142.459 100.713 142.332 103.691 142.222L104.993 142.174C107.064 142.097 109.17 142 111.216 141.71ZM112.153 133.855C111.897 135.967 111.645 138.08 111.394 140.193L111.317 140.847V140.847C108.827 140.363 106.202 140.221 103.691 140.115C100.713 139.988 97.7401 139.923 94.7594 139.932C91.7816 139.941 88.8084 140.011 85.8331 140.134C84.3464 140.195 82.8598 140.267 81.3741 140.347C80.9655 140.369 80.4865 140.358 79.9935 140.365C79.9829 140.033 79.9737 139.701 79.9623 139.369C79.9171 138.024 79.8728 136.679 79.8266 135.334C80.8316 135.85 82.1382 136.058 83.1482 136.279L83.2633 136.304C84.931 136.679 86.6337 136.922 88.3359 137.07C91.6787 137.362 95.0561 137.253 98.3957 136.97L98.9807 136.92C101.913 136.666 104.954 136.343 107.796 135.617C109.151 135.272 110.551 134.788 111.764 134.086C111.89 134.014 112.021 133.936 112.153 133.855ZM83.9159 108.75C83.8869 108.636 83.7159 108.61 83.6597 108.717C83.2648 109.467 83.1179 110.368 82.8437 111.172C82.5486 112.036 82.2733 112.907 81.9478 113.761C81.2677 115.546 80.4654 117.26 79.5088 118.913C78.5615 120.55 81.214 121.718 81.9111 119.927C82.6309 118.077 83.2224 116.166 83.5803 114.212C83.755 113.258 83.9107 112.292 83.9611 111.323C84.0047 110.491 84.1217 109.562 83.9159 108.75Z" fill="black"/>
<path fill-rule="evenodd" clip-rule="evenodd" d="M64.5557 72.4461C64.6301 68.2578 64.7123 63.9857 65.3347 59.838C65.9432 55.7832 67.6172 52.1179 70.4938 49.1735C76.6038 42.919 85.4605 41.3913 93.7046 39.9913L107.8 37.5976C112.1 36.8675 116.688 35.7005 121.032 36.7359C123.173 37.2461 124.991 38.4315 126.653 39.8339C128.254 41.1856 129.976 42.6372 131.062 44.4558C132.149 46.277 132.523 48.406 132.876 50.4657C133.275 52.788 133.584 55.1284 133.804 57.4745C134.245 62.1747 134.305 66.9103 133.986 71.6203C133.831 73.9048 133.584 76.1828 133.27 78.4507C133.113 79.5752 132.937 80.697 132.738 81.8149C132.679 82.1445 132.634 82.5095 132.574 82.8781C133.019 84.1431 133.272 85.4532 133.251 86.7576C133.191 90.6001 129.949 93.0192 126.681 94.3181C124.786 95.0712 122.805 95.5829 120.943 96.4242C118.984 97.3091 117.651 98.7437 116.311 100.38C113.757 103.501 110.875 106.307 107.583 108.647C100.605 113.609 91.7668 115.956 83.2999 114.175C81.2684 113.747 79.2189 113.084 77.3928 112.084C75.4649 111.028 74.0152 109.498 72.7978 107.689C70.5373 104.331 68.9162 100.55 67.6899 96.7017C66.439 92.7766 65.5511 88.8443 65.0668 84.7515C64.5843 80.672 64.4826 76.5509 64.5557 72.4461V72.4461Z" fill="white"/>
<path fill-rule="evenodd" clip-rule="evenodd" d="M109.534 23.0076C103.702 22.205 95.6509 24.8137 92.7461 30.0737C78.8777 26.803 61.386 26.6959 49.9556 37.5841C38.0284 50.4999 53.0096 67.5295 62.9434 71.369C62.2201 74.8852 63.3478 97.4115 71.3271 107.46C77.6597 115.973 92.4067 119.902 99.2306 109.733L99.2838 109.649C100.015 108.475 99.3853 108.513 98.6348 109.386C91.9527 115.265 82.8674 115.365 75.8663 109.161C62.7451 97.8221 64.098 70.0187 70.3416 53.9341C88.1205 51.9807 107.156 57.3714 119.436 70.7597L118.605 75.7606C118.464 76.6126 118.303 77.4638 118.181 78.3188C118.102 78.8666 118.093 79.4114 118.473 79.8549C119.725 81.3188 121.837 79.119 123.574 78.244C124.087 78.1718 124.6 78.144 125.104 78.1795C133.45 79.2549 131.806 95.4516 122.633 92.6125C121.862 92.1322 121.2 92.2788 120.901 92.9758C118.715 94.9793 117.273 98.5526 113.64 101.994C112.359 103.285 111.192 104.365 109.751 105.401C108.904 106.258 106.349 107.131 107.159 108.597C108.69 111.933 117.723 101.454 119.32 98.5567C124.324 100.533 129.869 99.8619 135.054 99.3788C162.409 97.956 158.757 69.1093 136.335 50.897C132.114 47.7886 127.457 45.2528 122.617 43.3014C121.956 43.035 122.245 41.9495 122.915 42.2197C126.118 43.511 129.24 45.048 132.217 46.827L132.221 45.7634C132.225 43.9721 132.197 42.1071 131.886 40.4704C131.731 39.3363 131.469 38.125 131.067 37.2137C130.569 34.4199 122.773 24.8302 109.534 23.0076ZM125.47 81.898C125.047 81.4966 124.259 81.9752 123.883 81.9632C122.921 82.0949 122.008 82.5011 121.295 83.0026C120.825 83.2662 120.495 83.5137 120.22 83.7414L120.212 83.7394C120.214 83.7394 120.217 83.7414 120.219 83.742L120.193 83.7595C119.792 84.0446 118.324 85.6505 119.251 85.2186C119.321 85.1287 119.391 85.0423 119.463 84.9576C119.47 84.9692 119.481 84.9806 119.494 84.9917L119.442 85.069C118.653 86.2556 120.015 85.0055 120.224 84.6735C120.234 84.6815 120.245 84.6869 120.256 84.6927L119.983 85.0248C119.945 85.072 119.915 85.1096 119.89 85.1414L119.833 85.197C118.921 86.0934 118.893 86.9002 119.952 85.5748C119.91 85.6373 119.877 85.7034 119.872 85.7622L119.809 85.8422C118.978 86.9142 119.654 86.5335 120.067 86.0756L120.102 86.0363L120.095 86.047C119.71 86.6394 120.473 86.2237 120.608 85.9068L120.614 85.8925C120.761 85.7726 120.851 85.638 120.882 85.6041L120.888 85.5984C121.603 84.8655 122.639 84.2453 123.52 83.9636C123.647 83.9393 123.776 83.9198 123.907 83.906C124.436 83.7878 124.972 83.7069 125.512 83.6631C125.579 83.6553 125.646 83.6066 125.696 83.5438C126.514 83.5162 126.261 83.1809 125.922 83.1186L125.916 83.1176L125.983 83.1119C126.508 83.0606 126.867 82.8723 126.336 82.7566L126.269 82.7432C126.277 82.7303 126.284 82.7174 126.291 82.7045C126.746 82.6546 126.449 82.2126 126.197 82.3196C126.303 81.9724 125.818 82.1457 125.757 82.0941C125.711 82.0429 125.654 81.9976 125.621 81.9952C125.474 81.892 125.545 81.9013 125.47 81.898ZM122.688 76.2768L122.795 76.3391C122.881 76.3894 122.969 76.4228 123.058 76.4425C122.933 76.4959 122.809 76.5537 122.686 76.6154C122.688 76.54 122.689 76.4647 122.689 76.3895L122.688 76.2768Z" fill="black"/>
<path fill-rule="evenodd" clip-rule="evenodd" d="M81.1032 99.1763C82.48 99.5752 83.9578 99.6109 85.3611 99.1989C86.634 98.8252 87.941 98.0028 88.8778 96.9146C89.71 95.9479 90.249 94.7731 90.2278 93.5191C90.2254 93.3759 90.1742 93.2564 90.0955 93.1636C90.0107 93.0637 89.8923 92.9951 89.7654 92.9653C89.635 92.9347 89.4971 92.9456 89.3797 92.9989C89.2734 93.0472 89.1823 93.1293 89.1254 93.2492C88.9814 93.4384 88.838 93.6248 88.694 93.806C87.5364 95.236 86.4154 96.3046 84.6747 96.6879C83.7302 96.8959 82.787 96.8037 81.9215 96.4863C80.9951 96.1466 80.1576 95.5493 79.5013 94.785C79.2048 94.4396 78.8546 94.2986 78.5122 94.2962C78.1242 94.2935 77.7407 94.4739 77.4518 94.7621C77.1678 95.0455 76.9777 95.4305 76.9605 95.8333C76.9453 96.1869 77.0606 96.5561 77.3673 96.8856C78.3775 97.9708 79.6867 98.7658 81.1032 99.1763ZM81.1454 81.2667C79.7341 82.1248 77.5837 84.1259 79.102 86.2534C80.889 88.1293 83.462 85.9785 84.73 85.0058C85.9056 84.2519 87.2266 86.1908 86.1358 87.0711C76.9737 93.857 73.2556 81.4911 80.4316 80.2577C81.2217 80.1218 81.5151 81.0012 81.1454 81.2667ZM94.3472 77.4905C94.8008 77.2003 95.3343 77.1007 95.9257 77.3699C96.3878 77.5801 97.1983 78.2809 97.7624 79.2023C98.1483 79.8325 98.4219 80.572 98.3649 81.3422C98.3517 81.521 98.4178 81.6529 98.522 81.7504C98.6043 81.8274 98.7232 81.884 98.8628 81.9017C98.9813 81.9168 99.114 81.9032 99.2219 81.8695C99.4272 81.8054 99.5358 81.6722 99.5767 81.5635C99.9717 80.5143 99.8015 79.3433 99.3589 78.287C98.7615 76.8614 97.6767 75.6672 96.966 75.2822C95.7498 74.6231 94.315 74.5928 93.0971 75.2642C92.0603 75.8357 91.412 76.7583 90.7672 77.6987C90.6302 77.8986 90.4941 78.0971 90.3535 78.292C90.0718 78.6827 90.0437 79.0701 90.1529 79.4023C90.2737 79.7704 90.582 80.081 90.9674 80.2436C91.3236 80.3938 91.7371 80.415 92.1029 80.2606C92.412 80.1302 92.6957 79.876 92.8751 79.4446C93.1774 78.7182 93.681 77.9167 94.3472 77.4905V77.4905ZM71.3105 79.1068C71.6211 79.2687 71.8642 79.3175 72.2088 79.2142C72.3993 79.157 72.5877 79.0472 72.7351 78.8997C72.8813 78.7535 72.9867 78.5717 73.0277 78.37C73.1285 77.8723 73.4007 77.4063 73.7887 77.1026C74.1203 76.843 74.5388 76.7054 75.003 76.783C75.504 76.8667 75.9813 77.1881 76.31 77.567C76.4199 77.6938 76.506 77.8378 76.5926 77.9808C76.7545 78.2483 76.9119 78.497 77.1353 78.6934C77.22 78.7681 77.3476 78.8199 77.4711 78.8199C77.5214 78.8199 77.5723 78.8117 77.6209 78.7966C78.1195 78.2959 78.2154 77.9162 78.1993 77.5395C78.1825 77.1445 78.0268 76.7445 77.7752 76.3713C77.1851 75.496 76.0646 74.7783 75.3085 74.6157C74.2731 74.3931 73.2447 74.6603 72.4202 75.2389C71.5719 75.8342 70.9433 76.7584 70.7473 77.8C70.7002 78.0509 70.7202 78.3217 70.8157 78.5564C70.909 78.7859 71.0716 78.9823 71.3105 79.1068ZM92.0637 68.1578C92.6851 68.7635 93.4206 68.8573 94.1647 68.9407C94.5781 68.9875 94.9081 69.0252 95.2329 69.0986C96.1255 69.3001 97.0079 69.6037 97.8129 70.041C98.6544 70.4981 99.5715 71.0493 100.231 71.7555C100.388 71.9235 100.536 72.0999 100.684 72.2766C100.819 72.4377 100.949 72.5928 101.086 72.7424C101.244 72.9142 101.393 73.0943 101.542 73.2739C101.634 73.4254 101.652 73.4627 101.671 73.5015C101.698 73.5598 101.731 73.6251 101.768 73.6951C101.819 73.7909 101.878 73.8959 101.94 73.991C102.044 74.1649 102.099 74.2128 102.147 74.2343C102.227 74.2697 102.302 74.2872 102.376 74.2777C102.444 74.2689 102.509 74.2359 102.573 74.1818C102.892 73.9122 102.986 73.4696 102.976 72.9999C102.962 72.287 102.699 71.4978 102.457 71.0126C101.893 69.8853 101.112 68.7133 100.173 67.872C99.1005 66.9115 97.9277 66.1844 96.5806 65.6834C95.7435 65.372 94.7742 65.0861 93.8622 65.1222C93.2057 65.1482 92.579 65.3434 92.0614 65.8309C91.7436 66.1302 91.591 66.5559 91.591 66.9813C91.591 67.4151 91.7495 67.8515 92.0637 68.1578ZM70.0464 73.7041C70.086 73.7689 70.1407 73.8135 70.2015 73.8403C70.2653 73.8685 70.3365 73.8765 70.4049 73.865C70.4729 73.8536 70.5376 73.8227 70.5889 73.7755C70.6381 73.7303 70.6756 73.6704 70.6923 73.5969C71.1049 71.7842 71.906 70.4355 73.6158 69.5658C74.4569 69.138 75.4241 68.8662 76.3397 68.6494C76.6057 68.5864 76.8869 68.5456 77.17 68.5043C78.0573 68.3747 78.9511 68.2262 79.5295 67.5087C79.8781 67.0765 80.0244 66.5237 79.9417 66.0182C79.8638 65.5423 79.5858 65.1058 79.0804 64.8443C77.8221 64.1935 76.2585 64.8321 74.9879 65.3761C74.8936 65.4165 74.8011 65.4561 74.7106 65.4943C73.468 66.019 72.3347 66.7116 71.4032 67.7021C70.664 68.4879 69.9791 69.6495 69.7033 70.8445C69.4738 71.8387 69.5278 72.8537 70.0464 73.7041Z" fill="black"/>
<path fill-rule="evenodd" clip-rule="evenodd" d="M80.9399 88.5506C83.0183 87.6141 86.7505 88.4313 88.1055 88.7562C91.2555 89.5119 94.4244 91.1451 95.4037 93.7037C96.5073 96.5872 94.3054 97.4949 93.9815 97.3466C91.8009 97.5003 89.204 96.129 86.9189 95.775C85.0638 95.4852 83.1069 95.2323 81.3688 94.2462C80.0998 94.9445 77.2337 95.322 74.9205 95.9326C72.9505 96.4524 72.097 97.5796 70.2707 97.3399C68.0819 97.0527 68.9778 92.4473 71.4173 90.5815C74.0872 88.5397 78.6028 87.7117 80.9399 88.5506ZM76.8245 108.243C78.6429 108.686 78.765 104.699 78.9687 103.291C79.1279 102.19 80.0254 99.3521 82.301 99.4746C84.5765 99.597 85.4319 101.975 85.3165 103.454C85.2416 104.413 84.3582 109.27 87.1779 109.885C88.9756 109.878 91.0553 109.757 92.9455 109.408C95.1703 108.904 98.0632 107.14 98.8273 110.615C99.1024 111.866 89.3023 115.582 84.9535 115.918C80.5432 116.812 75.3831 115.438 72.2431 112.062C71.5288 111.294 69.5168 108.107 69.3735 107.326C69.0722 105.686 69.7696 104.63 71.7989 105.208C73.2323 105.974 75.6551 107.957 76.8245 108.243Z" fill="black"/>
<path fill-rule="evenodd" clip-rule="evenodd" d="M68.0305 84.4497C70.8354 85.8011 74.7485 83.8078 76.6344 81.72C77.3209 80.9598 77.8505 78.7849 77.5865 77.4055C76.8712 73.6697 74.1837 71.4277 71.3465 70.662C67.4136 69.6005 63.4556 72.2897 63.9171 75.4633C64.3546 78.471 65.0175 82.8338 68.0305 84.4497M87.1214 77.2738C87.3463 81.345 90.6144 84.9083 94.5204 85.9641C100.814 87.7208 103.924 83.2952 105.333 78.5274C105.473 78.0536 105.802 76.6077 104.919 75.3674C101.446 70.4885 92.996 71.3201 88.7756 72.6596C87.5402 73.8414 87.0353 75.547 87.1214 77.2738M64.9829 70.252C64.9848 70.2545 64.9871 70.2565 64.9889 70.259C65.0033 70.2502 65.0175 70.2412 65.0323 70.2326C65.016 70.2393 64.9988 70.2451 64.9829 70.252M59.7174 70.7226C60.0829 66.5776 73.0836 68.1647 74.6036 68.5044C78.7518 69.7249 82.3347 73.0454 86.9726 71.5858C91.7781 66.2269 107.961 67.7637 111.353 70.4936C111.995 70.2415 112.776 70.3767 113.604 70.6145C117.852 70.461 137.249 71.9263 133.281 77.351C132.679 77.7689 132.078 77.3437 132.061 76.4829C111.379 69.0143 113.384 76.0099 110.931 75.1929C110.556 75.3008 110.166 75.369 109.824 75.4408C107.925 76.0518 107.281 75.863 107.031 77.9949C105.313 94.4573 83.3989 88.7754 85.1962 75.2722C83.4166 75.1742 81.86 74.4045 79.9782 75.1561C78.6716 87.8765 68.4392 88.3899 65.3598 83.9804C63.0377 80.9198 63.9585 76.301 60.7666 73.8933C59.5066 74.9482 59.4255 71.388 59.7174 70.7226" fill="black"/>
</g>
<defs>
<clipPath id="clip0">
<rect width="212.308" height="230" fill="white" transform="matrix(-1 0 0 1 212.308 0)"/>
</clipPath>
</defs>
</svg>
