<svg width="54" height="54" viewBox="0 0 54 54" fill="none" xmlns="http://www.w3.org/2000/svg">
<g clip-path="url(#clip0)">
<path d="M0 27C0 12.0883 12.0883 0 27 0V0C41.9117 0 54 12.0883 54 27V27C54 41.9117 41.9117 54 27 54V54C12.0883 54 0 41.9117 0 27V27Z" fill="#FFBD12"/>
<path fill-rule="evenodd" clip-rule="evenodd" d="M48.5348 78.2925C48.372 76.7799 48.2717 75.2566 48.2141 73.7364C48.1566 72.2179 48.2318 70.6808 48.2648 69.1617C48.3321 66.0716 48.4415 62.9741 48.1956 59.8887C47.9632 56.9727 47.4296 54.077 46.5876 51.2752C46.1776 49.9107 45.7454 48.4913 45.0711 47.2305C44.3929 45.9628 43.3188 45.1187 42.1389 44.3446C40.8827 43.5203 39.6366 42.6806 38.3852 41.8487C37.3349 41.1504 35.4446 40.3377 34.5828 39.4042C33.676 38.422 33.5055 35.9872 32.9016 34.8236C32.3135 33.6902 30.6486 32.9509 29.3668 32.9509C27.245 32.9509 25.6373 32.8424 23.8926 34.8059C23.0222 35.7856 23.7147 36.776 22.8023 37.7163C21.9635 38.5808 19.8182 39.4692 18.737 39.9709C17.4421 40.5717 16.1145 41.1021 14.7676 41.5746C13.3937 42.0566 11.9851 42.4158 10.6035 42.8708C9.2792 43.3068 7.54993 45.1041 6.52183 46.055C5.566 46.9392 5.32879 46.8402 4.60214 47.9143C3.00737 50.2714 1.41086 52.6556 0.140895 55.2078C-0.49167 56.479 -1.10417 57.8163 -1.33368 59.2281C-1.57849 60.734 -1.33576 62.1892 -0.938747 63.6472C-0.534619 65.1309 0.748696 66.5436 1.16678 68.0236C1.35945 68.7056 0.698097 69.4499 1.0023 70.0926C1.15423 70.4136 1.34556 70.6994 1.56339 70.9791C1.73123 71.1946 2.38577 71.1468 2.47046 71.4106C2.55602 71.677 2.08248 72.2298 2.07543 72.5055C2.06543 72.9001 2.04973 73.2946 2.03678 73.6892L1.96027 76.0218C1.91001 77.5546 1.85975 79.0875 1.80948 80.6203C1.79304 81.1207 1.76908 81.6095 1.88901 82.0843C1.84572 82.0442 1.80458 82.0005 1.767 81.9514C1.65701 81.8077 1.42374 81.9295 1.51709 82.0975C1.67292 82.378 1.89699 82.5753 2.16026 82.7171C2.46621 83.1683 48.7996 84.1762 49.0275 82.857C49.1554 82.1168 48.9226 81.3244 48.8295 80.589C48.7326 79.8231 48.6175 79.0604 48.5348 78.2925Z" fill="white"/>
<path fill-rule="evenodd" clip-rule="evenodd" d="M1.46845 59.2308C1.5818 58.906 2.10028 59.0466 1.98613 59.3736C1.39933 61.055 1.81561 62.8848 2.44998 64.4899C2.57729 64.812 2.05787 64.9503 1.93231 64.6327C1.26498 62.9442 0.85213 60.9967 1.46845 59.2308M5.40334 68.8353C7.05824 69.0682 8.71448 69.2119 10.3808 69.328C10.4553 69.3334 10.5197 69.322 10.5754 69.2978C10.5257 70.0611 10.4855 70.8251 10.4539 71.5891C9.9996 71.5764 9.53588 71.6066 9.08559 71.5945C8.49704 71.5784 7.90917 71.5488 7.32197 71.5039C6.18515 71.4179 5.05035 71.2809 3.92628 71.0916C3.50618 71.0211 2.97267 70.9782 2.49418 70.8385C2.04187 70.7063 1.63922 70.4874 1.42783 70.0752C1.24798 69.7261 1.21509 69.2985 1.21509 68.9125C1.21509 68.6466 1.26073 68.3767 1.28824 68.1088C1.32247 68.0847 1.35334 68.0558 1.37817 68.0236C1.87746 68.1813 2.39553 68.2922 2.90287 68.3995C3.72898 68.5754 4.56717 68.7178 5.40334 68.8353M4.46977 62.6278C4.4789 63.1409 4.62083 63.607 4.89698 64.039C5.08381 64.3314 4.61895 64.6004 4.4334 64.3101C4.10832 63.8014 3.94364 63.2304 3.9329 62.6278C3.92673 62.2814 4.46359 62.2826 4.46977 62.6278M46.8907 68.2256C47.1148 68.2382 47.3403 68.2458 47.565 68.2578C47.7633 68.4274 48.0378 68.5143 48.2884 68.4603C48.2971 68.482 48.3049 68.5064 48.3121 68.5344C48.3564 68.707 48.3785 68.8923 48.404 69.0682C48.4295 69.2414 48.449 69.416 48.4624 69.5905C48.4691 69.6784 48.5114 69.8771 48.4577 69.9537C48.4094 70.0228 48.3027 70.0168 48.2289 70.0255C48.0302 70.047 47.8289 70.0571 47.6289 70.0739C47.2511 70.1067 46.8733 70.1396 46.4961 70.1725C46.1264 70.2048 45.7204 70.1947 45.3586 70.2921C45.2969 69.5663 45.2405 68.8406 45.1882 68.1142C45.7485 68.1968 46.3344 68.1947 46.8907 68.2256M-0.0927524 67.0219C0.132732 67.4576 0.340769 67.8859 0.772277 68.1477C0.828648 68.1813 0.89173 68.1994 0.956154 68.2041C0.907836 68.4115 0.877637 68.6237 0.850794 68.8197C0.791738 69.2515 0.778988 69.6978 0.887032 70.1235C0.992393 70.5377 1.16687 70.9077 1.50913 71.1729C1.66818 71.2964 1.84199 71.3903 2.02452 71.4648C1.99365 71.5514 1.97553 71.6374 1.98493 71.7321C1.94131 71.9516 1.91245 72.1752 1.88091 72.3893C1.81179 72.8646 1.74267 73.3406 1.68831 73.8186C1.57959 74.7692 1.49436 75.7198 1.42256 76.6738C1.35075 77.6251 1.29908 78.5778 1.25613 79.5311C1.23398 80.0185 1.21452 80.5059 1.1964 80.9939C1.17828 81.4955 1.09708 82.0083 1.31854 82.4737C1.49705 82.8496 2.10035 82.8281 2.28557 82.4737C2.52045 82.0231 2.45133 81.488 2.45737 80.9939C2.46341 80.5287 2.47146 80.0628 2.48153 79.5975C2.50166 78.645 2.53119 77.6929 2.55468 76.7403C2.5775 75.8105 2.60568 74.8813 2.62447 73.9515C2.63387 73.4648 2.63454 72.978 2.63722 72.4913C2.63857 72.2214 2.64997 71.9335 2.62984 71.6521C2.79761 71.6917 2.96673 71.7253 3.13383 71.7595C4.40956 72.0214 5.69871 72.212 6.99592 72.3302C7.64755 72.3893 8.30118 72.4309 8.95482 72.4545C9.43532 72.4718 9.93326 72.5054 10.4211 72.4874C10.3829 73.6528 10.3654 74.8189 10.3675 75.9851C10.3688 76.8262 10.3802 77.6674 10.401 78.5086C10.4124 78.951 10.4218 79.3934 10.4352 79.8359C10.4413 80.0346 10.4413 80.2353 10.4547 80.4334C10.4587 80.4951 10.4674 80.5549 10.4789 80.614C10.4346 80.7396 10.3977 80.8637 10.3675 80.9799C10.2198 81.5438 10.2198 82.0856 10.2856 82.6602C10.342 83.1476 10.752 83.5994 11.2936 83.4283C11.3815 83.4007 11.4694 83.3718 11.5566 83.3423C12.3539 83.4329 13.1558 83.4538 13.9645 83.4692C15.1463 83.4921 16.3287 83.4994 17.5112 83.5054C19.8304 83.5176 22.1504 83.5236 24.4703 83.5303C29.1323 83.5437 33.7944 83.5565 38.4564 83.5699C39.7503 83.574 41.0441 83.5773 42.338 83.5814C43.0077 83.5833 43.6761 83.584 44.3452 83.6096C44.6572 83.6217 44.97 83.6384 45.282 83.6431C45.6437 83.6492 45.9638 83.5451 46.3094 83.4505C46.5047 83.396 46.5819 83.2 46.5403 83.0342C46.853 83.1087 47.2322 82.9503 47.3389 82.5979C47.4167 82.342 47.3879 82.0647 47.2718 81.8277V81.8271C47.0476 80.4112 46.7631 79.002 46.5396 77.5855C46.2947 76.034 46.0591 74.4792 45.8518 72.9217C45.6961 71.7454 45.5679 72.5793 45.4572 71.3977C45.9397 71.4353 46.4853 71.2883 46.9631 71.2258C47.306 71.1816 47.6516 71.1459 47.9952 71.0989C47.9697 71.4454 47.9771 71.7985 47.9677 72.1308C47.9496 72.7907 47.9576 73.448 47.9744 74.108C48.0066 75.3815 48.0784 74.6403 48.1932 75.9085C48.3093 77.1861 48.4515 78.4589 48.624 79.7305C48.7126 80.3851 48.8072 81.0389 48.9072 81.6921C48.9535 81.9969 49.0012 82.3011 49.0502 82.6059C49.1085 82.965 49.1273 83.3055 49.3964 83.5753C49.6011 83.78 50.0192 83.7626 50.1548 83.4773C50.3266 83.1167 50.2487 82.8079 50.185 82.4293C50.1333 82.1252 50.0836 81.821 50.0346 81.517C49.9299 80.865 49.8306 80.2125 49.7373 79.5593C49.5575 78.3006 49.3877 77.0397 49.236 75.7776C49.083 74.5054 48.9247 75.2485 48.7743 73.9764C48.6985 73.3345 48.6227 72.6941 48.5341 72.0543C48.4891 71.7253 48.4609 71.3749 48.4019 71.0358C48.4207 71.0332 48.4395 71.0298 48.4583 71.0264C48.8663 70.9519 49.2146 70.7216 49.3172 70.3014C49.4152 69.8992 49.2985 69.4367 49.2159 69.042C49.1454 68.7058 49.0818 68.2766 48.8654 67.9885C49.6278 67.0171 50.1236 65.7947 50.4399 64.6195C50.7844 63.3392 50.9287 62.0027 50.9592 60.6796C50.9946 59.1468 50.8791 57.6228 50.6165 56.1241C50.6104 55.8065 50.5957 55.489 50.5722 55.1719C50.3413 52.0596 49.3723 48.3759 46.3001 46.9217C46.288 46.9157 46.2752 46.9103 46.2625 46.9049C46.0215 46.6169 45.7209 46.3578 45.478 46.1155C45.0478 45.6857 44.5982 45.2749 44.1217 44.8962C43.1782 44.1464 42.1433 43.5476 41.0676 43.0084C39.9798 42.4626 38.8758 41.9504 37.8128 41.3549C36.8867 40.8353 36.0532 40.2096 35.262 39.5033C34.3728 38.7091 33.74 37.6383 33.4917 36.4695C33.479 36.4085 33.3884 36.4252 33.387 36.4836C33.3219 38.6259 34.7674 40.5191 36.4311 41.7167C38.4202 43.1474 40.822 43.8248 42.8393 45.2118C43.3406 45.5562 43.8097 45.945 44.2559 46.3578C43.5721 46.2879 42.8762 46.3323 42.2353 46.5216C41.983 46.5061 41.7293 46.5015 41.4763 46.4894C40.8978 46.4605 40.3187 46.4337 39.7395 46.4081C38.5591 46.3558 37.378 46.3082 36.1969 46.2665C33.8796 46.1846 31.5617 46.1228 29.2437 46.0819C24.5857 45.9993 19.9217 45.9832 15.2644 46.1182C14.0014 46.1544 7.36032 45.9027 6.74561 45.9738C7.64956 45.191 8.64142 44.5519 9.73194 44.0262C11.0963 43.3703 12.5062 42.9326 13.9631 42.5324C16.9636 41.7087 20.0794 40.9145 22.4805 38.8219C23.0771 38.3016 23.6073 37.7035 24.0415 37.0409C24.4562 36.4085 24.9173 35.5987 24.9287 34.8274C24.9367 34.2796 24.1744 34.0802 23.9032 34.5494C23.7348 34.8401 23.6516 35.159 23.514 35.4638C23.3771 35.7659 23.2147 36.0573 23.0342 36.336C22.6792 36.8838 22.239 37.3724 21.7598 37.8135C20.7384 38.7548 19.5009 39.4442 18.2205 39.9659C15.3134 41.1495 12.1338 41.6489 9.37895 43.2092C8.17368 43.8919 7.02008 44.8339 6.29598 46.0355C6.17921 46.0537 6.06311 46.0751 5.94702 46.0993C6.03359 45.9899 6.12083 45.8805 6.20874 45.7717C6.26645 45.7005 6.1772 45.6066 6.10673 45.6696C4.73705 46.8888 3.47541 48.2053 2.33188 49.6407C1.23801 51.0142 0.21796 52.4537 -0.504128 54.0622C-1.80201 56.9517 -2.08789 60.2567 -1.41747 63.3463C-1.23494 64.1881 -0.977243 65.0125 -0.649082 65.8094C-0.479969 66.2209 -0.296762 66.6264 -0.0927524 67.0219" fill="black"/>
<path fill-rule="evenodd" clip-rule="evenodd" d="M29.4767 6.75986C33.2872 6.75986 38.0597 11.1082 39.4564 12.9587C40.6308 14.5144 40.4646 22.529 40.4646 27.2833C40.4646 28.2776 40.0153 30.1595 39.8522 31.1106C39.2545 34.5959 36.6506 37.5189 31.4967 37.5189C27.3003 37.5189 24.0709 36.1892 20.9479 32.7882C20.2355 32.0123 16.756 34.79 16.0444 33.7897C14.1857 33.7897 12.6315 16.4167 16.2808 11.2058C19.9301 5.9949 25.6663 6.75986 29.4767 6.75986Z" fill="white"/>
<path fill-rule="evenodd" clip-rule="evenodd" d="M18.0241 7.98354C20.2259 5.97957 23.1592 5.01551 26.1187 5.08668C27.6514 5.1236 29.1788 5.41564 30.6264 5.91579C31.3505 6.16688 32.0518 6.49449 32.7222 6.86508C32.9638 6.99831 33.1865 7.15443 33.4009 7.32023L33.4543 7.36188H33.455C34.0301 7.56865 34.5435 7.93991 35.0092 8.37427C35.9427 8.29975 36.8836 8.38367 37.7862 8.67168C39.0424 9.07314 40.2054 9.80827 41.0221 10.8522C41.9735 12.0676 42.2897 13.5418 42.1769 15.0636L42.1561 15.3221C42.0445 16.6665 41.8446 18.3956 40.7416 19.279C40.6578 19.3461 40.5651 19.3971 40.4692 19.428C41.1799 20.6458 41.763 21.9979 42.112 23.3635C43.4441 28.5792 42.42 34.0184 40.8181 39.0455C40.6866 39.4597 40.0605 39.735 39.7417 39.3301C39.1726 38.6064 38.3459 38.0546 37.4157 37.9512C36.842 37.8874 36.2709 38.0029 35.7286 37.7424C35.5159 37.6397 35.3105 37.4718 35.1629 37.2677C34.2475 37.6148 33.2617 37.7786 32.2839 37.7384C30.6794 37.6726 28.9641 37.1167 27.8602 35.8975C27.683 35.7018 27.6381 35.4821 27.6789 35.2841C27.8173 35.2346 27.9595 35.1978 28.1059 35.1748C29.5058 36.0002 31.0489 36.5517 32.7073 36.5863C33.6655 36.6063 34.6002 36.4723 35.3772 35.8737C35.5453 35.7441 35.6999 35.6007 35.8428 35.4465C37.4673 34.4011 38.6127 32.6254 39.1572 30.7234C39.6645 28.9497 39.6021 27.1029 39.4277 25.2835L39.3356 24.3234C39.2014 22.9143 39.0769 21.501 39.042 20.0859L39.0526 20.0854V20.0854C39.3956 20.0632 39.3981 19.526 39.0526 19.5483C38.1588 19.6062 37.2717 19.4595 36.3807 19.5234C36.3732 19.102 36.3429 18.6825 36.2191 18.276C36.1484 18.0438 35.7442 17.998 35.7014 18.276C35.6441 18.648 35.6231 19.0178 35.6169 19.3914C34.2834 19.3737 32.9511 19.2615 31.6174 19.3076C31.3714 19.0451 31.2931 18.5796 31.178 18.2558C31.1612 18.2082 31.1444 18.1612 31.127 18.1135C31.0259 18.5762 30.8825 19.0288 30.6939 19.4718L30.3669 19.4729C28.511 19.4816 26.6173 19.5371 24.8051 19.9227C24.6791 19.8259 24.6042 19.6571 24.5839 19.5039C24.4525 18.5065 24.2649 17.5357 23.9324 16.5853L23.8848 16.4512C23.8809 16.4401 23.8768 16.4282 23.8725 16.4158C23.6275 16.8114 23.3352 17.1802 23.0163 17.5236C22.8284 17.726 22.6314 17.9196 22.4292 18.1076C22.2328 18.3258 22.0298 18.5407 21.833 18.7596C21.8407 18.7994 21.8474 18.8398 21.8529 18.8809C21.9131 19.3351 21.9193 19.7957 21.8752 20.2516C21.7955 21.0758 21.5629 21.87 21.1892 22.6048L21.1774 22.6783C21.1207 23.0226 21.0399 23.3785 20.8514 23.6378C21.0867 23.9015 21.268 24.2165 21.373 24.5664C21.4666 24.878 21.0357 25.148 20.8122 24.8931C20.6347 24.6905 20.4375 24.5229 20.2209 24.3891C20.2072 24.4077 20.1825 24.4169 20.1548 24.4014C19.5514 24.0664 18.5267 24.1677 17.9241 24.4833C17.1745 24.8753 16.8819 25.6803 16.9651 26.496C17.0449 27.2754 17.3859 28.1864 18.0469 28.5859C18.3502 28.7692 18.5864 28.7846 18.9086 28.6966C19.0115 28.6687 19.1392 28.5828 19.194 28.5402L19.248 28.4969C19.4592 28.33 19.6558 28.2156 19.9051 28.2113C20.1601 28.1317 20.4163 28.2421 20.5138 28.5095L20.5198 28.5268C20.5655 28.6631 20.6487 28.8343 20.6306 29.0424C20.6118 29.2653 20.5098 29.468 20.3574 29.6312C20.3313 29.6594 20.3031 29.6876 20.2742 29.7137C22.8982 32.5556 23.235 36.9838 21.8895 40.5339C21.8311 40.6896 21.7687 40.8433 21.7036 40.9957C21.4788 41.5181 20.6131 41.3563 20.503 40.8387C20.4702 40.6836 20.4339 40.5292 20.3943 40.3761C20.3216 40.0932 20.2382 39.813 20.1442 39.5369L20.1085 39.4335C20.0286 39.2053 19.9541 38.975 19.8736 38.7467L19.8655 38.7206C19.8625 38.7103 19.8591 38.6984 19.8555 38.685L19.7192 38.9824V38.9824L19.3052 39.88C19.1114 40.2988 18.4958 40.0712 18.4729 39.6675L18.4723 39.6537C18.4703 39.5792 18.4676 39.5054 18.4629 39.4322C18.4334 38.8837 18.3388 38.3506 18.1885 37.829L18.1342 37.8964C17.3267 38.8952 16.3789 39.8314 15.0787 40.0619C14.7525 40.1196 14.3834 39.7786 14.6076 39.449C14.7002 39.3127 14.7894 39.173 14.874 39.0314C14.8008 38.9971 14.7317 38.9616 14.668 38.9253C14.1747 38.648 13.764 38.2533 13.4244 37.8055C12.7044 36.8562 12.4467 35.6612 12.3836 34.4917C12.3165 33.2558 12.4252 31.9527 12.7628 30.7604C12.909 30.2448 13.107 29.75 13.3359 29.27C13.3198 29.227 13.3043 29.184 13.2889 29.1411C13.0419 28.4523 12.8393 27.748 12.6708 27.0357C12.3312 25.5977 12.1487 24.114 12.1266 22.6364C12.0863 19.9893 12.5426 17.2998 13.5043 14.8313C14.4975 12.2855 15.9913 9.83311 18.0241 7.98354ZM16.7877 31.1276C16.6053 30.8403 16.149 31.0992 16.3183 31.3885L16.3246 31.3988C16.6139 31.8547 16.7494 32.373 16.9158 32.8812C17.0225 33.2081 17.5413 33.0685 17.4333 32.7382L17.3975 32.6279C17.2319 32.1125 17.0808 31.5888 16.7877 31.1276ZM18.375 25.644L18.4962 25.5853C18.8784 25.4029 19.2133 25.2786 19.6649 25.4379C20.2695 25.6507 20.9171 26.3281 20.5084 26.9853C20.3581 27.2277 20.091 27.3244 19.8159 27.2673C19.352 27.1711 19.2323 26.7532 18.9969 26.4102L18.9564 26.3521C18.8129 26.1445 18.6314 25.8576 18.3925 25.7762C18.3381 25.7574 18.3153 25.6728 18.375 25.644ZM18.7172 11.6895L18.7563 11.6545C19.016 11.4249 18.6348 11.0462 18.3764 11.2745C17.194 12.3198 16.7833 13.9559 16.1699 15.3502C16.0323 15.6638 16.4947 15.9377 16.6336 15.6215C17.2187 14.2909 17.6071 12.6992 18.7172 11.6895V11.6895ZM32.9262 11.2322C32.6172 11.093 32.3469 11.5428 32.6439 11.6909L32.6551 11.6961C33.6993 12.1681 34.1435 13.2369 34.569 14.2291C34.7045 14.546 35.1669 14.2728 35.0327 13.9586L34.9559 13.7805C34.512 12.758 33.9942 11.7157 32.9262 11.2322ZM34.5633 10.5863C34.2358 10.4729 34.0955 10.9911 34.4203 11.1046C35.3055 11.4127 35.9128 12.0774 36.4249 12.8373C36.6168 13.122 37.0819 12.8535 36.8879 12.5661C36.2933 11.684 35.5874 10.9435 34.5633 10.5863Z" fill="black"/>
<path fill-rule="evenodd" clip-rule="evenodd" d="M32.7646 32.8048C32.3135 32.6207 31.911 32.3136 31.6167 31.9213C31.5144 31.7849 31.4879 31.6409 31.5093 31.5092C31.5335 31.3611 31.6211 31.2268 31.7405 31.1368C31.8603 31.0465 32.0102 31.0019 32.1551 31.0246C32.2811 31.0443 32.4064 31.1133 32.5056 31.2564L32.5263 31.285C32.7013 31.5217 32.9293 31.716 33.189 31.8412C33.4394 31.9619 33.7194 32.0183 34.0092 31.9855C34.5611 31.9231 34.9415 31.6246 35.3458 31.2191C35.3959 31.1679 35.446 31.1151 35.4964 31.0614C35.5283 31.0128 35.5724 30.9816 35.6215 30.9652C35.6759 30.947 35.7375 30.948 35.7939 30.9677C35.8483 30.9867 35.8969 31.0227 35.9295 31.0706C35.9605 31.1161 35.9781 31.1723 35.9724 31.237C35.9354 31.6572 35.7158 32.0323 35.4039 32.3267C35.0574 32.6538 34.5982 32.88 34.1658 32.9594C33.6895 33.0468 33.2041 32.9842 32.7646 32.8048V32.8048ZM34.3911 26.3223C34.8979 26.6304 35.67 27.349 35.1249 28.1129C34.4831 28.7865 33.5592 28.0142 33.1039 27.6649C32.6818 27.3942 32.2075 28.0904 32.5991 28.4065C35.8891 30.8432 37.2242 26.4029 34.6474 25.96C34.3637 25.9112 34.2583 26.227 34.3911 26.3223ZM28.4961 23.4879C28.5521 22.7926 29.6105 22.6347 29.7158 23.3227C29.8101 23.939 29.6991 24.5052 29.4216 25.06C29.1565 25.5901 28.4901 25.3428 28.4397 24.8601C28.3721 24.2131 28.4612 23.9204 28.4961 23.4879ZM36.5532 23.1801C36.7007 22.9867 36.9138 22.8547 37.1691 22.9293C37.9667 23.1625 37.7316 24.2952 37.4515 24.8466C37.2993 25.146 36.8073 25.222 36.585 24.9583C36.2226 24.5284 36.0491 23.6698 36.5098 23.2463C36.5222 23.2244 36.5361 23.2023 36.5532 23.1801ZM29.4097 20.4457L29.5357 20.4236C29.9255 20.3562 30.4101 20.2914 30.6858 20.6048C30.832 20.7711 30.8824 21.08 30.6858 21.2391C30.3401 21.5191 29.9578 21.4106 29.5435 21.4343C29.202 21.4539 28.8739 21.5104 28.545 21.6045C27.8234 21.8108 27.2355 22.1874 26.6192 22.6009C26.5384 22.6552 26.4558 22.5517 26.4944 22.4761C26.8501 21.779 27.5396 21.2064 28.2301 20.8574C28.5987 20.6711 29.002 20.5165 29.4097 20.4457ZM35.8255 20.1334L35.9219 20.1531C36.9713 20.3725 38.3347 20.8109 38.8317 21.842C38.8506 21.9878 38.8306 22.0191 38.8143 22.0395L38.8089 22.0463C38.7955 22.0637 38.7848 22.0878 38.7216 22.1076C38.7041 22.1034 38.6864 22.099 38.6685 22.0943C38.4407 22.0346 38.2605 21.9523 38.086 21.867L37.8968 21.7737C37.6774 21.6661 37.4559 21.5623 37.2213 21.4858C36.7205 21.3224 36.2054 21.2072 35.6824 21.1458C35.569 21.1325 35.4598 21.0942 35.3737 21.0286C35.2919 20.9663 35.2295 20.8801 35.201 20.7655C35.1641 20.6172 35.1747 20.5049 35.2543 20.3711C35.3141 20.2707 35.3996 20.201 35.4979 20.161C35.5981 20.1203 35.7121 20.1106 35.8255 20.1334Z" fill="black"/>
<path fill-rule="evenodd" clip-rule="evenodd" d="M40.0496 26.9232C39.5978 27.5304 38.7601 27.7238 37.9875 27.657C36.3212 27.4966 35.7967 25.6033 35.7421 24.1318C36.8595 24.4462 35.6476 22.2191 39.4673 21.9742C40.8139 21.862 40.4426 22.6755 41.0375 23.2699C41.0253 24.5174 40.8178 25.8729 40.0496 26.9232M32.1132 25.4897C31.1294 30.0987 25.742 29.0024 25.1761 24.8477C25.6987 24.4787 25.5611 23.5676 26.2103 23.2375C27.2392 22.5799 28.5254 22.608 29.6938 22.6235C31.1873 22.7261 31.6129 23.345 32.3801 24.0203C32.3432 24.4713 32.2367 25.0058 32.1132 25.4897M42.1844 21.2109C42.1292 21.2017 42.0739 21.193 42.0186 21.1849C41.9754 21.1604 41.9248 21.1415 41.8659 21.1302C41.7313 21.096 41.5977 21.073 41.4643 21.0605C39.5495 20.6295 35.1199 21.2415 34.9371 22.8761C34.3273 23.0798 33.7997 22.8974 33.093 22.9155C32.5551 20.6662 23.255 20.9837 22.8077 22.3398C22.806 22.3393 22.8043 22.3389 22.8026 22.3384C22.3728 22.2053 21.7393 22.2374 21.2474 22.2163C20.197 22.1943 19.1455 22.288 18.1179 22.5096C16.1935 22.8155 13.5672 23.1737 14.9056 25.5776C14.9059 25.578 14.9061 25.5785 14.9064 25.5789L14.9066 25.5787C15.1373 25.8152 15.5287 25.6248 15.5433 25.3046C15.0933 24.1657 16.1096 24.029 16.8915 23.7017C18.8372 23.0024 20.8181 22.9055 22.8304 23.1218C22.9818 23.3001 23.2116 23.4556 23.4544 23.5369C24.7998 23.7604 24.0907 24.7588 24.9412 24.904C24.785 28.3844 29.0089 30.2842 31.4562 27.9963C32.4334 27.0406 32.6663 25.6248 32.8929 24.3486C33.0127 24.3217 33.0889 24.2562 33.1334 24.1694C33.4214 23.8817 33.6024 23.616 34.1721 23.5369C34.7418 23.458 35.1804 23.6165 35.2397 23.665C35.2547 23.6952 35.2707 23.7254 35.2893 23.7556C35.3154 23.8007 35.3508 23.8366 35.3911 23.8648C34.8285 27.3306 37.518 29.5224 40.2332 27.7249C41.4129 26.6147 41.6622 24.915 41.7115 23.3978C41.8714 23.3013 41.9727 23.1142 41.9173 22.879C41.841 22.5547 42.0199 22.2739 42.3049 22.133C42.6751 21.9499 42.6096 21.2813 42.1844 21.2109" fill="black"/>
</g>
<path d="M27 52C13.1929 52 2 40.8071 2 27H-2C-2 43.0163 10.9837 56 27 56V52ZM52 27C52 40.8071 40.8071 52 27 52V56C43.0163 56 56 43.0163 56 27H52ZM27 2C40.8071 2 52 13.1929 52 27H56C56 10.9837 43.0163 -2 27 -2V2ZM27 -2C10.9837 -2 -2 10.9837 -2 27H2C2 13.1929 13.1929 2 27 2V-2Z" fill="#18191F"/>
<defs>
<clipPath id="clip0">
<path d="M0 27C0 12.0883 12.0883 0 27 0V0C41.9117 0 54 12.0883 54 27V27C54 41.9117 41.9117 54 27 54V54C12.0883 54 0 41.9117 0 27V27Z" fill="white"/>
</clipPath>
</defs>
</svg>
