<svg width="231" height="557" viewBox="0 0 231 557" fill="none" xmlns="http://www.w3.org/2000/svg">
<path fill-rule="evenodd" clip-rule="evenodd" d="M195.924 283.404C200.458 283.506 198.514 241.084 195.486 233.266C195.062 231.682 194.712 229.517 194.782 227.573C198.527 227.949 198.124 225.379 197.931 222.279C197.994 219.819 198.165 214.741 194.409 216.718C183.148 194.112 195.324 135.675 165.675 130.172C162.103 129.301 158.41 128.401 155.403 125.917C152.22 120.018 150.599 119.264 145.325 118.883C144.348 113.568 142.523 107.891 137.083 105.823C132.103 103.866 126.306 103.71 121.113 104.755C116.815 106.161 116.421 114.172 115.467 118.122C109.677 116.583 102.543 113.345 99.426 120.685C97.9164 120.232 96.5177 120.526 94.9836 121.03C82.1269 123.107 69.6529 128.939 64.8844 141.109C61.9388 148.412 64.0293 156.361 65.1339 163.924C66.1642 172.16 63.4474 179.79 62.1881 187.711C60.313 198.62 59.9739 207.369 61.1975 215.477C57.9632 216.215 57.7247 219.165 59.0332 222.252C59.4175 223.296 59.8045 224.398 60.6542 224.988C62.3827 226.079 64.6167 224.822 66.4951 224.629C66.8858 228.985 67.6424 233.259 68.8942 238.117C68.5317 239.571 68.1159 241.195 67.7425 242.655L67.6165 242.518C63.3279 260.531 50.5733 278.028 54.5375 297.172C54.7705 297.81 55.2129 297.677 55.5525 297.666C57.5203 298.417 59.3279 297.94 61.3123 298.017C66.0193 298.02 70.5669 298.625 74.7855 299.151C75.5566 304.203 78.0637 312.473 82.5348 314.399C82.61 314.424 83.9354 314.147 84.0461 314.139C72.1436 362.535 50.7278 407.286 42.2209 456.657C42.1706 457.259 43.1482 456.94 43.4689 457.014C43.425 458.384 44.3078 458.713 45.5438 459.2C43.951 462.54 42.5161 465.875 40.9305 469.222C40.1952 470.879 38.9969 472.516 38.7786 474.288C37.0232 475.413 35.8408 477.612 35.8721 479.664C31.1384 481.671 32.425 491.58 31.345 496.488C30.253 503.801 25.0587 508.907 21.4972 514.902C20.7713 516.105 19.9985 517.682 19.9642 519.194C17.7563 520.232 16.933 522.499 17.0791 526.315C17.0712 530.781 18.3272 532.481 21.714 532.589C30.913 533.51 41.6475 533.135 50.9 532.087C57.8215 531.204 63.9549 531.937 62.4074 523.597C62.0889 521.578 62.7006 518.859 61.509 517.225C60.7743 512.361 61.2017 507.459 62.786 502.653C63.7492 498.607 65.3763 490.25 64.7021 484.82C64.3903 482.308 59.2777 480.926 58.3778 480.804C58.6641 478.914 58.5381 475.61 57.5237 474.296C59.3864 474.036 59.8546 473.542 60.2425 471.468C61.1696 468.108 61.2929 464.46 63.5887 461.629C67.7177 461.683 71.8328 460.632 75.9596 460.504L76.165 460.029C78.6058 459.997 81.033 459.565 83.3497 458.717C83.8634 458.961 84.5207 459.17 84.8094 458.39L86.1875 454.069C102.23 402.874 120.013 351.556 137.352 300.736C138.364 298.265 139.581 295.64 141.164 293.438C141.7 324.532 148.196 355.593 148.753 386.673C149.507 408.053 149.313 429.209 151.319 450.666C151.835 455.207 152.384 455.056 153.06 454.778C153.331 454.82 153.968 454.956 154.245 455.015C153.793 459.527 153.272 466.852 151.342 471.468C147.077 472.128 147.841 475.41 148.787 478.13C147.769 479.002 147.914 481.034 148.216 482.158C144.202 482.162 143.327 485.436 143.603 487.502C143.985 490.957 143.772 496.333 146.07 499.283C147.424 503.046 149.628 506.597 150.489 510.65C151.03 513.632 150.821 517.977 151.342 520.935C150.03 521.543 150.586 522.496 150.365 524.341C149.229 532.782 153.228 531.347 160.299 531.928C164.538 532.867 196.804 534.735 195.41 529.118C195.648 526.831 194.587 525.827 194.133 523.575C193.929 522.977 189.909 516.061 187.511 513.442C179.469 505.865 179.82 495.693 180.075 483.975C179.602 480.8 177.166 477.759 174.057 478.1C174.95 474.709 173.295 471.76 169.838 470.779C170.183 466.938 170.547 461.721 171.811 458.398L170.621 457.183L172.214 457.374L172.744 456.038L173.321 457.502C176.057 457.502 179.144 456.893 181.766 456.607C182.184 456.631 181.997 456.06 182.066 455.84C184.541 455.326 184.812 454.007 184.375 450.865C184.952 399.838 184.701 349.291 183.913 298.17C187.782 298.343 191.554 296.928 195.356 295.986C196.706 296.835 197.089 293.809 196.931 293.155C196.717 289.773 196.299 286.474 195.924 283.404Z" fill="white"/>
<path fill-rule="evenodd" clip-rule="evenodd" d="M116.48 111.007C117.055 111.462 116.995 112.724 117.051 113.43L117.055 113.476C117.236 115.61 116.991 117.754 116.472 119.825L116.428 119.998C116.167 121.014 115.936 122.285 115.122 122.997C114.242 123.768 112.842 123.269 112.81 122.025C112.794 121.447 112.987 120.891 113.23 120.349C111.523 121.009 109.816 121.662 108.103 122.299C107.008 131.378 119.656 142.492 126.978 146.383C137.642 152.302 146.614 143.236 147.979 132.579C148.209 131.163 148.362 129.708 148.392 128.273C148.417 127.074 148.174 125.401 148.975 124.375C148.407 124.362 147.903 124.442 147.348 124.529L147.374 124.575C147.689 125.14 148.134 126.545 147.137 126.652C144.985 126.424 143.984 122.641 143.459 120.826C143.118 119.591 142.647 114.463 143.689 113.859C144.002 115.077 143.879 116.4 144.261 117.621C145.129 117.972 146.783 118.067 147.166 118.131C151.639 118.183 154.175 121.403 155.988 125.172C161.302 129.545 168.942 128.794 174.681 132.396C192.242 145.16 186.507 194.851 195.254 215.99C197.005 215.264 198.79 216.718 199.024 218.494C199.266 219.859 199.193 221.322 199.213 222.705L199.221 222.878C199.364 225.707 199.852 228.887 196.041 228.949C196.047 230.528 196.344 232.057 196.724 233.582C198.834 242.811 199.755 252.318 199.963 261.779L199.974 262.474C200.042 267.447 200.103 282.832 197.252 284.652L197.385 285.736C197.715 288.446 198.026 291.163 198.2 293.886C198.473 295.3 197.542 298.688 195.642 297.791C192.158 298.655 188.722 299.93 185.101 299.937C185.978 329.2 185.542 358.492 185.672 387.767C185.392 409.346 186.556 431.104 185.539 452.601L185.576 452.904C185.863 455.318 185.949 457.417 183.167 458.243C183.127 458.834 182.673 459.149 182.136 459.219C180.611 459.424 179.086 459.62 177.559 459.807C176.136 459.913 174.615 460.268 173.197 460.099C173.334 460.238 172.962 460.26 172.922 460.158C171.629 463.41 171.254 466.955 170.934 470.423C174.071 471.622 175.783 474.319 175.271 477.7C178.436 477.828 180.748 481.355 181.191 484.327C181.475 486.378 181.248 488.414 181.156 490.469C180.718 497.49 181.747 505.054 186.268 510.654L186.456 510.878C189.363 514.305 193.049 517.446 194.302 521.926C194.65 522.089 194.936 522.404 195.061 522.896L195.874 526.093L196.278 527.691C196.573 528.856 196.836 530.048 196.678 531.254L196.661 531.371C195.87 539.01 164.633 535.328 158.536 534.779C156.086 534.394 153.397 534.604 151.19 533.303C148.484 531.512 148.145 527.878 148.61 524.902L148.648 524.624C148.836 523.293 149.112 521.898 150.371 521.153C149.947 518.396 150.111 515.575 149.607 512.828C148.845 508.942 146.541 505.569 145.365 501.838C143.65 499.925 143.592 496.943 143.233 494.497C142.961 492.124 142.739 489.735 142.647 487.348C142.398 484.192 143.764 481.589 147.074 481.177C146.92 480.579 147.341 480.062 147.759 479.679C146.772 476.165 146.5 471.341 150.781 470.142C152.402 466.111 152.873 461.743 153.305 457.443C153.253 457.433 153.202 457.424 153.151 457.415C151.019 458.305 150.575 454.087 150.433 452.436C148.414 431.039 148.6 409.516 147.842 388.053L147.768 386.502C147.103 372.36 146.708 358.094 144.269 344.142C141.814 328.591 141.172 312.786 140.333 297.072C139.345 298.611 138.813 300.38 138.014 302.02C127.636 332.592 116.987 363.072 106.728 393.685C99.2912 415.849 92.1868 438.132 85.0611 460.4C84.6975 461.54 83.5519 461.776 82.7135 461.411C80.5794 462.153 78.3395 462.575 76.0856 462.648C75.9497 462.961 75.6708 463.19 75.2631 463.145C74.0575 463.013 72.6702 463.39 71.4646 463.532C68.7061 463.805 66.0283 464.229 63.2446 464.269C61.5201 466.455 61.4116 469.42 60.6166 472.022C60.1589 473.348 60.2307 476.322 58.6501 476.696C59.2167 477.571 59.2908 478.622 59.199 479.704C59.6906 479.816 60.1892 480.028 60.6517 480.245C61.1021 480.473 61.697 480.454 62.0075 480.914C70.8359 482.518 64.3841 499.328 62.8496 504.888C61.3434 509.433 60.8718 514.18 61.5591 518.925C62.6097 520.38 62.2577 522.544 62.4185 524.269C62.5033 525.808 62.6586 527.37 62.6446 528.911C62.4733 535.312 54.5921 534.271 50.1459 535.101C47.3694 535.425 44.5806 535.651 41.7917 535.826C34.7187 536.267 27.6059 536.301 20.5473 535.615C15.9898 535.47 15.0099 532.489 15.0171 528.412L15.0101 528.243C14.9075 525.476 15.3525 522.134 17.9736 520.695C18.1042 519.233 18.844 517.757 19.5993 516.479C23.1114 510.558 28.3846 505.369 29.4218 498.264C30.4392 493.613 29.2864 483.373 34.0024 480.948C34.1117 478.854 35.3949 476.718 36.9836 475.586C37.2902 473.842 38.4455 472.238 39.16 470.635C40.6176 467.573 41.9659 464.464 43.4158 461.4C42.6566 461.078 41.85 460.486 41.7441 459.645C41.0151 459.654 40.2949 459.181 40.3832 458.292C40.6407 455.71 41.2041 453.17 41.7362 450.633L41.8025 450.315C51.2694 404.43 70.8186 361.522 82.2564 316.224C80.7174 316.503 79.2787 314.739 78.4279 313.59C75.6796 309.879 74.0565 305.39 73.3427 300.835L72.0509 300.675C67.7428 300.144 63.4135 299.68 59.0695 299.805L58.0224 299.84C56.8593 299.875 55.6943 299.866 54.5886 299.447C53.8173 299.518 53.0142 299.103 52.8237 298.235C49.6061 282.157 57.5148 266.898 63.1793 252.369C64.5137 248.797 65.4633 245.173 66.369 241.474C66.3988 241.354 66.5859 241.379 66.5806 241.503C66.4041 245.615 65.3874 249.762 64.3547 253.726C60.9638 267.167 53.8993 280.347 55.6265 294.577C60.9954 290.337 67.3719 287.392 74.0699 286.146C74.4564 284.462 74.8836 282.791 75.2048 281.096C74.8889 278.49 74.6735 275.872 74.3982 273.254C73.5757 265.423 72.3191 257.611 70.644 249.917C68.0455 242.176 65.7768 234.33 64.9656 226.168L64.8179 226.197C63.0163 226.564 61.0313 227.36 59.3598 226.209C58.2988 225.472 57.8399 224.249 57.4112 223.075C56.1869 220.229 55.9604 216.488 59.425 215.298C58.1334 206.248 58.9727 196.801 60.5334 187.836C61.7836 179.978 64.5257 172.236 63.4991 164.192C62.3594 156.462 60.2348 148.366 63.3064 140.799C68.3544 128.17 81.138 122.178 93.71 120.25L93.9137 120.19C95.469 119.728 96.8853 119.242 98.5058 119.592C102.328 112.479 108.527 115.372 114.58 116.957C114.989 115.751 115.33 114.517 115.65 113.285C115.85 112.657 115.784 111.208 116.48 111.007ZM151.516 524.604L151.5 524.914C151.34 528.244 151.521 531.097 155.638 531.075C158.471 531.378 161.304 531.673 164.142 531.931L165.206 532.025C173.628 532.778 182.151 533.147 190.557 532.016L190.908 531.968C191.61 531.868 192.911 531.887 193.467 531.367C194.138 530.462 193.362 528.737 193.199 527.687C180.083 527.534 166.95 527.049 153.825 527.216C152.445 527.224 151.821 526.041 151.949 524.963C151.793 524.858 151.647 524.736 151.516 524.604ZM18.3499 522.934C17.7051 525.208 17.864 527.357 18.2283 529.634C18.4105 532.019 19.5417 532.171 21.5889 532.227C29.5805 532.967 37.6301 532.812 45.6241 532.192C49.9085 531.728 54.3115 531.746 58.5163 530.796C60.5223 529.904 59.3642 527.101 59.4323 525.382C49.9893 531.484 35.7078 530.71 25.4103 527.179L25.2453 527.108C22.8094 526.082 19.6954 525.436 18.3499 522.934ZM33.9921 481.875C32.8624 483.153 32.8838 486.888 32.8326 487.924C32.7106 490.424 32.73 492.929 32.622 495.429C32.7016 505.957 26.6387 511.208 22.1361 519.673C20.9046 521.727 22.6962 522.019 24.1535 522.685C33.5898 527.088 44.7517 527.762 54.6099 524.39C59.5652 522.946 58.4832 519.602 58.0626 515.512C57.6483 507.154 62.0342 499.624 63.3315 491.539L63.3785 491.255C63.7666 488.831 64.383 482.885 60.6502 484.173C59.8294 484.679 59.0581 484.044 58.961 483.267C58.8634 483.283 58.763 483.292 58.6662 483.294C58.2303 485.996 57.7784 488.695 57.3442 491.397C57.7096 491.63 58.052 491.893 58.3556 492.194C58.7245 492.561 58.4668 493.33 57.9108 493.284C57.625 493.259 57.3424 493.216 57.0618 493.162C56.8392 495.511 53.1189 494.193 54.1935 492.31C48.8442 490.457 42.951 490.604 37.5187 492.025L37.4963 492.035C37.0757 492.203 34.052 492.811 35.0246 493.284C35.4301 493.333 34.5069 493.864 34.3451 493.042C34.2928 492.009 36.6432 491.502 37.3634 491.073C35.5471 488.467 34.3061 485.088 33.9921 481.875ZM171.034 473.621C165.995 470.885 159.802 471.9 154.336 472.385L154.107 472.411C152.716 472.561 150.777 472.653 150.139 474.09C149.214 476.392 150.746 481.541 151.228 484.101L151.446 484.996C151.825 486.559 152.176 488.114 152.306 489.731C152.31 489.785 152.259 489.822 152.211 489.822C150.296 487.771 149.436 485.012 148.541 482.381C148.16 482.6 147.788 482.836 147.436 483.095C146.064 487.824 145.605 492.858 146.691 497.682L146.73 497.852C148.072 503.814 152.251 508.688 152.649 514.918C152.914 517.437 152.855 520.017 153.577 522.463C153.988 522.554 154.346 522.858 154.507 523.24L156.863 523.243C168.249 523.262 179.639 523.366 191.018 523.836C190.651 520.627 187.827 517.78 185.838 515.58C179.734 509.311 177.094 500.307 178.099 491.628C178.628 487.286 181.045 480.465 175.134 478.861C174.703 482.4 174.119 485.926 173.796 489.479C174.912 490.019 174.843 491.441 173.48 491.413C172.869 493.477 170.818 492.643 171.039 490.696C163.538 487.917 159.234 486.986 151.927 491.172C151.722 491.142 152.488 490.319 152.585 490.173C154.894 487.676 158.441 486.502 161.769 486.46C165.067 486.459 168.169 487.706 171.281 488.67C171.749 485.318 172.064 481.945 172.434 478.581L172.515 477.861C172.709 476.094 172.638 474.636 171.034 473.621ZM50.4845 516.91C51.5824 516.665 52.5921 516.293 53.7076 516.545C57.6332 519.502 41.5933 520.336 40.2276 520.126C36.7509 520.023 33.2727 519.581 29.9268 518.596L29.6694 518.519C29.2282 518.396 26.0419 517.494 26.6613 517.087C31.1868 517.489 35.6172 518.322 40.2276 518.105C42.5275 518.057 44.8363 517.894 47.1115 517.547C48.2429 517.374 49.369 517.162 50.4845 516.91ZM156.531 513.247C155.813 512.167 159.316 513.601 159.772 513.614C162.673 514.331 165.626 514.875 168.606 515.101C170.604 515.253 172.624 515.285 174.625 515.187C176.108 515.135 177.574 514.916 179.047 514.764L179.1 514.762C179.975 514.731 181.728 515.275 180.648 516.32C178.967 517.627 176.48 517.229 174.466 517.42C168.349 517.401 161.872 516.413 156.531 513.247ZM41.5341 505.396C43.2976 505.076 53.0037 504.971 52.0362 507.959C51.8014 508.526 51.2649 508.714 50.7 508.624C44.6927 507.159 38.2127 506.393 32.2248 508.413C32.1278 508.447 32.0607 508.288 32.156 508.245C35.1002 506.765 38.2503 505.731 41.5341 505.396ZM167.523 502.475C169.108 502.354 170.702 502.396 172.287 502.516L172.803 502.556C173.514 502.612 174.246 502.677 174.927 502.885L175.055 502.926C175.925 503.207 177.887 504.707 176.398 505.429C174.799 505.948 173.447 505.331 171.904 504.933C167.604 503.912 163.083 504.258 158.823 505.302L159.423 505.495C159.46 505.469 159.508 505.531 159.472 505.562C159.042 505.939 158.45 505.805 158.145 505.336C158.092 505.256 158.126 505.127 158.21 505.082C161.098 503.563 164.282 502.722 167.523 502.475ZM33.5894 502.093C38.4459 499.937 44.0726 499.699 49.2809 500.324L49.6519 500.37C51.2768 500.561 53.3959 500.649 54.3257 502.167C54.6469 502.693 54.3151 503.296 53.7962 503.486C52.2676 504.046 50.4707 502.924 49.0022 502.507C44.6601 501.314 40.0223 501.189 35.6069 502.013C35.6378 502.177 34.9065 502.105 34.7473 502.163C34.5477 502.152 33.2232 502.591 33.5894 502.093ZM156.058 498.728C160.295 496.661 165.193 496.168 169.767 497.235L169.957 497.289C171.984 497.86 175.247 498.534 175.973 500.685C176.13 501.17 175.79 501.825 175.28 501.924C173.552 502.255 171.982 500.99 170.419 500.381C165.817 498.647 160.609 498.232 155.851 499.508C155.819 499.696 155.788 499.882 155.754 500.07C155.835 500.016 155.92 500.136 155.855 500.202C155.095 500.736 154.306 499.389 156.058 498.728ZM44.506 495.095C47.9341 494.866 51.391 495.303 54.7005 496.21L55.3228 496.382C56.2273 496.637 57.399 497.037 57.5306 498.017C57.5818 498.407 57.4847 498.676 57.1688 498.917C56.0167 499.782 53.5108 497.971 52.0784 497.758C46.8779 496.191 41.2957 496.213 36.0277 497.412L35.8483 497.453L35.9754 498.361C36.1003 498.794 34.9423 497.772 35.3823 497.306C38.1632 495.886 41.4081 495.35 44.506 495.095ZM159.29 493.473C162.042 492.975 164.88 492.881 167.662 493.131L167.99 493.162C169.651 493.309 175.034 493.524 173.761 496.34C173.547 496.811 172.927 496.872 172.527 496.668C171.182 495.984 169.711 495.737 168.227 495.512C162.986 494.78 157.631 495.08 152.514 496.496C152.625 496.671 152.396 496.879 152.179 496.92C151.639 497.02 151.639 496.374 151.87 496.031C152.145 495.624 152.694 495.476 153.118 495.297C155.088 494.436 157.178 493.854 159.29 493.473ZM55.0848 477.802L54.7715 477.727C49.5212 476.488 37.8805 474.266 36.675 481.521C36.2471 484.716 37.6585 487.832 37.5542 490.997C42.9986 488.776 49.0191 488.799 54.6755 490.266C55.1766 486.983 55.655 483.695 56.1668 480.413L56.2495 480.021C56.4773 478.913 56.5548 478.048 55.0848 477.802ZM43.3905 479.123C44.5346 478.138 46.4425 478.153 47.5649 479.226C48.5912 479.443 49.3152 480.535 49.3318 481.472C50.8921 484.223 49.0104 488.025 46.0311 488.711C39.3038 490.134 36.2963 480.865 43.3905 479.123ZM159.947 474.733C165.576 473.724 167.62 480.887 163.001 483.792C156.474 487.075 152.126 476.751 159.947 474.733ZM46.1758 458.823C46.2586 459.371 45.9903 459.76 45.6692 460.13C44.5152 464.875 42.7783 469.291 41.0659 473.84C46.637 472.913 51.9007 473.722 56.83 475.239C56.889 473.851 57.5196 472.412 57.9577 471.103C58.8109 468.619 59.8421 466.198 61.0313 463.859L61.1808 463.567C61.6079 462.735 62.0192 461.865 62.524 461.069C57.0715 460.322 51.619 459.649 46.1758 458.823ZM155.989 457.812L155.844 458.472C155.218 461.336 154.624 464.227 153.693 467.01L153.68 467.068C153.538 467.77 153.217 471.022 153.015 468.726C152.86 469.072 152.694 469.414 152.517 469.75L153.481 469.635C158.633 469.021 164.03 468.491 169.095 469.791C168.583 465.809 169.337 462.004 170.438 458.238C165.611 458.126 160.827 458.162 155.989 457.812ZM64.5771 462.762C64.4006 462.928 64.2276 463.098 64.0635 463.276C64.2859 463.218 64.5084 463.163 64.7148 463.115C64.7063 462.984 64.6143 462.885 64.5771 462.762ZM173.356 459.109L173.251 459.357C173.233 459.398 173.216 459.439 173.199 459.48C173.28 459.432 173.371 459.385 173.467 459.344C173.423 459.272 173.386 459.195 173.356 459.109ZM85.1789 223.435C84.6847 223.675 84.1693 223.736 83.4879 223.764C77.9523 223.994 72.4343 224.638 66.9985 225.735C67.2986 230.146 68.6365 234.419 69.9096 238.625L70.1737 239.547C74.4756 254.616 78.2306 270.362 77.4743 286.123C77.5167 286.139 77.5573 286.16 77.5961 286.18C77.5274 286.373 77.4781 286.571 77.409 286.762L77.3649 286.876L77.1065 287.52C76.9638 287.877 76.8251 288.236 76.7047 288.603C76.4934 288.68 76.2338 288.736 75.9863 288.771C74.7305 297.116 75.9245 306.472 81.5834 312.997C79.235 308.069 78.3332 301.941 79.3013 296.56C79.8268 297.131 79.8642 298.447 80.0654 299.301C80.6179 302.222 81.0057 305.184 81.8356 308.044L81.9257 308.331C82.8561 311.259 84.4132 315.036 87.1118 316.548C87.6209 316.701 88.4083 316.51 88.6491 317.137C88.7883 317.696 88.529 318.387 87.957 318.561L87.9165 318.572C86.2733 319.039 84.8788 317.797 83.8251 316.487L83.7725 317.171C83.6713 318.466 83.53 319.71 82.7801 320.775C82.6919 321.145 82.6054 321.518 82.5157 321.888C80.4859 334.451 77.4326 347.438 71.8737 358.777L71.2271 360.732C60.659 392.666 49.714 424.578 43.3445 457.71C50.0371 457.003 56.7857 457.345 63.4648 458.01C69.7631 458.666 76.4249 460.413 82.4589 457.624C98.8064 407.529 115.67 357.584 134.151 308.253C136.379 300.423 140.563 292.872 142.632 284.845L142.762 284.421C143.248 282.812 143.477 281.768 143.12 279.97L143.104 279.751C143.031 278.626 143.005 276.919 144.285 276.608C144.502 276.554 144.786 276.595 144.936 276.783C145.727 277.801 144.987 279.097 145.215 280.28C145.879 284.803 144.1 289.067 142.02 292.966C142.156 293.131 142.249 293.333 142.265 293.555C142.447 295.959 142.424 298.387 142.529 300.796C142.825 307.722 143.255 314.641 143.801 321.552C145.51 334.208 147.933 346.733 149.25 359.445C152.247 389.052 151.708 418.888 153.885 448.554C153.903 451.16 154.718 453.869 153.892 456.398C154.413 456.055 155.152 456.132 155.609 456.547C164.483 455.931 173.37 456.233 182.241 455.704C182.25 455.303 182.28 454.929 182.296 454.641C182.047 454.049 182.46 453.391 182.448 452.762C181.365 446.605 182.256 439.988 182.033 433.693C182.043 427.736 182.073 421.78 182.114 415.823C182.45 378.594 181.998 341.357 182.677 304.133C182.73 302.303 182.813 300.477 182.931 298.652C182.443 298.107 182.768 297.333 182.769 296.678L182.798 296.096C182.946 293.153 183.115 290.451 181.971 287.551C181.997 287.206 182.077 286.882 182.257 286.617C176.906 284.1 171.32 282.194 165.796 280.121C164.864 280.351 163.697 279.77 163.501 278.764C161.42 268.051 159.78 257.271 158.363 246.453C149.088 252.562 137.779 253.529 127.246 256.004L125.253 256.522C120.337 257.807 115.181 259.303 111.442 262.806C111.064 268.336 113.872 284.27 105.433 283.854C102.669 284.7 99.8272 285.38 96.9979 285.745C100.292 292.018 106.301 300.375 101.55 307.321C100.861 308.053 99.9347 307.31 99.3049 306.855C99.3829 310.916 99.4911 314.956 99.4955 319.014C99.4955 319.554 98.9395 320.043 98.4029 319.859C95.3601 318.806 94.984 315.152 94.5127 312.394C94.0908 309.932 93.6672 307.469 93.2506 305.005C92.9852 309.427 94.0458 313.979 93.182 318.35C92.3526 320.85 89.7759 320.105 89.0036 318.009L88.9807 317.946C87.4532 313.696 86.7092 309.158 86.4003 304.658L86.3839 304.394C86.2949 303.028 86.1502 301.584 86.487 300.261C87.1701 301.549 87.0001 303.652 87.3182 305.211C87.8512 308.542 88.5721 311.851 89.5847 315.068L89.6111 315.181C90.0687 317.068 91.8613 320.744 91.8405 316.126C91.9091 313.779 91.708 311.439 91.5808 309.098L91.5632 308.763C91.3973 305.565 91.415 302.337 92.3716 299.253C92.6152 298.464 93.939 298.315 94.0997 299.253C94.7423 303.004 95.3564 306.759 95.9706 310.513C96.4184 312.807 96.3999 315.393 97.7604 317.371C97.7763 313.053 97.5377 308.747 97.3315 304.434L97.2903 304.301C97.1228 303.751 96.9416 303.017 97.3262 302.541C97.4763 301.556 98.9095 301.669 99.0313 302.7C99.0578 302.915 99.0772 303.133 99.0984 303.35C99.5732 303.947 100.014 304.558 100.576 305.071C104.324 297.394 92.0613 284.134 90.3684 275.464C85.3826 258.58 88.2491 240.877 89.6993 223.684C88.1997 223.506 86.6877 223.458 85.1789 223.435ZM43.1935 458.297C43.1366 458.509 43.093 458.743 42.9905 458.936C43.0717 458.95 43.1546 458.966 43.2376 458.984C43.3382 458.78 43.4441 458.582 43.5589 458.386C43.4371 458.358 43.3153 458.329 43.1935 458.297ZM105.437 379.222C105.594 379.195 105.658 379.413 105.504 379.463C100.338 381.187 95.9835 384.394 91.629 387.576C91.0112 388.026 90.434 387.085 90.8665 386.575C92.6877 384.436 94.918 382.959 97.401 381.716L97.5474 381.643C100.031 380.387 102.696 379.588 105.437 379.222ZM154.911 376.016C154.851 375.9 155.01 375.811 155.082 375.914C156.233 377.541 157.756 379.055 159.269 380.333C160.801 381.629 162.472 382.652 164.112 383.789C164.996 384.401 164.237 385.705 163.277 385.236C161.41 384.326 159.733 382.82 158.361 381.255C156.948 379.639 155.901 377.91 154.911 376.016ZM122.834 319.624C117.132 329.236 108.713 338.916 102.429 348.773C98.1861 355.092 94.3478 361.682 89.6976 367.716C88.7674 368.987 86.9741 367.926 87.6113 366.48C89.3799 362.474 91.3517 358.627 93.7254 354.956L94.4911 353.816C102.758 341.526 111.52 329.212 122.834 319.624ZM146.589 304.955C146.54 304.795 146.773 304.724 146.837 304.866L146.843 304.883C151.124 316.659 157.723 327.365 163.497 338.408C163.943 339.312 162.754 340.401 162.042 339.546C157.967 334.643 155.109 328.875 152.575 323.037C149.902 317.25 148.262 311.087 146.589 304.955ZM156.535 126.261C159.156 131.54 161.08 137.128 162.412 142.878C162.823 144.653 160.45 145.742 159.492 144.187L159.463 144.139C158.284 142.166 156.527 140.427 154.304 139.748C152.789 146.122 153.527 152.857 154.314 159.294C155.71 168.26 156.821 177.266 156.987 186.352L156.995 186.839C157.481 217.87 162.026 248.762 167.003 279.143C174.961 280.426 182.246 284.044 189.581 287.225C190.855 287.724 192.158 288.159 193.492 288.46C189.807 254.015 175.791 221.711 171.46 187.392C170.316 178.466 170.262 169.403 171.843 160.528C171.87 160.358 172.11 160.416 172.12 160.566C172.294 164.211 172.915 167.809 173.284 171.434C173.534 169.364 174.113 167.266 174.581 165.282C175.153 163.34 175.364 160.223 177.04 158.957L177.146 158.59C177.19 158.433 177.423 158.499 177.386 158.657C177.368 158.732 177.35 158.805 177.335 158.88C178.411 159.167 177.405 160.448 177.139 161.062C175.411 165.713 174.897 170.749 173.718 175.543C175.424 190.511 178.497 205.288 182.282 219.836C185.76 218.915 189.249 218.029 192.735 217.128C184.959 191.686 189.506 163.292 177.855 138.998C173.49 130.845 162.74 131.953 156.535 126.261ZM97.4539 121.61C95.823 121.522 94.1197 122.412 92.554 122.718C90.4783 123.122 88.4131 123.443 86.3834 124.064C75.9931 126.926 65.969 134.742 64.0867 146.004C62.7929 153.737 65.9965 161.271 65.8839 168.983C65.5459 176.622 63.0389 183.965 62.0621 191.528C60.8869 199.262 60.4825 207.356 61.4902 215.127C70.811 212.47 80.5449 212.304 90.1025 213.676C89.3054 201.897 90.3514 190.061 90.9301 178.29C91.3467 170.731 92.0598 163.138 91.8074 155.564C91.8021 155.396 92.0739 155.355 92.1 155.523C94.9665 170.991 93.2851 186.694 92.9956 202.294C92.8117 206.236 93.2975 210.215 93.1012 214.134C97.4465 215.074 97.2894 220.166 95.9606 223.522C95.7252 224.33 94.9256 224.19 94.2785 224.092C93.5774 224.832 91.9046 223.866 90.9513 223.866C90.205 243.23 85.6714 263.913 94.9616 282.01C98.8457 282.032 102.584 280.686 106.359 279.922L106.565 279.881L106.571 279.879C107.125 279.153 107.397 277.986 107.471 277.132C107.999 262.22 106.347 247.273 107.314 232.36C108.496 215.806 112.171 199.353 110.471 182.687C109.296 167.792 106.07 153.167 104.516 138.316L104.437 137.548C104.34 136.633 104.303 135.621 103.852 134.923C101.229 137.325 99.028 140.181 97.4523 143.395C96.5797 144.947 94.2423 144.256 94.2063 142.504C93.8702 139.374 93.8205 136.233 94.161 133.103L94.192 132.827C94.6141 128.909 95.7921 125.17 97.4539 121.61ZM194.972 229.077C191.594 229.257 188.211 229.633 184.827 229.589L185.167 230.874C189.264 246.29 193.627 261.68 196.199 277.454L196.292 275.975C196.386 274.495 196.475 273.015 196.533 271.532C197.262 257.356 196.148 243.198 194.972 229.077ZM185.089 229.092L184.688 229.072L184.713 229.16C184.795 229.143 184.879 229.128 184.963 229.113L185.089 229.092ZM196.099 218.68C196.036 218.66 195.928 218.66 195.808 218.665C195.635 219.066 195.286 219.397 194.88 219.507L191.493 220.426C188.67 221.193 185.846 221.956 183.018 222.697C183.493 224.537 183.975 226.377 184.462 228.215C188.319 226.963 192.589 227.247 196.521 226.441C196.473 224.318 196.358 222.183 196.322 220.056C196.313 219.709 196.384 219.15 196.207 218.839C196.096 218.64 196.207 218.714 196.099 218.68ZM66.5453 225.827L66.4393 225.851C66.4746 225.947 66.5063 226.044 66.5363 226.142C66.5383 226.037 66.5399 225.933 66.5453 225.827ZM91.6533 215.609C84.387 214.543 76.9975 213.914 69.669 214.639C66.3542 215.091 62.9892 215.574 59.7404 216.191C58.6107 217.939 59.8606 222.193 61.2672 223.539C61.689 223.7 62.4145 223.387 62.8187 223.295C65.8515 222.605 68.9141 222.049 71.9919 221.615C72.0836 221.731 72.2178 221.806 72.3837 221.79L73.0909 221.724C77.3359 221.335 81.6185 221.049 85.8727 221.293L85.9043 221.318C88.7745 221.529 91.6348 221.985 94.4932 222.315C95.6216 219.341 95.4271 215.928 91.6533 215.609ZM144.523 118.607C144.803 119.566 145.141 120.497 145.561 121.403C145.999 121.28 146.603 121.378 146.925 121.657L147.062 121.632C147.439 121.56 147.891 121.449 148.009 121.437C153.201 120.712 152.805 127.715 152.824 131.235C152.856 132.999 152.891 134.765 152.944 136.53C154.43 136.02 156.416 136.937 157.715 137.749C156.698 134.336 155.503 130.979 154.171 127.68L153.867 126.909C152.831 124.29 151.67 121.653 149.475 119.829C147.78 119.382 146.137 119.301 144.523 118.607ZM106.881 116.85C102.055 115.115 100.144 119.059 98.8051 122.992C97.2271 127.348 96.7964 132.144 97.0594 136.831L97.2219 136.614C98.9974 134.228 101.557 130.288 104.794 130.921C104.762 129.111 104.827 127.122 105.172 125.241C104.971 124.028 104.919 122.802 105.059 121.576C105.133 120.039 106.793 120.272 107.886 120.055C108.833 119.42 109.978 119.164 111.129 119.611C111.997 119.495 112.866 119.384 113.734 119.273C113.867 118.978 113.975 118.681 114.087 118.378C111.684 117.877 109.281 117.361 106.881 116.85Z" fill="black"/>
<path fill-rule="evenodd" clip-rule="evenodd" d="M140.056 119.702C136.235 119.725 132.987 118.64 130.509 116.845C127.417 115.741 123.687 114.039 121.421 112.252C120.538 112.478 119.48 111.539 118.804 111.043C114.599 107.9 111.298 103.301 110.32 98.6936C108.81 100.601 106.662 100.68 104.604 99.7322C100.289 97.2836 100.451 92.1279 102.004 88.2759C98.7385 80.9438 96.4755 61.5879 101.46 53.7762C102.48 52.6074 103.976 51.9083 105.053 50.7097C106.012 49.6628 106.923 48.5921 108.039 47.7637C111.442 45.1718 117.303 43.7918 120.972 43.1428C136.292 39.8283 148.062 45.7857 161.938 50.8108C161.14 52.8093 160.035 54.632 158.769 56.3314C162.214 57.6182 160.631 60.5115 157.959 61.9782L156.368 61.2042C158.848 70.085 164.556 92.1692 162.093 99.2611C160.129 110.325 151.51 119.783 140.056 119.702Z" fill="white"/>
<path fill-rule="evenodd" clip-rule="evenodd" d="M142.27 120.655C137.308 121.165 131.414 119.991 128.106 115.958C128.007 115.837 127.964 115.7 127.961 115.568C127.958 115.421 128.007 115.28 128.093 115.169C128.182 115.053 128.309 114.972 128.455 114.946C128.578 114.924 128.718 114.938 128.862 115.019L129.167 115.189C131.426 116.437 133.772 117.502 136.332 117.958C138.968 118.427 141.652 118.375 144.264 117.779C149.023 116.694 152.874 113.926 155.709 110.276C158.872 106.204 160.771 101.033 161.256 95.8631C161.842 89.5972 160.481 83.3695 159.073 77.3026C157.594 70.9277 155.976 64.5854 154.098 58.3167C154.041 58.128 154.026 57.9514 154.042 57.7887C153.488 57.5714 152.898 57.6318 152.311 57.8301C151.239 58.1925 150.17 59.0096 149.279 59.6842C148.956 59.9285 148.656 60.1555 148.386 60.3403C147.282 61.0969 146.074 61.6413 144.723 61.7269C143.318 61.8158 141.941 61.3789 140.666 60.8322C140.017 60.5544 139.38 60.2662 138.745 59.9793C136.936 59.1621 135.149 58.3529 133.196 57.8271C130.579 57.1223 127.877 56.7751 125.167 56.8C120.33 56.8443 115.478 58.0902 112.514 62.1841C111.313 63.8425 110.53 65.7485 111.14 67.7952C111.473 68.9086 112.099 69.9194 112.784 70.849L113.018 71.1656C113.394 71.6759 113.72 72.1841 113.818 72.7252C113.9 73.1785 113.836 73.658 113.513 74.1836C113.309 74.5145 113.05 74.8112 112.789 75.1069C112.601 75.3202 112.413 75.5331 112.251 75.7624C111.924 76.2246 111.635 76.7224 111.408 77.2416C110.964 78.2579 110.775 79.3512 110.736 80.4538C110.688 81.784 110.875 83.0853 111.06 84.3884C111.192 85.3124 111.323 86.2374 111.376 87.1735C111.385 87.3369 111.335 87.4586 111.265 87.5487C111.18 87.6589 111.055 87.7284 110.913 87.7476C110.87 87.7535 110.825 87.7544 110.78 87.7504C110.802 87.8405 110.822 87.931 110.838 88.0217C110.749 87.9062 110.653 87.7941 110.552 87.6857C110.546 87.6825 110.54 87.6791 110.533 87.6757C110.429 87.6185 110.341 87.5314 110.286 87.4193C110.143 87.2865 109.992 87.1605 109.833 87.0421C109.008 86.4259 108.044 86.0606 107.077 86.0485C106.145 86.0368 105.211 86.3544 104.493 87.0251C103.065 88.3581 102.646 90.5342 102.632 92.4026C102.616 94.3099 103.058 96.5988 104.719 97.783C105.386 98.258 106.2 98.5434 107.02 98.5516C107.7 98.5585 108.35 98.3178 108.991 98.0885C109.188 98.0177 109.385 97.9474 109.581 97.8835C109.804 97.811 110.007 97.8156 110.184 97.8686C110.383 97.9284 110.553 98.0519 110.679 98.2166C110.805 98.3806 110.888 98.586 110.913 98.8011C110.938 99.0093 110.91 99.2255 110.821 99.4205C110.799 99.4696 110.776 99.5172 110.752 99.5638L111.117 100.165C112.517 102.462 113.941 104.717 115.808 106.691C116.88 107.824 118.016 108.894 119.262 109.83L119.441 109.963C119.549 110.042 119.668 110.139 119.795 110.244C120.159 110.541 120.595 110.94 121.001 110.956C121.122 110.961 121.227 110.946 121.323 110.933C121.555 110.903 121.749 110.894 121.94 110.972C122.093 111.034 122.253 111.151 122.416 111.393C122.527 111.557 122.584 111.762 122.584 111.97C122.584 112.179 122.526 112.389 122.424 112.554C122.212 112.896 121.956 113.109 121.678 113.229C121.369 113.363 121.026 113.384 120.67 113.317C119.794 113.154 118.823 112.427 118.206 111.953L118.086 111.861C116.718 110.816 115.421 109.661 114.281 108.368C112.339 106.167 110.595 103.573 109.699 100.739C109.068 101.154 108.288 101.351 107.473 101.382C106.285 101.427 105.027 101.121 104.1 100.681C102.058 99.712 100.818 97.879 100.237 95.7711C99.5616 93.3232 99.781 90.5089 100.636 88.3099C100.66 88.246 100.686 88.1823 100.713 88.1177C98.0819 81.4472 97.2729 74.04 97.4983 66.9214C97.6037 63.5893 97.8304 60.0933 98.6159 56.8436C98.968 55.387 99.5797 53.9999 100.556 52.8532C101.113 52.1993 101.797 51.6902 102.483 51.1825C103.078 50.7428 103.674 50.3041 104.177 49.7551L104.414 49.4944C104.465 49.4377 104.517 49.3811 104.568 49.3246C105.435 48.3681 106.279 47.4399 107.332 46.6555C108.552 45.746 109.899 45.0341 111.298 44.4429C114.313 43.1697 117.558 42.4062 120.768 41.8156C127.712 40.5381 134.84 40.475 141.699 42.2708C144.889 43.1056 147.984 44.2483 151.073 45.3897C151.36 45.4956 151.647 45.6016 151.934 45.7073C154.335 46.592 156.737 47.473 159.14 48.3539C160.256 48.7634 161.372 49.1728 162.489 49.5826C162.731 49.6715 162.968 49.8631 163.103 50.1012C163.235 50.3335 163.274 50.6043 163.168 50.874C162.483 52.6109 161.619 54.2404 160.567 55.7621C160.932 56.011 161.243 56.3419 161.479 56.7293C161.776 57.2192 161.953 57.7992 161.965 58.4145C162.005 60.4753 160.131 61.8723 158.576 62.8826C158.431 62.9769 158.288 63.0325 158.149 63.0581C159.655 68.8223 161.098 74.6061 162.323 80.4358L162.407 80.8399C163.669 86.9409 164.484 93.1671 163.29 99.3492C162.262 104.673 159.874 109.81 156.143 113.776C152.486 117.663 147.579 120.11 142.27 120.655ZM109.599 85.5583C108.949 83.495 108.605 81.2501 108.853 79.1587C109.01 77.844 109.405 76.5783 110.048 75.4196C110.416 74.7559 110.865 74.1415 111.355 73.5629L111.524 73.3685C111.61 73.2692 111.695 73.178 111.721 73.0636C111.736 72.9972 111.721 72.9245 111.681 72.8377C111.591 72.6453 111.425 72.4599 111.269 72.279C111.17 72.164 111.074 72.0511 110.993 71.9413C109.569 70.0124 108.507 67.716 108.852 65.27C109.189 62.8835 110.752 60.659 112.416 58.9826C116.079 55.2911 121.759 54.4428 126.735 54.6464C129.632 54.7649 132.524 55.2757 135.282 56.1681C136.642 56.6083 137.972 57.1443 139.265 57.7587L139.551 57.8962C139.705 57.9711 139.859 58.0468 140.014 58.1225C141.024 58.6183 142.038 59.1189 143.135 59.3885C145.277 59.9148 146.729 58.8063 148.256 57.6885C148.78 57.3054 149.311 56.9169 149.876 56.5761L149.992 56.5073C151.011 55.9163 152.229 55.5185 153.4 55.5364C154.417 55.5519 155.398 55.8768 156.197 56.6446C156.36 56.8024 156.455 56.9745 156.499 57.1458C156.588 57.2698 156.659 57.4176 156.705 57.5923C156.991 58.6666 157.276 59.7417 157.56 60.8172L157.792 60.6675C158.48 60.2205 159.227 59.7098 159.565 58.962C159.695 58.6742 159.677 58.1948 159.513 57.8423C159.456 57.7191 159.38 57.6096 159.275 57.5412C159.199 57.4915 159.108 57.4682 159.001 57.4767C158.742 57.5101 158.504 57.4722 158.302 57.3869C158.069 57.2885 157.884 57.1265 157.763 56.9314C157.64 56.7316 157.584 56.4967 157.614 56.2531C157.64 56.0436 157.73 55.8248 157.908 55.6193C159.081 54.2662 160.069 52.7736 160.82 51.1535L155.854 49.3147C154.083 48.6594 152.312 48.005 150.54 47.3531L149.57 46.9964C146.348 45.8137 143.108 44.658 139.757 43.8966C133.098 42.3836 126.155 42.7392 119.514 44.1634L119.113 44.2502C116.327 44.8582 113.503 45.5939 110.945 46.8727C109.69 47.5003 108.497 48.2636 107.472 49.2279C107.019 49.6537 106.61 50.1199 106.201 50.5855C105.627 51.238 105.053 51.8888 104.371 52.4385L103.738 52.9458C102.796 53.7052 101.947 54.4451 101.415 55.6229C100.859 56.8542 100.594 58.2145 100.378 59.5398C99.8321 62.8784 99.6167 66.2706 99.6372 69.6524C99.672 75.3307 100.534 80.8933 101.623 86.4363C102.497 85.185 103.724 84.2148 105.3 84.008C106.327 83.8732 107.345 84.0648 108.228 84.5192C108.738 84.7819 109.203 85.1324 109.599 85.5583ZM107.948 92.3008C106.798 91.8548 105.59 91.7088 104.373 91.9221C104.245 91.9443 104.124 91.9177 104.021 91.8583C103.918 91.798 103.836 91.7027 103.792 91.5975C103.741 91.4759 103.738 91.3442 103.783 91.2273C103.822 91.1258 103.897 91.0273 104.035 90.9615C105.353 90.3321 106.817 90.0544 108.271 90.252L108.415 90.2724C109.158 90.3827 110.204 90.6149 110.987 91.0719C111.603 91.431 112.054 91.9259 112.166 92.5725C112.224 92.9094 112.141 93.2612 111.947 93.5162C111.759 93.7627 111.472 93.927 111.101 93.9164C110.446 93.8978 110.059 93.6208 109.592 93.2621C109.535 93.2186 109.477 93.174 109.417 93.1288C108.966 92.7912 108.474 92.5046 107.948 92.3008Z" fill="black"/>
<path fill-rule="evenodd" clip-rule="evenodd" d="M143.185 105.481C142.028 105.009 140.995 104.22 140.24 103.214C139.978 102.864 139.91 102.494 139.965 102.156C140.027 101.776 140.251 101.432 140.558 101.2C140.865 100.969 141.25 100.854 141.621 100.913C141.944 100.963 142.266 101.14 142.52 101.507L142.574 101.581C143.022 102.188 143.607 102.687 144.274 103.008C144.916 103.318 145.634 103.463 146.378 103.379C147.794 103.218 148.769 102.452 149.807 101.412C149.935 101.28 150.064 101.145 150.193 101.007C150.275 100.882 150.388 100.802 150.514 100.76C150.653 100.713 150.811 100.716 150.956 100.766C151.096 100.815 151.221 100.908 151.304 101.031C151.384 101.147 151.429 101.292 151.414 101.458C151.319 102.536 150.756 103.499 149.956 104.254C149.067 105.094 147.889 105.674 146.78 105.878C145.558 106.102 144.312 105.941 143.185 105.481ZM147.356 88.8448C148.656 89.6356 150.637 91.4797 149.238 93.4402C147.592 95.1688 145.222 93.1868 144.054 92.2904C142.971 91.5957 141.754 93.3824 142.759 94.1936C151.199 100.447 154.624 89.0516 148.014 87.915C147.286 87.7898 147.015 88.6002 147.356 88.8448ZM132.231 81.5707C132.375 79.7865 135.091 79.3813 135.361 81.1469C135.603 82.7285 135.318 84.1814 134.606 85.6054C133.926 86.9658 132.216 86.3311 132.087 85.0923C131.913 83.4319 132.142 82.6807 132.231 81.5707ZM152.901 80.7807C153.28 80.2845 153.826 79.9458 154.481 80.1372C156.527 80.7356 155.924 83.6426 155.206 85.0576C154.815 85.826 153.553 86.0209 152.983 85.3443C152.053 84.2409 151.608 82.0376 152.79 80.9508C152.822 80.8946 152.857 80.8379 152.901 80.7807ZM134.577 73.7634L134.9 73.7068C135.9 73.5337 137.143 73.3675 137.85 74.1719C138.226 74.5985 138.355 75.3914 137.85 75.7997C136.964 76.5181 135.983 76.2397 134.92 76.3005C134.044 76.3508 133.202 76.4959 132.358 76.7373C130.507 77.2667 128.999 78.2332 127.418 79.2945C127.211 79.4338 126.999 79.1683 127.098 78.9741C128.01 77.1852 129.779 75.7158 131.551 74.82C132.496 74.3419 133.531 73.9453 134.577 73.7634ZM151.037 72.962L151.284 73.0127C153.976 73.5758 157.474 74.7007 158.749 77.347C158.797 77.7212 158.746 77.8014 158.704 77.8538L158.69 77.8712C158.656 77.916 158.628 77.9776 158.466 78.0286C158.421 78.0178 158.376 78.0065 158.33 77.9944C157.746 77.8412 157.283 77.6301 156.836 77.411L156.35 77.1717C155.787 76.8954 155.219 76.6292 154.617 76.4327C153.333 76.0133 152.011 75.7179 150.669 75.5602C150.378 75.526 150.098 75.4278 149.877 75.2594C149.668 75.0996 149.507 74.8784 149.434 74.5843C149.34 74.2037 149.367 73.9156 149.571 73.5722C149.724 73.3144 149.944 73.1356 150.196 73.033C150.453 72.9284 150.746 72.9037 151.037 72.962Z" fill="black"/>
<path fill-rule="evenodd" clip-rule="evenodd" d="M167.348 75.7279C167.206 75.7043 167.065 75.682 166.923 75.6612C166.812 75.5983 166.682 75.5499 166.531 75.5208C166.186 75.4331 165.843 75.374 165.501 75.3421C160.589 74.2359 149.225 75.8066 148.756 80.0015C147.192 80.524 145.838 80.0561 144.025 80.1026C142.645 74.3301 118.786 75.1448 117.639 78.6251C117.635 78.6239 117.63 78.6228 117.626 78.6214C116.523 78.28 114.898 78.3623 113.636 78.3082C110.942 78.2517 108.244 78.4921 105.608 79.0608C100.671 79.8459 93.9334 80.7651 97.3668 86.9343C97.3675 86.9354 97.368 86.9366 97.3689 86.9376L97.3694 86.9371C97.9611 87.5441 98.9654 87.0553 99.0027 86.2336C97.8484 83.3109 100.456 82.96 102.462 82.1201C107.453 80.3255 112.535 80.0768 117.697 80.6319C118.086 81.0895 118.675 81.4885 119.298 81.6973C122.75 82.2707 120.93 84.8329 123.112 85.2056C122.711 94.1374 133.547 99.0128 139.826 93.1414C142.333 90.6887 142.93 87.0553 143.512 83.7803C143.819 83.7112 144.014 83.543 144.128 83.3204C144.868 82.582 145.332 81.9001 146.793 81.6973C148.255 81.4947 149.38 81.9015 149.532 82.026C149.57 82.1034 149.612 82.1809 149.659 82.2584C149.726 82.374 149.817 82.4662 149.92 82.5388C148.477 91.4329 155.377 97.0578 162.342 92.4448C165.369 89.5957 166.008 85.2337 166.135 81.3403C166.545 81.0926 166.805 80.6124 166.663 80.0087C166.467 79.1766 166.926 78.456 167.657 78.0942C168.607 77.6244 168.439 75.9086 167.348 75.7279ZM137.418 79.9476C136.554 79.7573 136.184 81.0913 137.052 81.2821C137.666 81.4172 138.186 81.7272 138.538 82.2523L138.575 82.3094C139.047 83.0609 140.24 82.3671 139.765 81.6108C139.23 80.7596 138.4 80.1635 137.418 79.9476ZM162.741 79.1204C162.436 78.9056 161.975 79.0651 161.798 79.3687C161.603 79.703 161.731 80.0753 162.016 80.294L162.045 80.3153C162.307 80.5 162.562 80.8311 162.594 81.1703L162.597 81.2127C162.631 82.1003 164.01 82.1048 163.975 81.2127C163.942 80.3399 163.437 79.6107 162.741 79.1204Z" fill="black"/>
</svg>
