<svg width="159" height="179" viewBox="0 0 159 179" fill="none" xmlns="http://www.w3.org/2000/svg">
<g clip-path="url(#clip0)">
<path fill-rule="evenodd" clip-rule="evenodd" d="M41.7571 218.037C42.2105 213.824 42.4899 209.582 42.6503 205.348C42.8105 201.12 42.601 196.839 42.509 192.609C42.3216 184.003 42.0169 175.377 42.7019 166.784C43.3491 158.663 44.8351 150.599 47.18 142.796C48.3219 138.996 49.5253 135.043 51.4033 131.532C53.2918 128.002 56.2832 125.651 59.5691 123.495C63.0675 121.2 66.5379 118.861 70.0227 116.544C72.9479 114.6 78.212 112.337 80.6121 109.737C83.1375 107.001 83.6122 100.221 85.2941 96.9802C86.932 93.8239 91.5684 91.765 95.1382 91.765C101.047 91.765 105.524 91.4629 110.383 96.931C112.807 99.6594 110.879 102.417 113.42 105.036C115.756 107.444 121.73 109.918 124.741 111.315C128.347 112.988 132.045 114.465 135.795 115.781C139.622 117.123 143.544 118.124 147.392 119.391C151.08 120.605 155.896 125.61 158.759 128.259C161.421 130.721 162.082 130.445 164.105 133.436C168.547 140.001 172.993 146.641 176.529 153.748C178.291 157.288 179.997 161.013 180.636 164.944C181.318 169.138 180.642 173.191 179.536 177.251C178.411 181.383 174.837 185.317 173.672 189.439C173.136 191.338 174.978 193.411 174.13 195.201C173.707 196.095 173.175 196.891 172.568 197.67C172.1 198.27 170.278 198.137 170.042 198.871C169.803 199.613 171.122 201.153 171.142 201.921C171.17 203.019 171.213 204.118 171.25 205.217L171.463 211.713C171.603 215.982 171.743 220.251 171.883 224.519C171.928 225.913 171.995 227.274 171.661 228.597C171.782 228.485 171.896 228.363 172.001 228.226C172.307 227.826 172.957 228.165 172.697 228.633C172.263 229.414 171.639 229.964 170.906 230.359C170.054 231.616 41.0199 234.422 40.385 230.748C40.0288 228.687 40.6771 226.48 40.9363 224.432C41.2062 222.299 41.5269 220.175 41.7571 218.037Z" fill="white"/>
<path fill-rule="evenodd" clip-rule="evenodd" d="M172.831 164.952C172.515 164.047 171.071 164.439 171.389 165.349C173.023 170.032 171.864 175.128 170.097 179.598C169.743 180.495 171.189 180.88 171.539 179.995C173.397 175.293 174.547 169.869 172.831 164.952ZM161.874 191.699C157.265 192.348 152.652 192.748 148.012 193.071C147.804 193.086 147.625 193.055 147.47 192.987C147.608 195.113 147.72 197.241 147.808 199.368C149.073 199.333 150.365 199.417 151.619 199.383C153.258 199.338 154.895 199.256 156.53 199.131C159.696 198.891 162.857 198.51 165.987 197.983C167.157 197.787 168.643 197.667 169.975 197.278C171.235 196.91 172.356 196.3 172.945 195.152C173.446 194.18 173.537 192.989 173.537 191.914C173.537 191.174 173.41 190.422 173.334 189.676C173.238 189.609 173.152 189.528 173.083 189.439C171.693 189.878 170.25 190.187 168.837 190.486C166.536 190.975 164.202 191.372 161.874 191.699ZM164.473 174.412C164.448 175.841 164.052 177.139 163.283 178.342C162.763 179.156 164.058 179.905 164.574 179.097C165.48 177.68 165.938 176.09 165.968 174.412C165.985 173.447 164.49 173.451 164.473 174.412ZM46.3342 190.001C45.7101 190.036 45.0822 190.058 44.4563 190.091C43.9042 190.563 43.1398 190.805 42.4418 190.655C42.4177 190.715 42.3958 190.783 42.3758 190.861C42.2525 191.342 42.1908 191.858 42.1198 192.348C42.0488 192.83 41.9946 193.316 41.9572 193.803C41.9385 194.047 41.8208 194.601 41.9703 194.814C42.1048 195.006 42.402 194.99 42.6076 195.014C43.1608 195.074 43.7214 195.102 44.2784 195.149C45.3306 195.24 46.3828 195.332 47.4331 195.423C48.4628 195.513 49.5935 195.485 50.6009 195.756C50.7728 193.735 50.9298 191.714 51.0756 189.691C49.515 189.921 47.8835 189.915 46.3342 190.001ZM177.18 186.649C176.552 187.862 175.973 189.055 174.771 189.784C174.614 189.878 174.438 189.928 174.259 189.942C174.393 190.519 174.477 191.11 174.552 191.656C174.717 192.858 174.752 194.101 174.451 195.287C174.158 196.44 173.672 197.471 172.719 198.209C172.276 198.553 171.792 198.815 171.284 199.022C171.37 199.264 171.42 199.503 171.394 199.767C171.515 200.378 171.596 201.001 171.683 201.597C171.876 202.921 172.068 204.246 172.22 205.577C172.523 208.225 172.76 210.872 172.96 213.529C173.16 216.178 173.304 218.831 173.423 221.486C173.485 222.844 173.539 224.201 173.59 225.56C173.64 226.957 173.866 228.385 173.25 229.681C172.752 230.728 171.072 230.668 170.557 229.681C169.902 228.426 170.095 226.936 170.078 225.56C170.061 224.264 170.039 222.967 170.011 221.671C169.955 219.018 169.873 216.367 169.807 213.714C169.744 211.125 169.665 208.537 169.613 205.947C169.587 204.592 169.585 203.236 169.577 201.881C169.573 201.129 169.542 200.328 169.598 199.544C169.131 199.654 168.66 199.748 168.194 199.843C164.641 200.572 161.051 201.103 157.439 201.432C155.624 201.597 153.804 201.713 151.983 201.778C150.645 201.827 149.258 201.92 147.9 201.87C148.006 205.115 148.055 208.363 148.049 211.611C148.046 213.953 148.014 216.296 147.956 218.639C147.924 219.871 147.898 221.103 147.861 222.335C147.844 222.888 147.844 223.447 147.806 223.999C147.795 224.171 147.771 224.337 147.739 224.502C147.862 224.852 147.965 225.197 148.049 225.521C148.46 227.091 148.46 228.6 148.277 230.2C148.12 231.558 146.978 232.816 145.47 232.339C145.225 232.263 144.981 232.182 144.738 232.1C142.517 232.352 140.284 232.41 138.032 232.453C134.741 232.517 131.448 232.537 128.155 232.554C121.696 232.588 115.235 232.605 108.774 232.623C95.791 232.661 82.8077 232.696 69.8244 232.734C66.2211 232.745 62.6179 232.754 59.0146 232.766C57.1495 232.771 55.288 232.773 53.4247 232.844C52.5557 232.878 51.6848 232.925 50.8158 232.938C49.8084 232.955 48.9169 232.665 47.9545 232.401C47.4106 232.25 47.1957 231.704 47.3116 231.242C46.4406 231.449 45.3847 231.008 45.0876 230.027C44.8708 229.314 44.9511 228.542 45.2744 227.882V227.88C45.8987 223.937 46.6911 220.013 47.3134 216.068C47.9956 211.747 48.6516 207.417 49.229 203.08C49.6626 199.804 50.0196 202.126 50.328 198.835C48.9842 198.94 47.4648 198.531 46.1341 198.357C45.1791 198.234 44.2166 198.134 43.2598 198.003C43.3308 198.968 43.3102 199.952 43.3364 200.877C43.3869 202.715 43.3644 204.545 43.3177 206.383C43.228 209.93 43.028 207.866 42.7084 211.397C42.3851 214.955 41.9889 218.5 41.5086 222.041C41.2619 223.864 40.9984 225.685 40.7199 227.504C40.591 228.353 40.4583 229.2 40.3218 230.049C40.1592 231.049 40.1069 231.997 39.3575 232.749C38.7875 233.319 37.6232 233.27 37.2456 232.476C36.7672 231.472 36.984 230.612 37.1615 229.557C37.3054 228.71 37.4437 227.863 37.5802 227.017C37.8717 225.201 38.1483 223.384 38.4081 221.565C38.909 218.059 39.3818 214.548 39.8042 211.033C40.2303 207.49 40.6713 209.56 41.09 206.017C41.3011 204.229 41.5123 202.446 41.759 200.664C41.8842 199.748 41.9628 198.772 42.1272 197.828C42.0749 197.82 42.0226 197.811 41.9702 197.801C40.8339 197.594 39.864 196.953 39.578 195.782C39.3052 194.662 39.6304 193.374 39.8602 192.275C40.0565 191.339 40.2338 190.143 40.8363 189.341C38.7133 186.636 37.3324 183.232 36.4515 179.959C35.492 176.393 35.0904 172.671 35.0054 168.987C34.9067 164.718 35.2283 160.474 35.9596 156.3C35.9768 155.415 36.0176 154.531 36.0832 153.648C36.7261 144.981 39.4248 134.722 47.9806 130.672C48.0143 130.656 48.0498 130.64 48.0853 130.625C48.7562 129.823 49.5935 129.102 50.27 128.427C51.468 127.23 52.7202 126.086 54.0471 125.031C56.6748 122.943 59.5566 121.276 62.5525 119.774C65.582 118.254 68.6563 116.828 71.6167 115.169C74.1958 113.722 76.5169 111.98 78.7204 110.013C81.1967 107.801 82.9591 104.819 83.6506 101.564C83.6861 101.394 83.9384 101.441 83.9421 101.603C84.1234 107.569 80.0978 112.841 75.4648 116.177C69.9253 120.161 63.2365 122.048 57.6186 125.91C56.2225 126.869 54.9161 127.952 53.6733 129.102C55.5777 128.907 57.5158 129.031 59.3006 129.558C60.0033 129.515 60.7097 129.502 61.4143 129.468C63.0253 129.388 64.6382 129.313 66.251 129.242C69.5384 129.096 72.8277 128.963 76.117 128.848C82.5703 128.619 89.0255 128.447 95.4807 128.333C108.453 128.103 121.442 128.058 134.412 128.434C137.929 128.535 156.424 127.834 158.136 128.032C155.618 125.852 152.856 124.073 149.819 122.608C146.02 120.782 142.093 119.563 138.036 118.448C129.68 116.154 121.002 113.943 114.316 108.115C112.654 106.666 111.178 105 109.968 103.155C108.813 101.394 107.53 99.1389 107.498 96.9906C107.475 95.4652 109.598 94.9097 110.353 96.2166C110.823 97.0262 111.054 97.9142 111.437 98.7631C111.819 99.6044 112.271 100.416 112.774 101.192C113.762 102.718 114.988 104.078 116.323 105.307C119.167 107.928 122.613 109.848 126.179 111.301C134.275 114.597 143.13 115.988 150.802 120.333C154.159 122.234 157.371 124.858 159.388 128.204C159.713 128.255 160.036 128.315 160.36 128.382C160.119 128.077 159.876 127.773 159.631 127.469C159.47 127.271 159.719 127.01 159.915 127.185C163.729 130.581 167.243 134.247 170.428 138.244C173.474 142.069 176.315 146.078 178.326 150.558C181.94 158.605 182.736 167.809 180.869 176.413C180.361 178.757 179.643 181.053 178.729 183.273C178.258 184.419 177.748 185.548 177.18 186.649Z" fill="black"/>
<path fill-rule="evenodd" clip-rule="evenodd" d="M94.8329 18.8253C84.2212 18.8253 70.9303 30.9351 67.0405 36.0883C63.7701 40.4209 64.2327 62.7408 64.2327 75.981C64.2327 78.7501 65.484 83.991 65.9382 86.6397C67.6027 96.3459 74.8545 104.486 89.2074 104.486C100.894 104.486 109.888 100.783 118.585 91.3117C120.569 89.1509 130.259 96.8864 132.241 94.1007C137.417 94.1007 141.745 45.7186 131.582 31.2068C121.419 16.695 105.445 18.8253 94.8329 18.8253Z" fill="white"/>
<path fill-rule="evenodd" clip-rule="evenodd" d="M126.727 22.2332C120.595 16.6524 112.426 13.9676 104.184 14.1657C99.9156 14.2686 95.662 15.0819 91.6308 16.4747C89.6142 17.174 87.6612 18.0864 85.7942 19.1184C85.1214 19.4895 84.5011 19.9242 83.904 20.386L83.7552 20.5019H83.7534C82.1517 21.0778 80.722 22.1117 79.425 23.3213C76.8253 23.1138 74.2051 23.3475 71.6914 24.1496C68.1928 25.2676 64.954 27.3149 62.6796 30.2222C60.0302 33.6068 59.1495 37.7123 59.4637 41.9505L59.5218 42.6705C59.8325 46.4144 60.3892 51.2299 63.4608 53.6899C63.6944 53.8768 63.9523 54.0189 64.2196 54.1049C62.2404 57.4964 60.6163 61.2619 59.6445 65.0647C55.9347 79.5899 58.7867 94.7377 63.2477 108.738C63.614 109.891 65.3577 110.658 66.2455 109.53C67.8303 107.515 70.1328 105.978 72.7231 105.69C74.321 105.512 75.9114 105.834 77.4215 105.109C78.0139 104.823 78.5858 104.355 78.997 103.787C81.5462 104.753 84.2916 105.21 87.0146 105.097C91.4832 104.914 96.2601 103.366 99.3344 99.9709C99.8278 99.4259 99.9528 98.8139 99.8392 98.2624C99.4537 98.1248 99.0578 98.0223 98.65 97.9582C94.7515 100.257 90.4541 101.793 85.8357 101.889C83.1671 101.945 80.5641 101.571 78.4002 99.9045C77.9321 99.5436 77.5015 99.1441 77.1034 98.7148C72.5794 95.8034 69.3897 90.8584 67.8733 85.5616C66.4604 80.622 66.6342 75.4786 67.1201 70.4119L67.3764 67.7382C67.7501 63.814 68.0968 59.8781 68.194 55.9372L68.1646 55.9357C67.2092 55.874 67.2023 54.3777 68.1646 54.44C70.6538 54.6011 73.1241 54.1926 75.6057 54.3706C75.6264 53.197 75.7109 52.0287 76.0557 50.8968C76.2525 50.2501 77.3781 50.1226 77.4974 50.8968C77.657 51.9326 77.7153 52.9626 77.7327 54.003C81.4464 53.9537 85.1565 53.6411 88.8708 53.7695C89.5559 53.0385 89.774 51.7423 90.0945 50.8405C90.1413 50.7078 90.188 50.5769 90.2366 50.4442C90.5182 51.7327 90.9174 52.993 91.4426 54.2268L92.3535 54.2299C97.5219 54.2542 102.796 54.4087 107.842 55.4825C108.193 55.2131 108.402 54.743 108.458 54.3162C108.824 51.5387 109.347 48.8351 110.273 46.1882L110.405 45.8148C110.416 45.7838 110.428 45.7509 110.44 45.7162C111.122 46.818 111.936 47.845 112.824 48.8013C113.347 49.365 113.896 49.904 114.459 50.4277C115.006 51.0354 115.571 51.6338 116.119 52.2433C116.098 52.3542 116.079 52.4667 116.064 52.5814C115.896 53.8462 115.879 55.1289 116.002 56.3986C116.224 58.6939 116.872 60.9057 117.912 62.9519L117.945 63.1567C118.103 64.1156 118.328 65.1066 118.853 65.8287C118.198 66.5631 117.693 67.4403 117.4 68.4149C117.14 69.2826 118.34 70.0346 118.962 69.3245C119.457 68.7604 120.006 68.2936 120.609 67.9212C120.647 67.9729 120.716 67.9984 120.793 67.9552C122.473 67.0222 125.327 67.3046 127.005 68.1833C129.093 69.2752 129.908 71.5169 129.676 73.7885C129.454 75.9591 128.504 78.4962 126.663 79.6086C125.819 80.1191 125.161 80.1621 124.264 79.9171C123.977 79.8392 123.621 79.6002 123.469 79.4814L123.318 79.361C122.73 78.896 122.183 78.5776 121.488 78.5654C120.778 78.3439 120.065 78.6512 119.793 79.396L119.777 79.4441C119.649 79.8236 119.418 80.3004 119.468 80.88C119.52 81.5007 119.805 82.0653 120.229 82.5197C120.302 82.5982 120.38 82.6767 120.461 82.7496C113.153 90.6638 112.215 102.996 115.962 112.883C116.125 113.316 116.298 113.744 116.48 114.169C117.106 115.623 119.517 115.173 119.823 113.731C119.915 113.3 120.016 112.869 120.126 112.443C120.329 111.655 120.561 110.875 120.823 110.106L120.922 109.818C121.145 109.183 121.352 108.541 121.576 107.906L121.599 107.833C121.607 107.804 121.616 107.771 121.627 107.734L122.006 108.562L123.159 111.062C123.699 112.228 125.413 111.594 125.477 110.47L125.479 110.431C125.484 110.224 125.492 110.018 125.505 109.814C125.587 108.287 125.85 106.803 126.269 105.35L126.42 105.538C128.669 108.319 131.309 110.926 134.93 111.568C135.838 111.729 136.866 110.779 136.242 109.861C135.984 109.482 135.735 109.093 135.5 108.698C135.703 108.603 135.896 108.504 136.073 108.403C137.447 107.631 138.591 106.531 139.536 105.284C141.542 102.641 142.259 99.3128 142.435 96.0558C142.622 92.6138 142.319 88.9849 141.379 85.6644C140.972 84.2285 140.42 82.8506 139.783 81.5138C139.828 81.3941 139.871 81.2745 139.914 81.1548C140.602 79.2366 141.166 77.2753 141.635 75.2917C142.581 71.2869 143.089 67.155 143.151 63.0399C143.263 55.6679 141.992 48.1782 139.314 41.3035C136.548 34.2139 132.388 27.3841 126.727 22.2332ZM130.171 86.687C130.679 85.887 131.95 86.608 131.478 87.4136L131.461 87.4424C130.655 88.7119 130.278 90.1552 129.814 91.5706C129.517 92.4811 128.072 92.0922 128.373 91.1723L128.473 90.8652C128.934 89.43 129.355 87.9714 130.171 86.687ZM125.748 71.4159L125.41 71.2525C124.346 70.7444 123.413 70.3983 122.156 70.8419C120.472 71.4346 118.668 73.321 119.807 75.1514C120.225 75.8264 120.969 76.0956 121.735 75.9367C123.027 75.6687 123.36 74.5049 124.016 73.5496L124.129 73.3879C124.528 72.8098 125.034 72.0108 125.699 71.7842C125.851 71.7318 125.914 71.4963 125.748 71.4159ZM124.798 32.5538L124.69 32.4564C123.966 31.817 125.028 30.7625 125.747 31.3982C129.04 34.3092 130.184 38.8655 131.892 42.7488C132.275 43.6219 130.988 44.3847 130.601 43.5041C128.971 39.7986 127.89 35.3659 124.798 32.5538ZM85.2259 31.2804C86.0863 30.8925 86.8391 32.1452 86.0119 32.5576L85.9809 32.5723C83.0729 33.8867 81.8357 36.8632 80.6508 39.6265C80.2733 40.509 78.9857 39.748 79.3594 38.873L79.5733 38.3772C80.8096 35.5295 82.2516 32.6268 85.2259 31.2804ZM80.6682 29.4818C81.5802 29.1659 81.9708 30.6092 81.0663 30.9252C78.6012 31.7834 76.9098 33.6343 75.4839 35.7507C74.9493 36.5434 73.6542 35.7956 74.1943 34.9954C75.8502 32.5387 77.8163 30.4765 80.6682 29.4818Z" fill="black"/>
<path fill-rule="evenodd" clip-rule="evenodd" d="M85.6736 91.358C86.9299 90.8452 88.0509 89.99 88.8704 88.8975C89.1553 88.5177 89.2292 88.1166 89.1694 87.7498C89.1022 87.3373 88.8583 86.9634 88.5256 86.7127C88.1919 86.4612 87.7745 86.3371 87.371 86.4003C87.0203 86.4553 86.6713 86.6474 86.395 87.0457L86.3373 87.1254C85.85 87.7848 85.2151 88.3258 84.4917 88.6746C83.7945 89.0107 83.0146 89.1676 82.2077 89.0763C80.6707 88.9026 79.6114 88.0711 78.4854 86.9419C78.3458 86.7993 78.2062 86.6523 78.0658 86.5029C77.9772 86.3675 77.8542 86.2804 77.7177 86.2348C77.566 86.1841 77.3945 86.1869 77.2374 86.2418C77.0859 86.2947 76.9505 86.3949 76.8597 86.5283C76.7733 86.6551 76.7244 86.8117 76.7403 86.9919C76.8434 88.1621 77.4549 89.2065 78.3236 90.0266C79.2884 90.9374 80.5674 91.5675 81.7714 91.7884C83.098 92.0319 84.4496 91.8575 85.6736 91.358ZM81.1457 73.3049C79.7344 74.163 77.584 76.1641 79.1022 78.2916C80.8893 80.1675 83.4623 78.0167 84.7303 77.044C85.9059 76.2901 87.2269 78.229 86.1361 79.1093C76.974 85.8952 73.2558 73.5293 80.4319 72.2959C81.222 72.16 81.5154 73.0394 81.1457 73.3049ZM97.5642 65.4111C97.4083 63.4749 94.4605 63.0352 94.1673 64.9512C93.9047 66.6675 94.2138 68.2442 94.9866 69.7894C95.725 71.2657 97.5809 70.5769 97.7213 69.2327C97.9094 67.4307 97.6612 66.6156 97.5642 65.4111ZM75.1255 64.5539C74.7145 64.0155 74.1211 63.6479 73.4102 63.8556C71.189 64.5049 71.8437 67.6596 72.6237 69.1951C73.0476 70.029 74.4177 70.2404 75.0369 69.5062C76.0461 68.3089 76.5294 65.9178 75.2464 64.7385C75.2116 64.6775 75.1729 64.616 75.1255 64.5539ZM95.0179 56.9387L94.667 56.8772C93.5816 56.6894 92.232 56.509 91.4642 57.382C91.057 57.8449 90.9168 58.7053 91.4642 59.1484C92.427 59.928 93.4916 59.6259 94.6454 59.6919C95.5963 59.7465 96.5102 59.9039 97.4262 60.1659C99.4356 60.7404 101.073 61.7893 102.789 62.941C103.014 63.092 103.244 62.8039 103.137 62.5932C102.146 60.652 100.226 59.0573 98.3031 58.0853C97.2767 57.5665 96.1535 57.1361 95.0179 56.9387ZM77.1503 56.0691L76.8817 56.1241C73.9593 56.7352 70.1623 57.956 68.7784 60.8276C68.7257 61.2337 68.7814 61.3207 68.8267 61.3776L68.8418 61.3965C68.8791 61.4451 68.9089 61.512 69.0849 61.5672C69.1337 61.5556 69.183 61.5433 69.2328 61.5302C69.8672 61.3639 70.3691 61.1348 70.855 60.8971L71.3818 60.6374C71.9931 60.3376 72.6097 60.0487 73.2632 59.8354C74.6578 59.3803 76.0922 59.0598 77.5489 58.8886C77.8647 58.8515 78.1687 58.7449 78.4085 58.5623C78.6362 58.3888 78.8101 58.1487 78.8894 57.8296C78.9922 57.4166 78.9627 57.1039 78.7411 56.7313C78.5746 56.4515 78.3363 56.2575 78.0626 56.1462C77.7836 56.0326 77.466 56.0059 77.1503 56.0691Z" fill="black"/>
<path fill-rule="evenodd" clip-rule="evenodd" d="M65.3863 74.9784C66.6447 76.6695 68.9774 77.2081 71.1291 77.0221C75.7698 76.5753 77.2303 71.3027 77.3825 67.2046C74.2705 68.0804 77.6456 61.878 67.008 61.196C63.258 60.8834 64.2919 63.149 62.6351 64.8044C62.6691 68.2786 63.2472 72.0535 65.3863 74.9784ZM87.49 70.9864C90.2298 83.822 105.233 80.7689 106.809 69.1984C105.354 68.1709 105.737 65.6336 103.929 64.7143C101.064 62.8828 97.4818 62.9611 94.2278 63.0041C90.0686 63.29 88.8833 65.0136 86.7468 66.8941C86.8496 68.1501 87.146 69.6387 87.49 70.9864ZM59.443 59.0702C59.5968 59.0446 59.7508 59.0205 59.9048 58.9979C60.025 58.9296 60.1661 58.8771 60.3302 58.8455C60.7049 58.7504 61.077 58.6862 61.4485 58.6516C66.7809 57.4511 79.117 59.1557 79.6261 63.7079C81.3242 64.2749 82.7935 63.7672 84.7617 63.8176C86.2598 57.5534 112.16 58.4376 113.405 62.2142C113.41 62.2129 113.415 62.2118 113.419 62.2103C114.616 61.8397 116.381 61.9291 117.751 61.8704C120.676 61.8091 123.604 62.0699 126.466 62.6871C131.825 63.5391 139.139 64.5365 135.412 71.2313C135.411 71.2324 135.411 71.2337 135.41 71.2349L135.409 71.2343C134.767 71.893 133.677 71.3626 133.636 70.4709C134.889 67.2993 132.059 66.9184 129.881 66.007C124.463 64.0596 118.946 63.7896 113.342 64.392C112.92 64.8886 112.281 65.3216 111.604 65.5482C107.857 66.1704 109.832 68.9509 107.464 69.3553C107.899 79.0479 96.1356 84.3386 89.3199 77.9671C86.5986 75.3054 85.9499 71.3626 85.319 67.8086C84.9854 67.7336 84.7732 67.5511 84.6493 67.3096C83.847 66.5082 83.343 65.7682 81.7565 65.5482C80.1699 65.3283 78.9486 65.7697 78.7834 65.9049C78.7417 65.9888 78.6971 66.073 78.6451 66.1571C78.5726 66.2826 78.4739 66.3826 78.3618 66.4613C79.9285 76.1131 72.4385 82.2171 64.8771 77.2112C61.5915 74.1193 60.8972 69.3858 60.76 65.1608C60.3147 64.8919 60.0327 64.3709 60.1868 63.7157C60.3993 62.8127 59.9011 62.0308 59.1076 61.6382C58.0765 61.1283 58.2589 59.2664 59.443 59.0702Z" fill="black"/>
</g>
<defs>
<clipPath id="clip0">
<rect width="212.308" height="230" fill="white" transform="matrix(-1 0 0 1 212.308 0)"/>
</clipPath>
</defs>
</svg>
