<svg width="48" height="48" viewBox="0 0 48 48" fill="none" xmlns="http://www.w3.org/2000/svg">
<g clip-path="url(#clip0)">
<path d="M0 24C0 10.7452 10.7452 0 24 0V0C37.2548 0 48 10.7452 48 24V24C48 37.2548 37.2548 48 24 48V48C10.7452 48 0 37.2548 0 24V24Z" fill="#F95A2C"/>
<path fill-rule="evenodd" clip-rule="evenodd" d="M46.4861 66.3343C46.2457 64.9759 46.0253 63.6138 45.8249 62.2488C45.7299 61.6007 45.6371 60.952 45.5537 60.3023C45.4953 59.8471 45.4064 59.3265 45.716 58.9894C46.1516 58.5149 46.5473 58.1087 46.6007 57.429C46.6508 56.7894 46.4347 56.0922 46.2995 55.4714C46.016 54.1696 45.6631 52.8838 45.2732 51.6102C44.877 50.3163 44.4426 49.0345 44.002 47.7552C43.59 46.559 43.194 45.3521 42.6574 44.2045C41.6391 42.0266 39.9164 40.4138 37.7873 39.3369C37.2577 39.069 36.1777 38.1129 35.6245 37.8989C35.1159 37.702 35.1177 38.2768 34.6172 38.0603C34.217 37.8872 33.8444 37.6565 33.6204 37.27C33.3771 36.8503 32.7671 36.2633 32.6742 35.7748C32.4774 34.7393 32.6906 33.858 31.9519 33.0787C31.296 32.3867 30.4146 31.9126 29.5025 31.6581C27.496 31.0982 24.8202 31.4896 23.6096 33.3548C23.0314 34.2455 22.8293 35.3221 22.0491 36.0491C21.3678 36.6838 21.5203 37.1178 20.6379 37.4449C20.588 37.4634 19.2334 37.1728 19.1834 37.1914C18.2181 36.9847 17.2955 37.5632 16.4099 37.8989C15.0896 38.3992 13.8327 39.0505 12.6517 39.8245C10.2705 41.3854 8.23098 43.4121 6.54956 45.7056C4.85425 48.018 3.53887 50.6099 2.60227 53.3188C2.37482 53.9767 2.17051 54.6427 1.9903 55.3152C1.88943 55.6916 1.78164 56.082 1.90446 56.4673C2.00491 56.7825 2.22837 57.0172 2.49078 57.2063C2.84648 57.4627 3.55998 57.6294 3.54608 58.1451C3.53547 58.5372 3.4025 58.9498 3.3376 59.3373C3.26035 59.7987 3.19688 60.2629 3.13341 60.7263C2.8447 62.8359 2.61999 64.9573 2.52061 67.0847C2.42278 69.1794 2.34159 71.317 2.48684 73.4111C2.49645 73.5492 2.53761 73.6759 2.604 73.783C2.54202 73.8068 2.53725 73.9223 2.61438 73.9387C2.66842 73.9502 2.72235 73.9616 2.77639 73.9731C2.88866 74.058 3.02866 74.1101 3.18978 74.1152C3.29901 74.1187 3.40817 74.1236 3.51727 74.1292C4.66862 74.37 5.81978 74.5974 6.98616 74.7696C8.40397 74.9789 9.82595 75.1496 11.2524 75.2884C14.1834 75.5734 17.0913 75.4789 20.0262 75.3252C22.9565 75.1718 25.8851 75.1359 28.8185 75.2122C31.7545 75.2887 34.6893 75.4164 37.626 75.4687C40.9068 75.527 44.1825 75.4374 47.4539 75.1765C47.9024 75.1408 48.1799 74.7838 48.0914 74.3381C47.5614 71.6681 46.9608 69.0159 46.4861 66.3343Z" fill="white"/>
<path fill-rule="evenodd" clip-rule="evenodd" d="M18.268 37.1258C18.5714 37.1126 18.8808 37.1617 19.1835 37.1915C19.2098 37.194 19.2198 37.2347 19.1901 37.2409C18.6485 37.3541 18.1127 37.509 17.5807 37.6663L17.3529 37.7337C16.753 37.9113 16.1707 38.0944 15.5899 38.3312C14.4324 38.8031 13.3331 39.4401 12.3213 40.1719C8.42533 42.9898 5.60558 47.2562 3.82616 51.6735C3.34292 52.8731 2.93347 54.1025 2.6018 55.3526C2.52115 55.6568 2.44528 55.9622 2.37333 56.2685C2.35222 56.3583 2.26018 56.5883 2.31064 56.6802C2.35526 56.7614 2.52873 56.8116 2.60932 56.8538L2.8814 56.995C3.41212 57.2686 4.29615 57.7184 4.3848 57.7622L4.52306 57.8303C6.78451 58.9394 9.20085 59.8799 11.7457 59.945L11.7656 59.7276V59.7276C11.8791 58.5256 12.028 57.3173 12.3529 56.1524C12.3704 56.0898 12.4501 56.1109 12.4573 56.1665C12.6384 57.5457 12.5805 58.9356 12.5173 60.3211C12.4055 62.7751 12.257 65.2277 12.125 67.6807C12.0589 68.9078 11.9734 70.1341 11.8963 71.3605C11.8191 72.5894 11.7941 73.8478 11.6177 75.0666C11.5784 75.3382 11.2603 75.486 11.0194 75.4573C10.7529 75.4256 10.5479 75.1908 10.5466 74.9216C10.5434 74.2116 10.6326 73.4932 10.6821 72.785C10.7292 72.1121 10.7797 71.4395 10.8315 70.767C11.0207 68.3125 11.2384 65.8608 11.4397 63.4074C11.5111 62.5372 11.5881 61.6678 11.6675 60.7984C8.97163 60.7115 6.45306 59.7126 4.05039 58.5455C4.01562 59.3354 3.93163 60.1239 3.85032 60.9105C3.62334 63.1057 3.42321 65.3001 3.27342 67.5021C3.19779 68.6143 3.14273 69.7279 3.09477 70.8415C3.0712 71.3889 3.052 71.9363 3.03726 72.484C3.03233 72.6665 3.02788 72.849 3.02394 73.0316L3.01574 73.4498C3.00903 73.7148 2.98211 73.9603 2.75922 74.1532C2.53284 74.3491 2.22707 74.3596 2.00302 74.1532C1.70308 73.8769 1.75612 73.5005 1.765 73.1294C1.7724 72.8164 1.78129 72.5035 1.79161 72.1906C1.81231 71.5648 1.83873 70.9391 1.87089 70.3138C1.9834 68.1275 2.2082 65.95 2.50198 63.7812L2.61667 62.9441C2.83084 61.3877 3.06596 59.796 3.54472 58.2967C3.35831 58.204 3.17243 58.1106 2.98727 58.0168C2.65883 57.8504 2.31923 57.6943 1.99997 57.5107C1.74669 57.365 1.52824 57.1652 1.45774 56.8704C1.3791 56.5419 1.49935 56.1825 1.57923 55.8621L1.58617 55.8339C1.66449 55.5112 1.74884 55.1899 1.83784 54.87C2.19873 53.5727 2.64499 52.3007 3.16724 51.0598C4.21294 48.5754 5.56269 46.2151 7.21141 44.0811C8.6955 42.1601 10.4487 40.4181 12.5034 39.1116C13.508 38.4728 14.5785 37.9483 15.7106 37.5775C16.2398 37.4042 16.8156 37.2535 17.3696 37.1914C17.6685 37.158 17.9677 37.1388 18.268 37.1258ZM23.6437 33.189C24.0042 32.8017 24.7205 33.2025 24.5474 33.7153C24.1402 34.9219 23.4918 36.0225 22.4799 36.8153C21.5286 37.5607 20.3944 38.0447 19.1728 37.9414C19.1634 37.9406 19.1552 37.9382 19.148 37.9348L19.2533 38.0776C20.0797 39.196 20.9516 40.2989 22.0025 41.2131C24.1435 43.0756 27.0587 44.0802 29.8737 43.3656C32.0885 42.8034 34.0397 41.0513 34.6136 38.8185C34.5313 38.8554 34.4335 38.868 34.3262 38.8447C33.8671 38.745 33.4125 38.2619 33.1164 37.9155C32.7961 37.5408 32.5459 37.1362 32.3625 36.6789C32.0269 35.8419 31.9193 34.7642 32.3776 33.9534C32.4341 33.8534 32.5645 33.9095 32.5756 34.007L32.593 34.1593C32.6814 34.9192 32.7914 35.6542 33.1496 36.347C33.3248 36.6859 33.5349 37.0168 33.7907 37.3006C33.9275 37.4525 34.0758 37.5976 34.236 37.725C34.3921 37.849 34.581 37.9388 34.7209 38.0811L34.7465 38.1085L34.7472 38.1036C34.7826 37.8027 34.9935 37.6702 35.1998 37.6785C35.3995 37.6865 35.634 37.7744 35.7249 37.8166L35.7335 37.8206C37.1264 38.4896 38.4094 39.3615 39.6167 40.3289C42.1135 42.3294 43.9843 44.9447 44.8907 48.0244C45.3356 49.5359 45.5909 51.0934 45.8603 52.6436L46.0262 53.5934C46.2777 55.0245 46.5587 56.4838 47.1265 57.8151C47.2733 58.1594 47.1601 58.4824 46.8 58.6178C46.3503 58.7869 45.899 58.9507 45.447 59.1124C45.6689 60.065 45.8043 61.0506 45.9706 62.0079C46.3241 64.0428 46.7572 66.0646 47.1286 68.0968C47.3185 69.1359 47.4898 70.1784 47.6795 71.2176C47.7708 71.7181 47.8661 72.2178 47.9588 72.718C48.0088 72.9877 48.054 73.2583 48.1017 73.5284L48.11 73.5732C48.1373 73.7157 48.1716 73.8631 48.1324 74.0057C48.0877 74.1683 47.9609 74.2831 47.8476 74.3998C47.7544 74.4958 47.6196 74.4964 47.5054 74.444L47.4678 74.4266C47.2638 74.3311 47.1039 74.2359 47.0316 74.0057C46.9857 73.8599 46.9692 73.6956 46.9393 73.5454C46.8818 73.2575 46.8274 72.9692 46.7759 72.6801C46.6731 72.1016 46.5726 71.5228 46.4746 70.9435L46.383 70.401C46.0686 68.5314 45.77 66.6505 45.6191 64.7612C45.5522 63.923 45.4812 63.0855 45.4096 62.2479L45.3558 61.6197C45.2878 60.8245 45.2047 60.0092 45.193 59.2033L44.9226 59.2993V59.2993L43.6037 59.7657V59.7657C43.2767 59.8813 42.8603 60.1182 42.5084 60.0751C42.3361 60.054 42.2047 59.9998 42.1033 59.9012C42.2248 61.6158 42.3892 63.3275 42.6083 65.0305C42.8077 66.58 43.0287 68.1274 43.2897 69.6678C43.419 70.4306 43.5518 71.1927 43.6961 71.9527C43.7682 72.3328 43.8427 72.7123 43.9194 73.0915C43.9576 73.2807 44.0031 73.47 44.033 73.6607C44.0671 73.8791 44.007 74.0135 43.885 74.1932C43.7848 74.3408 43.5844 74.4166 43.422 74.3147C43.2069 74.1797 43.0947 74.0627 43.0314 73.8168C42.9739 73.5934 42.9389 73.3602 42.8944 73.134C42.8123 72.7164 42.7329 72.2983 42.6563 71.8796C42.496 71.004 42.3482 70.1263 42.2163 69.246C41.7513 66.1447 41.4562 63.0175 41.3072 59.8852C41.2337 58.3398 41.2109 56.793 41.224 55.246C41.2307 54.453 41.2566 53.6578 41.3127 52.8668C41.3694 52.0661 41.4876 51.2814 41.593 50.4885C41.5967 50.4605 41.6361 50.4589 41.6378 50.4885C41.6877 51.3775 41.7659 52.2655 41.8043 53.1569C41.8409 54.0075 41.857 54.8593 41.8861 55.7102C41.9243 56.8286 41.9774 57.9477 42.0476 59.066C42.1747 58.9269 42.3663 58.8467 42.558 58.8781C42.8357 58.8198 43.1347 58.674 43.3995 58.5855L44.3977 58.2519V58.2519C44.9225 58.0766 45.4473 57.9024 45.9739 57.7335C45.503 56.149 45.1805 54.5408 44.9051 52.9091L44.7823 52.1753C44.5392 50.7309 44.277 49.2859 43.8366 47.8872C43.3737 46.4166 42.6809 45.0495 41.7618 43.8114C40.8559 42.5912 39.7537 41.5168 38.6189 40.5119C37.6473 39.6516 36.608 38.8749 35.6171 38.0382C35.6275 38.0937 35.6297 38.1547 35.6205 38.2218C35.4098 39.7644 34.6054 41.201 33.4844 42.2694C31.2322 44.416 27.8985 44.8614 25.016 43.8548C22.2276 42.8811 19.7624 40.5751 18.8914 37.7216C18.8765 37.6728 18.9419 37.6534 18.9681 37.6893C19.0165 37.7555 19.065 37.8218 19.1136 37.888C19.1103 37.8617 19.124 37.8331 19.1565 37.8205C20.1727 37.428 21.1706 36.8713 21.9324 36.0837C22.3036 35.6998 22.6277 35.2649 22.8835 34.7959C23.006 34.5712 23.116 34.3385 23.2038 34.0981L23.2262 34.0359C23.3326 33.7347 23.4215 33.4276 23.6437 33.189Z" fill="black"/>
<path fill-rule="evenodd" clip-rule="evenodd" d="M22.9076 9.48254L23.4228 10.0955C23.1375 10.2966 22.8682 10.4987 22.6149 10.7018L22.6146 10.7012C23.788 9.93527 25.0876 9.48254 26.4915 9.48254C29.1954 9.48254 34.6877 11.8061 35.9292 13.4821C36.5454 14.3139 37.6904 16.8672 38.2843 19.6432C38.7615 21.8736 39.4713 28.175 38.7615 30.5428C37.8531 33.5731 34.8645 36.3739 31.7829 36.3739C28.7012 36.3739 23.9169 34.1482 20.5118 29.2709C20.3561 29.0478 18.5681 28.7893 17.2926 27.9522L17.6275 31.643L17.882 33.79L17.8259 33.9428C16.9123 36.4144 16.1884 37.7038 15.6541 37.8111C15.1089 37.9205 13.9986 37.0265 12.3232 35.1289L12.1091 34.23C11.5653 31.9369 11.2935 30.7061 11.2935 30.5374L11.2938 30.5067C11.3018 30.1186 11.4355 27.922 11.4382 27.3309L11.4383 18.4713C13.2401 12.4788 14.9596 9.48254 16.5967 9.48254H22.9076Z" fill="white"/>
<path fill-rule="evenodd" clip-rule="evenodd" d="M18.6375 7.44169C19.1672 7.23641 19.781 7.2752 20.2839 7.58432C21.2712 7.54195 22.253 8.1196 22.7678 8.96282C22.7785 8.97475 22.7899 8.98669 22.8001 8.99862L22.9091 9.12582C23.0125 9.24729 23.1214 9.38117 23.2077 9.51941C22.7849 9.52908 22.4327 9.70148 22.1868 10.0497C22.0113 10.2981 22.4132 10.5342 22.5925 10.2992L22.5988 10.2907C22.7465 10.0816 22.9693 10.0006 23.2174 9.9964C23.2887 9.9952 23.3427 9.96793 23.3809 9.92771C23.3961 9.98315 23.4097 10.0392 23.4222 10.0955C24.6714 9.6094 26.0181 9.48068 27.3594 9.59597C27.3006 9.69122 27.2514 9.79326 27.2136 9.9005C27.1707 10.0221 27.2622 10.1616 27.3803 10.1941C27.5079 10.2292 27.6233 10.1543 27.6695 10.0387L27.6737 10.0274C27.7253 9.88128 27.8095 9.7559 27.9224 9.65869C28.5539 9.74433 29.1808 9.88051 29.7924 10.0561C30.5275 10.2673 31.2557 10.525 31.9678 10.8201C31.8472 10.8674 31.743 10.9474 31.67 11.0809C31.5244 11.3473 31.9248 11.586 32.0767 11.3313L32.0821 11.3218C32.097 11.2945 32.1102 11.2781 32.1199 11.2688L32.1233 11.2656L32.1443 11.2559L32.1834 11.2447V11.2447L32.1985 11.241C32.2117 11.238 32.2172 11.2382 32.2521 11.2363C32.2985 11.2336 32.345 11.2339 32.3914 11.2338C32.5007 11.2338 32.5705 11.1728 32.602 11.0949C32.9534 11.2536 33.3004 11.4207 33.6412 11.5957L33.7222 11.6377C34.7741 12.1875 35.7706 12.9095 36.3488 13.972C36.387 14.043 36.3989 14.1206 36.3894 14.1946C36.5128 14.3426 36.6321 14.4953 36.7466 14.6505C37.0962 15.1255 37.3521 15.6656 37.5943 16.2008C38.0817 17.2774 38.4097 18.3832 38.6656 19.5361C38.9133 20.6473 39.113 21.7704 39.2986 22.8934C39.5044 24.1413 39.6756 25.3998 39.7114 26.6655C39.7746 28.9218 39.3337 31.1913 38.0673 33.0908C36.9376 34.7856 35.2363 36.1312 33.2188 36.5621C31.1668 37.0001 28.9955 36.5728 27.3783 35.2051C27.1176 34.9849 27.1535 34.5403 27.3783 34.3147C27.6331 34.0605 28.0088 34.0957 28.2683 34.3147C29.7912 35.6031 32.0079 35.8018 33.8428 35.1454C35.5393 34.5379 36.8683 33.1367 37.6838 31.5631C38.6788 29.6439 38.8464 27.4395 38.6937 25.3163C38.6102 24.1502 38.4366 22.9937 38.2576 21.839L38.1496 21.1439C38.0318 20.391 37.9079 19.6392 37.7465 18.894L37.7087 18.7204C37.5113 17.8217 37.2801 16.9 36.9227 16.0552C36.7353 15.6118 36.5099 15.1846 36.279 14.7627C36.2343 14.6809 36.1883 14.598 36.1412 14.5144C36.0779 14.5365 36.0058 14.5401 35.93 14.5162C35.278 14.3133 34.6081 14.1773 33.9264 14.1319C33.6157 14.1111 33.3047 14.1079 32.9939 14.12C32.462 14.0891 31.9152 14.1358 31.4086 14.299C31.359 14.2564 31.3088 14.2148 31.2585 14.1731C31.2449 14.1721 31.2314 14.1706 31.2178 14.1679C31.0885 14.1425 30.9976 14.0506 30.9429 13.9346C30.94 13.9284 30.9374 13.9223 30.935 13.9161C30.8701 13.8665 30.8048 13.8177 30.7388 13.7696C30.578 13.8113 30.4371 13.6774 30.3991 13.5307C30.3633 13.5066 30.3269 13.4832 30.2908 13.4595C30.2625 13.4664 30.2343 13.4721 30.2069 13.4742C30.0885 13.4827 29.9741 13.4646 29.8692 13.408C29.7363 13.3365 29.6514 13.2211 29.5947 13.09C29.3938 13.1023 29.1905 13.0371 29.0108 12.9192C28.8651 12.8235 28.7534 12.6915 28.6424 12.5596C27.2896 11.956 25.819 11.5996 24.345 11.5083C24.1999 11.5363 24.0557 11.5695 23.9133 11.6082C23.8796 11.6174 23.8317 11.6354 23.7767 11.657C24.1053 11.6172 24.4382 11.6133 24.7757 11.6619C26.3776 11.8937 27.6252 13.0935 28.699 14.2261C28.9545 14.1744 29.2126 14.5053 28.9762 14.7245L27.1332 16.433V16.433C27.1784 16.6241 26.9594 16.8125 26.7675 16.7666C26.4457 16.6892 26.1234 16.614 25.8009 16.5401C25.4644 16.703 25.0414 16.6751 24.7362 16.439C24.722 16.428 24.6912 16.4105 24.6644 16.3931C24.6394 16.4138 24.6057 16.4345 24.5922 16.4434C24.4837 16.5152 24.3515 16.5363 24.2248 16.5162C24.0944 16.4955 23.9767 16.4293 23.8752 16.3469C23.8106 16.2944 23.6601 16.0753 23.5763 16.0592L23.5682 16.0583C23.6241 16.0599 23.4444 16.2269 23.3962 16.2615C23.2835 16.3419 23.159 16.3841 23.0189 16.3687C22.7747 16.3418 22.5647 16.1192 22.4453 15.9136L22.4363 15.8978L22.4325 15.888L22.4294 15.8986C22.4288 15.9005 22.4281 15.9025 22.4273 15.9047C22.4094 15.9531 22.3532 16.0082 22.315 16.042C22.2062 16.1382 22.0715 16.1806 21.9276 16.1554C21.8059 16.1342 21.7035 16.0606 21.6212 15.9716L21.6083 15.9574C21.584 15.9299 21.4235 15.7142 21.4489 15.6626L21.4518 15.6582L21.4438 15.6565C21.3462 15.6805 21.2643 15.6565 21.2043 15.6062C20.8694 15.5328 20.5389 15.4473 20.2189 15.3385C20.1939 15.409 20.1693 15.4794 20.1455 15.5504C20.3203 15.6584 20.4819 15.8124 20.6305 15.9222C20.9121 16.1298 21.1936 16.3375 21.4745 16.5458L22.5878 17.3673V17.3673L22.7151 17.3331V17.3331C22.8777 17.2894 23.0173 17.3841 23.077 17.5289L23.0819 17.5415C23.1056 17.6049 23.1341 17.6635 23.1676 17.7197C23.4459 17.7086 23.6815 17.8795 23.7577 18.1247C23.8264 18.1231 23.8959 18.1257 23.9668 18.1336C24.1613 18.1549 24.2923 18.2993 24.2571 18.4976L24.2544 18.5112L24.2497 18.5333C24.3624 18.5812 24.4441 18.6736 24.4623 18.8134C24.4924 18.8588 24.5168 18.9082 24.5324 18.9632C24.6137 19.2487 24.4555 19.6016 24.3712 19.8751L24.3647 19.8965C24.3106 20.0763 24.2547 20.2552 24.1981 20.434L24.057 20.8779C23.6659 22.1151 23.2846 23.4195 23.6011 24.7165C23.6686 24.991 23.3178 25.1152 23.1657 24.9003C22.7969 24.3802 22.3985 23.8901 21.9801 23.4196L21.9599 23.4164V23.4164C21.6669 23.3575 21.5531 23.1505 21.4187 22.9395C21.3395 22.9628 21.2543 22.9683 21.172 22.9524C21.0528 22.9294 20.946 22.8613 20.8617 22.7753C20.7903 22.7024 20.7249 22.5154 20.6405 22.469C20.5349 22.4111 20.3226 22.4939 20.1965 22.4753C20.094 22.4602 19.9983 22.425 19.9054 22.3808C19.7347 22.6136 19.6215 22.8872 19.5938 23.1823C19.583 23.2945 19.5496 23.3893 19.5012 23.4681C19.679 23.4615 19.8574 23.4741 20.0334 23.5069C20.6848 23.628 21.1519 24.0303 21.4143 24.6294C21.4256 24.6557 21.3916 24.6771 21.3761 24.6521C20.9866 24.0523 20.1389 24.0219 19.5233 24.2332C18.8695 24.4575 18.5027 25.0334 18.3721 25.6904C18.2289 26.4107 18.4126 27.1871 18.8046 27.8005C18.9864 28.0858 19.2347 28.346 19.5645 28.451C19.9564 28.5757 20.3185 28.3525 20.7199 28.4677C20.9931 28.5459 21.1137 28.8103 21.0641 29.0746C21.0444 29.1785 21.008 29.2692 20.9591 29.3479C21.1036 29.6344 21.2371 29.9292 21.4071 30.2001C21.6696 30.6184 21.987 30.9645 22.3329 31.3136C22.6902 31.6741 23.0541 32.0274 23.4365 32.3615C23.8028 32.682 24.2228 32.91 24.6069 33.2036C24.8765 33.4094 25.0101 33.6983 24.8771 34.0289C24.7674 34.3022 24.3975 34.5349 24.098 34.4114C23.5248 34.1751 23.0231 33.7729 22.5662 33.3587C22.1427 32.9744 21.774 32.5149 21.4954 32.016C21.2326 31.5457 21.039 31.0115 20.8756 30.497L20.8553 30.4328C20.7784 30.1882 20.6973 29.9131 20.6448 29.6356C20.3305 29.8074 19.9039 29.8325 19.5675 29.7859C19.024 29.7114 18.5283 29.4374 18.1537 29.0382C17.9791 28.8524 17.8248 28.6405 17.6915 28.4108C17.7036 28.5507 17.7108 28.686 17.7186 28.8091C18.03 29.1503 18.155 29.6427 18.0444 30.092C18.305 30.3603 18.378 30.7631 18.242 31.106C18.5272 31.3889 18.5164 31.8393 18.3931 32.2482C18.7303 32.6252 18.7622 33.2125 18.499 33.6378L18.491 33.6684V33.6684C18.7568 34.1133 18.6969 34.6883 18.3639 35.0812C18.5913 35.5226 18.5561 36.1163 17.9877 36.2875C17.7805 36.3499 17.5797 36.2967 17.4295 36.1805C17.5667 36.8632 17.628 37.5562 17.4451 38.242C17.3723 38.5141 17.1062 38.7128 16.8264 38.7128C16.5926 38.7128 16.4226 38.5952 16.3051 38.4222C16.3189 38.7665 16.298 39.1126 16.2246 39.4617C16.1804 39.6725 15.9849 39.837 15.7773 39.8879C15.8522 39.9723 15.882 40.0945 15.8103 40.2216C15.506 40.7605 14.7708 40.537 14.7211 40.0208C14.5134 39.8657 14.4169 39.6111 14.377 39.3361C14.3187 38.935 14.2976 38.5404 14.2316 38.1444L14.2064 38.168V38.168L14.1934 38.1793L14.1892 38.2079C14.1514 38.4037 14.0411 38.5407 13.8978 38.6225C13.929 38.964 13.8713 39.3117 13.6548 39.571C13.5106 39.7438 13.2649 39.8118 13.0542 39.7744C13.041 39.775 13.0274 39.775 13.0134 39.7731C12.5363 39.7097 12.2603 39.257 12.3859 38.8416C12.1938 38.6061 12.1129 38.3073 12.1698 38.012C11.7981 37.7658 11.8057 37.225 11.9344 36.7906C11.5447 36.483 11.3982 35.9079 11.5939 35.4509C11.2428 35.0146 11.1939 34.4066 11.4325 33.9098C11.0462 33.5923 11.0484 32.9792 11.4316 32.6545C11.2275 32.2492 11.1044 31.7637 11.3084 31.3928C11.1645 31.2339 11.0855 31.0075 11.1022 30.7887C11.1266 30.4674 11.3391 30.2454 11.6027 30.0975L11.621 29.997V29.997C11.6829 30.0047 11.7489 29.9874 11.807 29.9316C11.8646 29.8762 11.9238 29.8317 11.9851 29.7949C12.0545 29.794 12.1142 29.7631 12.1562 29.7155C12.2711 29.6765 12.3946 29.6593 12.5316 29.6577C12.8275 29.6545 12.838 29.2118 12.5626 29.183C12.5191 29.1392 12.4592 29.1116 12.3942 29.1116L12.3434 29.1118C12.2244 29.1129 12.1044 29.1202 11.994 29.1675C11.9223 29.1982 11.867 29.2445 11.8265 29.301C11.819 29.3866 11.7724 29.4719 11.6717 29.5424C11.5553 29.6238 11.3961 29.6333 11.2716 29.5597C11.0972 29.4565 11.0954 29.2956 11.1155 29.1206C11.1596 28.7379 10.9396 28.3777 10.9919 27.9861C11.0151 27.813 11.0728 27.6635 11.1667 27.5427C10.9686 27.2461 10.9337 26.8632 11.0862 26.5375C10.7684 26.1955 10.7135 25.6683 10.9161 25.2568C10.919 25.2468 10.9213 25.2366 10.9245 25.2267C10.9474 25.1568 10.9789 25.0937 11.0137 25.0334C10.8358 24.7251 10.8371 24.3468 11.0179 24.0399C10.7441 23.7205 10.7354 23.2122 10.9789 22.8681C10.9804 22.8396 10.9833 22.8111 10.9858 22.7826C10.874 22.4922 10.9008 22.1622 11.0426 21.8922C10.9921 21.7755 10.953 21.6499 10.9281 21.5161C10.8642 21.1712 10.8971 20.8358 10.9925 20.4993C11.008 20.4462 11.0253 20.393 11.0438 20.3399C11.0469 20.1094 11.0556 19.8799 11.0672 19.6508C11.0219 19.4569 11.0145 19.2438 11.0135 19.0459L11.0133 18.9176C11.011 18.5911 10.9883 18.1131 11.1946 17.8355C11.0621 17.5357 11.1166 17.158 11.3377 16.9204C11.1825 16.6533 11.15 16.3254 11.3059 16.0291C11.331 15.9814 11.3601 15.937 11.3919 15.895C11.379 15.6237 11.4361 15.3438 11.5806 15.0742C11.6745 14.8986 11.8148 14.7466 11.9815 14.625C11.9787 14.589 11.977 14.5531 11.9776 14.5177C11.9805 14.3598 12.0155 14.2012 12.0744 14.0533C11.9687 13.8727 11.9196 13.6692 11.9815 13.4498C12.0507 13.2016 12.2327 12.9879 12.4599 12.8674C12.4782 12.6333 12.5148 12.4007 12.567 12.1711C12.4274 11.86 12.5386 11.4494 12.8542 11.2662C12.8131 11.0176 12.8502 10.7598 13.031 10.5656C13.0996 10.492 13.1803 10.4362 13.2672 10.3992C13.2254 10.1492 13.2726 9.88916 13.4454 9.68561C13.5866 9.51941 13.7957 9.41844 14.0085 9.40358C14.0905 8.96878 14.5057 8.64367 14.9438 8.66957C14.9986 8.47813 15.1294 8.31122 15.3323 8.2266C15.3843 8.20494 15.4368 8.19068 15.4891 8.18274C15.8453 7.82326 16.3757 7.5796 16.8349 7.45482C17.2954 7.33016 17.7623 7.31809 18.1577 7.46303L18.1865 7.47392L18.2187 7.46974C18.3584 7.45422 18.4979 7.44527 18.6375 7.44169ZM15.1375 36.9057C15.0145 36.8673 14.8773 36.9511 14.8439 37.0723C14.8087 37.2005 14.8871 37.3275 15.0106 37.366C15.1645 37.414 15.3261 37.426 15.4864 37.4261C15.6153 37.4262 15.725 37.3163 15.725 37.1874C15.725 37.0578 15.6158 36.9488 15.4864 36.9487C15.356 36.9486 15.2597 36.9438 15.1375 36.9057ZM14.0438 34.3706C13.8598 34.3708 13.7021 34.4147 13.5658 34.5436C13.4749 34.6296 13.4726 34.7957 13.5658 34.8813C13.6599 34.9676 13.7964 34.9727 13.893 34.8904L13.9116 34.8737C13.9139 34.8717 13.9156 34.8701 13.917 34.8687C13.9247 34.8637 13.9326 34.8586 13.9408 34.8543L13.9252 34.8645C13.9134 34.873 13.9409 34.8591 13.9563 34.8525L13.9611 34.8505L13.9627 34.8501L13.975 34.8492C13.9979 34.848 14.0208 34.848 14.0438 34.848C14.1685 34.8479 14.2881 34.7383 14.2824 34.6093C14.2765 34.4801 14.1775 34.3705 14.0438 34.3706ZM17.5135 32.8562C17.7718 32.6978 17.5411 32.2926 17.2821 32.4385L17.2727 32.444C17.1399 32.5255 16.9766 32.5145 16.8261 32.5146C16.5191 32.5147 16.5186 32.9921 16.8261 32.992L16.877 32.9918C17.0975 32.9901 17.3206 32.9747 17.5135 32.8562ZM15.481 31.1138C15.2859 31.077 15.0673 31.0442 14.862 31.0666L14.8279 31.0709H14.7647C14.7098 31.0709 14.6567 31.0929 14.614 31.1277C14.5465 31.1557 14.4825 31.1933 14.4242 31.2438C14.1917 31.4455 14.5305 31.7819 14.7617 31.5815C14.7745 31.5703 14.7894 31.5611 14.806 31.5536L14.8187 31.5483H15.0739C15.0971 31.5483 15.1197 31.5434 15.1418 31.5364C15.2246 31.5478 15.3018 31.5642 15.3541 31.5741C15.6543 31.6306 15.7829 31.1706 15.481 31.1138ZM15.2639 26.5318C14.8899 26.3583 14.4756 26.3595 14.1297 26.6005C13.8824 26.7728 14.1121 27.1792 14.3616 27.0187L14.3705 27.0127C14.4016 26.9911 14.4334 26.973 14.4656 26.9566C14.6412 27.0074 14.818 27.0098 14.9878 26.9474L15.0099 26.9389L15.0231 26.944C15.2999 27.0724 15.5425 26.6611 15.2639 26.5318ZM19.3357 25.7838C18.9579 25.7414 18.9548 25.1443 19.3357 25.187C20.1399 25.2773 20.8695 25.6349 21.404 26.2491C21.6525 26.5347 21.2432 26.9526 20.99 26.6797L20.9822 26.671C20.5572 26.1827 19.9837 25.8565 19.3357 25.7838ZM15.103 22.7181C15.019 22.709 14.9352 22.7044 14.8527 22.7084C14.6546 22.7179 14.4132 22.8502 14.5002 23.0891C14.5699 23.2805 14.7985 23.2881 14.9114 23.186C14.9583 23.1871 15.0052 23.1902 15.0519 23.195C15.1765 23.2078 15.2999 23.2316 15.4228 23.2558C15.7227 23.3148 15.8512 22.8548 15.5496 22.7954L15.4163 22.769C15.3713 22.7602 15.326 22.7516 15.2804 22.7437C15.2532 22.7302 15.224 22.7211 15.1927 22.7187L15.1769 22.7181H15.103ZM12.733 19.0145L12.705 19.0107C12.302 18.9591 11.6552 19.0066 11.6063 19.5197C11.5793 19.8039 11.9897 19.8217 12.0707 19.5787C12.3682 19.5251 12.6682 19.5148 12.9637 19.5474C13.0765 19.4328 13.0774 19.2125 12.8897 19.1576C12.8632 19.0863 12.8079 19.0253 12.733 19.0145ZM21.943 18.1478C21.8499 18.0623 21.6972 18.051 21.6056 18.1478C21.5528 18.2035 21.5087 18.2655 21.4738 18.3336L21.4506 18.3797C21.4467 18.3873 21.4426 18.3949 21.4385 18.4024C21.4306 18.4163 21.4219 18.4295 21.4133 18.443L21.4076 18.4487C21.4053 18.451 21.4026 18.4538 21.3994 18.4572C21.3136 18.5479 21.3027 18.7059 21.3994 18.7948C21.4926 18.8803 21.6452 18.8916 21.7369 18.7948C21.7896 18.739 21.8337 18.6771 21.8687 18.6089L21.8918 18.5629C21.8958 18.5553 21.8998 18.5477 21.904 18.5402C21.9118 18.5263 21.9206 18.513 21.9291 18.4995L21.9386 18.4901C21.94 18.4886 21.9414 18.4871 21.943 18.4854C22.0289 18.3947 22.0397 18.2367 21.943 18.1478ZM17.0501 17.5261C16.7139 17.2877 16.3141 17.2766 16.005 17.5634C15.782 17.7703 16.1097 18.1019 16.3346 17.908L16.3425 17.9009C16.3506 17.8933 16.3589 17.8866 16.3672 17.8802C16.4075 17.9146 16.4587 17.9364 16.5173 17.9365C16.5326 17.9365 16.5479 17.9365 16.5632 17.9368L16.5861 17.9376L16.5984 17.9386L16.5999 17.9389L16.6107 17.9435C16.6303 17.9523 16.6574 17.966 16.6202 17.9427C16.6285 17.9471 16.6363 17.9522 16.6441 17.9572L16.6579 17.9697C16.7478 18.0548 16.9034 18.066 16.9927 17.9719C17.1509 17.9184 17.2348 17.6569 17.0501 17.5261ZM20.3377 16.7442L20.3438 16.7422C20.6386 16.658 20.5133 16.1973 20.2169 16.2818C19.9025 16.3717 19.7524 16.6644 19.6895 16.9642C19.6631 17.0903 19.7265 17.2222 19.8562 17.2578C19.9746 17.2904 20.1231 17.2179 20.1497 17.0911C20.1684 17.002 20.1899 16.9264 20.2239 16.8562L20.2446 16.8161C20.2542 16.7979 20.2576 16.7948 20.2901 16.7664C20.2955 16.7616 20.3204 16.7501 20.3377 16.7442ZM15.3442 14.3398L15.2981 14.3292C15.0109 14.2663 14.6297 14.2334 14.4563 14.5182C14.2982 14.7777 14.697 15.0139 14.8612 14.7686C14.8637 14.7686 14.8666 14.7686 14.8699 14.7689L14.8753 14.7695L14.9489 14.7635C15.0406 14.7629 15.1284 14.7791 15.2173 14.8002C15.5159 14.8709 15.6434 14.4107 15.3442 14.3398ZM25.6534 12.5045C25.8709 12.287 25.5335 11.9493 25.3161 12.167C25.1441 12.339 24.9782 12.5123 24.8664 12.7309C24.8078 12.8456 24.8364 12.9899 24.952 13.0575C25.0586 13.1198 25.2195 13.087 25.2785 12.9718C25.3753 12.7824 25.4976 12.6605 25.6534 12.5045ZM22.9108 11.9334C22.6959 12.0606 22.5569 12.2702 22.4725 12.5128C22.4301 12.6345 22.5207 12.7739 22.6392 12.8064C22.7664 12.8414 22.8827 12.7668 22.9284 12.651L22.9326 12.6397C22.9553 12.5748 22.9914 12.4982 23.0361 12.4403C23.0743 12.391 23.1336 12.3416 23.1783 12.3252C23.2859 12.2857 23.3621 12.1882 23.3522 12.0743C23.1753 12.1355 23.0111 12.0619 22.9108 11.9334ZM16.4794 10.8951C16.2627 10.6939 15.972 10.6672 15.7092 10.789C15.5923 10.8432 15.563 11.0119 15.6236 11.1156C15.6938 11.2356 15.8327 11.2557 15.9501 11.2013C15.9199 11.2152 15.9743 11.1968 15.9978 11.19C16.0008 11.1914 16.0402 11.1897 16.0538 11.1898L16.0702 11.1909C16.0703 11.191 16.0663 11.1909 16.0581 11.1906C16.0696 11.1932 16.0809 11.1963 16.0921 11.1999L16.1063 11.2048C16.0991 11.2033 16.1314 11.2243 16.1403 11.2313L16.142 11.2327C16.3668 11.4415 16.7051 11.1047 16.4794 10.8951Z" fill="black"/>
<path fill-rule="evenodd" clip-rule="evenodd" d="M33.7937 29.2947C33.9984 28.9335 34.6091 28.9922 34.7025 29.4135C34.8919 30.2677 33.8737 31.0565 33.1003 31.0762C32.3318 31.0957 31.4696 30.4414 31.5808 29.6149C31.6083 29.4104 31.8813 29.4353 31.9743 29.5634L32.0105 29.6126C32.2632 29.9523 32.5967 30.3039 33.0658 30.2211C33.2602 30.1868 33.4368 30.0653 33.5543 29.9089C33.696 29.7202 33.6805 29.4948 33.7937 29.2947ZM28.907 23.0455C29.0111 23.0168 29.1162 23.0279 29.2085 23.0672C29.4146 23.1049 29.5867 23.2768 29.6472 23.473C29.6519 23.49 29.6573 23.5068 29.6631 23.5234L29.6723 23.5481L29.6476 23.4852C29.659 23.5472 29.7094 23.6123 29.7276 23.6745C29.7499 23.7509 29.7553 23.8378 29.7478 23.9219C29.8133 23.9225 29.8788 23.9248 29.9442 23.9304L30.0073 23.9361C30.3607 23.9689 30.7485 24.0292 30.958 24.3346C31.0756 24.5062 30.9652 24.8152 30.7491 24.8483C30.4164 24.8992 30.1299 24.715 29.7983 24.6782C29.4849 24.6432 29.1569 24.6632 28.8476 24.7199C28.2089 24.8367 27.622 25.0957 26.9996 25.2582L26.9149 25.2797V25.2797L26.915 25.2793C26.8083 25.305 26.6872 25.1567 26.7927 25.0699C27.2914 24.6601 27.9298 24.328 28.5587 24.1258C28.4671 23.98 28.4387 23.788 28.5014 23.6315C28.5111 23.599 28.5231 23.5675 28.5358 23.536L28.5623 23.4713V23.4713C28.5648 23.4408 28.5707 23.4107 28.5791 23.3812L28.5805 23.3722V23.3722L28.5813 23.3727V23.3727C28.6281 23.2205 28.7504 23.0887 28.907 23.0455ZM35.2693 23.069C35.4057 22.9325 35.5973 22.9527 35.7397 23.0601L35.7585 23.0749V23.0749C35.8927 23.1345 36.0037 23.2648 36.0766 23.3855C36.1523 23.5109 36.2026 23.6386 36.2046 23.7766C36.5347 23.7777 36.8509 23.8768 37.0933 24.1434C37.1715 24.2294 37.225 24.3622 37.1819 24.4788L37.1562 24.5482V24.5482C37.0749 24.7686 36.709 24.8954 36.5846 24.6363L36.5789 24.6237C36.4467 24.316 35.9395 24.3483 35.67 24.3797C35.482 24.4017 35.2965 24.4485 35.115 24.5008C35.0511 24.5192 34.9877 24.5392 34.9244 24.5597L34.8611 24.5802C34.8274 24.5911 34.6515 24.6867 34.7609 24.6641C34.7903 24.658 34.8125 24.7008 34.7824 24.7152C34.652 24.7776 34.5129 24.6534 34.5217 24.5133C34.5367 24.27 34.9228 24.1367 35.1086 24.0528L35.1197 24.0477C35.1909 24.0148 35.2656 23.9832 35.3426 23.9539C35.2993 23.8895 35.2635 23.8179 35.2337 23.741C35.2056 23.6684 35.1868 23.5979 35.1765 23.5207C35.1663 23.483 35.1663 23.4453 35.1765 23.4075L35.178 23.3967V23.3967C35.1728 23.3718 35.1702 23.346 35.1706 23.3201L35.1695 23.31H35.1706C35.1742 23.2191 35.2103 23.128 35.2693 23.069ZM33.0904 25.6593C33.6143 25.8213 34.4787 26.2625 34.2057 26.9434C33.8244 27.5688 32.8134 27.1092 32.3235 26.9071C31.8833 26.7613 31.6541 27.3784 32.0797 27.5644C35.5968 28.9563 35.5838 25.2828 33.218 25.3367C32.9575 25.3426 32.9493 25.6055 33.0904 25.6593ZM28.4367 20.8693L28.526 20.8432C28.9904 20.7086 29.4645 20.4763 29.8768 20.8388C30.0387 20.9812 30.072 21.2771 29.9562 21.4547C29.6923 21.8593 29.3009 21.7975 28.8747 21.832C28.5502 21.8583 28.2305 21.9536 27.9276 22.0728C27.6801 22.1703 27.4505 22.3075 27.2337 22.4605C27.0207 22.6109 26.8752 22.8461 26.6568 22.9815C26.5767 23.0311 26.4843 22.9801 26.4555 22.8996C26.3536 22.614 26.5258 22.2583 26.6715 22.015C26.8493 21.7182 27.1194 21.4754 27.4098 21.2917C27.7279 21.0905 28.0796 20.9744 28.4367 20.8693V20.8693ZM35.2032 20.562C35.9882 20.5618 36.7435 20.9985 37.1825 21.6388C37.3317 21.8563 37.2224 22.1786 37.0082 22.3038C36.768 22.4444 36.5111 22.3432 36.3528 22.1417L36.3434 22.1295C36.0916 21.7941 35.767 21.5299 35.3823 21.3579C35.1945 21.2739 34.987 21.2058 34.7839 21.1713L34.7183 21.16C34.6263 21.1446 34.5196 21.1299 34.4364 21.1443C34.3919 21.1502 34.3509 21.1649 34.3132 21.1874C34.3314 21.227 34.2846 21.2747 34.2413 21.251C34.0462 21.1438 34.0702 20.9526 34.2313 20.804C34.4592 20.5938 34.9088 20.5621 35.2032 20.562Z" fill="black"/>
</g>
<path d="M24 46C11.8497 46 2 36.1503 2 24H-2C-2 38.3594 9.6406 50 24 50V46ZM46 24C46 36.1503 36.1503 46 24 46V50C38.3594 50 50 38.3594 50 24H46ZM24 2C36.1503 2 46 11.8497 46 24H50C50 9.6406 38.3594 -2 24 -2V2ZM24 -2C9.6406 -2 -2 9.6406 -2 24H2C2 11.8497 11.8497 2 24 2V-2Z" fill="#18191F"/>
<defs>
<clipPath id="clip0">
<path d="M0 24C0 10.7452 10.7452 0 24 0V0C37.2548 0 48 10.7452 48 24V24C48 37.2548 37.2548 48 24 48V48C10.7452 48 0 37.2548 0 24V24Z" fill="white"/>
</clipPath>
</defs>
</svg>
