<svg width="60" height="60" viewBox="0 0 60 60" fill="none" xmlns="http://www.w3.org/2000/svg">
<g clip-path="url(#clip0)">
<path d="M0 30C0 13.4315 13.4315 0 30 0V0C46.5685 0 60 13.4315 60 30V30C60 46.5685 46.5685 60 30 60V60C13.4315 60 0 46.5685 0 30V30Z" fill="#00C6AE"/>
<path fill-rule="evenodd" clip-rule="evenodd" d="M4.06 92.7816C8.62577 92.9094 12.9388 93.0505 17.4958 92.7816C24.7879 92.3304 46.188 93.1437 50.8919 92.7816C51.2469 92.7543 52.4677 93.1437 52.4931 92.7816C52.6999 90.2598 52.834 64.7458 52.2196 62.9903C51.6053 61.2347 48.5729 52.7956 44.709 48.8604C43.6316 47.7973 41.9921 47.3855 41.0864 46.157C40.3055 44.8173 40.3662 44.031 39.595 43.3262C39.2604 43.0203 38.4711 42.8963 37.8847 42.4717C37.295 41.8855 37.8533 40.595 37.6113 39.7787C37.1124 37.7403 35.2746 36.4326 33.2659 36.1244C30.4741 35.4561 27.5267 36.088 26.1894 38.2819C25.6916 39.0985 25.9565 40.0911 25.3443 41.3997C25.388 42.3886 24.2339 42.6275 23.5441 43.0193L22.1743 44.4044C17.9539 46.7799 12.9891 48.0627 9.29118 51.2542C6.14722 54.4449 3.02011 58.1327 1.62515 62.4494C1.33636 63.6257 1.24211 64.8414 1.12243 66.0434C0.780775 69.5559 -0.170601 72.965 -0.989325 76.3865C-1.92288 80.6972 -2.7931 85.2732 -1.53489 89.6247C-1.17213 90.5457 3.2342 92.7385 4.06 92.7816Z" fill="white"/>
<path fill-rule="evenodd" clip-rule="evenodd" d="M25.9475 38.6331C25.9841 38.5137 26.1415 38.5473 26.1534 38.6607C26.272 39.7856 26.1228 40.9612 25.9797 42.0786C25.9111 42.6179 25.8715 43.1789 25.7671 43.7107C25.7537 43.7674 25.741 43.8248 25.7291 43.8816C25.7634 43.9427 25.8648 44.0113 25.9132 44.0583L26.1237 44.263L26.5455 44.6715C27.3711 45.4712 28.1964 46.2715 29.0218 47.0712L30.2335 48.2461C30.6489 48.6488 31.1209 49.0345 31.4855 49.4836C31.6831 49.7274 31.7278 50.0266 31.5332 50.2876C31.437 50.4167 31.2641 50.5107 31.0888 50.5301C31.1574 50.6256 31.2103 50.7337 31.2439 50.8539C31.3125 51.0986 31.065 51.3991 30.8018 51.2969C30.5028 51.182 30.2559 50.9762 29.9517 50.8777C29.6445 50.7777 29.3105 50.7584 28.992 50.812C28.8459 50.8367 28.7027 50.8733 28.5633 50.9195C30.0554 51.6065 31.6697 52.0012 33.316 52.0578C33.6516 52.069 33.9865 52.0645 34.3197 52.0422C34.8805 52.0056 35.4374 51.9206 35.9847 51.7833C36.415 51.6752 36.8408 51.5393 37.2539 51.3752C37.4567 51.2947 37.6572 51.206 37.8512 51.1053L37.8681 51.0952C37.912 51.0678 38.7221 50.6082 38.7363 50.5391C38.7504 50.47 38.7504 50.446 38.724 50.3858C38.6977 50.3257 38.6245 50.2843 38.6245 50.2843C38.3742 50.1772 38.1149 50.0776 37.8415 50.0758C37.2121 50.0721 36.5253 50.5376 36.0049 50.8546C35.433 51.203 34.9073 51.6102 34.357 51.9877C34.3443 51.9966 34.3302 52.0004 34.3167 52.0004C34.2586 52.0004 34.2049 51.9287 34.2421 51.8728C34.6365 51.2919 35.1689 50.8082 35.7257 50.3858L35.9501 50.2176C36.4601 49.8371 37.0566 49.4157 37.6767 49.3239C38.4364 49.212 39.2299 49.6857 39.9077 49.9632L41.1081 50.4547C41.3221 50.542 41.5548 50.6166 41.7702 50.7158L41.2672 49.1412C41.0158 48.3538 40.7651 47.5662 40.5169 46.7781L40.4687 46.6237C40.2214 45.8236 39.9944 44.9914 39.5825 44.2605C39.4841 44.0852 39.3715 43.9204 39.2604 43.7539C39.1448 43.5817 39.1015 43.3915 38.9562 43.2377C38.6684 42.9327 38.256 42.7536 37.8623 42.6366C37.7661 42.6082 37.7945 42.4814 37.8847 42.4717C38.2887 42.4292 38.674 42.5234 39.0391 42.6939L39.1908 42.7663C39.5361 42.9297 39.8727 43.0817 40.1291 43.375C40.7136 44.0449 41.0172 44.8883 41.296 45.7206L41.3706 45.9441C41.475 45.9098 42.1841 46.1261 42.2728 46.1775C44.9311 47.3017 46.9787 49.3948 48.4759 51.8474C50.1164 54.535 51.0096 57.6061 51.747 60.6451C51.9746 61.583 52.1923 62.5238 52.4013 63.4667C51.4698 63.8252 50.4797 64.0128 49.6077 64.518C49.2755 64.7104 49.5756 65.2263 49.9087 65.0333C50.7255 64.5602 51.6558 64.3854 52.5301 64.0532C53.0041 66.236 53.4258 68.4308 53.7789 70.6348C54.8639 77.399 55.5491 84.2735 55.5059 91.1302C55.5051 91.2817 55.4604 91.451 55.3776 91.5964C55.4261 91.5726 55.4642 91.5442 55.4858 91.51C55.7609 91.078 56.4506 91.4787 56.174 91.9128L56.1336 91.9757C55.926 92.2959 55.7322 92.5405 55.3672 92.7213C54.9996 92.9034 54.6014 92.934 54.1958 92.9444C52.8171 92.9808 51.4374 93.0044 50.0573 93.0214C49.8681 91.5446 49.7911 90.0537 49.5304 88.5855C49.4633 88.208 48.8884 88.368 48.9552 88.7442C49.207 90.1619 49.2876 91.6011 49.4633 93.0286C46.5128 93.0604 43.5606 93.0607 40.6123 93.069C36.6167 93.0808 32.6217 93.0725 28.6263 93.0702L26.914 93.0697C22.2984 93.0697 17.6827 93.0548 13.0672 93.0242L11.9696 93.0164C11.5329 90.4413 11.2357 87.8443 11.2302 85.2275C11.2294 84.8436 10.6328 84.8428 10.6337 85.2275C10.6392 87.8414 10.9331 90.4387 11.3657 93.0131C10.2729 93.0083 9.18061 93.0122 8.08771 93.051L7.53146 93.0709C6.4185 93.109 5.30331 93.1324 4.19244 93.0436C2.95913 92.9444 1.71173 92.7177 0.605932 92.1366C0.107912 91.8744 -0.330605 91.5392 -0.705369 91.1451C-0.324416 90.9234 0.0619801 90.7108 0.431002 90.4692C0.750961 90.2598 0.452477 89.7429 0.129909 89.954C-0.267746 90.2144 -0.685758 90.441 -1.09519 90.6818C-1.39167 90.286 -1.63497 89.8468 -1.81974 89.3729C-2.11129 88.6246 -2.22389 87.8197 -2.32157 87.0275C-2.43707 86.0944 -2.48486 85.1537 -2.48486 84.2139C-2.48486 82.2372 -2.27683 80.2664 -1.98669 78.3135C-1.70925 76.4426 -1.3425 74.5868 -0.954834 72.7369L-0.901848 72.4847C-0.519329 70.666 -0.154706 68.8422 0.283737 67.0363C0.689147 65.3663 1.15764 63.7042 1.71598 62.0743C2.21296 62.3817 2.73305 62.6506 3.22227 62.9708C3.54447 63.1818 3.8437 62.6653 3.52336 62.4556C3.00141 62.1139 2.44471 61.8299 1.91798 61.496C2.54231 59.7507 3.27514 58.046 4.15374 56.4134C5.9134 53.1439 8.28464 50.219 11.3217 48.0603C12.842 46.9801 14.51 46.0963 16.2616 45.4532C18.0474 44.7968 19.8981 44.4372 21.7905 44.2896C21.8446 44.2853 21.8749 44.3354 21.8727 44.3816L21.8719 44.3902L21.9464 44.4022C21.974 44.215 22.0307 44.0337 22.1388 43.8674C22.3849 43.4885 22.8516 43.2453 23.2244 43.0125L23.3128 42.9575C23.7564 42.6825 24.2245 42.4115 24.7404 42.3151C24.7583 42.312 24.7694 42.3307 24.7575 42.3449C24.4173 42.7351 23.9822 43.0333 23.5835 43.3634L23.4919 43.4398C23.1615 43.7118 22.7006 44.0206 22.6883 44.4753C22.6742 45.0109 22.7837 45.5681 22.8233 46.1022C22.8629 46.6348 22.8904 47.1666 22.9045 47.7007C22.9561 49.6141 22.8942 51.5282 22.7248 53.4341L23.4734 52.9327C24.6384 52.1526 25.8073 51.3746 27.0004 50.6442C27.7223 50.2019 28.5335 49.8237 29.3984 49.8409C29.6407 49.8453 29.9144 49.8804 30.1769 49.955C29.8943 49.6872 29.6237 49.4023 29.347 49.133C28.8914 48.6891 28.4358 48.2453 27.9802 47.8022L26.6666 46.5222L25.3525 45.2421C24.9455 44.8445 24.4682 44.4783 24.5114 43.8517C24.5465 43.352 24.8007 42.8544 24.9745 42.3725C24.9991 42.3032 25.0214 42.2345 25.0423 42.1667C25.3928 41.0015 25.5919 39.7937 25.9475 38.6331ZM42.9248 88.6257C42.6531 88.3538 42.2312 88.7756 42.5031 89.0476L42.6468 89.1909C42.8869 89.4305 43.1249 89.6775 43.2911 89.9737L43.3155 90.0185C43.4945 90.3583 44.0096 90.0571 43.8305 89.7173C43.6091 89.2972 43.2569 88.9581 42.9248 88.6257ZM31.2835 88.549C30.4184 88.3838 29.5847 88.3838 28.7197 88.549C28.3431 88.621 28.5026 89.1962 28.8783 89.1245C29.6348 88.9799 30.3683 88.9799 31.1249 89.1245C31.5 89.1961 31.6607 88.6211 31.2835 88.549ZM19.6017 82.5337C19.2294 82.4394 19.0706 83.0148 19.4431 83.1092L19.6265 83.1552C20.25 83.3093 20.8438 83.4242 21.4914 83.2811C21.8612 83.1993 21.7117 82.6379 21.3475 82.7027L21.3328 82.7056C20.7336 82.838 20.1815 82.6807 19.6017 82.5337ZM40.3478 78.6575C40.0724 78.3897 39.6501 78.8112 39.926 79.0795C40.2703 79.4144 40.676 79.6689 41.1677 79.6825C41.546 79.6931 41.5513 79.1141 41.1846 79.0866L41.1677 79.0857C40.8382 79.0765 40.5756 78.8792 40.3478 78.6575ZM5.24177 77.0637C5.58521 76.8919 5.28345 76.3771 4.94075 76.5485L2.87917 77.5796V77.5796C2.53573 77.7514 2.83749 78.2664 3.18019 78.0949L5.24177 77.0637V77.0637ZM45.9779 77.1953C45.5939 77.1845 45.5942 77.7813 45.9779 77.7921C46.3388 77.8022 46.7085 77.9389 47.03 78.095C47.3739 78.2621 47.6767 77.7477 47.3311 77.5797C46.9108 77.3756 46.4495 77.2085 45.9779 77.1953ZM26.7164 74.314C27.0321 74.0994 26.734 73.582 26.4153 73.7987C25.9804 74.0942 25.5864 74.4435 25.1585 74.748L25.0409 74.8299C24.7252 75.0445 25.0233 75.5617 25.342 75.3452C25.8163 75.0227 26.2421 74.6363 26.7164 74.314ZM48.899 69.9768C48.5151 69.9767 48.5146 70.5735 48.899 70.5736L48.9718 70.5734C49.2886 70.5716 49.6226 70.5628 49.9172 70.6895L49.951 70.7047C50.2964 70.8675 50.5995 70.3532 50.2521 70.1895C49.8202 69.986 49.3685 69.9771 48.899 69.9768ZM15.7718 69.5507L15.8219 69.5319C16.1806 69.403 16.0259 68.8261 15.6633 68.9565C15.1169 69.1529 14.6918 69.5239 14.2178 69.8458C13.9019 70.0604 14.2 70.5777 14.5188 70.3612C14.9272 70.0837 15.3072 69.7323 15.7718 69.5507V69.5507ZM38.1457 67.9981L38.2261 67.955C38.5676 67.7792 38.2662 67.2642 37.9251 67.4397C37.6544 67.5791 37.4121 67.7645 37.1465 67.9122L37.066 67.9553C36.7246 68.1311 37.026 68.6462 37.3671 68.4706C37.6379 68.3312 37.8801 68.1458 38.1457 67.9981V67.9981ZM29.0711 62.2179L29.0097 62.1585C28.7351 61.8896 28.313 62.3113 28.5878 62.5805C29.2743 63.2526 30.0858 63.7629 30.9045 64.2562L31.0534 64.3458C31.3834 64.5438 31.6836 64.0281 31.3545 63.8305L31.136 63.699C30.4081 63.2599 29.6887 62.8066 29.0711 62.2179V62.2179ZM12.5636 61.6609C12.7949 61.3604 12.2918 61.0663 12.0567 61.3493L12.0485 61.3596C11.8077 61.6723 11.522 61.9554 11.2234 62.2138L11.1673 62.2619C10.9895 62.4132 10.666 62.7373 10.4162 62.7587C10.0366 62.791 10.0331 63.388 10.4162 63.3554C10.8026 63.3225 11.1351 63.0505 11.427 62.8174C11.8519 62.4782 12.232 62.0914 12.5636 61.6609ZM44.2997 59.4869C44.5768 59.2264 44.1674 58.8118 43.8877 59.0561L43.8779 59.065C43.3599 59.5518 42.6148 59.6824 41.948 59.8475C41.5755 59.9398 41.7333 60.5154 42.1066 60.423L42.4104 60.348C43.0918 60.1778 43.7755 59.9797 44.2997 59.4869ZM32.4857 55.7227C32.1135 55.6281 31.9547 56.2035 32.3272 56.2982C32.9599 56.459 33.5592 56.6669 34.1456 56.9556C34.4889 57.1244 34.7915 56.61 34.4467 56.4403C33.8157 56.1297 33.167 55.8959 32.4857 55.7227ZM38.5792 43.1431C38.5703 43.1163 38.5987 43.0857 38.6262 43.0953C39.2956 43.345 38.9398 44.2221 38.7318 44.7471L38.6941 44.8431C38.3682 45.6845 37.9127 46.5036 37.4161 47.257C36.8964 48.0455 36.3192 48.8003 35.6944 49.509C35.4233 49.8167 35.1421 50.1155 34.8515 50.4054L34.7421 50.5137C34.4484 50.8025 34.0696 51.3097 33.6139 51.2538C33.1233 51.1947 32.8496 50.6704 33.2076 50.2721C33.4604 49.9901 33.8109 49.7655 34.0934 49.509C34.3738 49.2553 34.6453 48.9935 34.9099 48.7243C35.4513 48.1715 35.9643 47.5874 36.4333 46.972C36.8869 46.3769 37.321 45.7653 37.7157 45.1295L37.7941 45.002C38.0946 44.5074 38.7881 43.7802 38.5792 43.1431ZM14.8623 49.3939C14.5445 49.1765 14.2458 49.6935 14.5612 49.9091C15.1412 50.3056 15.6514 50.786 16.2792 51.1122C16.6153 51.2868 16.9142 50.7863 16.5922 50.6034L16.5803 50.5969C15.953 50.2709 15.442 49.7901 14.8623 49.3939Z" fill="black"/>
<path fill-rule="evenodd" clip-rule="evenodd" d="M48.3632 43.0309C47.5124 39.0356 46.9666 34.9888 46.4782 30.9369C46.2419 28.9743 46.0532 27.0066 45.8347 25.0425C45.6304 23.2127 45.3925 21.3769 44.9153 19.5956C44.4717 17.9403 43.8229 16.3015 42.867 14.8724C41.9708 13.5326 40.844 12.3846 39.5504 11.426C36.9942 9.53208 33.7253 8.52431 30.5459 8.85849C30.0657 8.90921 29.5899 8.99052 29.1194 9.09943C29.2693 9.05542 29.4207 9.01432 29.5735 8.97859C29.6227 8.96673 29.6009 8.90041 29.5527 8.90481C16.6176 10.0805 13.5749 32.5847 13.2982 37.1222C13.2766 37.4752 13.2595 37.8272 13.2468 38.18C13.1498 38.967 13.0775 39.7562 13.0432 40.5476C13.0045 41.4606 13.0232 42.3797 13.1073 43.2897C13.1938 44.2228 13.2923 45.1792 13.6816 46.037C13.9201 46.5651 25.0452 45.8416 25.16 45.218C25.3927 43.9588 25.512 42.6594 25.439 41.3787C25.4047 40.7647 25.3412 40.1552 25.21 39.554C25.1742 39.3899 25.1362 39.0818 25.0401 38.8379C26.0548 36.909 27.171 35.0351 28.3201 33.1829C30.7115 29.3264 33.2541 25.5415 35.2084 21.4343C36.1883 19.3763 37.1538 17.1907 37.6161 14.9357L37.6907 14.9506C37.6817 14.9775 37.6877 15.011 37.7145 15.0297C39.8389 16.4984 41.2587 18.7243 42.1788 21.1077C43.2502 23.8825 43.77 26.879 43.6954 29.8523C43.5769 34.5771 41.7866 40.4163 36.7213 41.9097C35.5656 42.2506 34.3174 42.3468 33.1333 42.0977C32.5748 41.9798 32.0275 41.7985 31.5234 41.53C30.9642 41.2324 30.5048 40.8109 29.9807 40.4641C29.5012 40.1471 28.9353 40.7654 29.2111 41.2346C29.8203 42.2715 31.1312 42.9055 32.2571 43.2173C33.4584 43.5508 34.7253 43.5665 35.9488 43.3547C36.042 43.3389 36.1345 43.321 36.2262 43.3016C36.2471 43.609 36.3791 43.9149 36.5938 44.1633C36.69 44.2752 36.8086 44.372 36.9413 44.4534C36.9585 44.7533 37.1516 45.0546 37.4656 45.1203C39.1425 45.4693 46.1068 44.5541 47.7816 44.055C48.2312 43.9208 48.4586 43.48 48.3632 43.0309" fill="black"/>
<path fill-rule="evenodd" clip-rule="evenodd" d="M43.9893 28.6232C43.8637 22.7615 42.4038 16.2723 37.3994 12.65C37.0806 12.4189 36.6022 12.5308 36.338 12.7947C36.1211 12.837 35.9219 12.9685 35.7894 13.2102C32.8301 18.6134 29.7148 23.9312 26.445 29.1522C24.3456 32.5281 21.7953 35.9081 21.4589 40C21.4006 40.0774 20.8601 40.6878 21.1751 40.6434C21.3149 40.5702 21.4572 40.5101 21.6069 40.4656C22.0068 41.0487 22.9352 40.957 23.1559 40.2989C23.9211 40.3209 24.6784 40.5165 25.4074 40.7434C27.1955 41.3033 29.0129 41.8568 30.8378 42.2847C36.8497 43.8809 43.3095 41.8501 43.7899 34.8384C44.4352 33.9289 44.0861 29.8752 43.9893 28.6232V28.6232Z" fill="white"/>
<path fill-rule="evenodd" clip-rule="evenodd" d="M37.2453 39.0125L37.4044 38.9703C37.974 38.815 38.5651 38.5685 39.1091 38.9063C39.3055 39.0283 39.3351 39.2876 39.1798 39.4555C38.7392 39.9317 38.0889 39.8393 37.493 39.8441L37.4637 39.8444C36.8642 39.8527 36.2692 39.8228 35.6759 39.7368C35.5977 39.7254 35.5822 39.5954 35.6533 39.5642C36.1699 39.3377 36.7012 39.159 37.2453 39.0125V39.0125ZM38.2126 30.3057C38.7757 30.6481 39.6336 31.4465 39.0279 32.2954C38.3149 33.0438 37.2883 32.1857 36.7825 31.7976C36.3134 31.4968 35.7864 32.2704 36.2216 32.6216C39.877 35.329 41.3605 30.3953 38.4974 29.9032C38.1822 29.849 38.0651 30.1998 38.2126 30.3057ZM42.1269 25.8031C43.0353 25.7753 43.0361 27.2189 42.1269 27.2151C41.8555 27.2139 41.5841 27.2138 41.3127 27.2132C41.4704 27.7884 41.3803 28.4743 41.0955 28.9574C40.9076 29.2763 40.4579 29.3343 40.1952 29.0735C39.7417 28.6232 39.6523 27.9648 39.8125 27.3677L39.7796 27.2896V27.2896C39.7688 27.2641 39.7611 27.2382 39.7549 27.2121C38.8776 27.2129 38.0003 27.215 37.123 27.2164L35.8071 27.2178C34.9527 27.2181 34.098 27.225 33.2436 27.2171C33.2541 27.233 33.2646 27.2488 33.2732 27.2669C33.3265 27.3792 33.3491 27.5209 33.3659 27.6423C33.3945 27.8505 33.3911 28.0748 33.3582 28.2823C33.3343 28.4338 33.2903 28.6144 33.206 28.7572L33.2055 28.7602V28.7602C33.1657 28.9297 33.1155 29.0919 32.9845 29.2142C32.9452 29.2508 32.9068 29.2769 32.8662 29.2954C32.7896 29.3756 32.691 29.4286 32.5615 29.4303C32.4928 29.4311 32.4174 29.411 32.3443 29.3825C32.2319 29.3919 32.1159 29.3411 32.0165 29.296C31.9368 29.2598 31.8637 29.2118 31.8047 29.1491C31.777 29.1426 31.7491 29.1318 31.7212 29.1145C31.5503 29.0093 31.485 28.7985 31.4761 28.6082C31.4756 28.5966 31.476 28.5845 31.4756 28.5727C31.4693 28.5469 31.4636 28.521 31.4593 28.4949C31.4025 28.1566 31.4715 27.7756 31.5439 27.4469C31.562 27.3646 31.577 27.2691 31.5993 27.1766C31.4288 27.17 31.2584 27.1634 31.0879 27.1564C30.6608 27.139 30.1395 27.1962 29.7444 27.0156C29.7156 27.0025 29.7233 26.9642 29.7444 26.9492C30.1092 26.6883 30.6759 26.6461 31.1153 26.5602L31.1526 26.5527C31.6765 26.4452 32.2001 26.3548 32.7293 26.2776C33.7479 26.129 34.7796 26.0491 35.8071 25.9915C37.9108 25.8736 40.0211 25.8675 42.1269 25.8031Z" fill="black"/>
<path fill-rule="evenodd" clip-rule="evenodd" d="M42.3137 24.7583C44.0639 24.7583 45.0627 25.1348 45.4287 25.1642L45.4397 25.1649C45.5919 25.1747 45.7285 25.1874 45.8718 25.2428C46.3986 25.4458 46.4844 25.9986 46.177 26.347C46.1554 27.0678 46.2502 27.9101 46.0876 28.6333C45.887 31.682 44.4538 32.1965 43.6391 32.3843C43.2301 32.4786 42.7453 32.5161 42.3109 32.4166C41.5697 32.3889 40.837 32.1568 40.2101 31.7526C39.337 31.1893 38.6885 30.3234 38.4781 29.2959C38.3783 28.806 38.3317 28.2962 38.386 27.7983L38.3941 27.7297C38.1103 27.5939 37.7814 27.5682 37.4424 27.5563C37.2804 27.5505 37.1208 27.5453 36.9658 27.5522C36.8142 27.5691 36.6644 27.5917 36.5142 27.6224C36.3502 27.6719 36.1953 27.7536 36.0522 27.8831L36.0424 28.072C36.0155 28.5438 35.9536 29.0172 35.858 29.4801C35.717 30.1632 35.4902 30.8156 35.0073 31.3002C34.8439 31.5443 34.6417 31.7623 34.3962 31.9511C33.5043 32.638 32.2927 32.8902 31.1806 32.7952C28.9231 32.6025 27.6181 30.8096 27.3174 30.0433L27.2994 29.9969C27.0822 29.4272 26.909 28.688 26.2226 28.5656L26.0766 28.5393C25.7633 28.4805 25.4743 28.3986 25.2906 28.0929C25.2101 27.9594 25.1687 27.8101 25.1585 27.6579C25.0514 27.6661 24.9444 27.674 24.8377 27.6817C23.9871 27.8616 18.8848 28.0142 18.4775 28.0142C18.4775 28.0142 17.6946 28.3438 17.3641 28.0884C17.135 27.9109 17.0596 27.6742 17.1858 27.406C17.376 27.0026 18.2539 26.7599 18.6438 26.683C18.6438 26.683 24.9344 26.7353 25.3872 26.6494C25.6673 26.3605 26.1684 26.4 26.5871 26.3543C26.9337 26.1071 27.4187 25.9415 27.8017 25.8306C27.8798 25.801 27.9571 25.7724 28.0322 25.7454C28.7344 25.4953 29.4643 25.3628 30.2053 25.2916C30.9695 25.2189 31.7358 25.2518 32.4955 25.3559C32.8156 25.3994 33.1328 25.4556 33.4477 25.529C34.0116 25.6034 34.5722 25.7259 35.1363 25.8712L35.2491 25.9006C35.8431 26.0564 36.4535 26.1911 37.0684 26.0855C37.569 26.0001 38.0505 25.8073 38.512 25.5989L38.5721 25.5717C39.587 25.1081 41.1719 24.7583 42.3137 24.7583ZM33.3868 26.4532C33.0123 26.3708 32.8524 26.9484 33.2281 27.031C33.4941 27.0895 33.7195 27.2237 33.8719 27.4511L33.8879 27.4758C34.0923 27.8012 34.6091 27.5008 34.4033 27.1733C34.1718 26.8048 33.8119 26.5467 33.3868 26.4532ZM44.3546 26.0951C44.2226 26.0021 44.0228 26.0712 43.9462 26.2026C43.8618 26.3474 43.9171 26.5085 44.0408 26.6032L44.0534 26.6125C44.1668 26.6924 44.2772 26.8358 44.2911 26.9826L44.2923 27.001C44.3072 27.3853 44.9042 27.3873 44.8893 27.001C44.8747 26.6231 44.656 26.3074 44.3546 26.0951Z" fill="black"/>
</g>
<path d="M30 58C14.536 58 2 45.464 2 30H-2C-2 47.6731 12.3269 62 30 62V58ZM58 30C58 45.464 45.464 58 30 58V62C47.6731 62 62 47.6731 62 30H58ZM30 2C45.464 2 58 14.536 58 30H62C62 12.3269 47.6731 -2 30 -2V2ZM30 -2C12.3269 -2 -2 12.3269 -2 30H2C2 14.536 14.536 2 30 2V-2Z" fill="#18191F"/>
<defs>
<clipPath id="clip0">
<path d="M0 30C0 13.4315 13.4315 0 30 0V0C46.5685 0 60 13.4315 60 30V30C60 46.5685 46.5685 60 30 60V60C13.4315 60 0 46.5685 0 30V30Z" fill="white"/>
</clipPath>
</defs>
</svg>
