<svg width="60" height="60" viewBox="0 0 60 60" fill="none" xmlns="http://www.w3.org/2000/svg">
<g clip-path="url(#clip0)">
<path d="M0 30C0 13.4315 13.4315 0 30 0V0C46.5685 0 60 13.4315 60 30V30C60 46.5685 46.5685 60 30 60V60C13.4315 60 0 46.5685 0 30V30Z" fill="#FF89BB"/>
<path fill-rule="evenodd" clip-rule="evenodd" d="M4.57867 94.1667C7.06689 94.1744 9.48462 94.2596 11.9798 94.2679C22.1228 94.3017 32.359 94.2525 42.5387 93.8412C45.4159 93.7249 46.1341 93.7278 48.9988 93.5474C50.6903 93.5413 55.7712 93.4014 55.5168 91.0968C55.4045 86.8045 54.3421 82.5303 54.0075 78.2496C53.3653 70.2022 52.8184 61.9031 49.5937 54.3763C48.8472 52.5788 47.2441 51.4033 45.6572 50.3463C44.0657 49.206 43.6751 47.94 42.2063 46.6518C41.8958 46.3794 40.1321 46.2685 39.1832 45.5776C37.802 44.572 37.1171 42.9256 36.6018 42.6453C36.2226 42.4391 36.2295 41.0163 35.4696 40.5128C34.4497 39.837 31.1997 39.3345 30.0173 39.2406C28.8824 39.1504 26.9085 39.3398 25.8437 39.7555C24.068 40.4488 23.3598 41.7711 22.5778 43.4748C12.2464 46.6689 2.80323 52.0776 -0.12945 62.9872C-2.65849 72.1372 -2.75118 81.9464 -1.77416 91.3306C-1.57872 92.0168 -1.7157 93.0926 -1.12287 93.5474C-3.18309 93.6656 4.29918 94.0906 4.57867 94.1667Z" fill="white"/>
<path fill-rule="evenodd" clip-rule="evenodd" d="M51.5705 85.1321C51.375 85.0345 51.1712 84.9228 50.9479 84.915C50.5645 84.9017 50.564 84.3049 50.9479 84.3183C51.2828 84.33 51.5769 84.4696 51.8716 84.6168C52.2155 84.7885 51.913 85.3031 51.5705 85.1321M50.9474 68.3349C51.2091 68.3351 51.4728 68.3682 51.6738 68.5512C51.7933 68.6601 51.7838 68.8631 51.6738 68.9732C51.556 69.0908 51.371 69.0817 51.2519 68.9732C51.2907 69.0085 51.2523 68.9735 51.2382 68.9657C51.2348 68.9639 51.2329 68.9626 51.232 68.9618C51.2291 68.961 51.2261 68.9604 51.2212 68.9592C51.1901 68.9513 51.1593 68.9437 51.1277 68.938C51.1272 68.9395 51.0611 68.9336 51.0456 68.933C51.0128 68.9318 50.9801 68.9316 50.9474 68.9316C50.7856 68.9316 50.6491 68.7952 50.6491 68.6333C50.6491 68.4721 50.7862 68.3348 50.9474 68.3349M48.1422 75.0286C48.0568 75.4034 47.4818 75.2438 47.567 74.8699C47.6909 74.3264 47.6683 73.7694 47.567 73.2239C47.4972 72.848 48.0722 72.6883 48.1422 73.0653C48.2638 73.7197 48.291 74.3763 48.1422 75.0286M47.3885 53.5821C46.9443 53.4765 46.5048 53.464 46.0504 53.4638C45.6659 53.4637 45.6665 52.8669 46.0504 52.8671C46.5572 52.8672 47.052 52.889 47.5472 53.0066C47.9211 53.0955 47.7618 53.6707 47.3885 53.5821M45.8998 68.1175C45.6422 67.9886 45.3844 67.8597 45.1268 67.7308C44.7828 67.5588 45.0854 67.0443 45.4278 67.2155L46.2009 67.6022C46.5447 67.7742 46.2422 68.2887 45.8998 68.1175M45.7928 79.8691C45.466 80.3404 45.0064 80.6333 44.4549 80.7796C44.0828 80.8783 43.9254 80.3025 44.2963 80.2042C44.6907 80.0996 45.0411 79.9091 45.2777 79.5679C45.4952 79.2541 46.0121 79.5528 45.7928 79.8691M43.7321 58.8586C43.6436 58.6933 43.5105 58.6235 43.3453 58.6197C42.9614 58.6109 42.9613 58.0142 43.3453 58.023C43.7218 58.0315 44.0672 58.2207 44.2471 58.5574C44.4282 58.8963 43.913 59.1975 43.7321 58.8586M39.9483 62.915C39.8413 63.0315 39.6339 63.0286 39.5264 62.915C39.4606 62.8454 39.4052 62.7678 39.3617 62.6827C39.3451 62.6504 39.3296 62.6175 39.3114 62.5861C39.3032 62.5721 39.2942 62.5582 39.285 62.5448C39.2818 62.5421 39.2753 62.5353 39.2686 62.5283C39.154 62.407 39.1569 62.2281 39.2686 62.1063C39.3756 61.9898 39.583 61.9927 39.6905 62.1063C39.7563 62.1758 39.8117 62.2534 39.8552 62.3386C39.8718 62.3709 39.8873 62.4038 39.9056 62.4352C39.9137 62.4492 39.9228 62.463 39.932 62.4764C39.9351 62.4792 39.9415 62.4859 39.9483 62.493C40.0629 62.6142 40.06 62.7931 39.9483 62.915M39.6303 71.7267C39.2418 71.9045 38.8157 71.9045 38.4272 71.7267C38.2801 71.6593 38.2452 71.4468 38.3203 71.3184C38.4072 71.1697 38.5819 71.1444 38.7283 71.2114C38.9045 71.292 39.1533 71.2919 39.3293 71.2114C39.4763 71.1441 39.6493 71.168 39.7373 71.3184C39.8129 71.4476 39.7768 71.6596 39.6303 71.7267M38.5695 77.9638C38.5028 78.1218 38.3586 78.2058 38.1901 78.2122C38.0231 78.2186 37.8988 78.0704 37.8918 77.9138C37.8873 77.8127 37.942 77.7262 38.0205 77.6727C38.0206 77.6672 38.0207 77.6616 38.0207 77.656C38.0208 77.4888 38.1574 77.3649 38.319 77.3577C38.48 77.3504 38.6174 77.5 38.6173 77.656C38.6172 77.7614 38.6107 77.8659 38.5695 77.9638M37.0314 87.8797C36.5553 87.8874 36.0901 88.0009 35.614 88.0086C35.2293 88.0148 35.2305 87.4181 35.614 87.4119C36.0901 87.4041 36.5552 87.2906 37.0314 87.283C37.4161 87.2767 37.4149 87.8735 37.0314 87.8797M35.0515 49.6383C34.7728 49.9039 34.4286 50.0347 34.0891 50.2006C33.7452 50.3687 33.4431 49.8539 33.788 49.6853C34.0756 49.5448 34.3939 49.441 34.6297 49.2164C34.9078 48.9514 35.3301 49.3729 35.0515 49.6383M34.3033 56.5166C34.1078 56.419 33.904 56.3073 33.6808 56.2996C33.2973 56.2861 33.2967 55.6894 33.6808 55.7028C34.0156 55.7145 34.3097 55.8542 34.6044 56.0013C34.9484 56.1731 34.6459 56.6876 34.3033 56.5166M30.7167 84.1228C30.6284 83.9574 30.4953 83.8876 30.33 83.8838C29.9461 83.8751 29.9459 83.2783 30.33 83.2871C30.7066 83.2957 31.0519 83.4848 31.2319 83.8215C31.4129 84.1605 30.8978 84.4616 30.7167 84.1228M29.475 71.1644C29.3563 71.0554 29.3645 70.853 29.475 70.7425C29.6038 70.6136 29.7327 70.4847 29.8616 70.3558C29.9795 70.2379 30.1643 70.2464 30.2834 70.3558C30.4021 70.4648 30.3938 70.6672 30.2834 70.7778C30.1545 70.9067 30.0257 71.0355 29.8968 71.1644C29.7789 71.2824 29.5941 71.2737 29.475 71.1644M28.0109 91.3599C27.5806 91.3498 27.1771 91.2263 26.7719 91.0914C26.4088 90.9706 26.5654 90.3944 26.9305 90.516C27.2827 90.6332 27.6365 90.7544 28.0109 90.7632C28.3949 90.772 28.395 91.3688 28.0109 91.3599M26.0777 78.599C25.6889 78.5882 25.3664 78.3902 25.0937 78.1249C24.8179 77.8566 25.2401 77.435 25.5155 77.703C25.6716 77.8547 25.8517 77.996 26.0777 78.0023C26.4615 78.0129 26.4618 78.6097 26.0777 78.599M27.2787 62.1882C27.2834 62.3471 27.3505 62.5173 27.449 62.6218C27.7127 62.901 27.2913 63.3235 27.0272 63.0437C26.8093 62.8129 26.6913 62.5041 26.6821 62.1882C26.6711 61.8035 27.2677 61.8051 27.2787 62.1882M22.7282 49.1913C22.6033 48.9468 22.4397 48.66 22.1909 48.525C21.8529 48.3415 22.1544 47.8265 22.492 48.0097C22.8303 48.1933 23.0723 48.5552 23.2433 48.8901C23.4178 49.2318 22.9028 49.5334 22.7282 49.1913M21.9546 55.3973C21.8162 55.3933 21.6789 55.3696 21.5454 55.3334C21.4883 55.3179 21.432 55.3001 21.3749 55.2846C21.3504 55.2779 21.2465 55.2649 21.3103 55.2684C21.1488 55.2597 21.0121 55.1387 21.0121 54.97C21.0121 54.8149 21.1493 54.663 21.3103 54.6716C21.5317 54.6835 21.7331 54.7942 21.9546 54.8005C22.3383 54.8113 22.3386 55.4081 21.9546 55.3973M20.0225 64.9358H19.3782C18.9937 64.9358 18.9944 64.339 19.3782 64.339H20.0225C20.407 64.339 20.4063 64.9358 20.0225 64.9358M19.2698 91.3192C19.0745 91.417 18.8442 91.5097 18.686 91.6593C18.4069 91.9232 17.9846 91.5017 18.2641 91.2373C18.4657 91.0467 18.7234 90.9268 18.9688 90.804C19.1134 90.7316 19.2912 90.7643 19.3769 90.911C19.4544 91.0437 19.4139 91.2472 19.2698 91.3192M17.8306 83.7793C17.8056 83.7724 17.7792 83.7675 17.754 83.7641C17.6526 83.7504 17.5464 83.7551 17.4446 83.7551C17.0601 83.7548 17.0607 83.1581 17.4446 83.1583C17.7471 83.1585 18.0619 83.1627 18.2998 83.3746C18.4206 83.4822 18.4088 83.6875 18.2998 83.7965C18.1813 83.9151 17.9982 83.9037 17.878 83.7965C17.8907 83.8079 17.8472 83.7839 17.8306 83.7793M17.4454 73.6386C17.532 73.4599 17.5333 73.3434 17.5335 73.1447C17.5338 72.7601 18.1303 72.7607 18.13 73.1447C18.1299 73.4331 18.087 73.6787 17.9605 73.9398C17.8899 74.0854 17.6832 74.1234 17.5524 74.0469C17.4058 73.9612 17.3752 73.7836 17.4454 73.6386M15.7196 59.6403C15.3736 59.758 15.0648 59.9247 14.7601 60.1258C14.4385 60.3381 14.14 59.8211 14.459 59.6105C14.8067 59.381 15.1663 59.1992 15.561 59.0648C15.926 58.9407 16.0812 59.5173 15.7196 59.6403M13.7073 49.5969C13.4503 49.6041 13.185 49.7027 12.9559 49.814C12.6116 49.9812 12.3095 49.4665 12.6549 49.2987C12.9821 49.1397 13.3401 49.0105 13.7073 49.0002C14.092 48.9894 14.0904 49.5862 13.7073 49.5969M12.8061 76.4077C12.7049 76.4123 12.6185 76.3576 12.565 76.279C12.5594 76.279 12.5539 76.2788 12.5483 76.2788C12.3812 76.2787 12.2574 76.1422 12.2501 75.9804C12.2428 75.8194 12.3923 75.682 12.5483 75.6821C12.6536 75.6821 12.7581 75.6886 12.8559 75.7299C13.014 75.7966 13.0979 75.9408 13.1043 76.1093C13.1107 76.2764 12.9626 76.4007 12.8061 76.4077M11.3394 55.7733C10.973 55.8931 10.8175 55.3167 11.1808 55.1979C11.6072 55.0585 12.043 54.9506 12.4694 54.8112C12.8358 54.6914 12.9913 55.2679 12.628 55.3867C12.2016 55.526 11.7658 55.6339 11.3394 55.7733M10.0015 67.0369C9.88784 67.4031 9.31224 67.2459 9.42618 66.8782C9.53625 66.5233 9.54415 66.1661 9.54437 65.7974C9.5446 65.4128 10.1412 65.4135 10.1409 65.7974C10.1407 66.2171 10.1266 66.6329 10.0015 67.0369M6.01279 80.5278C5.99109 80.6764 5.87327 80.7834 5.71906 80.7903C5.56209 80.7974 5.41512 80.6481 5.42078 80.492C5.43175 80.1916 5.67656 79.9468 5.97678 79.9358C6.14381 79.9297 6.26804 80.0774 6.27505 80.2342C6.28191 80.3866 6.1547 80.5055 6.01279 80.5278M3.99453 63.3784C3.67933 63.4836 3.34249 63.5838 3.09537 63.8172C2.8161 64.0808 2.39374 63.6595 2.67353 63.3952C2.9994 63.0875 3.41855 62.9423 3.836 62.8029C4.20154 62.6809 4.35687 63.2574 3.99453 63.3784M2.62558 74.971C2.53893 75.1191 2.36347 75.1459 2.21753 75.078C2.02186 74.987 1.80583 74.9901 1.59487 74.9898C1.21047 74.9895 1.21106 74.3928 1.59487 74.3931C1.9203 74.3934 2.22052 74.424 2.51865 74.5627C2.66532 74.631 2.70104 74.8419 2.62558 74.971M1.85365 89.0397C1.68661 89.0458 1.56238 88.8981 1.55537 88.7413C1.54851 88.589 1.67565 88.47 1.81771 88.4478C1.83933 88.2992 1.95723 88.192 2.11136 88.1852C2.26841 88.1781 2.41538 88.3274 2.40964 88.4836C2.39868 88.7839 2.15402 89.0287 1.85365 89.0397M56.2015 91.2961C56.1002 90.9314 55.8683 90.6367 55.6931 90.3085C55.6343 90.1979 55.6139 90.1291 55.582 90.0481C55.5388 90.1347 55.4548 90.1998 55.3286 90.1999C55.0864 90.2 54.8031 90.1844 54.577 90.2881C54.4301 90.3554 54.2569 90.3315 54.169 90.181C54.0935 90.0518 54.1295 89.8399 54.276 89.7728C54.6091 89.6201 54.9672 89.6033 55.3286 89.6031C55.4178 89.6031 55.4854 89.636 55.5331 89.6854C55.6712 87.7936 55.6678 85.9006 55.5371 84.0075C55.3978 81.9845 55.077 80.0018 54.7415 78.0049C54.579 77.0367 54.3679 76.0588 54.409 75.0726C54.45 74.0932 54.8698 73.1802 54.5723 72.1978C54.453 71.8039 54.2486 71.4429 54.1159 71.0535C53.9735 70.6343 53.9861 70.2203 54.051 69.7862C54.1845 68.9022 54.4059 68.0287 54.0517 67.1657C53.8952 66.783 53.6416 66.4413 53.5193 66.046C53.3672 65.5544 53.3881 65.0106 53.3627 64.5012C53.3113 63.4732 53.2979 62.4386 53.2128 61.413C53.1748 60.9535 53.0921 60.5178 52.9034 60.0964C52.7221 59.6906 52.453 59.3213 52.3329 58.8909C52.2136 58.4672 52.2032 58.0204 52.1391 57.587C52.0719 57.129 51.9668 56.6777 51.8251 56.2376C51.2778 54.5339 50.2748 53.0032 49.0899 51.6762C47.8304 50.2656 46.3248 49.2034 44.7268 48.2135C43.8865 47.693 43.0462 47.1725 42.2065 46.652C42.1886 46.7496 42.1263 46.8393 42.0068 46.8793C41.6914 46.9846 41.3548 47.0847 41.1076 47.3182C40.8284 47.5818 40.4059 47.1604 40.6857 46.8962C40.9776 46.6205 41.3444 46.4755 41.7177 46.348C41.3351 46.1067 40.9484 45.8569 40.5166 45.7176C40.1384 45.5952 39.5807 45.7019 39.2742 45.4244C39.0334 45.2059 38.9573 44.8008 38.8649 44.5039C38.7493 44.1354 38.6494 43.7468 38.5025 43.3888C38.4025 43.1441 38.2571 42.9091 38.0737 42.7196C37.9931 42.4093 37.8454 42.1259 37.5844 41.9536C36.9014 41.5015 36.0625 41.9506 35.762 42.5951C35.5137 42.5943 35.252 42.6488 35.0104 42.6637C34.5137 42.695 34.0163 42.7092 33.519 42.7077C32.5458 42.7047 31.5719 42.6413 30.607 42.5123C28.8815 42.281 27.2074 41.8148 25.5109 41.4515C25.5012 41.4292 25.49 41.4068 25.4766 41.3844C25.1112 40.7712 24.2007 40.8749 23.6272 41.1069C23.3812 41.2061 23.1306 41.3314 22.9897 41.5642C22.8406 41.6649 22.7115 41.7872 22.6258 41.9163C22.4483 42.1826 22.3111 42.7196 21.9509 42.7644C21.7138 42.7935 21.4729 42.748 21.2321 42.7823C20.9308 42.8241 20.6609 42.93 20.3827 43.0508C18.2649 43.9706 16.0756 44.9933 13.7773 45.3498C13.2382 45.4334 12.6894 45.5199 12.2211 45.822C11.8408 46.0674 11.5469 46.4046 11.233 46.7246C10.9273 47.0364 10.6752 47.1744 10.239 47.2304C9.70955 47.2982 9.25094 47.4444 8.86393 47.8293C8.54253 48.1494 8.33299 48.5581 8.08094 48.9296C7.82435 49.3085 7.44785 49.5219 7.0571 49.7419C6.13318 50.2626 5.27264 50.8914 4.52322 51.6456C2.94457 53.2359 1.98859 55.2798 1.02514 57.2715C-0.0165976 59.4258 -0.99048 61.6062 -1.66608 63.9066C-2.32826 66.1654 -2.72199 68.489 -2.90394 70.8342C-3.09559 73.2951 -3.12243 75.7656 -3.28201 78.228C-3.3618 79.458 -3.4222 80.6896 -3.48335 81.9204C-3.54301 83.1363 -3.63025 84.3544 -3.61616 85.5718C-3.58924 87.9252 -3.11878 90.2861 -2.2962 92.4897C-2.09113 93.0379 -1.86377 93.5787 -1.62142 94.1113C-1.40882 94.579 -0.681761 94.5268 -0.453577 94.1113C-0.401378 94.0158 -0.360365 93.9174 -0.326062 93.8174C0.270496 93.8226 0.873021 93.7764 1.46585 93.8316C2.51281 93.9293 3.56194 93.9838 4.61188 94.0487C6.68947 94.1777 8.77071 94.2635 10.849 94.3821C11.0506 94.3936 11.2523 94.4052 11.4538 94.4172C9.97278 89.8316 10.1649 84.8742 9.9305 80.1052C9.91163 79.7208 10.5083 79.723 10.5271 80.1052C10.7624 84.8946 10.562 89.8648 12.0954 94.4577C12.6903 94.498 13.2844 94.5473 13.8765 94.6193C14.3552 94.6768 14.8362 94.7446 15.3194 94.7208C15.8675 94.6947 16.4029 94.5693 16.9376 94.4604C17.9093 94.2628 18.8451 94.3523 19.8205 94.4739C20.8637 94.6044 21.9107 94.6768 22.9606 94.7223C27.1649 94.9065 31.3974 95.0743 35.6002 94.7931C36.6173 94.7252 37.6322 94.6298 38.6427 94.5C39.6836 94.3664 40.7135 94.1419 41.7536 94.0144C42.779 93.889 43.7216 94.2329 44.735 94.2963C45.7685 94.3612 46.8297 94.1456 47.8535 94.0218C48.1875 93.9813 48.5219 93.9419 48.8563 93.9028C48.4258 90.9508 48.181 87.9765 47.9432 85.0034C47.9125 84.6199 48.5093 84.6232 48.5397 85.0034C48.7756 87.9533 49.015 90.9054 49.4448 93.8342C51.2177 93.6279 52.9924 93.4191 54.7468 93.0976C55.2464 93.0066 55.743 92.8581 56.042 92.4121C56.2634 92.0816 56.3083 91.6766 56.2015 91.2961" fill="black"/>
<path fill-rule="evenodd" clip-rule="evenodd" d="M42.8028 28.692C42.6423 27.281 42.8501 24.3318 42.864 24.1527C42.952 23.02 42.4214 18.5471 41.4184 18.9592C39.736 17.6269 37.4951 17.3327 35.3997 17.1921C31.0472 16.9002 26.417 17.5704 23.0561 20.5005C21.3941 22.0221 19.7759 24.2352 19.906 26.5396C18.3959 28.7239 16.267 31.7201 18.1485 34.2737C18.7881 35.0895 19.8046 35.3933 20.608 36.0112C22.2241 37.3151 23.2379 39.1864 24.8693 40.4825C29.1914 44.3676 36.5304 45.1792 40.7768 40.7603C44.0605 37.5599 43.5296 32.772 42.952 28.692C42.5637 25.9489 43.116 31.4446 42.8028 28.692Z" fill="white"/>
<path fill-rule="evenodd" clip-rule="evenodd" d="M29.5865 11.2087C30.7506 10.9738 31.9458 10.8276 33.1345 10.8716L33.2262 10.8751C34.1206 10.9109 35.2533 10.99 36.0335 11.5102C36.0784 11.4652 36.1506 11.4421 36.2161 11.4733C37.1433 11.916 38.1631 12.2361 39.1394 12.5542C40.1112 12.8707 41.1193 13.0796 42.1379 13.1639C42.5211 13.1956 42.8491 13.6095 42.6064 13.9807C42.5487 14.0692 42.4925 14.1586 42.4365 14.2482C42.5301 14.2384 42.6238 14.2283 42.7174 14.2188C43.0256 14.1878 43.3335 14.5168 43.3153 14.817C43.3039 15.0058 43.2835 15.1924 43.2534 15.3767C43.3708 15.3742 43.4875 15.3918 43.6002 15.4395C44.1711 15.6807 44.1314 16.3609 44.0886 16.8784C44.0294 17.5966 43.7609 18.3573 43.2623 18.8949C43.6346 19.2816 43.8981 19.7435 44.0553 20.2921C44.1693 20.6926 44.2328 21.1193 44.2015 21.5363L44.1915 21.6612C44.1527 22.1137 44.0757 22.6146 43.7503 22.9402C43.5833 23.108 43.3775 23.1692 43.1813 23.1498C43.2999 24.1926 43.376 25.2414 43.4476 26.2865L43.4811 26.786C43.6408 29.2013 43.7608 31.6324 43.7294 34.0517C43.7003 36.3127 43.2537 38.5072 41.8674 40.343C40.6049 42.0147 38.7922 43.247 36.7415 43.7154C35.6364 43.9683 34.5081 43.9862 33.3896 43.8251C32.8474 43.7467 32.3016 43.6266 31.787 43.4372C31.2174 43.2268 30.808 42.9173 30.4247 42.4533C30.2434 42.2332 30.3306 41.7648 30.6916 41.8088C31.2376 41.875 31.736 41.9548 32.2594 42.1163L32.3343 42.14C32.8557 42.3071 33.3955 42.4316 33.9406 42.4846C35.057 42.5928 36.1903 42.4839 37.2598 42.1452C39.001 41.5932 40.5006 40.3631 41.4618 38.8176C42.6027 36.9855 42.7317 34.9058 42.7152 32.7993C42.6975 30.4877 42.6224 28.1748 42.4997 25.8657L42.4788 25.4809C42.4139 24.2926 42.3513 23.1035 42.2962 21.9145C42.279 21.5415 42.2529 21.1656 42.2059 20.7934C41.7757 20.5412 41.3902 20.1936 41.1389 19.7647C40.634 19.9736 40.1031 20.1242 39.6146 20.2443C38.4831 20.5227 37.3083 20.5903 36.1566 20.416C35.8459 20.5444 35.5291 20.6572 35.2074 20.7543C35.1204 20.7929 35.0335 20.8308 34.9466 20.8679C34.171 21.1999 33.3843 21.4811 32.5656 21.687L32.3645 21.7372C31.9336 21.8434 31.4656 21.948 31.0071 21.9809C30.9318 22.01 30.8505 22.0346 30.7617 22.0562C30.3441 22.1577 29.9108 22.1898 29.4829 22.154C29.0659 22.1189 28.7647 21.6974 28.9944 21.3028C29.1621 21.0149 29.3315 20.7277 29.5023 20.4413C28.9079 20.6889 28.2942 20.8948 27.6753 21.0693C27.0504 21.2454 26.4166 21.3938 25.7819 21.5303C25.4426 21.6027 25.1019 21.6668 24.7633 21.7392C24.521 21.7907 24.1489 21.8175 23.9512 21.9772C23.7328 22.1525 23.6709 22.5612 23.588 22.8134C23.4792 23.1408 23.377 23.4698 23.2838 23.8025C23.0982 24.4664 22.9461 25.14 22.8282 25.8203C22.7104 26.5013 22.6313 27.1891 22.5873 27.8791C22.5434 28.5683 22.5627 29.262 22.4919 29.9483C22.4538 30.3123 22.0632 30.4996 21.7746 30.2452C21.7407 30.2153 21.7066 30.1852 21.6728 30.1547L21.6225 30.1087C21.3756 29.8849 21.1362 29.6477 20.9386 29.3806C20.9029 29.3314 20.8686 29.2799 20.8365 29.2277C20.8313 29.2277 20.8268 29.2262 20.8216 29.2225L20.7668 29.1813C20.1637 28.7322 19.1561 28.1468 18.5681 28.8928C18.3807 29.1304 18.2847 29.4331 18.2051 29.725L18.0654 30.2475C17.975 30.5886 17.89 30.9316 17.8402 31.2806C17.7276 32.0623 17.7843 32.9634 18.322 33.59C18.5368 33.8406 18.8328 34.0197 19.1631 34.0666C19.3473 34.092 19.5293 34.0607 19.712 34.0376C19.8977 34.0144 20.0765 34.0517 20.2623 34.0338C20.5576 34.0047 20.6866 34.3583 20.5762 34.5806C20.5166 34.7 20.4464 34.8029 20.3667 34.8902C20.4308 34.9454 20.492 35.005 20.5509 35.0677C20.7254 35.1236 20.8819 35.2437 20.9991 35.4026C21.0938 35.5309 21.1429 35.6704 21.1512 35.8174C21.1615 35.8539 21.1705 35.8912 21.1788 35.9293L21.3387 36.189C21.3739 36.246 21.409 36.3022 21.4442 36.3574C21.8513 36.9989 22.3033 37.542 22.8648 38.0537C23.4054 38.546 23.9922 38.9869 24.5001 39.515L24.5599 39.5777C25.0334 40.0768 25.5325 40.681 25.3472 41.4067C25.2995 41.5932 25.0392 41.7275 24.8692 41.6014C24.3226 41.1956 24.0474 40.5526 23.5836 40.0603C23.1063 39.5531 22.5776 39.0973 22.099 38.5915C21.6462 38.1141 21.2891 37.5733 21.0199 36.9781C20.9125 37.0967 20.756 37.181 20.539 37.2138C20.1661 37.2697 19.8185 37.0512 19.656 36.7282C19.5516 36.7744 19.445 36.8162 19.3376 36.849C18.7723 37.0221 18.4167 36.3932 18.63 35.9285C18.744 35.6794 18.8864 35.4631 19.0632 35.281C18.5106 35.205 17.9483 34.9193 17.5852 34.5627C16.674 33.6668 16.5487 32.3204 16.7538 31.1232C16.8627 30.4884 17.0505 29.8461 17.2944 29.2501C17.3369 29.1464 17.3824 29.042 17.4323 28.939C17.4047 28.9383 17.3764 28.9264 17.3585 28.9032C17.1937 28.678 16.9932 28.4937 16.8708 28.2416C16.7582 28.0103 16.633 27.7761 16.5442 27.5352C16.3616 27.0421 16.2721 26.4856 16.2124 25.9642C16.0894 24.8968 16.137 23.836 16.3004 22.7753C16.5785 20.9686 17.2502 19.2397 18.2398 17.7226C18.1859 17.6943 18.1343 17.6601 18.0862 17.6197L18.0624 17.5989L18.0238 17.564C17.7414 17.3084 17.7658 16.8293 18.0238 16.5703L18.1053 16.4886C18.2085 16.3861 18.2974 16.3049 18.4641 16.1932C18.4887 16.1767 18.5139 16.1612 18.5393 16.1467C18.452 15.9855 18.4218 15.7969 18.4825 15.5888C18.6943 14.8641 19.7368 14.8897 20.3976 15.2058C21.1286 14.5532 21.9392 13.9866 22.8177 13.5279C24.9102 12.4358 27.2763 11.6742 29.5865 11.2087ZM18.7708 30.2974C19.1616 30.1699 19.6806 30.4377 20.0318 30.5988C20.477 30.8032 20.8558 31.1053 21.2227 31.4246C21.4054 31.5842 21.4381 31.8453 21.3927 32.0683C21.3882 32.0907 21.3838 32.1138 21.3785 32.1369C21.33 32.3749 21.0645 32.5621 20.8296 32.5554C20.3382 32.542 20.1041 32.1175 19.8259 31.758C19.7932 31.8162 19.7522 31.8699 19.7014 31.9102L19.6671 31.937C19.5516 32.025 19.4244 32.0952 19.2719 32.0885C19.1637 32.0832 19.0602 32.0556 18.9646 32.0057C18.726 31.8796 18.6209 31.5708 18.6857 31.3194C18.726 31.1612 18.8185 31.0374 18.9393 30.9516L18.8942 30.9208C18.7979 30.8537 18.71 30.783 18.6415 30.6787L18.6261 30.654H18.632C18.5575 30.5257 18.606 30.3512 18.7708 30.2974Z" fill="black"/>
<path fill-rule="evenodd" clip-rule="evenodd" d="M37.1737 37.8044C36.6244 37.9635 36.0347 37.9778 35.4748 37.8134C34.9669 37.6643 34.4454 37.3362 34.0716 36.902C33.7396 36.5163 33.5245 36.0476 33.533 35.5473C33.5339 35.4902 33.5544 35.4425 33.5858 35.4055C33.6196 35.3656 33.6668 35.3382 33.7175 35.3264C33.7695 35.3141 33.8245 35.3185 33.8714 35.3398C33.9138 35.359 33.9501 35.3918 33.9728 35.4396C34.0303 35.5151 34.0875 35.5895 34.145 35.6618C34.6068 36.2323 35.0541 36.6587 35.7487 36.8116C36.1255 36.8946 36.5019 36.8578 36.8472 36.7312C37.2169 36.5956 37.551 36.3573 37.8129 36.0524C37.9312 35.9145 38.0709 35.8583 38.2075 35.8573C38.3623 35.8563 38.5153 35.9282 38.6306 36.0432C38.7439 36.1563 38.8198 36.3099 38.8267 36.4706C38.8327 36.6117 38.7867 36.759 38.6643 36.8904C38.2613 37.3234 37.7389 37.6406 37.1737 37.8044ZM37.1563 30.659C37.7194 31.0014 38.5774 31.7998 37.9716 32.6486C37.2585 33.397 36.2319 32.5389 35.726 32.1508C35.2569 31.85 34.7298 32.6236 35.1651 32.9748C38.8208 35.6822 40.3043 30.7485 37.4411 30.2564C37.1258 30.2022 37.0087 30.5531 37.1563 30.659ZM31.8891 29.1523C31.7081 29.0365 31.4952 28.9968 31.2593 29.1042C31.0749 29.188 30.7515 29.4677 30.5264 29.8352C30.3724 30.0867 30.2633 30.3817 30.286 30.689C30.2913 30.7604 30.2649 30.813 30.2233 30.8519C30.1905 30.8826 30.1431 30.9052 30.0873 30.9123C30.04 30.9183 29.9871 30.9129 29.944 30.8994C29.8622 30.8739 29.8188 30.8207 29.8025 30.7773C29.6449 30.3587 29.7128 29.8915 29.8894 29.4701C30.1277 28.9013 30.5606 28.4248 30.8442 28.2712C31.3294 28.0083 31.9019 27.9962 32.3879 28.2641C32.8016 28.4921 33.0602 28.8602 33.3175 29.2354C33.3722 29.3151 33.4265 29.3943 33.4826 29.4721C33.595 29.6279 33.6062 29.7825 33.5626 29.9151C33.5144 30.0619 33.3914 30.1858 33.2376 30.2507C33.0955 30.3106 32.9305 30.3191 32.7845 30.2575C32.6612 30.2055 32.548 30.104 32.4764 29.9319C32.3558 29.6421 32.1549 29.3224 31.8891 29.1523V29.1523ZM41.0807 29.7971C40.9568 29.8617 40.8598 29.8812 40.7223 29.84C40.6463 29.8171 40.5711 29.7733 40.5123 29.7145C40.454 29.6562 40.4119 29.5836 40.3956 29.5032C40.3553 29.3046 40.2467 29.1187 40.0919 28.9975C39.9596 28.8939 39.7926 28.839 39.6074 28.87C39.4075 28.9033 39.2171 29.0316 39.0859 29.1828C39.0421 29.2334 39.0077 29.2908 38.9732 29.3479C38.9086 29.4546 38.8457 29.5538 38.7566 29.6322C38.7228 29.662 38.6719 29.6826 38.6226 29.6826C38.6026 29.6826 38.5822 29.6794 38.5629 29.6733C38.3639 29.4736 38.3257 29.3221 38.3321 29.1718C38.3388 29.0142 38.4009 28.8546 38.5013 28.7057C38.7368 28.3565 39.1838 28.0701 39.4855 28.0053C39.8987 27.9165 40.309 28.0231 40.6379 28.2539C40.9764 28.4914 41.2272 28.8602 41.3054 29.2757C41.3243 29.3758 41.3163 29.4839 41.2782 29.5775C41.2409 29.6691 41.176 29.7475 41.0807 29.7971ZM32.8002 25.4287C32.5523 25.6704 32.2588 25.7078 31.962 25.7411C31.797 25.7597 31.6653 25.7748 31.5357 25.804C31.1796 25.8845 30.8275 26.0056 30.5063 26.18C30.1705 26.3624 29.8046 26.5823 29.5414 26.8641C29.4788 26.9311 29.4198 27.0015 29.3607 27.072C29.3068 27.1363 29.2549 27.1982 29.2002 27.2579C29.1374 27.3264 29.0777 27.3983 29.0184 27.4699C28.9817 27.5304 28.9745 27.5452 28.9671 27.5607C28.956 27.584 28.943 27.61 28.9282 27.6379C28.908 27.6762 28.8843 27.7181 28.8595 27.756C28.8182 27.8254 28.7961 27.8445 28.7769 27.8531C28.7451 27.8672 28.715 27.8742 28.6858 27.8704C28.6584 27.8669 28.6326 27.8537 28.6071 27.8322C28.4798 27.7246 28.4422 27.548 28.4461 27.3606C28.4519 27.0762 28.5568 26.7613 28.6534 26.5677C28.8782 26.1179 29.19 25.6504 29.5648 25.3147C29.9925 24.9315 30.4605 24.6414 30.998 24.4415C31.332 24.3172 31.7188 24.2032 32.0827 24.2176C32.3446 24.2279 32.5947 24.3058 32.8012 24.5003C32.928 24.6197 32.9889 24.7896 32.9889 24.9593C32.9889 25.1324 32.9256 25.3065 32.8002 25.4287ZM41.5856 27.6416C41.5698 27.6675 41.548 27.6853 41.5237 27.696C41.4983 27.7072 41.4698 27.7104 41.4426 27.7058C41.4154 27.7013 41.3896 27.6889 41.3691 27.6701C41.3495 27.6521 41.3346 27.6282 41.3279 27.5989C41.1633 26.8756 40.8436 26.3376 40.1614 25.9906C39.8258 25.8199 39.4399 25.7114 39.0746 25.6249C38.9684 25.5998 38.8562 25.5835 38.7433 25.567C38.3892 25.5153 38.0326 25.4561 37.8018 25.1698C37.6627 24.9974 37.6044 24.7768 37.6374 24.5751C37.6684 24.3852 37.7794 24.2111 37.981 24.1068C38.4831 23.8471 39.107 24.1019 39.6139 24.319C39.6515 24.3351 39.6885 24.3509 39.7246 24.3661C40.2204 24.5755 40.6726 24.8518 41.0443 25.247C41.3392 25.5605 41.6124 26.0239 41.7225 26.5007C41.8141 26.8974 41.7925 27.3023 41.5856 27.6416Z" fill="black"/>
<path fill-rule="evenodd" clip-rule="evenodd" d="M38.7368 39.009C38.0423 38.3901 37.2639 37.1459 36.2662 38.1304C36.0195 38.4085 35.9195 39.0321 35.5422 39.1545C35.0411 39.3171 34.5445 38.7867 34.3737 38.3794C33.675 36.1165 36.5634 35.4958 38.2088 35.8614C39.0127 36.1916 39.6048 37.5209 39.6406 38.2146C39.6637 38.6808 39.2692 39.3663 38.7368 39.009M43.9764 35.5211C43.9696 35.491 43.9602 35.4639 43.9488 35.4392C43.6416 35.3231 43.3986 35.4415 43.2484 35.6628C43.2533 35.7177 43.2697 35.7735 43.2801 35.828C43.1642 36.0722 43.0597 36.3744 42.9026 36.5854C42.8716 36.5878 42.8395 36.5845 42.8086 36.5756C40.2051 36.8475 41.4762 34.1227 38.8356 33.4459C36.7944 33.109 33.1051 33.4949 32.1422 35.6202C31.3828 39.0148 27.5213 36.6494 26.2535 34.884C24.9007 33.2773 24.026 31.314 23.1826 29.4089C23.0044 29.0057 22.4482 29.294 22.5087 29.6808C21.7291 31.2451 21.7551 33.1242 21.562 34.8379C21.2336 38.2569 20.9136 43.0517 24.0893 45.1394C28.227 49.8177 38.5592 51.4686 43.3315 47.17C44.9836 43.6171 44.7799 39.2827 43.9764 35.5211" fill="black"/>
<path fill-rule="evenodd" clip-rule="evenodd" d="M41.2577 25.1113C43.0081 25.1113 44.0069 25.4879 44.3729 25.5172L44.3839 25.518C44.5362 25.5277 44.6727 25.5404 44.816 25.5959C45.3429 25.7989 45.4287 26.3516 45.1213 26.7C45.0997 27.4209 45.1945 28.2631 45.0318 28.9863C44.8312 32.035 43.3979 32.5495 42.5832 32.7373C42.1742 32.8316 41.6894 32.8692 41.2549 32.7696C40.5137 32.742 39.7809 32.5098 39.154 32.1057C38.2808 31.5423 37.6323 30.6765 37.4218 29.6489C37.3221 29.1591 37.2755 28.6492 37.3298 28.1514L37.3378 28.0828C37.054 27.947 36.7251 27.9213 36.3861 27.9093C36.2241 27.9035 36.0645 27.8984 35.9094 27.9052C35.7579 27.9222 35.6081 27.9447 35.4579 27.9754C35.2938 28.0249 35.1389 28.1067 34.9958 28.2361L34.986 28.425C34.9591 28.8969 34.8972 29.3702 34.8016 29.8331C34.6606 30.5163 34.4337 31.1687 33.9509 31.6532C33.7874 31.8974 33.5852 32.1153 33.3397 32.3041C32.4478 32.991 31.2361 33.2432 30.1239 33.1482C27.8662 32.9555 26.5612 31.1627 26.2604 30.3963L26.2425 30.3499C26.0252 29.7802 25.8521 29.041 25.1656 28.9186L25.0195 28.8924C24.7063 28.8335 24.4172 28.7516 24.2335 28.4459C24.153 28.3124 24.1116 28.1631 24.1014 28.0109C23.9943 28.0192 23.8873 28.027 23.7806 28.0347C22.9299 28.2146 17.8272 28.3672 17.42 28.3672C17.42 28.3672 16.637 28.6969 16.3065 28.4415C16.0774 28.2639 16.002 28.0272 16.1281 27.759C16.3184 27.3556 17.1964 27.1129 17.5862 27.0361C17.5862 27.0361 23.8773 27.0883 24.3301 27.0025C24.6102 26.7135 25.1114 26.753 25.5301 26.7073C25.8768 26.4601 26.3617 26.2945 26.7448 26.1836C26.8228 26.154 26.9001 26.1254 26.9753 26.0985C27.6775 25.8483 28.4075 25.7158 29.1485 25.6446C29.9127 25.572 30.6792 25.6049 31.4389 25.709C31.759 25.7524 32.0762 25.8086 32.3911 25.8821C32.9551 25.9564 33.5157 26.0789 34.0798 26.2242L34.1927 26.2536C34.7867 26.4094 35.3972 26.5441 36.0121 26.4385C36.5127 26.3531 36.9942 26.1604 37.4558 25.952L37.5159 25.9247C38.5308 25.4611 40.1159 25.1113 41.2577 25.1113ZM32.3296 26.8063C31.9551 26.7239 31.7952 27.3014 32.1709 27.3841C32.4369 27.4426 32.6624 27.5768 32.8147 27.8041L32.8307 27.8288C33.0351 28.1542 33.552 27.8538 33.3462 27.5264C33.1146 27.1579 32.7548 26.8997 32.3296 26.8063ZM43.2981 26.4482C43.1661 26.3551 42.9663 26.4242 42.8897 26.5556C42.8053 26.7004 42.8606 26.8616 42.9843 26.9563L42.9969 26.9655C43.1103 27.0455 43.2207 27.1888 43.2346 27.3357L43.2358 27.354C43.2507 27.7384 43.8478 27.7403 43.8329 27.354C43.8183 26.9761 43.5996 26.6604 43.2981 26.4482Z" fill="black"/>
</g>
<path d="M30 58C14.536 58 2 45.464 2 30H-2C-2 47.6731 12.3269 62 30 62V58ZM58 30C58 45.464 45.464 58 30 58V62C47.6731 62 62 47.6731 62 30H58ZM30 2C45.464 2 58 14.536 58 30H62C62 12.3269 47.6731 -2 30 -2V2ZM30 -2C12.3269 -2 -2 12.3269 -2 30H2C2 14.536 14.536 2 30 2V-2Z" fill="#18191F"/>
<defs>
<clipPath id="clip0">
<path d="M0 30C0 13.4315 13.4315 0 30 0V0C46.5685 0 60 13.4315 60 30V30C60 46.5685 46.5685 60 30 60V60C13.4315 60 0 46.5685 0 30V30Z" fill="white"/>
</clipPath>
</defs>
</svg>
