<svg width="49" height="48" viewBox="0 0 49 48" fill="none" xmlns="http://www.w3.org/2000/svg">
<path fill-rule="evenodd" clip-rule="evenodd" d="M33 24C34.1046 24 35 24.8954 35 26V42C35 43.1046 34.1046 44 33 44C31.8954 44 31 43.1046 31 42V26C31 24.8954 31.8954 24 33 24Z" fill="#18191F"/>
<path fill-rule="evenodd" clip-rule="evenodd" d="M17 24C18.1046 24 19 24.8954 19 26V42C19 43.1046 18.1046 44 17 44C15.8954 44 15 43.1046 15 42V26C15 24.8954 15.8954 24 17 24Z" fill="#18191F"/>
<path fill-rule="evenodd" clip-rule="evenodd" d="M25 28C26.1046 28 27 28.8954 27 30V46C27 47.1046 26.1046 48 25 48C23.8954 48 23 47.1046 23 46V30C23 28.8954 23.8954 28 25 28Z" fill="#18191F"/>
<path fill-rule="evenodd" clip-rule="evenodd" d="M17.1648 0.0930913C20.0026 -0.195869 22.8684 0.193718 25.526 1.22974C28.1836 2.26577 30.557 3.91856 32.4505 6.05189C33.996 7.79324 35.1857 9.81406 35.9586 11.9999H37.0024C39.7568 12.0032 42.4262 12.9538 44.5625 14.6923C46.6989 16.4308 48.1722 18.8513 48.735 21.5476C49.2979 24.2438 48.9162 27.0516 47.6538 29.4996C46.3915 31.9477 44.3254 33.8869 41.8024 34.9919C40.7906 35.435 39.6112 34.9741 39.1681 33.9623C38.7249 32.9505 39.1859 31.771 40.1977 31.3279C41.8797 30.5913 43.2571 29.2984 44.0986 27.6664C44.9402 26.0343 45.1947 24.1625 44.8195 22.365C44.4442 20.5675 43.462 18.9539 42.0378 17.7948C40.6137 16.636 38.8344 16.0023 36.9985 15.9999C36.9982 15.9999 36.9988 15.9999 36.9985 15.9999H34.4801C33.5681 15.9999 32.7716 15.383 32.5436 14.5C31.9889 12.3519 30.9316 10.3664 29.4589 8.70714C27.9862 7.04788 26.1402 5.76237 24.0732 4.95657C22.0061 4.15078 19.7772 3.84777 17.57 4.07251C15.3629 4.29726 13.2408 5.04333 11.3786 6.24923C9.51636 7.45513 7.9674 9.08633 6.85938 11.0084C5.75135 12.9304 5.11597 15.0883 5.00561 17.3041C4.89526 19.5199 5.31308 21.7302 6.22465 23.7529C7.13622 25.7755 8.51543 27.5525 10.2486 28.9375C11.1115 29.627 11.252 30.8855 10.5625 31.7484C9.87295 32.6113 8.61445 32.7519 7.75154 32.0623C5.52318 30.2817 3.74991 27.9969 2.5779 25.3964C1.40588 22.7959 0.86868 19.954 1.01057 17.1051C1.15245 14.2562 1.96937 11.4818 3.39397 9.01064C4.81858 6.53943 6.81009 4.44217 9.20435 2.89173C11.5986 1.34129 14.3271 0.382052 17.1648 0.0930913Z" fill="#18191F"/>
</svg>
