<svg width="32" height="32" viewBox="0 0 32 32" fill="none" xmlns="http://www.w3.org/2000/svg">
<g clip-path="url(#clip0)">
<path fill-rule="evenodd" clip-rule="evenodd" d="M10.0237 0.163188C13.974 -0.493582 18.0755 0.909033 20.7964 3.84716C21.9117 5.05148 22.7655 6.46902 23.3089 8.01018C25.3063 8.06215 27.4884 8.36488 29.3684 10.0628C30.8407 11.3925 31.7664 13.2219 31.9658 15.1958C32.3743 19.2408 29.5824 23.0308 25.5982 23.8398C24.8766 23.9863 24.1728 23.5201 24.0262 22.7985C23.8797 22.0768 24.3459 21.373 25.0676 21.2265C27.7092 20.6901 29.5835 18.1457 29.3126 15.4638C29.1797 14.1479 28.5625 12.9283 27.581 12.0418C26.2145 10.8077 24.5825 10.6665 22.3196 10.6665C21.7116 10.6665 21.1806 10.2552 21.0286 9.66657C20.6421 8.17011 19.89 6.79306 18.8398 5.65905C16.7284 3.37909 13.5265 2.2841 10.4611 2.79375C7.39572 3.3034 4.72033 5.37556 3.46027 8.21607C1.52854 12.5707 3.33178 17.8749 7.47193 20.1666C8.1162 20.5232 8.3494 21.3346 7.99278 21.9788C7.63617 22.6231 6.8248 22.8563 6.18053 22.4997C0.836487 19.5417 -1.47181 12.758 1.02268 7.13474C2.64648 3.47427 6.07349 0.819958 10.0237 0.163188Z" fill="#18191F"/>
<path fill-rule="evenodd" clip-rule="evenodd" d="M18.0733 13.5571C18.686 13.9656 18.8515 14.7934 18.4431 15.4061L14.4917 21.3331H20.0003C20.4921 21.3331 20.9439 21.6038 21.1759 22.0373C21.4079 22.4709 21.3825 22.9969 21.1097 23.4061L15.7764 31.4061C15.3679 32.0188 14.5401 32.1844 13.9274 31.7759C13.3147 31.3674 13.1491 30.5396 13.5576 29.9269L17.509 23.9998H12.0003C11.5086 23.9998 11.0568 23.7292 10.8248 23.2956C10.5927 22.8621 10.6182 22.336 10.8909 21.9269L16.2243 13.9269C16.6327 13.3142 17.4606 13.1486 18.0733 13.5571Z" fill="#18191F"/>
</g>
<defs>
<clipPath id="clip0">
<rect width="32" height="32" fill="white"/>
</clipPath>
</defs>
</svg>
