<svg width="32" height="32" viewBox="0 0 32 32" fill="none" xmlns="http://www.w3.org/2000/svg">
<path fill-rule="evenodd" clip-rule="evenodd" d="M16 10.6667C13.0545 10.6667 10.6667 13.0545 10.6667 16C10.6667 18.9455 13.0545 21.3333 16 21.3333C18.9455 21.3333 21.3333 18.9455 21.3333 16C21.3333 13.0545 18.9455 10.6667 16 10.6667ZM8 16C8 11.5817 11.5817 8 16 8C20.4183 8 24 11.5817 24 16C24 20.4183 20.4183 24 16 24C11.5817 24 8 20.4183 8 16Z" fill="#18191F"/>
<path fill-rule="evenodd" clip-rule="evenodd" d="M16.0003 0C16.7367 0 17.3337 0.596954 17.3337 1.33333V4C17.3337 4.73638 16.7367 5.33333 16.0003 5.33333C15.2639 5.33333 14.667 4.73638 14.667 4V1.33333C14.667 0.596954 15.2639 0 16.0003 0Z" fill="#18191F"/>
<path fill-rule="evenodd" clip-rule="evenodd" d="M16.0003 26.6665C16.7367 26.6665 17.3337 27.2635 17.3337 27.9998V30.6665C17.3337 31.4029 16.7367 31.9998 16.0003 31.9998C15.2639 31.9998 14.667 31.4029 14.667 30.6665V27.9998C14.667 27.2635 15.2639 26.6665 16.0003 26.6665Z" fill="#18191F"/>
<path fill-rule="evenodd" clip-rule="evenodd" d="M4.68349 4.68398C5.20419 4.16328 6.04841 4.16328 6.56911 4.68398L8.46244 6.57731C8.98314 7.09801 8.98314 7.94223 8.46244 8.46293C7.94174 8.98363 7.09753 8.98363 6.57683 8.46293L4.68349 6.5696C4.16279 6.0489 4.16279 5.20468 4.68349 4.68398Z" fill="#18191F"/>
<path fill-rule="evenodd" clip-rule="evenodd" d="M23.537 23.537C24.0577 23.0163 24.9019 23.0163 25.4226 23.537L27.316 25.4303C27.8367 25.951 27.8367 26.7953 27.316 27.316C26.7953 27.8367 25.951 27.8367 25.4303 27.316L23.537 25.4226C23.0163 24.9019 23.0163 24.0577 23.537 23.537Z" fill="#18191F"/>
<path fill-rule="evenodd" clip-rule="evenodd" d="M0 15.9998C0 15.2635 0.596954 14.6665 1.33333 14.6665H4C4.73638 14.6665 5.33333 15.2635 5.33333 15.9998C5.33333 16.7362 4.73638 17.3332 4 17.3332H1.33333C0.596954 17.3332 0 16.7362 0 15.9998Z" fill="#18191F"/>
<path fill-rule="evenodd" clip-rule="evenodd" d="M26.667 15.9998C26.667 15.2635 27.2639 14.6665 28.0003 14.6665H30.667C31.4034 14.6665 32.0003 15.2635 32.0003 15.9998C32.0003 16.7362 31.4034 17.3332 30.667 17.3332H28.0003C27.2639 17.3332 26.667 16.7362 26.667 15.9998Z" fill="#18191F"/>
<path fill-rule="evenodd" clip-rule="evenodd" d="M8.46244 23.537C8.98314 24.0577 8.98314 24.9019 8.46244 25.4226L6.56911 27.316C6.04841 27.8367 5.20419 27.8367 4.68349 27.316C4.16279 26.7953 4.16279 25.951 4.68349 25.4303L6.57683 23.537C7.09753 23.0163 7.94174 23.0163 8.46244 23.537Z" fill="#18191F"/>
<path fill-rule="evenodd" clip-rule="evenodd" d="M27.316 4.68398C27.8367 5.20468 27.8367 6.0489 27.316 6.5696L25.4226 8.46293C24.9019 8.98363 24.0577 8.98363 23.537 8.46293C23.0163 7.94223 23.0163 7.09801 23.537 6.57731L25.4303 4.68398C25.951 4.16328 26.7953 4.16328 27.316 4.68398Z" fill="#18191F"/>
</svg>
