<svg width="150" height="150" viewBox="0 0 150 150" fill="none" xmlns="http://www.w3.org/2000/svg">
<circle cx="75" cy="75" r="75" fill="#FFBD12"/>
<path fill-rule="evenodd" clip-rule="evenodd" d="M36.1676 116.47C46.2985 126.601 59.0595 131.667 74.4507 131.667C83.8023 131.667 92.3746 129.524 100.168 125.237C108.058 120.854 114.244 114.912 118.725 107.411L96.0763 94.2603C94.128 97.9619 91.2056 100.884 87.3091 103.027C83.51 105.073 79.2239 106.096 74.4507 106.096C66.268 106.096 59.644 103.563 54.5785 98.4977C49.6105 93.3349 47.1265 86.6134 47.1265 78.3333C47.1265 70.0533 49.6105 63.3805 54.5785 58.3151C59.644 53.1522 66.268 50.5708 74.4507 50.5708C79.2239 50.5708 83.51 51.6423 87.3091 53.7854C91.2056 55.8311 94.128 58.656 96.0763 62.2603L118.725 49.2557C114.244 41.8524 108.058 35.9589 100.168 31.5753C92.2772 27.1918 83.7049 25 74.4507 25C59.0595 25 46.2985 30.1142 36.1676 40.3425C26.1341 50.4734 21.1174 63.137 21.1174 78.3333C21.1174 93.5297 26.1341 106.242 36.1676 116.47ZM116.667 90C123.11 90 128.333 84.7766 128.333 78.3333C128.333 71.89 123.11 66.6667 116.667 66.6667C110.223 66.6667 105 71.89 105 78.3333C105 84.7766 110.223 90 116.667 90Z" fill="#18191F"/>
<path fill-rule="evenodd" clip-rule="evenodd" d="M88.9025 105.955L88.8895 105.962C84.5547 108.296 79.7158 109.429 74.4507 109.429C65.5206 109.429 58.0025 106.636 52.2215 100.855L52.1989 100.832L52.1766 100.809C46.5179 94.9283 43.7932 87.3309 43.7932 78.3333C43.7932 69.3373 46.5178 61.7734 52.1987 55.981C57.9756 50.0931 65.5015 47.2374 74.4507 47.2374C79.7244 47.2374 84.569 48.423 88.903 50.8574C92.2546 52.6245 95.0272 54.936 97.1654 57.7911L113.997 48.1265C110.035 42.561 104.901 38.0179 98.5488 34.4892C91.1664 30.3879 83.1533 28.3333 74.4507 28.3333C59.8809 28.3333 47.9943 33.1388 38.5359 42.6882C29.1641 52.1509 24.4507 63.9515 24.4507 78.3333C24.4507 92.7095 29.161 104.562 38.5358 114.124C47.9902 123.573 59.8767 128.333 74.4507 128.333C83.2678 128.333 91.2809 126.319 98.5544 122.32C104.916 118.785 110.059 114.195 114.026 108.537L97.1926 98.763C95.0569 101.7 92.2814 104.097 88.9155 105.948L88.9025 105.955ZM95.1942 95.7793C93.2847 98.7704 90.6563 101.186 87.3091 103.027C83.51 105.073 79.2239 106.096 74.4507 106.096C66.268 106.096 59.644 103.563 54.5785 98.4977C49.6105 93.3349 47.1265 86.6134 47.1265 78.3333C47.1265 70.0533 49.6105 63.3805 54.5785 58.3151C59.644 53.1522 66.268 50.5708 74.4507 50.5708C79.2239 50.5708 83.51 51.6423 87.3091 53.7854C90.8732 55.6565 93.6222 58.1796 95.5563 61.3547C95.7367 61.6509 95.91 61.9527 96.0763 62.2603L118.725 49.2557C118.145 48.2983 117.537 47.3662 116.901 46.4593C112.615 40.3533 107.038 35.392 100.168 31.5753C92.2772 27.1918 83.7049 25 74.4507 25C59.0595 25 46.2985 30.1142 36.1676 40.3425C26.1341 50.4734 21.1174 63.137 21.1174 78.3333C21.1174 93.5297 26.1341 106.242 36.1676 116.47C46.2985 126.601 59.0595 131.667 74.4507 131.667C83.8023 131.667 92.3746 129.524 100.168 125.237C107.047 121.415 112.631 116.409 116.919 110.217C117.549 109.307 118.151 108.372 118.725 107.411L96.0763 94.2603C95.8016 94.7821 95.5076 95.2885 95.1942 95.7793ZM116.667 86.6667C121.269 86.6667 125 82.9357 125 78.3333C125 73.731 121.269 70 116.667 70C112.064 70 108.333 73.731 108.333 78.3333C108.333 82.9357 112.064 86.6667 116.667 86.6667ZM128.333 78.3333C128.333 84.7766 123.11 90 116.667 90C110.223 90 105 84.7766 105 78.3333C105 71.89 110.223 66.6667 116.667 66.6667C123.11 66.6667 128.333 71.89 128.333 78.3333Z" fill="#18191F"/>
<path fill-rule="evenodd" clip-rule="evenodd" d="M36.1676 113.137C46.2985 123.268 59.0595 128.333 74.4507 128.333C83.8023 128.333 92.3746 126.19 100.168 121.904C108.058 117.521 114.244 111.578 118.725 104.078L96.0763 90.9269C94.128 94.6286 91.2056 97.551 87.3091 99.6941C83.51 101.74 79.2239 102.763 74.4507 102.763C66.268 102.763 59.644 100.23 54.5785 95.1644C49.6105 90.0015 47.1265 83.2801 47.1265 75C47.1265 66.7199 49.6105 60.0472 54.5785 54.9817C59.644 49.8189 66.268 47.2374 74.4507 47.2374C79.2239 47.2374 83.51 48.309 87.3091 50.452C91.2056 52.4977 94.128 55.3227 96.0763 58.9269L118.725 45.9224C114.244 38.519 108.058 32.6256 100.168 28.242C92.2772 23.8584 83.7049 21.6667 74.4507 21.6667C59.0595 21.6667 46.2985 26.7808 36.1676 37.0091C26.1341 47.14 21.1174 59.8036 21.1174 75C21.1174 90.1963 26.1341 102.909 36.1676 113.137ZM116.667 86.6666C123.11 86.6666 128.333 81.4433 128.333 75C128.333 68.5567 123.11 63.3333 116.667 63.3333C110.223 63.3333 105 68.5567 105 75C105 81.4433 110.223 86.6666 116.667 86.6666Z" fill="white"/>
<path fill-rule="evenodd" clip-rule="evenodd" d="M88.9025 102.622L88.8895 102.629C84.5547 104.963 79.7158 106.096 74.4507 106.096C65.5206 106.096 58.0025 103.302 52.2215 97.5214L52.1989 97.4987L52.1766 97.4756C46.5179 91.5949 43.7932 83.9975 43.7932 75C43.7932 66.004 46.5178 58.44 52.1987 52.6477C57.9756 46.7597 65.5015 43.9041 74.4507 43.9041C79.7244 43.9041 84.569 45.0897 88.903 47.5241C92.2546 49.2912 95.0272 51.6026 97.1654 54.4578L113.997 44.7931C110.035 39.2276 104.901 34.6846 98.5488 31.1559C91.1664 27.0546 83.1533 25 74.4507 25C59.8809 25 47.9943 29.8054 38.5359 39.3548C29.1641 48.8176 24.4507 60.6182 24.4507 75C24.4507 89.3761 29.161 101.229 38.5358 110.791C47.9902 120.24 59.8767 125 74.4507 125C83.2678 125 91.2809 122.986 98.5544 118.987C104.916 115.452 110.059 110.862 114.026 105.204L97.1926 95.4296C95.0569 98.367 92.2814 100.764 88.9155 102.615L88.9025 102.622ZM95.1942 92.446C93.2847 95.4371 90.6563 97.8531 87.3091 99.6941C83.51 101.74 79.2239 102.763 74.4507 102.763C66.268 102.763 59.644 100.23 54.5785 95.1644C49.6105 90.0015 47.1265 83.2801 47.1265 75C47.1265 66.7199 49.6105 60.0472 54.5785 54.9817C59.644 49.8189 66.268 47.2374 74.4507 47.2374C79.2239 47.2374 83.51 48.309 87.3091 50.452C90.8732 52.3232 93.6222 54.8463 95.5563 58.0214C95.7367 58.3175 95.91 58.6194 96.0763 58.9269L118.725 45.9224C118.145 44.965 117.537 44.0328 116.901 43.1259C112.615 37.02 107.038 32.0587 100.168 28.242C92.2772 23.8584 83.7049 21.6667 74.4507 21.6667C59.0595 21.6667 46.2985 26.7808 36.1676 37.0091C26.1341 47.14 21.1174 59.8036 21.1174 75C21.1174 90.1963 26.1341 102.909 36.1676 113.137C46.2985 123.268 59.0595 128.333 74.4507 128.333C83.8023 128.333 92.3746 126.19 100.168 121.904C107.047 118.082 112.631 113.075 116.919 106.883C117.549 105.974 118.151 105.038 118.725 104.078L96.0763 90.9269C95.8016 91.4488 95.5076 91.9551 95.1942 92.446ZM116.667 83.3333C121.269 83.3333 125 79.6024 125 75C125 70.3976 121.269 66.6667 116.667 66.6667C112.064 66.6667 108.333 70.3976 108.333 75C108.333 79.6024 112.064 83.3333 116.667 83.3333ZM128.333 75C128.333 81.4433 123.11 86.6666 116.667 86.6666C110.223 86.6666 105 81.4433 105 75C105 68.5567 110.223 63.3333 116.667 63.3333C123.11 63.3333 128.333 68.5567 128.333 75Z" fill="#18191F"/>
</svg>
