<svg width="30" height="93" viewBox="0 0 30 93" fill="none" xmlns="http://www.w3.org/2000/svg">
<path opacity="0.5" fill-rule="evenodd" clip-rule="evenodd" d="M1.23638 25.3897C0.64878 26.8757 -2.78736e-06 29.2325 -2.65998e-06 32.1468C-2.33478e-06 39.5865 3.95428 44.8255 9.60772 44.8577C13.7788 44.9195 16.0955 41.1067 17.4863 38.2551C18.9075 35.3404 19.8351 34.3496 21.1018 34.3496C23.0474 34.3793 23.9442 36.7048 23.9442 38.8738C23.9442 41.8816 23.4818 43.4932 22.3994 45.9424L21.9354 46.9344L28.4544 47.9886C29.2568 46.2217 29.9688 42.9663 30 39.5865C30 31.6817 26.1069 26.5354 20.0823 26.4744C16.7764 26.4443 14.2432 28.4576 12.1733 32.7981C10.8445 35.4331 9.94854 37.0467 8.58897 37.0467C7.353 37.0158 6.08705 35.6819 6.08705 32.7075C6.02505 30.2583 6.61182 28.4589 7.19901 27.0957L7.50739 26.4143L1.23638 25.3897ZM29.5674 52.7001L29.5674 60.2337L0.52661 55.5216L0.526609 47.9884L29.5674 52.7001ZM11.1539 12.3693C11.1539 12.3693 17.6109 14.7567 19.2793 15.3771L19.2793 9.11519C17.8273 9.42499 10.8759 10.8516 10.8759 10.8516L8.37359 11.3781C9.01805 11.5999 9.90412 11.9206 10.5016 12.1368L10.5029 12.1373C10.9071 12.2836 11.1789 12.382 11.1539 12.3693ZM0.526608 11.905L0.526608 6.07776L29.567 1.23608e-07L29.567 6.97544C29.567 6.97544 26.2303 7.65807 25.2107 7.87435L25.2107 17.5469L29.567 19.1281L29.567 27.0329L2.93614 15.8426C1.05138 15.0673 0.526608 13.702 0.526608 11.905ZM0.52661 66.5262L20.3297 73.9041L16.3134 74.7103C16.3128 74.7105 16.3121 74.7107 16.3115 74.7109L2.96776 77.3452C1.11298 77.779 0.587793 79.1121 0.526611 80.7551L0.526611 92.876L1.11339 93C1.86688 90.0438 2.95265 87.3997 4.30267 85.083L29.5366 78.3682L29.5366 70.4016L0.52661 58.5599L0.52661 66.5262Z" fill="#18191F"/>
</svg>
