<svg width="24" height="24" viewBox="0 0 24 24" fill="none" xmlns="http://www.w3.org/2000/svg">
<path d="M23 2.99998C22.0424 3.67546 20.9821 4.19209 19.86 4.52999C19.2577 3.8375 18.4573 3.34668 17.567 3.12391C16.6767 2.90115 15.7395 2.95718 14.8821 3.28444C14.0247 3.6117 13.2884 4.19439 12.773 4.9537C12.2575 5.71302 11.9877 6.61232 12 7.52998V8.52998C10.2426 8.57555 8.50127 8.1858 6.93101 7.39543C5.36074 6.60506 4 5.49994 3 3.99998C3 3.99998 -1 13 8 17C5.94053 18.398 3.48716 19.0989 1 19C10 24 21 19 21 7.49998C20.9991 7.22144 20.9723 6.94358 20.92 6.66999C21.9406 5.66348 22.6608 4.3927 23 2.99998Z" fill="white"/>
</svg>
